<?xml version="1.0" standalone="no"?>
<!DOCTYPE svg PUBLIC "-//W3C//DTD SVG 1.1//EN" "http://www.w3.org/Graphics/SVG/1.1/DTD/svg11.dtd" >
<svg xmlns="http://www.w3.org/2000/svg" xmlns:xlink="http://www.w3.org/1999/xlink" version="1.1">
<metadata>
Created by FontForge 20201107 at Sat Sep 21 20:35:53 2024
 By 
Copyright 2024 The Arad Project Authors (https://github.com/MDarvishi5124/Arad)
</metadata>
<defs>
<font id="Arad-ThinDots4" horiz-adv-x="1500" >
  <font-face 
    font-family="Arad Thin Dots4"
    font-weight="100"
    font-stretch="normal"
    units-per-em="2176"
    panose-1="0 0 0 0 0 0 0 0 0 0"
    ascent="1740"
    descent="-436"
    x-height="1054"
    cap-height="1432"
    bbox="-401 -1177 3016 2305"
    underline-thickness="40"
    underline-position="-185"
    unicode-range="U+000D-FEFC"
  />
<missing-glyph horiz-adv-x="1300" 
d="M1150 0v1400h-1000v-1400h1000zM250 1300h800v-1200h-800v1200z" />
    <glyph glyph-name="uni0626" unicode="&#x649;&#x654;" horiz-adv-x="1554" 
d="M1340.5 82q-78.5 80 -233.5 85h-308v268q0 80 38 145.5t104 104t145 38.5h255v59h-255q-95 0 -174.5 -46.5t-125.5 -126t-46 -174.5v-327h365q129 -4 186.5 -64.5t42.5 -191.5q-20 -172 -169.5 -257.5t-368.5 -85.5h-108q-140 0 -244 64t-159.5 171t-55.5 233l1 424h-59
v-427q0 -141 63 -261t180.5 -192t273.5 -72h108q272 0 419 108.5t177 286.5q27 158 -51.5 238zM104 769l425 162l-18 46l-161 -61q-94 0 -135 48t-40 110q0 58 40.5 109.5t104.5 51.5q39 0 68 -10.5t61 -29.5q3 -2 5 -3l8 49q-62 43 -142 43q-57 0 -101 -30.5t-68.5 -79
t-24.5 -100.5q0 -71 39.5 -123.5t100.5 -67.5l-179 -69z" />
    <glyph glyph-name="uni06C0" unicode="&#x647;&#x654;" horiz-adv-x="1022" 
d="M735.5 525.5q71.5 -114.5 71.5 -210.5q0 -79 -42.5 -138.5t-110 -91.5t-141.5 -32q-72 0 -139.5 32.5t-110.5 92.5t-43 137q0 123 86 234t214 223q144 -132 215.5 -246.5zM268.5 591.5q-107.5 -133.5 -107.5 -276.5q0 -94 51 -167.5t132.5 -113.5t168.5 -40
q89 0 170.5 39t132 112.5t50.5 169.5q0 256 -408 590l-23 18l-37 -46l80 -66q-102 -86 -209.5 -219.5zM479.5 1182.5q89.5 25.5 129 72.5t39.5 116v109h-290v100q0 60 44 104.5t105 44.5h141v48h-141q-52 0 -97.5 -27t-72.5 -72.5t-27 -97.5v-103q-1 -17 13 -31t30 -14h247
v-61q0 -95 -95.5 -131t-262.5 -34v-48q148 -1 237.5 24.5z" />
    <glyph glyph-name="uniFBA70654" unicode="&#xfba7;&#x654;" horiz-adv-x="1145" 
d="M255 279q12 94 72 167.5t150 103.5l288 95l31 -347q7 -83 52.5 -151.5t117.5 -107.5t156 -39h23v60h-23q-69 0 -128 32t-96.5 87.5t-43.5 123.5l-35 385l-38 25l-323 -107q-106 -36 -176.5 -122.5t-85.5 -196.5l-35 -283l59 -7zM268 945l425 162l-18 46l-161 -61
q-94 0 -135 48t-40 110q0 58 40.5 109.5t104.5 51.5q39 0 68 -10.5t61 -29.5q3 -2 5 -3l8 49q-62 43 -142 43q-57 0 -101 -30.5t-68.5 -79t-24.5 -100.5q0 -71 39.5 -123.5t100.5 -67.5l-179 -69z" />
    <glyph glyph-name="uE115" unicode="&#xe091;&#xfe8e;" horiz-adv-x="1138" 
d="M260 301v1112h-59v-1112h59zM201 60v-60h409q89 0 164.5 44t119.5 119t44 164v1086h-59v-1084q0 -73 -36 -135t-98 -98t-135 -36h-409zM1178 2042l-64 1l-206 -235l-206 235l-64 -1l252 -288h37z" />
    <glyph glyph-name="uE116" unicode="&#xe092;&#xfe8e;" horiz-adv-x="1239" 
d="M201 60v-60h409q101 0 182 56.5t116 146.5q36 -90 116.5 -146.5t181.5 -56.5h33v60h-33q-73 0 -134.5 36t-97.5 98t-36 135v1084h-59v-1084q0 -73 -36 -135t-98 -98t-135 -36h-409zM260 301v1112h-59v-1112h59zM1178 2042l-64 1l-206 -235l-206 235l-64 -1l252 -288h37z
" />
    <glyph glyph-name="uE117" unicode="&#xe091;&#xfe82;" horiz-adv-x="1138" 
d="M260 301v918h-59v-918h59zM201 60v-60h409q89 0 164.5 44t119.5 119t44 164v1086h-59v-1084q0 -73 -36 -135t-98 -98t-135 -36h-409zM-71 1419q24 60 78 96.5t119 36.5h416v52h-416q-81 0 -148 -46t-97 -121l-46 -115l48 -19zM1178 2042h-64l-206 -235l-206 235h-64
l252 -288h36z" />
    <glyph glyph-name="uE118" unicode="&#xe092;&#xfe82;" horiz-adv-x="1239" 
d="M1239 60h-33q-73 0 -134.5 36t-97.5 98t-36 135v1084h-59v-1084q0 -73 -36 -135t-98 -98t-135 -36h-409v-60h409q101 0 182 56.5t116 146.5q36 -90 116.5 -146.5t181.5 -56.5h33v60zM260 301v918h-59v-918h59zM-71 1419q24 60 78 96.5t119 36.5h416v52h-416
q-81 0 -148 -46t-97 -121l-46 -115l48 -19zM1178 2042h-64l-206 -235l-206 235h-64l252 -288h36z" />
    <glyph glyph-name="uE120" unicode="&#xe091;&#x675;" horiz-adv-x="1139" 
d="M260 301v918h-59v-918h59zM201 60v-60h409q89 0 164.5 44t119.5 119t44 164v1086h-59v-1084q0 -73 -36 -135t-98 -98t-135 -36h-409zM40 1511l425 162l-18 46l-161 -61q-94 0 -135 48t-40 110q0 58 40.5 109.5t104.5 51.5q39 0 68 -10.5t61 -29.5q3 -2 5 -3l8 49
q-62 43 -142 43q-57 0 -101 -30.5t-68.5 -79t-24.5 -100.5q0 -71 39.5 -123.5t100.5 -67.5l-179 -69zM1179 2042h-64l-206 -235l-206 235h-64l252 -288h36z" />
    <glyph glyph-name="uE121" unicode="&#xe092;&#x675;" horiz-adv-x="1239" 
d="M1239 60h-33q-73 0 -134.5 36t-97.5 98t-36 135v1084h-59v-1084q0 -73 -36 -135t-98 -98t-135 -36h-409v-60h409q101 0 182 56.5t116 146.5q36 -90 116.5 -146.5t181.5 -56.5h33v60zM260 301v918h-59v-918h59zM40 1511l425 162l-18 46l-161 -61q-94 0 -135 48t-40 110
q0 58 40.5 109.5t104.5 51.5q39 0 68 -10.5t61 -29.5q3 -2 5 -3l8 49q-62 43 -142 43q-57 0 -101 -30.5t-68.5 -79t-24.5 -100.5q0 -71 39.5 -123.5t100.5 -67.5l-179 -69zM1179 2042h-64l-206 -235l-206 235h-64l252 -288h36z" />
    <glyph glyph-name="uE122" unicode="&#xe091;&#xfe88;" horiz-adv-x="1139" 
d="M260 301v1112h-59v-1112h59zM201 60v-60h409q89 0 164.5 44t119.5 119t44 164v1086h-59v-1084q0 -73 -36 -135t-98 -98t-135 -36h-409zM30 -799l425 162l-18 46l-161 -61q-94 0 -135 48t-40 110q0 58 40.5 109.5t104.5 51.5q39 0 68 -10.5t61 -29.5q3 -2 5 -3l8 49
q-62 43 -142 43q-57 0 -101 -30.5t-68.5 -79t-24.5 -100.5q0 -71 39.5 -123.5t100.5 -67.5l-179 -69zM1179 2042h-64l-206 -235l-206 235h-64l252 -288h36z" />
    <glyph glyph-name="uE123" unicode="&#xe092;&#xfe88;" horiz-adv-x="1239" 
d="M201 60v-60h409q101 0 182 56.5t116 146.5q36 -90 116.5 -146.5t181.5 -56.5h33v60h-33q-73 0 -134.5 36t-97.5 98t-36 135v1084h-59v-1084q0 -73 -36 -135t-98 -98t-135 -36h-409zM260 301v1112h-59v-1112h59zM29 -799l425 162l-18 46l-161 -61q-94 0 -135 48t-40 110
q0 58 40.5 109.5t104.5 51.5q39 0 68 -10.5t61 -29.5q3 -2 5 -3l8 49q-62 43 -142 43q-57 0 -101 -30.5t-68.5 -79t-24.5 -100.5q0 -71 39.5 -123.5t100.5 -67.5l-179 -69zM1179 2042h-64l-206 -235l-206 235h-64l252 -288h36z" />
    <glyph glyph-name="uniFBA5" unicode="&#xfeea;&#x654;" horiz-adv-x="1175" arabic-form="final" 
d="M980 60q78 -59 176 -60h19v60h-19q-89 1 -156 59t-80 146l-109 745l-58 -7l23 -160q-216 12 -357.5 -48.5t-205.5 -177t-56 -271.5q6 -110 75.5 -180.5t179 -90.5t232.5 14.5t230 123.5q28 -94 106 -153zM860 271q-148 -120 -297.5 -140t-243.5 42.5t-103 175.5
q-8 143 51.5 245t189.5 153t327 38zM513.5 1212.5q89.5 25.5 129 72.5t39.5 116v109h-290v100q0 60 44 104.5t105 44.5h141v48h-141q-52 0 -97.5 -27t-72.5 -72.5t-27 -97.5v-103q-1 -17 13 -31t30 -14h247v-61q0 -95 -95.5 -131t-262.5 -34v-48q148 -1 237.5 24.5z" />
    <glyph glyph-name="uniFE8A" unicode="&#xfbfd;&#x654;" horiz-adv-x="1646" arabic-form="final" 
d="M1646 60h-874v-59h430q54 -4 93.5 -55.5t38.5 -115.5q-1 -120 -72.5 -191.5t-175 -100.5t-213.5 -29h-185q-139 0 -243 64t-159.5 171t-55.5 233v424h-59l1 -427q0 -141 63 -261t180.5 -192t272.5 -72h185q159 0 278 51t181.5 138t60.5 192q-5 115 -83 170h336v60z
M104 769l425 162l-18 46l-161 -61q-94 0 -135 48t-40 110q0 58 40.5 109.5t104.5 51.5q39 0 68 -10.5t61 -29.5q3 -2 5 -3l8 49q-62 43 -142 43q-57 0 -101 -30.5t-68.5 -79t-24.5 -100.5q0 -71 39.5 -123.5t100.5 -67.5l-179 -69z" />
    <glyph glyph-name="uniFEF5" unicode="&#xfedf;&#xfe82;" horiz-adv-x="1139" arabic-form="isolated" 
d="M260 301v918h-59v-918h59zM201 60v-60h409q89 0 164.5 44t119.5 119t44 164v1086h-59v-1084q0 -73 -36 -135t-98 -98t-135 -36h-409zM-71 1419q24 60 78 96.5t119 36.5h416v52h-416q-81 0 -148 -46t-97 -121l-46 -115l48 -19z" />
    <glyph glyph-name="uniFEF6" unicode="&#xfee0;&#xfe82;" horiz-adv-x="1239" arabic-form="final" 
d="M1239 60h-33q-73 0 -134.5 36t-97.5 98t-36 135v1084h-59v-1084q0 -73 -36 -135t-98 -98t-135 -36h-409v-60h409q101 0 182 56.5t116 146.5q36 -90 116.5 -146.5t181.5 -56.5h33v60zM260 301v918h-59v-918h59zM-71 1419q24 60 78 96.5t119 36.5h416v52h-416
q-81 0 -148 -46t-97 -121l-46 -115l48 -19z" />
    <glyph glyph-name="uniFEF7" unicode="&#xfedf;&#x675;" horiz-adv-x="1139" arabic-form="isolated" 
d="M260 301v918h-59v-918h59zM201 60v-60h409q89 0 164.5 44t119.5 119t44 164v1086h-59v-1084q0 -73 -36 -135t-98 -98t-135 -36h-409zM40 1511l425 162l-18 46l-161 -61q-94 0 -135 48t-40 110q0 58 40.5 109.5t104.5 51.5q39 0 68 -10.5t61 -29.5q3 -2 5 -3l8 49
q-62 43 -142 43q-57 0 -101 -30.5t-68.5 -79t-24.5 -100.5q0 -71 39.5 -123.5t100.5 -67.5l-179 -69z" />
    <glyph glyph-name="uniFEF8" unicode="&#xfee0;&#x675;" horiz-adv-x="1239" arabic-form="final" 
d="M1239 60h-33q-73 0 -134.5 36t-97.5 98t-36 135v1084h-59v-1084q0 -73 -36 -135t-98 -98t-135 -36h-409v-60h409q101 0 182 56.5t116 146.5q36 -90 116.5 -146.5t181.5 -56.5h33v60zM260 301v918h-59v-918h59zM40 1511l425 162l-18 46l-161 -61q-94 0 -135 48t-40 110
q0 58 40.5 109.5t104.5 51.5q39 0 68 -10.5t61 -29.5q3 -2 5 -3l8 49q-62 43 -142 43q-57 0 -101 -30.5t-68.5 -79t-24.5 -100.5q0 -71 39.5 -123.5t100.5 -67.5l-179 -69z" />
    <glyph glyph-name="uniFEF9" unicode="&#xfedf;&#xfe88;" horiz-adv-x="1139" arabic-form="isolated" 
d="M260 301v1112h-59v-1112h59zM201 60v-60h409q89 0 164.5 44t119.5 119t44 164v1086h-59v-1084q0 -73 -36 -135t-98 -98t-135 -36h-409zM30 -799l425 162l-18 46l-161 -61q-94 0 -135 48t-40 110q0 58 40.5 109.5t104.5 51.5q39 0 68 -10.5t61 -29.5q3 -2 5 -3l8 49
q-62 43 -142 43q-57 0 -101 -30.5t-68.5 -79t-24.5 -100.5q0 -71 39.5 -123.5t100.5 -67.5l-179 -69z" />
    <glyph glyph-name="uniFEFA" unicode="&#xfee0;&#xfe88;" horiz-adv-x="1239" arabic-form="final" 
d="M201 60v-60h409q101 0 182 56.5t116 146.5q36 -90 116.5 -146.5t181.5 -56.5h33v60h-33q-73 0 -134.5 36t-97.5 98t-36 135v1084h-59v-1084q0 -73 -36 -135t-98 -98t-135 -36h-409zM260 301v1112h-59v-1112h59zM29 -799l425 162l-18 46l-161 -61q-94 0 -135 48t-40 110
q0 58 40.5 109.5t104.5 51.5q39 0 68 -10.5t61 -29.5q3 -2 5 -3l8 49q-62 43 -142 43q-57 0 -101 -30.5t-68.5 -79t-24.5 -100.5q0 -71 39.5 -123.5t100.5 -67.5l-179 -69z" />
    <glyph glyph-name="uniFEFB" unicode="&#xfedf;&#xfe8e;" horiz-adv-x="1139" arabic-form="isolated" 
d="M260 301v1112h-59v-1112h59zM201 60v-60h409q89 0 164.5 44t119.5 119t44 164v1086h-59v-1084q0 -73 -36 -135t-98 -98t-135 -36h-409z" />
    <glyph glyph-name="uniFEFC" unicode="&#xfee0;&#xfe8e;" horiz-adv-x="1239" arabic-form="final" 
d="M201 60v-60h409q101 0 182 56.5t116 146.5q36 -90 116.5 -146.5t181.5 -56.5h33v60h-33q-73 0 -134.5 36t-97.5 98t-36 135v1084h-59v-1084q0 -73 -36 -135t-98 -98t-135 -36h-409zM260 301v1112h-59v-1112h59z" />
    <glyph glyph-name="uni064406440647" unicode="&#xfedf;&#xfee0;&#xfeea;" horiz-adv-x="2446" 
d="M1782 43.5q-15 -13.5 0 -27t53 -16.5h83q89 0 164 44t119 119t44 164v1086h-59v-1084q0 -73 -36 -135t-97.5 -98t-134.5 -36h-83q-38 -3 -53 -16.5zM1123 43.5q-15 -13.5 0 -27t53 -16.5h32q101 0 181.5 56.5t116.5 146.5q35 -90 116 -146.5t182 -56.5h31v60h-31
q-74 0 -135.5 36t-97.5 98t-36 135v832h-59v-832q0 -73 -36 -135t-97.5 -98t-134.5 -36h-32q-38 -3 -53 -16.5zM1467.5 1517q45.5 35 60.5 90q24 -31 59 -48t75 -17h15q72 0 122.5 50.5t50.5 122.5v163h-48v-163q0 -52 -36.5 -88.5t-88.5 -36.5h-15q-52 0 -88.5 36.5
t-36.5 88.5v103h-48v-163q0 -51 -36.5 -87.5t-88.5 -36.5h-15q-52 0 -88.5 36.5t-36.5 87.5v163h-48v-163q0 -72 50.5 -122.5t122.5 -50.5h15q58 0 103.5 35zM1489 1950h48v355h-48v-355zM985 60q78 -59 176 -60h19v60h-19q-89 1 -156 59t-80 146l-109 745l-58 -7l23 -160
q-216 12 -357.5 -48.5t-205.5 -177t-56 -271.5q6 -110 75.5 -180.5t179 -90.5t232.5 14.5t230 123.5q28 -94 106 -153zM865 271q-148 -120 -297.5 -140t-243.5 42.5t-103 175.5q-8 143 51.5 245t189.5 153t327 38z" />
    <glyph glyph-name="uni0621" unicode="&#x621;" horiz-adv-x="1022" arabic-form="isolated" 
d="M215 -11l673 259l-20 52l-326 -125q-76 -1 -133 36t-87.5 98t-30.5 129t30.5 132t87 104.5t130.5 41.5q120 1 217 -75l13 61q-33 25 -91.5 47.5t-137.5 22.5q-90 0 -159.5 -48.5t-107.5 -126t-38 -159.5q0 -104 57.5 -188.5t154.5 -111.5l-252 -96z" />
    <glyph glyph-name="uni0622" unicode="&#x622;" horiz-adv-x="460" arabic-form="isolated" 
d="M201 0h59v1219h-59v-1219zM-71 1419q24 60 78 96.5t119 36.5h416v52h-416q-81 0 -148 -46t-97 -121l-46 -115l48 -19z" />
    <glyph glyph-name="uni0623" unicode="&#x623;" horiz-adv-x="462" arabic-form="isolated" 
d="M201 0h59v1219h-59v-1219zM40 1511l425 162l-18 46l-161 -61q-94 0 -135 48t-40 110q0 58 40.5 109.5t104.5 51.5q39 0 68 -10.5t61 -29.5q3 -2 5 -3l8 49q-62 43 -142 43q-57 0 -101 -30.5t-68.5 -79t-24.5 -100.5q0 -71 39.5 -123.5t100.5 -67.5l-179 -69z" />
    <glyph glyph-name="uni0624" unicode="&#x624;" horiz-adv-x="1047" arabic-form="isolated" 
d="M524 60q-141 0 -217 71.5t-76 201.5q0 98 36.5 174t102.5 118.5t154 42.5q102 0 167.5 -49.5t95.5 -125.5t30 -160v-273h-293zM875 333q0 117 -44 206t-123.5 138t-183.5 49q-102 0 -182 -50t-124.5 -139.5t-44.5 -203.5q0 -156 92.5 -244.5t258.5 -88.5h292
q0 -242 -130 -366.5t-355 -124.5h-178v-60h178q164 0 286.5 63.5t190 189t67.5 308.5v323zM320 1015l425 162l-18 46l-161 -61q-94 0 -135 48t-40 110q0 58 40.5 109.5t104.5 51.5q39 0 68 -10.5t61 -29.5q3 -2 5 -3l8 49q-62 43 -142 43q-57 0 -101 -30.5t-68.5 -79
t-24.5 -100.5q0 -71 39.5 -123.5t100.5 -67.5l-179 -69z" />
    <glyph glyph-name="uni0625" unicode="&#x625;" horiz-adv-x="462" arabic-form="isolated" 
d="M201 0h59v1413h-59v-1413zM40 -799l425 162l-18 46l-161 -61q-94 0 -135 48t-40 110q0 58 40.5 109.5t104.5 51.5q39 0 68 -10.5t61 -29.5q3 -2 5 -3l8 49q-62 43 -142 43q-57 0 -101 -30.5t-68.5 -79t-24.5 -100.5q0 -71 39.5 -123.5t100.5 -67.5l-179 -69z" />
    <glyph glyph-name="uni0627" unicode="&#x627;" horiz-adv-x="461" arabic-form="isolated" 
d="M201 0h59v1413h-59v-1413z" />
    <glyph glyph-name="uni0628" unicode="&#x628;" horiz-adv-x="1776" arabic-form="isolated" 
d="M1277 0q89 0 164.5 44t119 118.5t43.5 163.5v306h-58v-303q0 -73 -36 -135t-98 -98t-135 -36h-778q-74 0 -135.5 36t-97.5 98t-36 135v303h-59v-306q0 -89 44 -163.5t119.5 -118.5t164.5 -44h778zM937.5 -434.5q-20.5 20.5 -49.5 20.5t-49.5 -20.5t-20.5 -49.5
t20.5 -49.5t49.5 -20.5t49.5 20.5t20.5 49.5t-20.5 49.5z" />
    <glyph glyph-name="uni0629" unicode="&#x629;" horiz-adv-x="1022" arabic-form="isolated" 
d="M735.5 525.5q71.5 -114.5 71.5 -210.5q0 -79 -42.5 -138.5t-110 -91.5t-141.5 -32q-72 0 -139.5 32.5t-110.5 92.5t-43 137q0 123 86 234t214 223q144 -132 215.5 -246.5zM268.5 591.5q-107.5 -133.5 -107.5 -276.5q0 -94 51 -167.5t132.5 -113.5t168.5 -40
q89 0 170.5 39t132 112.5t50.5 169.5q0 256 -408 590l-23 18l-37 -46l80 -66q-102 -86 -209.5 -219.5zM394.5 1305.5q-20.5 20.5 -49.5 20.5t-49.5 -20.5t-20.5 -49.5t20.5 -49.5t49.5 -20.5t49.5 20.5t20.5 49.5t-20.5 49.5zM694.5 1305.5q-20.5 20.5 -49.5 20.5
t-49.5 -20.5t-20.5 -49.5t20.5 -49.5t49.5 -20.5t49.5 20.5t20.5 49.5t-20.5 49.5z" />
    <glyph glyph-name="uni062A" unicode="&#x62a;" horiz-adv-x="1776" arabic-form="isolated" 
d="M1277 0q89 0 164.5 44t119 118.5t43.5 163.5v306h-58v-303q0 -73 -36 -135t-98 -98t-135 -36h-778q-74 0 -135.5 36t-97.5 98t-36 135v303h-59v-306q0 -89 44 -163.5t119.5 -118.5t164.5 -44h778zM787.5 925.5q-20.5 20.5 -49.5 20.5t-49.5 -20.5t-20.5 -49.5t20.5 -49.5
t49.5 -20.5t49.5 20.5t20.5 49.5t-20.5 49.5zM1087.5 925.5q-20.5 20.5 -49.5 20.5t-49.5 -20.5t-20.5 -49.5t20.5 -49.5t49.5 -20.5t49.5 20.5t20.5 49.5t-20.5 49.5z" />
    <glyph glyph-name="uni062B" unicode="&#x62b;" horiz-adv-x="1776" arabic-form="isolated" 
d="M1277 0q89 0 164.5 44t119 118.5t43.5 163.5v306h-58v-303q0 -73 -36 -135t-98 -98t-135 -36h-778q-74 0 -135.5 36t-97.5 98t-36 135v303h-59v-306q0 -89 44 -163.5t119.5 -118.5t164.5 -44h778zM787.5 971.5q-20.5 20.5 -49.5 20.5t-49.5 -20.5t-20.5 -49.5t20.5 -49.5
t49.5 -20.5t49.5 20.5t20.5 49.5t-20.5 49.5zM1087.5 971.5q-20.5 20.5 -49.5 20.5t-49.5 -20.5t-20.5 -49.5t20.5 -49.5t49.5 -20.5t49.5 20.5t20.5 49.5t-20.5 49.5zM937.5 1251.5q-20.5 20.5 -49.5 20.5t-49.5 -20.5t-20.5 -49.5t20.5 -49.5t49.5 -20.5t49.5 20.5
t20.5 49.5t-20.5 49.5z" />
    <glyph glyph-name="uni062C" unicode="&#x62c;" horiz-adv-x="1336" arabic-form="isolated" 
d="M419 227q-118 -53 -188 -152.5t-70 -221.5q0 -110 53.5 -202.5t146 -147t202.5 -54.5h614v60h-614q-107 0 -195 60.5t-126 159.5q-33 87 -18 175t72 159t145 111l795 379l3 55l-228.5 132.5t-356.5 205.5q-77 44 -159.5 36t-151 -65.5t-103.5 -155.5l-9 -22l55 -22l9 23
q29 83 84.5 130.5t121.5 53.5t127 -29q412 -238 541 -311zM840.5 -31.5q-20.5 20.5 -49.5 20.5t-49.5 -20.5t-20.5 -49.5t20.5 -49.5t49.5 -20.5t49.5 20.5t20.5 49.5t-20.5 49.5z" />
    <glyph glyph-name="uni062D" unicode="&#x62d;" horiz-adv-x="1338" arabic-form="isolated" 
d="M419 227q-118 -53 -188 -152.5t-70 -221.5q0 -110 53.5 -202.5t146 -147t202.5 -54.5h614v60h-614q-107 0 -195 60.5t-126 159.5q-33 87 -18 175t72 159t145 111l825 379l3 55q-17 0 -153 75.5t-363 206.5q-69 39 -99 56q-77 44 -159.5 36t-151 -65.5t-103.5 -155.5
l-9 -22l55 -22l9 23q29 83 84.5 130.5t121.5 53.5t127 -29q23 -14 76 -45q175 -101 296 -168t199 -98z" />
    <glyph glyph-name="uni062E" unicode="&#x62e;" horiz-adv-x="1338" arabic-form="isolated" 
d="M419 227q-118 -53 -188 -152.5t-70 -221.5q0 -110 53.5 -202.5t146 -147t202.5 -54.5h614v60h-614q-107 0 -195 60.5t-126 159.5q-33 87 -18 175t72 159t145 111l825 379l3 55q-17 0 -153 75.5t-363 206.5q-69 39 -99 56q-77 44 -159.5 36t-151 -65.5t-103.5 -155.5
l-9 -22l55 -22l9 23q29 83 84.5 130.5t121.5 53.5t127 -29q23 -14 76 -45q175 -101 296 -168t199 -98zM641.5 1450.5q-20.5 20.5 -49.5 20.5t-49.5 -20.5t-20.5 -49.5t20.5 -49.5t49.5 -20.5t49.5 20.5t20.5 49.5t-20.5 49.5z" />
    <glyph glyph-name="uni062F" unicode="&#x62f;" horiz-adv-x="1047" arabic-form="isolated" 
d="M763.5 40.5q63.5 40.5 97.5 107t29 142t-54 140.5l-356 468l-47 -35l356 -468q49 -65 41.5 -145t-65 -135.5t-143.5 -55.5h-529v-59h529q78 0 141.5 40.5z" />
    <glyph glyph-name="uni0630" unicode="&#x630;" horiz-adv-x="1037" arabic-form="isolated" 
d="M763.5 40.5q63.5 40.5 97.5 107t29 142t-54 140.5l-356 468l-47 -35l356 -468q49 -65 41.5 -145t-65 -135.5t-143.5 -55.5h-529v-59h529q78 0 141.5 40.5zM544.5 1274.5q-20.5 20.5 -49.5 20.5t-49.5 -20.5t-20.5 -49.5t20.5 -49.5t49.5 -20.5t49.5 20.5t20.5 49.5
t-20.5 49.5z" />
    <glyph glyph-name="uni0631" unicode="&#x631;" horiz-adv-x="721" arabic-form="isolated" 
d="M44 -551q136 0 252.5 72.5t185 193.5t68.5 259v636h-59v-633q0 -122 -60.5 -230t-163.5 -173t-223 -65h-45v-60h45z" />
    <glyph glyph-name="uni0632" unicode="&#x632;" horiz-adv-x="721" arabic-form="isolated" 
d="M44 -551q136 0 252.5 72.5t185 193.5t68.5 259v636h-59v-633q0 -122 -60.5 -230t-163.5 -173t-223 -65h-45v-60h45zM570.5 1051.5q-20.5 20.5 -49.5 20.5t-49.5 -20.5t-20.5 -49.5t20.5 -49.5t49.5 -20.5t49.5 20.5t20.5 49.5t-20.5 49.5z" />
    <glyph glyph-name="uni0633" unicode="&#x633;" horiz-adv-x="2652" arabic-form="isolated" 
d="M1586 0q98 0 171.5 53.5t106.5 143.5q35 -91 109 -144t170 -53h30q88 0 158.5 43.5t110 118.5t39.5 165v305h-59v-303q0 -72 -31 -134t-87.5 -98.5t-130.5 -36.5h-30q-74 0 -130.5 36.5t-87.5 98t-31 134.5v281h-59v-281q0 -72 -31 -134t-87.5 -98.5t-130.5 -36.5h-30
q-69 0 -126.5 37t-90 99t-32.5 133v281h-59v-633q0 -133 -58.5 -240t-163 -167.5t-236.5 -60.5h-102q-139 0 -243 64t-159.5 171t-55.5 233v424h-59v-427q0 -142 64 -262t181.5 -191.5t271.5 -71.5h102q147 0 264.5 68t184 186.5t67.5 266.5v185q38 -69 105.5 -112
t144.5 -43h30z" />
    <glyph glyph-name="uni0634" unicode="&#x634;" horiz-adv-x="2652" arabic-form="isolated" 
d="M1586 0q98 0 171.5 53.5t106.5 143.5q35 -91 109 -144t170 -53h30q88 0 158.5 43.5t110 118.5t39.5 165v305h-59v-303q0 -72 -31 -134t-87.5 -98.5t-130.5 -36.5h-30q-74 0 -130.5 36.5t-87.5 98t-31 134.5v281h-59v-281q0 -72 -31 -134t-87.5 -98.5t-130.5 -36.5h-30
q-69 0 -126.5 37t-90 99t-32.5 133v281h-59v-633q0 -133 -58.5 -240t-163 -167.5t-236.5 -60.5h-102q-139 0 -243 64t-159.5 171t-55.5 233v424h-59v-427q0 -142 64 -262t181.5 -191.5t271.5 -71.5h102q147 0 264.5 68t184 186.5t67.5 266.5v185q38 -69 105.5 -112
t144.5 -43h30zM1764.5 1051.5q-20.5 20.5 -49.5 20.5t-49.5 -20.5t-20.5 -49.5t20.5 -49.5t49.5 -20.5t49.5 20.5t20.5 49.5t-20.5 49.5zM2064.5 1051.5q-20.5 20.5 -49.5 20.5t-49.5 -20.5t-20.5 -49.5t20.5 -49.5t49.5 -20.5t49.5 20.5t20.5 49.5t-20.5 49.5z
M1914.5 1331.5q-20.5 20.5 -49.5 20.5t-49.5 -20.5t-20.5 -49.5t20.5 -49.5t49.5 -20.5t49.5 20.5t20.5 49.5t-20.5 49.5z" />
    <glyph glyph-name="uni0635" unicode="&#x635;" horiz-adv-x="2703" arabic-form="isolated" 
d="M2346.5 49q93.5 49 147 136t53.5 196q0 108 -46 196t-137.5 138.5t-223.5 46.5q-166 -6 -292.5 -150.5t-193 -293.5t-98.5 -253q0 -2 -1 -3q-68 4 -125 41t-90 96t-33 128v247h-59v-597q0 -126 -55.5 -233t-159.5 -171t-243 -64h-102q-139 0 -243 64t-159.5 171
t-55.5 233v424h-59v-427q0 -141 63.5 -261t181 -192t272.5 -72h102q154 0 271.5 71.5t181 191.5t63.5 260l1 186q42 -72 115.5 -115t159.5 -43h553q118 0 211.5 49zM1712 300.5q63 138.5 175.5 268t255.5 134.5q112 5 189.5 -36.5t116.5 -116t39 -169.5q0 -93 -46 -166
t-126.5 -114t-180.5 -41h-519q33 102 96 240.5z" />
    <glyph glyph-name="uni0636" unicode="&#x636;" horiz-adv-x="2703" arabic-form="isolated" 
d="M2346.5 49q93.5 49 147 136t53.5 196q0 108 -46 196t-137.5 138.5t-223.5 46.5q-166 -6 -292.5 -150.5t-193 -293.5t-98.5 -253q0 -2 -1 -3q-68 4 -125 41t-90 96t-33 128v247h-59v-597q0 -126 -55.5 -233t-159.5 -171t-243 -64h-102q-139 0 -243 64t-159.5 171
t-55.5 233v424h-59v-427q0 -141 63.5 -261t181 -192t272.5 -72h102q154 0 271.5 71.5t181 191.5t63.5 260l1 186q42 -72 115.5 -115t159.5 -43h553q118 0 211.5 49zM1712 300.5q63 138.5 175.5 268t255.5 134.5q112 5 189.5 -36.5t116.5 -116t39 -169.5q0 -93 -46 -166
t-126.5 -114t-180.5 -41h-519q33 102 96 240.5zM2096.5 1185.5q-20.5 20.5 -49.5 20.5t-49.5 -20.5t-20.5 -49.5t20.5 -49.5t49.5 -20.5t49.5 20.5t20.5 49.5t-20.5 49.5z" />
    <glyph glyph-name="uni0637" unicode="&#x637;" horiz-adv-x="1518" arabic-form="isolated" 
d="M422 209q-49 -128 -53 -149h-198v-60h779q118 0 212 49t147 136t53 196q0 108 -46 196.5t-137.5 139t-222.5 45.5q-152 -6 -271 -132t-206 -304l1 579v508h-58v-1204zM431 60q33 102 96 240.5t176 268t255 134.5q112 5 189.5 -36.5t116.5 -116t39 -169.5
q0 -93 -45.5 -166t-126 -114t-181.5 -41h-519z" />
    <glyph glyph-name="uni0638" unicode="&#x638;" horiz-adv-x="1518" arabic-form="isolated" 
d="M422 209q-49 -128 -53 -149h-198v-60h779q118 0 212 49t147 136t53 196q0 108 -46 196.5t-137.5 139t-222.5 45.5q-152 -6 -271 -132t-206 -304l1 579v508h-58v-1204zM431 60q33 102 96 240.5t176 268t255 134.5q112 5 189.5 -36.5t116.5 -116t39 -169.5
q0 -93 -45.5 -166t-126 -114t-181.5 -41h-519zM1016.5 1185.5q-20.5 20.5 -49.5 20.5t-49.5 -20.5t-20.5 -49.5t20.5 -49.5t49.5 -20.5t49.5 20.5t20.5 49.5t-20.5 49.5z" />
    <glyph glyph-name="uni0639" unicode="&#x639;" horiz-adv-x="1215" arabic-form="isolated" 
d="M1049 -491h-465q-99 0 -182.5 48.5t-132.5 132t-49 182.5t49 182.5t132.5 132.5t182.5 49h463v60h-365q-94 -1 -165 45t-109 121.5t-38 161.5q0 100 39 179t110 123t163 45q87 0 151 -25t116 -63l13 63q-45 32 -115.5 58.5t-167.5 25.5q-107 -1 -190.5 -53t-130.5 -144
t-47 -208q0 -109 53 -202t145 -140q-98 -17 -177.5 -75.5t-125 -146t-45.5 -189.5q0 -115 57 -212t154 -154t212 -57h465v60z" />
    <glyph glyph-name="uni063A" unicode="&#x63a;" horiz-adv-x="1215" arabic-form="isolated" 
d="M1049 -491h-465q-99 0 -182.5 48.5t-132.5 132t-49 182.5t49 182.5t132.5 132.5t182.5 49h463v60h-365q-94 -1 -165 45t-109 121.5t-38 161.5q0 100 39 179t110 123t163 45q87 0 151 -25t116 -63l13 63q-45 32 -115.5 58.5t-167.5 25.5q-107 -1 -190.5 -53t-130.5 -144
t-47 -208q0 -109 53 -202t145 -140q-98 -17 -177.5 -75.5t-125 -146t-45.5 -189.5q0 -115 57 -212t154 -154t212 -57h465v60zM666.5 1460.5q-20.5 20.5 -49.5 20.5t-49.5 -20.5t-20.5 -49.5t20.5 -49.5t49.5 -20.5t49.5 20.5t20.5 49.5t-20.5 49.5z" />
    <glyph glyph-name="uni0641" unicode="&#x641;" horiz-adv-x="1741" arabic-form="isolated" 
d="M1527.5 874.5q-42.5 80.5 -117 125.5t-166.5 45q-89 0 -161.5 -42.5t-117 -119.5t-53.5 -176q-13 -158 69 -247t217 -89h313v-45q0 -73 -42 -134t-113 -96.5t-154 -35.5h-703q-74 0 -135.5 36t-97.5 98t-36 135v303h-59v-306q0 -89 44 -163.5t119.5 -118.5t164.5 -44h703
q99 0 183.5 44t134.5 118.5t50 163.5v367q0 101 -42.5 181.5zM1203 429q-117 0 -180 74t-52 202q9 110 80.5 196t192.5 86q78 0 139 -40t94.5 -111t33.5 -161v-246h-308zM1293.5 1423.5q-20.5 20.5 -49.5 20.5t-49.5 -20.5t-20.5 -49.5t20.5 -49.5t49.5 -20.5t49.5 20.5
t20.5 49.5t-20.5 49.5z" />
    <glyph glyph-name="uni0642" unicode="&#x642;" horiz-adv-x="1624" arabic-form="isolated" 
d="M1285.5 677q79.5 -49 123.5 -138t44 -206v-323q0 -176 -70 -302t-202 -192.5t-314 -66.5h-179q-155 0 -272.5 72t-181 192t-63.5 261v427h59v-424q0 -126 55.5 -233t159.5 -171t243 -64h179q250 0 388.5 128.5t138.5 362.5h-292q-168 0 -259.5 88t-91.5 245
q0 114 44.5 203.5t124.5 139.5t182 50q104 0 183.5 -49zM1394 333q0 84 -29.5 160t-95 125.5t-167.5 49.5q-88 0 -154.5 -42.5t-102.5 -118.5t-36 -174q0 -130 76 -201.5t217 -71.5h292v273zM1008.5 1144.5q-20.5 20.5 -49.5 20.5t-49.5 -20.5t-20.5 -49.5t20.5 -49.5
t49.5 -20.5t49.5 20.5t20.5 49.5t-20.5 49.5zM1308.5 1144.5q-20.5 20.5 -49.5 20.5t-49.5 -20.5t-20.5 -49.5t20.5 -49.5t49.5 -20.5t49.5 20.5t20.5 49.5t-20.5 49.5z" />
    <glyph glyph-name="uni0643" unicode="&#x643;" horiz-adv-x="1695" arabic-form="isolated" 
d="M1341 44q75 44 119 118.5t44 163.5v1087h-59v-1084q0 -73 -36 -135t-97.5 -98t-134.5 -36h-678q-74 0 -135.5 36t-97.5 98t-36 135v303h-59v-306q0 -89 44 -163.5t119.5 -118.5t164.5 -44h678q89 0 164 44zM634 602l425 162l-18 46l-161 -61q-94 0 -135 48t-40 110
q0 58 40.5 109.5t104.5 51.5q39 0 68 -10.5t61 -29.5q3 -2 5 -3l8 49q-62 43 -142 43q-57 0 -101 -30.5t-68.5 -79t-24.5 -100.5q0 -71 39.5 -123.5t100.5 -67.5l-179 -69z" />
    <glyph glyph-name="uni0644" unicode="&#x644;" horiz-adv-x="1508" arabic-form="isolated" 
d="M790 -551q155 0 272.5 72t181 192t63.5 261v1439h-59v-1436q0 -126 -55.5 -233t-159.5 -171t-243 -64h-102q-139 0 -243 64t-159.5 171t-55.5 233v424h-59v-427q0 -141 63.5 -261t181 -192t272.5 -72h102z" />
    <glyph glyph-name="uni0645" unicode="&#x645;" horiz-adv-x="1496" arabic-form="isolated" 
d="M230 368q0 88 44 163.5t119 119.5t164 44h70q-1 -138 -1 -330q0 -115 45 -203t126 -136.5t185 -48.5q100 0 182 45t129.5 132.5t45.5 210.5q-2 182 -97 285t-260 103h-425q-105 0 -193.5 -52t-140.5 -140.5t-52 -192.5v-926h59v926zM1199.5 607q79.5 -87 81.5 -242
q1 -103 -38.5 -177.5t-108 -113.5t-152.5 -39q-106 0 -173 51t-96 126.5t-29 152.5v330h298q138 -1 217.5 -88z" />
    <glyph glyph-name="uni0646" unicode="&#x646;" horiz-adv-x="1478" arabic-form="isolated" 
d="M790 -551q155 0 272.5 72t181 192t63.5 261v600h-59v-597q0 -126 -55.5 -233t-159.5 -171t-243 -64h-102q-139 0 -243 64t-159.5 171t-55.5 233v424h-59v-427q0 -141 63.5 -261t181 -192t272.5 -72h102zM719.5 793.5q-20.5 20.5 -49.5 20.5t-49.5 -20.5t-20.5 -49.5
t20.5 -49.5t49.5 -20.5t49.5 20.5t20.5 49.5t-20.5 49.5z" />
    <glyph glyph-name="uni0647" unicode="&#x647;" horiz-adv-x="1022" arabic-form="isolated" 
d="M735.5 525.5q71.5 -114.5 71.5 -210.5q0 -79 -42.5 -138.5t-110 -91.5t-141.5 -32q-72 0 -139.5 32.5t-110.5 92.5t-43 137q0 123 86 234t214 223q144 -132 215.5 -246.5zM268.5 591.5q-107.5 -133.5 -107.5 -276.5q0 -94 51 -167.5t132.5 -113.5t168.5 -40
q89 0 170.5 39t132 112.5t50.5 169.5q0 256 -408 590l-23 18l-37 -46l80 -66q-102 -86 -209.5 -219.5z" />
    <glyph glyph-name="uni0648" unicode="&#x648;" horiz-adv-x="1047" arabic-form="isolated" 
d="M524 60q-141 0 -217 71.5t-76 201.5q0 98 36.5 174t102.5 118.5t154 42.5q102 0 167.5 -49.5t95.5 -125.5t30 -160v-273h-293zM875 333q0 117 -44 206t-123.5 138t-183.5 49q-102 0 -182 -50t-124.5 -139.5t-44.5 -203.5q0 -156 92.5 -244.5t258.5 -88.5h292
q0 -242 -130 -366.5t-355 -124.5h-178v-60h178q164 0 286.5 63.5t190 189t67.5 308.5v323z" />
    <glyph glyph-name="uni0649" unicode="&#x649;" horiz-adv-x="1553" arabic-form="isolated" 
d="M1340.5 82q-78.5 80 -233.5 85h-308v268q0 80 38 145.5t104 104t145 38.5h255v59h-255q-95 0 -174.5 -46.5t-125.5 -126t-46 -174.5v-327h365q129 -4 186.5 -64.5t42.5 -191.5q-20 -172 -169.5 -257.5t-368.5 -85.5h-108q-140 0 -244 64t-159.5 171t-55.5 233l1 424h-59
v-427q0 -141 63 -261t180.5 -192t273.5 -72h108q272 0 419 108.5t177 286.5q27 158 -51.5 238z" />
    <glyph glyph-name="uni064A" unicode="&#x64a;" horiz-adv-x="1554" arabic-form="isolated" 
d="M1340.5 82q-78.5 80 -233.5 85h-308v268q0 80 38 145.5t104 104t145 38.5h255v59h-255q-95 0 -174.5 -46.5t-125.5 -126t-46 -174.5v-327h365q129 -4 186.5 -64.5t42.5 -191.5q-20 -172 -169.5 -257.5t-368.5 -85.5h-108q-140 0 -244 64t-159.5 171t-55.5 233l1 424h-59
v-427q0 -141 63 -261t180.5 -192t273.5 -72h108q272 0 419 108.5t177 286.5q27 158 -51.5 238zM681.5 -859.5q-20.5 20.5 -49.5 20.5t-49.5 -20.5t-20.5 -49.5t20.5 -49.5t49.5 -20.5t49.5 20.5t20.5 49.5t-20.5 49.5zM981.5 -859.5q-20.5 20.5 -49.5 20.5t-49.5 -20.5
t-20.5 -49.5t20.5 -49.5t49.5 -20.5t49.5 20.5t20.5 49.5t-20.5 49.5z" />
    <glyph glyph-name="uni064B" unicode="&#xfe70;" horiz-adv-x="0" arabic-form="isolated" 
d="M-282 1709l482 191l-18 45l-482 -191zM-383 1991l482 191l-18 45l-482 -191z" />
    <glyph glyph-name="uni064C" unicode="&#xfe72;" horiz-adv-x="0" arabic-form="isolated" 
d="M79 1826l20 -52l46 18l-21 52l144 56q79 34 111.5 108t2.5 155q-34 80 -108 112.5t-156 2.5q-79 -34 -111 -108.5t-2 -155.5l56 -142l-263 -102l31 242q5 47 -24 87t-78.5 51.5t-101.5 -18.5l-22 -12l25 -41l20 11q35 20 67.5 13t51 -32.5t15.5 -53.5l-38 -282l33 -26z
M279 2217q40 -27 58 -71q24 -60 -1.5 -118.5t-84.5 -82.5l-145 -56l-56 143q-19 47 -5.5 96.5t53 81.5t94.5 33q47 1 87 -26z" />
    <glyph glyph-name="uni064D" unicode="&#xfe74;" horiz-adv-x="0" arabic-form="isolated" 
d="M-383 -736l482 191l-18 45l-482 -191zM-282 -1018l482 191l-18 45l-482 -191z" />
    <glyph glyph-name="uni064E" unicode="&#xfe76;" horiz-adv-x="0" arabic-form="isolated" 
d="M-232 1709l482 191l-18 45l-482 -191z" />
    <glyph glyph-name="uni064F" unicode="&#xfe78;" horiz-adv-x="0" arabic-form="isolated" 
d="M-29 1804l20 -49l45 17l-20 51l144 56q80 35 112 109t2 156q-34 79 -108 111t-155 2q-80 -34 -112 -108t-3 -156l57 -143l-241 -96l17 -45zM172.5 2196.5q39.5 -26.5 56.5 -71.5q24 -59 -1.5 -118t-85.5 -82l-143 -57l-57 144q-19 47 -5.5 96.5t53.5 82t95 32.5
q48 0 87.5 -26.5z" />
    <glyph glyph-name="uni0650" unicode="&#xfe7a;" horiz-adv-x="0" arabic-form="isolated" 
d="M-232 -736l482 191l-18 45l-482 -191z" />
    <glyph glyph-name="uni0651" unicode="&#xfe7c;" horiz-adv-x="0" arabic-form="isolated" 
d="M-45.5 1744q45.5 35 60.5 90q24 -31 59 -48t75 -17h15q72 0 122.5 50.5t50.5 122.5v163h-48v-163q0 -52 -36.5 -88.5t-88.5 -36.5h-15q-52 0 -88.5 36.5t-36.5 88.5v103h-48v-163q0 -51 -36.5 -87.5t-88.5 -36.5h-15q-52 0 -88.5 36.5t-36.5 87.5v163h-48v-163
q0 -72 50.5 -122.5t122.5 -50.5h15q58 0 103.5 35z" />
    <glyph glyph-name="uni0652" unicode="&#xfe7e;" horiz-adv-x="0" arabic-form="isolated" 
d="M116.5 1740.5q53.5 31.5 85 85t31.5 116.5t-31.5 116.5t-85 85t-116.5 31.5t-116.5 -31.5t-85 -85t-31.5 -116.5t31.5 -116.5t85 -85t116.5 -31.5t116.5 31.5zM92.5 2101.5q42.5 -24.5 67 -67t24.5 -92.5t-24.5 -92.5t-67 -67t-92.5 -24.5t-92.5 24.5t-67 67t-24.5 92.5
t24.5 92.5t67 67t92.5 24.5t92.5 -24.5z" />
    <glyph glyph-name="uni0671" unicode="&#x671;" horiz-adv-x="441" arabic-form="isolated" 
d="M201 0h59v1219h-59v-1219zM128 1503q1 2 3 8q39 112 96.5 203.5t147.5 91.5q80 0 122 -51.5t42 -121.5q0 -56 -48 -93t-120 -37h-243zM2 1597.5q-35 59.5 -35 119.5v24h-48v-24q0 -62 30 -123.5t77 -100.5t96 -39h249q61 0 110.5 23.5t77.5 64.5t28 91q0 57 -23.5 107.5
t-71.5 82t-117 31.5q-81 0 -141 -60.5t-93 -130.5t-58 -142q-1 -3 -2 -5q-44 22 -79 81.5z" />
    <glyph glyph-name="uni0675" unicode="&#x623;" horiz-adv-x="573" arabic-form="final" 
d="M581 60h-53q-74 0 -135.5 36t-97 98t-35.5 135v890h-59v-893q0 -89 43.5 -163.5t118.5 -118.5t165 -44h53v60zM39 1511l425 162l-18 46l-161 -61q-94 0 -135 48t-40 110q0 58 40.5 109.5t104.5 51.5q39 0 68 -10.5t61 -29.5q3 -2 5 -3l8 49q-62 43 -142 43
q-57 0 -101 -30.5t-68.5 -79t-24.5 -100.5q0 -71 39.5 -123.5t100.5 -67.5l-179 -69z" />
    <glyph glyph-name="uni0679" unicode="&#x679;" horiz-adv-x="1776" arabic-form="isolated" 
d="M1277 0q89 0 164.5 44t119 118.5t43.5 163.5v306h-58v-303q0 -73 -36 -135t-98 -98t-135 -36h-778q-74 0 -135.5 36t-97.5 98t-36 135v303h-59v-306q0 -89 44 -163.5t119.5 -118.5t164.5 -44h778zM800 995.5q60 100.5 154 100.5q80 0 121.5 -51.5t41.5 -121.5
q0 -56 -48 -93t-119 -37h-239q29 102 89 202.5zM660 793h-50v-49h340q92 0 153 50.5t63 128.5q0 57 -24 107.5t-72 82t-116 31.5q-135 0 -229 -188v403h-49v-513q-8 -26 -16 -53z" />
    <glyph glyph-name="uni067E" unicode="&#x67e;" horiz-adv-x="1776" arabic-form="isolated" 
d="M1277 0q89 0 164.5 44t119 118.5t43.5 163.5v306h-58v-303q0 -73 -36 -135t-98 -98t-135 -36h-778q-74 0 -135.5 36t-97.5 98t-36 135v303h-59v-306q0 -89 44 -163.5t119.5 -118.5t164.5 -44h778zM787.5 -338.5q-20.5 20.5 -49.5 20.5t-49.5 -20.5t-20.5 -49.5
t20.5 -49.5t49.5 -20.5t49.5 20.5t20.5 49.5t-20.5 49.5zM1087.5 -338.5q-20.5 20.5 -49.5 20.5t-49.5 -20.5t-20.5 -49.5t20.5 -49.5t49.5 -20.5t49.5 20.5t20.5 49.5t-20.5 49.5zM937.5 -618.5q-20.5 20.5 -49.5 20.5t-49.5 -20.5t-20.5 -49.5t20.5 -49.5t49.5 -20.5
t49.5 20.5t20.5 49.5t-20.5 49.5z" />
    <glyph glyph-name="uni0686" unicode="&#x686;" horiz-adv-x="1336" arabic-form="isolated" 
d="M419 227q-118 -53 -188 -152.5t-70 -221.5q0 -110 53.5 -202.5t146 -147t202.5 -54.5h614v60h-614q-107 0 -195 60.5t-126 159.5q-33 87 -18 175t72 159t145 111l795 379l3 55l-228.5 132.5t-356.5 205.5q-77 44 -159.5 36t-151 -65.5t-103.5 -155.5l-9 -22l55 -22l9 23
q29 83 84.5 130.5t121.5 53.5t127 -29q412 -238 541 -311zM721.5 39.5q-20.5 20.5 -49.5 20.5t-49.5 -20.5t-20.5 -49.5t20.5 -49.5t49.5 -20.5t49.5 20.5t20.5 49.5t-20.5 49.5zM1014.5 119.5q-20.5 20.5 -49.5 20.5t-49.5 -20.5t-20.5 -49.5t20.5 -49.5t49.5 -20.5
t49.5 20.5t20.5 49.5t-20.5 49.5zM928.5 -137.5q-20.5 20.5 -49.5 20.5t-49.5 -20.5t-20.5 -49.5t20.5 -49.5t49.5 -20.5t49.5 20.5t20.5 49.5t-20.5 49.5z" />
    <glyph glyph-name="uni0688" unicode="&#x688;" horiz-adv-x="1047" arabic-form="isolated" 
d="M763.5 40.5q63.5 40.5 97.5 107t29 142t-54 140.5l-356 468l-47 -35l356 -468q49 -65 41.5 -145t-65 -135.5t-143.5 -55.5h-529v-59h529q78 0 141.5 40.5zM445 1460.5q60 100.5 154 100.5q80 0 121.5 -51.5t41.5 -121.5q0 -56 -48 -93t-119 -37h-239q29 102 89 202.5z
M305 1258h-50v-49h340q92 0 153 50.5t63 128.5q0 57 -24 107.5t-72 82t-116 31.5q-135 0 -229 -188v403h-49v-513q-8 -26 -16 -53z" />
    <glyph glyph-name="uni0691" unicode="&#x691;" horiz-adv-x="721" arabic-form="isolated" 
d="M44 -551q136 0 252.5 72.5t185 193.5t68.5 259v636h-59v-633q0 -122 -60.5 -230t-163.5 -173t-223 -65h-45v-60h45zM433 1205.5q60 100.5 154 100.5q80 0 121.5 -51.5t41.5 -121.5q0 -56 -48 -93t-119 -37h-239q29 102 89 202.5zM293 1003h-50v-49h340q92 0 153 50.5
t63 128.5q0 57 -24 107.5t-72 82t-116 31.5q-135 0 -229 -188v403h-49v-513q-8 -26 -16 -53z" />
    <glyph glyph-name="uni0698" unicode="&#x698;" horiz-adv-x="721" arabic-form="isolated" 
d="M44 -551q136 0 252.5 72.5t185 193.5t68.5 259v636h-59v-633q0 -122 -60.5 -230t-163.5 -173t-223 -65h-45v-60h45zM420.5 1051.5q-20.5 20.5 -49.5 20.5t-49.5 -20.5t-20.5 -49.5t20.5 -49.5t49.5 -20.5t49.5 20.5t20.5 49.5t-20.5 49.5zM720.5 1051.5
q-20.5 20.5 -49.5 20.5t-49.5 -20.5t-20.5 -49.5t20.5 -49.5t49.5 -20.5t49.5 20.5t20.5 49.5t-20.5 49.5zM570.5 1331.5q-20.5 20.5 -49.5 20.5t-49.5 -20.5t-20.5 -49.5t20.5 -49.5t49.5 -20.5t49.5 20.5t20.5 49.5t-20.5 49.5z" />
    <glyph glyph-name="uni06A4" unicode="&#x6a4;" horiz-adv-x="1741" arabic-form="isolated" 
d="M1527.5 874.5q-42.5 80.5 -117 125.5t-166.5 45q-89 0 -161.5 -42.5t-117 -119.5t-53.5 -176q-13 -158 69 -247t217 -89h313v-45q0 -73 -42 -134t-113 -96.5t-154 -35.5h-703q-74 0 -135.5 36t-97.5 98t-36 135v303h-59v-306q0 -89 44 -163.5t119.5 -118.5t164.5 -44h703
q99 0 183.5 44t134.5 118.5t50 163.5v367q0 101 -42.5 181.5zM1203 429q-117 0 -180 74t-52 202q9 110 80.5 196t192.5 86q78 0 139 -40t94.5 -111t33.5 -161v-246h-308zM1143.5 1422.5q-20.5 20.5 -49.5 20.5t-49.5 -20.5t-20.5 -49.5t20.5 -49.5t49.5 -20.5t49.5 20.5
t20.5 49.5t-20.5 49.5zM1443.5 1422.5q-20.5 20.5 -49.5 20.5t-49.5 -20.5t-20.5 -49.5t20.5 -49.5t49.5 -20.5t49.5 20.5t20.5 49.5t-20.5 49.5zM1293.5 1702.5q-20.5 20.5 -49.5 20.5t-49.5 -20.5t-20.5 -49.5t20.5 -49.5t49.5 -20.5t49.5 20.5t20.5 49.5t-20.5 49.5z" />
    <glyph glyph-name="uni06A9" unicode="&#x6a9;" horiz-adv-x="1790" arabic-form="isolated" 
d="M1341 0q86 0 150.5 45.5t95 117.5t18.5 150t-70 139l-578 606l642 244l-21 56l-683 -261v-59l596 -624q62 -65 57.5 -149t-62.5 -144.5t-146 -60.5h-841q-74 0 -135.5 36t-97.5 98t-36 135v303h-59v-305q0 -89 44 -164t119.5 -119t164.5 -44h842z" />
    <glyph glyph-name="uni06AF" unicode="&#x6af;" horiz-adv-x="1790" arabic-form="isolated" 
d="M1341 0q86 0 150.5 45.5t95 117.5t18.5 150t-70 139l-578 606l642 244l-21 56l-683 -261v-59l596 -624q62 -65 57.5 -149t-62.5 -144.5t-146 -60.5h-841q-74 0 -135.5 36t-97.5 98t-36 135v303h-59v-305q0 -89 44 -164t119.5 -119t164.5 -44h842zM1479 1546l-18 46
l-576 -218l1 -51z" />
    <glyph glyph-name="uni06BA" unicode="&#x6ba;" horiz-adv-x="1478" arabic-form="isolated" 
d="M790 -551q155 0 272.5 72t181 192t63.5 261v600h-59v-597q0 -126 -55.5 -233t-159.5 -171t-243 -64h-102q-139 0 -243 64t-159.5 171t-55.5 233v424h-59v-427q0 -141 63.5 -261t181 -192t272.5 -72h102z" />
    <glyph glyph-name="uni06BE" unicode="&#x6be;" horiz-adv-x="1506" arabic-form="isolated" 
d="M1251 445q52 -80 37 -171t-83.5 -152.5t-163.5 -61.5h-430q101 65 180.5 169t79.5 247q0 92 -47 167t-128.5 118t-182.5 43q-100 0 -181.5 -43t-128.5 -118t-47 -167t43 -178.5t105.5 -153t123 -105.5t90.5 -39h523q88 0 159.5 44.5t111 117.5t38.5 156.5t-49 158.5
l-272 421l-48 -31zM665 710q68 -35 107.5 -96t39.5 -138q0 -158 -101.5 -260.5t-197.5 -153.5q-94 49 -196 152.5t-102 261.5q0 77 39.5 138t107.5 96t151 35q84 0 152 -35z" />
    <glyph glyph-name="uni06C1" unicode="&#x6c1;" horiz-adv-x="1022" arabic-form="isolated" 
d="M735.5 525.5q71.5 -114.5 71.5 -210.5q0 -79 -42.5 -138.5t-110 -91.5t-141.5 -32q-72 0 -139.5 32.5t-110.5 92.5t-43 137q0 123 86 234t214 223q144 -132 215.5 -246.5zM268.5 591.5q-107.5 -133.5 -107.5 -276.5q0 -94 51 -167.5t132.5 -113.5t168.5 -40
q89 0 170.5 39t132 112.5t50.5 169.5q0 256 -408 590l-23 18l-37 -46l80 -66q-102 -86 -209.5 -219.5z" />
    <glyph glyph-name="uni06C3.fina" unicode="&#x6c3;" horiz-adv-x="1145" 
d="M255 279q12 94 72 167.5t150 103.5l288 95l31 -347q7 -83 52.5 -151.5t117.5 -107.5t156 -39h23v60h-23q-69 0 -128 32t-96.5 87.5t-43.5 123.5l-35 385l-38 25l-323 -107q-106 -36 -176.5 -122.5t-85.5 -196.5l-35 -283l59 -7zM495.5 1114.5q-20.5 20.5 -49.5 20.5
t-49.5 -20.5t-20.5 -49.5t20.5 -49.5t49.5 -20.5t49.5 20.5t20.5 49.5t-20.5 49.5zM795.5 1114.5q-20.5 20.5 -49.5 20.5t-49.5 -20.5t-20.5 -49.5t20.5 -49.5t49.5 -20.5t49.5 20.5t20.5 49.5t-20.5 49.5z" />
    <glyph glyph-name="uni06C6" unicode="&#x6c6;" horiz-adv-x="1047" arabic-form="isolated" 
d="M524 60q-141 0 -217 71.5t-76 201.5q0 98 36.5 174t102.5 118.5t154 42.5q102 0 167.5 -49.5t95.5 -125.5t30 -160v-273h-293zM875 333q0 117 -44 206t-123.5 138t-183.5 49q-102 0 -182 -50t-124.5 -139.5t-44.5 -203.5q0 -156 92.5 -244.5t258.5 -88.5h292
q0 -242 -130 -366.5t-355 -124.5h-178v-60h178q164 0 286.5 63.5t190 189t67.5 308.5v323zM794 1352h-64l-206 -235l-206 235h-64l252 -288h36z" />
    <glyph glyph-name="uni06C7" unicode="&#x6c7;" horiz-adv-x="1047" arabic-form="isolated" 
d="M524 60q-141 0 -217 71.5t-76 201.5q0 98 36.5 174t102.5 118.5t154 42.5q102 0 167.5 -49.5t95.5 -125.5t30 -160v-273h-293zM875 333q0 117 -44 206t-123.5 138t-183.5 49q-102 0 -182 -50t-124.5 -139.5t-44.5 -203.5q0 -156 92.5 -244.5t258.5 -88.5h292
q0 -242 -130 -366.5t-355 -124.5h-178v-60h178q164 0 286.5 63.5t190 189t67.5 308.5v323zM495 1111l20 -49l45 17l-20 51l144 56q80 35 112 109t2 156q-34 79 -108 111t-155 2q-80 -34 -112 -108t-3 -156l57 -143l-241 -96l17 -45zM696.5 1503.5q39.5 -26.5 56.5 -71.5
q24 -59 -1.5 -118t-85.5 -82l-143 -57l-57 144q-19 47 -5.5 96.5t53.5 82t95 32.5q48 0 87.5 -26.5z" />
    <glyph glyph-name="uni06C9" unicode="&#x6c9;" horiz-adv-x="1047" arabic-form="isolated" 
d="M524 60q-141 0 -217 71.5t-76 201.5q0 98 36.5 174t102.5 118.5t154 42.5q102 0 167.5 -49.5t95.5 -125.5t30 -160v-273h-293zM875 333q0 117 -44 206t-123.5 138t-183.5 49q-102 0 -182 -50t-124.5 -139.5t-44.5 -203.5q0 -156 92.5 -244.5t258.5 -88.5h292
q0 -242 -130 -366.5t-355 -124.5h-178v-60h178q164 0 286.5 63.5t190 189t67.5 308.5v323zM794 1015h-64l-206 236l-206 -236h-64l252 288h36z" />
    <glyph glyph-name="uni06D2" unicode="&#x6d2;" horiz-adv-x="1593" arabic-form="isolated" 
d="M1422 59h-864q-89 0 -164.5 44t-119.5 119.5t-44 164.5t44 164.5t119.5 119.5t164.5 44h212v59h-212q-105 0 -194 -52t-141 -141t-52 -194t52 -194t141 -141t194 -52h864v59z" />
    <glyph glyph-name="uni06D3" unicode="&#x6d3;" horiz-adv-x="1593" arabic-form="isolated" 
d="M1422 59h-864q-89 0 -164.5 44t-119.5 119.5t-44 164.5t44 164.5t119.5 119.5t164.5 44h212v59h-212q-105 0 -194 -52t-141 -141t-52 -194t52 -194t141 -141t194 -52h864v59zM258 1159l425 162l-18 46l-161 -61q-94 0 -135 48t-40 110q0 58 40.5 109.5t104.5 51.5
q39 0 68 -10.5t61 -29.5q3 -2 5 -3l8 49q-62 43 -142 43q-57 0 -101 -30.5t-68.5 -79t-24.5 -100.5q0 -71 39.5 -123.5t100.5 -67.5l-179 -69z" />
    <glyph glyph-name="uniFB51" unicode="&#x671;" horiz-adv-x="553" arabic-form="final" 
d="M581 60h-53q-74 0 -135.5 36t-97 98t-35.5 135v890h-59v-893q0 -89 43.5 -163.5t118.5 -118.5t165 -44h53v60zM128 1503q1 2 3 8q39 112 96.5 203.5t147.5 91.5q80 0 122 -51.5t42 -121.5q0 -56 -48 -93t-120 -37h-243zM2 1597.5q-35 59.5 -35 119.5v24h-48v-24
q0 -62 30 -123.5t77 -100.5t96 -39h249q61 0 110.5 23.5t77.5 64.5t28 91q0 57 -23.5 107.5t-71.5 82t-117 31.5q-81 0 -141 -60.5t-93 -130.5t-58 -142q-1 -3 -2 -5q-44 22 -79 81.5z" />
    <glyph glyph-name="uniFB57" unicode="&#x67e;" horiz-adv-x="1906" arabic-form="final" 
d="M1459 56q81 56 116 147q36 -91 116.5 -147t181.5 -56h33v60h-33q-73 0 -134.5 36t-98 98t-36.5 135v281h-58v-281q0 -73 -36 -135t-98 -98t-135 -36h-778q-74 0 -135.5 36t-97.5 98t-36 135v303h-59v-306q0 -89 44 -163.5t119.5 -118.5t164.5 -44h778q101 0 182 56z
M787.5 -338.5q-20.5 20.5 -49.5 20.5t-49.5 -20.5t-20.5 -49.5t20.5 -49.5t49.5 -20.5t49.5 20.5t20.5 49.5t-20.5 49.5zM1087.5 -338.5q-20.5 20.5 -49.5 20.5t-49.5 -20.5t-20.5 -49.5t20.5 -49.5t49.5 -20.5t49.5 20.5t20.5 49.5t-20.5 49.5zM937.5 -618.5
q-20.5 20.5 -49.5 20.5t-49.5 -20.5t-20.5 -49.5t20.5 -49.5t49.5 -20.5t49.5 20.5t20.5 49.5t-20.5 49.5z" />
    <glyph glyph-name="uniFB58" unicode="&#x67e;" horiz-adv-x="660" arabic-form="initial" 
d="M-53 43.5q-15 -13.5 0 -27t53 -16.5h162q89 0 164 44t119 118.5t44 163.5v306h-58v-303q0 -73 -36.5 -135t-98 -98t-134.5 -36h-162q-38 -3 -53 -16.5zM2.5 -339.5q-20.5 20.5 -49.5 20.5t-49.5 -20.5t-20.5 -49.5t20.5 -49.5t49.5 -20.5t49.5 20.5t20.5 49.5t-20.5 49.5
zM302.5 -339.5q-20.5 20.5 -49.5 20.5t-49.5 -20.5t-20.5 -49.5t20.5 -49.5t49.5 -20.5t49.5 20.5t20.5 49.5t-20.5 49.5zM152.5 -619.5q-20.5 20.5 -49.5 20.5t-49.5 -20.5t-20.5 -49.5t20.5 -49.5t49.5 -20.5t49.5 20.5t20.5 49.5t-20.5 49.5z" />
    <glyph glyph-name="uniFB59" unicode="&#x67e;" horiz-adv-x="790" arabic-form="medial" 
d="M-53 43.5q-15 -13.5 0 -27t53 -16.5h162q101 0 182 56t116 147q35 -91 116 -147t182 -56h32v60h-32q-73 0 -135 36t-98 98t-36 135v281h-58v-281q0 -73 -36.5 -135t-98 -98t-134.5 -36h-162q-38 -3 -53 -16.5zM2.5 -339.5q-20.5 20.5 -49.5 20.5t-49.5 -20.5t-20.5 -49.5
t20.5 -49.5t49.5 -20.5t49.5 20.5t20.5 49.5t-20.5 49.5zM302.5 -339.5q-20.5 20.5 -49.5 20.5t-49.5 -20.5t-20.5 -49.5t20.5 -49.5t49.5 -20.5t49.5 20.5t20.5 49.5t-20.5 49.5zM152.5 -619.5q-20.5 20.5 -49.5 20.5t-49.5 -20.5t-20.5 -49.5t20.5 -49.5t49.5 -20.5
t49.5 20.5t20.5 49.5t-20.5 49.5z" />
    <glyph glyph-name="uniFB67" unicode="&#x679;" horiz-adv-x="1906" arabic-form="final" 
d="M1459 56q81 56 116 147q36 -91 116.5 -147t181.5 -56h33v60h-33q-73 0 -134.5 36t-98 98t-36.5 135v281h-58v-281q0 -73 -36 -135t-98 -98t-135 -36h-778q-74 0 -135.5 36t-97.5 98t-36 135v303h-59v-306q0 -89 44 -163.5t119.5 -118.5t164.5 -44h778q101 0 182 56z
M800 995.5q60 100.5 154 100.5q80 0 121.5 -51.5t41.5 -121.5q0 -56 -48 -93t-119 -37h-239q29 102 89 202.5zM660 793h-50v-49h340q92 0 153 50.5t63 128.5q0 57 -24 107.5t-72 82t-116 31.5q-135 0 -229 -188v403h-49v-513q-8 -26 -16 -53z" />
    <glyph glyph-name="uniFB68" unicode="&#x679;" horiz-adv-x="814" arabic-form="initial" 
d="M-53 43.5q-15 -13.5 0 -27t53 -16.5h315q89 0 164.5 44t119.5 118.5t44 163.5v306h-59v-303q0 -73 -36 -135t-97.5 -98t-135.5 -36h-315q-38 -3 -53 -16.5zM292 1177.5q60 100.5 154 100.5q80 0 121.5 -51.5t41.5 -121.5q0 -56 -48 -93t-119 -37h-239q29 102 89 202.5z
M152 975h-50v-49h340q92 0 153 50.5t63 128.5q0 57 -24 107.5t-72 82t-116 31.5q-135 0 -229 -188v403h-49v-513q-8 -26 -16 -53z" />
    <glyph glyph-name="uniFB69" unicode="&#x679;" horiz-adv-x="944" arabic-form="medial" 
d="M-53 43.5q-15 -13.5 0 -27t53 -16.5h315q101 0 182 56.5t116 146.5q36 -90 116.5 -146.5t181.5 -56.5h33v60h-33q-73 0 -134.5 36t-97.5 98t-36 135v281h-59v-281q0 -73 -36 -135t-97.5 -98t-135.5 -36h-315q-38 -3 -53 -16.5zM292 1156.5q60 100.5 154 100.5
q80 0 121.5 -51.5t41.5 -121.5q0 -56 -48 -93t-119 -37h-239q29 102 89 202.5zM152 954h-50v-49h340q92 0 153 50.5t63 128.5q0 57 -24 107.5t-72 82t-116 31.5q-135 0 -229 -188v403h-49v-513q-8 -26 -16 -53z" />
    <glyph glyph-name="uniFB6B" unicode="&#x6a4;" horiz-adv-x="1854" arabic-form="final" 
d="M1443.5 710q68.5 -35 107.5 -96t39 -138q0 -158 -101.5 -261.5t-196.5 -152.5q-95 49 -197 152.5t-102 261.5q0 77 39.5 138t107.5 96t152 35q83 0 151.5 -35zM1224 0q24 0 45.5 7.5t22.5 15.5q1 -8 22 -15.5t46 -7.5h494v60h-463q100 65 179 169t79 247q0 92 -47 167
t-128.5 118t-181.5 43t-182 -43t-128.5 -118t-46.5 -167q0 -143 78.5 -247t179.5 -169h-694q-74 0 -135.5 36t-97.5 98t-36 135v303h-59v-306q0 -89 44 -163.5t119.5 -118.5t164.5 -44h725zM1191.5 1222.5q-20.5 20.5 -49.5 20.5t-49.5 -20.5t-20.5 -49.5t20.5 -49.5
t49.5 -20.5t49.5 20.5t20.5 49.5t-20.5 49.5zM1491.5 1222.5q-20.5 20.5 -49.5 20.5t-49.5 -20.5t-20.5 -49.5t20.5 -49.5t49.5 -20.5t49.5 20.5t20.5 49.5t-20.5 49.5zM1341.5 1502.5q-20.5 20.5 -49.5 20.5t-49.5 -20.5t-20.5 -49.5t20.5 -49.5t49.5 -20.5t49.5 20.5
t20.5 49.5t-20.5 49.5z" />
    <glyph glyph-name="uniFB6C" unicode="&#x6a4;" horiz-adv-x="1081" arabic-form="initial" 
d="M508 431q-87 0 -138 15.5t-78 58t-27 129.5q0 89 37 171t104 133t152 51q102 0 167.5 -55t95.5 -140t30 -180v-183h-343zM-53 43.5q-15 -13.5 0 -27t53 -16.5h541q99 0 184 44t134.5 118.5t49.5 163.5v288q0 126 -44.5 224.5t-124.5 153.5t-182 55q-100 0 -180.5 -58.5
t-125.5 -154t-45 -200.5q0 -101 34 -159t99.5 -81t167.5 -23h343v-45q0 -73 -42 -134t-113.5 -96.5t-154.5 -35.5h-541q-38 -3 -53 -16.5zM457.5 1423.5q-20.5 20.5 -49.5 20.5t-49.5 -20.5t-20.5 -49.5t20.5 -49.5t49.5 -20.5t49.5 20.5t20.5 49.5t-20.5 49.5z
M757.5 1423.5q-20.5 20.5 -49.5 20.5t-49.5 -20.5t-20.5 -49.5t20.5 -49.5t49.5 -20.5t49.5 20.5t20.5 49.5t-20.5 49.5zM607.5 1703.5q-20.5 20.5 -49.5 20.5t-49.5 -20.5t-20.5 -49.5t20.5 -49.5t49.5 -20.5t49.5 20.5t20.5 49.5t-20.5 49.5z" />
    <glyph glyph-name="uniFB6D" unicode="&#x6a4;" horiz-adv-x="1124" arabic-form="medial" 
d="M713.5 710q68.5 -35 107.5 -96t39 -138q0 -158 -101.5 -261.5t-196.5 -152.5q-95 49 -197 152.5t-102 261.5q0 77 39.5 138t108 96t151.5 35t151.5 -35zM-53 43.5q-15 -13.5 0 -27t53 -16.5h494q24 0 45.5 7.5t22.5 15.5q1 -8 22.5 -15.5t45.5 -7.5h494v60h-463
q100 65 179 169t79 247q0 92 -46.5 167t-128.5 118t-182 43t-181.5 -43t-128.5 -118t-47 -167q0 -143 78.5 -247t179.5 -169h-463q-38 -3 -53 -16.5zM461.5 1222.5q-20.5 20.5 -49.5 20.5t-49.5 -20.5t-20.5 -49.5t20.5 -49.5t49.5 -20.5t49.5 20.5t20.5 49.5t-20.5 49.5z
M761.5 1222.5q-20.5 20.5 -49.5 20.5t-49.5 -20.5t-20.5 -49.5t20.5 -49.5t49.5 -20.5t49.5 20.5t20.5 49.5t-20.5 49.5zM611.5 1502.5q-20.5 20.5 -49.5 20.5t-49.5 -20.5t-20.5 -49.5t20.5 -49.5t49.5 -20.5t49.5 20.5t20.5 49.5t-20.5 49.5z" />
    <glyph glyph-name="uniFB7B" unicode="&#x686;" horiz-adv-x="1398" arabic-form="final" 
d="M1236 556l3 52l-228.5 132.5t-356.5 205.5q-77 44 -159.5 36t-151 -65.5t-103.5 -155.5l-9 -22l55 -22l9 23q29 83 84.5 130.5t121.5 53.5t127 -29q412 -238 541 -311l-750 -357q-118 -53 -188 -152.5t-70 -221.5q0 -110 53.5 -202.5t146 -147t202.5 -54.5h614v60h-614
q-107 0 -195 60.5t-126 159.5q-33 87 -18 175t72 159t145 111l580 279l53 -263q20 -104 101.5 -147t162.5 -43h60v60h-60q-68 0 -131 31.5t-80 117.5l-55 268zM668.5 8.5q-20.5 20.5 -49.5 20.5t-49.5 -20.5t-20.5 -49.5t20.5 -49.5t49.5 -20.5t49.5 20.5t20.5 49.5
t-20.5 49.5zM941.5 88.5q-20.5 20.5 -49.5 20.5t-49.5 -20.5t-20.5 -49.5t20.5 -49.5t49.5 -20.5t49.5 20.5t20.5 49.5t-20.5 49.5zM865.5 -146.5q-20.5 20.5 -49.5 20.5t-49.5 -20.5t-20.5 -49.5t20.5 -49.5t49.5 -20.5t49.5 20.5t20.5 49.5t-20.5 49.5z" />
    <glyph glyph-name="uniFB7C" unicode="&#x686;" horiz-adv-x="1316" arabic-form="initial" 
d="M-53 43.5q-15 -13.5 0 -27t53 -16.5h218q183 0 369 57t323 125t269 145q62 36 69 37l-3 52q-22 0 -143.5 67t-333.5 190q-98 57 -139 80q-77 44 -160 36t-151.5 -65.5t-103.5 -155.5l-8 -22l55 -21l8 22q29 83 84.5 130.5t122 53t126.5 -28.5q199 -115 349 -198t231 -118
q-17 -9 -64 -34q-141 -75 -271 -135t-298.5 -108.5t-330.5 -48.5h-218q-38 -3 -53 -16.5zM458.5 -338.5q-20.5 20.5 -49.5 20.5t-49.5 -20.5t-20.5 -49.5t20.5 -49.5t49.5 -20.5t49.5 20.5t20.5 49.5t-20.5 49.5zM758.5 -338.5q-20.5 20.5 -49.5 20.5t-49.5 -20.5
t-20.5 -49.5t20.5 -49.5t49.5 -20.5t49.5 20.5t20.5 49.5t-20.5 49.5zM608.5 -618.5q-20.5 20.5 -49.5 20.5t-49.5 -20.5t-20.5 -49.5t20.5 -49.5t49.5 -20.5t49.5 20.5t20.5 49.5t-20.5 49.5z" />
    <glyph glyph-name="uniFB7D" unicode="&#x686;" horiz-adv-x="1387" arabic-form="medial" 
d="M-53 43.5q-15 -13.5 0 -27t53 -16.5h218q330 0 744 208l151 -130q92 -78 207 -78h97v60h-97q-93 0 -170 61l-135 114q68 36 164 92q62 36 69 37l-3 52q-22 0 -143.5 67t-333.5 190q-98 57 -139 80q-77 44 -160 36t-151.5 -65.5t-103.5 -155.5l-8 -22l55 -21l8 22
q29 83 84.5 130.5t122 53t126.5 -28.5q199 -115 349 -198t231 -118q-17 -9 -64 -34q-141 -75 -271 -135t-298.5 -108.5t-330.5 -48.5h-218q-38 -3 -53 -16.5zM458.5 -338.5q-20.5 20.5 -49.5 20.5t-49.5 -20.5t-20.5 -49.5t20.5 -49.5t49.5 -20.5t49.5 20.5t20.5 49.5
t-20.5 49.5zM758.5 -338.5q-20.5 20.5 -49.5 20.5t-49.5 -20.5t-20.5 -49.5t20.5 -49.5t49.5 -20.5t49.5 20.5t20.5 49.5t-20.5 49.5zM608.5 -618.5q-20.5 20.5 -49.5 20.5t-49.5 -20.5t-20.5 -49.5t20.5 -49.5t49.5 -20.5t49.5 20.5t20.5 49.5t-20.5 49.5z" />
    <glyph glyph-name="uniFB89" unicode="&#x688;" horiz-adv-x="1175" arabic-form="final" 
d="M578 0q70 0 128 32t94 86t42 118l47 -85q39 -70 108 -110.5t150 -40.5h28v60h-28q-67 0 -123.5 33.5t-87.5 91.5l-388 712l-52 -28l273 -501q36 -67 21.5 -139.5t-70.5 -121t-135 -48.5h-492v-59h485zM506 1460.5q60 100.5 154 100.5q80 0 121.5 -51.5t41.5 -121.5
q0 -56 -48 -93t-119 -37h-239q29 102 89 202.5zM366 1258h-50v-49h340q92 0 153 50.5t63 128.5q0 57 -24 107.5t-72 82t-116 31.5q-135 0 -229 -188v403h-49v-513q-8 -26 -16 -53z" />
    <glyph glyph-name="uniFB8B" unicode="&#x698;" horiz-adv-x="897" arabic-form="final" 
d="M684.5 55q87.5 -55 193.5 -55h19v60h-19q-89 0 -164.5 44t-119.5 119.5t-44 164.5v222h-59v-633q0 -122 -60.5 -230t-163.5 -173t-223 -65h-45v-60h45q136 0 252.5 72.5t185 193.5t68.5 258v228q47 -91 134.5 -146zM420.5 1051.5q-20.5 20.5 -49.5 20.5t-49.5 -20.5
t-20.5 -49.5t20.5 -49.5t49.5 -20.5t49.5 20.5t20.5 49.5t-20.5 49.5zM720.5 1051.5q-20.5 20.5 -49.5 20.5t-49.5 -20.5t-20.5 -49.5t20.5 -49.5t49.5 -20.5t49.5 20.5t20.5 49.5t-20.5 49.5zM570.5 1331.5q-20.5 20.5 -49.5 20.5t-49.5 -20.5t-20.5 -49.5t20.5 -49.5
t49.5 -20.5t49.5 20.5t20.5 49.5t-20.5 49.5z" />
    <glyph glyph-name="uniFB8D" unicode="&#x691;" horiz-adv-x="897" arabic-form="final" 
d="M684.5 55q87.5 -55 193.5 -55h19v60h-19q-89 0 -164.5 44t-119.5 119.5t-44 164.5v222h-59v-633q0 -122 -60.5 -230t-163.5 -173t-223 -65h-45v-60h45q136 0 252.5 72.5t185 193.5t68.5 258v228q47 -91 134.5 -146zM433 1205.5q60 100.5 154 100.5q80 0 121.5 -51.5
t41.5 -121.5q0 -56 -48 -93t-119 -37h-239q29 102 89 202.5zM293 1003h-50v-49h340q92 0 153 50.5t63 128.5q0 57 -24 107.5t-72 82t-116 31.5q-135 0 -229 -188v403h-49v-513q-8 -26 -16 -53z" />
    <glyph glyph-name="uniFB8F" unicode="&#x6a9;" horiz-adv-x="2010" arabic-form="final" 
d="M1334 0q85 0 149.5 44.5t95 114.5t18.5 143l208 -219q39 -40 89.5 -61.5t105.5 -21.5h10v60h-10q-86 0 -153 65l-890 933l642 244l-21 56l-683 -261v-59l605 -633q55 -65 48.5 -146.5t-64.5 -140t-144 -58.5h-841q-74 0 -135.5 36t-97.5 98t-36 135v303h-59v-305
q0 -89 44 -164t119.5 -119t164.5 -44h835z" />
    <glyph glyph-name="uniFB90" unicode="&#x6a9;" horiz-adv-x="1138" arabic-form="initial" 
d="M-53 43.5q-15 -13.5 0 -27t53 -16.5h689q86 0 150.5 45.5t95 117.5t18.5 150t-70 139l-578 606l642 244l-21 56l-683 -261v-59l596 -624q62 -65 57.5 -149t-62.5 -144.5t-146 -60.5h-688q-38 -3 -53 -16.5z" />
    <glyph glyph-name="uniFB91" unicode="&#x6a9;" horiz-adv-x="1367" arabic-form="medial" 
d="M-53 43.5q-15 -13.5 0 -27t53 -16.5h682q85 0 149.5 44.5t95 114.5t18.5 143l208 -219q39 -40 89.5 -61.5t105.5 -21.5h19v60h-19q-87 0 -153 65l-890 933l642 244l-21 56l-683 -261v-59l605 -633q55 -65 48.5 -146.5t-64.5 -140t-144 -58.5h-688q-38 -3 -53 -16.5z" />
    <glyph glyph-name="uniFB93" unicode="&#x6af;" horiz-adv-x="2009" arabic-form="final" 
d="M1334 0q85 0 149.5 44.5t95 114.5t18.5 143l208 -219q39 -40 89.5 -61.5t105.5 -21.5h10v60h-10q-86 0 -153 65l-890 933l642 244l-21 56l-683 -261v-59l605 -633q55 -65 48.5 -146.5t-64.5 -140t-144 -58.5h-841q-74 0 -135.5 36t-97.5 98t-36 135v303h-59v-305
q0 -89 44 -164t119.5 -119t164.5 -44h835zM1489 1546l-18 46l-576 -218l1 -51z" />
    <glyph glyph-name="uniFB94" unicode="&#x6af;" horiz-adv-x="1138" arabic-form="initial" 
d="M-53 43.5q-15 -13.5 0 -27t53 -16.5h689q86 0 150.5 45.5t95 117.5t18.5 150t-70 139l-578 606l642 244l-21 56l-683 -261v-59l596 -624q62 -65 57.5 -149t-62.5 -144.5t-146 -60.5h-688q-38 -3 -53 -16.5zM799 1546l-18 46l-576 -218l1 -51z" />
    <glyph glyph-name="uniFB95" unicode="&#x6af;" horiz-adv-x="1367" arabic-form="medial" 
d="M-53 43.5q-15 -13.5 0 -27t53 -16.5h682q85 0 149.5 44.5t95 114.5t18.5 143l208 -219q39 -40 89.5 -61.5t105.5 -21.5h19v60h-19q-87 0 -153 65l-890 933l642 244l-21 56l-683 -261v-59l605 -633q55 -65 48.5 -146.5t-64.5 -140t-144 -58.5h-688q-38 -3 -53 -16.5z
M799 1546l-18 46l-576 -218l1 -51z" />
    <glyph glyph-name="uniFB9F" unicode="&#x6ba;" horiz-adv-x="1608" arabic-form="final" 
d="M790 -551q154 0 271.5 71.5t181 191t64.5 259.5v185q41 -72 112 -114.5t157 -42.5h32v60h-32q-74 0 -135.5 36t-97.5 98t-36 135v246h-59v-597q0 -126 -55.5 -233t-159.5 -171t-243 -64h-102q-139 0 -243 64t-159.5 171t-55.5 233v424h-59v-427q0 -141 63.5 -261
t181 -192t272.5 -72h102z" />
    <glyph glyph-name="uniFBA7" unicode="&#x6c1;" horiz-adv-x="1145" arabic-form="final" 
d="M255 279q12 94 72 167.5t150 103.5l288 95l31 -347q7 -83 52.5 -151.5t117.5 -107.5t156 -39h23v60h-23q-69 0 -128 32t-96.5 87.5t-43.5 123.5l-35 385l-38 25l-323 -107q-106 -36 -176.5 -122.5t-85.5 -196.5l-35 -283l59 -7z" />
    <glyph glyph-name="uniFBA8" unicode="&#x6c1;" horiz-adv-x="1266" arabic-form="initial" 
d="M772 -619q-24 23 -62.5 22.5t-79.5 -32.5v28q0 76 49.5 134.5t125.5 71.5l13 2l-7 52l-10 -2q-99 -18 -160.5 -90t-62.5 -171v-63q0 -44 31.5 -75t77.5 -31t77.5 26.5t31.5 70.5q0 34 -24 57zM-53 43.5q-15 -13.5 0 -27t53 -16.5h121q101 0 181.5 56t116.5 147
q35 -91 115.5 -147t182.5 -56h50q89 0 164 44t119 118.5t44 163.5v306h-58v-303q0 -73 -36 -135t-98 -98t-135 -36h-50q-73 0 -135 36t-98 98t-36 135v281h-59v-281q0 -73 -36 -135t-97.5 -98t-134.5 -36h-121q-38 -3 -53 -16.5z" />
    <glyph glyph-name="uniFBA9" unicode="&#x6c1;" horiz-adv-x="1084" arabic-form="medial" 
d="M-53 43.5q-15 -13.5 0 -27t53 -16.5h292q4 -313 149.5 -454.5t415.5 -141.5l29 30v486q0 38 21 59t59 21h118v60h-118q-59 0 -99 -40t-40 -100v-456q-235 6 -355.5 136t-121.5 413v506h-59v-459h-291q-38 -3 -53 -16.5z" />
    <glyph glyph-name="uniFBAB" unicode="&#x6be;" horiz-adv-x="1537" arabic-form="final" 
d="M1207 60q67 41 105 111.5t36.5 152t-47.5 153.5l-272 421l-48 -31l270 -422q52 -80 37 -171t-83.5 -152.5t-163.5 -61.5h-430q101 65 180.5 169t79.5 247q0 92 -47 167t-128.5 118t-182.5 43q-100 0 -181.5 -43t-128.5 -118t-47 -167t43 -178.5t105.5 -153t123 -105.5
t90.5 -39h1019v60h-330zM665 710q68 -35 107.5 -96t39.5 -138q0 -158 -101.5 -260.5t-197.5 -153.5q-94 49 -196 152.5t-102 261.5q0 77 39.5 138t107.5 96t151 35q84 0 152 -35z" />
    <glyph glyph-name="uniFBAC" unicode="&#x6be;" horiz-adv-x="1555" arabic-form="initial" 
d="M713.5 710q68.5 -35 107.5 -96t39 -138q0 -158 -101.5 -261.5t-196.5 -152.5q-95 49 -197 152.5t-102 261.5q0 77 39.5 138t108 96t151.5 35t151.5 -35zM1131 0q78 0 141 40.5t97 107t29 142t-54 140.5l-356 468l-46 -35l355 -468q50 -65 42 -144.5t-65.5 -135.5
t-142.5 -56h-471q102 66 180.5 170t78.5 247q0 92 -46.5 167t-128.5 118t-182 43t-181.5 -43t-128.5 -118t-47 -167q0 -143 78.5 -247t179.5 -169h-463q-38 -3 -53 -16.5t0 -27t53 -16.5h494q24 0 45.5 7.5t22.5 15.5q1 -8 22.5 -15.5t45.5 -7.5h501z" />
    <glyph glyph-name="uniFBAD" unicode="&#x6be;" horiz-adv-x="1577" arabic-form="medial" 
d="M704 710q68 -35 107.5 -96t39.5 -138q0 -158 -102 -261.5t-196 -152.5q-95 49 -197 152.5t-102 261.5q0 77 39.5 138t107.5 96t152 35q83 0 151 -35zM-53 43.5q-15 -13.5 0 -27t53 -16.5h488q23 0 43 7t22 16q1 -9 21 -16t43 -7h960v60h-330q66 41 104 111.5t36.5 152
t-47.5 153.5l-271 421l-49 -31l270 -422q52 -80 37 -171t-83 -152.5t-164 -61.5h-429q101 65 180 169t79 247q0 92 -47 167t-128.5 118t-181.5 43t-182 -43t-129 -118t-47 -167q0 -143 79 -247t180 -169h-454q-38 -3 -53 -16.5z" />
    <glyph glyph-name="uniFBAF" unicode="&#x6d2;" horiz-adv-x="1076" arabic-form="final" 
d="M912 -458h-413q-75 0 -136.5 28.5t-97 81t-35.5 119.5q0 68 35.5 120t97 80.5t136.5 28.5h577v60h-577q-91 0 -165.5 -36.5t-118.5 -102.5t-44 -150t44 -149.5t118.5 -101.5t165.5 -36h413v58z" />
    <glyph glyph-name="uniFBB1" unicode="&#x6d3;" horiz-adv-x="1076" arabic-form="final" 
d="M912 -458h-413q-75 0 -136.5 28.5t-97 81t-35.5 119.5q0 68 35.5 120t97 80.5t136.5 28.5h577v60h-577q-91 0 -165.5 -36.5t-118.5 -102.5t-44 -150t44 -149.5t118.5 -101.5t165.5 -36h413v58zM258 445l425 162l-18 46l-161 -61q-94 0 -135 48t-40 110q0 58 40.5 109.5
t104.5 51.5q39 0 68 -10.5t61 -29.5q3 -2 5 -3l8 49q-62 43 -142 43q-57 0 -101 -30.5t-68.5 -79t-24.5 -100.5q0 -71 39.5 -123.5t100.5 -67.5l-179 -69z" />
    <glyph glyph-name="uniFBD8" unicode="&#x6c7;" horiz-adv-x="1081" arabic-form="final" 
d="M524 60q-141 0 -217 71.5t-76 201.5q0 98 36.5 174t102.5 118.5t154 42.5q102 0 167.5 -49.5t95.5 -125.5t30 -160v-273h-293zM686 -366.5q-130 -124.5 -355 -124.5h-178v-60h178q163 0 284.5 62t189.5 185.5t69 303.5h207v60h-206v273q0 117 -44 206t-123.5 138
t-183.5 49q-102 0 -182 -50t-124.5 -139.5t-44.5 -203.5q0 -156 92.5 -244.5t258.5 -88.5h292q0 -242 -130 -366.5zM495 1111l20 -49l45 17l-20 51l144 56q80 35 112 109t2 156q-34 79 -108 111t-155 2q-80 -34 -112 -108t-3 -156l57 -143l-241 -96l17 -45zM696.5 1503.5
q39.5 -26.5 56.5 -71.5q24 -59 -1.5 -118t-85.5 -82l-143 -57l-57 144q-19 47 -5.5 96.5t53.5 82t95 32.5q48 0 87.5 -26.5z" />
    <glyph glyph-name="uniFBDA" unicode="&#x6c6;" horiz-adv-x="1081" arabic-form="final" 
d="M524 60q-141 0 -217 71.5t-76 201.5q0 98 36.5 174t102.5 118.5t154 42.5q102 0 167.5 -49.5t95.5 -125.5t30 -160v-273h-293zM686 -366.5q-130 -124.5 -355 -124.5h-178v-60h178q163 0 284.5 62t189.5 185.5t69 303.5h207v60h-206v273q0 117 -44 206t-123.5 138
t-183.5 49q-102 0 -182 -50t-124.5 -139.5t-44.5 -203.5q0 -156 92.5 -244.5t258.5 -88.5h292q0 -242 -130 -366.5zM794 1352h-64l-206 -235l-206 235h-64l252 -288h36z" />
    <glyph glyph-name="uniFBE3" unicode="&#x6c9;" horiz-adv-x="1081" arabic-form="final" 
d="M524 60q-141 0 -217 71.5t-76 201.5q0 98 36.5 174t102.5 118.5t154 42.5q102 0 167.5 -49.5t95.5 -125.5t30 -160v-273h-293zM686 -366.5q-130 -124.5 -355 -124.5h-178v-60h178q163 0 284.5 62t189.5 185.5t69 303.5h207v60h-206v273q0 117 -44 206t-123.5 138
t-183.5 49q-102 0 -182 -50t-124.5 -139.5t-44.5 -203.5q0 -156 92.5 -244.5t258.5 -88.5h292q0 -242 -130 -366.5zM794 1015h-64l-206 236l-206 -236h-64l252 288h36z" />
    <glyph glyph-name="uniFBE8" unicode="&#x649;" horiz-adv-x="716" arabic-form="initial" 
d="M-53 43.5q-15 -13.5 0 -27t53 -16.5h218q89 0 164 44t119 118.5t44 163.5v306h-59v-303q0 -73 -36 -135t-97.5 -98t-134.5 -36h-218q-38 -3 -53 -16.5z" />
    <glyph glyph-name="uniFBE9" unicode="&#x649;" horiz-adv-x="846" arabic-form="medial" 
d="M-53 43.5q-15 -13.5 0 -27t53 -16.5h218q101 0 181.5 56t116.5 147q35 -91 115.5 -147t182.5 -56h32v60h-32q-73 0 -135 36t-98 98t-36 135v281h-59v-281q0 -73 -36 -135t-97.5 -98t-134.5 -36h-218q-38 -3 -53 -16.5z" />
    <glyph glyph-name="uniFBFD" unicode="&#x6cc;" horiz-adv-x="1646" arabic-form="final" 
d="M1646 60h-874v-59h430q54 -4 93.5 -55.5t38.5 -115.5q-1 -120 -72.5 -191.5t-175 -100.5t-213.5 -29h-185q-139 0 -243 64t-159.5 171t-55.5 233v424h-59l1 -427q0 -141 63 -261t180.5 -192t272.5 -72h185q159 0 278 51t181.5 138t60.5 192q-5 115 -83 170h336v60z" />
    <glyph glyph-name="uniFBFE" unicode="&#x6cc;" horiz-adv-x="660" arabic-form="initial" 
d="M-53 43.5q-15 -13.5 0 -27t53 -16.5h162q89 0 164 44t119 118.5t44 163.5v306h-58v-303q0 -73 -36.5 -135t-98 -98t-134.5 -36h-162q-38 -3 -53 -16.5zM2.5 -434.5q-20.5 20.5 -49.5 20.5t-49.5 -20.5t-20.5 -49.5t20.5 -49.5t49.5 -20.5t49.5 20.5t20.5 49.5t-20.5 49.5
zM302.5 -434.5q-20.5 20.5 -49.5 20.5t-49.5 -20.5t-20.5 -49.5t20.5 -49.5t49.5 -20.5t49.5 20.5t20.5 49.5t-20.5 49.5z" />
    <glyph glyph-name="uniFBFF" unicode="&#x6cc;" horiz-adv-x="790" arabic-form="medial" 
d="M-53 43.5q-15 -13.5 0 -27t53 -16.5h162q101 0 182 56t116 147q35 -91 116 -147t182 -56h32v60h-32q-73 0 -135 36t-98 98t-36 135v281h-58v-281q0 -73 -36.5 -135t-98 -98t-134.5 -36h-162q-38 -3 -53 -16.5zM2.5 -434.5q-20.5 20.5 -49.5 20.5t-49.5 -20.5t-20.5 -49.5
t20.5 -49.5t49.5 -20.5t49.5 20.5t20.5 49.5t-20.5 49.5zM302.5 -434.5q-20.5 20.5 -49.5 20.5t-49.5 -20.5t-20.5 -49.5t20.5 -49.5t49.5 -20.5t49.5 20.5t20.5 49.5t-20.5 49.5z" />
    <glyph glyph-name="uniFD3C" unicode="&#xfd3c;" horiz-adv-x="553" arabic-form="final" 
d="M581 60h-53q-74 0 -135.5 36t-97 98t-35.5 135v890h-59v-893q0 -89 43.5 -163.5t118.5 -118.5t165 -44h53v60zM26 1404l482 191l-18 45l-482 -191zM-75 1686l482 191l-18 45l-482 -191z" />
    <glyph glyph-name="uniFD3D" unicode="&#xfd3d;" horiz-adv-x="441" arabic-form="isolated" 
d="M201 0h59v1219h-59v-1219zM26 1404l482 191l-18 45l-482 -191zM-75 1686l482 191l-18 45l-482 -191z" />
    <glyph glyph-name="uniFDF2" unicode="&#xfdf2;" horiz-adv-x="2821" arabic-form="isolated" 
d="M2601 0h59v1413h-59v-1413zM1782 43.5q-15 -13.5 0 -27t53 -16.5h83q89 0 164 44t119 119t44 164v1086h-59v-1084q0 -73 -36 -135t-97.5 -98t-134.5 -36h-83q-38 -3 -53 -16.5zM1123 43.5q-15 -13.5 0 -27t53 -16.5h32q101 0 181.5 56.5t116.5 146.5q35 -90 116 -146.5
t182 -56.5h31v60h-31q-74 0 -135.5 36t-97.5 98t-36 135v832h-59v-832q0 -73 -36 -135t-97.5 -98t-134.5 -36h-32q-38 -3 -53 -16.5zM1467.5 1517q45.5 35 60.5 90q24 -31 59 -48t75 -17h15q72 0 122.5 50.5t50.5 122.5v163h-48v-163q0 -52 -36.5 -88.5t-88.5 -36.5h-15
q-52 0 -88.5 36.5t-36.5 88.5v103h-48v-163q0 -51 -36.5 -87.5t-88.5 -36.5h-15q-52 0 -88.5 36.5t-36.5 87.5v163h-48v-163q0 -72 50.5 -122.5t122.5 -50.5h15q58 0 103.5 35zM1489 1950h48v355h-48v-355zM985 60q78 -59 176 -60h19v60h-19q-89 1 -156 59t-80 146l-109 745
l-58 -7l23 -160q-216 12 -357.5 -48.5t-205.5 -177t-56 -271.5q6 -110 75.5 -180.5t179 -90.5t232.5 14.5t230 123.5q28 -94 106 -153zM865 271q-148 -120 -297.5 -140t-243.5 42.5t-103 175.5q-8 143 51.5 245t189.5 153t327 38z" />
    <glyph glyph-name="uniFDFC" unicode="&#xfdfc;" horiz-adv-x="3187" arabic-form="isolated" 
d="M2509 -521q137 0 253.5 72.5t185 193.5t68.5 259v606h-59v-603q0 -122 -60.5 -230t-163.5 -173t-224 -65h-864v-60h864zM1649 1353v-1027q0 -89 43.5 -163.5t118.5 -118.5t165 -44h215q89 0 164 44t119 118.5t44 163.5v306h-58v-303q0 -73 -36.5 -135t-98 -98t-134.5 -36
h-215q-74 0 -135.5 36t-97 98t-35.5 135v1084h-500v-1434q0 -126 -55.5 -233t-159.5 -171t-243 -64h-62q-139 0 -243 64t-159.5 171t-55.5 233v402h-59v-405q0 -141 63.5 -261t181 -192t272.5 -72h62q155 0 272.5 72t181 192t63.5 261v1377h382z" />
    <glyph glyph-name="uniFE82" unicode="&#x622;" horiz-adv-x="573" arabic-form="final" 
d="M581 60h-53q-74 0 -135.5 36t-97 98t-35.5 135v890h-59v-893q0 -89 43.5 -163.5t118.5 -118.5t165 -44h53v60zM-71 1419q24 60 78 96.5t119 36.5h416v52h-416q-81 0 -148 -46t-97 -121l-46 -115l48 -19z" />
    <glyph glyph-name="uniFE86" unicode="&#x624;" horiz-adv-x="1081" arabic-form="final" 
d="M524 60q-141 0 -217 71.5t-76 201.5q0 98 36.5 174t102.5 118.5t154 42.5q102 0 167.5 -49.5t95.5 -125.5t30 -160v-273h-293zM686 -366.5q-130 -124.5 -355 -124.5h-178v-60h178q163 0 284.5 62t189.5 185.5t69 303.5h207v60h-206v273q0 117 -44 206t-123.5 138
t-183.5 49q-102 0 -182 -50t-124.5 -139.5t-44.5 -203.5q0 -156 92.5 -244.5t258.5 -88.5h292q0 -242 -130 -366.5zM320 1015l425 162l-18 46l-161 -61q-94 0 -135 48t-40 110q0 58 40.5 109.5t104.5 51.5q39 0 68 -10.5t61 -29.5q3 -2 5 -3l8 49q-62 43 -142 43
q-57 0 -101 -30.5t-68.5 -79t-24.5 -100.5q0 -71 39.5 -123.5t100.5 -67.5l-179 -69z" />
    <glyph glyph-name="uniFE88" unicode="&#x625;" horiz-adv-x="573" arabic-form="final" 
d="M581 60h-53q-74 0 -135.5 36t-97 98t-35.5 135v1084h-59v-1087q0 -89 43.5 -163.5t118.5 -118.5t165 -44h53v60zM40 -799l425 162l-18 46l-161 -61q-94 0 -135 48t-40 110q0 58 40.5 109.5t104.5 51.5q39 0 68 -10.5t61 -29.5q3 -2 5 -3l8 49q-62 43 -142 43
q-57 0 -101 -30.5t-68.5 -79t-24.5 -100.5q0 -71 39.5 -123.5t100.5 -67.5l-179 -69z" />
    <glyph glyph-name="uniFE8B" unicode="&#x626;" horiz-adv-x="716" arabic-form="initial" 
d="M-53 43.5q-15 -13.5 0 -27t53 -16.5h218q89 0 164 44t119 118.5t44 163.5v306h-59v-303q0 -73 -36 -135t-97.5 -98t-134.5 -36h-218q-38 -3 -53 -16.5zM135 942l425 162l-18 46l-161 -61q-94 0 -135 48t-40 110q0 58 40.5 109.5t104.5 51.5q39 0 68 -10.5t61 -29.5
q3 -2 5 -3l8 49q-62 43 -142 43q-57 0 -101 -30.5t-68.5 -79t-24.5 -100.5q0 -71 39.5 -123.5t100.5 -67.5l-179 -69z" />
    <glyph glyph-name="uniFE8C" unicode="&#x626;" horiz-adv-x="846" arabic-form="medial" 
d="M-53 43.5q-15 -13.5 0 -27t53 -16.5h218q101 0 181.5 56t116.5 147q35 -91 115.5 -147t182.5 -56h32v60h-32q-73 0 -135 36t-98 98t-36 135v281h-59v-281q0 -73 -36 -135t-97.5 -98t-134.5 -36h-218q-38 -3 -53 -16.5zM135 921l425 162l-18 46l-161 -61q-94 0 -135 48
t-40 110q0 58 40.5 109.5t104.5 51.5q39 0 68 -10.5t61 -29.5q3 -2 5 -3l8 49q-62 43 -142 43q-57 0 -101 -30.5t-68.5 -79t-24.5 -100.5q0 -71 39.5 -123.5t100.5 -67.5l-179 -69z" />
    <glyph glyph-name="uniFE8E" unicode="&#x627;" horiz-adv-x="581" arabic-form="final" 
d="M581 60h-53q-74 0 -135.5 36t-97 98t-35.5 135v1084h-59v-1087q0 -89 43.5 -163.5t118.5 -118.5t165 -44h53v60z" />
    <glyph glyph-name="uniFE90" unicode="&#x628;" horiz-adv-x="1906" arabic-form="final" 
d="M1459 56q81 56 116 147q36 -91 116.5 -147t181.5 -56h33v60h-33q-73 0 -134.5 36t-98 98t-36.5 135v281h-58v-281q0 -73 -36 -135t-98 -98t-135 -36h-778q-74 0 -135.5 36t-97.5 98t-36 135v303h-59v-306q0 -89 44 -163.5t119.5 -118.5t164.5 -44h778q101 0 182 56z
M937.5 -434.5q-20.5 20.5 -49.5 20.5t-49.5 -20.5t-20.5 -49.5t20.5 -49.5t49.5 -20.5t49.5 20.5t20.5 49.5t-20.5 49.5z" />
    <glyph glyph-name="uniFE91" unicode="&#x628;" horiz-adv-x="716" arabic-form="initial" 
d="M-53 43.5q-15 -13.5 0 -27t53 -16.5h218q89 0 164 44t119 118.5t44 163.5v306h-59v-303q0 -73 -36 -135t-97.5 -98t-134.5 -36h-218q-38 -3 -53 -16.5zM247.5 -434.5q-20.5 20.5 -49.5 20.5t-49.5 -20.5t-20.5 -49.5t20.5 -49.5t49.5 -20.5t49.5 20.5t20.5 49.5
t-20.5 49.5z" />
    <glyph glyph-name="uniFE92" unicode="&#x628;" horiz-adv-x="846" arabic-form="medial" 
d="M-53 43.5q-15 -13.5 0 -27t53 -16.5h218q101 0 181.5 56t116.5 147q35 -91 115.5 -147t182.5 -56h32v60h-32q-73 0 -135 36t-98 98t-36 135v281h-59v-281q0 -73 -36 -135t-97.5 -98t-134.5 -36h-218q-38 -3 -53 -16.5zM247.5 -434.5q-20.5 20.5 -49.5 20.5t-49.5 -20.5
t-20.5 -49.5t20.5 -49.5t49.5 -20.5t49.5 20.5t20.5 49.5t-20.5 49.5z" />
    <glyph glyph-name="uniFE94" unicode="&#x629;" horiz-adv-x="1175" arabic-form="final" 
d="M980 60q78 -59 176 -60h19v60h-19q-89 1 -156 59t-80 146l-109 745l-58 -7l23 -160q-216 12 -357.5 -48.5t-205.5 -177t-56 -271.5q6 -110 75.5 -180.5t179 -90.5t232.5 14.5t230 123.5q28 -94 106 -153zM860 271q-148 -120 -297.5 -140t-243.5 42.5t-103 175.5
q-8 143 51.5 245t189.5 153t327 38zM492.5 1366.5q-20.5 20.5 -49.5 20.5t-49.5 -20.5t-20.5 -49.5t20.5 -49.5t49.5 -20.5t49.5 20.5t20.5 49.5t-20.5 49.5zM792.5 1366.5q-20.5 20.5 -49.5 20.5t-49.5 -20.5t-20.5 -49.5t20.5 -49.5t49.5 -20.5t49.5 20.5t20.5 49.5
t-20.5 49.5z" />
    <glyph glyph-name="uniFE96" unicode="&#x62a;" horiz-adv-x="1906" arabic-form="final" 
d="M1459 56q81 56 116 147q36 -91 116.5 -147t181.5 -56h33v60h-33q-73 0 -134.5 36t-98 98t-36.5 135v281h-58v-281q0 -73 -36 -135t-98 -98t-135 -36h-778q-74 0 -135.5 36t-97.5 98t-36 135v303h-59v-306q0 -89 44 -163.5t119.5 -118.5t164.5 -44h778q101 0 182 56z
M787.5 925.5q-20.5 20.5 -49.5 20.5t-49.5 -20.5t-20.5 -49.5t20.5 -49.5t49.5 -20.5t49.5 20.5t20.5 49.5t-20.5 49.5zM1087.5 925.5q-20.5 20.5 -49.5 20.5t-49.5 -20.5t-20.5 -49.5t20.5 -49.5t49.5 -20.5t49.5 20.5t20.5 49.5t-20.5 49.5z" />
    <glyph glyph-name="uniFE97" unicode="&#x62a;" horiz-adv-x="814" arabic-form="initial" 
d="M-53 43.5q-15 -13.5 0 -27t53 -16.5h315q89 0 164.5 44t119.5 118.5t44 163.5v306h-59v-303q0 -73 -36 -135t-97.5 -98t-135.5 -36h-315q-38 -3 -53 -16.5zM290.5 1072.5q-20.5 20.5 -49.5 20.5t-49.5 -20.5t-20.5 -49.5t20.5 -49.5t49.5 -20.5t49.5 20.5t20.5 49.5
t-20.5 49.5zM590.5 1072.5q-20.5 20.5 -49.5 20.5t-49.5 -20.5t-20.5 -49.5t20.5 -49.5t49.5 -20.5t49.5 20.5t20.5 49.5t-20.5 49.5z" />
    <glyph glyph-name="uniFE98" unicode="&#x62a;" horiz-adv-x="944" arabic-form="medial" 
d="M-53 43.5q-15 -13.5 0 -27t53 -16.5h315q101 0 182 56.5t116 146.5q36 -90 116.5 -146.5t181.5 -56.5h33v60h-33q-73 0 -134.5 36t-97.5 98t-36 135v281h-59v-281q0 -73 -36 -135t-97.5 -98t-135.5 -36h-315q-38 -3 -53 -16.5zM290.5 1051.5q-20.5 20.5 -49.5 20.5
t-49.5 -20.5t-20.5 -49.5t20.5 -49.5t49.5 -20.5t49.5 20.5t20.5 49.5t-20.5 49.5zM590.5 1051.5q-20.5 20.5 -49.5 20.5t-49.5 -20.5t-20.5 -49.5t20.5 -49.5t49.5 -20.5t49.5 20.5t20.5 49.5t-20.5 49.5z" />
    <glyph glyph-name="uniFE9A" unicode="&#x62b;" horiz-adv-x="1906" arabic-form="final" 
d="M1459 56q81 56 116 147q36 -91 116.5 -147t181.5 -56h33v60h-33q-73 0 -134.5 36t-98 98t-36.5 135v281h-58v-281q0 -73 -36 -135t-98 -98t-135 -36h-778q-74 0 -135.5 36t-97.5 98t-36 135v303h-59v-306q0 -89 44 -163.5t119.5 -118.5t164.5 -44h778q101 0 182 56z
M787.5 971.5q-20.5 20.5 -49.5 20.5t-49.5 -20.5t-20.5 -49.5t20.5 -49.5t49.5 -20.5t49.5 20.5t20.5 49.5t-20.5 49.5zM1087.5 971.5q-20.5 20.5 -49.5 20.5t-49.5 -20.5t-20.5 -49.5t20.5 -49.5t49.5 -20.5t49.5 20.5t20.5 49.5t-20.5 49.5zM937.5 1251.5
q-20.5 20.5 -49.5 20.5t-49.5 -20.5t-20.5 -49.5t20.5 -49.5t49.5 -20.5t49.5 20.5t20.5 49.5t-20.5 49.5z" />
    <glyph glyph-name="uniFE9B" unicode="&#x62b;" horiz-adv-x="814" arabic-form="initial" 
d="M-53 43.5q-15 -13.5 0 -27t53 -16.5h315q89 0 164.5 44t119.5 118.5t44 163.5v306h-59v-303q0 -73 -36 -135t-97.5 -98t-135.5 -36h-315q-38 -3 -53 -16.5zM280.5 1072.5q-20.5 20.5 -49.5 20.5t-49.5 -20.5t-20.5 -49.5t20.5 -49.5t49.5 -20.5t49.5 20.5t20.5 49.5
t-20.5 49.5zM580.5 1072.5q-20.5 20.5 -49.5 20.5t-49.5 -20.5t-20.5 -49.5t20.5 -49.5t49.5 -20.5t49.5 20.5t20.5 49.5t-20.5 49.5zM430.5 1352.5q-20.5 20.5 -49.5 20.5t-49.5 -20.5t-20.5 -49.5t20.5 -49.5t49.5 -20.5t49.5 20.5t20.5 49.5t-20.5 49.5z" />
    <glyph glyph-name="uniFE9C" unicode="&#x62b;" horiz-adv-x="944" arabic-form="medial" 
d="M-53 43.5q-15 -13.5 0 -27t53 -16.5h315q101 0 182 56.5t116 146.5q36 -90 116.5 -146.5t181.5 -56.5h33v60h-33q-73 0 -134.5 36t-97.5 98t-36 135v281h-59v-281q0 -73 -36 -135t-97.5 -98t-135.5 -36h-315q-38 -3 -53 -16.5zM280.5 1051.5q-20.5 20.5 -49.5 20.5
t-49.5 -20.5t-20.5 -49.5t20.5 -49.5t49.5 -20.5t49.5 20.5t20.5 49.5t-20.5 49.5zM580.5 1051.5q-20.5 20.5 -49.5 20.5t-49.5 -20.5t-20.5 -49.5t20.5 -49.5t49.5 -20.5t49.5 20.5t20.5 49.5t-20.5 49.5zM430.5 1331.5q-20.5 20.5 -49.5 20.5t-49.5 -20.5t-20.5 -49.5
t20.5 -49.5t49.5 -20.5t49.5 20.5t20.5 49.5t-20.5 49.5z" />
    <glyph glyph-name="uniFE9E" unicode="&#x62c;" horiz-adv-x="1398" arabic-form="final" 
d="M1236 556l3 52l-228.5 132.5t-356.5 205.5q-77 44 -159.5 36t-151 -65.5t-103.5 -155.5l-9 -22l55 -22l9 23q29 83 84.5 130.5t121.5 53.5t127 -29q412 -238 541 -311l-750 -357q-118 -53 -188 -152.5t-70 -221.5q0 -110 53.5 -202.5t146 -147t202.5 -54.5h614v60h-614
q-107 0 -195 60.5t-126 159.5q-33 87 -18 175t72 159t145 111l580 279l53 -263q20 -104 101.5 -147t162.5 -43h60v60h-60q-68 0 -131 31.5t-80 117.5l-55 268zM836.5 -48.5q-20.5 20.5 -49.5 20.5t-49.5 -20.5t-20.5 -49.5t20.5 -49.5t49.5 -20.5t49.5 20.5t20.5 49.5
t-20.5 49.5z" />
    <glyph glyph-name="uniFE9F" unicode="&#x62c;" horiz-adv-x="1316" arabic-form="initial" 
d="M-53 43.5q-15 -13.5 0 -27t53 -16.5h218q183 0 369 57t323 125t269 145q62 36 69 37l-3 52q-22 0 -143.5 67t-333.5 190q-98 57 -139 80q-77 44 -160 36t-151.5 -65.5t-103.5 -155.5l-8 -22l55 -21l8 22q29 83 84.5 130.5t122 53t126.5 -28.5q199 -115 349 -198t231 -118
q-17 -9 -64 -34q-141 -75 -271 -135t-298.5 -108.5t-330.5 -48.5h-218q-38 -3 -53 -16.5zM608.5 -433.5q-20.5 20.5 -49.5 20.5t-49.5 -20.5t-20.5 -49.5t20.5 -49.5t49.5 -20.5t49.5 20.5t20.5 49.5t-20.5 49.5z" />
    <glyph glyph-name="uniFEA0" unicode="&#x62c;" horiz-adv-x="1387" arabic-form="medial" 
d="M-53 43.5q-15 -13.5 0 -27t53 -16.5h218q330 0 744 208l151 -130q92 -78 207 -78h97v60h-97q-93 0 -170 61l-135 114q68 36 164 92q62 36 69 37l-3 52q-22 0 -143.5 67t-333.5 190q-98 57 -139 80q-77 44 -160 36t-151.5 -65.5t-103.5 -155.5l-8 -22l55 -21l8 22
q29 83 84.5 130.5t122 53t126.5 -28.5q199 -115 349 -198t231 -118q-17 -9 -64 -34q-141 -75 -271 -135t-298.5 -108.5t-330.5 -48.5h-218q-38 -3 -53 -16.5zM608.5 -433.5q-20.5 20.5 -49.5 20.5t-49.5 -20.5t-20.5 -49.5t20.5 -49.5t49.5 -20.5t49.5 20.5t20.5 49.5
t-20.5 49.5z" />
    <glyph glyph-name="uniFEA2" unicode="&#x62d;" horiz-adv-x="1398" arabic-form="final" 
d="M1266 553l3 55q-17 0 -153 75.5t-363 206.5q-69 39 -99 56q-77 44 -159.5 36t-151 -65.5t-103.5 -155.5l-9 -22l55 -22l9 23q29 83 84.5 130.5t121.5 53.5t127 -29q23 -14 76 -45q175 -101 296 -168t199 -98l-780 -357q-118 -53 -188 -152.5t-70 -221.5
q0 -110 53.5 -202.5t146 -147t202.5 -54.5h614v60h-614q-107 0 -195 60.5t-126 159.5q-33 87 -18 175t72 159t145 111l582 267l51 -251q20 -104 101.5 -147t162.5 -43h50v60h-50q-68 0 -131 31.5t-80 117.5l-52 256z" />
    <glyph glyph-name="uniFEA3" unicode="&#x62d;" horiz-adv-x="1316" arabic-form="initial" 
d="M-53 43.5q-15 -13.5 0 -27t53 -16.5h218q183 0 369 57t323 125t269 145q62 36 69 37l-3 52q-22 0 -143.5 67t-333.5 190q-98 57 -139 80q-77 44 -160 36t-151.5 -65.5t-103.5 -155.5l-8 -22l55 -21l8 22q29 83 84.5 130.5t122 53t126.5 -28.5q199 -115 349 -198t231 -118
q-17 -9 -64 -34q-141 -75 -271 -135t-298.5 -108.5t-330.5 -48.5h-218q-38 -3 -53 -16.5z" />
    <glyph glyph-name="uniFEA4" unicode="&#x62d;" horiz-adv-x="1417" arabic-form="medial" 
d="M-53 43.5q-15 -13.5 0 -27t53 -16.5h218q330 0 744 208l151 -130q92 -78 207 -78h97v60h-97q-93 0 -170 61l-135 114q68 36 164 92q62 36 69 37l-3 52q-22 0 -143.5 67t-333.5 190q-98 57 -139 80q-77 44 -160 36t-151.5 -65.5t-103.5 -155.5l-8 -22l55 -21l8 22
q29 83 84.5 130.5t122 53t126.5 -28.5q199 -115 349 -198t231 -118q-17 -9 -64 -34q-141 -75 -271 -135t-298.5 -108.5t-330.5 -48.5h-218q-38 -3 -53 -16.5z" />
    <glyph glyph-name="uniFEA6" unicode="&#x62e;" horiz-adv-x="1398" arabic-form="final" 
d="M1266 553l3 55q-17 0 -153 75.5t-363 206.5q-69 39 -99 56q-77 44 -159.5 36t-151 -65.5t-103.5 -155.5l-9 -22l55 -22l9 23q29 83 84.5 130.5t121.5 53.5t127 -29q23 -14 76 -45q175 -101 296 -168t199 -98l-780 -357q-118 -53 -188 -152.5t-70 -221.5
q0 -110 53.5 -202.5t146 -147t202.5 -54.5h614v60h-614q-107 0 -195 60.5t-126 159.5q-33 87 -18 175t72 159t145 111l582 267l51 -251q20 -104 101.5 -147t162.5 -43h50v60h-50q-68 0 -131 31.5t-80 117.5l-52 256zM640.5 1450.5q-20.5 20.5 -49.5 20.5t-49.5 -20.5
t-20.5 -49.5t20.5 -49.5t49.5 -20.5t49.5 20.5t20.5 49.5t-20.5 49.5z" />
    <glyph glyph-name="uniFEA7" unicode="&#x62e;" horiz-adv-x="1316" arabic-form="initial" 
d="M-53 43.5q-15 -13.5 0 -27t53 -16.5h218q183 0 369 57t323 125t269 145q62 36 69 37l-3 52q-22 0 -143.5 67t-333.5 190q-98 57 -139 80q-77 44 -160 36t-151.5 -65.5t-103.5 -155.5l-8 -22l55 -21l8 22q29 83 84.5 130.5t122 53t126.5 -28.5q199 -115 349 -198t231 -118
q-17 -9 -64 -34q-141 -75 -271 -135t-298.5 -108.5t-330.5 -48.5h-218q-38 -3 -53 -16.5zM614.5 1257.5q-20.5 20.5 -49.5 20.5t-49.5 -20.5t-20.5 -49.5t20.5 -49.5t49.5 -20.5t49.5 20.5t20.5 49.5t-20.5 49.5z" />
    <glyph glyph-name="uniFEA8" unicode="&#x62e;" horiz-adv-x="1387" arabic-form="medial" 
d="M-53 43.5q-15 -13.5 0 -27t53 -16.5h218q330 0 744 208l151 -130q92 -78 207 -78h97v60h-97q-93 0 -170 61l-135 114q68 36 164 92q62 36 69 37l-3 52q-22 0 -143.5 67t-333.5 190q-98 57 -139 80q-77 44 -160 36t-151.5 -65.5t-103.5 -155.5l-8 -22l55 -21l8 22
q29 83 84.5 130.5t122 53t126.5 -28.5q199 -115 349 -198t231 -118q-17 -9 -64 -34q-141 -75 -271 -135t-298.5 -108.5t-330.5 -48.5h-218q-38 -3 -53 -16.5zM614.5 1257.5q-20.5 20.5 -49.5 20.5t-49.5 -20.5t-20.5 -49.5t20.5 -49.5t49.5 -20.5t49.5 20.5t20.5 49.5
t-20.5 49.5z" />
    <glyph glyph-name="uniFEAA" unicode="&#x62f;" horiz-adv-x="1175" arabic-form="final" 
d="M578 0q70 0 128 32t94 86t42 118l47 -85q39 -70 108 -110.5t150 -40.5h28v60h-28q-67 0 -123.5 33.5t-87.5 91.5l-388 712l-52 -28l273 -501q36 -67 21.5 -139.5t-70.5 -121t-135 -48.5h-492v-59h485z" />
    <glyph glyph-name="uniFEAC" unicode="&#x630;" horiz-adv-x="1145" arabic-form="final" 
d="M578 0q70 0 128 32t94 86t42 118l47 -85q39 -70 108 -110.5t150 -40.5h28v60h-28q-67 0 -123.5 33.5t-87.5 91.5l-388 712l-52 -28l273 -501q36 -67 21.5 -139.5t-70.5 -121t-135 -48.5h-492v-59h485zM585.5 1272.5q-20.5 20.5 -49.5 20.5t-49.5 -20.5t-20.5 -49.5
t20.5 -49.5t49.5 -20.5t49.5 20.5t20.5 49.5t-20.5 49.5z" />
    <glyph glyph-name="uniFEAE" unicode="&#x631;" horiz-adv-x="897" arabic-form="final" 
d="M684.5 55q87.5 -55 193.5 -55h19v60h-19q-89 0 -164.5 44t-119.5 119.5t-44 164.5v222h-59v-633q0 -122 -60.5 -230t-163.5 -173t-223 -65h-45v-60h45q136 0 252.5 72.5t185 193.5t68.5 258v228q47 -91 134.5 -146z" />
    <glyph glyph-name="uniFEB0" unicode="&#x632;" horiz-adv-x="897" arabic-form="final" 
d="M684.5 55q87.5 -55 193.5 -55h19v60h-19q-89 0 -164.5 44t-119.5 119.5t-44 164.5v222h-59v-633q0 -122 -60.5 -230t-163.5 -173t-223 -65h-45v-60h45q136 0 252.5 72.5t185 193.5t68.5 258v228q47 -91 134.5 -146zM570.5 1051.5q-20.5 20.5 -49.5 20.5t-49.5 -20.5
t-20.5 -49.5t20.5 -49.5t49.5 -20.5t49.5 20.5t20.5 49.5t-20.5 49.5z" />
    <glyph glyph-name="uniFEB2" unicode="&#x633;" horiz-adv-x="2785" arabic-form="final" 
d="M2785 60h-35q-74 0 -135.5 36t-97.5 98t-36 135v281h-59v-281q0 -74 -31.5 -135.5t-88 -97.5t-129.5 -36h-30q-73 0 -129.5 36t-88 97.5t-31.5 135.5v281h-59v-281q0 -74 -31.5 -135.5t-88.5 -97.5t-129 -36h-30q-64 0 -121.5 36.5t-92.5 98t-35 134.5v281h-59v-633
q0 -126 -55.5 -233t-159.5 -171t-243 -64h-102q-139 0 -243 64t-159.5 171t-55.5 233v424h-59v-427q0 -141 63.5 -261t181 -192t272.5 -72h102q154 0 271 71t180.5 190.5t64.5 259.5v185q39 -70 106.5 -112.5t143.5 -42.5h30q98 0 171.5 54t106.5 143q34 -89 107.5 -143
t171.5 -54h30q99 0 173 55t107 145q36 -89 116.5 -144.5t180.5 -55.5h35v60z" />
    <glyph glyph-name="uniFEB3" unicode="&#x633;" horiz-adv-x="1708" arabic-form="initial" 
d="M-53 43.5q-15 -13.5 0 -27t53 -16.5h35q101 0 182 56t116 147q35 -90 111.5 -146.5t167.5 -56.5h30q97 0 171 54t107 143q34 -89 107.5 -143t171.5 -54h30q88 0 158.5 43.5t110 118.5t39.5 165v305h-59v-303q0 -74 -31.5 -135.5t-88.5 -97.5t-129 -36h-30
q-73 0 -129.5 36t-88 97.5t-31.5 135.5v281h-59v-281q0 -74 -31.5 -135.5t-88.5 -97.5t-129 -36h-30q-65 0 -122.5 36.5t-92.5 98t-35 134.5v281h-58v-281q0 -73 -36 -135t-98 -98t-135 -36h-35q-38 -3 -53 -16.5z" />
    <glyph glyph-name="uniFEB4" unicode="&#x633;" horiz-adv-x="1841" arabic-form="medial" 
d="M-53 43.5q-15 -13.5 0 -27t53 -16.5h35q101 0 182 56t116 147q35 -90 111.5 -146.5t167.5 -56.5h30q97 0 171 54t107 143q34 -89 107.5 -143t171.5 -54h30q99 0 173 55t106 145q36 -89 117 -144.5t180 -55.5h36v60h-36q-73 0 -134.5 36t-97.5 98t-36 135v281h-59v-281
q0 -74 -31.5 -135.5t-88.5 -97.5t-129 -36h-30q-73 0 -129.5 36t-88 97.5t-31.5 135.5v281h-59v-281q0 -74 -31.5 -135.5t-88.5 -97.5t-129 -36h-30q-65 0 -122.5 36.5t-92.5 98t-35 134.5v281h-58v-281q0 -73 -36 -135t-98 -98t-135 -36h-35q-38 -3 -53 -16.5z" />
    <glyph glyph-name="uniFEB6" unicode="&#x634;" horiz-adv-x="2785" arabic-form="final" 
d="M2785 60h-35q-74 0 -135.5 36t-97.5 98t-36 135v281h-59v-281q0 -74 -31.5 -135.5t-88 -97.5t-129.5 -36h-30q-73 0 -129.5 36t-88 97.5t-31.5 135.5v281h-59v-281q0 -74 -31.5 -135.5t-88.5 -97.5t-129 -36h-30q-64 0 -121.5 36.5t-92.5 98t-35 134.5v281h-59v-633
q0 -126 -55.5 -233t-159.5 -171t-243 -64h-102q-139 0 -243 64t-159.5 171t-55.5 233v424h-59v-427q0 -141 63.5 -261t181 -192t272.5 -72h102q154 0 271 71t180.5 190.5t64.5 259.5v185q39 -70 106.5 -112.5t143.5 -42.5h30q98 0 171.5 54t106.5 143q34 -89 107.5 -143
t171.5 -54h30q99 0 173 55t107 145q36 -89 116.5 -144.5t180.5 -55.5h35v60zM1764.5 1051.5q-20.5 20.5 -49.5 20.5t-49.5 -20.5t-20.5 -49.5t20.5 -49.5t49.5 -20.5t49.5 20.5t20.5 49.5t-20.5 49.5zM2064.5 1051.5q-20.5 20.5 -49.5 20.5t-49.5 -20.5t-20.5 -49.5
t20.5 -49.5t49.5 -20.5t49.5 20.5t20.5 49.5t-20.5 49.5zM1914.5 1331.5q-20.5 20.5 -49.5 20.5t-49.5 -20.5t-20.5 -49.5t20.5 -49.5t49.5 -20.5t49.5 20.5t20.5 49.5t-20.5 49.5z" />
    <glyph glyph-name="uniFEB7" unicode="&#x634;" horiz-adv-x="1708" arabic-form="initial" 
d="M-53 43.5q-15 -13.5 0 -27t53 -16.5h35q101 0 182 56t116 147q35 -90 111.5 -146.5t167.5 -56.5h30q97 0 171 54t107 143q34 -89 107.5 -143t171.5 -54h30q88 0 158.5 43.5t110 118.5t39.5 165v305h-59v-303q0 -74 -31.5 -135.5t-88.5 -97.5t-129 -36h-30
q-73 0 -129.5 36t-88 97.5t-31.5 135.5v281h-59v-281q0 -74 -31.5 -135.5t-88.5 -97.5t-129 -36h-30q-65 0 -122.5 36.5t-92.5 98t-35 134.5v281h-58v-281q0 -73 -36 -135t-98 -98t-135 -36h-35q-38 -3 -53 -16.5zM819.5 1051.5q-20.5 20.5 -49.5 20.5t-49.5 -20.5
t-20.5 -49.5t20.5 -49.5t49.5 -20.5t49.5 20.5t20.5 49.5t-20.5 49.5zM1119.5 1051.5q-20.5 20.5 -49.5 20.5t-49.5 -20.5t-20.5 -49.5t20.5 -49.5t49.5 -20.5t49.5 20.5t20.5 49.5t-20.5 49.5zM969.5 1331.5q-20.5 20.5 -49.5 20.5t-49.5 -20.5t-20.5 -49.5t20.5 -49.5
t49.5 -20.5t49.5 20.5t20.5 49.5t-20.5 49.5z" />
    <glyph glyph-name="uniFEB8" unicode="&#x634;" horiz-adv-x="1841" arabic-form="medial" 
d="M-53 43.5q-15 -13.5 0 -27t53 -16.5h35q101 0 182 56t116 147q35 -90 111.5 -146.5t167.5 -56.5h30q97 0 171 54t107 143q34 -89 107.5 -143t171.5 -54h30q99 0 173 55t106 145q36 -89 117 -144.5t180 -55.5h36v60h-36q-73 0 -134.5 36t-97.5 98t-36 135v281h-59v-281
q0 -74 -31.5 -135.5t-88.5 -97.5t-129 -36h-30q-73 0 -129.5 36t-88 97.5t-31.5 135.5v281h-59v-281q0 -74 -31.5 -135.5t-88.5 -97.5t-129 -36h-30q-65 0 -122.5 36.5t-92.5 98t-35 134.5v281h-58v-281q0 -73 -36 -135t-98 -98t-135 -36h-35q-38 -3 -53 -16.5z
M819.5 1051.5q-20.5 20.5 -49.5 20.5t-49.5 -20.5t-20.5 -49.5t20.5 -49.5t49.5 -20.5t49.5 20.5t20.5 49.5t-20.5 49.5zM1119.5 1051.5q-20.5 20.5 -49.5 20.5t-49.5 -20.5t-20.5 -49.5t20.5 -49.5t49.5 -20.5t49.5 20.5t20.5 49.5t-20.5 49.5zM969.5 1331.5
q-20.5 20.5 -49.5 20.5t-49.5 -20.5t-20.5 -49.5t20.5 -49.5t49.5 -20.5t49.5 20.5t20.5 49.5t-20.5 49.5z" />
    <glyph glyph-name="uniFEBA" unicode="&#x635;" horiz-adv-x="2825" arabic-form="final" 
d="M2326 40q86 40 142 110q54 -45 99.5 -75.5t108.5 -52.5t139 -22h10v60h-11q-67 0 -123 19.5t-97.5 47t-94.5 70.5q48 83 48 184q0 108 -46 196t-137.5 138.5t-223.5 46.5q-166 -6 -292.5 -150.5t-193 -293.5t-98.5 -253q0 -2 -1 -3q-68 4 -125 41t-90 96t-33 128v247h-59
v-597q0 -126 -55.5 -233t-159.5 -171t-243 -64h-102q-139 0 -243 64t-159.5 171t-55.5 233v424h-59v-427q0 -141 63.5 -261t181 -192t272.5 -72h102q154 0 271.5 71.5t181 191.5t63.5 260l1 186q42 -72 115.5 -115t159.5 -43h553q105 0 191 40zM1712 300.5
q63 138.5 175.5 268t255.5 134.5q112 5 189.5 -36.5t116.5 -116t39 -169.5q0 -93 -46 -166t-126.5 -114t-180.5 -41h-519q33 102 96 240.5z" />
    <glyph glyph-name="uniFEBB" unicode="&#x635;" horiz-adv-x="1755" arabic-form="initial" 
d="M764 300.5q63 138.5 176 268t255 134.5q112 5 190 -36.5t116.5 -116t38.5 -169.5q0 -93 -45.5 -166t-126 -114t-181.5 -41h-519q33 102 96 240.5zM-53 43.5q-15 -13.5 0 -27t53 -16.5h32q101 0 181.5 56t116.5 147q35 -91 115.5 -147t182.5 -56h559q118 0 212 49t147 136
t53 196q0 108 -46 196t-137.5 138.5t-222.5 46.5q-167 -6 -293.5 -150.5t-192.5 -293.5t-98 -253q-1 -2 -1 -3q-69 4 -126 41t-90 96t-33 128v283h-59v-281q0 -73 -36 -135t-97.5 -98t-134.5 -36h-32q-38 -3 -53 -16.5z" />
    <glyph glyph-name="uniFEBC" unicode="&#x635;" horiz-adv-x="1878" arabic-form="medial" 
d="M764 300.5q63 138.5 176 268t255 134.5q112 5 190 -36.5t116.5 -116t38.5 -169.5q0 -93 -45.5 -166t-126 -114t-181.5 -41h-519q33 102 96 240.5zM-53 43.5q-15 -13.5 0 -27t53 -16.5h32q101 0 181.5 56t116.5 147q35 -91 115.5 -147t182.5 -56h559q105 0 191.5 40
t141.5 110q56 -46 101 -76t107.5 -52t138.5 -22h11v60h-11q-67 0 -123.5 19.5t-98 47t-94.5 70.5q48 83 48 184q0 108 -46 196t-137.5 138.5t-222.5 46.5q-167 -6 -293.5 -150.5t-192.5 -293.5t-98 -253q-1 -2 -1 -3q-69 4 -126 41t-90 96t-33 128v283h-59v-281
q0 -73 -36 -135t-97.5 -98t-134.5 -36h-32q-38 -3 -53 -16.5z" />
    <glyph glyph-name="uniFEBE" unicode="&#x636;" horiz-adv-x="2826" arabic-form="final" 
d="M2326 40q86 40 142 110q54 -45 99.5 -75.5t108.5 -52.5t139 -22h10v60h-11q-67 0 -123 19.5t-97.5 47t-94.5 70.5q48 83 48 184q0 108 -46 196t-137.5 138.5t-223.5 46.5q-166 -6 -292.5 -150.5t-193 -293.5t-98.5 -253q0 -2 -1 -3q-68 4 -125 41t-90 96t-33 128v247h-59
v-597q0 -126 -55.5 -233t-159.5 -171t-243 -64h-102q-139 0 -243 64t-159.5 171t-55.5 233v424h-59v-427q0 -141 63.5 -261t181 -192t272.5 -72h102q154 0 271.5 71.5t181 191.5t63.5 260l1 186q42 -72 115.5 -115t159.5 -43h553q105 0 191 40zM1712 300.5
q63 138.5 175.5 268t255.5 134.5q112 5 189.5 -36.5t116.5 -116t39 -169.5q0 -93 -46 -166t-126.5 -114t-180.5 -41h-519q33 102 96 240.5zM2096.5 1185.5q-20.5 20.5 -49.5 20.5t-49.5 -20.5t-20.5 -49.5t20.5 -49.5t49.5 -20.5t49.5 20.5t20.5 49.5t-20.5 49.5z" />
    <glyph glyph-name="uniFEBF" unicode="&#x636;" horiz-adv-x="1755" arabic-form="initial" 
d="M764 300.5q63 138.5 176 268t255 134.5q112 5 190 -36.5t116.5 -116t38.5 -169.5q0 -93 -45.5 -166t-126 -114t-181.5 -41h-519q33 102 96 240.5zM-53 43.5q-15 -13.5 0 -27t53 -16.5h32q101 0 181.5 56t116.5 147q35 -91 115.5 -147t182.5 -56h559q118 0 212 49t147 136
t53 196q0 108 -46 196t-137.5 138.5t-222.5 46.5q-167 -6 -293.5 -150.5t-192.5 -293.5t-98 -253q-1 -2 -1 -3q-69 4 -126 41t-90 96t-33 128v283h-59v-281q0 -73 -36 -135t-97.5 -98t-134.5 -36h-32q-38 -3 -53 -16.5zM1177.5 1185.5q-20.5 20.5 -49.5 20.5t-49.5 -20.5
t-20.5 -49.5t20.5 -49.5t49.5 -20.5t49.5 20.5t20.5 49.5t-20.5 49.5z" />
    <glyph glyph-name="uniFEC0" unicode="&#x636;" horiz-adv-x="1878" arabic-form="medial" 
d="M764 300.5q63 138.5 176 268t255 134.5q112 5 190 -36.5t116.5 -116t38.5 -169.5q0 -93 -45.5 -166t-126 -114t-181.5 -41h-519q33 102 96 240.5zM-53 43.5q-15 -13.5 0 -27t53 -16.5h32q101 0 181.5 56t116.5 147q35 -91 115.5 -147t182.5 -56h559q105 0 191.5 40
t141.5 110q56 -46 101 -76t107.5 -52t138.5 -22h11v60h-11q-67 0 -123.5 19.5t-98 47t-94.5 70.5q48 83 48 184q0 108 -46 196t-137.5 138.5t-222.5 46.5q-167 -6 -293.5 -150.5t-192.5 -293.5t-98 -253q-1 -2 -1 -3q-69 4 -126 41t-90 96t-33 128v283h-59v-281
q0 -73 -36 -135t-97.5 -98t-134.5 -36h-32q-38 -3 -53 -16.5zM1177.5 1185.5q-20.5 20.5 -49.5 20.5t-49.5 -20.5t-20.5 -49.5t20.5 -49.5t49.5 -20.5t49.5 20.5t20.5 49.5t-20.5 49.5z" />
    <glyph glyph-name="uniFEC2" unicode="&#x637;" horiz-adv-x="1638" arabic-form="final" 
d="M1638 60h-10q-96 0 -165 36t-149 101q48 83 48 184q0 108 -46 196.5t-137.5 139t-222.5 45.5q-152 -6 -271 -132t-206 -304l1 579v508h-58v-1204q-49 -128 -53 -149h-198v-60h779q104 0 190.5 39.5t140.5 109.5q57 -46 101.5 -75.5t107 -51.5t138.5 -22h10v60zM431 60
q33 102 96 240.5t176 268t255 134.5q112 5 189.5 -36.5t116.5 -116t39 -169.5q0 -93 -45.5 -166t-126 -114t-181.5 -41h-519z" />
    <glyph glyph-name="uniFEC3" unicode="&#x637;" horiz-adv-x="1448" arabic-form="initial" 
d="M615 630q-119 -126 -206 -305l1 580v508h-59v-1206q-48 -127 -51 -147h-300q-38 -3 -53 -16.5t0 -27t53 -16.5h880q118 0 212 49t147 136t53 196q0 108 -46 196.5t-137.5 139t-222.5 45.5v0q-152 -6 -271 -132zM1188 215q-46 -73 -126.5 -114t-181.5 -41h-519
q33 101 96 240t176 268.5t256 134.5q111 5 189 -36.5t117 -116t39 -169.5v0q0 -93 -46 -166z" />
    <glyph glyph-name="uniFEC4" unicode="&#x637;" horiz-adv-x="1567" arabic-form="medial" 
d="M1393 96q-69 36 -148 101q48 86 47 184q0 108 -45.5 196.5t-137.5 139t-223 45.5q-152 -6 -271 -132t-206 -305l1 580v508h-58v-1206q-49 -127 -52 -147h-300q-38 -3 -53 -16.5t0 -27t53 -16.5h880q105 0 191 39.5t140 109.5q57 -46 101.5 -75.5t107 -51.5t137.5 -22h10
v60h-10q-95 0 -164 36zM1188 215q-46 -73 -126.5 -114t-181.5 -41h-519q33 101 96 240t176 268.5t256 134.5q111 5 189 -36.5t117 -116t39 -169.5q0 -93 -46 -166z" />
    <glyph glyph-name="uniFEC6" unicode="&#x638;" horiz-adv-x="1638" arabic-form="final" 
d="M1638 60h-10q-96 0 -165 36t-149 101q48 83 48 184q0 108 -46 196.5t-137.5 139t-222.5 45.5q-152 -6 -271 -132t-206 -304l1 579v508h-58v-1204q-49 -128 -53 -149h-198v-60h779q104 0 190.5 39.5t140.5 109.5q57 -46 101.5 -75.5t107 -51.5t138.5 -22h10v60zM431 60
q33 102 96 240.5t176 268t255 134.5q112 5 189.5 -36.5t116.5 -116t39 -169.5q0 -93 -45.5 -166t-126 -114t-181.5 -41h-519zM1016.5 1185.5q-20.5 20.5 -49.5 20.5t-49.5 -20.5t-20.5 -49.5t20.5 -49.5t49.5 -20.5t49.5 20.5t20.5 49.5t-20.5 49.5z" />
    <glyph glyph-name="uniFEC7" unicode="&#x638;" horiz-adv-x="1448" arabic-form="initial" 
d="M615 630q-119 -126 -206 -305l1 580v508h-59v-1206q-48 -127 -51 -147h-300q-38 -3 -53 -16.5t0 -27t53 -16.5h880q118 0 212 49t147 136t53 196q0 108 -46 196.5t-137.5 139t-222.5 45.5v0q-152 -6 -271 -132zM1188 215q-46 -73 -126.5 -114t-181.5 -41h-519
q33 101 96 240t176 268.5t256 134.5q111 5 189 -36.5t117 -116t39 -169.5v0q0 -93 -46 -166zM928.5 1185.5q-20.5 20.5 -49.5 20.5t-49.5 -20.5t-20.5 -49.5t20.5 -49.5t49.5 -20.5t49.5 20.5t20.5 49.5t-20.5 49.5z" />
    <glyph glyph-name="uniFEC8" unicode="&#x638;" horiz-adv-x="1567" arabic-form="medial" 
d="M1393 96q-69 36 -148 101q48 86 47 184q0 108 -45.5 196.5t-137.5 139t-223 45.5q-152 -6 -271 -132t-206 -305l1 580v508h-58v-1206q-49 -127 -52 -147h-300q-38 -3 -53 -16.5t0 -27t53 -16.5h880q105 0 191 39.5t140 109.5q57 -46 101.5 -75.5t107 -51.5t137.5 -22h10
v60h-10q-95 0 -164 36zM1188 215q-46 -73 -126.5 -114t-181.5 -41h-519q33 101 96 240t176 268.5t256 134.5q111 5 189 -36.5t117 -116t39 -169.5q0 -93 -46 -166zM928.5 1185.5q-20.5 20.5 -49.5 20.5t-49.5 -20.5t-20.5 -49.5t20.5 -49.5t49.5 -20.5t49.5 20.5t20.5 49.5
t-20.5 49.5z" />
    <glyph glyph-name="uniFECA" unicode="&#x639;" horiz-adv-x="1317" arabic-form="final" 
d="M999 -491h-388q-104 0 -194 45.5t-143.5 122.5t-53.5 166q0 116 78.5 195.5t253.5 157.5q38 16 78 37q2 -3 10 -14q57 -82 146.5 -150.5t238.5 -68.5h291v60h-292q-81 0 -139.5 22.5t-92 51.5t-66.5 68q-16 19 -23 25l366 427q45 53 40.5 119.5t-52 114t-118.5 47.5h-695
l-25 -51l379 -600q-229 -83 -333 -192t-104 -249q0 -105 61.5 -195.5t165 -144.5t223.5 -54h388v60zM937 875q46 0 78 -31.5t35.5 -76t-27.5 -80.5l-352 -413l-380 601h646z" />
    <glyph glyph-name="uniFECB" unicode="&#x639;" horiz-adv-x="1145" arabic-form="initial" 
d="M-53 43.5q-15 -13.5 0 -27t53 -16.5h974v60h-343q-93 0 -164.5 45.5t-109.5 121.5t-38 163q0 100 39.5 179t110.5 123t162 45q147 0 270 -89l10 64q-45 31 -115.5 57.5t-166.5 25.5q-107 -1 -191 -52.5t-131 -143.5t-47 -209q0 -104 50 -194t137 -136h-447
q-38 -3 -53 -16.5z" />
    <glyph glyph-name="uniFECC" unicode="&#x639;" horiz-adv-x="1295" arabic-form="medial" 
d="M915 677q46 0 78 -31.5t35.5 -76.5t-27.5 -81l-352 -413l-379 602h645zM-53 43.5q-15 -13.5 0 -27t53 -16.5h580q24 0 45.5 7.5t22.5 15.5q1 -8 22 -15.5t46 -7.5h579v60h-573q-9 0 -12 -1l338 396q45 53 40 120t-52.5 114.5t-118.5 47.5h-695l-25 -52l395 -626
q-3 1 -12 1h-580q-38 -3 -53 -16.5z" />
    <glyph glyph-name="uniFECE" unicode="&#x63a;" horiz-adv-x="1317" arabic-form="final" 
d="M999 -491h-388q-104 0 -194 45.5t-143.5 122.5t-53.5 166q0 116 78.5 195.5t253.5 157.5q38 16 78 37q2 -3 10 -14q57 -82 146.5 -150.5t238.5 -68.5h291v60h-292q-81 0 -139.5 22.5t-92 51.5t-66.5 68q-16 19 -23 25l366 427q45 53 40.5 119.5t-52 114t-118.5 47.5h-695
l-25 -51l379 -600q-229 -83 -333 -192t-104 -249q0 -105 61.5 -195.5t165 -144.5t223.5 -54h388v60zM937 875q46 0 78 -31.5t35.5 -76t-27.5 -80.5l-352 -413l-380 601h646zM722.5 1459.5q-20.5 20.5 -49.5 20.5t-49.5 -20.5t-20.5 -49.5t20.5 -49.5t49.5 -20.5t49.5 20.5
t20.5 49.5t-20.5 49.5z" />
    <glyph glyph-name="uniFECF" unicode="&#x63a;" horiz-adv-x="1135" arabic-form="initial" 
d="M-53 43.5q-15 -13.5 0 -27t53 -16.5h974v60h-343q-93 0 -164.5 45.5t-109.5 121.5t-38 163q0 100 39.5 179t110.5 123t162 45q147 0 270 -89l10 64q-45 31 -115.5 57.5t-166.5 25.5q-107 -1 -191 -52.5t-131 -143.5t-47 -209q0 -104 50 -194t137 -136h-447
q-38 -3 -53 -16.5zM661.5 1224.5q-20.5 20.5 -49.5 20.5t-49.5 -20.5t-20.5 -49.5t20.5 -49.5t49.5 -20.5t49.5 20.5t20.5 49.5t-20.5 49.5z" />
    <glyph glyph-name="uniFED0" unicode="&#x63a;" horiz-adv-x="1295" arabic-form="medial" 
d="M915 677q46 0 78 -31.5t35.5 -76.5t-27.5 -81l-352 -413l-379 602h645zM-53 43.5q-15 -13.5 0 -27t53 -16.5h580q24 0 45.5 7.5t22.5 15.5q1 -8 22 -15.5t46 -7.5h579v60h-573q-9 0 -12 -1l338 396q45 53 40 120t-52.5 114.5t-118.5 47.5h-695l-25 -52l395 -626
q-3 1 -12 1h-580q-38 -3 -53 -16.5zM707.5 1177.5q-20.5 20.5 -49.5 20.5t-49.5 -20.5t-20.5 -49.5t20.5 -49.5t49.5 -20.5t49.5 20.5t20.5 49.5t-20.5 49.5z" />
    <glyph glyph-name="uniFED2" unicode="&#x641;" horiz-adv-x="1854" arabic-form="final" 
d="M1443.5 710q68.5 -35 107.5 -96t39 -138q0 -158 -101.5 -261.5t-196.5 -152.5q-95 49 -197 152.5t-102 261.5q0 77 39.5 138t107.5 96t152 35q83 0 151.5 -35zM1224 0q24 0 45.5 7.5t22.5 15.5q1 -8 22 -15.5t46 -7.5h494v60h-463q100 65 179 169t79 247q0 92 -47 167
t-128.5 118t-181.5 43t-182 -43t-128.5 -118t-46.5 -167q0 -143 78.5 -247t179.5 -169h-694q-74 0 -135.5 36t-97.5 98t-36 135v303h-59v-306q0 -89 44 -163.5t119.5 -118.5t164.5 -44h725zM1341.5 1222.5q-20.5 20.5 -49.5 20.5t-49.5 -20.5t-20.5 -49.5t20.5 -49.5
t49.5 -20.5t49.5 20.5t20.5 49.5t-20.5 49.5z" />
    <glyph glyph-name="uniFED3" unicode="&#x641;" horiz-adv-x="1081" arabic-form="initial" 
d="M508 431q-87 0 -138 15.5t-78 58t-27 129.5q0 89 37 171t104 133t152 51q102 0 167.5 -55t95.5 -140t30 -180v-183h-343zM-53 43.5q-15 -13.5 0 -27t53 -16.5h541q99 0 184 44t134.5 118.5t49.5 163.5v288q0 126 -44.5 224.5t-124.5 153.5t-182 55q-100 0 -180.5 -58.5
t-125.5 -154t-45 -200.5q0 -101 34 -159t99.5 -81t167.5 -23h343v-45q0 -73 -42 -134t-113.5 -96.5t-154.5 -35.5h-541q-38 -3 -53 -16.5zM607.5 1423.5q-20.5 20.5 -49.5 20.5t-49.5 -20.5t-20.5 -49.5t20.5 -49.5t49.5 -20.5t49.5 20.5t20.5 49.5t-20.5 49.5z" />
    <glyph glyph-name="uniFED4" unicode="&#x641;" horiz-adv-x="1124" arabic-form="medial" 
d="M713.5 710q68.5 -35 107.5 -96t39 -138q0 -158 -101.5 -261.5t-196.5 -152.5q-95 49 -197 152.5t-102 261.5q0 77 39.5 138t108 96t151.5 35t151.5 -35zM-53 43.5q-15 -13.5 0 -27t53 -16.5h494q24 0 45.5 7.5t22.5 15.5q1 -8 22.5 -15.5t45.5 -7.5h494v60h-463
q100 65 179 169t79 247q0 92 -46.5 167t-128.5 118t-182 43t-181.5 -43t-128.5 -118t-47 -167q0 -143 78.5 -247t179.5 -169h-463q-38 -3 -53 -16.5zM611.5 1222.5q-20.5 20.5 -49.5 20.5t-49.5 -20.5t-20.5 -49.5t20.5 -49.5t49.5 -20.5t49.5 20.5t20.5 49.5t-20.5 49.5z
" />
    <glyph glyph-name="uniFED6" unicode="&#x642;" horiz-adv-x="1706" arabic-form="final" 
d="M1101 60q-140 0 -216 71.5t-76 201.5q0 98 36 174t102.5 118.5t153.5 42.5q102 0 168 -49.5t95.5 -125.5t29.5 -160v-273h-293zM1705 60h-252v273q0 117 -44 206t-124 138t-184 49q-102 0 -182 -50t-124.5 -139t-44.5 -204q0 -157 92 -245t259 -88h293
q0 -234 -138.5 -362.5t-388.5 -128.5h-179q-139 0 -243 64t-159.5 171t-55.5 233v424h-59v-427q0 -141 63.5 -261t181 -192t272.5 -72h179q273 0 426.5 144t158.5 407h253v60zM1008.5 1144.5q-20.5 20.5 -49.5 20.5t-49.5 -20.5t-20.5 -49.5t20.5 -49.5t49.5 -20.5
t49.5 20.5t20.5 49.5t-20.5 49.5zM1308.5 1144.5q-20.5 20.5 -49.5 20.5t-49.5 -20.5t-20.5 -49.5t20.5 -49.5t49.5 -20.5t49.5 20.5t20.5 49.5t-20.5 49.5z" />
    <glyph glyph-name="uniFED7" unicode="&#x642;" horiz-adv-x="1081" arabic-form="initial" 
d="M508 431q-87 0 -138 15.5t-78 58t-27 129.5q0 89 37 171t104 133t152 51q102 0 167.5 -55t95.5 -140t30 -180v-183h-343zM-53 43.5q-15 -13.5 0 -27t53 -16.5h541q99 0 184 44t134.5 118.5t49.5 163.5v288q0 126 -44.5 224.5t-124.5 153.5t-182 55q-100 0 -180.5 -58.5
t-125.5 -154t-45 -200.5q0 -101 34 -159t99.5 -81t167.5 -23h343v-45q0 -73 -42 -134t-113.5 -96.5t-154.5 -35.5h-541q-38 -3 -53 -16.5zM457.5 1423.5q-20.5 20.5 -49.5 20.5t-49.5 -20.5t-20.5 -49.5t20.5 -49.5t49.5 -20.5t49.5 20.5t20.5 49.5t-20.5 49.5z
M757.5 1423.5q-20.5 20.5 -49.5 20.5t-49.5 -20.5t-20.5 -49.5t20.5 -49.5t49.5 -20.5t49.5 20.5t20.5 49.5t-20.5 49.5z" />
    <glyph glyph-name="uniFED8" unicode="&#x642;" horiz-adv-x="1124" arabic-form="medial" 
d="M713.5 710q68.5 -35 107.5 -96t39 -138q0 -158 -101.5 -261.5t-196.5 -152.5q-95 49 -197 152.5t-102 261.5q0 77 39.5 138t108 96t151.5 35t151.5 -35zM-53 43.5q-15 -13.5 0 -27t53 -16.5h494q24 0 45.5 7.5t22.5 15.5q1 -8 22.5 -15.5t45.5 -7.5h494v60h-463
q100 65 179 169t79 247q0 92 -46.5 167t-128.5 118t-182 43t-181.5 -43t-128.5 -118t-47 -167q0 -143 78.5 -247t179.5 -169h-463q-38 -3 -53 -16.5zM461.5 1224.5q-20.5 20.5 -49.5 20.5t-49.5 -20.5t-20.5 -49.5t20.5 -49.5t49.5 -20.5t49.5 20.5t20.5 49.5t-20.5 49.5z
M761.5 1224.5q-20.5 20.5 -49.5 20.5t-49.5 -20.5t-20.5 -49.5t20.5 -49.5t49.5 -20.5t49.5 20.5t20.5 49.5t-20.5 49.5z" />
    <glyph glyph-name="uniFEDA" unicode="&#x643;" horiz-adv-x="1833" arabic-form="final" 
d="M1358.5 56q80.5 56 116.5 147q35 -91 115.5 -147t182.5 -56h60v60h-60q-73 0 -135 36t-98 98t-36 135v1084h-59v-1084q0 -73 -36 -135t-97.5 -98t-134.5 -36h-678q-74 0 -135.5 36t-97.5 98t-36 135v303h-59v-306q0 -89 44 -163.5t119.5 -118.5t164.5 -44h678
q101 0 181.5 56zM634 602l425 162l-18 46l-161 -61q-94 0 -135 48t-40 110q0 58 40.5 109.5t104.5 51.5q39 0 68 -10.5t61 -29.5q3 -2 5 -3l8 49q-62 43 -142 43q-57 0 -101 -30.5t-68.5 -79t-24.5 -100.5q0 -71 39.5 -123.5t100.5 -67.5l-179 -69z" />
    <glyph glyph-name="uniFEDB" unicode="&#x643;" horiz-adv-x="1138" arabic-form="initial" 
d="M-53 43.5q-15 -13.5 0 -27t53 -16.5h689q86 0 150.5 45.5t95 117.5t18.5 150t-70 139l-578 606l642 244l-21 56l-683 -261v-59l596 -624q62 -65 57.5 -149t-62.5 -144.5t-146 -60.5h-688q-38 -3 -53 -16.5z" />
    <glyph glyph-name="uniFEDC" unicode="&#x643;" horiz-adv-x="1367" arabic-form="medial" 
d="M-53 43.5q-15 -13.5 0 -27t53 -16.5h682q85 0 149.5 44.5t95 114.5t18.5 143l208 -219q39 -40 89.5 -61.5t105.5 -21.5h19v60h-19q-87 0 -153 65l-890 933l642 244l-21 56l-683 -261v-59l605 -633q55 -65 48.5 -146.5t-64.5 -140t-144 -58.5h-688q-38 -3 -53 -16.5z" />
    <glyph glyph-name="uniFEDE" unicode="&#x644;" horiz-adv-x="1608" arabic-form="final" 
d="M790 -551q154 0 271.5 71.5t181 191t64.5 259.5v185q41 -71 112.5 -114t156.5 -43h32v60h-32q-74 0 -135.5 36t-97.5 98t-36 135v1085h-59v-1436q0 -126 -55.5 -233t-159.5 -171t-243 -64h-102q-139 0 -243 64t-159.5 171t-55.5 233v424h-59v-427q0 -141 63.5 -261
t181 -192t272.5 -72h102z" />
    <glyph glyph-name="uniFEDF" unicode="&#x644;" horiz-adv-x="611" arabic-form="initial" 
d="M-53 43.5q-15 -13.5 0 -27t53 -16.5h83q89 0 164 44t119 119t44 164v1086h-59v-1084q0 -73 -36 -135t-97.5 -98t-134.5 -36h-83q-38 -3 -53 -16.5z" />
    <glyph glyph-name="uniFEE0" unicode="&#x644;" horiz-adv-x="711" arabic-form="medial" 
d="M-53 43.5q-15 -13.5 0 -27t53 -16.5h83q101 0 181.5 56t116.5 147q35 -91 115.5 -147t182.5 -56h32v60h-32q-74 0 -135.5 36t-97.5 98t-36 135v1084h-59v-1084q0 -73 -36 -135t-97.5 -98t-134.5 -36h-83q-38 -3 -53 -16.5z" />
    <glyph glyph-name="uniFEE2" unicode="&#x645;" horiz-adv-x="1666" arabic-form="final" 
d="M1666 60h-57q-73 0 -135 36t-98.5 97t-37.5 133q1 13 1 39q-3 182 -97.5 285t-259.5 103h-425q-105 0 -193.5 -52t-140.5 -140.5t-52 -192.5v-926h59v926q0 88 44 163.5t119 119.5t164 44h70q-1 -138 -1 -330q0 -115 45 -203t126 -136.5t185 -48.5q114 0 202.5 58.5
t124.5 167.5q36 -90 117.5 -146.5t182.5 -56.5h57v60zM1199.5 607q79.5 -87 81.5 -242q0 -94 -35 -169t-102.5 -118t-161.5 -43q-106 0 -173 51t-96 126.5t-29 152.5v330h298q138 -1 217.5 -88z" />
    <glyph glyph-name="uniFEE3" unicode="&#x645;" horiz-adv-x="1196" arabic-form="initial" 
d="M943 194q-40 -77 -108.5 -117.5t-151.5 -40.5q-106 0 -173 52.5t-96.5 130.5t-29.5 155q0 157 80.5 248t218.5 91q137 0 216.5 -91t81.5 -248v0q2 -103 -38 -180zM493.5 721q-80.5 -51 -124 -141t-43.5 -206q0 -14 1 -43q0 -1 1 -2q-4 -114 -80 -190t-191 -79h-58
q-37 -3 -51.5 -16.5t0 -27t51.5 -16.5h58q101 0 183.5 57.5t117.5 152.5q38 -108 124 -170.5t201 -62.5q99 0 181 47.5t130 137.5t46 212q-3 183 -97 289t-260 109v0q-109 0 -189.5 -51z" />
    <glyph glyph-name="uniFEE4" unicode="&#x645;" horiz-adv-x="1366" arabic-form="medial" 
d="M943 194.5q-40 -76.5 -108.5 -117.5t-151.5 -41q-106 0 -173 53t-96.5 130.5t-29.5 155.5q0 156 80.5 247t218.5 91q137 0 216.5 -91t81.5 -247v0q2 -104 -38 -180.5zM1174 96.5q-62 36.5 -98.5 98.5t-36.5 134q1 15 1 45q-3 183 -97 289t-260 109q-109 0 -189.5 -51
t-124 -141.5t-43.5 -205.5q0 -14 1 -43q0 -1 1 -2q-4 -114 -80 -190t-191 -79h-58q-37 -3 -51.5 -16.5t0 -27t51.5 -16.5h58q101 0 183.5 57.5t117.5 152.5q38 -108 124 -170.5t201 -62.5q112 0 200 60.5t126 169.5q36 -93 118 -150t183 -57h56v60h-56q-74 0 -136 36.5z" />
    <glyph glyph-name="uniFEE6" unicode="&#x646;" horiz-adv-x="1608" arabic-form="final" 
d="M790 -551q154 0 271.5 71.5t181 191t64.5 259.5v185q41 -72 112 -114.5t157 -42.5h32v60h-32q-74 0 -135.5 36t-97.5 98t-36 135v246h-59v-597q0 -126 -55.5 -233t-159.5 -171t-243 -64h-102q-139 0 -243 64t-159.5 171t-55.5 233v424h-59v-427q0 -141 63.5 -261
t181 -192t272.5 -72h102zM719.5 793.5q-20.5 20.5 -49.5 20.5t-49.5 -20.5t-20.5 -49.5t20.5 -49.5t49.5 -20.5t49.5 20.5t20.5 49.5t-20.5 49.5z" />
    <glyph glyph-name="uniFEE7" unicode="&#x646;" horiz-adv-x="716" arabic-form="initial" 
d="M-53 43.5q-15 -13.5 0 -27t53 -16.5h218q89 0 164 44t119 118.5t44 163.5v306h-59v-303q0 -73 -36 -135t-97.5 -98t-134.5 -36h-218q-38 -3 -53 -16.5zM401.5 1072.5q-20.5 20.5 -49.5 20.5t-49.5 -20.5t-20.5 -49.5t20.5 -49.5t49.5 -20.5t49.5 20.5t20.5 49.5
t-20.5 49.5z" />
    <glyph glyph-name="uniFEE8" unicode="&#x646;" horiz-adv-x="846" arabic-form="medial" 
d="M-53 43.5q-15 -13.5 0 -27t53 -16.5h218q101 0 181.5 56t116.5 147q35 -91 115.5 -147t182.5 -56h32v60h-32q-73 0 -135 36t-98 98t-36 135v281h-59v-281q0 -73 -36 -135t-97.5 -98t-134.5 -36h-218q-38 -3 -53 -16.5zM401.5 1032.5q-20.5 20.5 -49.5 20.5t-49.5 -20.5
t-20.5 -49.5t20.5 -49.5t49.5 -20.5t49.5 20.5t20.5 49.5t-20.5 49.5z" />
    <glyph glyph-name="uniFEEA" unicode="&#x647;" horiz-adv-x="1175" arabic-form="final" 
d="M980 60q78 -59 176 -60h19v60h-19q-89 1 -156 59t-80 146l-109 745l-58 -7l23 -160q-216 12 -357.5 -48.5t-205.5 -177t-56 -271.5q6 -110 75.5 -180.5t179 -90.5t232.5 14.5t230 123.5q28 -94 106 -153zM860 271q-148 -120 -297.5 -140t-243.5 42.5t-103 175.5
q-8 143 51.5 245t189.5 153t327 38z" />
    <glyph glyph-name="uniFEEB" unicode="&#x647;" horiz-adv-x="1555" arabic-form="initial" 
d="M713.5 710q68.5 -35 107.5 -96t39 -138q0 -158 -101.5 -261.5t-196.5 -152.5q-95 49 -197 152.5t-102 261.5q0 77 39.5 138t108 96t151.5 35t151.5 -35zM1131 0q78 0 141 40.5t97 107t29 142t-54 140.5l-356 468l-46 -35l355 -468q50 -65 42 -144.5t-65.5 -135.5
t-142.5 -56h-471q102 66 180.5 170t78.5 247q0 92 -46.5 167t-128.5 118t-182 43t-181.5 -43t-128.5 -118t-47 -167q0 -143 78.5 -247t179.5 -169h-463q-38 -3 -53 -16.5t0 -27t53 -16.5h494q24 0 45.5 7.5t22.5 15.5q1 -8 22.5 -15.5t45.5 -7.5h501z" />
    <glyph glyph-name="uniFEEC" unicode="&#x647;" horiz-adv-x="1235" arabic-form="medial" 
d="M265 374q0 160 75.5 249.5t222.5 88.5q146 0 221.5 -80.5t75.5 -216.5q-1 -160 -89.5 -258t-248.5 -98h-257v315zM-53 43.5q-15 -13.5 0 -27t53 -16.5h206q0 -155 42.5 -271.5t160 -190t330.5 -73.5h40l119 300q46 108 141.5 171.5t185.5 63.5h10v60h-10
q-73 0 -147.5 -32.5t-136 -94.5t-95.5 -147l-107 -262q-246 2 -360 112t-114 364h257q122 0 212 53t137.5 147t46.5 215q0 162 -93 259t-262 97q-170 0 -263.5 -107.5t-93.5 -289.5v-314h-206q-38 -3 -53 -16.5z" />
    <glyph glyph-name="uniFEEE" unicode="&#x648;" horiz-adv-x="1081" arabic-form="final" 
d="M524 60q-141 0 -217 71.5t-76 201.5q0 98 36.5 174t102.5 118.5t154 42.5q102 0 167.5 -49.5t95.5 -125.5t30 -160v-273h-293zM686 -366.5q-130 -124.5 -355 -124.5h-178v-60h178q163 0 284.5 62t189.5 185.5t69 303.5h207v60h-206v273q0 117 -44 206t-123.5 138
t-183.5 49q-102 0 -182 -50t-124.5 -139.5t-44.5 -203.5q0 -156 92.5 -244.5t258.5 -88.5h292q0 -242 -130 -366.5z" />
    <glyph glyph-name="uniFEF2" unicode="&#x64a;" horiz-adv-x="1646" arabic-form="final" 
d="M1646 60h-874v-59h430q54 -4 93.5 -55.5t38.5 -115.5q-1 -120 -72.5 -191.5t-175 -100.5t-213.5 -29h-185q-139 0 -243 64t-159.5 171t-55.5 233v424h-59l1 -427q0 -141 63 -261t180.5 -192t272.5 -72h185q159 0 278 51t181.5 138t60.5 192q-5 115 -83 170h336v60z
M682.5 -859.5q-20.5 20.5 -49.5 20.5t-49.5 -20.5t-20.5 -49.5t20.5 -49.5t49.5 -20.5t49.5 20.5t20.5 49.5t-20.5 49.5zM982.5 -859.5q-20.5 20.5 -49.5 20.5t-49.5 -20.5t-20.5 -49.5t20.5 -49.5t49.5 -20.5t49.5 20.5t20.5 49.5t-20.5 49.5z" />
    <glyph glyph-name=".notdef" horiz-adv-x="1300" 
d="M1150 0v1400h-1000v-1400h1000zM250 1300h800v-1200h-800v1200z" />
    <glyph glyph-name=".null" horiz-adv-x="0" 
 />
    <glyph glyph-name="uni000D" unicode="&#xd;" horiz-adv-x="0" 
 />
    <glyph glyph-name="space" unicode=" " horiz-adv-x="496" 
 />
    <glyph glyph-name="exclam" unicode="!" horiz-adv-x="480" 
d="M261 309l11 792v331h-62v-331l13 -792h38zM276 0v71h-73v-71h73z" />
    <glyph glyph-name="quotedbl" unicode="&#x22;" horiz-adv-x="649" 
d="M471 1092l24 340h-73v-340h49zM202 1092l24 340h-73v-340h49z" />
    <glyph glyph-name="numbersign" unicode="#" horiz-adv-x="1572" 
d="M306 0l136 434h507l-135 -434h60l135 434h298v55h-280l142 452h249v58h-231l138 433h-62l-138 -433h-505l138 433h-62l-138 -433h-294v-58h276l-140 -452h-247v-55h229l-136 -434h60zM602 941h505l-140 -452h-507z" />
    <glyph glyph-name="dollar" unicode="$" horiz-adv-x="1265" 
d="M895.5 604.5q159.5 -73.5 155.5 -248.5q-3 -321 -428 -325q-228 -2 -430 60v-55q162 -59 403 -58v-169h62v171q454 24 454 376q0 104 -43.5 177.5t-151.5 126t-321 103.5q-216 51 -299.5 117.5t-83.5 198.5q2 309 417 319q229 6 393 -50v55q-116 43 -365 51v170h-62v-172
q-444 -33 -443 -373q0 -152 99 -235t344 -137q140 -29 299.5 -102.5z" />
    <glyph glyph-name="percent" unicode="%" horiz-adv-x="1546" 
d="M657.5 917.5q73.5 81.5 73.5 214.5q0 153 -72 237.5t-217 84.5q-144 0 -216.5 -84.5t-72.5 -237.5q0 -133 73.5 -214.5t215.5 -81.5t215.5 81.5zM415 0l768 1432h-60l-768 -1432h60zM213 1132q0 138 55.5 202.5t173.5 64.5t173.5 -64.5t55.5 -202.5q0 -118 -54.5 -179
t-174.5 -61q-229 0 -229 240zM1318.5 59q73.5 81 73.5 215q0 153 -72.5 237.5t-216.5 84.5q-145 0 -217 -84.5t-72 -237.5q0 -134 73 -215t216 -81q142 0 215.5 81zM874 274q0 137 55.5 201.5t173.5 64.5t173.5 -64.5t55.5 -201.5q0 -118 -54.5 -179.5t-174.5 -61.5
q-229 0 -229 241z" />
    <glyph glyph-name="ampersand" unicode="&#x26;" horiz-adv-x="1474" 
d="M901.5 37q127.5 59 203.5 165l200 -202l38 33l-211 212q66 120 66 278v51h-60v-58q0 -125 -46 -229l-476 485q149 102 215.5 185.5t66.5 201.5q0 135 -76.5 215t-221.5 80q-303 2 -309 -295q0 -94 70 -185.5t170 -188.5q-370 -181 -376 -445q-11 -355 443 -362
q176 0 303.5 59zM771.5 964.5q-66.5 -74.5 -193.5 -152.5q-102 97 -164.5 179.5t-62.5 167.5q0 106 62.5 173t186.5 67q122 0 180 -64.5t58 -175.5q0 -120 -66.5 -194.5zM213 318q-3 234 358 427l494 -503q-134 -209 -467 -209q-384 10 -385 285z" />
    <glyph glyph-name="quotesingle" unicode="'" horiz-adv-x="380" 
d="M202 1092l24 340h-73v-340h49z" />
    <glyph glyph-name="parenleft" unicode="(" horiz-adv-x="649" 
d="M540 -160q-327 271 -327 834q0 569 327 834h-73q-169 -131 -241.5 -361.5t-72.5 -472.5q0 -243 72.5 -473t241.5 -361h73z" />
    <glyph glyph-name="parenright" unicode=")" horiz-adv-x="649" 
d="M182 -160q169 131 241.5 361t72.5 473q0 242 -72.5 472.5t-241.5 361.5h-73q327 -265 327 -834q0 -563 -327 -834h73z" />
    <glyph glyph-name="asterisk" unicode="*" horiz-adv-x="961" 
d="M480 1068l213 -272l47 38l-222 256l289 118l-25 53l-278 -127l7 298h-62l6 -298l-278 127l-24 -53l287 -116l-220 -258l46 -38z" />
    <glyph glyph-name="plus" unicode="+" horiz-adv-x="1123" 
d="M591 158v362h378v56h-378v378h-62v-378h-376v-56h376v-362h62z" />
    <glyph glyph-name="comma" unicode="," horiz-adv-x="434" 
d="M202 -267l78 340h-74l-53 -340h49z" />
    <glyph glyph-name="hyphen" unicode="-" horiz-adv-x="1123" 
d="M969 520v56h-816v-56h816z" />
    <glyph glyph-name="period" unicode="." horiz-adv-x="516" 
d="M313 0v100h-110v-100h110z" />
    <glyph glyph-name="slash" unicode="/" horiz-adv-x="887" 
d="M213 0l520 1472h-60l-520 -1472h60z" />
    <glyph glyph-name="zero" unicode="0" horiz-adv-x="1446" 
d="M1150.5 167q141.5 189 141.5 516q0 380 -130.5 575.5t-439.5 195.5q-209 0 -334.5 -91t-180 -261t-54.5 -419q0 -327 141 -516t428 -189t428.5 189zM336.5 211q-123.5 178 -123.5 472q0 175 25.5 306.5t84.5 222.5t158 139t241 48q143 0 242 -48t157.5 -139t84.5 -222.5
t26 -306.5q0 -294 -123.5 -472t-386.5 -178q-262 0 -385.5 178z" />
    <glyph glyph-name="one" unicode="1" horiz-adv-x="636" 
d="M438 0v1454l-285 -46v-58l222 42v-1392h63z" />
    <glyph glyph-name="two" unicode="2" horiz-adv-x="1134" 
d="M980 0v56h-760q40 111 113.5 198.5t188.5 192.5q18 18 56 49q33 29 49 44q155 132 246.5 256.5t91.5 282.5q0 180 -114.5 277.5t-326.5 97.5q-82 0 -168.5 -14t-144.5 -39v-58q153 56 322 56q185 0 278.5 -88t93.5 -232q0 -120 -52.5 -213.5t-183.5 -213.5
q-42 -40 -100 -92q-162 -140 -265.5 -255.5t-150.5 -251.5v-53h827z" />
    <glyph glyph-name="three" unicode="3" horiz-adv-x="1148" 
d="M865 80q129 102 129 300q0 147 -83.5 236t-230.5 116q138 29 209 131t71 227q0 173 -110 268.5t-346 95.5q-86 0 -178.5 -15.5t-145.5 -37.5v-58q160 56 327 56q202 0 297.5 -78t95.5 -231q0 -160 -95.5 -247t-284.5 -87h-158l-11 -55h187q189 0 292.5 -79t103.5 -242
q0 -173 -110.5 -260t-328.5 -87q-97 0 -178.5 13.5t-163.5 42.5v-58q58 -22 151.5 -37.5t190.5 -15.5q241 0 370 102z" />
    <glyph glyph-name="four" unicode="4" horiz-adv-x="1221" 
d="M952 0v360h160v56h-160v1016h-65l-778 -1001v-71h781v-360h62zM890 1348v-932h-725z" />
    <glyph glyph-name="five" unicode="5" horiz-adv-x="1154" 
d="M871 91.5q129 113.5 129 322.5q0 231 -122 325.5t-351 87.5h-323l36 550h638l11 55h-698l-38 -578v-82h396q220 0 305.5 -84.5t85.5 -273.5q0 -185 -111 -283t-322 -98q-105 0 -186 13.5t-161 42.5v-58q57 -24 150.5 -38.5t193.5 -14.5q238 0 367 113.5z" />
    <glyph glyph-name="six" unicode="6" horiz-adv-x="1270" 
d="M990.5 99q125.5 121 125.5 332q0 221 -119 335.5t-352 114.5q-103 0 -216.5 -37t-213.5 -110v147q0 229 119 373.5t342 144.5q186 0 309 -42v57q-58 20 -136 30t-173 10q-238 0 -380.5 -156.5t-142.5 -423.5v-367q0 -276 121 -402.5t362 -126.5q229 0 354.5 121z
M319.5 140q-104.5 107 -104.5 323v213q87 67 201.5 108t221.5 41q224 0 321 -101t97 -293q0 -184 -108 -291t-315 -107q-209 0 -313.5 107z" />
    <glyph glyph-name="seven" unicode="7" horiz-adv-x="1134" 
d="M429 0l574 1361v71h-872v-55h818l-580 -1377h60z" />
    <glyph glyph-name="eight" unicode="8" horiz-adv-x="1299" 
d="M1015 75.5q130 97.5 130 284.5q0 147 -80 234t-256 120q156 42 225 135.5t69 224.5q0 116 -51.5 201.5t-153.5 132t-249 46.5q-218 0 -336 -102t-118 -278q0 -120 67 -209t209 -124q-156 -34 -237 -135t-81 -246q0 -187 130 -284.5t366 -97.5t366 97.5zM524 776
q-269 54 -269 298q0 156 101.5 240.5t292.5 84.5t292.5 -84.5t101.5 -240.5q0 -142 -77 -220t-250 -116zM213 360q0 156 88 239.5t250 114.5l214 -42q171 -36 245.5 -104t74.5 -208q0 -164 -109 -245.5t-327 -81.5q-436 0 -436 327z" />
    <glyph glyph-name="nine" unicode="9" horiz-adv-x="1270" 
d="M985 140q131 162 131 418v367q0 280 -115.5 404.5t-355.5 124.5q-225 0 -357.5 -121t-134.5 -343q0 -220 122.5 -335t355.5 -115q231 0 423 147v-140q0 -227 -113.5 -370.5t-336.5 -143.5q-206 0 -320 43v-58q60 -18 143.5 -29t176.5 -11q250 0 381 162zM322 689.5
q-107 93.5 -109 300.5q0 186 112.5 297.5t321.5 111.5t308 -107t99 -322v-225q-85 -69 -191.5 -109t-224.5 -40q-209 0 -316 93.5z" />
    <glyph glyph-name="colon" unicode=":" horiz-adv-x="516" 
d="M313 747v100h-110v-100h110zM313 73v100h-110v-100h110z" />
    <glyph glyph-name="semicolon" unicode=";" horiz-adv-x="438" 
d="M300 747v100h-110v-100h110zM202 -189l78 340h-74l-53 -340h49z" />
    <glyph glyph-name="less" unicode="&#x3c;" horiz-adv-x="1254" 
d="M1100 231l-885 410l885 409v64l-947 -447v-53l947 -447v64z" />
    <glyph glyph-name="equal" unicode="=" horiz-adv-x="1139" 
d="M985 658v56h-832v-56h832zM985 389v58h-832v-58h832z" />
    <glyph glyph-name="greater" unicode="&#x3e;" horiz-adv-x="1254" 
d="M1100 614v53l-947 447v-64l885 -409l-885 -410v-64z" />
    <glyph glyph-name="question" unicode="?" horiz-adv-x="1116" 
d="M495 314v51q0 115 81.5 204.5t161.5 151.5q113 91 169 165.5t56 187.5q0 185 -110.5 282.5t-330.5 97.5q-231 0 -369 -75v-58q160 78 365 78q384 0 384 -325q0 -109 -52 -175.5t-165 -153.5q-110 -84 -181 -170t-71 -206v-55h62zM502 0v71h-73v-71h73z" />
    <glyph glyph-name="at" unicode="@" horiz-adv-x="1748" 
d="M1265 -254v58q-142 -42 -385 -42q-300 0 -483.5 151t-183.5 505q0 360 177 527t533 167q315 0 463 -135.5t148 -407.5q0 -215 -69 -308.5t-218 -93.5v416q0 175 -77.5 249.5t-262.5 74.5q-91 0 -169 -11t-134 -35v-58q127 49 285 49q129 0 191.5 -27t83.5 -82.5
t21 -164.5v-100h-349q-343 0 -343 -271q0 -131 89 -191t234 -60q247 0 380 153h42q183 0 269.5 119t86.5 341q0 292 -165.5 445.5t-505.5 153.5q-381 0 -575.5 -183.5t-194.5 -566.5q0 -385 199 -548.5t533 -163.5q198 0 380 40zM624.5 56.5q-71.5 45.5 -71.5 150.5
q0 111 62.5 162t222.5 51h347v-247q-69 -84 -153.5 -123t-202.5 -39q-133 0 -204.5 45.5z" />
    <glyph glyph-name="A" unicode="A" horiz-adv-x="1486" 
d="M217 0l167 445h719l166 -445h63l-538 1432h-101l-540 -1432h64zM742 1397l338 -897h-676z" />
    <glyph glyph-name="B" unicode="B" horiz-adv-x="1401" 
d="M843 0q207 0 306 96.5t99 306.5q0 151 -67 235.5t-189 106.5q196 82 196 318q0 185 -92.5 277t-299.5 92h-598v-1432h645zM260 1377h525q196 0 269.5 -77t73.5 -237q0 -285 -298 -291h-570v605zM260 716h554q122 0 204.5 -27.5t127 -96.5t42.5 -189q0 -185 -80 -266
t-256 -81h-592v660z" />
    <glyph glyph-name="C" unicode="C" horiz-adv-x="1339" 
d="M999 -9q101 13 186 40v58q-171 -56 -389 -56q-307 0 -445 172q-134 166 -138 464q0 350 130 540t446 190q229 0 396 -65v58q-80 31 -181.5 46.5t-221.5 15.5q-335 0 -482 -206.5t-147 -578.5q0 -320 154.5 -505.5t474.5 -185.5q116 0 217 13z" />
    <glyph glyph-name="D" unicode="D" horiz-adv-x="1423" 
d="M716 0q305 0 429.5 165.5t124.5 539.5q0 262 -54.5 420t-175.5 232.5t-324 74.5h-518v-1432h518zM260 1377h434q222 0 334.5 -83.5t147 -223.5t34.5 -365q0 -196 -31 -323.5t-94.5 -198t-158 -99t-232.5 -28.5h-434v1321z" />
    <glyph glyph-name="E" unicode="E" horiz-adv-x="1237" 
d="M1105 0v56h-845v633h768v56h-768v632h845v55h-907v-1432h907z" />
    <glyph glyph-name="F" unicode="F" horiz-adv-x="1152" 
d="M260 0v689h725v56h-725v632h805v55h-867v-1432h62z" />
    <glyph glyph-name="G" unicode="G" horiz-adv-x="1434" 
d="M1090.5 9q123.5 31 190.5 73v661h-494v-58h431v-578q-193 -74 -420 -74q-156 0 -267 43.5t-180 128.5q-138 171 -138 464q0 350 131 540t447 190q212 0 394 -56v58q-174 53 -403 53q-333 0 -481 -207.5t-148 -577.5q0 -320 155.5 -505.5t476.5 -185.5q182 0 305.5 31z
" />
    <glyph glyph-name="H" unicode="H" horiz-adv-x="1412" 
d="M260 0v689h892v-689h62v1432h-62v-687h-892v687h-62v-1432h62z" />
    <glyph glyph-name="I" unicode="I" horiz-adv-x="458" 
d="M260 0v1432h-62v-1432h62z" />
    <glyph glyph-name="J" unicode="J" horiz-adv-x="910" 
d="M631 68q91 90 91 272v1092h-62v-1092q0 -160 -74.5 -232t-250.5 -72q-160 0 -271 53v-58q120 -53 280 -53q196 0 287 90z" />
    <glyph glyph-name="K" unicode="K" horiz-adv-x="1292" 
d="M260 0v536l278 287l530 -823h71l-556 865l549 567h-84l-788 -812v812h-62v-1432h62z" />
    <glyph glyph-name="L" unicode="L" horiz-adv-x="1192" 
d="M1083 0v56h-823v1376h-62v-1432h885z" />
    <glyph glyph-name="M" unicode="M" horiz-adv-x="1679" 
d="M260 0v1363l545 -1112h71l543 1112v-1363h62v1432h-91l-549 -1127l-552 1127h-91v-1432h62z" />
    <glyph glyph-name="N" unicode="N" horiz-adv-x="1483" 
d="M260 0v1348l957 -1348h69v1432h-63v-1347l-956 1347h-69v-1432h62z" />
    <glyph glyph-name="O" unicode="O" horiz-adv-x="1557" 
d="M1248.5 169q154.5 191 154.5 534q0 387 -150 569t-475 182t-475 -182t-150 -569q0 -343 154.5 -534t470.5 -191t470.5 191zM354 203.5q-141 170.5 -141 499.5q0 256 62.5 407t185.5 220t317 69q193 0 316.5 -69t186 -220t62.5 -407q0 -329 -141.5 -499.5t-423.5 -170.5
q-283 0 -424 170.5z" />
    <glyph glyph-name="P" unicode="P" horiz-adv-x="1285" 
d="M260 0v580h465q140 0 242.5 50.5t156 145t53.5 227.5q0 202 -109 315.5t-334 113.5h-536v-1432h62zM260 1377h481q186 0 281 -96t95 -278q0 -171 -99 -269t-288 -98h-470v741z" />
    <glyph glyph-name="Q" unicode="Q" horiz-adv-x="1557" 
d="M1152 -360v58q-89 -23 -158 -23q-116 0 -159.5 69t-43.5 234q309 6 460.5 195.5t151.5 529.5q0 387 -150 569t-475 182t-475 -182t-150 -569q0 -318 137 -511.5t441 -211.5q0 -169 57 -266t206 -97q69 0 158 23zM354 203.5q-141 170.5 -141 499.5q0 256 62.5 407
t185.5 220t317 69q193 0 316.5 -69t186 -220t62.5 -407q0 -329 -141.5 -499.5t-423.5 -170.5q-283 0 -424 170.5z" />
    <glyph glyph-name="R" unicode="R" horiz-adv-x="1334" 
d="M260 0v607h372q140 0 196.5 -33.5t94.5 -124.5l196 -449h62l-198 463q-31 69 -56.5 102t-76.5 53q162 25 244.5 128.5t82.5 276.5q0 196 -99 302.5t-311 106.5h-569v-1432h62zM260 1377h514q171 0 257 -88t86 -266q0 -360 -372 -360h-485v714z" />
    <glyph glyph-name="S" unicode="S" horiz-adv-x="1265" 
d="M979.5 71.5q132.5 93.5 132.5 284.5q0 107 -44.5 180t-146 125.5t-274.5 90.5q-56 13 -103 24q-189 51 -260 115.5t-71 187.5q0 162 114.5 241t341.5 79q207 0 354 -51v55q-54 20 -157.5 35.5t-214.5 15.5q-251 0 -374.5 -101t-123.5 -274q0 -149 100 -233.5t347 -138.5
q118 -24 196 -51q135 -47 195 -116t60 -184q0 -325 -460 -325q-111 0 -209 15.5t-189 44.5v-55q80 -29 177 -43.5t221 -14.5q256 0 388.5 93.5z" />
    <glyph glyph-name="T" unicode="T" horiz-adv-x="1305" 
d="M685 0v1377h512v55h-1088v-55h514v-1377h62z" />
    <glyph glyph-name="U" unicode="U" horiz-adv-x="1499" 
d="M1173 113.5q139 135.5 139 400.5v918h-62v-945q0 -225 -129 -338t-371 -113q-241 0 -371 113t-130 338v945h-62v-918q0 -265 139 -400.5t424 -135.5q284 0 423 135.5z" />
    <glyph glyph-name="V" unicode="V" horiz-adv-x="1486" 
d="M794 0l538 1432h-65l-525 -1396l-525 1396h-64l540 -1432h101z" />
    <glyph glyph-name="W" unicode="W" horiz-adv-x="1908" 
d="M589 0l380 1268l354 -1268h100l331 1432h-62l-322 -1388l-392 1388h-53v-129l-385 -1259l-323 1388h-64l334 -1432h102z" />
    <glyph glyph-name="X" unicode="X" horiz-adv-x="1366" 
d="M217 0l465 665l465 -665h65l-494 705l494 727h-65l-465 -691l-465 691h-64l492 -727l-492 -705h64z" />
    <glyph glyph-name="Y" unicode="Y" horiz-adv-x="1388" 
d="M725 0v538l509 894h-65l-476 -836l-476 836h-64l509 -894v-538h63z" />
    <glyph glyph-name="Z" unicode="Z" horiz-adv-x="1294" 
d="M1152 0v56h-921l909 1318v58h-949v-55h878l-916 -1328v-49h999z" />
    <glyph glyph-name="bracketleft" unicode="[" horiz-adv-x="758" 
d="M622 -220l5 55h-412v1680h412l-5 55h-469v-1790h469z" />
    <glyph glyph-name="backslash" unicode="\" horiz-adv-x="930" 
d="M776 -120l-563 1592h-60l563 -1592h60z" />
    <glyph glyph-name="bracketright" unicode="]" horiz-adv-x="758" 
d="M605 -220v1790h-470l-4 -55h411v-1680h-411l4 -55h470z" />
    <glyph glyph-name="asciicircum" unicode="^" horiz-adv-x="974" 
d="M217 894l270 447l269 -447h64l-300 494h-67l-300 -494h64z" />
    <glyph glyph-name="underscore" unicode="_" horiz-adv-x="1283" 
d="M1129 -56v56h-976v-56h976z" />
    <glyph glyph-name="a" unicode="a" horiz-adv-x="1201" 
d="M774.5 18q105.5 40 181.5 127l9 -145h49v709q0 196 -94.5 281.5t-306.5 85.5q-100 0 -187.5 -13t-154.5 -40v-58q153 56 322 56q145 0 221.5 -31t106.5 -98t30 -187v-136h-420q-178 0 -278 -66.5t-100 -235.5q0 -147 101 -218t264 -71q151 0 256.5 40zM213 267
q0 144 83.5 195.5t239.5 49.5h415v-301q-140 -178 -418 -178q-320 0 -320 234z" />
    <glyph glyph-name="b" unicode="b" horiz-adv-x="1272" 
d="M997.5 116q121.5 138 121.5 420q0 280 -119 410t-346 130q-118 0 -213.5 -27.5t-180.5 -92.5v543h-62v-1499h51l9 127q80 -76 173.5 -112.5t217.5 -36.5q227 0 348.5 138zM260 191v701q158 129 374 129q218 0 321.5 -114.5t103.5 -370.5q0 -249 -100 -376t-321 -127
q-226 0 -378 158z" />
    <glyph glyph-name="c" unicode="c" horiz-adv-x="1032" 
d="M945 31v58q-134 -56 -274 -56q-244 0 -351 120.5t-107 373.5q0 247 121 370.5t351 123.5q140 0 260 -56v58q-60 29 -117 41t-150 12q-249 0 -387 -137.5t-138 -411.5q0 -265 121 -407t382 -142q164 0 289 53z" />
    <glyph glyph-name="d" unicode="d" horiz-adv-x="1272" 
d="M840.5 14.5q93.5 36.5 173.5 112.5l9 -127h51v1499h-63v-543q-86 67 -169.5 93.5t-201.5 26.5q-249 0 -366 -152t-121 -410q0 -274 129 -405t340 -131q125 0 218.5 36.5zM321 153.5q-108 120.5 -108 360.5q0 256 114.5 381.5t332.5 125.5q113 0 195.5 -32.5t155.5 -96.5
v-701q-75 -78 -169.5 -118t-208.5 -40q-204 0 -312 120.5z" />
    <glyph glyph-name="e" unicode="e" horiz-adv-x="1192" 
d="M828 -9q70 13 139 40v58q-67 -29 -136 -42.5t-138 -13.5q-258 0 -364.5 107t-113.5 345h823v182q0 180 -102 294.5t-312 114.5q-251 0 -359 -139t-112 -401q0 -289 122.5 -423.5t406.5 -134.5q76 0 146 13zM309.5 897.5q94.5 125.5 314.5 123.5q181 0 266.5 -95.5
t85.5 -267.5v-115h-761q0 229 94.5 354.5z" />
    <glyph glyph-name="f" unicode="f" horiz-adv-x="785" 
d="M338 0v996h300l5 58h-305v207q0 113 56.5 165.5t188.5 52.5q64 0 133 -25v58q-60 23 -151 23q-140 0 -214.5 -71.5t-74.5 -206.5v-203h-167v-58h167v-996h62z" />
    <glyph glyph-name="g" unicode="g" horiz-adv-x="1265" 
d="M1068 1054v-1161q0 -100 -59 -174.5t-165.5 -114.5t-247.5 -40q-124 0 -233 13.5t-185 39.5v58q89 -26 199 -40.5t217 -14.5q183 0 297.5 76.5t114.5 196.5l-3 205q-84 -62 -168.5 -91t-204.5 -29q-247 0 -367 150t-116 406q0 542 469 542q252 0 392 -149l9 127h51z
M316 156.5q109 -123.5 329 -123.5q114 0 196 33.5t165 95.5v701q-152 158 -378 158q-223 0 -322 -119t-99 -368q0 -254 109 -377.5z" />
    <glyph glyph-name="h" unicode="h" horiz-adv-x="1259" 
d="M260 0v847q85 80 188.5 127t223.5 47q198 0 268 -70t70 -246v-705h62v705q0 193 -88 282t-279 89q-144 0 -249 -40t-196 -120v583h-62v-1499h62z" />
    <glyph glyph-name="i" unicode="i" horiz-adv-x="474" 
d="M276 1357v97h-78v-97h78zM267 0v1054l-62 2v-1056h62z" />
    <glyph glyph-name="j" unicode="j" horiz-adv-x="612" 
d="M419 1357v97h-78v-97h78zM335.5 -447q74.5 73 74.5 202v1299h-63v-1299v-13q-2 -102 -58.5 -154.5t-176.5 -52.5q-65 0 -136 25v-58q67 -22 156 -22q129 0 203.5 73z" />
    <glyph glyph-name="k" unicode="k" horiz-adv-x="1072" 
d="M260 0v431l196 181l438 -612h67l-463 649l436 405h-80l-594 -547v992h-62v-1499h62z" />
    <glyph glyph-name="l" unicode="l" horiz-adv-x="549" 
d="M406 -20q26 2 46 9v58q-36 -11 -96 -11q-49 0 -72.5 30t-23.5 103v1330h-62v-1321q0 -109 42.5 -154.5t119.5 -45.5q20 0 46 2z" />
    <glyph glyph-name="m" unicode="m" horiz-adv-x="1922" 
d="M260 0v847q85 76 190.5 125t207.5 49q165 0 224 -78t54 -247v-696h63v696q0 98 -18 169q156 156 380 156q165 0 238.5 -71.5t73.5 -242.5v-707h62v709q0 187 -87 277t-267 90q-244 0 -422 -157q-34 77 -104 117t-192 40q-216 0 -403 -160l-11 138h-51v-1054h62z" />
    <glyph glyph-name="n" unicode="n" horiz-adv-x="1259" 
d="M260 0v847q85 80 188.5 127t223.5 47q198 0 268 -70t70 -246v-705h62v705q0 193 -88 282t-279 89q-144 0 -249 -40t-196 -120l-11 138h-51v-1054h62z" />
    <glyph glyph-name="o" unicode="o" horiz-adv-x="1268" 
d="M1000.5 114.5q113.5 136.5 113.5 412.5q0 274 -116 411.5t-365 137.5t-364.5 -137.5t-115.5 -411.5q0 -273 115.5 -411t364.5 -138q254 0 367.5 136.5zM387.5 87.5q-92.5 54.5 -133.5 165t-41 274.5q0 254 98 374t322 120q154 0 246 -54.5t133.5 -164.5t41.5 -275
q0 -164 -41.5 -274.5t-133.5 -165t-246 -54.5q-153 0 -245.5 54.5z" />
    <glyph glyph-name="p" unicode="p" horiz-adv-x="1272" 
d="M260 -480v578q85 -62 170.5 -91t205.5 -29q247 0 367 150t116 406q0 542 -470 542q-251 0 -391 -149l-9 127h-51v-1534h62zM425 66.5q-82 33.5 -165 95.5v701q152 158 378 158q223 0 322 -119t99 -368q0 -254 -109 -377.5t-329 -123.5q-114 0 -196 33.5z" />
    <glyph glyph-name="q" unicode="q" horiz-adv-x="1265" 
d="M1006 -480v578q-85 -62 -170.5 -91t-205.5 -29q-247 0 -367 150t-116 406q0 542 469 542q250 0 392 -149l9 127h51v-1534h-62zM841 66.5q82 33.5 165 95.5v701q-152 158 -378 158q-223 0 -322 -119t-99 -368q0 -254 109 -377.5t329 -123.5q114 0 196 33.5z" />
    <glyph glyph-name="r" unicode="r" horiz-adv-x="736" 
d="M260 0v836q174 120 401 183v57q-103 -24 -209.5 -72t-191.5 -108l-11 158h-51v-1054h62z" />
    <glyph glyph-name="s" unicode="s" horiz-adv-x="1012" 
d="M762.5 43.5q95.5 65.5 95.5 214.5q0 136 -94.5 201.5t-268.5 114.5q-122 40 -175.5 64.5t-80 64.5t-26.5 111q0 105 65 156q28 24 85 36.5t137 14.5h22q67 0 130.5 -9t125.5 -27v58q-56 18 -121.5 25.5t-143.5 7.5q-191 0 -275.5 -65.5t-84.5 -198.5q0 -123 76.5 -180.5
t194.5 -93.5q36 -11 54 -18q17 -6 49 -15q104 -36 142 -54q69 -28 99 -70.5t30 -122.5q0 -111 -64.5 -164.5t-206.5 -60.5h-47q-78 0 -151.5 10t-144.5 33v-58q62 -18 140 -29t163 -11q180 0 275.5 65.5z" />
    <glyph glyph-name="t" unicode="t" horiz-adv-x="778" 
d="M692 0v58q-74 -25 -125 -25q-224 0 -224 221v742h313l5 58h-318v316h-63v-316h-171v-58h171v-742q0 -129 71.5 -202.5t195.5 -73.5q60 0 145 22z" />
    <glyph glyph-name="u" unicode="u" horiz-adv-x="1259" 
d="M814.5 17q95.5 39 184.5 121l11 -138h51v1054h-62v-847q-78 -80 -175 -127t-214 -47q-185 0 -273 89t-88 265v667h-62v-667q0 -196 100 -302.5t289 -106.5q143 0 238.5 39z" />
    <glyph glyph-name="v" unicode="v" horiz-adv-x="1216" 
d="M653 0l410 1054h-63l-393 -1018l-390 1018h-64l411 -1054h89z" />
    <glyph glyph-name="w" unicode="w" horiz-adv-x="1601" 
d="M511 0l296 914l289 -914h80l271 1054h-62l-249 -1010l-318 1010h-53v-107l-294 -903l-254 1010h-64l274 -1054h84z" />
    <glyph glyph-name="x" unicode="x" horiz-adv-x="1125" 
d="M198 0l362 496l365 -496h69l-396 536l380 518h-69l-349 -474l-349 474h-69l385 -518l-396 -536h67z" />
    <glyph glyph-name="y" unicode="y" horiz-adv-x="1261" 
d="M242 -385.5q36 -5.5 76 -5.5q124 0 205 110t150 279q7 15 9 22l470 1034h-63l-447 -981l-425 981h-64l458 -1050q-2 -4 -4 -13q-58 -147 -123.5 -237t-170.5 -90q-73 0 -136 25v-58q29 -11 65 -16.5z" />
    <glyph glyph-name="z" unicode="z" horiz-adv-x="1094" 
d="M940 0v58h-718l705 943v53h-741v-58h674l-707 -945v-51h787z" />
    <glyph glyph-name="braceleft" unicode="{" horiz-adv-x="652" 
d="M509 -231q-111 0 -165.5 46.5t-54.5 157.5v445q0 105 -32.5 155t-125.5 61v60q93 11 125.5 62t32.5 154v444q0 112 54.5 158.5t165.5 46.5h33v-58h-33q-159 1 -158 -162v-472q0 -60 -29 -120q-31 -64 -111 -84q82 -20 111 -83q29 -60 29 -120v-471q4 -166 158 -162h33
v-58h-33z" />
    <glyph glyph-name="bar" unicode="|" horiz-adv-x="369" 
d="M215 -267v1902h-62v-1902h62z" />
    <glyph glyph-name="braceright" unicode="}" horiz-adv-x="652" 
d="M164 -231q112 0 166.5 46.5t54.5 157.5v445q0 105 32 155t125 61v60q-93 11 -125 62t-32 154v444q0 112 -54.5 158.5t-166.5 46.5h-33v-58h33q159 1 158 -162v-472q0 -60 29 -120q31 -64 111 -84q-82 -20 -111 -83q-29 -60 -29 -120v-471q-3 -166 -158 -162h-33v-58h33z
" />
    <glyph glyph-name="asciitilde" unicode="~" horiz-adv-x="1345" 
d="M1085 594q67 31 107 87v73q-56 -71 -115 -103.5t-141 -32.5q-62 0 -122.5 21.5t-133.5 61.5q-73 37 -136.5 58.5t-132.5 21.5q-80 0 -149 -32.5t-109 -85.5v-74q56 72 116 104t142 32q64 0 125.5 -21t136.5 -59q72 -40 134 -61t129 -21q82 0 149 31z" />
    <glyph glyph-name="uni00A0" unicode="&#xa0;" horiz-adv-x="0" 
 />
    <glyph glyph-name="cent" unicode="&#xa2;" horiz-adv-x="1099" 
d="M311.5 161.5q-98.5 125.5 -98.5 365.5q8 475 436 493q159 6 296 -55v58q-102 55 -272 53v169h-57v-171q-221 -15 -342 -154t-121 -393q0 -256 111 -396t352 -151v-171h57v169q143 2 272 53v58q-148 -59 -300 -56q-235 3 -333.5 128.5z" />
    <glyph glyph-name="sterling" unicode="&#xa3;" horiz-adv-x="1128" 
d="M994 0v58h-654q67 49 67 191v483h509v58h-509v351q5 256 304 258q130 -1 207 -38v58q-69 35 -222 35q-145 0 -248.5 -78.5t-103.5 -236.5v-349h-167v-58h167v-485q0 -189 -149 -189h-62v-58h861z" />
    <glyph glyph-name="currency" unicode="&#xa4;" horiz-adv-x="1305" 
d="M378 309q55 -51 126.5 -80t148.5 -29q154 0 274 109l191 -147l34 45l-189 142q86 111 86 249q0 143 -86 247l189 145l-34 44l-193 -149q-116 111 -274 111t-273 -111l-192 149l-33 -44l189 -145q-87 -102 -87 -247q0 -144 87 -247l-189 -144l33 -45zM413 357
q-98 101 -98 241q0 143 98 243t238 100t239 -100t99 -243q0 -140 -99 -241t-239 -101t-238 101z" />
    <glyph glyph-name="yen" unicode="&#xa5;" horiz-adv-x="1348" 
d="M705 0v278h375v56h-375v186h375v56h-355l469 856h-65l-456 -836l-458 836h-62l465 -856h-354v-56h376v-186h-376v-56h376v-278h65z" />
    <glyph glyph-name="brokenbar" unicode="&#xa6;" horiz-adv-x="369" 
d="M215 990v645h-62v-645h62zM215 -267v645h-62v-645h62z" />
    <glyph glyph-name="section" unicode="&#xa7;" horiz-adv-x="1265" 
d="M1112 356q0 89 -34 158q34 86 34 155q0 103 -39 158.5t-131.5 90t-294.5 81.5q-256 62 -345 125.5t-89 201.5q0 162 114.5 241t341.5 79q207 0 354 -51v55q-54 20 -157.5 35.5t-214.5 15.5q-498 4 -498 -375q0 -96 36 -158q-36 -67 -36 -134q0 -142 95.5 -204.5
t351.5 -122.5q251 -55 351 -128.5t100 -222.5q0 -325 -460 -325q-211 0 -398 60v-55q160 -58 398 -58q521 0 521 378zM887 676.5q-98 44.5 -240 75.5q-258 60 -346 111t-88 171q0 49 16 82q-33 -51 404 -171q243 -53 330.5 -100t87.5 -176q0 -49 -15 -95q-51 58 -149 102.5z
" />
    <glyph glyph-name="copyright" unicode="&#xa9;" horiz-adv-x="1784" 
d="M1194 225v57q-151 -60 -294 -60q-235 0 -361 123.5t-126 368.5q0 238 140 363.5t361 125.5q153 0 280 -60v58q-111 58 -287 58q-551 -6 -554 -545q-8 -541 532 -547q189 0 309 58zM1262 77q170 99 269 269t99 370t-99 370.5t-269 269t-371 98.5q-200 0 -370 -98.5
t-269 -269t-99 -370.5t99 -370t269 -269t370 -99q201 0 371 99zM551 128q-156 92 -248 248t-92 340q0 185 92 340.5t248 248t340 92.5q185 0 340.5 -92.5t248 -248t92.5 -340.5q0 -184 -92.5 -340t-248 -248t-340.5 -92q-184 0 -340 92z" />
    <glyph glyph-name="ordfeminine" unicode="&#xaa;" horiz-adv-x="816" 
d="M604 939l5 -81h53v392q0 107 -62 155.5t-180 48.5q-56 0 -103.5 -6.5t-87.5 -21.5v-56q89 31 178 31q115 0 155 -35.5t40 -124.5v-47h-224q-225 0 -225 -182q0 -85 59 -126t152 -41q149 0 240 94zM211 1012q0 67 39 98t125 31h227v-142q-44 -54 -96.5 -77.5t-130.5 -23.5
q-164 0 -164 114z" />
    <glyph glyph-name="guillemotleft" unicode="&#xab;" horiz-adv-x="1285" 
d="M1132 256l-516 385l516 384l-32 45l-547 -403v-53l547 -403zM731 256l-516 385l516 384l-31 45l-547 -403v-53l547 -403z" />
    <glyph glyph-name="registered" unicode="&#xae;" horiz-adv-x="1784" 
d="M1262 77q170 99 269 269t99 370t-99 370.5t-269 269t-371 98.5q-200 0 -370 -98.5t-269 -269t-99 -370.5t99 -370t269 -269t370 -99q201 0 371 99zM551 128q-156 92 -248 248t-92 340q0 185 92 340.5t248 248t340 92.5q185 0 340.5 -92.5t248 -248t92.5 -340.5
q0 -184 -92.5 -340t-248 -248t-340.5 -92q-184 0 -340 92zM609 196v429h253q105 0 146 -21t68 -86l142 -322h63l-145 333q-20 49 -40 74.5t-58 39.5q238 38 238 289q0 142 -78 219t-233 77h-418v-1032h62zM609 1172h358q129 0 189 -55.5t60 -184.5q0 -134 -69 -191.5
t-200 -57.5h-338v489z" />
    <glyph glyph-name="macron" unicode="&#xaf;" horiz-adv-x="901" 
d="M747 1265v56h-594v-56h594z" />
    <glyph glyph-name="degree" unicode="&#xb0;" horiz-adv-x="984" 
d="M492 765q87 0 161 43t117 117t43 161q0 88 -43 161.5t-117 116.5t-161 43q-88 0 -161.5 -43t-116.5 -116.5t-43 -161.5q0 -87 43 -161t116.5 -117t161.5 -43v0zM626.5 1318q61.5 -36 97.5 -97.5t36 -134.5t-36 -134.5t-97.5 -97.5t-134.5 -36t-134.5 36t-97.5 97.5
t-36 134.5t36 134.5t97.5 97.5t134.5 36t134.5 -36z" />
    <glyph glyph-name="plusminus" unicode="&#xb1;" horiz-adv-x="1123" 
d="M591 158v362h378v56h-378v378h-62v-378h-376v-56h376v-362h62zM969 0v56h-816v-56h816z" />
    <glyph glyph-name="mu" unicode="&#xb5;" horiz-adv-x="1270" 
d="M260 -318v463q99 -164 327 -167q265 -2 423 160l11 -138h51v1054h-62v-847q-169 -174 -389 -174q-361 0 -361 354v667h-62v-1372h62z" />
    <glyph glyph-name="paragraph" unicode="&#xb6;" horiz-adv-x="1361" 
d="M851 -171v1692h294v-1692h62v1750h-458q-596 0 -596 -518q0 -298 188 -398t448 -100v-734h62z" />
    <glyph glyph-name="guillemotright" unicode="&#xbb;" horiz-adv-x="1285" 
d="M1132 614v53l-548 403l-31 -45l516 -384l-516 -385l31 -45zM731 614v53l-547 403l-31 -45l516 -384l-516 -385l31 -45z" />
    <glyph glyph-name="multiply" unicode="&#xd7;" horiz-adv-x="923" 
d="M769 280l-267 267l267 269l-42 42l-269 -266l-265 266l-40 -40l267 -264l-256 -258l42 -42l258 255l267 -267z" />
    <glyph glyph-name="germandbls" unicode="&#xdf;" horiz-adv-x="1403" 
d="M823 -22q-84 0 -170 11t-150 38v58q71 -29 153.5 -40.5t166.5 -11.5q180 0 273.5 88t93.5 275q0 162 -79 241t-270 79h-227v65l492 304q6 172 -126 242t-290 70q-221 0 -331 -94.5t-110 -303.5v-999h-62v1007q0 225 132.5 336t370.5 111q255 0 366.5 -111t111.5 -282
l-467 -289h153q205 0 300.5 -98t95.5 -278q0 -211 -109 -314.5t-318 -103.5z" />
    <glyph glyph-name="divide" unicode="&#xf7;" horiz-adv-x="1123" 
d="M600 843v89h-80v-89h80zM969 520v56h-816v-56h816zM600 180v89h-80v-89h80z" />
    <glyph glyph-name="uni060C" unicode="&#x60c;" horiz-adv-x="645" 
d="M395.5 153.5q-24.5 23.5 -62 23t-76.5 -31.5v215q-1 76 48.5 134.5t126.5 71.5l10 1l-8 55l-10 -2q-99 -18 -160.5 -90.5t-62.5 -173.5v-252q0 -45 32 -77t77 -32q47 0 78.5 27.5t31.5 72.5q0 35 -24.5 58.5z" />
    <glyph glyph-name="uni0615" unicode="&#x615;" horiz-adv-x="0" 
d="M-88 1759.5q60 100.5 154 100.5q80 0 121.5 -51.5t41.5 -121.5q0 -56 -48 -93t-119 -37h-239q29 102 89 202.5zM-228 1557h-50v-49h340q92 0 153 50.5t63 128.5q0 57 -24 107.5t-72 82t-116 31.5q-135 0 -229 -188v403h-49v-513q-8 -26 -16 -53z" />
    <glyph glyph-name="uni0615" unicode="&#xfbc0;" horiz-adv-x="0" 
d="M-88 1759.5q60 100.5 154 100.5q80 0 121.5 -51.5t41.5 -121.5q0 -56 -48 -93t-119 -37h-239q29 102 89 202.5zM-228 1557h-50v-49h340q92 0 153 50.5t63 128.5q0 57 -24 107.5t-72 82t-116 31.5q-135 0 -229 -188v403h-49v-513q-8 -26 -16 -53z" />
    <glyph glyph-name="uni0615" unicode="&#xe0bf;" horiz-adv-x="0" 
d="M-88 1759.5q60 100.5 154 100.5q80 0 121.5 -51.5t41.5 -121.5q0 -56 -48 -93t-119 -37h-239q29 102 89 202.5zM-228 1557h-50v-49h340q92 0 153 50.5t63 128.5q0 57 -24 107.5t-72 82t-116 31.5q-135 0 -229 -188v403h-49v-513q-8 -26 -16 -53z" />
    <glyph glyph-name="uni061B" unicode="&#x61b;" horiz-adv-x="645" 
d="M395.5 452.5q-24.5 23.5 -62 23t-76.5 -31.5v215q-1 76 48.5 134.5t126.5 71.5l10 1l-8 55l-10 -2q-99 -18 -160.5 -90.5t-62.5 -173.5v-252q0 -45 32 -77t77 -32q47 0 78.5 27.5t31.5 72.5q0 35 -24.5 58.5zM367 0v100h-110v-100h110z" />
    <glyph glyph-name="uni061F" unicode="&#x61f;" horiz-adv-x="1116" 
d="M613 0v71h74v-71h-74zM620 314v51q0 115 -81.5 204.5t-160.5 151.5q-114 91 -169.5 165.5t-55.5 187.5q0 185 110 282.5t330 97.5q232 0 370 -175l-33 -29q-128 149 -332 149q-385 0 -385 -325q0 -109 52.5 -175.5t165.5 -153.5q110 -84 180.5 -170t70.5 -206v-55h-62z
" />
    <glyph glyph-name="uni0640" unicode="&#x640;" horiz-adv-x="263" 
d="M-53 43.5q-15 -13.5 0 -27t53 -16.5h263v60h-263q-38 -3 -53 -16.5z" />
    <glyph glyph-name="uni0640" unicode="&#xe0b5;" horiz-adv-x="263" 
d="M-53 43.5q-15 -13.5 0 -27t53 -16.5h263v60h-263q-38 -3 -53 -16.5z" />
    <glyph glyph-name="uni0653" unicode="&#x653;" horiz-adv-x="0" 
d="M-259 116q24 60 78 96.5t119 36.5h416v52h-416q-81 0 -148 -46t-97 -121l-46 -115l48 -19z" />
    <glyph glyph-name="uni0653" unicode="&#xe010;" horiz-adv-x="0" 
d="M-259 116q24 60 78 96.5t119 36.5h416v52h-416q-81 0 -148 -46t-97 -121l-46 -115l48 -19z" />
    <glyph glyph-name="uni0654" unicode="&#x654;" horiz-adv-x="0" 
d="M-204 1709l425 162l-18 46l-161 -61q-94 0 -135 48t-40 110q0 58 40.5 109.5t104.5 51.5q39 0 68 -10.5t61 -29.5q3 -2 5 -3l8 49q-62 43 -142 43q-57 0 -101 -30.5t-68.5 -79t-24.5 -100.5q0 -71 39.5 -123.5t100.5 -67.5l-179 -69z" />
    <glyph glyph-name="uni0654" unicode="&#x674;" horiz-adv-x="0" 
d="M-204 1709l425 162l-18 46l-161 -61q-94 0 -135 48t-40 110q0 58 40.5 109.5t104.5 51.5q39 0 68 -10.5t61 -29.5q3 -2 5 -3l8 49q-62 43 -142 43q-57 0 -101 -30.5t-68.5 -79t-24.5 -100.5q0 -71 39.5 -123.5t100.5 -67.5l-179 -69z" />
    <glyph glyph-name="uni0655" unicode="&#x655;" horiz-adv-x="0" 
d="M-204 -1010l425 162l-17 45l-162 -61q-93 1 -134.5 49t-40.5 110q0 58 40.5 109.5t104.5 51.5q40 0 69.5 -11.5t61.5 -30.5q2 -1 3 -2l9 50q-62 43 -143 43q-57 0 -101 -30.5t-68.5 -79.5t-24.5 -100q0 -71 39.5 -123.5t100.5 -68.5l-179 -68z" />
    <glyph glyph-name="uni0656" unicode="&#x656;" horiz-adv-x="0" 
d="M-24 -855h48v355h-48v-355z" />
    <glyph glyph-name="uni0656" unicode="&#x8ad;" horiz-adv-x="0" 
d="M-24 -855h48v355h-48v-355z" />
    <glyph glyph-name="uni065A" unicode="&#x65a;" horiz-adv-x="0" 
d="M270 1796h-64l-206 -235l-206 235h-64l252 -288h36z" />
    <glyph glyph-name="uni065B" unicode="&#x65b;" horiz-adv-x="0" 
d="M270 1508h-64l-206 236l-206 -236h-64l252 288h36z" />
    <glyph glyph-name="uni0660" unicode="&#x660;" horiz-adv-x="558" 
d="M279 298l134 135l-134 134l-134 -134z" />
    <glyph glyph-name="uni0661" unicode="&#x661;" horiz-adv-x="471" 
d="M300 591q0 139 -16.5 313.5t-46.5 304.5l-7 30l-60 -14l7 -30q30 -126 45.5 -296.5t15.5 -307.5v-591h62v591z" />
    <glyph glyph-name="uni0662" unicode="&#x662;" horiz-adv-x="963" 
d="M237 1209l-7 30l-60 -14l7 -30q30 -126 45.5 -296.5t15.5 -307.5v-591h62v586q0 73 -5 160q22 -47 84.5 -74t133.5 -18q128 16 204 95.5t79 202.5q3 78 -4 139t-25 155l-60 -11q0 -4 1 -10q16 -82 23 -139.5t4 -131.5q-3 -100 -64 -163.5t-167 -75.5q-80 -10 -129.5 24.5
t-85.5 97.5q-17 220 -52 372z" />
    <glyph glyph-name="uni0663" unicode="&#x663;" horiz-adv-x="1440" 
d="M1189.5 756q80.5 81 84.5 200q3 74 -4 132t-23 147l-3 15l-61 -11q1 -6 3 -16q17 -86 23 -139t4 -125q-4 -96 -70 -161.5t-173 -78.5q-64 -8 -117 20t-86 90q28 58 29 123q3 78 -4.5 139t-25.5 155l-60 -11q1 -3 2 -9q15 -82 22 -140t4 -132q-2 -100 -63.5 -163.5
t-166.5 -75.5q-81 -10 -130 24.5t-85 97.5q-17 219 -52 372l-7 30l-60 -14l7 -30q30 -126 45.5 -296.5t15.5 -307.5v-591h62v586q0 73 -5 160q22 -47 84.5 -74t132.5 -18q149 21 223 120q42 -66 106.5 -95.5t136.5 -20.5q131 17 211.5 98z" />
    <glyph glyph-name="uni0664" unicode="&#x664;" horiz-adv-x="1019" 
d="M279.5 796q32.5 -79 112.5 -125.5t197 -45.5q12 0 36 -1q59 -2 86 3l64 14l-12 59l-64 -13q-212 -39 -320 65q-78 79 -53 202q20 97 79.5 163t139.5 97.5t162 31.5q21 0 49 -4t48 -11l8 61q-46 14 -105 14q-96 0 -188 -37t-160.5 -113.5t-91.5 -188.5q-20 -92 12.5 -171z
M852 60h-376q-70 0 -129 34.5t-94 93.5t-35 129q-1 92 57.5 163.5t149.5 90.5l350 70l-11 59l-351 -70q-74 -15 -132 -60t-91 -111t-33 -141q0 -87 43 -160t116 -115.5t159 -42.5h376z" />
    <glyph glyph-name="uni0665" unicode="&#x665;" horiz-adv-x="1362" 
d="M1074 121q121 126 121 387q0 203 -59.5 384.5t-176 294.5t-279.5 113q-161 0 -277.5 -113t-176 -294.5t-59.5 -384.5q0 -261 121 -387t359 -126h68q238 0 359 126zM926 1135q103 -104 156 -272t53 -355q0 -122 -30.5 -220.5t-123 -165.5t-266.5 -67h-68q-133 0 -218 40.5
t-128.5 106t-58.5 142t-15 164.5q0 187 53 355t155.5 272t244.5 104q143 0 246 -104z" />
    <glyph glyph-name="uni0666" unicode="&#x666;" horiz-adv-x="1201" 
d="M1022 29q-92 150 -130.5 373.5t-10 456.5t125.5 410l-35 43q-254 -78 -438.5 -66.5t-341.5 82.5l-23 -55q159 -72 337.5 -87.5t420.5 51.5q-88 -191 -110 -421.5t19 -447.5t135 -371z" />
    <glyph glyph-name="uni0667" unicode="&#x667;" horiz-adv-x="1273" 
d="M818 604q-133 -334 -150 -609h-64q-12 188 -79.5 406.5t-167.5 429.5t-211 390l52 29q151 -240 271 -525.5t167 -585.5q47 300 167 585.5t271 525.5l53 -29q-176 -283 -309 -617z" />
    <glyph glyph-name="uni0668" unicode="&#x668;" horiz-adv-x="1207" 
d="M818 639q-133 334 -150 609h-64q-12 -187 -79.5 -405.5t-167.5 -429.5t-211 -391l52 -29q151 240 271 525.5t167 585.5q47 -300 167 -585.5t271 -525.5l53 29q-176 283 -309 617z" />
    <glyph glyph-name="uni0669" unicode="&#x669;" horiz-adv-x="1061" 
d="M827 714q-69 -57 -133 -78t-145 -31q-7 -1 -10 -1q-83 -11 -154 24t-112.5 104t-41.5 154q1 80 42 149t109.5 110t147.5 41q90 0 157 -48.5t103.5 -126.5t36.5 -163v-134zM827 0h61v848q0 101 -43.5 193t-125 149t-189.5 57q-95 0 -178 -49t-132.5 -132.5t-49.5 -179.5
q-1 -102 50.5 -186t138.5 -127.5t189 -30.5q2 1 8 1q77 10 139.5 29t131.5 69v-641z" />
    <glyph glyph-name="uni066A" unicode="&#x66a;" horiz-adv-x="1226" 
d="M1018 1220l-46 26l-764 -1231l46 -26zM272 1129q17 -17 17 -42t-17 -42t-42 -17q-24 0 -41.5 17t-17.5 42t17.5 42t41.5 17q25 0 42 -17zM1038 190q17 -17 17 -42q0 -24 -17 -41.5t-42 -17.5t-42 17.5t-17 41.5q0 25 17 42t42 17t42 -17z" />
    <glyph glyph-name="uni066B" unicode="&#x66b;" horiz-adv-x="564" 
d="M393 360l-47 20l-346 -760l47 -22z" />
    <glyph glyph-name="uni066C" unicode="&#x66c;" horiz-adv-x="450" 
d="M144 -195q64 35 99.5 103.5t35.5 158.5v173h-51v-173q0 -75 -28.5 -132t-80.5 -85l-23 -13l25 -45z" />
    <glyph glyph-name="uni066D" unicode="&#x66d;" horiz-adv-x="1348" 
d="M171 767l310 -227l-120 -364l313 225l313 -225l-120 364l310 227h-383l-120 364l-120 -364h-383z" />
    <glyph glyph-name="uni066E" unicode="&#x66e;" horiz-adv-x="1776" 
d="M1277 0q89 0 164.5 44t119 118.5t43.5 163.5v306h-58v-303q0 -73 -36 -135t-98 -98t-135 -36h-778q-74 0 -135.5 36t-97.5 98t-36 135v303h-59v-306q0 -89 44 -163.5t119.5 -118.5t164.5 -44h778z" />
    <glyph glyph-name="uni066F" unicode="&#x66f;" horiz-adv-x="1624" 
d="M1285.5 677q79.5 -49 123.5 -138t44 -206v-323q0 -176 -70 -302t-202 -192.5t-314 -66.5h-179q-155 0 -272.5 72t-181 192t-63.5 261v427h59v-424q0 -126 55.5 -233t159.5 -171t243 -64h179q250 0 388.5 128.5t138.5 362.5h-292q-168 0 -259.5 88t-91.5 245
q0 114 44.5 203.5t124.5 139.5t182 50q104 0 183.5 -49zM1394 333q0 84 -29.5 160t-95 125.5t-167.5 49.5q-88 0 -154.5 -42.5t-102.5 -118.5t-36 -174q0 -130 76 -201.5t217 -71.5h292v273z" />
    <glyph glyph-name="uni066F" unicode="&#x8bc;" horiz-adv-x="1624" 
d="M1285.5 677q79.5 -49 123.5 -138t44 -206v-323q0 -176 -70 -302t-202 -192.5t-314 -66.5h-179q-155 0 -272.5 72t-181 192t-63.5 261v427h59v-424q0 -126 55.5 -233t159.5 -171t243 -64h179q250 0 388.5 128.5t138.5 362.5h-292q-168 0 -259.5 88t-91.5 245
q0 114 44.5 203.5t124.5 139.5t182 50q104 0 183.5 -49zM1394 333q0 84 -29.5 160t-95 125.5t-167.5 49.5q-88 0 -154.5 -42.5t-102.5 -118.5t-36 -174q0 -130 76 -201.5t217 -71.5h292v273z" />
    <glyph glyph-name="uni0670" unicode="&#x670;" horiz-adv-x="0" 
d="M-24 1709h48v355h-48v-355z" />
    <glyph glyph-name="uni0695" unicode="&#x695;" horiz-adv-x="721" 
d="M44 -551q136 0 252.5 72.5t185 193.5t68.5 259v636h-59v-633q0 -122 -60.5 -230t-163.5 -173t-223 -65h-45v-60h45zM569 -889h-64l-206 -235l-206 235h-64l252 -288h36z" />
    <glyph glyph-name="uni06A1" unicode="&#x6a1;" horiz-adv-x="1741" 
d="M1527.5 874.5q-42.5 80.5 -117 125.5t-166.5 45q-89 0 -161.5 -42.5t-117 -119.5t-53.5 -176q-13 -158 69 -247t217 -89h313v-45q0 -73 -42 -134t-113 -96.5t-154 -35.5h-703q-74 0 -135.5 36t-97.5 98t-36 135v303h-59v-306q0 -89 44 -163.5t119.5 -118.5t164.5 -44h703
q99 0 183.5 44t134.5 118.5t50 163.5v367q0 101 -42.5 181.5zM1203 429q-117 0 -180 74t-52 202q9 110 80.5 196t192.5 86q78 0 139 -40t94.5 -111t33.5 -161v-246h-308z" />
    <glyph glyph-name="uni06A1" unicode="&#x8bb;" horiz-adv-x="1741" 
d="M1527.5 874.5q-42.5 80.5 -117 125.5t-166.5 45q-89 0 -161.5 -42.5t-117 -119.5t-53.5 -176q-13 -158 69 -247t217 -89h313v-45q0 -73 -42 -134t-113 -96.5t-154 -35.5h-703q-74 0 -135.5 36t-97.5 98t-36 135v303h-59v-306q0 -89 44 -163.5t119.5 -118.5t164.5 -44h703
q99 0 183.5 44t134.5 118.5t50 163.5v367q0 101 -42.5 181.5zM1203 429q-117 0 -180 74t-52 202q9 110 80.5 196t192.5 86q78 0 139 -40t94.5 -111t33.5 -161v-246h-308z" />
    <glyph glyph-name="uni06AA" unicode="&#x6aa;" horiz-adv-x="2117" 
d="M1759 44q75 44 119 119t44 164t-44 164.5t-119 119.5t-164 44h-713l516 630l-46 37l-554 -678l22 -48h775q73 0 135 -36t98 -97.5t36 -135.5q0 -73 -36 -134t-98 -97t-135 -36h-1073q-73 0 -135 36t-98 97t-36 134v302h-58v-300q0 -90 44 -165.5t119 -119.5t164 -44h1073
q89 0 164 44z" />
    <glyph glyph-name="uni06B5" unicode="&#x6b5;" horiz-adv-x="1508" 
d="M790 -551q155 0 272.5 72t181 192t63.5 261v1439h-59v-1436q0 -126 -55.5 -233t-159.5 -171t-243 -64h-102q-139 0 -243 64t-159.5 171t-55.5 233v424h-59v-427q0 -141 63.5 -261t181 -192t272.5 -72h102zM1548 2042h-64l-206 -235l-206 235h-64l252 -288h36z" />
    <glyph glyph-name="uni06C2" unicode="&#x6c2;" horiz-adv-x="1022" 
d="M735.5 525.5q71.5 -114.5 71.5 -210.5q0 -79 -42.5 -138.5t-110 -91.5t-141.5 -32q-72 0 -139.5 32.5t-110.5 92.5t-43 137q0 123 86 234t214 223q144 -132 215.5 -246.5zM268.5 591.5q-107.5 -133.5 -107.5 -276.5q0 -94 51 -167.5t132.5 -113.5t168.5 -40
q89 0 170.5 39t132 112.5t50.5 169.5q0 256 -408 590l-23 18l-37 -46l80 -66q-102 -86 -209.5 -219.5zM257 1206l425 162l-18 46l-161 -61q-94 0 -135 48t-40 110q0 58 40.5 109.5t104.5 51.5q39 0 68 -10.5t61 -29.5q3 -2 5 -3l8 49q-62 43 -142 43q-57 0 -101 -30.5
t-68.5 -79t-24.5 -100.5q0 -71 39.5 -123.5t100.5 -67.5l-179 -69z" />
    <glyph glyph-name="uni06C3" unicode="&#x6c3;" horiz-adv-x="1022" 
d="M735.5 525.5q71.5 -114.5 71.5 -210.5q0 -79 -42.5 -138.5t-110 -91.5t-141.5 -32q-72 0 -139.5 32.5t-110.5 92.5t-43 137q0 123 86 234t214 223q144 -132 215.5 -246.5zM268.5 591.5q-107.5 -133.5 -107.5 -276.5q0 -94 51 -167.5t132.5 -113.5t168.5 -40
q89 0 170.5 39t132 112.5t50.5 169.5q0 256 -408 590l-23 18l-37 -46l80 -66q-102 -86 -209.5 -219.5zM394.5 1305.5q-20.5 20.5 -49.5 20.5t-49.5 -20.5t-20.5 -49.5t20.5 -49.5t49.5 -20.5t49.5 20.5t20.5 49.5t-20.5 49.5zM694.5 1305.5q-20.5 20.5 -49.5 20.5
t-49.5 -20.5t-20.5 -49.5t20.5 -49.5t49.5 -20.5t49.5 20.5t20.5 49.5t-20.5 49.5z" />
    <glyph glyph-name="uni06CE" unicode="&#x6ce;" horiz-adv-x="1554" 
d="M1340.5 82q-78.5 80 -233.5 85h-308v268q0 80 38 145.5t104 104t145 38.5h255v59h-255q-95 0 -174.5 -46.5t-125.5 -126t-46 -174.5v-327h365q129 -4 186.5 -64.5t42.5 -191.5q-20 -172 -169.5 -257.5t-368.5 -85.5h-108q-140 0 -244 64t-159.5 171t-55.5 233l1 424h-59
v-427q0 -141 63 -261t180.5 -192t273.5 -72h108q272 0 419 108.5t177 286.5q27 158 -51.5 238zM470 1010h-64l-206 -235l-206 235h-64l252 -288h36z" />
    <glyph glyph-name="uni06D4" unicode="&#x6d4;" horiz-adv-x="714" 
d="M73 0v-52h567v52h-567z" />
    <glyph glyph-name="uni06F0" unicode="&#x6f0;" horiz-adv-x="995" 
d="M202.5 294q45.5 -78 124 -124t170.5 -46q93 0 171.5 46t124 124t45.5 171q0 92 -45.5 170.5t-124 124t-171.5 45.5q-92 0 -170.5 -45.5t-124 -124t-45.5 -170.5q0 -93 45.5 -171zM254 606q38 65 102.5 103t141.5 37q76 0 140.5 -38t102.5 -102.5t38 -140.5
q0 -77 -38 -141.5t-102.5 -102.5t-141.5 -38q-76 0 -140.5 38t-102.5 102.5t-38 141.5q0 76 38 141z" />
    <glyph glyph-name="uni06F1" unicode="&#x6f1;" horiz-adv-x="471" 
d="M300 591q0 139 -16.5 313.5t-46.5 304.5l-7 30l-60 -14l7 -30q30 -126 45.5 -296.5t15.5 -307.5v-591h62v591z" />
    <glyph glyph-name="uni06F2" unicode="&#x6f2;" horiz-adv-x="963" 
d="M237 1209l-7 30l-60 -14l7 -30q30 -126 45.5 -296.5t15.5 -307.5v-591h62v586q0 73 -5 160q22 -47 84.5 -74t133.5 -18q128 16 204 95.5t79 202.5q3 78 -4 139t-25 155l-60 -11q0 -4 1 -10q16 -82 23 -139.5t4 -131.5q-3 -100 -64 -163.5t-167 -75.5q-80 -10 -129.5 24.5
t-85.5 97.5q-17 220 -52 372z" />
    <glyph glyph-name="uni06F3" unicode="&#x6f3;" horiz-adv-x="1440" 
d="M1189.5 756q80.5 81 84.5 200q3 74 -4 132t-23 147l-3 15l-61 -11q1 -6 3 -16q17 -86 23 -139t4 -125q-4 -96 -70 -161.5t-173 -78.5q-64 -8 -117 20t-86 90q28 58 29 123q3 78 -4.5 139t-25.5 155l-60 -11q1 -3 2 -9q15 -82 22 -140t4 -132q-2 -100 -63.5 -163.5
t-166.5 -75.5q-81 -10 -130 24.5t-85 97.5q-17 219 -52 372l-7 30l-60 -14l7 -30q30 -126 45.5 -296.5t15.5 -307.5v-591h62v586q0 73 -5 160q22 -47 84.5 -74t132.5 -18q149 21 223 120q42 -66 106.5 -95.5t136.5 -20.5q131 17 211.5 98z" />
    <glyph glyph-name="uni06F4" unicode="&#x6f4;" horiz-adv-x="1329" 
d="M237 1209l-7 30l-60 -14l7 -30q30 -126 45.5 -296.5t15.5 -307.5v-591h62v587q0 75 -6 165q134 -207 557 -207q88 0 174.5 35t161.5 102l-30 49q-149 -124 -307 -125q-66 1 -132.5 25.5t-114 86t-47.5 165.5q2 134 82.5 219t215.5 90q97 0 185 -56l27 53q-98 65 -211 63
q-103 0 -185 -48t-128 -131.5t-46 -188.5q0 -97 39.5 -162.5t104.5 -102.5q-151 22 -230.5 86t-121.5 139q-17 216 -51 365z" />
    <glyph glyph-name="uni06F5" unicode="&#x6f5;" horiz-adv-x="1407" 
d="M621 1214q15 -12 47 -37q153 -119 239.5 -193t168.5 -175t126.5 -217.5t44.5 -257.5q0 -89 -42 -166.5t-112.5 -123.5t-152.5 -46q-71 0 -136.5 36t-104.5 97q-37 -64 -101 -98.5t-149 -34.5q-83 0 -149 44.5t-103.5 121t-37.5 170.5q0 203 149 396.5t384 350.5
q-25 19 -75 58q-23 17 -34 27zM1056 95.5q57 35.5 93.5 98.5t36.5 140q0 152 -55 273t-148.5 219.5t-242.5 215.5q-228 -152 -374 -335.5t-146 -372.5q0 -77 29.5 -139.5t81.5 -98.5t118 -36q112 0 175.5 67t63.5 187v77h59v-73q1 -62 -18 -121q27 -59 85 -98t126 -39
q59 0 116 35.5z" />
    <glyph glyph-name="uni06F6" unicode="&#x6f6;" horiz-adv-x="1061" 
d="M697.5 638q-94.5 -32 -182.5 -32q-65 0 -132 25t-114.5 86.5t-47.5 165.5q1 134 82 219t216 90q100 0 187 -56l27 53q-105 65 -213 63q-103 0 -185 -48t-128 -131.5t-46 -188.5q-1 -119 53.5 -194.5t134.5 -108.5t161 -33q103 0 212 48q-126 -127 -238.5 -277.5
t-189.5 -312.5l55 -26q100 210 253 394t310 318l-39 46q-81 -68 -175.5 -100z" />
    <glyph glyph-name="uni06F7" unicode="&#x6f7;" horiz-adv-x="1272" 
d="M818 604q-133 -334 -150 -609h-64q-12 188 -79.5 406.5t-167.5 429.5t-211 390l52 29q151 -240 271 -525.5t167 -585.5q47 300 167 585.5t271 525.5l53 -29q-176 -283 -309 -617z" />
    <glyph glyph-name="uni06F8" unicode="&#x6f8;" horiz-adv-x="1207" 
d="M818 639q-133 334 -150 609h-64q-12 -187 -79.5 -405.5t-167.5 -429.5t-211 -391l52 -29q151 240 271 525.5t167 585.5q47 -300 167 -585.5t271 -525.5l53 29q-176 283 -309 617z" />
    <glyph glyph-name="uni06F9" unicode="&#x6f9;" horiz-adv-x="1061" 
d="M827 714q-69 -57 -133 -78t-145 -31q-7 -1 -10 -1q-83 -11 -154 24t-112.5 104t-41.5 154q1 80 42 149t109.5 110t147.5 41q90 0 157 -48.5t103.5 -126.5t36.5 -163v-134zM827 0h61v848q0 101 -43.5 193t-125 149t-189.5 57q-95 0 -178 -49t-132.5 -132.5t-49.5 -179.5
q-1 -102 50.5 -186t138.5 -127.5t189 -30.5q2 1 8 1q77 10 139.5 29t131.5 69v-641z" />
    <glyph glyph-name="uni2009" unicode="&#x2009;" horiz-adv-x="101" 
 />
    <glyph glyph-name="uni200A" unicode="&#x200a;" horiz-adv-x="101" 
 />
    <glyph glyph-name="uni200B" unicode="&#x200b;" horiz-adv-x="0" 
 />
    <glyph glyph-name="uni200C" unicode="&#x200c;" horiz-adv-x="0" 
 />
    <glyph glyph-name="uni200D" unicode="&#x200d;" horiz-adv-x="0" 
 />
    <glyph glyph-name="uni200E" unicode="&#x200e;" horiz-adv-x="0" 
 />
    <glyph glyph-name="uni200F" unicode="&#x200f;" horiz-adv-x="0" 
 />
    <glyph glyph-name="quoteleft" unicode="&#x2018;" horiz-adv-x="476" 
d="M226 1101l96 353h-49l-120 -353h73z" />
    <glyph glyph-name="quoteright" unicode="&#x2019;" horiz-adv-x="476" 
d="M202 1101l120 353h-73l-96 -353h49z" />
    <glyph glyph-name="quotesinglbase" unicode="&#x201a;" horiz-adv-x="476" 
d="M202 -280l120 353h-73l-96 -353h49z" />
    <glyph glyph-name="quotedblleft" unicode="&#x201c;" horiz-adv-x="734" 
d="M484 1101l96 353h-49l-120 -353h73zM226 1101l96 353h-49l-120 -353h73z" />
    <glyph glyph-name="quotedblright" unicode="&#x201d;" horiz-adv-x="734" 
d="M460 1101l120 353h-73l-96 -353h49zM202 1101l120 353h-73l-96 -353h49z" />
    <glyph glyph-name="quotedblbase" unicode="&#x201e;" horiz-adv-x="734" 
d="M460 -280l120 353h-73l-96 -353h49zM202 -280l120 353h-73l-96 -353h49z" />
    <glyph glyph-name="guilsinglleft" unicode="&#x2039;" horiz-adv-x="885" 
d="M731 256l-516 385l516 384l-31 45l-547 -403v-53l547 -403z" />
    <glyph glyph-name="guilsinglright" unicode="&#x203a;" horiz-adv-x="885" 
d="M731 614v53l-547 403l-31 -45l516 -384l-516 -385l31 -45z" />
    <glyph glyph-name="infinity" unicode="&#x221e;" horiz-adv-x="1659" 
d="M686 394.5q90 63.5 143 174.5q53 -111 143.5 -174.5t205.5 -63.5q147 0 237 78t90 223q0 144 -90 222t-237 78q-115 0 -205.5 -63.5t-143.5 -174.5q-53 111 -143 174.5t-206 63.5q-147 0 -237 -78t-90 -222q0 -145 90 -223t237 -78q116 0 206 63.5zM282 451.5
q-69 64.5 -69 180.5q0 115 69 179.5t198 64.5q116 0 191.5 -60t130.5 -182q-95 -247 -322 -247q-129 0 -198 64.5zM989 448q-78 61 -133 181q53 123 131 185t191 62q129 0 198 -64.5t69 -179.5q0 -116 -69 -180.5t-198 -64.5q-111 0 -189 61z" />
    <glyph glyph-name="notequal" unicode="&#x2260;" horiz-adv-x="1139" 
d="M449 93l104 296h432v58h-412l76 211h336v56h-316l104 293h-60l-104 -293h-456v-56h436l-76 -211h-360v-58h340l-104 -296h60z" />
    <glyph glyph-name="lessequal" unicode="&#x2264;" horiz-adv-x="1254" 
d="M1100 231l-885 410l885 409v64l-947 -447v-53l947 -447v64zM1100 0v56h-947v-56h947z" />
    <glyph glyph-name="greaterequal" unicode="&#x2265;" horiz-adv-x="1254" 
d="M1100 614v53l-947 447v-64l885 -409l-885 -410v-64zM1100 0v56h-947v-56h947z" />
    <glyph glyph-name="uniE000" unicode="&#xe000;" horiz-adv-x="0" 
d="M-99.5 13.5q-20.5 20.5 -49.5 20.5t-49.5 -20.5t-20.5 -49.5t20.5 -49.5t49.5 -20.5t49.5 20.5t20.5 49.5t-20.5 49.5zM193.5 93.5q-20.5 20.5 -49.5 20.5t-49.5 -20.5t-20.5 -49.5t20.5 -49.5t49.5 -20.5t49.5 20.5t20.5 49.5t-20.5 49.5zM107.5 -163.5
q-20.5 20.5 -49.5 20.5t-49.5 -20.5t-20.5 -49.5t20.5 -49.5t49.5 -20.5t49.5 20.5t20.5 49.5t-20.5 49.5z" />
    <glyph glyph-name="uniE002" unicode="&#xe002;" horiz-adv-x="660" 
d="M-53 43.5q-15 -13.5 0 -27t53 -16.5h162q89 0 164 44t119 118.5t44 163.5v306h-58v-303q0 -73 -36.5 -135t-98 -98t-134.5 -36h-162q-38 -3 -53 -16.5z" />
    <glyph glyph-name="uniE003" unicode="&#xe003;" horiz-adv-x="790" 
d="M-53 43.5q-15 -13.5 0 -27t53 -16.5h162q101 0 182 56t116 147q35 -91 116 -147t182 -56h32v60h-32q-73 0 -135 36t-98 98t-36 135v281h-58v-281q0 -73 -36.5 -135t-98 -98t-134.5 -36h-162q-38 -3 -53 -16.5z" />
    <glyph glyph-name="uniE006" unicode="&#xe006;" horiz-adv-x="1009" 
d="M-53 43.5q-15 -13.5 0 -27t53 -16.5h510q89 0 164 44t119 118.5t44 163.5v306h-58v-303q0 -73 -36.5 -135t-98 -98t-134.5 -36h-510q-38 -3 -53 -16.5z" />
    <glyph glyph-name="uniE007" unicode="&#xe007;" horiz-adv-x="1028" 
d="M-53 43.5q-15 -13.5 0 -27t53 -16.5h400q101 0 182 56t116 147q35 -91 116 -147t182 -56h32v60h-32q-73 0 -134.5 36t-98 98t-36.5 135v281h-58v-281q0 -73 -36 -135t-98 -98t-135 -36h-400q-38 -3 -53 -16.5z" />
    <glyph glyph-name="uniE008" unicode="&#xe008;" horiz-adv-x="1336" 
d="M419 227q-118 -53 -188 -152.5t-70 -221.5q0 -110 53.5 -202.5t146 -147t202.5 -54.5h614v60h-614q-107 0 -195 60.5t-126 159.5q-33 87 -18 175t72 159t145 111l795 379l3 55l-228.5 132.5t-356.5 205.5q-77 44 -159.5 36t-151 -65.5t-103.5 -155.5l-9 -22l55 -22l9 23
q29 83 84.5 130.5t121.5 53.5t127 -29q412 -238 541 -311z" />
    <glyph glyph-name="uniE009" unicode="&#xe009;" horiz-adv-x="1398" 
d="M1236 556l3 52l-228.5 132.5t-356.5 205.5q-77 44 -159.5 36t-151 -65.5t-103.5 -155.5l-9 -22l55 -22l9 23q29 83 84.5 130.5t121.5 53.5t127 -29q412 -238 541 -311l-750 -357q-118 -53 -188 -152.5t-70 -221.5q0 -110 53.5 -202.5t146 -147t202.5 -54.5h614v60h-614
q-107 0 -195 60.5t-126 159.5q-33 87 -18 175t72 159t145 111l580 279l53 -263q20 -104 101.5 -147t162.5 -43h60v60h-60q-68 0 -131 31.5t-80 117.5l-55 268z" />
    <glyph glyph-name="uniE021" unicode="&#xe021;" horiz-adv-x="1695" 
d="M1341 44q75 44 119 118.5t44 163.5v1087h-59v-1084q0 -73 -36 -135t-97.5 -98t-134.5 -36h-678q-74 0 -135.5 36t-97.5 98t-36 135v303h-59v-306q0 -89 44 -163.5t119.5 -118.5t164.5 -44h678q89 0 164 44z" />
    <glyph glyph-name="uniE022" unicode="&#xe022;" horiz-adv-x="1833" 
d="M1358.5 56q80.5 56 116.5 147q35 -91 115.5 -147t182.5 -56h60v60h-60q-73 0 -135 36t-98 98t-36 135v1084h-59v-1084q0 -73 -36 -135t-97.5 -98t-134.5 -36h-678q-74 0 -135.5 36t-97.5 98t-36 135v303h-59v-306q0 -89 44 -163.5t119.5 -118.5t164.5 -44h678
q101 0 181.5 56z" />
    <glyph glyph-name="uE024" unicode="&#xe024;" horiz-adv-x="897" 
d="M684.5 55q87.5 -55 193.5 -55h19v60h-19q-89 0 -164.5 44t-119.5 119.5t-44 164.5v222h-59v-633q0 -122 -60.5 -230t-163.5 -173t-223 -65h-45v-60h45q136 0 252.5 72.5t185 193.5t68.5 258v228q47 -91 134.5 -146zM569 -889h-64l-206 -235l-206 235h-64l252 -288h36z
" />
    <glyph glyph-name="uE025" unicode="&#xe025;" horiz-adv-x="716" 
d="M-53 43.5q-15 -13.5 0 -27t53 -16.5h218q89 0 164 44t119 118.5t44 163.5v306h-59v-303q0 -73 -36 -135t-97.5 -98t-134.5 -36h-218q-38 -3 -53 -16.5zM191 1193.5q60 100.5 154 100.5q80 0 121.5 -51.5t41.5 -121.5q0 -56 -48 -93t-119 -37h-239q29 102 89 202.5z
M51 991h-50v-49h340q92 0 153 50.5t63 128.5q0 57 -24 107.5t-72 82t-116 31.5q-135 0 -229 -188v403h-49v-513q-8 -26 -16 -53z" />
    <glyph glyph-name="uE026" unicode="&#xe026;" horiz-adv-x="846" 
d="M-53 43.5q-15 -13.5 0 -27t53 -16.5h218q101 0 181.5 56t116.5 147q35 -91 115.5 -147t182.5 -56h32v60h-32q-73 0 -135 36t-98 98t-36 135v281h-59v-281q0 -73 -36 -135t-97.5 -98t-134.5 -36h-218q-38 -3 -53 -16.5zM191 1193.5q60 100.5 154 100.5q80 0 121.5 -51.5
t41.5 -121.5q0 -56 -48 -93t-119 -37h-239q29 102 89 202.5zM51 991h-50v-49h340q92 0 153 50.5t63 128.5q0 57 -24 107.5t-72 82t-116 31.5q-135 0 -229 -188v403h-49v-513q-8 -26 -16 -53z" />
    <glyph glyph-name="uE027" unicode="&#xe027;" horiz-adv-x="1646" 
d="M1646 60h-874v-59h430q54 -4 93.5 -55.5t38.5 -115.5q-1 -120 -72.5 -191.5t-175 -100.5t-213.5 -29h-185q-139 0 -243 64t-159.5 171t-55.5 233v424h-59l1 -427q0 -141 63 -261t180.5 -192t272.5 -72h185q159 0 278 51t181.5 138t60.5 192q-5 115 -83 170h336v60z
M471 1010h-64l-206 -235l-206 235h-64l252 -288h36z" />
    <glyph glyph-name="uE028" unicode="&#xe028;" horiz-adv-x="661" 
d="M-53 43.5q-15 -13.5 0 -27t53 -16.5h162q89 0 164 44t119 118.5t44 163.5v306h-58v-303q0 -73 -36.5 -135t-98 -98t-134.5 -36h-162q-38 -3 -53 -16.5zM2.5 -434.5q-20.5 20.5 -49.5 20.5t-49.5 -20.5t-20.5 -49.5t20.5 -49.5t49.5 -20.5t49.5 20.5t20.5 49.5t-20.5 49.5
zM302.5 -434.5q-20.5 20.5 -49.5 20.5t-49.5 -20.5t-20.5 -49.5t20.5 -49.5t49.5 -20.5t49.5 20.5t20.5 49.5t-20.5 49.5zM680 1214h-64l-206 -235l-206 235h-64l252 -288h36z" />
    <glyph glyph-name="uE029" unicode="&#xe029;" horiz-adv-x="790" 
d="M-53 43.5q-15 -13.5 0 -27t53 -16.5h162q101 0 182 56t116 147q35 -91 116 -147t182 -56h32v60h-32q-73 0 -135 36t-98 98t-36 135v281h-58v-281q0 -73 -36.5 -135t-98 -98t-134.5 -36h-162q-38 -3 -53 -16.5zM2.5 -434.5q-20.5 20.5 -49.5 20.5t-49.5 -20.5t-20.5 -49.5
t20.5 -49.5t49.5 -20.5t49.5 20.5t20.5 49.5t-20.5 49.5zM302.5 -434.5q-20.5 20.5 -49.5 20.5t-49.5 -20.5t-20.5 -49.5t20.5 -49.5t49.5 -20.5t49.5 20.5t20.5 49.5t-20.5 49.5zM680 1193h-64l-206 -235l-206 235h-64l252 -288h36z" />
    <glyph glyph-name="uniFEEA0654" unicode="&#xe030;" horiz-adv-x="1175" 
d="M980 60q78 -59 176 -60h19v60h-19q-89 1 -156 59t-80 146l-109 745l-58 -7l23 -160q-216 12 -357.5 -48.5t-205.5 -177t-56 -271.5q6 -110 75.5 -180.5t179 -90.5t232.5 14.5t230 123.5q28 -94 106 -153zM860 271q-148 -120 -297.5 -140t-243.5 42.5t-103 175.5
q-8 143 51.5 245t189.5 153t327 38zM261 1146l425 162l-18 46l-161 -61q-94 0 -135 48t-40 110q0 58 40.5 109.5t104.5 51.5q39 0 68 -10.5t61 -29.5q3 -2 5 -3l8 49q-62 43 -142 43q-57 0 -101 -30.5t-68.5 -79t-24.5 -100.5q0 -71 39.5 -123.5t100.5 -67.5l-179 -69z" />
    <glyph glyph-name="uE060_uFBB5" unicode="&#xe032;" horiz-adv-x="836" 
d="M-53 43.5q-15 -13.5 0 -27t53 -16.5h337q89 0 164 44t119 118.5t44 163.5v306h-58v-303q0 -73 -36.5 -135t-98 -98t-134.5 -36h-337q-38 -3 -53 -16.5zM228.5 -434.5q-20.5 20.5 -49.5 20.5t-49.5 -20.5t-20.5 -49.5t20.5 -49.5t49.5 -20.5t49.5 20.5t20.5 49.5
t-20.5 49.5zM528.5 -434.5q-20.5 20.5 -49.5 20.5t-49.5 -20.5t-20.5 -49.5t20.5 -49.5t49.5 -20.5t49.5 20.5t20.5 49.5t-20.5 49.5z" />
    <glyph glyph-name="uE061_uFBB5" unicode="&#xe033;" horiz-adv-x="965" 
d="M-53 43.5q-15 -13.5 0 -27t53 -16.5h337q101 0 181.5 56.5t116.5 146.5q35 -90 116 -146.5t182 -56.5h32v60h-32q-73 0 -135 36t-98 98t-36 135v281h-58v-281q0 -73 -36.5 -135t-98 -98t-134.5 -36h-337q-38 -3 -53 -16.5zM228.5 -434.5q-20.5 20.5 -49.5 20.5
t-49.5 -20.5t-20.5 -49.5t20.5 -49.5t49.5 -20.5t49.5 20.5t20.5 49.5t-20.5 49.5zM528.5 -434.5q-20.5 20.5 -49.5 20.5t-49.5 -20.5t-20.5 -49.5t20.5 -49.5t49.5 -20.5t49.5 20.5t20.5 49.5t-20.5 49.5z" />
    <glyph glyph-name="uniE006_uFBB5" unicode="&#xe034;" horiz-adv-x="1009" 
d="M-53 43.5q-15 -13.5 0 -27t53 -16.5h510q89 0 164 44t119 118.5t44 163.5v306h-58v-303q0 -73 -36.5 -135t-98 -98t-134.5 -36h-510q-38 -3 -53 -16.5zM153.5 -434.5q-20.5 20.5 -49.5 20.5t-49.5 -20.5t-20.5 -49.5t20.5 -49.5t49.5 -20.5t49.5 20.5t20.5 49.5
t-20.5 49.5zM453.5 -434.5q-20.5 20.5 -49.5 20.5t-49.5 -20.5t-20.5 -49.5t20.5 -49.5t49.5 -20.5t49.5 20.5t20.5 49.5t-20.5 49.5z" />
    <glyph glyph-name="uniE007_uFBB5" unicode="&#xe035;" horiz-adv-x="1028" 
d="M-53 43.5q-15 -13.5 0 -27t53 -16.5h400q101 0 182 56t116 147q35 -91 116 -147t182 -56h32v60h-32q-73 0 -134.5 36t-98 98t-36.5 135v281h-58v-281q0 -73 -36 -135t-98 -98t-135 -36h-400q-38 -3 -53 -16.5zM153.5 -434.5q-20.5 20.5 -49.5 20.5t-49.5 -20.5
t-20.5 -49.5t20.5 -49.5t49.5 -20.5t49.5 20.5t20.5 49.5t-20.5 49.5zM453.5 -434.5q-20.5 20.5 -49.5 20.5t-49.5 -20.5t-20.5 -49.5t20.5 -49.5t49.5 -20.5t49.5 20.5t20.5 49.5t-20.5 49.5z" />
    <glyph glyph-name="uE060_uFBB9" unicode="&#xe036;" horiz-adv-x="836" 
d="M-53 43.5q-15 -13.5 0 -27t53 -16.5h337q89 0 164 44t119 118.5t44 163.5v306h-58v-303q0 -73 -36.5 -135t-98 -98t-134.5 -36h-337q-38 -3 -53 -16.5zM228.5 -339.5q-20.5 20.5 -49.5 20.5t-49.5 -20.5t-20.5 -49.5t20.5 -49.5t49.5 -20.5t49.5 20.5t20.5 49.5
t-20.5 49.5zM528.5 -339.5q-20.5 20.5 -49.5 20.5t-49.5 -20.5t-20.5 -49.5t20.5 -49.5t49.5 -20.5t49.5 20.5t20.5 49.5t-20.5 49.5zM378.5 -619.5q-20.5 20.5 -49.5 20.5t-49.5 -20.5t-20.5 -49.5t20.5 -49.5t49.5 -20.5t49.5 20.5t20.5 49.5t-20.5 49.5z" />
    <glyph glyph-name="uE061_uFBB9" unicode="&#xe037;" horiz-adv-x="965" 
d="M-53 43.5q-15 -13.5 0 -27t53 -16.5h337q101 0 181.5 56.5t116.5 146.5q35 -90 116 -146.5t182 -56.5h32v60h-32q-73 0 -135 36t-98 98t-36 135v281h-58v-281q0 -73 -36.5 -135t-98 -98t-134.5 -36h-337q-38 -3 -53 -16.5zM228.5 -339.5q-20.5 20.5 -49.5 20.5
t-49.5 -20.5t-20.5 -49.5t20.5 -49.5t49.5 -20.5t49.5 20.5t20.5 49.5t-20.5 49.5zM528.5 -339.5q-20.5 20.5 -49.5 20.5t-49.5 -20.5t-20.5 -49.5t20.5 -49.5t49.5 -20.5t49.5 20.5t20.5 49.5t-20.5 49.5zM378.5 -619.5q-20.5 20.5 -49.5 20.5t-49.5 -20.5t-20.5 -49.5
t20.5 -49.5t49.5 -20.5t49.5 20.5t20.5 49.5t-20.5 49.5z" />
    <glyph glyph-name="uniE006_uFBB9" unicode="&#xe038;" horiz-adv-x="1009" 
d="M-53 43.5q-15 -13.5 0 -27t53 -16.5h510q89 0 164 44t119 118.5t44 163.5v306h-58v-303q0 -73 -36.5 -135t-98 -98t-134.5 -36h-510q-38 -3 -53 -16.5zM153.5 -339.5q-20.5 20.5 -49.5 20.5t-49.5 -20.5t-20.5 -49.5t20.5 -49.5t49.5 -20.5t49.5 20.5t20.5 49.5
t-20.5 49.5zM453.5 -339.5q-20.5 20.5 -49.5 20.5t-49.5 -20.5t-20.5 -49.5t20.5 -49.5t49.5 -20.5t49.5 20.5t20.5 49.5t-20.5 49.5zM303.5 -619.5q-20.5 20.5 -49.5 20.5t-49.5 -20.5t-20.5 -49.5t20.5 -49.5t49.5 -20.5t49.5 20.5t20.5 49.5t-20.5 49.5z" />
    <glyph glyph-name="uniE007_uFBB9" unicode="&#xe039;" horiz-adv-x="1028" 
d="M-53 43.5q-15 -13.5 0 -27t53 -16.5h400q101 0 182 56t116 147q35 -91 116 -147t182 -56h32v60h-32q-73 0 -134.5 36t-98 98t-36.5 135v281h-58v-281q0 -73 -36 -135t-98 -98t-135 -36h-400q-38 -3 -53 -16.5zM153.5 -339.5q-20.5 20.5 -49.5 20.5t-49.5 -20.5
t-20.5 -49.5t20.5 -49.5t49.5 -20.5t49.5 20.5t20.5 49.5t-20.5 49.5zM453.5 -339.5q-20.5 20.5 -49.5 20.5t-49.5 -20.5t-20.5 -49.5t20.5 -49.5t49.5 -20.5t49.5 20.5t20.5 49.5t-20.5 49.5zM303.5 -619.5q-20.5 20.5 -49.5 20.5t-49.5 -20.5t-20.5 -49.5t20.5 -49.5
t49.5 -20.5t49.5 20.5t20.5 49.5t-20.5 49.5z" />
    <glyph glyph-name="uniE002_uFBB3" unicode="&#xe040;" horiz-adv-x="660" 
d="M-53 43.5q-15 -13.5 0 -27t53 -16.5h162q89 0 164 44t119 118.5t44 163.5v306h-58v-303q0 -73 -36.5 -135t-98 -98t-134.5 -36h-162q-38 -3 -53 -16.5zM220.5 -434.5q-20.5 20.5 -49.5 20.5t-49.5 -20.5t-20.5 -49.5t20.5 -49.5t49.5 -20.5t49.5 20.5t20.5 49.5
t-20.5 49.5z" />
    <glyph glyph-name="uniE003_uFBB3" unicode="&#xe041;" horiz-adv-x="790" 
d="M-53 43.5q-15 -13.5 0 -27t53 -16.5h162q101 0 182 56t116 147q35 -91 116 -147t182 -56h32v60h-32q-73 0 -135 36t-98 98t-36 135v281h-58v-281q0 -73 -36.5 -135t-98 -98t-134.5 -36h-162q-38 -3 -53 -16.5zM220.5 -434.5q-20.5 20.5 -49.5 20.5t-49.5 -20.5
t-20.5 -49.5t20.5 -49.5t49.5 -20.5t49.5 20.5t20.5 49.5t-20.5 49.5z" />
    <glyph glyph-name="uniFBE8FBB4" unicode="&#xe042;" horiz-adv-x="716" 
d="M-53 43.5q-15 -13.5 0 -27t53 -16.5h218q89 0 164 44t119 118.5t44 163.5v306h-59v-303q0 -73 -36 -135t-97.5 -98t-134.5 -36h-218q-38 -3 -53 -16.5zM211.5 1072.5q-20.5 20.5 -49.5 20.5t-49.5 -20.5t-20.5 -49.5t20.5 -49.5t49.5 -20.5t49.5 20.5t20.5 49.5
t-20.5 49.5zM511.5 1072.5q-20.5 20.5 -49.5 20.5t-49.5 -20.5t-20.5 -49.5t20.5 -49.5t49.5 -20.5t49.5 20.5t20.5 49.5t-20.5 49.5z" />
    <glyph glyph-name="uniFBE9FBB4" unicode="&#xe043;" horiz-adv-x="846" 
d="M-53 43.5q-15 -13.5 0 -27t53 -16.5h218q101 0 181.5 56t116.5 147q35 -91 115.5 -147t182.5 -56h32v60h-32q-73 0 -135 36t-98 98t-36 135v281h-59v-281q0 -73 -36 -135t-97.5 -98t-134.5 -36h-218q-38 -3 -53 -16.5zM211.5 1051.5q-20.5 20.5 -49.5 20.5t-49.5 -20.5
t-20.5 -49.5t20.5 -49.5t49.5 -20.5t49.5 20.5t20.5 49.5t-20.5 49.5zM511.5 1051.5q-20.5 20.5 -49.5 20.5t-49.5 -20.5t-20.5 -49.5t20.5 -49.5t49.5 -20.5t49.5 20.5t20.5 49.5t-20.5 49.5z" />
    <glyph glyph-name="uniFBE8FBB6" unicode="&#xe044;" horiz-adv-x="716" 
d="M-53 43.5q-15 -13.5 0 -27t53 -16.5h218q89 0 164 44t119 118.5t44 163.5v306h-59v-303q0 -73 -36 -135t-97.5 -98t-134.5 -36h-218q-38 -3 -53 -16.5zM211.5 1072.5q-20.5 20.5 -49.5 20.5t-49.5 -20.5t-20.5 -49.5t20.5 -49.5t49.5 -20.5t49.5 20.5t20.5 49.5
t-20.5 49.5zM511.5 1072.5q-20.5 20.5 -49.5 20.5t-49.5 -20.5t-20.5 -49.5t20.5 -49.5t49.5 -20.5t49.5 20.5t20.5 49.5t-20.5 49.5zM361.5 1352.5q-20.5 20.5 -49.5 20.5t-49.5 -20.5t-20.5 -49.5t20.5 -49.5t49.5 -20.5t49.5 20.5t20.5 49.5t-20.5 49.5z" />
    <glyph glyph-name="uniFBE9FBB6" unicode="&#xe045;" horiz-adv-x="846" 
d="M-53 43.5q-15 -13.5 0 -27t53 -16.5h218q101 0 181.5 56t116.5 147q35 -91 115.5 -147t182.5 -56h32v60h-32q-73 0 -135 36t-98 98t-36 135v281h-59v-281q0 -73 -36 -135t-97.5 -98t-134.5 -36h-218q-38 -3 -53 -16.5zM211.5 1051.5q-20.5 20.5 -49.5 20.5t-49.5 -20.5
t-20.5 -49.5t20.5 -49.5t49.5 -20.5t49.5 20.5t20.5 49.5t-20.5 49.5zM511.5 1051.5q-20.5 20.5 -49.5 20.5t-49.5 -20.5t-20.5 -49.5t20.5 -49.5t49.5 -20.5t49.5 20.5t20.5 49.5t-20.5 49.5zM361.5 1331.5q-20.5 20.5 -49.5 20.5t-49.5 -20.5t-20.5 -49.5t20.5 -49.5
t49.5 -20.5t49.5 20.5t20.5 49.5t-20.5 49.5z" />
    <glyph glyph-name="uE046" unicode="&#xe046;" horiz-adv-x="836" 
d="M-53 43.5q-15 -13.5 0 -27t53 -16.5h337q89 0 164 44t119 118.5t44 163.5v306h-58v-303q0 -73 -36.5 -135t-98 -98t-134.5 -36h-337q-38 -3 -53 -16.5zM228.5 -434.5q-20.5 20.5 -49.5 20.5t-49.5 -20.5t-20.5 -49.5t20.5 -49.5t49.5 -20.5t49.5 20.5t20.5 49.5
t-20.5 49.5zM528.5 -434.5q-20.5 20.5 -49.5 20.5t-49.5 -20.5t-20.5 -49.5t20.5 -49.5t49.5 -20.5t49.5 20.5t20.5 49.5t-20.5 49.5zM805 1214h-64l-206 -235l-206 235h-64l252 -288h36z" />
    <glyph glyph-name="uE047" unicode="&#xe047;" horiz-adv-x="1009" 
d="M-53 43.5q-15 -13.5 0 -27t53 -16.5h510q89 0 164 44t119 118.5t44 163.5v306h-58v-303q0 -73 -36.5 -135t-98 -98t-134.5 -36h-510q-38 -3 -53 -16.5zM153.5 -434.5q-20.5 20.5 -49.5 20.5t-49.5 -20.5t-20.5 -49.5t20.5 -49.5t49.5 -20.5t49.5 20.5t20.5 49.5
t-20.5 49.5zM453.5 -434.5q-20.5 20.5 -49.5 20.5t-49.5 -20.5t-20.5 -49.5t20.5 -49.5t49.5 -20.5t49.5 20.5t20.5 49.5t-20.5 49.5zM978 1196h-64l-206 -235l-206 235h-64l252 -288h36z" />
    <glyph glyph-name="uniE054" unicode="&#xe054;" horiz-adv-x="0" 
d="M34.5 25.5q89.5 25.5 129 72.5t39.5 116v109h-290v100q0 60 44 104.5t105 44.5h141v48h-141q-52 0 -97.5 -27t-72.5 -72.5t-27 -97.5v-103q-1 -17 13 -31t30 -14h247v-61q0 -95 -95.5 -131t-262.5 -34v-48q148 -1 237.5 24.5z" />
    <glyph glyph-name="uE055" unicode="&#xe055;" horiz-adv-x="0" 
d="M-125 1356q1 2 3 8q39 112 96.5 203.5t147.5 91.5q80 0 122 -51.5t42 -121.5q0 -56 -48 -93t-120 -37h-243zM-251 1450.5q-35 59.5 -35 119.5v24h-48v-24q0 -62 30 -123.5t77 -100.5t96 -39h249q61 0 110.5 23.5t77.5 64.5t28 91q0 57 -23.5 107.5t-71.5 82t-117 31.5
q-81 0 -141 -60.5t-93 -130.5t-58 -142q-1 -3 -2 -5q-44 22 -79 81.5z" />
    <glyph glyph-name="farsiyeharab.fina.1" unicode="&#xe056;" horiz-adv-x="1592" 
d="M1592 60h-820v-59h430q54 -4 93.5 -55.5t38.5 -115.5q-1 -120 -72.5 -191.5t-175 -100.5t-213.5 -29h-185q-139 0 -243 64t-159.5 171t-55.5 233v424h-59l1 -427q0 -141 63 -261t180.5 -192t272.5 -72h185q159 0 278 51t181.5 138t60.5 192q-5 115 -83 170h282v60z" />
    <glyph glyph-name="yeharab.fina.1" unicode="&#xe057;" horiz-adv-x="1592" 
d="M1592 60h-820v-59h430q54 -4 93.5 -55.5t38.5 -115.5q-1 -120 -72.5 -191.5t-175 -100.5t-213.5 -29h-185q-139 0 -243 64t-159.5 171t-55.5 233v424h-59l1 -427q0 -141 63 -261t180.5 -192t272.5 -72h185q159 0 278 51t181.5 138t60.5 192q-5 115 -83 170h282v60z
M679.5 -859.5q-20.5 20.5 -49.5 20.5t-49.5 -20.5t-20.5 -49.5t20.5 -49.5t49.5 -20.5t49.5 20.5t20.5 49.5t-20.5 49.5zM979.5 -859.5q-20.5 20.5 -49.5 20.5t-49.5 -20.5t-20.5 -49.5t20.5 -49.5t49.5 -20.5t49.5 20.5t20.5 49.5t-20.5 49.5z" />
    <glyph glyph-name="farsiyeharab_u0654" unicode="&#xe058;" horiz-adv-x="1592" 
d="M1592 60h-820v-59h430q54 -4 93.5 -55.5t38.5 -115.5q-1 -120 -72.5 -191.5t-175 -100.5t-213.5 -29h-185q-139 0 -243 64t-159.5 171t-55.5 233v424h-59l1 -427q0 -141 63 -261t180.5 -192t272.5 -72h185q159 0 278 51t181.5 138t60.5 192q-5 115 -83 170h282v60z
M127 704l425 162l-18 46l-161 -61q-94 0 -135 48t-40 110q0 58 40.5 109.5t104.5 51.5q39 0 68 -10.5t61 -29.5q3 -2 5 -3l8 49q-62 43 -142 43q-57 0 -101 -30.5t-68.5 -79t-24.5 -100.5q0 -71 39.5 -123.5t100.5 -67.5l-179 -69z" />
    <glyph glyph-name="uE059" unicode="&#xe059;" horiz-adv-x="1028" 
d="M-53 43.5q-15 -13.5 0 -27t53 -16.5h400q101 0 182 56t116 147q35 -91 116 -147t182 -56h32v60h-32q-73 0 -134.5 36t-98 98t-36.5 135v281h-58v-281q0 -73 -36 -135t-98 -98t-135 -36h-400q-38 -3 -53 -16.5zM153.5 -434.5q-20.5 20.5 -49.5 20.5t-49.5 -20.5
t-20.5 -49.5t20.5 -49.5t49.5 -20.5t49.5 20.5t20.5 49.5t-20.5 49.5zM453.5 -434.5q-20.5 20.5 -49.5 20.5t-49.5 -20.5t-20.5 -49.5t20.5 -49.5t49.5 -20.5t49.5 20.5t20.5 49.5t-20.5 49.5zM868 1193h-64l-206 -235l-206 235h-64l252 -288h36z" />
    <glyph glyph-name="uE060" unicode="&#xe060;" horiz-adv-x="836" 
d="M-53 43.5q-15 -13.5 0 -27t53 -16.5h337q89 0 164 44t119 118.5t44 163.5v306h-58v-303q0 -73 -36.5 -135t-98 -98t-134.5 -36h-337q-38 -3 -53 -16.5z" />
    <glyph glyph-name="uE061" unicode="&#xe061;" horiz-adv-x="965" 
d="M-53 43.5q-15 -13.5 0 -27t53 -16.5h337q101 0 181.5 56.5t116.5 146.5q35 -90 116 -146.5t182 -56.5h32v60h-32q-73 0 -135 36t-98 98t-36 135v281h-58v-281q0 -73 -36.5 -135t-98 -98t-134.5 -36h-337q-38 -3 -53 -16.5z" />
    <glyph glyph-name="uE062" unicode="&#xe062;" horiz-adv-x="965" 
d="M-53 43.5q-15 -13.5 0 -27t53 -16.5h337q101 0 181.5 56.5t116.5 146.5q35 -90 116 -146.5t182 -56.5h32v60h-32q-73 0 -135 36t-98 98t-36 135v281h-58v-281q0 -73 -36.5 -135t-98 -98t-134.5 -36h-337q-38 -3 -53 -16.5zM228.5 -434.5q-20.5 20.5 -49.5 20.5
t-49.5 -20.5t-20.5 -49.5t20.5 -49.5t49.5 -20.5t49.5 20.5t20.5 49.5t-20.5 49.5zM528.5 -434.5q-20.5 20.5 -49.5 20.5t-49.5 -20.5t-20.5 -49.5t20.5 -49.5t49.5 -20.5t49.5 20.5t20.5 49.5t-20.5 49.5zM805 1193h-64l-206 -235l-206 235h-64l252 -288h36z" />
    <glyph glyph-name="uE066" unicode="&#xe066;" horiz-adv-x="1421" 
d="M510 15l-249 919q-21 76 15.5 145.5t110.5 96.5q81 27 153.5 -7t103.5 -114l160 -441l53 -5l371 619l-50 30l-339 -566l-140 383q-38 97 -125.5 142t-188.5 20q-105 -33 -156 -122.5t-24 -195.5l248 -919z" />
    <glyph glyph-name="uE067" unicode="&#xe067;" horiz-adv-x="1222" 
d="M595 1.5q205 2.5 404 68.5l28 9l-19 56l-27 -9q-191 -64 -381 -66t-347 58q5 180 81 370.5t174.5 346.5t176 253t104.5 125l-44 39q-78 -86 -197 -247t-235 -409t-118 -490l23 -38q172 -69 377 -66.5z" />
    <glyph glyph-name="uniE069" unicode="&#xe069;" horiz-adv-x="659" 
d="M-53 43.5q-15 -13.5 0 -27t53 -16.5h32q101 0 181.5 56.5t116.5 146.5q35 -90 116 -146.5t182 -56.5h31v60h-31q-74 0 -135.5 36t-97.5 98t-36 135v832h-59v-832q0 -73 -36 -135t-97.5 -98t-134.5 -36h-32q-38 -3 -53 -16.5z" />
    <glyph glyph-name="uE070" unicode="&#xe070;" horiz-adv-x="814" 
d="M-53 43.5q-15 -13.5 0 -27t53 -16.5h315q89 0 164.5 44t119.5 118.5t44 163.5v306h-59v-303q0 -73 -36 -135t-97.5 -98t-135.5 -36h-315q-38 -3 -53 -16.5zM-13.5 -339.5q-20.5 20.5 -49.5 20.5t-49.5 -20.5t-20.5 -49.5t20.5 -49.5t49.5 -20.5t49.5 20.5t20.5 49.5
t-20.5 49.5zM286.5 -339.5q-20.5 20.5 -49.5 20.5t-49.5 -20.5t-20.5 -49.5t20.5 -49.5t49.5 -20.5t49.5 20.5t20.5 49.5t-20.5 49.5zM136.5 -619.5q-20.5 20.5 -49.5 20.5t-49.5 -20.5t-20.5 -49.5t20.5 -49.5t49.5 -20.5t49.5 20.5t20.5 49.5t-20.5 49.5z" />
    <glyph glyph-name="uE071" unicode="&#xe071;" horiz-adv-x="944" 
d="M-53 43.5q-15 -13.5 0 -27t53 -16.5h315q101 0 182 56.5t116 146.5q36 -90 116.5 -146.5t181.5 -56.5h33v60h-33q-73 0 -134.5 36t-97.5 98t-36 135v281h-59v-281q0 -73 -36 -135t-97.5 -98t-135.5 -36h-315q-38 -3 -53 -16.5zM-13.5 -339.5q-20.5 20.5 -49.5 20.5
t-49.5 -20.5t-20.5 -49.5t20.5 -49.5t49.5 -20.5t49.5 20.5t20.5 49.5t-20.5 49.5zM286.5 -339.5q-20.5 20.5 -49.5 20.5t-49.5 -20.5t-20.5 -49.5t20.5 -49.5t49.5 -20.5t49.5 20.5t20.5 49.5t-20.5 49.5zM136.5 -619.5q-20.5 20.5 -49.5 20.5t-49.5 -20.5t-20.5 -49.5
t20.5 -49.5t49.5 -20.5t49.5 20.5t20.5 49.5t-20.5 49.5z" />
    <glyph glyph-name="uE072" unicode="&#xe072;" horiz-adv-x="814" 
d="M-53 43.5q-15 -13.5 0 -27t53 -16.5h315q89 0 164.5 44t119.5 118.5t44 163.5v306h-59v-303q0 -73 -36 -135t-97.5 -98t-135.5 -36h-315q-38 -3 -53 -16.5zM-13.5 -434.5q-20.5 20.5 -49.5 20.5t-49.5 -20.5t-20.5 -49.5t20.5 -49.5t49.5 -20.5t49.5 20.5t20.5 49.5
t-20.5 49.5zM286.5 -434.5q-20.5 20.5 -49.5 20.5t-49.5 -20.5t-20.5 -49.5t20.5 -49.5t49.5 -20.5t49.5 20.5t20.5 49.5t-20.5 49.5z" />
    <glyph glyph-name="uE073" unicode="&#xe073;" horiz-adv-x="944" 
d="M-53 43.5q-15 -13.5 0 -27t53 -16.5h315q101 0 182 56.5t116 146.5q36 -90 116.5 -146.5t181.5 -56.5h33v60h-33q-73 0 -134.5 36t-97.5 98t-36 135v281h-59v-281q0 -73 -36 -135t-97.5 -98t-135.5 -36h-315q-38 -3 -53 -16.5zM-13.5 -434.5q-20.5 20.5 -49.5 20.5
t-49.5 -20.5t-20.5 -49.5t20.5 -49.5t49.5 -20.5t49.5 20.5t20.5 49.5t-20.5 49.5zM286.5 -434.5q-20.5 20.5 -49.5 20.5t-49.5 -20.5t-20.5 -49.5t20.5 -49.5t49.5 -20.5t49.5 20.5t20.5 49.5t-20.5 49.5z" />
    <glyph glyph-name="uE074" unicode="&#xe074;" horiz-adv-x="814" 
d="M-53 43.5q-15 -13.5 0 -27t53 -16.5h315q89 0 164.5 44t119.5 118.5t44 163.5v306h-59v-303q0 -73 -36 -135t-97.5 -98t-135.5 -36h-315q-38 -3 -53 -16.5zM-13.5 -434.5q-20.5 20.5 -49.5 20.5t-49.5 -20.5t-20.5 -49.5t20.5 -49.5t49.5 -20.5t49.5 20.5t20.5 49.5
t-20.5 49.5zM286.5 -434.5q-20.5 20.5 -49.5 20.5t-49.5 -20.5t-20.5 -49.5t20.5 -49.5t49.5 -20.5t49.5 20.5t20.5 49.5t-20.5 49.5zM783 1217h-64l-206 -235l-206 235h-64l252 -288h36z" />
    <glyph glyph-name="uE075" unicode="&#xe075;" horiz-adv-x="944" 
d="M-53 43.5q-15 -13.5 0 -27t53 -16.5h315q101 0 182 56.5t116 146.5q36 -90 116.5 -146.5t181.5 -56.5h33v60h-33q-73 0 -134.5 36t-97.5 98t-36 135v281h-59v-281q0 -73 -36 -135t-97.5 -98t-135.5 -36h-315q-38 -3 -53 -16.5zM-13.5 -434.5q-20.5 20.5 -49.5 20.5
t-49.5 -20.5t-20.5 -49.5t20.5 -49.5t49.5 -20.5t49.5 20.5t20.5 49.5t-20.5 49.5zM286.5 -434.5q-20.5 20.5 -49.5 20.5t-49.5 -20.5t-20.5 -49.5t20.5 -49.5t49.5 -20.5t49.5 20.5t20.5 49.5t-20.5 49.5zM783 1196h-64l-206 -235l-206 235h-64l252 -288h36z" />
    <glyph glyph-name="uE076" unicode="&#xe076;" horiz-adv-x="814" 
d="M-53 43.5q-15 -13.5 0 -27t53 -16.5h315q89 0 164.5 44t119.5 118.5t44 163.5v306h-59v-303q0 -73 -36 -135t-97.5 -98t-135.5 -36h-315q-38 -3 -53 -16.5z" />
    <glyph glyph-name="uE077" unicode="&#xe077;" horiz-adv-x="944" 
d="M-53 43.5q-15 -13.5 0 -27t53 -16.5h315q101 0 182 56.5t116 146.5q36 -90 116.5 -146.5t181.5 -56.5h33v60h-33q-73 0 -134.5 36t-97.5 98t-36 135v281h-59v-281q0 -73 -36 -135t-97.5 -98t-135.5 -36h-315q-38 -3 -53 -16.5z" />
    <glyph glyph-name="uE078" unicode="&#xe078;" horiz-adv-x="1784" 
d="M1530.5 108q91.5 108 91.5 313q0 115 -51 198.5t-135 127t-178 43.5q-96 1 -180 -45.5t-134 -127.5t-49 -178q5 -236 247 -379h-643q-74 0 -135.5 36t-97.5 98t-36 135v265h-59v-268q0 -89 44 -163.5t119.5 -118.5t164.5 -44h765q175 0 266.5 108zM953 440q0 81 42 148.5
t112.5 106t150.5 38.5q78 0 148 -34.5t114 -105t44 -172.5q0 -151 -65.5 -255.5t-234.5 -105.5q-309 118 -311 380z" />
    <glyph glyph-name="uE079" unicode="&#xe079;" horiz-adv-x="1092" 
d="M262 440q-1 81 41 148.5t112.5 106t151.5 38.5q77 0 147 -34.5t114 -105t44 -172.5q0 -151 -65 -255.5t-235 -105.5q-309 118 -310 380zM-53 43.5q-15 -13.5 0 -27t53 -16.5h571q176 0 268 108t92 313q0 115 -51.5 198.5t-135 127t-177.5 43.5q-97 1 -180.5 -45.5
t-133.5 -127.5t-50 -178q1 -115 64.5 -212.5t183.5 -166.5h-451q-38 -3 -53 -16.5z" />
    <glyph glyph-name="uE080" unicode="&#xe080;" horiz-adv-x="782" 
d="M104 -551q137 0 253 72.5t184.5 194t68.5 258.5v636h-58v-633q0 -122 -60.5 -230t-163.5 -173t-224 -65h-104v-60h104z" />
    <glyph glyph-name="uE081" unicode="&#xe081;" horiz-adv-x="957" 
d="M104 -551q137 0 253 72.5t184.5 193.5t68.5 258v228q47 -91 135 -146t194 -55h18v60h-18q-90 0 -165.5 44t-119.5 119.5t-44 164.5v222h-58v-633q0 -122 -60.5 -230t-163.5 -173t-224 -65h-104v-60h104z" />
    <glyph glyph-name="uE082" unicode="&#xe082;" horiz-adv-x="782" 
d="M104 -551q137 0 253 72.5t184.5 194t68.5 258.5v636h-58v-633q0 -122 -60.5 -230t-163.5 -173t-224 -65h-104v-60h104zM630.5 1051.5q-20.5 20.5 -49.5 20.5t-49.5 -20.5t-20.5 -49.5t20.5 -49.5t49.5 -20.5t49.5 20.5t20.5 49.5t-20.5 49.5z" />
    <glyph glyph-name="uE083" unicode="&#xe083;" horiz-adv-x="957" 
d="M104 -551q137 0 253 72.5t184.5 193.5t68.5 258v228q47 -91 135 -146t194 -55h18v60h-18q-90 0 -165.5 44t-119.5 119.5t-44 164.5v222h-58v-633q0 -122 -60.5 -230t-163.5 -173t-224 -65h-104v-60h104zM630.5 1051.5q-20.5 20.5 -49.5 20.5t-49.5 -20.5t-20.5 -49.5
t20.5 -49.5t49.5 -20.5t49.5 20.5t20.5 49.5t-20.5 49.5z" />
    <glyph glyph-name="uE084" unicode="&#xe084;" horiz-adv-x="782" 
d="M104 -551q137 0 253 72.5t184.5 194t68.5 258.5v636h-58v-633q0 -122 -60.5 -230t-163.5 -173t-224 -65h-104v-60h104zM480.5 1051.5q-20.5 20.5 -49.5 20.5t-49.5 -20.5t-20.5 -49.5t20.5 -49.5t49.5 -20.5t49.5 20.5t20.5 49.5t-20.5 49.5zM780.5 1051.5
q-20.5 20.5 -49.5 20.5t-49.5 -20.5t-20.5 -49.5t20.5 -49.5t49.5 -20.5t49.5 20.5t20.5 49.5t-20.5 49.5zM630.5 1331.5q-20.5 20.5 -49.5 20.5t-49.5 -20.5t-20.5 -49.5t20.5 -49.5t49.5 -20.5t49.5 20.5t20.5 49.5t-20.5 49.5z" />
    <glyph glyph-name="uE085" unicode="&#xe085;" horiz-adv-x="957" 
d="M104 -551q137 0 253 72.5t184.5 193.5t68.5 258v228q47 -91 135 -146t194 -55h18v60h-18q-90 0 -165.5 44t-119.5 119.5t-44 164.5v222h-58v-633q0 -122 -60.5 -230t-163.5 -173t-224 -65h-104v-60h104zM480.5 1051.5q-20.5 20.5 -49.5 20.5t-49.5 -20.5t-20.5 -49.5
t20.5 -49.5t49.5 -20.5t49.5 20.5t20.5 49.5t-20.5 49.5zM780.5 1051.5q-20.5 20.5 -49.5 20.5t-49.5 -20.5t-20.5 -49.5t20.5 -49.5t49.5 -20.5t49.5 20.5t20.5 49.5t-20.5 49.5zM630.5 1331.5q-20.5 20.5 -49.5 20.5t-49.5 -20.5t-20.5 -49.5t20.5 -49.5t49.5 -20.5
t49.5 20.5t20.5 49.5t-20.5 49.5z" />
    <glyph glyph-name="uE086" unicode="&#xe086;" horiz-adv-x="782" 
d="M104 -551q137 0 253 72.5t184.5 194t68.5 258.5v636h-58v-633q0 -122 -60.5 -230t-163.5 -173t-224 -65h-104v-60h104zM493 1203.5q60 100.5 154 100.5q80 0 121.5 -51.5t41.5 -121.5q0 -56 -48 -93t-119 -37h-239q29 102 89 202.5zM353 1001h-50v-49h340q92 0 153 50.5
t63 128.5q0 57 -24 107.5t-72 82t-116 31.5q-135 0 -229 -188v403h-49v-513q-8 -26 -16 -53z" />
    <glyph glyph-name="uE087" unicode="&#xe087;" horiz-adv-x="957" 
d="M104 -551q137 0 253 72.5t184.5 193.5t68.5 258v228q47 -91 135 -146t194 -55h18v60h-18q-90 0 -165.5 44t-119.5 119.5t-44 164.5v222h-58v-633q0 -122 -60.5 -230t-163.5 -173t-224 -65h-104v-60h104zM493 1203.5q60 100.5 154 100.5q80 0 121.5 -51.5t41.5 -121.5
q0 -56 -48 -93t-119 -37h-239q29 102 89 202.5zM353 1001h-50v-49h340q92 0 153 50.5t63 128.5q0 57 -24 107.5t-72 82t-116 31.5q-135 0 -229 -188v403h-49v-513q-8 -26 -16 -53z" />
    <glyph glyph-name="uE088" unicode="&#xe088;" horiz-adv-x="782" 
d="M104 -551q137 0 253 72.5t184.5 194t68.5 258.5v636h-58v-633q0 -122 -60.5 -230t-163.5 -173t-224 -65h-104v-60h104zM583 -889h-64l-206 -235l-206 235h-64l252 -288h36z" />
    <glyph glyph-name="uE089" unicode="&#xe089;" horiz-adv-x="957" 
d="M104 -551q137 0 253 72.5t184.5 193.5t68.5 258v228q47 -91 135 -146t194 -55h18v60h-18q-90 0 -165.5 44t-119.5 119.5t-44 164.5v222h-58v-633q0 -122 -60.5 -230t-163.5 -173t-224 -65h-104v-60h104zM583 -889h-64l-206 -235l-206 235h-64l252 -288h36z" />
    <glyph glyph-name="uE090" unicode="&#xe090;" horiz-adv-x="1608" 
d="M790 -551q154 0 271.5 71.5t181 191t64.5 259.5v185q41 -71 112.5 -114t156.5 -43h32v60h-32q-74 0 -135.5 36t-97.5 98t-36 135v1085h-59v-1436q0 -126 -55.5 -233t-159.5 -171t-243 -64h-102q-139 0 -243 64t-159.5 171t-55.5 233v424h-59v-427q0 -141 63.5 -261
t181 -192t272.5 -72h102zM1545 2042h-64l-206 -235l-206 235h-64l252 -288h36z" />
    <glyph glyph-name="uE091" unicode="&#xe091;" horiz-adv-x="611" 
d="M-53 43.5q-15 -13.5 0 -27t53 -16.5h83q89 0 164 44t119 119t44 164v1086h-59v-1084q0 -73 -36 -135t-97.5 -98t-134.5 -36h-83q-38 -3 -53 -16.5zM651 2042h-64l-206 -235l-206 235h-64l252 -288h36z" />
    <glyph glyph-name="uE092" unicode="&#xe092;" horiz-adv-x="711" 
d="M-53 43.5q-15 -13.5 0 -27t53 -16.5h83q101 0 181.5 56t116.5 147q35 -91 115.5 -147t182.5 -56h32v60h-32q-74 0 -135.5 36t-97.5 98t-36 135v1084h-59v-1084q0 -73 -36 -135t-97.5 -98t-134.5 -36h-83q-38 -3 -53 -16.5zM651 2042h-64l-206 -235l-206 235h-64l252 -288
h36z" />
    <glyph glyph-name="uniE094" unicode="&#xe094;" horiz-adv-x="0" 
d="M73 149q-24 23 -63 22.5t-79 -32.5v28q-1 76 49 134.5t126 71.5l13 2l-8 52l-9 -2q-99 -18 -160.5 -90t-62.5 -171v-63q0 -44 31.5 -75t77.5 -31t77.5 26.5t31.5 70.5q0 34 -24 57z" />
    <glyph glyph-name="uE098" unicode="&#xe098;" horiz-adv-x="2223" 
d="M1776 55.5q81 55.5 117 145.5q36 -90 117 -145.5t181 -55.5h32v60h-32q-73 0 -134.5 36t-98 97t-36.5 134q0 89 -44 164.5t-119 119.5t-164 44h-713l516 630l-46 37l-554 -678l22 -48h775q73 0 135 -36t98 -97.5t36 -135.5q0 -73 -36 -134t-98 -97t-135 -36h-1073
q-73 0 -135 36t-98 97t-36 134v302h-58v-300q0 -90 44 -165.5t119 -119.5t164 -44h1073q100 0 181 55.5z" />
    <glyph glyph-name="uE099" unicode="&#xe099;" horiz-adv-x="1511" 
d="M-53 43.5q-15 -13.5 0 -27t53 -16.5h989q89 0 164 44t119 119t44 164t-44 164.5t-119 119.5t-164 44h-713l515 630l-45 37l-554 -678l22 -48h775q73 0 134.5 -36t98 -97.5t36.5 -135.5q0 -73 -36.5 -134t-98 -97t-134.5 -36h-989q-38 -3 -53 -16.5z" />
    <glyph glyph-name="uE0A0" unicode="&#xe0a0;" horiz-adv-x="1617" 
d="M-53 43.5q-15 -13.5 0 -27t53 -16.5h989q100 0 181 55.5t117 145.5q36 -90 117 -145.5t181 -55.5h32v60h-32q-73 0 -135 36t-98 97t-36 134q0 89 -44 164.5t-119 119.5t-164 44h-713l515 630l-45 37l-554 -678l22 -48h775q73 0 134.5 -36t98 -97.5t36.5 -135.5
q0 -73 -36.5 -134t-98 -97t-134.5 -36h-989q-38 -3 -53 -16.5z" />
    <glyph glyph-name="uE100" unicode="&#xe100;" horiz-adv-x="1784" 
d="M1530.5 108q91.5 108 91.5 313q0 115 -51 198.5t-135 127t-178 43.5q-96 1 -180 -45.5t-134 -127.5t-49 -178q5 -236 247 -379h-643q-74 0 -135.5 36t-97.5 98t-36 135v265h-59v-268q0 -89 44 -163.5t119.5 -118.5t164.5 -44h765q175 0 266.5 108zM953 440q0 81 42 148.5
t112.5 106t150.5 38.5q78 0 148 -34.5t114 -105t44 -172.5q0 -151 -65.5 -255.5t-234.5 -105.5q-309 118 -311 380zM1307.5 1208.5q-20.5 20.5 -49.5 20.5t-49.5 -20.5t-20.5 -49.5t20.5 -49.5t49.5 -20.5t49.5 20.5t20.5 49.5t-20.5 49.5z" />
    <glyph glyph-name="uE101" unicode="&#xe101;" horiz-adv-x="1092" 
d="M262 440q-1 81 41 148.5t112.5 106t151.5 38.5q77 0 147 -34.5t114 -105t44 -172.5q0 -151 -65 -255.5t-235 -105.5q-309 118 -310 380zM-53 43.5q-15 -13.5 0 -27t53 -16.5h571q176 0 268 108t92 313q0 115 -51.5 198.5t-135 127t-177.5 43.5q-97 1 -180.5 -45.5
t-133.5 -127.5t-50 -178q1 -115 64.5 -212.5t183.5 -166.5h-451q-38 -3 -53 -16.5zM616.5 1208.5q-20.5 20.5 -49.5 20.5t-49.5 -20.5t-20.5 -49.5t20.5 -49.5t49.5 -20.5t49.5 20.5t20.5 49.5t-20.5 49.5z" />
    <glyph glyph-name="uE102" unicode="&#xe102;" horiz-adv-x="1092" 
d="M262 440q-1 81 41 148.5t112.5 106t151.5 38.5q77 0 147 -34.5t114 -105t44 -172.5q0 -151 -65 -255.5t-235 -105.5q-309 118 -310 380zM-53 43.5q-15 -13.5 0 -27t53 -16.5h571q176 0 268 108t92 313q0 115 -51.5 198.5t-135 127t-177.5 43.5q-97 1 -180.5 -45.5
t-133.5 -127.5t-50 -178q1 -115 64.5 -212.5t183.5 -166.5h-451q-38 -3 -53 -16.5zM466.5 1208.5q-20.5 20.5 -49.5 20.5t-49.5 -20.5t-20.5 -49.5t20.5 -49.5t49.5 -20.5t49.5 20.5t20.5 49.5t-20.5 49.5zM766.5 1208.5q-20.5 20.5 -49.5 20.5t-49.5 -20.5t-20.5 -49.5
t20.5 -49.5t49.5 -20.5t49.5 20.5t20.5 49.5t-20.5 49.5z" />
    <glyph glyph-name="uE103" unicode="&#xe103;" horiz-adv-x="1784" 
d="M1530.5 108q91.5 108 91.5 313q0 115 -51 198.5t-135 127t-178 43.5q-96 1 -180 -45.5t-134 -127.5t-49 -178q5 -236 247 -379h-643q-74 0 -135.5 36t-97.5 98t-36 135v265h-59v-268q0 -89 44 -163.5t119.5 -118.5t164.5 -44h765q175 0 266.5 108zM953 440q0 81 42 148.5
t112.5 106t150.5 38.5q78 0 148 -34.5t114 -105t44 -172.5q0 -151 -65.5 -255.5t-234.5 -105.5q-309 118 -311 380zM1167.5 1208.5q-20.5 20.5 -49.5 20.5t-49.5 -20.5t-20.5 -49.5t20.5 -49.5t49.5 -20.5t49.5 20.5t20.5 49.5t-20.5 49.5zM1467.5 1208.5
q-20.5 20.5 -49.5 20.5t-49.5 -20.5t-20.5 -49.5t20.5 -49.5t49.5 -20.5t49.5 20.5t20.5 49.5t-20.5 49.5zM1317.5 1488.5q-20.5 20.5 -49.5 20.5t-49.5 -20.5t-20.5 -49.5t20.5 -49.5t49.5 -20.5t49.5 20.5t20.5 49.5t-20.5 49.5z" />
    <glyph glyph-name="uE104" unicode="&#xe104;" horiz-adv-x="1092" 
d="M262 440q-1 81 41 148.5t112.5 106t151.5 38.5q77 0 147 -34.5t114 -105t44 -172.5q0 -151 -65 -255.5t-235 -105.5q-309 118 -310 380zM-53 43.5q-15 -13.5 0 -27t53 -16.5h571q176 0 268 108t92 313q0 115 -51.5 198.5t-135 127t-177.5 43.5q-97 1 -180.5 -45.5
t-133.5 -127.5t-50 -178q1 -115 64.5 -212.5t183.5 -166.5h-451q-38 -3 -53 -16.5zM466.5 1208.5q-20.5 20.5 -49.5 20.5t-49.5 -20.5t-20.5 -49.5t20.5 -49.5t49.5 -20.5t49.5 20.5t20.5 49.5t-20.5 49.5zM766.5 1208.5q-20.5 20.5 -49.5 20.5t-49.5 -20.5t-20.5 -49.5
t20.5 -49.5t49.5 -20.5t49.5 20.5t20.5 49.5t-20.5 49.5zM616.5 1488.5q-20.5 20.5 -49.5 20.5t-49.5 -20.5t-20.5 -49.5t20.5 -49.5t49.5 -20.5t49.5 20.5t20.5 49.5t-20.5 49.5z" />
    <glyph glyph-name="uE105" unicode="&#xe105;" horiz-adv-x="0" 
d="M49.5 -0.5q-20.5 20.5 -49.5 20.5t-49.5 -20.5t-20.5 -49.5t20.5 -49.5t49.5 -20.5t49.5 20.5t20.5 49.5t-20.5 49.5z" />
    <glyph glyph-name="uE106" unicode="&#xe106;" horiz-adv-x="1592" 
d="M1592 60h-820v-59h430q54 -4 93.5 -55.5t38.5 -115.5q-1 -120 -72.5 -191.5t-175 -100.5t-213.5 -29h-185q-139 0 -243 64t-159.5 171t-55.5 233v424h-59l1 -427q0 -141 63 -261t180.5 -192t272.5 -72h185q159 0 278 51t181.5 138t60.5 192q-5 115 -83 170h282v60z
M471 1013h-64l-206 -235l-206 235h-64l252 -288h36z" />
    <glyph glyph-name="uE107" unicode="&#xe107;" horiz-adv-x="1624" 
d="M1285.5 677q79.5 -49 123.5 -138t44 -206v-323q0 -176 -70 -302t-202 -192.5t-314 -66.5h-179q-155 0 -272.5 72t-181 192t-63.5 261v427h59v-424q0 -126 55.5 -233t159.5 -171t243 -64h179q250 0 388.5 128.5t138.5 362.5h-292q-168 0 -259.5 88t-91.5 245
q0 114 44.5 203.5t124.5 139.5t182 50q104 0 183.5 -49zM1394 333q0 84 -29.5 160t-95 125.5t-167.5 49.5q-88 0 -154.5 -42.5t-102.5 -118.5t-36 -174q0 -130 76 -201.5t217 -71.5h292v273zM1008.5 1144.5q-20.5 20.5 -49.5 20.5t-49.5 -20.5t-20.5 -49.5t20.5 -49.5
t49.5 -20.5t49.5 20.5t20.5 49.5t-20.5 49.5zM1308.5 1144.5q-20.5 20.5 -49.5 20.5t-49.5 -20.5t-20.5 -49.5t20.5 -49.5t49.5 -20.5t49.5 20.5t20.5 49.5t-20.5 49.5z" />
    <glyph glyph-name="uE108" unicode="&#xe108;" horiz-adv-x="0" 
d="M-99.5 13.5q-20.5 20.5 -49.5 20.5t-49.5 -20.5t-20.5 -49.5t20.5 -49.5t49.5 -20.5t49.5 20.5t20.5 49.5t-20.5 49.5zM173.5 93.5q-20.5 20.5 -49.5 20.5t-49.5 -20.5t-20.5 -49.5t20.5 -49.5t49.5 -20.5t49.5 20.5t20.5 49.5t-20.5 49.5zM97.5 -141.5
q-20.5 20.5 -49.5 20.5t-49.5 -20.5t-20.5 -49.5t20.5 -49.5t49.5 -20.5t49.5 20.5t20.5 49.5t-20.5 49.5z" />
    <glyph glyph-name="uE109" unicode="&#xe109;" horiz-adv-x="1139" 
d="M260 301v918h-59v-918h59zM201 60v-60h409q89 0 164.5 44t119.5 119t44 164v1086h-59v-1084q0 -73 -36 -135t-98 -98t-135 -36h-409zM135 1515q1 2 3 8q39 112 96.5 203.5t147.5 91.5q80 0 122 -51.5t42 -121.5q0 -56 -48 -93t-120 -37h-243zM9 1609.5
q-35 59.5 -35 119.5v24h-48v-24q0 -62 30 -123.5t77 -100.5t96 -39h249q61 0 110.5 23.5t77.5 64.5t28 91q0 57 -23.5 107.5t-71.5 82t-117 31.5q-81 0 -141 -60.5t-93 -130.5t-58 -142q-1 -3 -2 -5q-44 22 -79 81.5z" />
    <glyph glyph-name="uE110" unicode="&#xe110;" horiz-adv-x="1239" 
d="M1239 60h-33q-73 0 -134.5 36t-97.5 98t-36 135v1084h-59v-1084q0 -73 -36 -135t-98 -98t-135 -36h-409v-60h409q101 0 182 56.5t116 146.5q36 -90 116.5 -146.5t181.5 -56.5h33v60zM260 301v918h-59v-918h59zM135 1515q1 2 3 8q39 112 96.5 203.5t147.5 91.5
q80 0 122 -51.5t42 -121.5q0 -56 -48 -93t-120 -37h-243zM9 1609.5q-35 59.5 -35 119.5v24h-48v-24q0 -62 30 -123.5t77 -100.5t96 -39h249q61 0 110.5 23.5t77.5 64.5t28 91q0 57 -23.5 107.5t-71.5 82t-117 31.5q-81 0 -141 -60.5t-93 -130.5t-58 -142q-1 -3 -2 -5
q-44 22 -79 81.5z" />
    <glyph glyph-name="uE111" unicode="&#xe111;" horiz-adv-x="1139" 
d="M260 301v918h-59v-918h59zM201 60v-60h409q89 0 164.5 44t119.5 119t44 164v1086h-59v-1084q0 -73 -36 -135t-98 -98t-135 -36h-409zM37 1416l482 191l-18 45l-482 -191zM-64 1698l482 191l-18 45l-482 -191z" />
    <glyph glyph-name="uE112" unicode="&#xe112;" horiz-adv-x="1239" 
d="M1239 60h-33q-73 0 -134.5 36t-97.5 98t-36 135v1084h-59v-1084q0 -73 -36 -135t-98 -98t-135 -36h-409v-60h409q101 0 182 56.5t116 146.5q36 -90 116.5 -146.5t181.5 -56.5h33v60zM260 301v918h-59v-918h59zM37 1416l482 191l-18 45l-482 -191zM-64 1698l482 191
l-18 45l-482 -191z" />
    <glyph glyph-name="uE113" unicode="&#xe113;" horiz-adv-x="1138" 
d="M260 301v918h-59v-918h59zM201 60v-60h409q89 0 164.5 44t119.5 119t44 164v1086h-59v-1084q0 -73 -36 -135t-98 -98t-135 -36h-409zM1178 2042l-64 1l-206 -235l-206 235l-64 -1l252 -288h37z" />
    <glyph glyph-name="uE114" unicode="&#xe114;" horiz-adv-x="1239" 
d="M1239 60h-33q-73 0 -134.5 36t-97.5 98t-36 135v1084h-59v-1084q0 -73 -36 -135t-98 -98t-135 -36h-409v-60h409q101 0 182 56.5t116 146.5q36 -90 116.5 -146.5t181.5 -56.5h33v60zM260 301v918h-59v-918h59zM1178 2042l-64 1l-206 -235l-206 235l-64 -1l252 -288h37z
" />
    <glyph glyph-name="uE124" unicode="&#xe124;" horiz-adv-x="1139" 
d="M260 301v918h-59v-918h59zM201 60v-60h409q89 0 164.5 44t119.5 119t44 164v1086h-59v-1084q0 -73 -36 -135t-98 -98t-135 -36h-409zM135 1515q1 2 3 8q39 112 96.5 203.5t147.5 91.5q80 0 122 -51.5t42 -121.5q0 -56 -48 -93t-120 -37h-243zM9 1609.5
q-35 59.5 -35 119.5v24h-48v-24q0 -62 30 -123.5t77 -100.5t96 -39h249q61 0 110.5 23.5t77.5 64.5t28 91q0 57 -23.5 107.5t-71.5 82t-117 31.5q-81 0 -141 -60.5t-93 -130.5t-58 -142q-1 -3 -2 -5q-44 22 -79 81.5zM1179 2042h-64l-206 -235l-206 235h-64l252 -288h36z
" />
    <glyph glyph-name="uE125" unicode="&#xe125;" horiz-adv-x="1239" 
d="M1239 60h-33q-73 0 -134.5 36t-97.5 98t-36 135v1084h-59v-1084q0 -73 -36 -135t-98 -98t-135 -36h-409v-60h409q101 0 182 56.5t116 146.5q36 -90 116.5 -146.5t181.5 -56.5h33v60zM260 301v918h-59v-918h59zM135 1515q1 2 3 8q39 112 96.5 203.5t147.5 91.5
q80 0 122 -51.5t42 -121.5q0 -56 -48 -93t-120 -37h-243zM9 1609.5q-35 59.5 -35 119.5v24h-48v-24q0 -62 30 -123.5t77 -100.5t96 -39h249q61 0 110.5 23.5t77.5 64.5t28 91q0 57 -23.5 107.5t-71.5 82t-117 31.5q-81 0 -141 -60.5t-93 -130.5t-58 -142q-1 -3 -2 -5
q-44 22 -79 81.5zM1179 2042h-64l-206 -235l-206 235h-64l252 -288h36z" />
    <glyph glyph-name="uE126" unicode="&#xe126;" horiz-adv-x="1139" 
d="M260 301v918h-59v-918h59zM201 60v-60h409q89 0 164.5 44t119.5 119t44 164v1086h-59v-1084q0 -73 -36 -135t-98 -98t-135 -36h-409zM37 1416l482 191l-18 45l-482 -191zM-64 1698l482 191l-18 45l-482 -191zM1179 2042h-64l-206 -235l-206 235h-64l252 -288h36z" />
    <glyph glyph-name="uniE127" unicode="&#xe127;" horiz-adv-x="0" 
d="M241 1546l-18 46l-576 -218l1 -51z" />
    <glyph glyph-name="uE128" unicode="&#xe128;" horiz-adv-x="1239" 
d="M1239 60h-33q-73 0 -134.5 36t-97.5 98t-36 135v1084h-59v-1084q0 -73 -36 -135t-98 -98t-135 -36h-409v-60h409q101 0 182 56.5t116 146.5q36 -90 116.5 -146.5t181.5 -56.5h33v60zM260 301v918h-59v-918h59zM37 1416l482 191l-18 45l-482 -191zM-64 1698l482 191
l-18 45l-482 -191zM1179 2042h-64l-206 -235l-206 235h-64l252 -288h36z" />
    <glyph glyph-name="uE130" unicode="&#xe130;" horiz-adv-x="0" 
d="M-47 -83h93v83h-93v-83z" />
    <glyph glyph-name="uE1A0" unicode="&#xe1a0;" 
d="M1178 167q141 189 141 516q0 380 -130 575.5t-439 195.5q-209 0 -334.5 -91t-180 -261t-54.5 -419q0 -327 141 -516t428 -189t428 189zM364.5 211q-123.5 178 -123.5 472q0 175 25.5 306.5t84.5 222.5t158 139t241 48t241 -48t158 -139t84.5 -222.5t25.5 -306.5
q0 -294 -123.5 -472t-385.5 -178t-385.5 178z" />
    <glyph glyph-name="uE1A1" unicode="&#xe1a1;" 
d="M892 0v1454l-284 -46v-58l222 42v-1392h62z" />
    <glyph glyph-name="uE1A2" unicode="&#xe1a2;" 
d="M1164 0v55h-761q40 112 113.5 199.5t189.5 192.5q17 18 55 49q33 29 49 44q156 131 247 255.5t91 282.5q0 181 -114.5 278.5t-325.5 97.5q-83 0 -169.5 -14.5t-144.5 -38.5v-58q154 56 323 56q184 0 277.5 -88t93.5 -233q0 -120 -52 -213.5t-184 -213.5q-42 -40 -100 -91
q-162 -140 -265.5 -255.5t-150.5 -251.5v-53h828z" />
    <glyph glyph-name="uE1A3" unicode="&#xe1a3;" 
d="M1041 80q129 102 129 300q0 147 -83 236t-230 116q138 28 209 130.5t71 227.5q0 173 -110 268.5t-346 95.5q-87 0 -179 -15.5t-146 -37.5v-58q160 56 327 56q203 0 298.5 -78t95.5 -231q0 -160 -95.5 -247t-284.5 -87h-158l-11 -56h186q189 0 292.5 -78.5t103.5 -241.5
q0 -173 -110 -260t-328 -87q-98 0 -179 13.5t-163 42.5v-58q57 -22 150.5 -37.5t191.5 -15.5q240 0 369 102z" />
    <glyph glyph-name="uE1A4" unicode="&#xe1a4;" 
d="M1091 0v360h161v56h-161v1016h-64l-779 -1001v-71h781v-360h62zM1029 1348v-932h-725z" />
    <glyph glyph-name="uE1A5" unicode="&#xe1a5;" 
d="M1045 91.5q129 113.5 129 322.5q0 231 -122.5 325.5t-351.5 87.5h-323l36 550h638l11 55h-698l-38 -578v-82h396q220 0 306 -84.5t86 -273.5q0 -185 -111.5 -283t-322.5 -98q-105 0 -186 13.5t-161 42.5v-58q58 -24 151.5 -38.5t193.5 -14.5q238 0 367 113.5z" />
    <glyph glyph-name="uE1A6" unicode="&#xe1a6;" 
d="M1105.5 99q125.5 121 125.5 332q0 221 -118.5 335.5t-352.5 114.5q-102 0 -215.5 -37t-213.5 -110v147q0 229 119 373.5t341 144.5q187 0 309 -42v57q-58 20 -135.5 30t-173.5 10q-238 0 -380 -156.5t-142 -423.5v-367q0 -276 121 -402.5t361 -126.5q229 0 354.5 121z
M435.5 140q-104.5 107 -104.5 322v214q87 67 201.5 108t220.5 41q225 0 321.5 -101t96.5 -293q0 -184 -107.5 -291t-314.5 -107q-209 0 -313.5 107z" />
    <glyph glyph-name="uE1A7" unicode="&#xe1a7;" 
d="M612 0l574 1361v71h-872v-55h819l-581 -1377h60z" />
    <glyph glyph-name="uE1A8" unicode="&#xe1a8;" 
d="M1116 75.5q130 97.5 130 284.5q0 147 -80 233.5t-256 120.5q156 42 225 135.5t69 224.5q0 116 -51.5 201.5t-153.5 132t-249 46.5q-218 0 -336 -102t-118 -278q0 -120 67 -209t209 -125q-156 -33 -237 -134t-81 -246q0 -187 130 -284.5t366 -97.5t366 97.5zM625 776
q-269 53 -269 298q0 156 101.5 240.5t292.5 84.5t292.5 -84.5t101.5 -240.5q0 -142 -77 -220t-250 -116zM314 360q0 156 88 239.5t250 114.5l214 -42q171 -36 245.5 -104t74.5 -208q0 -164 -109 -245.5t-327 -81.5q-436 0 -436 327z" />
    <glyph glyph-name="uE1A9" unicode="&#xe1a9;" 
d="M1100 140q131 162 131 418v367q0 280 -115.5 404.5t-355.5 124.5q-225 0 -357 -121t-134 -343q0 -221 122 -335.5t356 -114.5q231 0 422 147v-140q0 -227 -113.5 -370.5t-335.5 -143.5q-207 0 -320 42v-57q60 -18 143.5 -29t176.5 -11q249 0 380 162zM437.5 689.5
q-106.5 93.5 -108.5 300.5q0 186 112 297.5t321 111.5t308 -107t99 -322v-225q-84 -69 -191 -109t-225 -40q-209 0 -315.5 93.5z" />
    <glyph glyph-name="uE1B0" unicode="&#xe1b0;" 
d="M455 294q46 -78 124 -124t171 -46t171 46t124 124t46 171q0 92 -46 170.5t-124 124t-171 45.5t-171 -45.5t-124 -124t-46 -170.5q0 -93 46 -171zM506.5 606q37.5 65 102.5 103t141 37q77 0 141.5 -38t102 -102.5t37.5 -140.5q0 -77 -37.5 -141.5t-102 -102.5t-141.5 -38
t-141.5 38t-102 102.5t-37.5 141.5q0 76 37.5 141z" />
    <glyph glyph-name="uE1B1" unicode="&#xe1b1;" 
d="M815 591q0 139 -16.5 313.5t-46.5 304.5l-7 30l-60 -14l7 -30q30 -126 45.5 -296.5t15.5 -307.5v-591h62v591z" />
    <glyph glyph-name="uE1B2" unicode="&#xe1b2;" 
d="M504 1209l-8 30l-60 -14l8 -30q29 -126 45 -296.5t16 -307.5v-591h61v586q0 73 -5 160q23 -47 85 -74t133 -18q129 16 204.5 95.5t79.5 202.5q3 78 -4.5 139t-25.5 155l-60 -11q1 -4 2 -10q15 -82 22 -139.5t4 -131.5q-2 -100 -63.5 -163.5t-166.5 -75.5
q-81 -10 -130.5 24.5t-84.5 97.5q-17 220 -52 372z" />
    <glyph glyph-name="uE1B3" unicode="&#xe1b3;" 
d="M1217 756q81 81 85 200q2 74 -4.5 132t-22.5 147l-3 15l-61 -11q1 -6 3 -16q16 -86 22.5 -139t3.5 -125q-3 -96 -69 -161.5t-174 -78.5q-63 -8 -116.5 20t-85.5 90q27 58 28 123q3 78 -4 139t-25 155l-60 -11q0 -3 1 -9q16 -82 23 -140t4 -132q-3 -100 -64 -163.5
t-167 -75.5q-80 -10 -129 24.5t-85 97.5q-17 219 -52 372l-7 30l-60 -14l7 -30q30 -126 45.5 -296.5t15.5 -307.5v-591h61v586q0 73 -4 160q22 -47 84 -74t133 -18q149 21 223 120q42 -66 106 -95.5t137 -20.5q130 17 211 98z" />
    <glyph glyph-name="uE1B4" unicode="&#xe1b4;" 
d="M309 1209l-7 30l-60 -14l7 -30q29 -126 45 -296.5t16 -307.5v-591h61v587q0 75 -5 165q134 -207 556 -207q88 0 175 35t161 102l-29 49q-149 -124 -307 -125q-66 1 -132.5 25.5t-114 86t-48.5 165.5q2 134 82.5 219t216.5 90q97 0 185 -56l27 53q-98 65 -211 63
q-103 0 -185 -48t-128 -131.5t-46 -188.5q0 -97 39 -162.5t104 -102.5q-150 22 -229.5 86t-121.5 139q-17 216 -51 365z" />
    <glyph glyph-name="uE1B5" unicode="&#xe1b5;" 
d="M668 1214q16 -12 47 -37q153 -119 239.5 -193t168.5 -175t126.5 -217.5t44.5 -257.5q0 -89 -42 -166.5t-112.5 -123.5t-152.5 -46q-71 0 -136.5 36t-104.5 97q-37 -64 -101 -98.5t-149 -34.5q-82 0 -148.5 44.5t-104 121t-37.5 170.5q0 203 149.5 396.5t383.5 350.5
q-25 19 -75 58q-23 17 -34 27zM1103 95.5q57 35.5 93.5 98.5t36.5 140q0 152 -55 273t-148.5 219.5t-242.5 215.5q-228 -152 -374 -335.5t-146 -372.5q0 -77 29.5 -139.5t82 -98.5t117.5 -36q112 0 175.5 67t63.5 187v77h59v-73q1 -62 -18 -121q27 -59 85 -98t126 -39
q59 0 116 35.5z" />
    <glyph glyph-name="uE1B6" unicode="&#xe1b6;" 
d="M911.5 638q-94.5 -32 -182.5 -32q-66 0 -132.5 25t-114 86.5t-48.5 165.5q2 134 82.5 219t216.5 90q100 0 187 -56l26 53q-104 65 -213 63q-103 0 -184.5 -48t-127.5 -131.5t-47 -188.5q0 -119 54.5 -194.5t134.5 -108.5t161 -33q103 0 212 48q-127 -127 -239.5 -277.5
t-189.5 -312.5l55 -26q101 210 254 394t310 318l-40 46q-80 -68 -174.5 -100z" />
    <glyph glyph-name="uE1B7" unicode="&#xe1b7;" 
d="M932 604q-133 -334 -150 -609h-64q-12 188 -79.5 406.5t-167.5 429.5t-212 390l53 29q151 -240 271 -525.5t167 -585.5q47 300 167 585.5t271 525.5l53 -29q-176 -283 -309 -617z" />
    <glyph glyph-name="uE1B8" unicode="&#xe1b8;" 
d="M932 639q-133 334 -150 609h-64q-12 -187 -79.5 -405.5t-167.5 -429.5t-212 -391l53 -29q151 240 271 525.5t167 585.5q47 -300 167 -585.5t271 -525.5l53 29q-176 283 -309 617z" />
    <glyph glyph-name="uE1B9" unicode="&#xe1b9;" 
d="M1048 714q-69 -57 -133 -78t-145 -31q-7 -1 -10 -1q-83 -11 -154 24t-112.5 104t-41.5 154q1 80 42 149t109.5 110t148.5 41q89 0 156 -48.5t103.5 -126.5t36.5 -163v-134zM1048 0h61v848q0 101 -43.5 193t-125 149t-188.5 57q-96 0 -179 -49t-132.5 -132.5t-49.5 -179.5
q-1 -102 50.5 -186t138.5 -127.5t189 -30.5q2 1 8 1q77 10 139.5 29t131.5 69v-641z" />
    <glyph glyph-name="uE1C0" unicode="&#xe1c0;" 
d="M750 299l134 134l-134 134l-134 -134z" />
    <glyph glyph-name="uE1C1" unicode="&#xe1c1;" 
d="M815 591q0 139 -16.5 313.5t-46.5 304.5l-7 30l-60 -14l7 -30q30 -126 45.5 -296.5t15.5 -307.5v-591h62v591z" />
    <glyph glyph-name="uE1C2" unicode="&#xe1c2;" 
d="M504 1209l-7 30l-60 -14l7 -30q30 -126 45.5 -296.5t15.5 -307.5v-591h62v586q0 73 -5 160q22 -47 84.5 -74t133.5 -18q128 16 204 95.5t79 202.5q3 78 -4 139t-25 155l-60 -11q0 -4 1 -10q16 -82 23 -139.5t4 -131.5q-3 -100 -64 -163.5t-167 -75.5q-80 -10 -129.5 24.5
t-85.5 97.5q-17 220 -52 372z" />
    <glyph glyph-name="uE1C3" unicode="&#xe1c3;" 
d="M1217.5 756q80.5 81 84.5 200q3 74 -4 132t-23 147l-3 15l-61 -11q1 -6 3 -16q17 -86 23 -139t4 -125q-4 -96 -70 -161.5t-173 -78.5q-64 -8 -117 20t-86 90q28 58 29 123q3 78 -4.5 139t-25.5 155l-60 -11q1 -3 2 -9q15 -82 22 -140t4 -132q-2 -100 -63.5 -163.5
t-166.5 -75.5q-81 -10 -130 24.5t-85 97.5q-17 219 -52 372l-7 30l-60 -14l7 -30q30 -126 45.5 -296.5t15.5 -307.5v-591h62v586q0 73 -5 160q22 -47 84.5 -74t132.5 -18q149 21 223 120q42 -66 106.5 -95.5t136.5 -20.5q131 17 211.5 98z" />
    <glyph glyph-name="uE1C4" unicode="&#xe1c4;" 
d="M525 796q32 -79 112 -125.5t198 -45.5q11 0 35 -1q59 -2 86 3l65 14l-13 59l-64 -14q-211 -39 -320 66q-78 79 -53 202q20 97 80 163t139.5 97.5t161.5 31.5q21 0 49 -4t49 -11l7 61q-46 14 -105 14q-96 0 -188 -37t-160.5 -114t-91.5 -189q-19 -91 13 -170zM1097 60
h-376q-70 0 -129 34.5t-94 93.5t-35 128q0 93 58.5 164.5t149.5 90.5l350 70l-12 59l-351 -70q-73 -15 -131.5 -60.5t-91 -111.5t-32.5 -141q0 -86 42.5 -159t115.5 -115.5t159 -42.5h376z" />
    <glyph glyph-name="uE1C5" unicode="&#xe1c5;" 
d="M1143 121q121 126 121 387q0 203 -59.5 384.5t-176 294t-279.5 112.5q-161 0 -277.5 -112.5t-176 -294t-59.5 -384.5q0 -261 121 -387t359 -126h68q238 0 359 126zM995 1135q103 -104 156 -272t53 -355q0 -122 -30.5 -220.5t-123 -165.5t-266.5 -67h-68q-133 0 -218 40
t-128.5 106t-58.5 142.5t-15 164.5q0 187 53 355t155.5 272t244.5 104q143 0 246 -104z" />
    <glyph glyph-name="uE1C6" unicode="&#xe1c6;" 
d="M1177 29q-93 150 -131 374t-9.5 457t125.5 409l-36 44q-254 -79 -438 -67.5t-341 83.5l-24 -55q160 -73 338.5 -88.5t419.5 51.5q-87 -191 -109 -421.5t19 -447.5t135 -371z" />
    <glyph glyph-name="uE1C7" unicode="&#xe1c7;" 
d="M932 604q-133 -334 -150 -609h-64q-12 188 -79.5 406.5t-167.5 429.5t-211 390l52 29q151 -240 271 -525.5t167 -585.5q47 300 167 585.5t271 525.5l53 -29q-176 -283 -309 -617z" />
    <glyph glyph-name="uE1C8" unicode="&#xe1c8;" 
d="M932 639q-133 334 -150 609h-64q-12 -187 -79.5 -405.5t-167.5 -429.5t-211 -391l52 -29q151 240 271 525.5t167 585.5q47 -300 167 -585.5t271 -525.5l53 29q-176 283 -309 617z" />
    <glyph glyph-name="uE1C9" unicode="&#xe1c9;" 
d="M1048 714q-69 -57 -133 -78t-145 -31q-7 -1 -10 -1q-83 -11 -154 24t-112.5 104t-41.5 154q1 80 42 149t109.5 110t147.5 41q90 0 157 -48.5t103.5 -126.5t36.5 -163v-134zM1048 0h61v848q0 101 -43.5 193t-125 149t-189.5 57q-95 0 -178 -49t-132.5 -132.5t-49.5 -179.5
q-1 -102 50.5 -186t138.5 -127.5t189 -30.5q2 1 8 1q77 10 139.5 29t131.5 69v-641z" />
    <glyph glyph-name="uE1D0" unicode="&#xe1d0;" 
d="M548 15l-249 918q-21 76 15.5 146t110.5 97q81 27 153.5 -7.5t103.5 -113.5l160 -441l53 -5l371 619l-50 30l-339 -566l-139 383q-38 97 -126 142t-188 19q-105 -32 -156.5 -121.5t-24.5 -196.5l248 -918z" />
    <glyph glyph-name="uE1D1" unicode="&#xe1d1;" 
d="M734 2q205 2 404 68l28 9l-19 56l-27 -9q-191 -64 -381 -66t-347 58q5 181 81 371.5t174.5 346t176 252.5t104.5 125l-44 39q-78 -86 -197 -247t-235 -409t-118 -490l23 -38q172 -68 377 -66z" />
    <glyph glyph-name="uE1D2" unicode="&#xe1d2;" 
d="M635.5 917q73.5 81 73.5 215q0 153 -72.5 237.5t-216.5 84.5q-145 0 -217 -84.5t-72 -237.5q0 -134 73 -215t216 -81q142 0 215.5 81zM393 0l767 1432h-60l-767 -1432h60zM191 1132q0 138 55.5 202.5t173.5 64.5t173.5 -64.5t55.5 -202.5q0 -118 -54.5 -179t-174.5 -61
q-229 0 -229 240zM1296 59q73 81 73 214q0 154 -72 238.5t-217 84.5q-144 0 -216.5 -84.5t-72.5 -238.5q0 -133 73.5 -214t215.5 -81q143 0 216 81zM851 273q0 138 55.5 202.5t173.5 64.5t173.5 -64.5t55.5 -202.5q0 -117 -54.5 -178.5t-174.5 -61.5q-229 0 -229 240z" />
    <glyph glyph-name="uE1D3" unicode="&#xe1d3;" 
d="M750 1067l214 -271l46 38l-222 256l289 117l-25 54l-278 -127l7 298h-62l7 -298l-278 127l-25 -54l287 -115l-220 -258l46 -38z" />
    <glyph glyph-name="uE1D4" unicode="&#xe1d4;" 
d="M780 158v362h378v56h-378v378h-62v-378h-376v-56h376v-362h62z" />
    <glyph glyph-name="uE1D5" unicode="&#xe1d5;" 
d="M805 0v100h-110v-100h110z" />
    <glyph glyph-name="uE1D6" unicode="&#xe1d6;" 
d="M1166 659v55h-832v-55h832zM1166 390v57h-832v-57h832z" />
    </font>
</defs>
</svg>
