<?xml version="1.0" standalone="no"?>
<!DOCTYPE svg PUBLIC "-//W3C//DTD SVG 1.1//EN" "http://www.w3.org/Graphics/SVG/1.1/DTD/svg11.dtd" >
<svg xmlns="http://www.w3.org/2000/svg" xmlns:xlink="http://www.w3.org/1999/xlink" version="1.1">
<metadata>
Created by FontForge 20201107 at Sat Sep 21 20:35:58 2024
 By 
Copyright 2024 The Arad Project Authors (https://github.com/MDarvishi5124/Arad)
</metadata>
<defs>
<font id="Arad-MediumDots4" horiz-adv-x="1500" >
  <font-face 
    font-family="Arad Medium Dots4"
    font-weight="500"
    font-stretch="normal"
    units-per-em="2176"
    panose-1="0 0 0 0 0 0 0 0 0 0"
    ascent="1740"
    descent="-436"
    x-height="1054"
    cap-height="1432"
    bbox="-440 -1138 3135 2402.78"
    underline-thickness="40"
    underline-position="-185"
    unicode-range="U+000D-FEFC"
  />
<missing-glyph horiz-adv-x="1300" 
d="M1179 0v1400h-1058v-1400h1058zM307 1214h686v-1028h-686v1028z" />
    <glyph glyph-name="uni0626" unicode="&#x649;&#x654;" horiz-adv-x="1601" 
d="M1384.5 210.5q-96.5 75.5 -261.5 78.5h-208v187q0 81 55 135.5t136 54.5h305v208h-305q-110 0 -201 -53t-144 -144.5t-53 -200.5v-394h411q79 -2 114.5 -35.5t28.5 -110.5q-9 -111 -117 -185.5t-305 -74.5h-132q-114 0 -195.5 50t-122.5 133t-41 181v450h-207v-476
q0 -150 69 -278t198 -204t299 -76h132q222 0 359.5 76.5t199 187t71.5 224.5q11 191 -85.5 266.5zM129 762l456 174l-42 110l-154 -59q-65 -3 -101 27.5t-36 83.5q0 44 28 80t73 37q31 0 56 -8.5t56 -24.5q6 -3 9 -5l28 113q-38 21 -71.5 32t-77.5 11q-64 0 -114 -34
t-77.5 -88.5t-27.5 -112.5q0 -54 27 -101t73 -69l-147 -56z" />
    <glyph glyph-name="uni06C0" unicode="&#x647;&#x654;" horiz-adv-x="1077" 
d="M696 507q47 -83 47 -142q0 -53 -30 -92t-77 -59.5t-95 -20.5t-95 21t-77 60.5t-30 90.5q0 89 62.5 173t142.5 156q105 -104 152 -187zM221.5 628.5q-90.5 -122.5 -90.5 -263.5q0 -106 57 -193t151.5 -137t201.5 -50q103 0 197.5 46.5t153.5 133t59 200.5q0 280 -415 618
l-80 65l-131 -160l77 -64q-90 -73 -180.5 -195.5zM533.5 1243q95.5 34 129.5 85.5t34 111.5v144h-265v60q0 45 30.5 76t75.5 31h150v112h-150q-57 0 -107.5 -29.5t-80.5 -79.5t-30 -110v-91q-1 -30 24 -55t55 -25h186l1 -33q0 -118 -317 -109v-119q169 -3 264.5 31z" />
    <glyph glyph-name="uniFBA70654" unicode="&#xfba7;&#x654;" horiz-adv-x="1166" 
d="M380 331q9 67 52 120t107 74l182 60l21 -234q8 -98 62 -178t139 -126.5t183 -46.5h41v220h-41q-71 0 -121.5 41t-56.5 109l-33 365l-136 89l-306 -102q-121 -41 -202 -139.5t-97 -225.5l-43 -343l206 -25zM304 985l456 174l-42 110l-154 -59q-65 -3 -101 27.5t-36 83.5
q0 44 28 80t73 37q31 0 56 -8.5t56 -24.5q6 -3 9 -5l28 113q-38 21 -71.5 32t-77.5 11q-64 0 -114 -34t-77.5 -88.5t-27.5 -112.5q0 -54 27 -101t73 -69l-147 -56z" />
    <glyph glyph-name="uE115" unicode="&#xe091;&#xfe8e;" horiz-adv-x="1230" 
d="M388 386v1050h-207v-1050h207zM181 220v-220h482q105 0 194 52t141 140.5t52 193.5v1050h-208v-1037q0 -49 -24 -90t-65 -65t-90 -24h-482zM1288 2052l-150 4l-192 -220l-191 220l-150 -4l297 -344h89z" />
    <glyph glyph-name="uE116" unicode="&#xe092;&#xfe8e;" horiz-adv-x="1279" 
d="M181 220v-220h482q94 0 166.5 43.5t116.5 120.5q44 -76 116.5 -120t166.5 -44h50v220h-50q-49 0 -90 24t-65 65t-24 90v1037h-208v-1037q0 -49 -24 -90t-65 -65t-90 -24h-482zM388 386v1050h-207v-1050h207zM1288 2052l-150 4l-192 -220l-191 220l-150 -4l297 -344h89z
" />
    <glyph glyph-name="uE117" unicode="&#xe091;&#xfe82;" horiz-adv-x="1232" 
d="M388 386v876h-207v-876h207zM181 220v-220h482q105 0 194 52t141 140.5t52 193.5v1050h-208v-1037q0 -49 -24 -90t-65 -65t-90 -24h-482zM23 1453q19 44 57.5 70.5t86.5 25.5h453v144h-453q-92 0 -167.5 -51t-109.5 -136l-61 -154l134 -53zM1289 2052l-150 3l-192 -219
l-192 219l-150 -3l298 -345h88z" />
    <glyph glyph-name="uE118" unicode="&#xe092;&#xfe82;" horiz-adv-x="1279" 
d="M1279 220h-50q-49 0 -90 24t-65 65t-24 90v1037h-208v-1037q0 -49 -24 -90t-65 -65t-90 -24h-482v-220h482q94 0 166.5 43.5t116.5 120.5q44 -76 116.5 -120t166.5 -44h50v220zM388 386v876h-207v-876h207zM23 1453q19 44 57.5 70.5t86.5 25.5h453v144h-453
q-92 0 -167.5 -51t-109.5 -136l-61 -154l134 -53zM1289 2052l-150 3l-192 -219l-192 219l-150 -3l298 -345h88z" />
    <glyph glyph-name="uE120" unicode="&#xe091;&#x675;" horiz-adv-x="1231" 
d="M388 386v876h-207v-876h207zM181 220v-220h482q105 0 194 52t141 140.5t52 193.5v1050h-208v-1037q0 -49 -24 -90t-65 -65t-90 -24h-482zM72 1488l456 174l-42 110l-154 -59q-65 -3 -101 27.5t-36 83.5q0 44 28 80t73 37q31 0 56 -8.5t56 -24.5q6 -3 9 -5l28 113
q-38 21 -71.5 32t-77.5 11q-64 0 -114 -34t-77.5 -88.5t-27.5 -112.5q0 -54 27 -101t73 -69l-147 -56zM1289 2052l-150 3l-192 -219l-192 219l-150 -3l298 -345h88z" />
    <glyph glyph-name="uE121" unicode="&#xe092;&#x675;" horiz-adv-x="1279" 
d="M1279 220h-50q-49 0 -90 24t-65 65t-24 90v1037h-208v-1037q0 -49 -24 -90t-65 -65t-90 -24h-482v-220h482q94 0 166.5 43.5t116.5 120.5q44 -76 116.5 -120t166.5 -44h50v220zM388 386v876h-207v-876h207zM72 1488l456 174l-42 110l-154 -59q-65 -3 -101 27.5t-36 83.5
q0 44 28 80t73 37q31 0 56 -8.5t56 -24.5q6 -3 9 -5l28 113q-38 21 -71.5 32t-77.5 11q-64 0 -114 -34t-77.5 -88.5t-27.5 -112.5q0 -54 27 -101t73 -69l-147 -56zM1289 2052l-150 3l-192 -219l-192 219l-150 -3l298 -345h88z" />
    <glyph glyph-name="uE122" unicode="&#xe091;&#xfe88;" horiz-adv-x="1231" 
d="M388 386v1050h-207v-1050h207zM181 220v-220h482q105 0 194 52t141 140.5t52 193.5v1050h-208v-1037q0 -49 -24 -90t-65 -65t-90 -24h-482zM104 -811l456 174l-42 110l-154 -59q-65 -3 -101 27.5t-36 83.5q0 44 28 80t73 37q31 0 56 -8.5t56 -24.5q6 -3 9 -5l28 113
q-38 21 -71.5 32t-77.5 11q-64 0 -114 -34t-77.5 -88.5t-27.5 -112.5q0 -54 27 -101t73 -69l-147 -56zM1289 2052l-150 3l-192 -219l-192 219l-150 -3l298 -345h88z" />
    <glyph glyph-name="uE123" unicode="&#xe092;&#xfe88;" horiz-adv-x="1279" 
d="M181 220v-220h482q94 0 166.5 43.5t116.5 120.5q44 -76 116.5 -120t166.5 -44h50v220h-50q-49 0 -90 24t-65 65t-24 90v1037h-208v-1037q0 -49 -24 -90t-65 -65t-90 -24h-482zM388 386v1050h-207v-1050h207zM103 -811l456 174l-42 110l-154 -59q-65 -3 -101 27.5
t-36 83.5q0 44 28 80t73 37q31 0 56 -8.5t56 -24.5q6 -3 9 -5l28 113q-38 21 -71.5 32t-77.5 11q-64 0 -114 -34t-77.5 -88.5t-27.5 -112.5q0 -54 27 -101t73 -69l-147 -56zM1289 2052l-150 3l-192 -219l-192 219l-150 -3l298 -345h88z" />
    <glyph glyph-name="uniFBA5" unicode="&#xfeea;&#x654;" horiz-adv-x="1200" arabic-form="final" 
d="M958.5 51.5q77.5 -51.5 173.5 -51.5h68v220h-69q-56 0 -98.5 36.5t-50.5 92.5l-108 736l-205 -30l17 -122q-183 -6 -312.5 -76.5t-193 -191t-52.5 -274.5q7 -111 73.5 -187.5t172 -106.5t228 -4.5t236.5 108.5q43 -98 120.5 -149.5zM769 368q-105 -76 -204 -88.5
t-162 25.5t-68 102q-10 153 90 237.5t291 82.5zM563.5 1251q95.5 34 129.5 85.5t34 111.5v144h-265v60q0 45 30.5 76t75.5 31h150v112h-150q-57 0 -107.5 -29.5t-80.5 -79.5t-30 -110v-91q-1 -30 24 -55t55 -25h186l1 -33q0 -118 -317 -109v-119q169 -3 264.5 31z" />
    <glyph glyph-name="uniFE8A" unicode="&#xfbfd;&#x654;" horiz-adv-x="1695" arabic-form="final" 
d="M1695 220h-940v-207h398q50 -2 77 -36.5t26 -83.5q-1 -105 -97.5 -161t-233.5 -56h-222q-114 0 -194 48.5t-120 130t-40 179.5v456h-207v-482q0 -150 68 -276.5t195 -201t298 -74.5h222q170 0 291 64t182 164t60 205q-1 69 -36 111h273v220zM129 762l456 174l-42 110
l-154 -59q-65 -3 -101 27.5t-36 83.5q0 44 28 80t73 37q31 0 56 -8.5t56 -24.5q6 -3 9 -5l28 113q-38 21 -71.5 32t-77.5 11q-64 0 -114 -34t-77.5 -88.5t-27.5 -112.5q0 -54 27 -101t73 -69l-147 -56z" />
    <glyph glyph-name="uniFEF5" unicode="&#xfedf;&#xfe82;" horiz-adv-x="1231" arabic-form="isolated" 
d="M388 386v876h-207v-876h207zM181 220v-220h482q105 0 194 52t141 140.5t52 193.5v1050h-208v-1037q0 -49 -24 -90t-65 -65t-90 -24h-482zM23 1453q19 44 57.5 70.5t86.5 25.5h453v144h-453q-92 0 -167.5 -51t-109.5 -136l-61 -154l134 -53z" />
    <glyph glyph-name="uniFEF6" unicode="&#xfee0;&#xfe82;" horiz-adv-x="1279" arabic-form="final" 
d="M1279 220h-50q-49 0 -90 24t-65 65t-24 90v1037h-208v-1037q0 -49 -24 -90t-65 -65t-90 -24h-482v-220h482q94 0 166.5 43.5t116.5 120.5q44 -76 116.5 -120t166.5 -44h50v220zM388 386v876h-207v-876h207zM23 1453q19 44 57.5 70.5t86.5 25.5h453v144h-453
q-92 0 -167.5 -51t-109.5 -136l-61 -154l134 -53z" />
    <glyph glyph-name="uniFEF7" unicode="&#xfedf;&#x675;" horiz-adv-x="1231" arabic-form="isolated" 
d="M388 386v876h-207v-876h207zM181 220v-220h482q105 0 194 52t141 140.5t52 193.5v1050h-208v-1037q0 -49 -24 -90t-65 -65t-90 -24h-482zM72 1488l456 174l-42 110l-154 -59q-65 -3 -101 27.5t-36 83.5q0 44 28 80t73 37q31 0 56 -8.5t56 -24.5q6 -3 9 -5l28 113
q-38 21 -71.5 32t-77.5 11q-64 0 -114 -34t-77.5 -88.5t-27.5 -112.5q0 -54 27 -101t73 -69l-147 -56z" />
    <glyph glyph-name="uniFEF8" unicode="&#xfee0;&#x675;" horiz-adv-x="1280" arabic-form="final" 
d="M1279 220h-50q-49 0 -90 24t-65 65t-24 90v1037h-208v-1037q0 -49 -24 -90t-65 -65t-90 -24h-482v-220h482q94 0 166.5 43.5t116.5 120.5q44 -76 116.5 -120t166.5 -44h50v220zM388 386v876h-207v-876h207zM72 1488l456 174l-42 110l-154 -59q-65 -3 -101 27.5t-36 83.5
q0 44 28 80t73 37q31 0 56 -8.5t56 -24.5q6 -3 9 -5l28 113q-38 21 -71.5 32t-77.5 11q-64 0 -114 -34t-77.5 -88.5t-27.5 -112.5q0 -54 27 -101t73 -69l-147 -56z" />
    <glyph glyph-name="uniFEF9" unicode="&#xfedf;&#xfe88;" horiz-adv-x="1231" arabic-form="isolated" 
d="M388 386v1050h-207v-1050h207zM181 220v-220h482q105 0 194 52t141 140.5t52 193.5v1050h-208v-1037q0 -49 -24 -90t-65 -65t-90 -24h-482zM104 -811l456 174l-42 110l-154 -59q-65 -3 -101 27.5t-36 83.5q0 44 28 80t73 37q31 0 56 -8.5t56 -24.5q6 -3 9 -5l28 113
q-38 21 -71.5 32t-77.5 11q-64 0 -114 -34t-77.5 -88.5t-27.5 -112.5q0 -54 27 -101t73 -69l-147 -56z" />
    <glyph glyph-name="uniFEFA" unicode="&#xfee0;&#xfe88;" horiz-adv-x="1279" arabic-form="final" 
d="M181 220v-220h482q94 0 166.5 43.5t116.5 120.5q44 -76 116.5 -120t166.5 -44h50v220h-50q-49 0 -90 24t-65 65t-24 90v1037h-208v-1037q0 -49 -24 -90t-65 -65t-90 -24h-482zM388 386v1050h-207v-1050h207zM103 -811l456 174l-42 110l-154 -59q-65 -3 -101 27.5
t-36 83.5q0 44 28 80t73 37q31 0 56 -8.5t56 -24.5q6 -3 9 -5l28 113q-38 21 -71.5 32t-77.5 11q-64 0 -114 -34t-77.5 -88.5t-27.5 -112.5q0 -54 27 -101t73 -69l-147 -56z" />
    <glyph glyph-name="uniFEFB" unicode="&#xfedf;&#xfe8e;" horiz-adv-x="1231" arabic-form="isolated" 
d="M388 386v1050h-207v-1050h207zM181 220v-220h482q105 0 194 52t141 140.5t52 193.5v1050h-208v-1037q0 -49 -24 -90t-65 -65t-90 -24h-482z" />
    <glyph glyph-name="uniFEFC" unicode="&#xfee0;&#xfe8e;" horiz-adv-x="1279" arabic-form="final" 
d="M181 220v-220h482q94 0 166.5 43.5t116.5 120.5q44 -76 116.5 -120t166.5 -44h50v220h-50q-49 0 -90 24t-65 65t-24 90v1037h-208v-1037q0 -49 -24 -90t-65 -65t-90 -24h-482zM388 386v1050h-207v-1050h207z" />
    <glyph glyph-name="uni064406440647" unicode="&#xfedf;&#xfee0;&#xfeea;" horiz-adv-x="2482" 
d="M1767.5 152.5q-14.5 -42.5 0 -85t55.5 -67.5h103q105 0 193.5 52t140.5 140.5t52 193.5v1050h-207v-1037q0 -49 -24 -90t-65.5 -65t-89.5 -24h-103q-41 -25 -55.5 -67.5zM1115.5 152.5q-14.5 -42.5 0 -85t55.5 -67.5h44q94 0 166 43.5t116 120.5q45 -77 117 -120.5
t166 -43.5h44v220h-44q-49 0 -90 24t-65 65t-24 90v773h-207v-773q0 -49 -24 -90t-65 -65t-90 -24h-44q-41 -25 -55.5 -67.5zM1436 1434q40 29 63 80q50 -53 124 -53h14q55 0 101 27t73 73t27 101v183h-119v-183q0 -34 -24 -58.5t-58 -24.5h-14q-34 0 -58 24.5t-24 58.5v127
h-118v-184q0 -34 -24 -58t-58 -24h-14q-34 0 -58 24t-24 58v184h-119v-184q0 -54 27 -100t73 -73t101 -27h14q55 0 95 29zM1419 1907h118v391h-118v-391zM960.5 51.5q77.5 -51.5 173.5 -51.5h68v220h-69q-56 0 -98.5 36.5t-50.5 92.5l-108 736l-205 -30l17 -122
q-183 -6 -312.5 -76.5t-193 -191t-52.5 -274.5q7 -111 73.5 -187.5t172 -106.5t228 -4.5t236.5 108.5q43 -98 120.5 -149.5zM771 368q-105 -76 -204 -88.5t-162 25.5t-68 102q-10 153 90 237.5t291 82.5z" />
    <glyph glyph-name="uni0621" unicode="&#x621;" horiz-adv-x="1065" arabic-form="isolated" 
d="M220 -17l720 278l-68 176l-298 -115q-90 4 -138 59t-48 129q0 71 42.5 129.5t115.5 65.5q98 13 200 -68l67 177q-38 28 -103.5 53.5t-153.5 25.5q-106 0 -187 -56t-125 -144.5t-44 -182.5q0 -87 39.5 -162.5t111.5 -112.5l-199 -76z" />
    <glyph glyph-name="uni0622" unicode="&#x622;" horiz-adv-x="570" arabic-form="isolated" 
d="M181 0h207v1262h-207v-1262zM23 1453q19 44 57.5 70.5t86.5 25.5h453v144h-453q-92 0 -167.5 -51t-109.5 -136l-61 -154l134 -53z" />
    <glyph glyph-name="uni0623" unicode="&#x623;" horiz-adv-x="569" arabic-form="isolated" 
d="M181 0h207v1262h-207v-1262zM72 1488l456 174l-42 110l-154 -59q-65 -3 -101 27.5t-36 83.5q0 44 28 80t73 37q31 0 56 -8.5t56 -24.5q6 -3 9 -5l28 113q-38 21 -71.5 32t-77.5 11q-64 0 -114 -34t-77.5 -88.5t-27.5 -112.5q0 -54 27 -101t73 -69l-147 -56z" />
    <glyph glyph-name="uni0624" unicode="&#x624;" horiz-adv-x="1099" arabic-form="isolated" 
d="M548 220q-108 0 -154.5 43.5t-46.5 128.5q0 59 21 114t66.5 91t113.5 36q108 0 155 -73t47 -168v-172h-202zM957 392q0 131 -52 232.5t-144.5 158.5t-212.5 57q-117 0 -210.5 -57.5t-146 -159.5t-52.5 -231q0 -185 101.5 -288.5t307.5 -103.5h199q0 -152 -91.5 -238
t-236.5 -86h-283v-220h283q143 0 267 72t197.5 199.5t73.5 287.5v377zM341 1042l456 174l-42 110l-154 -59q-65 -3 -101 27.5t-36 83.5q0 44 28 80t73 37q31 0 56 -8.5t56 -24.5q6 -3 9 -5l28 113q-38 21 -71.5 32t-77.5 11q-64 0 -114 -34t-77.5 -88.5t-27.5 -112.5
q0 -54 27 -101t73 -69l-147 -56z" />
    <glyph glyph-name="uni0625" unicode="&#x625;" horiz-adv-x="569" arabic-form="isolated" 
d="M181 0h207v1436h-207v-1436zM72 -811l456 174l-42 110l-154 -59q-65 -3 -101 27.5t-36 83.5q0 44 28 80t73 37q31 0 56 -8.5t56 -24.5q6 -3 9 -5l28 113q-38 21 -71.5 32t-77.5 11q-64 0 -114 -34t-77.5 -88.5t-27.5 -112.5q0 -54 27 -101t73 -69l-147 -56z" />
    <glyph glyph-name="uni0627" unicode="&#x627;" horiz-adv-x="569" arabic-form="isolated" 
d="M181 0h207v1436h-207v-1436z" />
    <glyph glyph-name="uni0628" unicode="&#x628;" horiz-adv-x="1765" arabic-form="isolated" 
d="M1237 0q105 0 193.5 50t140.5 136t52 188v352h-207v-327q0 -49 -24 -90t-65 -65t-90 -24h-709q-49 0 -90 24t-65 65t-24 90v327h-207v-352q0 -102 52 -188t140.5 -136t193.5 -50h709zM967 -321q-35 35 -84 35t-84 -35t-35 -84t35 -84t84 -35t84 35t35 84t-35 84z" />
    <glyph glyph-name="uni0629" unicode="&#x629;" horiz-adv-x="1077" arabic-form="isolated" 
d="M696 507q47 -83 47 -142q0 -53 -30 -92t-77 -59.5t-95 -20.5t-95 21t-77 60.5t-30 90.5q0 89 62.5 173t142.5 156q105 -104 152 -187zM221.5 628.5q-90.5 -122.5 -90.5 -263.5q0 -106 57 -193t151.5 -137t201.5 -50q103 0 197.5 46.5t153.5 133t59 200.5q0 280 -415 618
l-80 65l-131 -160l77 -64q-90 -73 -180.5 -195.5zM437 1440q-35 35 -84 35q-50 0 -85 -35t-35 -84t35 -84t85 -35q49 0 84 35t35 84t-35 84zM774 1440q-35 35 -85 35q-49 0 -84 -35t-35 -84t35 -84t84 -35q50 0 85 35t35 84t-35 84z" />
    <glyph glyph-name="uni062A" unicode="&#x62a;" horiz-adv-x="1765" arabic-form="isolated" 
d="M1237 0q105 0 193.5 50t140.5 136t52 188v352h-207v-327q0 -49 -24 -90t-65 -65t-90 -24h-709q-49 0 -90 24t-65 65t-24 90v327h-207v-352q0 -102 52 -188t140.5 -136t193.5 -50h709zM799 1055q-35 35 -84 35q-50 0 -85 -35t-35 -84t35 -84t85 -35q49 0 84 35t35 84
t-35 84zM1136 1055q-35 35 -85 35q-49 0 -84 -35t-35 -84t35 -84t84 -35q50 0 85 35t35 84t-35 84z" />
    <glyph glyph-name="uni062B" unicode="&#x62b;" horiz-adv-x="1765" arabic-form="isolated" 
d="M1237 0q105 0 193.5 50t140.5 136t52 188v352h-207v-327q0 -49 -24 -90t-65 -65t-90 -24h-709q-49 0 -90 24t-65 65t-24 90v327h-207v-352q0 -102 52 -188t140.5 -136t193.5 -50h709zM799 1075q-35 35 -84 35q-50 0 -85 -35t-35 -84t35 -84t85 -35q49 0 84 35t35 84
t-35 84zM1136 1075q-35 35 -85 35q-49 0 -84 -35t-35 -84t35 -84t84 -35q50 0 85 35t35 84t-35 84zM967 1368q-35 35 -84 35t-84 -35t-35 -85q0 -49 35 -84t84 -35t84 35t35 84q0 50 -35 85z" />
    <glyph glyph-name="uni062C" unicode="&#x62c;" horiz-adv-x="1345" arabic-form="isolated" 
d="M509 373q-190 -76 -287.5 -213t-90.5 -293q5 -136 69.5 -243t180 -167.5t268.5 -60.5h547v219h-547q-116 0 -192 50.5t-101 127.5q-36 113 19 215.5t208 171.5l667 313l8 222l-106 62.5t-228 130.5t-217 113t-194 33t-180 -77t-125 -173l-23 -52l190 -84l23 52
q27 72 91.5 109.5t136.5 1.5q31 -16 106 -55q239 -124 323 -164zM922 30q-35 35 -84 35t-84 -35t-35 -84t35 -84t84 -35t84 35t35 84t-35 84z" />
    <glyph glyph-name="uni062D" unicode="&#x62d;" horiz-adv-x="1347" arabic-form="isolated" 
d="M426 341q-134 -55 -214 -170.5t-80 -256.5q-1 -124 60.5 -229t166.5 -166.5t229 -62.5h608v220h-608q-79 0 -142 38.5t-90 109.5q-36 99 5 188t139 135l763 346l8 222q-5 0 -133 73q-300 170 -431 233q-95 45 -194 33t-180 -77t-125 -173l-23 -52l190 -84l23 52
q27 72 91.5 109.5t136.5 1.5q23 -12 76 -40q260 -135 365 -179z" />
    <glyph glyph-name="uni062E" unicode="&#x62e;" horiz-adv-x="1347" arabic-form="isolated" 
d="M426 341q-134 -55 -214 -170.5t-80 -256.5q-1 -124 60.5 -229t166.5 -166.5t229 -62.5h608v220h-608q-79 0 -142 38.5t-90 109.5q-36 99 5 188t139 135l763 346l8 222q-5 0 -133 73q-300 170 -431 233q-95 45 -194 33t-180 -77t-125 -173l-23 -52l190 -84l23 52
q27 72 91.5 109.5t136.5 1.5q23 -12 76 -40q260 -135 365 -179zM703 1510q-35 35 -84 35t-84 -35t-35 -84t35 -84t84 -35t84 35t35 84t-35 84z" />
    <glyph glyph-name="uni062F" unicode="&#x62f;" horiz-adv-x="1109" arabic-form="isolated" 
d="M826 50q78 50 120 131.5t36 174.5t-67 173l-383 504l-164 -126l382 -503q29 -38 24.5 -84.5t-38 -79.5t-84.5 -33h-575v-207h575q96 0 174 50z" />
    <glyph glyph-name="uni0630" unicode="&#x630;" horiz-adv-x="1105" arabic-form="isolated" 
d="M826 50q78 50 120 131.5t36 174.5t-67 173l-383 504l-164 -126l382 -503q29 -38 24.5 -84.5t-38 -79.5t-84.5 -33h-575v-207h575q96 0 174 50zM616 1441q-35 35 -84 35t-84 -35t-35 -84t35 -84t84 -35t84 35t35 84t-35 84z" />
    <glyph glyph-name="uni0631" unicode="&#x631;" horiz-adv-x="771" arabic-form="isolated" 
d="M74 -544q149 0 277 78t203 208t75 278v672h-207v-646q0 -95 -47 -180.5t-127.5 -137.5t-173.5 -52h-80v-220h80z" />
    <glyph glyph-name="uni0632" unicode="&#x632;" horiz-adv-x="771" arabic-form="isolated" 
d="M74 -544q149 0 277 78t203 208t75 278v672h-207v-646q0 -95 -47 -180.5t-127.5 -137.5t-173.5 -52h-80v-220h80zM610 1147q-35 35 -84 35t-84 -35t-35 -84t35 -84t84 -35t84 35t35 84t-35 84z" />
    <glyph glyph-name="uni0633" unicode="&#x633;" horiz-adv-x="2649" arabic-form="isolated" 
d="M1572 0q88 0 155.5 42.5t112.5 120.5q44 -77 112 -120t155 -43h29q104 0 189 51.5t133.5 140t48.5 194.5v340h-207v-327q0 -75 -45.5 -127t-118.5 -52h-29q-73 0 -118.5 52t-45.5 127v293h-207v-293q0 -75 -45.5 -127t-118.5 -52h-28q-71 0 -118 52.5t-47 126.5v292h-207
v-646q0 -102 -43.5 -186t-126.5 -133.5t-195 -49.5h-93q-115 0 -198 51t-125 135.5t-42 182.5v445h-207v-471q0 -151 70.5 -280t200.5 -206t301 -77h93q165 0 293 72.5t201 196.5t78 274v80q27 -36 70 -57.5t95 -21.5h28z" />
    <glyph glyph-name="uni0634" unicode="&#x634;" horiz-adv-x="2649" arabic-form="isolated" 
d="M1572 0q88 0 155.5 42.5t112.5 120.5q44 -77 112 -120t155 -43h29q104 0 189 51.5t133.5 140t48.5 194.5v340h-207v-327q0 -75 -45.5 -127t-118.5 -52h-29q-73 0 -118.5 52t-45.5 127v293h-207v-293q0 -75 -45.5 -127t-118.5 -52h-28q-71 0 -118 52.5t-47 126.5v292h-207
v-646q0 -102 -43.5 -186t-126.5 -133.5t-195 -49.5h-93q-115 0 -198 51t-125 135.5t-42 182.5v445h-207v-471q0 -151 70.5 -280t200.5 -206t301 -77h93q165 0 293 72.5t201 196.5t78 274v80q27 -36 70 -57.5t95 -21.5h28zM1756 1147q-35 35 -84 35q-50 0 -85 -35t-35 -84
t35 -84t85 -35q49 0 84 35t35 84t-35 84zM2093 1147q-35 35 -85 35q-49 0 -84 -35t-35 -84t35 -84t84 -35q50 0 85 35t35 84t-35 84zM1924 1440q-35 35 -84 35t-84 -35t-35 -85q0 -49 35 -84t84 -35t84 35t35 84q0 50 -35 85z" />
    <glyph glyph-name="uni0635" unicode="&#x635;" horiz-adv-x="2684" arabic-form="isolated" 
d="M2326.5 57q106.5 57 167 156.5t60.5 223.5q0 110 -48.5 212.5t-152.5 166t-262 58.5q-168 -6 -293.5 -129t-193.5 -258.5t-107 -248.5q-50 10 -84 52t-34 96v290h-207v-631q0 -98 -42 -182.5t-125 -135.5t-198 -51h-93q-115 0 -198 51t-125 135.5t-42 182.5v445h-207
v-471q0 -151 70 -280t200.5 -206t301.5 -77h93q171 0 301 77t200.5 206t70.5 280v82q48 -47 110.5 -74t131.5 -27h467q132 0 238.5 57zM1706 220q1 3 4 10q68 161 161.5 296.5t226.5 140.5q115 3 182 -56t67 -174q0 -103 -74 -160t-185 -57h-382z" />
    <glyph glyph-name="uni0636" unicode="&#x636;" horiz-adv-x="2684" arabic-form="isolated" 
d="M2326.5 57q106.5 57 167 156.5t60.5 223.5q0 110 -48.5 212.5t-152.5 166t-262 58.5q-168 -6 -293.5 -129t-193.5 -258.5t-107 -248.5q-50 10 -84 52t-34 96v290h-207v-631q0 -98 -42 -182.5t-125 -135.5t-198 -51h-93q-115 0 -198 51t-125 135.5t-42 182.5v445h-207
v-471q0 -151 70 -280t200.5 -206t301.5 -77h93q171 0 301 77t200.5 206t70.5 280v82q48 -47 110.5 -74t131.5 -27h467q132 0 238.5 57zM1706 220q1 3 4 10q68 161 161.5 296.5t226.5 140.5q115 3 182 -56t67 -174q0 -103 -74 -160t-185 -57h-382zM2128 1314q-35 35 -84 35
t-84 -35t-35 -84t35 -84t84 -35t84 35t35 84t-35 84z" />
    <glyph glyph-name="uni0637" unicode="&#x637;" horiz-adv-x="1546" arabic-form="isolated" 
d="M379 305q-15 -39 -29 -81q-1 -3 -1 -4h-207v-220h808q132 0 238.5 57t167 156.5t60.5 223.5q0 111 -49.5 213.5t-153.5 166.5t-260 57q-198 -8 -375 -256l8 325v493h-207v-1131zM568 220q1 3 4 9q67 161 161 297t227 141q114 4 181.5 -55.5t67.5 -174.5q0 -103 -74 -160
t-185 -57h-382z" />
    <glyph glyph-name="uni0638" unicode="&#x638;" horiz-adv-x="1546" arabic-form="isolated" 
d="M379 305q-15 -39 -29 -81q-1 -3 -1 -4h-207v-220h808q132 0 238.5 57t167 156.5t60.5 223.5q0 111 -49.5 213.5t-153.5 166.5t-260 57q-198 -8 -375 -256l8 325v493h-207v-1131zM568 220q1 3 4 9q67 161 161 297t227 141q114 4 181.5 -55.5t67.5 -174.5q0 -103 -74 -160
t-185 -57h-382zM1105 1314q-35 35 -84 35t-84 -35t-35 -84t35 -84t84 -35t84 35t35 84t-35 84z" />
    <glyph glyph-name="uni0639" unicode="&#x639;" horiz-adv-x="1219" arabic-form="isolated" 
d="M1079 -324h-471q-74 0 -135.5 33t-97.5 92t-36 131q0 74 36 135.5t98 98t135 36.5h452v220h-360q-99 5 -156.5 65t-57.5 149q0 100 57 169.5t153 73.5q69 4 120 -14t121 -62l65 202q-143 93 -327 81q-114 -8 -204 -68.5t-141 -160t-51 -221.5q0 -87 38.5 -164.5
t106.5 -128.5q-133 -53 -213 -160.5t-80 -250.5q0 -129 64.5 -238.5t173.5 -173.5t239 -64h471v220z" />
    <glyph glyph-name="uni063A" unicode="&#x63a;" horiz-adv-x="1219" arabic-form="isolated" 
d="M1079 -324h-471q-74 0 -135.5 33t-97.5 92t-36 131q0 74 36 135.5t98 98t135 36.5h452v220h-360q-99 5 -156.5 65t-57.5 149q0 100 57 169.5t153 73.5q69 4 120 -14t121 -62l65 202q-143 93 -327 81q-114 -8 -204 -68.5t-141 -160t-51 -221.5q0 -87 38.5 -164.5
t106.5 -128.5q-133 -53 -213 -160.5t-80 -250.5q0 -129 64.5 -238.5t173.5 -173.5t239 -64h471v220zM746 1526q-35 35 -84 35t-84 -35t-35 -84t35 -84t84 -35t84 35t35 84t-35 84z" />
    <glyph glyph-name="uni0641" unicode="&#x641;" horiz-adv-x="1820" arabic-form="isolated" 
d="M1626.5 983.5q-51.5 93.5 -143 150t-203.5 56.5q-109 0 -199 -54.5t-143.5 -148.5t-57.5 -209q-6 -181 72 -271.5t254 -90.5h265v-23q0 -49 -31.5 -88.5t-83.5 -62t-114 -22.5h-714q-49 0 -90 24t-65 65t-24 90v327h-207v-352q0 -102 52 -188t140.5 -136t193.5 -50h714
q117 0 217 50t159.5 135t59.5 185v415q0 105 -51.5 198.5zM1250 623q-89 0 -128 43.5t-34 129.5q4 79 53.5 136.5t138.5 57.5q57 0 100.5 -30.5t67 -78.5t23.5 -98v-160h-221zM1364 1587q-35 35 -84 35t-84 -35t-35 -84t35 -84t84 -35t84 35t35 84t-35 84z" />
    <glyph glyph-name="uni0642" unicode="&#x642;" horiz-adv-x="1675" arabic-form="isolated" 
d="M1337 783.5q93 -56.5 144.5 -158.5t51.5 -233v-377q0 -157 -74.5 -284.5t-202 -201t-279.5 -73.5h-263q-171 0 -301.5 77.5t-200.5 206.5t-70 280v470h207v-444q0 -99 42 -183.5t125 -135.5t198 -51h263q159 0 252 86.5t95 237.5h-199q-207 0 -308 103.5t-101 288.5
q0 129 52.5 231t145.5 159.5t211 57.5q119 0 212 -56.5zM1326 392q0 95 -47 168t-154 73q-69 0 -114 -36t-66 -91t-21 -114q0 -85 46.5 -128.5t154.5 -43.5h201v172zM1044 1254q-35 35 -84 35q-50 0 -85 -35t-35 -84t35 -84t85 -35q49 0 84 35t35 84t-35 84zM1381 1254
q-35 35 -85 35q-49 0 -84 -35t-35 -84t35 -84t84 -35q50 0 85 35t35 84t-35 84z" />
    <glyph glyph-name="uni0643" unicode="&#x643;" horiz-adv-x="1735" arabic-form="isolated" 
d="M1383 50q89 50 141 136t52 188v1062h-207v-1037q0 -49 -24.5 -90t-65.5 -65t-89 -24h-662q-49 0 -90 24t-65 65t-24 90v327h-207v-352q0 -102 52 -188t140.5 -136t193.5 -50h662q104 0 193 50zM652 622l456 174l-42 110l-154 -59q-65 -3 -101 27.5t-36 83.5q0 44 28 80
t73 37q31 0 56 -8.5t56 -24.5q6 -3 9 -5l28 113q-38 21 -71.5 32t-77.5 11q-64 0 -114 -34t-77.5 -88.5t-27.5 -112.5q0 -54 27 -101t73 -69l-147 -56z" />
    <glyph glyph-name="uni0644" unicode="&#x644;" horiz-adv-x="1560" arabic-form="isolated" 
d="M807 -544q172 0 302 77t200 206t70 280v1417h-207v-1391q0 -98 -42 -182.5t-125 -135.5t-198 -51h-93q-115 0 -197.5 51t-125 135.5t-42.5 182.5v434h-207v-460q0 -151 70 -280t200.5 -206t301.5 -77h93z" />
    <glyph glyph-name="uni0645" unicode="&#x645;" horiz-adv-x="1559" arabic-form="isolated" 
d="M349 428q0 61 30 112t81 81t112 30h45q-3 -94 -3 -229q-1 -132 47 -231t139 -153t216 -54q118 0 212.5 53.5t148.5 153t53 230.5q-4 198 -114.5 316t-298.5 121h-445q-117 0 -216 -58t-156.5 -156.5t-57.5 -215.5v-974h207v974zM1170 587q52 -63 53 -166q1 -122 -62 -176
t-145 -54q-108 0 -158 67t-49 162v231h207q102 -1 154 -64z" />
    <glyph glyph-name="uni0646" unicode="&#x646;" horiz-adv-x="1521" arabic-form="isolated" 
d="M807 -544q172 0 302 77t200 206t70 280v657h-207v-631q0 -98 -42 -182.5t-125 -135.5t-198 -51h-93q-115 0 -197.5 51t-125 135.5t-42.5 182.5v445h-207v-471q0 -151 70 -280t200.5 -206t301.5 -77h93zM785 906q-35 35 -84 35t-84 -35t-35 -84t35 -84t84 -35t84 35t35 84
t-35 84z" />
    <glyph glyph-name="uni0647" unicode="&#x647;" horiz-adv-x="1077" arabic-form="isolated" 
d="M696 507q47 -83 47 -142q0 -53 -30 -92t-77 -59.5t-95 -20.5t-95 21t-77 60.5t-30 90.5q0 89 62.5 173t142.5 156q105 -104 152 -187zM221.5 628.5q-90.5 -122.5 -90.5 -263.5q0 -106 57 -193t151.5 -137t201.5 -50q103 0 197.5 46.5t153.5 133t59 200.5q0 280 -415 618
l-80 65l-131 -160l77 -64q-90 -73 -180.5 -195.5z" />
    <glyph glyph-name="uni0648" unicode="&#x648;" horiz-adv-x="1099" arabic-form="isolated" 
d="M548 220q-108 0 -154.5 43.5t-46.5 128.5q0 59 21 114t66.5 91t113.5 36q108 0 155 -73t47 -168v-172h-202zM957 392q0 131 -52 232.5t-144.5 158.5t-212.5 57q-117 0 -210.5 -57.5t-146 -159.5t-52.5 -231q0 -185 101.5 -288.5t307.5 -103.5h199q0 -152 -91.5 -238
t-236.5 -86h-283v-220h283q143 0 267 72t197.5 199.5t73.5 287.5v377z" />
    <glyph glyph-name="uni0649" unicode="&#x649;" horiz-adv-x="1601" arabic-form="isolated" 
d="M1384.5 210.5q-96.5 75.5 -261.5 78.5h-208v187q0 81 55 135.5t136 54.5h305v208h-305q-110 0 -201 -53t-144 -144.5t-53 -200.5v-394h411q79 -2 114.5 -35.5t28.5 -110.5q-9 -111 -117 -185.5t-305 -74.5h-132q-114 0 -195.5 50t-122.5 133t-41 181v450h-207v-476
q0 -150 69 -278t198 -204t299 -76h132q222 0 359.5 76.5t199 187t71.5 224.5q11 191 -85.5 266.5z" />
    <glyph glyph-name="uni064A" unicode="&#x64a;" horiz-adv-x="1602" arabic-form="isolated" 
d="M1384.5 210.5q-96.5 75.5 -261.5 78.5h-208v187q0 81 55 135.5t136 54.5h305v208h-305q-110 0 -201 -53t-144 -144.5t-53 -200.5v-394h411q79 -2 114.5 -35.5t28.5 -110.5q-9 -111 -117 -185.5t-305 -74.5h-132q-114 0 -195.5 50t-122.5 133t-41 181v450h-207v-476
q0 -150 69 -278t198 -204t299 -76h132q222 0 359.5 76.5t199 187t71.5 224.5q11 191 -85.5 266.5zM715 -792q-35 35 -84 35q-50 0 -85 -35t-35 -84t35 -84t85 -35q49 0 84 35t35 84t-35 84zM1052 -792q-35 35 -85 35q-49 0 -84 -35t-35 -84t35 -84t84 -35q50 0 85 35t35 84
t-35 84z" />
    <glyph glyph-name="uni064B" unicode="&#xfe70;" horiz-adv-x="0" arabic-form="isolated" 
d="M-291 1781l522 207l-44 109l-522 -206zM-396 2075l522 207l-44 109l-522 -206z" />
    <glyph glyph-name="uni064C" unicode="&#xfe72;" horiz-adv-x="0" arabic-form="isolated" 
d="M60 1878l20 -49l110 44l-20 49l104 39q89 39 125 122.5t3 174.5q-38 90 -121.5 126t-175.5 3q-89 -38 -125 -122t-3 -175l40 -102l-158 -61l10 169q0 60 -32.5 109t-87 63t-116.5 -21l-52 -30l59 -102l52 29q28 16 50.5 0.5t20.5 -42.5l-35 -259l80 -62zM245 2269.5
q33 -19.5 47 -54.5q17 -43 -1 -84.5t-60 -59.5l-104 -39l-40 101q-18 51 7 95t79 54q39 7 72 -12.5z" />
    <glyph glyph-name="uni064D" unicode="&#xfe74;" horiz-adv-x="0" arabic-form="isolated" 
d="M-396 -844l522 208l-44 109l-522 -207zM-291 -1138l522 208l-44 109l-522 -207z" />
    <glyph glyph-name="uni064E" unicode="&#xfe76;" horiz-adv-x="0" arabic-form="isolated" 
d="M-239 1781l522 207l-44 109l-522 -206z" />
    <glyph glyph-name="uni064F" unicode="&#xfe78;" horiz-adv-x="0" arabic-form="isolated" 
d="M-42 1871l19 -47l109 43l-18 48l102 40q90 39 126 122.5t3 175.5q-38 89 -122 125.5t-174 2.5q-90 -39 -126.5 -122.5t-2.5 -174.5l40 -102l-229 -91l43 -110zM148 2259q28 -19 41 -50q17 -42 -1.5 -84t-60.5 -60l-103 -41l-41 104q-13 34 -3 69t38.5 58t67.5 23
q34 0 62 -19z" />
    <glyph glyph-name="uni0650" unicode="&#xfe7a;" horiz-adv-x="0" arabic-form="isolated" 
d="M-239 -844l522 208l-44 109l-522 -207z" />
    <glyph glyph-name="uni0651" unicode="&#xfe7c;" horiz-adv-x="0" arabic-form="isolated" 
d="M-46 1810q40 29 63 80q50 -53 124 -53h14q55 0 101 27t73 73t27 101v183h-119v-183q0 -34 -24 -58.5t-58 -24.5h-14q-34 0 -58 24.5t-24 58.5v127h-118v-184q0 -34 -24 -58t-58 -24h-14q-34 0 -58 24t-24 58v184h-119v-184q0 -54 27 -100t73 -73t101 -27h14q55 0 95 29z
" />
    <glyph glyph-name="uni0652" unicode="&#xfe7e;" horiz-adv-x="0" arabic-form="isolated" 
d="M129 1815.5q59 34.5 93.5 93.5t34.5 129q0 69 -34.5 128t-93.5 93.5t-129 34.5t-129 -34.5t-93.5 -93.5t-34.5 -128q0 -70 34.5 -129t93.5 -93.5t129 -34.5t129 34.5zM98 2135.5q41 -40.5 41 -97.5q0 -58 -41 -98.5t-98 -40.5q-58 0 -98.5 40.5t-40.5 98.5
q0 57 40.5 97.5t98.5 40.5q57 0 98 -40.5z" />
    <glyph glyph-name="uni0671" unicode="&#x671;" horiz-adv-x="561" arabic-form="isolated" 
d="M181 0h207v1262h-207v-1262zM294.5 1727.5q43.5 64.5 104.5 64.5q63 0 91 -39t28 -88q0 -38 -35.5 -63t-86.5 -25h-180q35 86 78.5 150.5zM65.5 1674q-17.5 35 -17.5 69v60h-118v-60q0 -65 32.5 -131.5t85.5 -109.5t111 -43h237q66 0 121 27t87 74t32 105
q0 100 -65.5 172.5t-172.5 72.5q-109 0 -178.5 -89.5t-112.5 -199.5q-24 18 -41.5 53z" />
    <glyph glyph-name="uni0675" unicode="&#x623;" horiz-adv-x="641" arabic-form="final" 
d="M645 220h-84q-74 0 -123.5 52t-49.5 127v863h-207v-888q0 -102 47 -187.5t133.5 -136t199.5 -50.5h84v220zM72 1488l456 174l-42 110l-154 -59q-65 -3 -101 27.5t-36 83.5q0 44 28 80t73 37q31 0 56 -8.5t56 -24.5q6 -3 9 -5l28 113q-38 21 -71.5 32t-77.5 11
q-64 0 -114 -34t-77.5 -88.5t-27.5 -112.5q0 -54 27 -101t73 -69l-147 -56z" />
    <glyph glyph-name="uni0679" unicode="&#x679;" horiz-adv-x="1765" arabic-form="isolated" 
d="M1237 0q105 0 193.5 50t140.5 136t52 188v352h-207v-327q0 -49 -24 -90t-65 -65t-90 -24h-709q-49 0 -90 24t-65 65t-24 90v327h-207v-352q0 -102 52 -188t140.5 -136t193.5 -50h709zM839.5 1042.5q44.5 66.5 105.5 66.5q63 0 91 -39.5t28 -88.5q0 -37 -35.5 -62.5
t-87.5 -25.5h-176q30 83 74.5 149.5zM646 922q-3 -11 -6 -27q-1 -1 -1 -2h-55v-118h357q68 0 123 27.5t86.5 74.5t31.5 104q0 100 -65 173t-172 73q-98 0 -180 -110v313h-119v-508z" />
    <glyph glyph-name="uni067E" unicode="&#x67e;" horiz-adv-x="1765" arabic-form="isolated" 
d="M1237 0q105 0 193.5 50t140.5 136t52 188v352h-207v-327q0 -49 -24 -90t-65 -65t-90 -24h-709q-49 0 -90 24t-65 65t-24 90v327h-207v-352q0 -102 52 -188t140.5 -136t193.5 -50h709zM799 -255q-35 35 -84 35q-50 0 -85 -35t-35 -84t35 -84t85 -35q49 0 84 35t35 84
t-35 84zM1136 -255q-35 35 -85 35q-49 0 -84 -35t-35 -84t35 -84t84 -35q50 0 85 35t35 84t-35 84zM967 -547q-35 35 -84 35t-84 -35t-35 -84q0 -50 35 -85t84 -35t84 35t35 85q0 49 -35 84z" />
    <glyph glyph-name="uni0686" unicode="&#x686;" horiz-adv-x="1345" arabic-form="isolated" 
d="M509 373q-190 -76 -287.5 -213t-90.5 -293q5 -136 69.5 -243t180 -167.5t268.5 -60.5h547v219h-547q-116 0 -192 50.5t-101 127.5q-36 113 19 215.5t208 171.5l667 313l8 222l-106 62.5t-228 130.5t-217 113t-194 33t-180 -77t-125 -173l-23 -52l190 -84l23 52
q27 72 91.5 109.5t136.5 1.5q31 -16 106 -55q239 -124 323 -164zM778.5 89.5q-27.5 27.5 -66.5 27.5t-67 -27.5t-28 -67.5q0 -39 28 -66.5t67 -27.5t66.5 27.5t27.5 66.5q0 40 -27.5 67.5zM1068.5 148.5q-27.5 27.5 -66.5 27.5t-67 -27.5t-28 -67.5q0 -39 28 -66.5t67 -27.5
t66.5 27.5t27.5 66.5q0 40 -27.5 67.5zM977.5 -85.5q-27.5 27.5 -66.5 27.5t-67 -27.5t-28 -66.5t28 -67t67 -28t66.5 28t27.5 67t-27.5 66.5z" />
    <glyph glyph-name="uni0688" unicode="&#x688;" horiz-adv-x="1109" arabic-form="isolated" 
d="M826 50q78 50 120 131.5t36 174.5t-67 173l-383 504l-164 -126l382 -503q29 -38 24.5 -84.5t-38 -79.5t-84.5 -33h-575v-207h575q96 0 174 50zM505.5 1540.5q44.5 66.5 105.5 66.5q63 0 91 -39.5t28 -88.5q0 -37 -35.5 -62.5t-87.5 -25.5h-176q30 83 74.5 149.5z
M312 1420q-3 -11 -6 -27q-1 -1 -1 -2h-55v-118h357q68 0 123 27.5t86.5 74.5t31.5 104q0 100 -65 173t-172 73q-98 0 -180 -110v313h-119v-508z" />
    <glyph glyph-name="uni0691" unicode="&#x691;" horiz-adv-x="771" arabic-form="isolated" 
d="M74 -544q149 0 277 78t203 208t75 278v672h-207v-646q0 -95 -47 -180.5t-127.5 -137.5t-173.5 -52h-80v-220h80zM482.5 1256.5q44.5 66.5 105.5 66.5q63 0 91 -39.5t28 -88.5q0 -37 -35.5 -62.5t-87.5 -25.5h-176q30 83 74.5 149.5zM289 1136q-3 -11 -6 -27q-1 -1 -1 -2
h-55v-118h357q68 0 123 27.5t86.5 74.5t31.5 104q0 100 -65 173t-172 73q-98 0 -180 -110v313h-119v-508z" />
    <glyph glyph-name="uni0698" unicode="&#x698;" horiz-adv-x="771" arabic-form="isolated" 
d="M74 -544q149 0 277 78t203 208t75 278v672h-207v-646q0 -95 -47 -180.5t-127.5 -137.5t-173.5 -52h-80v-220h80zM442 1147q-35 35 -84 35q-50 0 -85 -35t-35 -84t35 -84t85 -35q49 0 84 35t35 84t-35 84zM779 1147q-35 35 -85 35q-49 0 -84 -35t-35 -84t35 -84t84 -35
q50 0 85 35t35 84t-35 84zM610 1440q-35 35 -84 35t-84 -35t-35 -85q0 -49 35 -84t84 -35t84 35t35 84q0 50 -35 85z" />
    <glyph glyph-name="uni06A4" unicode="&#x6a4;" horiz-adv-x="1832" arabic-form="isolated" 
d="M1626.5 983.5q-51.5 93.5 -143 150t-203.5 56.5q-109 0 -199 -54.5t-143.5 -148.5t-57.5 -209q-6 -181 72 -271.5t254 -90.5h265v-23q0 -49 -31.5 -88.5t-83.5 -62t-114 -22.5h-714q-49 0 -90 24t-65 65t-24 90v327h-207v-352q0 -102 52 -188t140.5 -136t193.5 -50h714
q117 0 217 50t159.5 135t59.5 185v415q0 105 -51.5 198.5zM1250 623q-89 0 -128 43.5t-34 129.5q4 79 53.5 136.5t138.5 57.5q57 0 100.5 -30.5t67 -78.5t23.5 -98v-160h-221zM1196 1586q-35 35 -84 35q-50 0 -85 -35t-35 -84t35 -84t85 -35q49 0 84 35t35 84t-35 84z
M1533 1586q-35 35 -85 35q-49 0 -84 -35t-35 -84t35 -84t84 -35q50 0 85 35t35 84t-35 84zM1364 1879q-35 35 -84 35t-84 -35t-35 -85q0 -49 35 -84t84 -35t84 35t35 84q0 50 -35 85z" />
    <glyph glyph-name="uni06A9" unicode="&#x6a9;" horiz-adv-x="1788" arabic-form="isolated" 
d="M1312 0q105 0 185 56t118 144.5t23 184.5t-87 172l-461 482l572 219l-73 194l-718 -274v-208l518 -543q36 -38 34 -87t-36 -84.5t-87 -35.5h-772q-49 0 -90 24t-65 65t-24 90v327h-207v-340q0 -105 52 -193.5t140.5 -140.5t193.5 -52h784z" />
    <glyph glyph-name="uni06AF" unicode="&#x6af;" horiz-adv-x="1788" arabic-form="isolated" 
d="M1312 0q105 0 185 56t118 144.5t23 184.5t-87 172l-461 482l572 219l-73 194l-718 -274v-208l518 -543q36 -38 34 -87t-36 -84.5t-87 -35.5h-772q-49 0 -90 24t-65 65t-24 90v327h-207v-340q0 -105 52 -193.5t140.5 -140.5t193.5 -52h784zM1498 1581l-45 116l-586 -218
l1 -128z" />
    <glyph glyph-name="uni06BA" unicode="&#x6ba;" horiz-adv-x="1521" arabic-form="isolated" 
d="M807 -544q172 0 302 77t200 206t70 280v657h-207v-631q0 -98 -42 -182.5t-125 -135.5t-198 -51h-93q-115 0 -197.5 51t-125 135.5t-42.5 182.5v445h-207v-471q0 -151 70 -280t200.5 -206t301.5 -77h93z" />
    <glyph glyph-name="uni06BE" unicode="&#x6be;" horiz-adv-x="1575" arabic-form="isolated" 
d="M1215 457q33 -52 24 -107.5t-53 -92.5t-107 -37h-273q61 53 105 131.5t44 175.5q0 107 -55 195.5t-149.5 140t-209.5 51.5t-210 -51.5t-150 -140t-55 -195.5q0 -66 30 -156t88 -175t143.5 -140.5t191.5 -55.5h500q106 0 191 53t132 140t46 187t-58 189l-299 463
l-174 -112zM640 685q48 -21 78 -61.5t30 -96.5q0 -74 -36 -135t-80 -100.5t-91 -70.5q-207 138 -207 306q0 56 29.5 96.5t77.5 61.5t100 21q51 0 99 -21z" />
    <glyph glyph-name="uni06C1" unicode="&#x6c1;" horiz-adv-x="1077" arabic-form="isolated" 
d="M696 507q47 -83 47 -142q0 -53 -30 -92t-77 -59.5t-95 -20.5t-95 21t-77 60.5t-30 90.5q0 89 62.5 173t142.5 156q105 -104 152 -187zM221.5 628.5q-90.5 -122.5 -90.5 -263.5q0 -106 57 -193t151.5 -137t201.5 -50q103 0 197.5 46.5t153.5 133t59 200.5q0 280 -415 618
l-80 65l-131 -160l77 -64q-90 -73 -180.5 -195.5z" />
    <glyph glyph-name="uni06C3.fina" unicode="&#x6c3;" horiz-adv-x="1166" 
d="M380 331q9 67 52 120t107 74l182 60l21 -234q8 -98 62 -178t139 -126.5t183 -46.5h41v220h-41q-71 0 -121.5 41t-56.5 109l-33 365l-136 89l-306 -102q-121 -41 -202 -139.5t-97 -225.5l-43 -343l206 -25zM543 1241q-35 35 -84 35q-50 0 -85 -35t-35 -84t35 -84t85 -35
q49 0 84 35t35 84t-35 84zM880 1241q-35 35 -85 35q-49 0 -84 -35t-35 -84t35 -84t84 -35q50 0 85 35t35 84t-35 84z" />
    <glyph glyph-name="uni06C6" unicode="&#x6c6;" horiz-adv-x="1099" arabic-form="isolated" 
d="M548 220q-108 0 -154.5 43.5t-46.5 128.5q0 59 21 114t66.5 91t113.5 36q108 0 155 -73t47 -168v-172h-202zM957 392q0 131 -52 232.5t-144.5 158.5t-212.5 57q-117 0 -210.5 -57.5t-146 -159.5t-52.5 -231q0 -185 101.5 -288.5t307.5 -103.5h199q0 -152 -91.5 -238
t-236.5 -86h-283v-220h283q143 0 267 72t197.5 199.5t73.5 287.5v377zM887 1424l-150 3l-192 -219l-192 219l-150 -3l298 -345h88z" />
    <glyph glyph-name="uni06C7" unicode="&#x6c7;" horiz-adv-x="1099" arabic-form="isolated" 
d="M548 220q-108 0 -154.5 43.5t-46.5 128.5q0 59 21 114t66.5 91t113.5 36q108 0 155 -73t47 -168v-172h-202zM957 392q0 131 -52 232.5t-144.5 158.5t-212.5 57q-117 0 -210.5 -57.5t-146 -159.5t-52.5 -231q0 -185 101.5 -288.5t307.5 -103.5h199q0 -152 -91.5 -238
t-236.5 -86h-283v-220h283q143 0 267 72t197.5 199.5t73.5 287.5v377zM503 1137l19 -47l109 43l-18 48l102 40q90 39 126 122.5t3 175.5q-38 89 -122 125.5t-174 2.5q-90 -39 -126.5 -122.5t-2.5 -174.5l40 -102l-229 -91l43 -110zM693 1525q28 -19 41 -50q17 -42 -1.5 -84
t-60.5 -60l-103 -41l-41 104q-13 34 -3 69t38.5 58t67.5 23q34 0 62 -19z" />
    <glyph glyph-name="uni06C9" unicode="&#x6c9;" horiz-adv-x="1099" arabic-form="isolated" 
d="M548 220q-108 0 -154.5 43.5t-46.5 128.5q0 59 21 114t66.5 91t113.5 36q108 0 155 -73t47 -168v-172h-202zM957 392q0 131 -52 232.5t-144.5 158.5t-212.5 57q-117 0 -210.5 -57.5t-146 -159.5t-52.5 -231q0 -185 101.5 -288.5t307.5 -103.5h199q0 -152 -91.5 -238
t-236.5 -86h-283v-220h283q143 0 267 72t197.5 199.5t73.5 287.5v377zM887 1060l-150 -3l-192 219l-192 -219l-150 3l298 345h88z" />
    <glyph glyph-name="uni06D2" unicode="&#x6d2;" horiz-adv-x="1621" arabic-form="isolated" 
d="M1479 207h-895q-64 0 -118 31.5t-85.5 85.5t-31.5 118t31.5 118.5t85.5 86t118 31.5h230v207h-230q-120 0 -221.5 -59.5t-161 -161t-59.5 -222.5q0 -120 59.5 -221.5t161 -161t221.5 -59.5h895v207z" />
    <glyph glyph-name="uni06D3" unicode="&#x6d3;" horiz-adv-x="1621" arabic-form="isolated" 
d="M1479 207h-895q-64 0 -118 31.5t-85.5 85.5t-31.5 118t31.5 118.5t85.5 86t118 31.5h230v207h-230q-120 0 -221.5 -59.5t-161 -161t-59.5 -222.5q0 -120 59.5 -221.5t161 -161t221.5 -59.5h895v207zM275 1152l456 174l-42 110l-154 -59q-65 -3 -101 27.5t-36 83.5
q0 44 28 80t73 37q31 0 56 -8.5t56 -24.5q6 -3 9 -5l28 113q-38 21 -71.5 32t-77.5 11q-64 0 -114 -34t-77.5 -88.5t-27.5 -112.5q0 -54 27 -101t73 -69l-147 -56z" />
    <glyph glyph-name="uniFB51" unicode="&#x671;" horiz-adv-x="632" arabic-form="final" 
d="M645 220h-84q-74 0 -123.5 52t-49.5 127v863h-207v-888q0 -102 47 -187.5t133.5 -136t199.5 -50.5h84v220zM294.5 1727.5q43.5 64.5 104.5 64.5q63 0 91 -39t28 -88q0 -38 -35.5 -63t-86.5 -25h-180q35 86 78.5 150.5zM65.5 1674q-17.5 35 -17.5 69v60h-118v-60
q0 -65 32.5 -131.5t85.5 -109.5t111 -43h237q66 0 121 27t87 74t32 105q0 100 -65.5 172.5t-172.5 72.5q-109 0 -178.5 -89.5t-112.5 -199.5q-24 18 -41.5 53z" />
    <glyph glyph-name="uniFB57" unicode="&#x67e;" horiz-adv-x="1852" arabic-form="final" 
d="M1403 43.5q72 43.5 117 120.5q44 -77 116 -120.5t166 -43.5h51v220h-51q-49 0 -90 24t-65 65t-24 90v293h-207v-293q0 -49 -24 -90t-65 -65t-90 -24h-709q-49 0 -90 24t-65 65t-24 90v327h-207v-352q0 -102 52 -188t140.5 -136t193.5 -50h709q94 0 166 43.5zM799 -255
q-35 35 -84 35q-50 0 -85 -35t-35 -84t35 -84t85 -35q49 0 84 35t35 84t-35 84zM1136 -255q-35 35 -85 35q-49 0 -84 -35t-35 -84t35 -84t84 -35q50 0 85 35t35 84t-35 84zM967 -547q-35 35 -84 35t-84 -35t-35 -84q0 -50 35 -85t84 -35t84 35t35 85q0 49 -35 84z" />
    <glyph glyph-name="uniFB58" unicode="&#x67e;" horiz-adv-x="704" arabic-form="initial" 
d="M-55.5 152.5q-14.5 -42.5 0 -85t55.5 -67.5h176q106 0 194.5 50t140 136t51.5 188v352h-207v-327q0 -49 -24 -90t-65 -65t-90 -24h-176q-41 -25 -55.5 -67.5zM46 -267q-35 35 -84 35q-50 0 -85 -35t-35 -84t35 -84t85 -35q49 0 84 35t35 84t-35 84zM383 -267
q-35 35 -85 35q-49 0 -84 -35t-35 -84t35 -84t84 -35q50 0 85 35t35 84t-35 84zM214 -559q-35 35 -84 35t-84 -35t-35 -84q0 -50 35 -85t84 -35t84 35t35 85q0 49 -35 84z" />
    <glyph glyph-name="uniFB59" unicode="&#x67e;" horiz-adv-x="792" arabic-form="medial" 
d="M-55.5 152.5q-14.5 -42.5 0 -85t55.5 -67.5h176q94 0 166 43.5t117 120.5q44 -77 116.5 -120.5t165.5 -43.5h51v220h-51q-48 0 -89 24t-65.5 65t-24.5 90v293h-207v-293q0 -49 -24 -90t-65 -65t-90 -24h-176q-41 -25 -55.5 -67.5zM46 -267q-35 35 -84 35q-50 0 -85 -35
t-35 -84t35 -84t85 -35q49 0 84 35t35 84t-35 84zM383 -267q-35 35 -85 35q-49 0 -84 -35t-35 -84t35 -84t84 -35q50 0 85 35t35 84t-35 84zM214 -559q-35 35 -84 35t-84 -35t-35 -84q0 -50 35 -85t84 -35t84 35t35 85q0 49 -35 84z" />
    <glyph glyph-name="uniFB67" unicode="&#x679;" horiz-adv-x="1852" arabic-form="final" 
d="M1403 43.5q72 43.5 117 120.5q44 -77 116 -120.5t166 -43.5h51v220h-51q-49 0 -90 24t-65 65t-24 90v293h-207v-293q0 -49 -24 -90t-65 -65t-90 -24h-709q-49 0 -90 24t-65 65t-24 90v327h-207v-352q0 -102 52 -188t140.5 -136t193.5 -50h709q94 0 166 43.5z
M839.5 1042.5q44.5 66.5 105.5 66.5q63 0 91 -39.5t28 -88.5q0 -37 -35.5 -62.5t-87.5 -25.5h-176q30 83 74.5 149.5zM646 922q-3 -11 -6 -27q-1 -1 -1 -2h-55v-118h357q68 0 123 27.5t86.5 74.5t31.5 104q0 100 -65 173t-172 73q-98 0 -180 -110v313h-119v-508z" />
    <glyph glyph-name="uniFB68" unicode="&#x679;" horiz-adv-x="806" arabic-form="initial" 
d="M-55.5 152.5q-14.5 -42.5 0 -85t55.5 -67.5h278q105 0 193.5 50t140.5 136t52 188v352h-207v-327q0 -49 -24 -90t-65 -65t-90 -24h-278q-41 -25 -55.5 -67.5zM352.5 1243.5q44.5 66.5 105.5 66.5q63 0 91 -39.5t28 -88.5q0 -37 -35.5 -62.5t-87.5 -25.5h-176
q30 83 74.5 149.5zM159 1123q-3 -11 -6 -27q-1 -1 -1 -2h-55v-118h357q68 0 123 27.5t86.5 74.5t31.5 104q0 100 -65 173t-172 73q-98 0 -180 -110v313h-119v-508z" />
    <glyph glyph-name="uniFB69" unicode="&#x679;" horiz-adv-x="893" arabic-form="medial" 
d="M-55.5 152.5q-14.5 -42.5 0 -85t55.5 -67.5h278q94 0 166 43.5t117 120.5q44 -77 116.5 -120.5t165.5 -43.5h51v220h-51q-49 0 -90 24t-65 65t-24 90v293h-207v-293q0 -49 -24 -90t-65 -65t-90 -24h-278q-41 -25 -55.5 -67.5zM352.5 1210.5q44.5 66.5 105.5 66.5
q63 0 91 -39.5t28 -88.5q0 -37 -35.5 -62.5t-87.5 -25.5h-176q30 83 74.5 149.5zM159 1090q-3 -11 -6 -27q-1 -1 -1 -2h-55v-118h357q68 0 123 27.5t86.5 74.5t31.5 104q0 100 -65 173t-172 73q-98 0 -180 -110v313h-119v-508z" />
    <glyph glyph-name="uniFB6B" unicode="&#x6a4;" horiz-adv-x="1865" arabic-form="final" 
d="M1388.5 685q47.5 -21 77.5 -61.5t30 -96.5q0 -168 -207 -306q-207 138 -207 306q0 56 30 96.5t77.5 61.5t99.5 21t99.5 -21zM1077 0q91 0 145 15t67 31q12 -16 66 -31t145 -15h366v220h-311q60 53 104 131.5t44 175.5q0 107 -54.5 195.5t-149.5 140t-210 51.5t-210 -51.5
t-150 -140t-55 -195.5q0 -97 44 -175.5t105 -131.5h-495q-49 0 -90 24t-65 65t-24 90v327h-207v-352q0 -102 52 -188t140.5 -136t193.5 -50h549zM1205 1328q-35 35 -84 35q-50 0 -85 -35t-35 -84t35 -84t85 -35q49 0 84 35t35 84t-35 84zM1542 1328q-35 35 -85 35
q-49 0 -84 -35t-35 -84t35 -84t84 -35q50 0 85 35t35 84t-35 84zM1373 1621q-35 35 -84 35t-84 -35t-35 -85q0 -49 35 -84t84 -35t84 35t35 84q0 50 -35 85z" />
    <glyph glyph-name="uniFB6C" unicode="&#x6a4;" horiz-adv-x="1098" arabic-form="initial" 
d="M514 617q-94 0 -130.5 27.5t-36.5 103.5q0 87 54.5 161.5t146.5 74.5q66 0 111.5 -39t67.5 -96t22 -110v-122h-235zM-55.5 152.5q-14.5 -42.5 0 -85t55.5 -67.5h521q115 0 215.5 55.5t160 146t59.5 191.5v346q0 117 -52.5 221t-146 167.5t-209.5 63.5q-113 0 -207 -64
t-148 -169t-54 -223q0 -108 29.5 -177.5t102.5 -105.5t200 -36h278v-23q0 -44 -31.5 -84t-84 -64.5t-112.5 -24.5h-521q-41 -25 -55.5 -67.5zM464 1587q-35 35 -84 35q-50 0 -85 -35t-35 -84t35 -84t85 -35q49 0 84 35t35 84t-35 84zM801 1587q-35 35 -85 35q-49 0 -84 -35
t-35 -84t35 -84t84 -35q50 0 85 35t35 84t-35 84zM632 1880q-35 35 -84 35t-84 -35t-35 -85q0 -49 35 -84t84 -35t84 35t35 84q0 50 -35 85z" />
    <glyph glyph-name="uniFB6D" unicode="&#x6a4;" horiz-adv-x="1154" arabic-form="medial" 
d="M676.5 685q47.5 -21 77.5 -61.5t30 -96.5q0 -105 -64 -179t-143 -127q-207 138 -207 306q0 56 30 96.5t77.5 61.5t99.5 21t99.5 -21zM-55.5 152.5q-14.5 -42.5 0 -85t55.5 -67.5h366q91 0 144.5 15t66.5 31q13 -16 67 -31t144 -15h366v220h-311q60 53 104 131.5t44 175.5
q0 107 -54.5 195.5t-149.5 140t-210 51.5t-210 -51.5t-149.5 -140t-54.5 -195.5q0 -97 43.5 -175.5t104.5 -131.5h-311q-41 -25 -55.5 -67.5zM493 1328q-35 35 -84 35q-50 0 -85 -35t-35 -84t35 -84t85 -35q49 0 84 35t35 84t-35 84zM830 1328q-35 35 -85 35q-49 0 -84 -35
t-35 -84t35 -84t84 -35q50 0 85 35t35 84t-35 84zM661 1621q-35 35 -84 35t-84 -35t-35 -85q0 -49 35 -84t84 -35t84 35t35 84q0 50 -35 85z" />
    <glyph glyph-name="uniFB7B" unicode="&#x686;" horiz-adv-x="1427" arabic-form="final" 
d="M1250 512l8 203l-106 62.5t-228 130.5t-217 113t-194 33t-180 -77t-125 -173l-23 -52l190 -84l23 52q27 72 91.5 109.5t136.5 1.5q31 -16 106 -55q239 -124 323 -164l-546 -239q-190 -76 -287.5 -213t-90.5 -293q5 -136 69.5 -243t180 -167.5t268.5 -60.5h547v219h-547
q-116 0 -192 50.5t-101 127.5q-36 113 19 215.5t208 171.5l390 185l36 -175q21 -95 96 -142.5t168 -47.5h155v220h-149q-41 0 -77 18t-46 65l-30 142zM707 32.5q-26 25.5 -62 25.5q-37 0 -63 -25.5t-26 -62.5t26 -62.5t63 -25.5q36 0 62 25.5t26 62.5t-26 62.5zM957 107
q-26 26 -62 26q-37 0 -63 -26t-26 -62q0 -37 26 -63t63 -26q36 0 62 26t26 63q0 36 -26 62zM890.5 -118q-25.5 26 -62.5 26t-62.5 -26t-25.5 -63q0 -36 25.5 -62t62.5 -26t62.5 26t25.5 62q0 37 -25.5 63z" />
    <glyph glyph-name="uniFB7C" unicode="&#x686;" horiz-adv-x="1304" arabic-form="initial" 
d="M-55.5 152.5q-14.5 -42.5 0 -85t55.5 -67.5h214q319 0 564 108.5t420 230.5q26 18 29 19l-10 200q-6 0 -47 21.5t-133 71.5q-278 152 -395 208q-96 45 -195 33t-179.5 -77t-125.5 -172l-19 -45l190 -84l20 45q26 71 90.5 108.5t137.5 1.5q20 -10 65 -33
q295 -151 406 -199q-197 -89 -400 -153t-418 -64h-214q-41 -25 -55.5 -67.5zM464 -261q-35 35 -84 35q-50 0 -85 -35t-35 -84t35 -84t85 -35q49 0 84 35t35 84t-35 84zM801 -261q-35 35 -85 35q-49 0 -84 -35t-35 -84t35 -84t84 -35q50 0 85 35t35 84t-35 84zM632 -553
q-35 35 -84 35t-84 -35t-35 -84q0 -50 35 -85t84 -35t84 35t35 85q0 49 -35 84z" />
    <glyph glyph-name="uniFB7D" unicode="&#x686;" horiz-adv-x="1384" arabic-form="medial" 
d="M-55.5 152.5q-14.5 -42.5 0 -85t55.5 -67.5h214q361 0 726 198l81 -94q31 -49 91 -76.5t129 -27.5h156v220h-156q-54 0 -95 28l-60 50q42 26 99 64q35 24 40 26l-8 170q-6 0 -47 21.5t-133 71.5q-278 152 -395 208q-96 45 -195 33t-179.5 -77t-125.5 -172l-19 -45
l190 -84l20 45q26 71 90.5 108.5t137.5 1.5q20 -10 65 -33q295 -151 406 -199q-197 -89 -400 -153t-418 -64h-214q-41 -25 -55.5 -67.5zM464 -261q-35 35 -84 35q-50 0 -85 -35t-35 -84t35 -84t85 -35q49 0 84 35t35 84t-35 84zM801 -261q-35 35 -85 35q-49 0 -84 -35
t-35 -84t35 -84t84 -35q50 0 85 35t35 84t-35 84zM632 -553q-35 35 -84 35t-84 -35t-35 -84q0 -50 35 -85t84 -35t84 35t35 85q0 49 -35 84z" />
    <glyph glyph-name="uniFB89" unicode="&#x688;" horiz-adv-x="1178" arabic-form="final" 
d="M564 0q115 0 191 52.5t105 136.5l20 -37q49 -72 121 -112t158 -40h19v220h-19q-98 0 -140 80l-396 729l-182 -100l295 -541q21 -39 12 -81.5t-41.5 -71t-78.5 -28.5h-551v-207h487zM562.5 1538.5q44.5 66.5 105.5 66.5q63 0 91 -39.5t28 -88.5q0 -37 -35.5 -62.5
t-87.5 -25.5h-176q30 83 74.5 149.5zM369 1418q-3 -11 -6 -27q-1 -1 -1 -2h-55v-118h357q68 0 123 27.5t86.5 74.5t31.5 104q0 100 -65 173t-172 73q-98 0 -180 -110v313h-119v-508z" />
    <glyph glyph-name="uniFB8B" unicode="&#x698;" horiz-adv-x="873" arabic-form="final" 
d="M731 35q59 -35 127 -35h15v220h-15q-61 0 -113.5 31.5t-84 85.5t-31.5 118v237h-207v-646q0 -95 -47 -180.5t-127.5 -137.5t-173.5 -52h-80v-220h80q149 0 277 78t203 208t75 277v112q43 -61 102 -96zM442 1147q-35 35 -84 35q-50 0 -85 -35t-35 -84t35 -84t85 -35
q49 0 84 35t35 84t-35 84zM779 1147q-35 35 -85 35q-49 0 -84 -35t-35 -84t35 -84t84 -35q50 0 85 35t35 84t-35 84zM610 1440q-35 35 -84 35t-84 -35t-35 -85q0 -49 35 -84t84 -35t84 35t35 84q0 50 -35 85z" />
    <glyph glyph-name="uniFB8D" unicode="&#x691;" horiz-adv-x="873" arabic-form="final" 
d="M731 35q59 -35 127 -35h15v220h-15q-61 0 -113.5 31.5t-84 85.5t-31.5 118v237h-207v-646q0 -95 -47 -180.5t-127.5 -137.5t-173.5 -52h-80v-220h80q149 0 277 78t203 208t75 277v112q43 -61 102 -96zM482.5 1256.5q44.5 66.5 105.5 66.5q63 0 91 -39.5t28 -88.5
q0 -37 -35.5 -62.5t-87.5 -25.5h-176q30 83 74.5 149.5zM289 1136q-3 -11 -6 -27q-1 -1 -1 -2h-55v-118h357q68 0 123 27.5t86.5 74.5t31.5 104q0 100 -65 173t-172 73q-98 0 -180 -110v313h-119v-508z" />
    <glyph glyph-name="uniFB8F" unicode="&#x6a9;" horiz-adv-x="1943" arabic-form="final" 
d="M1249 0q131 0 218 68.5t107 163.5l123 -129q48 -50 110 -76.5t130 -26.5h7v220h-7q-30 0 -57 9.5t-45 28.5l-745 781l572 219l-73 194l-718 -274v-208l521 -546q34 -39 31 -87t-37 -82.5t-86 -34.5h-772q-49 0 -90 24t-65 65t-24 90v327h-207v-340q0 -105 52 -193.5
t140.5 -140.5t193.5 -52h721z" />
    <glyph glyph-name="uniFB90" unicode="&#x6a9;" horiz-adv-x="1102" arabic-form="initial" 
d="M-55.5 152.5q-14.5 -42.5 0 -85t55.5 -67.5h628q105 0 185 56t117.5 144.5t23 184.5t-86.5 172l-461 482l572 219l-73 194l-719 -274v-208l518 -543q36 -38 34.5 -87t-35.5 -84.5t-87 -35.5h-616q-41 -25 -55.5 -67.5z" />
    <glyph glyph-name="uniFB91" unicode="&#x6a9;" horiz-adv-x="1264" arabic-form="medial" 
d="M-55.5 152.5q-14.5 -42.5 0 -85t55.5 -67.5h564q131 0 218 68.5t108 163.5l123 -129q47 -50 109.5 -76.5t129.5 -26.5h12v220h-12q-30 0 -57 9.5t-45 28.5l-744 781l572 219l-73 194l-719 -274v-208l522 -546q33 -39 30.5 -87t-36.5 -82.5t-86 -34.5h-616
q-41 -25 -55.5 -67.5z" />
    <glyph glyph-name="uniFB93" unicode="&#x6af;" horiz-adv-x="1941" arabic-form="final" 
d="M1249 0q131 0 218 68.5t107 163.5l123 -129q48 -50 110 -76.5t130 -26.5h7v220h-7q-30 0 -57 9.5t-45 28.5l-745 781l572 219l-73 194l-718 -274v-208l521 -546q34 -39 31 -87t-37 -82.5t-86 -34.5h-772q-49 0 -90 24t-65 65t-24 90v327h-207v-340q0 -105 52 -193.5
t140.5 -140.5t193.5 -52h721zM1502 1581l-45 116l-586 -218l1 -128z" />
    <glyph glyph-name="uniFB94" unicode="&#x6af;" horiz-adv-x="1102" arabic-form="initial" 
d="M-55.5 152.5q-14.5 -42.5 0 -85t55.5 -67.5h628q105 0 185 56t117.5 144.5t23 184.5t-86.5 172l-461 482l572 219l-73 194l-719 -274v-208l518 -543q36 -38 34.5 -87t-35.5 -84.5t-87 -35.5h-616q-41 -25 -55.5 -67.5zM801 1581l-45 116l-586 -218l1 -128z" />
    <glyph glyph-name="uniFB95" unicode="&#x6af;" horiz-adv-x="1260" arabic-form="medial" 
d="M-55.5 152.5q-14.5 -42.5 0 -85t55.5 -67.5h564q131 0 218 68.5t108 163.5l123 -129q47 -50 109.5 -76.5t129.5 -26.5h12v220h-12q-30 0 -57 9.5t-45 28.5l-744 781l572 219l-73 194l-719 -274v-208l522 -546q33 -39 30.5 -87t-36.5 -82.5t-86 -34.5h-616
q-41 -25 -55.5 -67.5zM801 1581l-45 116l-586 -218l1 -128z" />
    <glyph glyph-name="uniFB9F" unicode="&#x6ba;" horiz-adv-x="1609" arabic-form="final" 
d="M807 -544q171 0 301 76.5t200 204.5t71 279v79q34 -44 80 -69.5t99 -25.5h51v220h-51q-48 0 -89.5 24t-65.5 65t-24 89v278h-207v-631q0 -98 -42 -182.5t-125 -135.5t-198 -51h-93q-115 0 -197.5 51t-125 135.5t-42.5 182.5v445h-207v-471q0 -151 70 -280t200.5 -206
t301.5 -77h93z" />
    <glyph glyph-name="uniFBA7" unicode="&#x6c1;" horiz-adv-x="1166" arabic-form="final" 
d="M380 331q9 67 52 120t107 74l182 60l21 -234q8 -98 62 -178t139 -126.5t183 -46.5h41v220h-41q-71 0 -121.5 41t-56.5 109l-33 365l-136 89l-306 -102q-121 -41 -202 -139.5t-97 -225.5l-43 -343l206 -25z" />
    <glyph glyph-name="uniFBA8" unicode="&#x6c1;" horiz-adv-x="1271" arabic-form="initial" 
d="M818.5 -592q-60.5 31 -154.5 7v30q0 45 28.5 79.5t73.5 41.5l103 15l-22 154l-61 -12q-122 -23 -197.5 -109.5t-77.5 -195.5v-107q0 -66 51.5 -111t129.5 -45q79 0 133 43.5t54 108.5q0 70 -60.5 101zM-55.5 152.5q-14.5 -42.5 0 -85t55.5 -67.5h126q93 0 165.5 43.5
t116.5 120.5q45 -77 117 -120.5t166 -43.5h52q105 0 193.5 50t140.5 136t52 188v352h-207v-327q0 -49 -24 -90t-65.5 -65t-89.5 -24h-52q-49 0 -90 24t-65 65t-24 90v293h-207v-293q0 -49 -24 -90t-65.5 -65t-89.5 -24h-126q-41 -25 -55.5 -67.5z" />
    <glyph glyph-name="uniFBA9" unicode="&#x6c1;" horiz-adv-x="1112" arabic-form="medial" 
d="M-55.5 152.5q-14.5 -42.5 0 -85t55.5 -67.5h224q21 -285 177 -425t430 -140l104 127v387q0 22 14 36.5t37 14.5h126v220h-188q-90 0 -143.5 -53.5t-53.5 -143.5v-367q-148 18 -224 120t-77 313v517h-207v-386h-219q-41 -25 -55.5 -67.5z" />
    <glyph glyph-name="uniFBAB" unicode="&#x6be;" horiz-adv-x="1616" arabic-form="final" 
d="M1382 220q53 71 57.5 167t-49.5 182l-299 463l-174 -112l298 -463q33 -52 24 -107.5t-53 -92.5t-107 -37h-273q61 53 105 131.5t44 175.5q0 107 -55 195.5t-149.5 140t-209.5 51.5t-210 -51.5t-150 -140t-55 -195.5q0 -66 30 -156t88 -175t143.5 -140.5t191.5 -55.5h1036
v220h-233zM640 685q48 -21 78 -61.5t30 -96.5q0 -74 -36 -135t-80 -100.5t-91 -70.5q-207 138 -207 306q0 56 29.5 96.5t77.5 61.5t100 21q51 0 99 -21z" />
    <glyph glyph-name="uniFBAC" unicode="&#x6be;" horiz-adv-x="1616" arabic-form="initial" 
d="M676.5 685q47.5 -21 77.5 -61.5t30 -96.5q0 -105 -64 -179t-143 -127q-207 138 -207 306q0 56 30 96.5t77.5 61.5t99.5 21t99.5 -21zM1171 0q96 0 174 50t120 131.5t36 174.5t-67 173l-383 504l-165 -126l373 -490q29 -38 24.5 -85t-38 -79.5t-84.5 -32.5h-318
q60 53 104 131.5t44 175.5q0 107 -54.5 195.5t-149.5 140t-210 51.5t-210 -51.5t-149.5 -140t-54.5 -195.5q0 -97 43.5 -175.5t104.5 -131.5h-311q-41 -25 -55.5 -67.5t0 -85t55.5 -67.5h366q91 0 144.5 15t66.5 31q13 -16 67 -31t144 -15h383z" />
    <glyph glyph-name="uniFBAD" unicode="&#x6be;" horiz-adv-x="1646" arabic-form="medial" 
d="M672.5 685q47.5 -21 77.5 -61.5t30 -96.5q0 -168 -207 -306q-207 138 -207 306q0 56 30 96.5t77.5 61.5t99.5 21t99.5 -21zM-55.5 152.5q-14.5 -42.5 0 -85t55.5 -67.5h394q143 1 179 49q36 -48 179 -49h895v220h-233q53 71 58 167t-50 182l-298 463l-175 -112l298 -463
q33 -52 24 -107.5t-53 -92.5t-106 -37h-273q60 53 104 131.5t44 175.5q0 107 -54.5 195.5t-149.5 140t-210 51.5t-210 -51.5t-149.5 -140t-54.5 -195.5q0 -97 43.5 -175.5t104.5 -131.5h-307q-41 -25 -55.5 -67.5z" />
    <glyph glyph-name="uniFBAF" unicode="&#x6d2;" horiz-adv-x="1085" arabic-form="final" 
d="M891 -278h-363q-77 0 -128 37.5t-51 101.5t51 101.5t128 37.5h556v220h-556q-106 0 -194.5 -46t-140 -128t-51.5 -185q0 -102 51.5 -181t139.5 -122t195 -43h363v207z" />
    <glyph glyph-name="uniFBB1" unicode="&#x6d3;" horiz-adv-x="1085" arabic-form="final" 
d="M891 -278h-363q-77 0 -128 37.5t-51 101.5t51 101.5t128 37.5h556v220h-556q-106 0 -194.5 -46t-140 -128t-51.5 -185q0 -102 51.5 -181t139.5 -122t195 -43h363v207zM275 487l456 174l-42 110l-154 -59q-65 -3 -101 27.5t-36 83.5q0 44 28 80t73 37q31 0 56 -8.5
t56 -24.5q6 -3 9 -5l28 113q-38 21 -71.5 32t-77.5 11q-64 0 -114 -34t-77.5 -88.5t-27.5 -112.5q0 -54 27 -101t73 -69l-147 -56z" />
    <glyph glyph-name="uniFBD8" unicode="&#x6c7;" horiz-adv-x="1133" arabic-form="final" 
d="M548 220q-108 0 -154.5 43.5t-46.5 128.5q0 59 21 114t66.5 91t113.5 36q108 0 155 -73t47 -168v-172h-202zM655.5 -238q-91.5 -86 -236.5 -86h-283v-220h283q141 0 263 69.5t196 194t78 280.5h176v220h-175v172q0 131 -52 232.5t-144.5 158.5t-212.5 57
q-117 0 -210.5 -57.5t-146 -159.5t-52.5 -231q0 -185 101.5 -288.5t307.5 -103.5h199q0 -152 -91.5 -238zM503 1137l19 -47l109 43l-18 48l102 40q90 39 126 122.5t3 175.5q-38 89 -122 125.5t-174 2.5q-90 -39 -126.5 -122.5t-2.5 -174.5l40 -102l-229 -91l43 -110z
M693 1525q28 -19 41 -50q17 -42 -1.5 -84t-60.5 -60l-103 -41l-41 104q-13 34 -3 69t38.5 58t67.5 23q34 0 62 -19z" />
    <glyph glyph-name="uniFBDA" unicode="&#x6c6;" horiz-adv-x="1133" arabic-form="final" 
d="M548 220q-108 0 -154.5 43.5t-46.5 128.5q0 59 21 114t66.5 91t113.5 36q108 0 155 -73t47 -168v-172h-202zM655.5 -238q-91.5 -86 -236.5 -86h-283v-220h283q141 0 263 69.5t196 194t78 280.5h176v220h-175v172q0 131 -52 232.5t-144.5 158.5t-212.5 57
q-117 0 -210.5 -57.5t-146 -159.5t-52.5 -231q0 -185 101.5 -288.5t307.5 -103.5h199q0 -152 -91.5 -238zM887 1424l-150 3l-192 -219l-192 219l-150 -3l298 -345h88z" />
    <glyph glyph-name="uniFBE3" unicode="&#x6c9;" horiz-adv-x="1133" arabic-form="final" 
d="M548 220q-108 0 -154.5 43.5t-46.5 128.5q0 59 21 114t66.5 91t113.5 36q108 0 155 -73t47 -168v-172h-202zM655.5 -238q-91.5 -86 -236.5 -86h-283v-220h283q141 0 263 69.5t196 194t78 280.5h176v220h-175v172q0 131 -52 232.5t-144.5 158.5t-212.5 57
q-117 0 -210.5 -57.5t-146 -159.5t-52.5 -231q0 -185 101.5 -288.5t307.5 -103.5h199q0 -152 -91.5 -238zM887 1060l-150 -3l-192 219l-192 -219l-150 3l298 345h88z" />
    <glyph glyph-name="uniFBE8" unicode="&#x649;" horiz-adv-x="727" arabic-form="initial" 
d="M-55.5 152.5q-14.5 -42.5 0 -85t55.5 -67.5h199q105 0 193.5 50t140.5 136t52 188v352h-207v-327q0 -49 -24.5 -90t-65.5 -65t-89 -24h-199q-41 -25 -55.5 -67.5z" />
    <glyph glyph-name="uniFBE9" unicode="&#x649;" horiz-adv-x="814" arabic-form="medial" 
d="M-55.5 152.5q-14.5 -42.5 0 -85t55.5 -67.5h199q93 0 165.5 43.5t116.5 120.5q45 -77 117 -120.5t166 -43.5h50v220h-50q-49 0 -90 24t-65 65t-24 90v293h-207v-293q0 -49 -24.5 -90t-65.5 -65t-89 -24h-199q-41 -25 -55.5 -67.5z" />
    <glyph glyph-name="uniFBFD" unicode="&#x6cc;" horiz-adv-x="1695" arabic-form="final" 
d="M1695 220h-940v-207h398q50 -2 77 -36.5t26 -83.5q-1 -105 -97.5 -161t-233.5 -56h-222q-114 0 -194 48.5t-120 130t-40 179.5v456h-207v-482q0 -150 68 -276.5t195 -201t298 -74.5h222q170 0 291 64t182 164t60 205q-1 69 -36 111h273v220z" />
    <glyph glyph-name="uniFBFE" unicode="&#x6cc;" horiz-adv-x="704" arabic-form="initial" 
d="M-55.5 152.5q-14.5 -42.5 0 -85t55.5 -67.5h176q106 0 194.5 50t140 136t51.5 188v352h-207v-327q0 -49 -24 -90t-65 -65t-90 -24h-176q-41 -25 -55.5 -67.5zM46 -321q-35 35 -84 35q-50 0 -85 -35t-35 -84t35 -84t85 -35q49 0 84 35t35 84t-35 84zM383 -321
q-35 35 -85 35q-49 0 -84 -35t-35 -84t35 -84t84 -35q50 0 85 35t35 84t-35 84z" />
    <glyph glyph-name="uniFBFF" unicode="&#x6cc;" horiz-adv-x="792" arabic-form="medial" 
d="M-55.5 152.5q-14.5 -42.5 0 -85t55.5 -67.5h176q94 0 166 43.5t117 120.5q44 -77 116.5 -120.5t165.5 -43.5h51v220h-51q-48 0 -89 24t-65.5 65t-24.5 90v293h-207v-293q0 -49 -24 -90t-65 -65t-90 -24h-176q-41 -25 -55.5 -67.5zM46 -321q-35 35 -84 35q-50 0 -85 -35
t-35 -84t35 -84t85 -35q49 0 84 35t35 84t-35 84zM383 -321q-35 35 -85 35q-49 0 -84 -35t-35 -84t35 -84t84 -35q50 0 85 35t35 84t-35 84z" />
    <glyph glyph-name="uniFD3C" unicode="&#xfd3c;" horiz-adv-x="632" arabic-form="final" 
d="M645 220h-84q-74 0 -123.5 52t-49.5 127v863h-207v-888q0 -102 47 -187.5t133.5 -136t199.5 -50.5h84v220zM51 1407l522 207l-44 109l-522 -206zM-54 1701l522 207l-44 109l-522 -206z" />
    <glyph glyph-name="uniFD3D" unicode="&#xfd3d;" horiz-adv-x="560" arabic-form="isolated" 
d="M181 0h207v1262h-207v-1262zM51 1407l522 207l-44 109l-522 -206zM-54 1701l522 207l-44 109l-522 -206z" />
    <glyph glyph-name="uniFDF2" unicode="&#xfdf2;" horiz-adv-x="2930" arabic-form="isolated" 
d="M2607 0h207v1436h-207v-1436zM1765.5 152.5q-14.5 -42.5 0 -85t55.5 -67.5h103q105 0 193.5 52t140.5 140.5t52 193.5v1050h-207v-1037q0 -49 -24 -90t-65.5 -65t-89.5 -24h-103q-41 -25 -55.5 -67.5zM1113.5 152.5q-14.5 -42.5 0 -85t55.5 -67.5h44q94 0 166 43.5
t116 120.5q45 -77 117 -120.5t166 -43.5h44v220h-44q-49 0 -90 24t-65 65t-24 90v773h-207v-773q0 -49 -24 -90t-65 -65t-90 -24h-44q-41 -25 -55.5 -67.5zM1434 1434q40 29 63 80q50 -53 124 -53h14q55 0 101 27t73 73t27 101v183h-119v-183q0 -34 -24 -58.5t-58 -24.5h-14
q-34 0 -58 24.5t-24 58.5v127h-118v-184q0 -34 -24 -58t-58 -24h-14q-34 0 -58 24t-24 58v184h-119v-184q0 -54 27 -100t73 -73t101 -27h14q55 0 95 29zM1417 1907h118v391h-118v-391zM958.5 51.5q77.5 -51.5 173.5 -51.5h68v220h-69q-56 0 -98.5 36.5t-50.5 92.5l-108 736
l-205 -30l17 -122q-183 -6 -312.5 -76.5t-193 -191t-52.5 -274.5q7 -111 73.5 -187.5t172 -106.5t228 -4.5t236.5 108.5q43 -98 120.5 -149.5zM769 368q-105 -76 -204 -88.5t-162 25.5t-68 102q-10 153 90 237.5t291 82.5z" />
    <glyph glyph-name="uniFDFC" unicode="&#xfdfc;" horiz-adv-x="3277" arabic-form="isolated" 
d="M2579 -508q150 0 278 78t203 208t75 278v636h-208v-610q0 -96 -47 -185.5t-127.5 -145.5t-173.5 -56h-888v-203h888zM1629 1234v-860q0 -102 47 -187.5t133.5 -136t199.5 -50.5h208q105 0 193.5 50t140.5 136t52 188v352h-207v-327q0 -49 -24.5 -90t-65.5 -65t-89 -24
h-208q-74 0 -123.5 52t-49.5 127v1037h-681v-1373q0 -98 -42.5 -182.5t-125 -135.5t-197.5 -51h-76q-115 0 -197.5 51t-125 135.5t-42.5 182.5v407h-207v-433q0 -151 70 -280t200.5 -206t301.5 -77h76q171 0 301.5 77t200.5 206t70 280v1197h267z" />
    <glyph glyph-name="uniFE82" unicode="&#x622;" horiz-adv-x="641" arabic-form="final" 
d="M645 220h-84q-74 0 -123.5 52t-49.5 127v863h-207v-888q0 -102 47 -187.5t133.5 -136t199.5 -50.5h84v220zM23 1453q19 44 57.5 70.5t86.5 25.5h453v144h-453q-92 0 -167.5 -51t-109.5 -136l-61 -154l134 -53z" />
    <glyph glyph-name="uniFE86" unicode="&#x624;" horiz-adv-x="1133" arabic-form="final" 
d="M548 220q-108 0 -154.5 43.5t-46.5 128.5q0 59 21 114t66.5 91t113.5 36q108 0 155 -73t47 -168v-172h-202zM655.5 -238q-91.5 -86 -236.5 -86h-283v-220h283q141 0 263 69.5t196 194t78 280.5h176v220h-175v172q0 131 -52 232.5t-144.5 158.5t-212.5 57
q-117 0 -210.5 -57.5t-146 -159.5t-52.5 -231q0 -185 101.5 -288.5t307.5 -103.5h199q0 -152 -91.5 -238zM341 1042l456 174l-42 110l-154 -59q-65 -3 -101 27.5t-36 83.5q0 44 28 80t73 37q31 0 56 -8.5t56 -24.5q6 -3 9 -5l28 113q-38 21 -71.5 32t-77.5 11
q-64 0 -114 -34t-77.5 -88.5t-27.5 -112.5q0 -54 27 -101t73 -69l-147 -56z" />
    <glyph glyph-name="uniFE88" unicode="&#x625;" horiz-adv-x="641" arabic-form="final" 
d="M645 220h-84q-74 0 -123.5 52t-49.5 127v1037h-207v-1062q0 -102 47 -187.5t133.5 -136t199.5 -50.5h84v220zM72 -811l456 174l-42 110l-154 -59q-65 -3 -101 27.5t-36 83.5q0 44 28 80t73 37q31 0 56 -8.5t56 -24.5q6 -3 9 -5l28 113q-38 21 -71.5 32t-77.5 11
q-64 0 -114 -34t-77.5 -88.5t-27.5 -112.5q0 -54 27 -101t73 -69l-147 -56z" />
    <glyph glyph-name="uniFE8B" unicode="&#x626;" horiz-adv-x="727" arabic-form="initial" 
d="M-55.5 152.5q-14.5 -42.5 0 -85t55.5 -67.5h199q105 0 193.5 50t140.5 136t52 188v352h-207v-327q0 -49 -24.5 -90t-65.5 -65t-89 -24h-199q-41 -25 -55.5 -67.5zM106 959l456 174l-42 110l-154 -59q-65 -3 -101 27.5t-36 83.5q0 44 28 80t73 37q31 0 56 -8.5t56 -24.5
q6 -3 9 -5l28 113q-38 21 -71.5 32t-77.5 11q-64 0 -114 -34t-77.5 -88.5t-27.5 -112.5q0 -54 27 -101t73 -69l-147 -56z" />
    <glyph glyph-name="uniFE8C" unicode="&#x626;" horiz-adv-x="814" arabic-form="medial" 
d="M-55.5 152.5q-14.5 -42.5 0 -85t55.5 -67.5h199q93 0 165.5 43.5t116.5 120.5q45 -77 117 -120.5t166 -43.5h50v220h-50q-49 0 -90 24t-65 65t-24 90v293h-207v-293q0 -49 -24.5 -90t-65.5 -65t-89 -24h-199q-41 -25 -55.5 -67.5zM106 926l456 174l-42 110l-154 -59
q-65 -3 -101 27.5t-36 83.5q0 44 28 80t73 37q31 0 56 -8.5t56 -24.5q6 -3 9 -5l28 113q-38 21 -71.5 32t-77.5 11q-64 0 -114 -34t-77.5 -88.5t-27.5 -112.5q0 -54 27 -101t73 -69l-147 -56z" />
    <glyph glyph-name="uniFE8E" unicode="&#x627;" horiz-adv-x="645" arabic-form="final" 
d="M645 220h-84q-74 0 -123.5 52t-49.5 127v1037h-207v-1062q0 -102 47 -187.5t133.5 -136t199.5 -50.5h84v220z" />
    <glyph glyph-name="uniFE90" unicode="&#x628;" horiz-adv-x="1852" arabic-form="final" 
d="M1403 43.5q72 43.5 117 120.5q44 -77 116 -120.5t166 -43.5h51v220h-51q-49 0 -90 24t-65 65t-24 90v293h-207v-293q0 -49 -24 -90t-65 -65t-90 -24h-709q-49 0 -90 24t-65 65t-24 90v327h-207v-352q0 -102 52 -188t140.5 -136t193.5 -50h709q94 0 166 43.5zM967 -321
q-35 35 -84 35t-84 -35t-35 -84t35 -84t84 -35t84 35t35 84t-35 84z" />
    <glyph glyph-name="uniFE91" unicode="&#x628;" horiz-adv-x="727" arabic-form="initial" 
d="M-55.5 152.5q-14.5 -42.5 0 -85t55.5 -67.5h199q105 0 193.5 50t140.5 136t52 188v352h-207v-327q0 -49 -24.5 -90t-65.5 -65t-89 -24h-199q-41 -25 -55.5 -67.5zM262 -321q-35 35 -84 35t-84 -35t-35 -84t35 -84t84 -35t84 35t35 84t-35 84z" />
    <glyph glyph-name="uniFE92" unicode="&#x628;" horiz-adv-x="814" arabic-form="medial" 
d="M-55.5 152.5q-14.5 -42.5 0 -85t55.5 -67.5h199q93 0 165.5 43.5t116.5 120.5q45 -77 117 -120.5t166 -43.5h50v220h-50q-49 0 -90 24t-65 65t-24 90v293h-207v-293q0 -49 -24.5 -90t-65.5 -65t-89 -24h-199q-41 -25 -55.5 -67.5zM262 -321q-35 35 -84 35t-84 -35
t-35 -84t35 -84t84 -35t84 35t35 84t-35 84z" />
    <glyph glyph-name="uniFE94" unicode="&#x629;" horiz-adv-x="1200" arabic-form="final" 
d="M958.5 51.5q77.5 -51.5 173.5 -51.5h68v220h-69q-56 0 -98.5 36.5t-50.5 92.5l-108 736l-205 -30l17 -122q-183 -6 -312.5 -76.5t-193 -191t-52.5 -274.5q7 -111 73.5 -187.5t172 -106.5t228 -4.5t236.5 108.5q43 -98 120.5 -149.5zM769 368q-105 -76 -204 -88.5
t-162 25.5t-68 102q-10 153 90 237.5t291 82.5zM557 1503q-35 35 -84 35q-50 0 -85 -35t-35 -84t35 -84t85 -35q49 0 84 35t35 84t-35 84zM894 1503q-35 35 -85 35q-49 0 -84 -35t-35 -84t35 -84t84 -35q50 0 85 35t35 84t-35 84z" />
    <glyph glyph-name="uniFE96" unicode="&#x62a;" horiz-adv-x="1852" arabic-form="final" 
d="M1403 43.5q72 43.5 117 120.5q44 -77 116 -120.5t166 -43.5h51v220h-51q-49 0 -90 24t-65 65t-24 90v293h-207v-293q0 -49 -24 -90t-65 -65t-90 -24h-709q-49 0 -90 24t-65 65t-24 90v327h-207v-352q0 -102 52 -188t140.5 -136t193.5 -50h709q94 0 166 43.5zM799 1055
q-35 35 -84 35q-50 0 -85 -35t-35 -84t35 -84t85 -35q49 0 84 35t35 84t-35 84zM1136 1055q-35 35 -85 35q-49 0 -84 -35t-35 -84t35 -84t84 -35q50 0 85 35t35 84t-35 84z" />
    <glyph glyph-name="uniFE97" unicode="&#x62a;" horiz-adv-x="806" arabic-form="initial" 
d="M-55.5 152.5q-14.5 -42.5 0 -85t55.5 -67.5h278q105 0 193.5 50t140.5 136t52 188v352h-207v-327q0 -49 -24 -90t-65 -65t-90 -24h-278q-41 -25 -55.5 -67.5zM312 1180q-35 35 -84 35q-50 0 -85 -35t-35 -84t35 -84t85 -35q49 0 84 35t35 84t-35 84zM649 1180
q-35 35 -85 35q-49 0 -84 -35t-35 -84t35 -84t84 -35q50 0 85 35t35 84t-35 84z" />
    <glyph glyph-name="uniFE98" unicode="&#x62a;" horiz-adv-x="893" arabic-form="medial" 
d="M-55.5 152.5q-14.5 -42.5 0 -85t55.5 -67.5h278q94 0 166 43.5t117 120.5q44 -77 116.5 -120.5t165.5 -43.5h51v220h-51q-49 0 -90 24t-65 65t-24 90v293h-207v-293q0 -49 -24 -90t-65 -65t-90 -24h-278q-41 -25 -55.5 -67.5zM312 1147q-35 35 -84 35q-50 0 -85 -35
t-35 -84t35 -84t85 -35q49 0 84 35t35 84t-35 84zM649 1147q-35 35 -85 35q-49 0 -84 -35t-35 -84t35 -84t84 -35q50 0 85 35t35 84t-35 84z" />
    <glyph glyph-name="uniFE9A" unicode="&#x62b;" horiz-adv-x="1852" arabic-form="final" 
d="M1403 43.5q72 43.5 117 120.5q44 -77 116 -120.5t166 -43.5h51v220h-51q-49 0 -90 24t-65 65t-24 90v293h-207v-293q0 -49 -24 -90t-65 -65t-90 -24h-709q-49 0 -90 24t-65 65t-24 90v327h-207v-352q0 -102 52 -188t140.5 -136t193.5 -50h709q94 0 166 43.5zM799 1075
q-35 35 -84 35q-50 0 -85 -35t-35 -84t35 -84t85 -35q49 0 84 35t35 84t-35 84zM1136 1075q-35 35 -85 35q-49 0 -84 -35t-35 -84t35 -84t84 -35q50 0 85 35t35 84t-35 84zM967 1368q-35 35 -84 35t-84 -35t-35 -85q0 -49 35 -84t84 -35t84 35t35 84q0 50 -35 85z" />
    <glyph glyph-name="uniFE9B" unicode="&#x62b;" horiz-adv-x="806" arabic-form="initial" 
d="M-55.5 152.5q-14.5 -42.5 0 -85t55.5 -67.5h278q105 0 193.5 50t140.5 136t52 188v352h-207v-327q0 -49 -24 -90t-65 -65t-90 -24h-278q-41 -25 -55.5 -67.5zM308 1180q-35 35 -84 35q-50 0 -85 -35t-35 -84t35 -84t85 -35q49 0 84 35t35 84t-35 84zM645 1180
q-35 35 -85 35q-49 0 -84 -35t-35 -84t35 -84t84 -35q50 0 85 35t35 84t-35 84zM476 1473q-35 35 -84 35t-84 -35t-35 -85q0 -49 35 -84t84 -35t84 35t35 84q0 50 -35 85z" />
    <glyph glyph-name="uniFE9C" unicode="&#x62b;" horiz-adv-x="893" arabic-form="medial" 
d="M-55.5 152.5q-14.5 -42.5 0 -85t55.5 -67.5h278q94 0 166 43.5t117 120.5q44 -77 116.5 -120.5t165.5 -43.5h51v220h-51q-49 0 -90 24t-65 65t-24 90v293h-207v-293q0 -49 -24 -90t-65 -65t-90 -24h-278q-41 -25 -55.5 -67.5zM308 1147q-35 35 -84 35q-50 0 -85 -35
t-35 -84t35 -84t85 -35q49 0 84 35t35 84t-35 84zM645 1147q-35 35 -85 35q-49 0 -84 -35t-35 -84t35 -84t84 -35q50 0 85 35t35 84t-35 84zM476 1440q-35 35 -84 35t-84 -35t-35 -85q0 -49 35 -84t84 -35t84 35t35 84q0 50 -35 85z" />
    <glyph glyph-name="uniFE9E" unicode="&#x62c;" horiz-adv-x="1427" arabic-form="final" 
d="M1250 512l8 203l-106 62.5t-228 130.5t-217 113t-194 33t-180 -77t-125 -173l-23 -52l190 -84l23 52q27 72 91.5 109.5t136.5 1.5q31 -16 106 -55q239 -124 323 -164l-546 -239q-190 -76 -287.5 -213t-90.5 -293q5 -136 69.5 -243t180 -167.5t268.5 -60.5h547v219h-547
q-116 0 -192 50.5t-101 127.5q-36 113 19 215.5t208 171.5l390 185l36 -175q21 -95 96 -142.5t168 -47.5h155v220h-149q-41 0 -77 18t-46 65l-30 142zM883 -110q17 33 6 69t-44 53t-69 6t-53 -44t-6 -69t44 -53t69 -6t53 44z" />
    <glyph glyph-name="uniFE9F" unicode="&#x62c;" horiz-adv-x="1304" arabic-form="initial" 
d="M-55.5 152.5q-14.5 -42.5 0 -85t55.5 -67.5h214q319 0 564 108.5t420 230.5q26 18 29 19l-10 200q-6 0 -47 21.5t-133 71.5q-278 152 -395 208q-96 45 -195 33t-179.5 -77t-125.5 -172l-19 -45l190 -84l20 45q26 71 90.5 108.5t137.5 1.5q20 -10 65 -33
q295 -151 406 -199q-197 -89 -400 -153t-418 -64h-214q-41 -25 -55.5 -67.5zM632 -315q-35 35 -84 35t-84 -35t-35 -84t35 -84t84 -35t84 35t35 84t-35 84z" />
    <glyph glyph-name="uniFEA0" unicode="&#x62c;" horiz-adv-x="1384" arabic-form="medial" 
d="M-55.5 152.5q-14.5 -42.5 0 -85t55.5 -67.5h214q361 0 726 198l81 -94q31 -49 91 -76.5t129 -27.5h156v220h-156q-54 0 -95 28l-60 50q42 26 99 64q35 24 40 26l-8 170q-6 0 -47 21.5t-133 71.5q-278 152 -395 208q-96 45 -195 33t-179.5 -77t-125.5 -172l-19 -45
l190 -84l20 45q26 71 90.5 108.5t137.5 1.5q20 -10 65 -33q295 -151 406 -199q-197 -89 -400 -153t-418 -64h-214q-41 -25 -55.5 -67.5zM632 -315q-35 35 -84 35t-84 -35t-35 -84t35 -84t84 -35t84 35t35 84t-35 84z" />
    <glyph glyph-name="uniFEA2" unicode="&#x62d;" horiz-adv-x="1427" arabic-form="final" 
d="M1263 510l8 205q-5 0 -133 73q-300 170 -431 233q-95 45 -194 33t-180 -77t-125 -173l-23 -52l190 -84l23 52q27 72 91.5 109.5t136.5 1.5q23 -12 76 -40q260 -135 365 -179l-641 -271q-134 -55 -214 -170.5t-80 -256.5q-1 -124 60.5 -229t166.5 -166.5t229 -62.5h608
v220h-608q-79 0 -142 38.5t-90 109.5q-36 99 5 188t139 135l473 215l37 -172q21 -95 95.5 -142.5t168.5 -47.5h146v220h-140q-41 0 -77 18t-46 65l-30 137z" />
    <glyph glyph-name="uniFEA3" unicode="&#x62d;" horiz-adv-x="1304" arabic-form="initial" 
d="M-55.5 152.5q-14.5 -42.5 0 -85t55.5 -67.5h214q319 0 564 108.5t420 230.5q26 18 29 19l-10 200q-6 0 -47 21.5t-133 71.5q-278 152 -395 208q-96 45 -195 33t-179.5 -77t-125.5 -172l-19 -45l190 -84l20 45q26 71 90.5 108.5t137.5 1.5q20 -10 65 -33
q295 -151 406 -199q-197 -89 -400 -153t-418 -64h-214q-41 -25 -55.5 -67.5z" />
    <glyph glyph-name="uniFEA4" unicode="&#x62d;" horiz-adv-x="1397" arabic-form="medial" 
d="M-55.5 152.5q-14.5 -42.5 0 -85t55.5 -67.5h214q361 0 726 198l81 -94q31 -49 91 -76.5t129 -27.5h156v220h-156q-54 0 -95 28l-60 50q42 26 99 64q35 24 40 26l-8 170q-6 0 -47 21.5t-133 71.5q-278 152 -395 208q-96 45 -195 33t-179.5 -77t-125.5 -172l-19 -45
l190 -84l20 45q26 71 90.5 108.5t137.5 1.5q20 -10 65 -33q295 -151 406 -199q-197 -89 -400 -153t-418 -64h-214q-41 -25 -55.5 -67.5z" />
    <glyph glyph-name="uniFEA6" unicode="&#x62e;" horiz-adv-x="1427" arabic-form="final" 
d="M1263 510l8 205q-5 0 -133 73q-300 170 -431 233q-95 45 -194 33t-180 -77t-125 -173l-23 -52l190 -84l23 52q27 72 91.5 109.5t136.5 1.5q23 -12 76 -40q260 -135 365 -179l-641 -271q-134 -55 -214 -170.5t-80 -256.5q-1 -124 60.5 -229t166.5 -166.5t229 -62.5h608
v220h-608q-79 0 -142 38.5t-90 109.5q-36 99 5 188t139 135l473 215l37 -172q21 -95 95.5 -142.5t168.5 -47.5h146v220h-140q-41 0 -77 18t-46 65l-30 137zM703 1510q-35 35 -84 35t-84 -35t-35 -84t35 -84t84 -35t84 35t35 84t-35 84z" />
    <glyph glyph-name="uniFEA7" unicode="&#x62e;" horiz-adv-x="1304" arabic-form="initial" 
d="M-55.5 152.5q-14.5 -42.5 0 -85t55.5 -67.5h214q319 0 564 108.5t420 230.5q26 18 29 19l-10 200q-6 0 -47 21.5t-133 71.5q-278 152 -395 208q-96 45 -195 33t-179.5 -77t-125.5 -172l-19 -45l190 -84l20 45q26 71 90.5 108.5t137.5 1.5q20 -10 65 -33
q295 -151 406 -199q-197 -89 -400 -153t-418 -64h-214q-41 -25 -55.5 -67.5zM637 1348q-35 35 -84 35t-84 -35t-35 -84t35 -84t84 -35t84 35t35 84t-35 84z" />
    <glyph glyph-name="uniFEA8" unicode="&#x62e;" horiz-adv-x="1384" arabic-form="medial" 
d="M-55.5 152.5q-14.5 -42.5 0 -85t55.5 -67.5h214q361 0 726 198l81 -94q31 -49 91 -76.5t129 -27.5h156v220h-156q-54 0 -95 28l-60 50q42 26 99 64q35 24 40 26l-8 170q-6 0 -47 21.5t-133 71.5q-278 152 -395 208q-96 45 -195 33t-179.5 -77t-125.5 -172l-19 -45
l190 -84l20 45q26 71 90.5 108.5t137.5 1.5q20 -10 65 -33q295 -151 406 -199q-197 -89 -400 -153t-418 -64h-214q-41 -25 -55.5 -67.5zM637 1348q-35 35 -84 35t-84 -35t-35 -84t35 -84t84 -35t84 35t35 84t-35 84z" />
    <glyph glyph-name="uniFEAA" unicode="&#x62f;" horiz-adv-x="1178" arabic-form="final" 
d="M564 0q115 0 191 52.5t105 136.5l20 -37q49 -72 121 -112t158 -40h19v220h-19q-98 0 -140 80l-396 729l-182 -100l295 -541q21 -39 12 -81.5t-41.5 -71t-78.5 -28.5h-551v-207h487z" />
    <glyph glyph-name="uniFEAC" unicode="&#x630;" horiz-adv-x="1165" arabic-form="final" 
d="M564 0q115 0 191 52.5t105 136.5l20 -37q49 -72 121 -112t158 -40h19v220h-19q-98 0 -140 80l-396 729l-182 -100l295 -541q21 -39 12 -81.5t-41.5 -71t-78.5 -28.5h-551v-207h487zM665 1439q-35 35 -84 35t-84 -35t-35 -84t35 -84t84 -35t84 35t35 84t-35 84z" />
    <glyph glyph-name="uniFEAE" unicode="&#x631;" horiz-adv-x="873" arabic-form="final" 
d="M731 35q59 -35 127 -35h15v220h-15q-61 0 -113.5 31.5t-84 85.5t-31.5 118v237h-207v-646q0 -95 -47 -180.5t-127.5 -137.5t-173.5 -52h-80v-220h80q149 0 277 78t203 208t75 277v112q43 -61 102 -96z" />
    <glyph glyph-name="uniFEB0" unicode="&#x632;" horiz-adv-x="873" arabic-form="final" 
d="M731 35q59 -35 127 -35h15v220h-15q-61 0 -113.5 31.5t-84 85.5t-31.5 118v237h-207v-646q0 -95 -47 -180.5t-127.5 -137.5t-173.5 -52h-80v-220h80q149 0 277 78t203 208t75 277v112q43 -61 102 -96zM610 1147q-35 35 -84 35t-84 -35t-35 -84t35 -84t84 -35t84 35t35 84
t-35 84z" />
    <glyph glyph-name="uniFEB2" unicode="&#x633;" horiz-adv-x="2762" arabic-form="final" 
d="M2762 220h-76q-49 0 -90 24t-65 65t-24 90v293h-207v-293q0 -76 -45.5 -127.5t-118.5 -51.5h-29q-72 0 -118 51.5t-46 127.5v293h-207v-293q0 -76 -46 -127.5t-118 -51.5h-28q-68 0 -116.5 52.5t-48.5 126.5v292h-207v-646q0 -98 -42 -182.5t-125 -135.5t-198 -51h-93
q-115 0 -198 51t-125 135.5t-42 182.5v445h-207v-471q0 -151 70 -280t200.5 -206t301.5 -77h93q168 0 296 74t199.5 198t76.5 272v79q27 -36 70 -57.5t95 -21.5h28q89 0 156.5 43t111.5 120q43 -77 111 -120t156 -43h29q92 0 160 43t111 119q44 -76 115 -119t164 -43h76v220
z" />
    <glyph glyph-name="uniFEB3" unicode="&#x633;" horiz-adv-x="1732" arabic-form="initial" 
d="M-55.5 152.5q-14.5 -42.5 0 -85t55.5 -67.5h76q93 0 165 43t116 119q43 -76 112 -119t157 -43h29q88 0 156 43t111 120q44 -77 112 -120t156 -43h28q105 0 190 51.5t133.5 140t48.5 194.5v340h-207v-327q0 -76 -46 -127.5t-119 -51.5h-28q-73 0 -118.5 51.5t-45.5 127.5
v293h-207v-293q0 -76 -46 -127.5t-118 -51.5h-29q-68 0 -116 52.5t-48 126.5v293h-207v-293q0 -49 -24 -90t-65 -65t-90 -24h-76q-41 -25 -55.5 -67.5z" />
    <glyph glyph-name="uniFEB4" unicode="&#x633;" horiz-adv-x="1845" arabic-form="medial" 
d="M-55.5 152.5q-14.5 -42.5 0 -85t55.5 -67.5h76q93 0 165 43t116 119q43 -76 112 -119t157 -43h29q88 0 156 43t111 120q44 -77 112 -120t156 -43h28q92 0 160 42.5t110 118.5q45 -75 116.5 -118t164.5 -43h76v220h-76q-49 0 -90 24t-65 65t-24 90v293h-207v-293
q0 -76 -46 -127.5t-119 -51.5h-28q-73 0 -118.5 51.5t-45.5 127.5v293h-207v-293q0 -76 -46 -127.5t-118 -51.5h-29q-68 0 -116 52.5t-48 126.5v293h-207v-293q0 -49 -24 -90t-65 -65t-90 -24h-76q-41 -25 -55.5 -67.5z" />
    <glyph glyph-name="uniFEB6" unicode="&#x634;" horiz-adv-x="2762" arabic-form="final" 
d="M2762 220h-76q-49 0 -90 24t-65 65t-24 90v293h-207v-293q0 -76 -45.5 -127.5t-118.5 -51.5h-29q-72 0 -118 51.5t-46 127.5v293h-207v-293q0 -76 -46 -127.5t-118 -51.5h-28q-68 0 -116.5 52.5t-48.5 126.5v292h-207v-646q0 -98 -42 -182.5t-125 -135.5t-198 -51h-93
q-115 0 -198 51t-125 135.5t-42 182.5v445h-207v-471q0 -151 70 -280t200.5 -206t301.5 -77h93q168 0 296 74t199.5 198t76.5 272v79q27 -36 70 -57.5t95 -21.5h28q89 0 156.5 43t111.5 120q43 -77 111 -120t156 -43h29q92 0 160 43t111 119q44 -76 115 -119t164 -43h76v220
zM1756 1147q-35 35 -84 35q-50 0 -85 -35t-35 -84t35 -84t85 -35q49 0 84 35t35 84t-35 84zM2093 1147q-35 35 -85 35q-49 0 -84 -35t-35 -84t35 -84t84 -35q50 0 85 35t35 84t-35 84zM1924 1440q-35 35 -84 35t-84 -35t-35 -85q0 -49 35 -84t84 -35t84 35t35 84
q0 50 -35 85z" />
    <glyph glyph-name="uniFEB7" unicode="&#x634;" horiz-adv-x="1732" arabic-form="initial" 
d="M-55.5 152.5q-14.5 -42.5 0 -85t55.5 -67.5h76q93 0 165 43t116 119q43 -76 112 -119t157 -43h29q88 0 156 43t111 120q44 -77 112 -120t156 -43h28q105 0 190 51.5t133.5 140t48.5 194.5v340h-207v-327q0 -76 -46 -127.5t-119 -51.5h-28q-73 0 -118.5 51.5t-45.5 127.5
v293h-207v-293q0 -76 -46 -127.5t-118 -51.5h-29q-68 0 -116 52.5t-48 126.5v293h-207v-293q0 -49 -24 -90t-65 -65t-90 -24h-76q-41 -25 -55.5 -67.5zM838 1147q-35 35 -84 35q-50 0 -85 -35t-35 -84t35 -84t85 -35q49 0 84 35t35 84t-35 84zM1175 1147q-35 35 -85 35
q-49 0 -84 -35t-35 -84t35 -84t84 -35q50 0 85 35t35 84t-35 84zM1006 1440q-35 35 -84 35t-84 -35t-35 -85q0 -49 35 -84t84 -35t84 35t35 84q0 50 -35 85z" />
    <glyph glyph-name="uniFEB8" unicode="&#x634;" horiz-adv-x="1845" arabic-form="medial" 
d="M-55.5 152.5q-14.5 -42.5 0 -85t55.5 -67.5h76q93 0 165 43t116 119q43 -76 112 -119t157 -43h29q88 0 156 43t111 120q44 -77 112 -120t156 -43h28q92 0 160 42.5t110 118.5q45 -75 116.5 -118t164.5 -43h76v220h-76q-49 0 -90 24t-65 65t-24 90v293h-207v-293
q0 -76 -46 -127.5t-119 -51.5h-28q-73 0 -118.5 51.5t-45.5 127.5v293h-207v-293q0 -76 -46 -127.5t-118 -51.5h-29q-68 0 -116 52.5t-48 126.5v293h-207v-293q0 -49 -24 -90t-65 -65t-90 -24h-76q-41 -25 -55.5 -67.5zM838 1147q-35 35 -84 35q-50 0 -85 -35t-35 -84
t35 -84t85 -35q49 0 84 35t35 84t-35 84zM1175 1147q-35 35 -85 35q-49 0 -84 -35t-35 -84t35 -84t84 -35q50 0 85 35t35 84t-35 84zM1006 1440q-35 35 -84 35t-84 -35t-35 -85q0 -49 35 -84t84 -35t84 35t35 84q0 50 -35 85z" />
    <glyph glyph-name="uniFEBA" unicode="&#x635;" horiz-adv-x="2768" arabic-form="final" 
d="M2272 33q85 33 147 94q76 -58 154.5 -92.5t181.5 -34.5h13v220h-13q-67 0 -116 16.5t-114 50.5q29 70 29 150q0 110 -48.5 212.5t-152.5 166t-262 58.5q-168 -6 -293.5 -129t-193.5 -258.5t-107 -248.5q-50 10 -84 52t-34 96v290h-207v-631q0 -98 -42 -182.5t-125 -135.5
t-198 -51h-93q-115 0 -198 51t-125 135.5t-42 182.5v445h-207v-471q0 -151 70 -280t200.5 -206t301.5 -77h93q171 0 301 77t200.5 206t70.5 280v82q48 -47 110.5 -74t131.5 -27h467q99 0 184 33zM1706 220q1 3 4 10q68 161 161.5 296.5t226.5 140.5q115 3 182 -56t67 -174
q0 -103 -74 -160t-185 -57h-382z" />
    <glyph glyph-name="uniFEBB" unicode="&#x635;" horiz-adv-x="1735" arabic-form="initial" 
d="M757 220q1 3 4 10q68 161 161.5 296.5t226.5 140.5q115 3 182 -56t67 -174q0 -103 -74 -160t-185 -57h-382zM-55.5 152.5q-14.5 -42.5 0 -85t55.5 -67.5h44q94 0 166 43.5t116 120.5q45 -77 117 -120.5t166 -43.5h530q132 0 238.5 57t167 156.5t60.5 223.5
q0 110 -48.5 212.5t-152.5 166t-262 58.5q-168 -6 -293.5 -129t-193.5 -258.5t-107 -248.5q-50 10 -84 52t-34 96v306h-207v-293q0 -49 -24 -90t-65 -65t-90 -24h-44q-41 -25 -55.5 -67.5z" />
    <glyph glyph-name="uniFEBC" unicode="&#x635;" horiz-adv-x="1818" arabic-form="medial" 
d="M757 220q1 3 4 10q68 161 161.5 296.5t226.5 140.5q115 3 182 -56t67 -174q0 -103 -74 -160t-185 -57h-382zM-55.5 152.5q-14.5 -42.5 0 -85t55.5 -67.5h44q94 0 166 43.5t116 120.5q45 -77 117 -120.5t166 -43.5h530q99 0 184 33t147 94q76 -58 154.5 -92.5t181.5 -34.5
h13v220h-12q-68 0 -117 17t-114 50q29 70 29 150q0 110 -48.5 212.5t-152.5 166t-262 58.5q-168 -6 -293.5 -129t-193.5 -258.5t-107 -248.5q-50 10 -84 52t-34 96v306h-207v-293q0 -49 -24 -90t-65 -65t-90 -24h-44q-41 -25 -55.5 -67.5z" />
    <glyph glyph-name="uniFEBE" unicode="&#x636;" horiz-adv-x="2767" arabic-form="final" 
d="M2272 33q85 33 147 94q76 -58 154.5 -92.5t181.5 -34.5h13v220h-13q-67 0 -116 16.5t-114 50.5q29 70 29 150q0 110 -48.5 212.5t-152.5 166t-262 58.5q-168 -6 -293.5 -129t-193.5 -258.5t-107 -248.5q-50 10 -84 52t-34 96v290h-207v-631q0 -98 -42 -182.5t-125 -135.5
t-198 -51h-93q-115 0 -198 51t-125 135.5t-42 182.5v445h-207v-471q0 -151 70 -280t200.5 -206t301.5 -77h93q171 0 301 77t200.5 206t70.5 280v82q48 -47 110.5 -74t131.5 -27h467q99 0 184 33zM1706 220q1 3 4 10q68 161 161.5 296.5t226.5 140.5q115 3 182 -56t67 -174
q0 -103 -74 -160t-185 -57h-382zM2128 1314q-35 35 -84 35t-84 -35t-35 -84t35 -84t84 -35t84 35t35 84t-35 84z" />
    <glyph glyph-name="uniFEBF" unicode="&#x636;" horiz-adv-x="1735" arabic-form="initial" 
d="M757 220q1 3 4 10q68 161 161.5 296.5t226.5 140.5q115 3 182 -56t67 -174q0 -103 -74 -160t-185 -57h-382zM-55.5 152.5q-14.5 -42.5 0 -85t55.5 -67.5h44q94 0 166 43.5t116 120.5q45 -77 117 -120.5t166 -43.5h530q132 0 238.5 57t167 156.5t60.5 223.5
q0 110 -48.5 212.5t-152.5 166t-262 58.5q-168 -6 -293.5 -129t-193.5 -258.5t-107 -248.5q-50 10 -84 52t-34 96v306h-207v-293q0 -49 -24 -90t-65 -65t-90 -24h-44q-41 -25 -55.5 -67.5zM1198 1314q-35 35 -84 35t-84 -35t-35 -84t35 -84t84 -35t84 35t35 84t-35 84z" />
    <glyph glyph-name="uniFEC0" unicode="&#x636;" horiz-adv-x="1818" arabic-form="medial" 
d="M757 220q1 3 4 10q68 161 161.5 296.5t226.5 140.5q115 3 182 -56t67 -174q0 -103 -74 -160t-185 -57h-382zM-55.5 152.5q-14.5 -42.5 0 -85t55.5 -67.5h44q94 0 166 43.5t116 120.5q45 -77 117 -120.5t166 -43.5h530q99 0 184 33t147 94q76 -58 154.5 -92.5t181.5 -34.5
h13v220h-12q-68 0 -117 17t-114 50q29 70 29 150q0 110 -48.5 212.5t-152.5 166t-262 58.5q-168 -6 -293.5 -129t-193.5 -258.5t-107 -248.5q-50 10 -84 52t-34 96v306h-207v-293q0 -49 -24 -90t-65 -65t-90 -24h-44q-41 -25 -55.5 -67.5zM1198 1314q-35 35 -84 35t-84 -35
t-35 -84t35 -84t84 -35t84 35t35 84t-35 84z" />
    <glyph glyph-name="uniFEC2" unicode="&#x637;" horiz-adv-x="1604" arabic-form="final" 
d="M1604 220h-11q-61 0 -106.5 16.5t-100.5 46.5q30 74 30 154q0 111 -49.5 213.5t-153.5 166.5t-260 57q-198 -8 -375 -256l8 325v493h-207v-1131q-15 -39 -29 -81q-1 -3 -1 -4h-207v-220h808q95 0 177 31t142 87q73 -54 149 -86t174 -32h12v220zM568 220q1 3 4 9
q67 161 161 297t227 141q114 4 181.5 -55.5t67.5 -174.5q0 -103 -74 -160t-185 -57h-382z" />
    <glyph glyph-name="uniFEC3" unicode="&#x637;" horiz-adv-x="1436" arabic-form="initial" 
d="M461 613l10 330v493h-207v-1148q-18 -45 -24 -68h-240q-40 -25 -55 -67.5t0 -85t55 -67.5h841q132 0 238.5 57t167 156.5t60.5 223.5q0 111 -49.5 213.5t-154 166.5t-259.5 57v0q-201 -8 -383 -261zM1026 277q-74 -57 -185 -57h-382q1 3 4 10q67 161 160.5 296.5
t227.5 140.5q114 4 181.5 -55.5t67.5 -174.5v0q0 -103 -74 -160z" />
    <glyph glyph-name="uniFEC4" unicode="&#x637;" horiz-adv-x="1488" arabic-form="medial" 
d="M1377 236q-44 16 -101 47q32 73 31 154q0 111 -49.5 213.5t-153.5 166.5t-260 57q-201 -8 -383 -261l10 330v493h-207v-1148q-18 -45 -24 -68h-240q-40 -25 -55 -67.5t0 -85t55 -67.5h841q94 0 175 30.5t141 85.5q74 -53 148.5 -84.5t170.5 -31.5h13v220h-12
q-56 0 -100 16zM1026 277q-74 -57 -185 -57h-382q1 3 4 10q68 161 161 296.5t227 140.5q114 4 181.5 -55.5t67.5 -174.5q0 -103 -74 -160z" />
    <glyph glyph-name="uniFEC6" unicode="&#x638;" horiz-adv-x="1604" arabic-form="final" 
d="M1604 220h-11q-61 0 -106.5 16.5t-100.5 46.5q30 74 30 154q0 111 -49.5 213.5t-153.5 166.5t-260 57q-198 -8 -375 -256l8 325v493h-207v-1131q-15 -39 -29 -81q-1 -3 -1 -4h-207v-220h808q95 0 177 31t142 87q73 -54 149 -86t174 -32h12v220zM568 220q1 3 4 9
q67 161 161 297t227 141q114 4 181.5 -55.5t67.5 -174.5q0 -103 -74 -160t-185 -57h-382zM1105 1314q-35 35 -84 35t-84 -35t-35 -84t35 -84t84 -35t84 35t35 84t-35 84z" />
    <glyph glyph-name="uniFEC7" unicode="&#x638;" horiz-adv-x="1436" arabic-form="initial" 
d="M461 613l10 330v493h-207v-1148q-18 -45 -24 -68h-240q-40 -25 -55 -67.5t0 -85t55 -67.5h841q132 0 238.5 57t167 156.5t60.5 223.5q0 111 -49.5 213.5t-154 166.5t-259.5 57v0q-201 -8 -383 -261zM1026 277q-74 -57 -185 -57h-382q1 3 4 10q67 161 160.5 296.5
t227.5 140.5q114 4 181.5 -55.5t67.5 -174.5v0q0 -103 -74 -160zM994 1314q-35 35 -84 35t-84 -35t-35 -84t35 -84t84 -35t84 35t35 84t-35 84z" />
    <glyph glyph-name="uniFEC8" unicode="&#x638;" horiz-adv-x="1488" arabic-form="medial" 
d="M1377 236q-44 16 -101 47q32 73 31 154q0 111 -49.5 213.5t-153.5 166.5t-260 57q-201 -8 -383 -261l10 330v493h-207v-1148q-18 -45 -24 -68h-240q-40 -25 -55 -67.5t0 -85t55 -67.5h841q94 0 175 30.5t141 85.5q74 -53 148.5 -84.5t170.5 -31.5h13v220h-12
q-56 0 -100 16zM1026 277q-74 -57 -185 -57h-382q1 3 4 10q68 161 161 296.5t227 140.5q114 4 181.5 -55.5t67.5 -174.5q0 -103 -74 -160zM994 1314q-35 35 -84 35t-84 -35t-35 -84t35 -84t84 -35t84 35t35 84t-35 84z" />
    <glyph glyph-name="uniFECA" unicode="&#x639;" horiz-adv-x="1330" arabic-form="final" 
d="M1066 -324h-432q-80 0 -148 33.5t-108 93t-40 131.5q0 88 61.5 145t181.5 113q2 0 5 2q47 22 63 31q98 -114 189 -169.5t218 -55.5h274v220h-238q-94 0 -155.5 29t-95.5 66l265 307q51 61 59 134.5t-22.5 140t-92 107.5t-140.5 41h-616l-85 -212l300 -462
q-198 -86 -288 -190.5t-90 -246.5q0 -129 68 -238.5t183.5 -174.5t251.5 -65h432v220zM891 831q32 0 51.5 -19t20 -46.5t-19.5 -52.5l-244 -289l-269 407h461z" />
    <glyph glyph-name="uniFECB" unicode="&#x639;" horiz-adv-x="1093" arabic-form="initial" 
d="M-55.5 152.5q-14.5 -42.5 0 -85t55.5 -67.5h954v220h-343q-99 5 -156.5 65t-57.5 150q0 101 57 170t154 73q71 4 133.5 -16.5t130.5 -66.5l41 209q-144 93 -327 80q-114 -8 -204 -68t-141 -160t-51 -221q0 -64 25 -121t70 -94h-285q-41 -25 -55.5 -67.5z" />
    <glyph glyph-name="uniFECC" unicode="&#x639;" horiz-adv-x="1254" arabic-form="medial" 
d="M815 649q32 0 51.5 -18.5t20.5 -46.5t-20 -53l-244 -289l-269 407h461zM-55.5 152.5q-14.5 -42.5 0 -85t55.5 -67.5h403q90 0 144 15t67 31q12 -16 66 -31t145 -15h429v220h-386q-22 0 -29 -6l191 227q51 61 59 134.5t-22.5 139.5t-92 107t-140.5 41h-616l-85 -211
l282 -438q-6 6 -23 6h-392q-41 -25 -55.5 -67.5z" />
    <glyph glyph-name="uniFECE" unicode="&#x63a;" horiz-adv-x="1330" arabic-form="final" 
d="M1066 -324h-432q-80 0 -148 33.5t-108 93t-40 131.5q0 88 61.5 145t181.5 113q2 0 5 2q47 22 63 31q98 -114 189 -169.5t218 -55.5h274v220h-238q-94 0 -155.5 29t-95.5 66l265 307q51 61 59 134.5t-22.5 140t-92 107.5t-140.5 41h-616l-85 -212l300 -462
q-198 -86 -288 -190.5t-90 -246.5q0 -129 68 -238.5t183.5 -174.5t251.5 -65h432v220zM891 831q32 0 51.5 -19t20 -46.5t-19.5 -52.5l-244 -289l-269 407h461zM786 1536q-35 35 -84 35t-84 -35t-35 -84t35 -84t84 -35t84 35t35 84t-35 84z" />
    <glyph glyph-name="uniFECF" unicode="&#x63a;" horiz-adv-x="1077" arabic-form="initial" 
d="M-55.5 152.5q-14.5 -42.5 0 -85t55.5 -67.5h954v220h-343q-99 5 -156.5 65t-57.5 150q0 101 57 170t154 73q71 4 133.5 -16.5t130.5 -66.5l41 209q-144 93 -327 80q-114 -8 -204 -68t-141 -160t-51 -221q0 -64 25 -121t70 -94h-285q-41 -25 -55.5 -67.5zM677 1324
q-35 35 -84 35t-84 -35t-35 -84t35 -84t84 -35t84 35t35 84t-35 84z" />
    <glyph glyph-name="uniFED0" unicode="&#x63a;" horiz-adv-x="1254" arabic-form="medial" 
d="M815 649q32 0 51.5 -18.5t20.5 -46.5t-20 -53l-244 -289l-269 407h461zM-55.5 152.5q-14.5 -42.5 0 -85t55.5 -67.5h403q90 0 144 15t67 31q12 -16 66 -31t145 -15h429v220h-386q-22 0 -29 -6l191 227q51 61 59 134.5t-22.5 139.5t-92 107t-140.5 41h-616l-85 -211
l282 -438q-6 6 -23 6h-392q-41 -25 -55.5 -67.5zM706 1317q-35 35 -84 35t-84 -35t-35 -84t35 -84t84 -35t84 35t35 84t-35 84z" />
    <glyph glyph-name="uniFED2" unicode="&#x641;" horiz-adv-x="1865" arabic-form="final" 
d="M1388.5 685q47.5 -21 77.5 -61.5t30 -96.5q0 -168 -207 -306q-207 138 -207 306q0 56 30 96.5t77.5 61.5t99.5 21t99.5 -21zM1077 0q91 0 145 15t67 31q12 -16 66 -31t145 -15h366v220h-311q60 53 104 131.5t44 175.5q0 107 -54.5 195.5t-149.5 140t-210 51.5t-210 -51.5
t-150 -140t-55 -195.5q0 -97 44 -175.5t105 -131.5h-495q-49 0 -90 24t-65 65t-24 90v327h-207v-352q0 -102 52 -188t140.5 -136t193.5 -50h549zM1373 1328q-35 35 -84 35t-84 -35t-35 -84t35 -84t84 -35t84 35t35 84t-35 84z" />
    <glyph glyph-name="uniFED3" unicode="&#x641;" horiz-adv-x="1098" arabic-form="initial" 
d="M514 617q-94 0 -130.5 27.5t-36.5 103.5q0 87 54.5 161.5t146.5 74.5q66 0 111.5 -39t67.5 -96t22 -110v-122h-235zM-55.5 152.5q-14.5 -42.5 0 -85t55.5 -67.5h521q115 0 215.5 55.5t160 146t59.5 191.5v346q0 117 -52.5 221t-146 167.5t-209.5 63.5q-113 0 -207 -64
t-148 -169t-54 -223q0 -108 29.5 -177.5t102.5 -105.5t200 -36h278v-23q0 -44 -31.5 -84t-84 -64.5t-112.5 -24.5h-521q-41 -25 -55.5 -67.5zM632 1587q-35 35 -84 35t-84 -35t-35 -84t35 -84t84 -35t84 35t35 84t-35 84z" />
    <glyph glyph-name="uniFED4" unicode="&#x641;" horiz-adv-x="1154" arabic-form="medial" 
d="M676.5 685q47.5 -21 77.5 -61.5t30 -96.5q0 -105 -64 -179t-143 -127q-207 138 -207 306q0 56 30 96.5t77.5 61.5t99.5 21t99.5 -21zM-55.5 152.5q-14.5 -42.5 0 -85t55.5 -67.5h366q91 0 144.5 15t66.5 31q13 -16 67 -31t144 -15h366v220h-311q60 53 104 131.5t44 175.5
q0 107 -54.5 195.5t-149.5 140t-210 51.5t-210 -51.5t-149.5 -140t-54.5 -195.5q0 -97 43.5 -175.5t104.5 -131.5h-311q-41 -25 -55.5 -67.5zM661 1328q-35 35 -84 35t-84 -35t-35 -84t35 -84t84 -35t84 35t35 84t-35 84z" />
    <glyph glyph-name="uniFED6" unicode="&#x642;" horiz-adv-x="1736" arabic-form="final" 
d="M1125 220q-109 0 -155 44t-46 128q0 59 21 114t66 91t114 36q107 0 154 -73t47 -168v-172h-201zM1735 220h-201l-1 172q0 131 -51.5 233t-144.5 158.5t-212 56.5q-118 0 -211 -57.5t-145.5 -159.5t-52.5 -231q0 -185 101 -288.5t308 -103.5h199q-2 -150 -95 -236.5
t-252 -86.5h-263q-115 0 -197.5 51t-125 135t-42.5 183v445h-207v-471q0 -151 70 -280t200.5 -206t301.5 -77h263q150 0 276 70.5t201 195t79 277.5h202v220zM1044 1254q-35 35 -84 35q-50 0 -85 -35t-35 -84t35 -84t85 -35q49 0 84 35t35 84t-35 84zM1381 1254
q-35 35 -85 35q-49 0 -84 -35t-35 -84t35 -84t84 -35q50 0 85 35t35 84t-35 84z" />
    <glyph glyph-name="uniFED7" unicode="&#x642;" horiz-adv-x="1098" arabic-form="initial" 
d="M514 617q-94 0 -130.5 27.5t-36.5 103.5q0 87 54.5 161.5t146.5 74.5q66 0 111.5 -39t67.5 -96t22 -110v-122h-235zM-55.5 152.5q-14.5 -42.5 0 -85t55.5 -67.5h521q115 0 215.5 55.5t160 146t59.5 191.5v346q0 117 -52.5 221t-146 167.5t-209.5 63.5q-113 0 -207 -64
t-148 -169t-54 -223q0 -108 29.5 -177.5t102.5 -105.5t200 -36h278v-23q0 -44 -31.5 -84t-84 -64.5t-112.5 -24.5h-521q-41 -25 -55.5 -67.5zM464 1593q-35 35 -84 35q-50 0 -85 -35t-35 -84t35 -84t85 -35q49 0 84 35t35 84t-35 84zM801 1593q-35 35 -85 35q-49 0 -84 -35
t-35 -84t35 -84t84 -35q50 0 85 35t35 84t-35 84z" />
    <glyph glyph-name="uniFED8" unicode="&#x642;" horiz-adv-x="1154" arabic-form="medial" 
d="M676.5 685q47.5 -21 77.5 -61.5t30 -96.5q0 -105 -64 -179t-143 -127q-207 138 -207 306q0 56 30 96.5t77.5 61.5t99.5 21t99.5 -21zM-55.5 152.5q-14.5 -42.5 0 -85t55.5 -67.5h366q91 0 144.5 15t66.5 31q13 -16 67 -31t144 -15h366v220h-311q60 53 104 131.5t44 175.5
q0 107 -54.5 195.5t-149.5 140t-210 51.5t-210 -51.5t-149.5 -140t-54.5 -195.5q0 -97 43.5 -175.5t104.5 -131.5h-311q-41 -25 -55.5 -67.5zM493 1347q-35 35 -84 35q-50 0 -85 -35t-35 -84t35 -84t85 -35q49 0 84 35t35 84t-35 84zM830 1347q-35 35 -85 35q-49 0 -84 -35
t-35 -84t35 -84t84 -35q50 0 85 35t35 84t-35 84z" />
    <glyph glyph-name="uniFEDA" unicode="&#x643;" horiz-adv-x="1818" arabic-form="final" 
d="M1355 43.5q72 43.5 117 120.5q45 -77 117 -120.5t165 -43.5h63v220h-63q-48 0 -89 24t-65 65t-24 90v1037h-207v-1037q0 -49 -24.5 -90t-65.5 -65t-89 -24h-662q-49 0 -90 24t-65 65t-24 90v327h-207v-352q0 -102 52 -188t140.5 -136t193.5 -50h662q93 0 165 43.5z
M652 622l456 174l-42 110l-154 -59q-65 -3 -101 27.5t-36 83.5q0 44 28 80t73 37q31 0 56 -8.5t56 -24.5q6 -3 9 -5l28 113q-38 21 -71.5 32t-77.5 11q-64 0 -114 -34t-77.5 -88.5t-27.5 -112.5q0 -54 27 -101t73 -69l-147 -56z" />
    <glyph glyph-name="uniFEDB" unicode="&#x643;" horiz-adv-x="1102" arabic-form="initial" 
d="M-55.5 152.5q-14.5 -42.5 0 -85t55.5 -67.5h628q105 0 185 56t117.5 144.5t23 184.5t-86.5 172l-461 482l572 219l-73 194l-719 -274v-208l518 -543q36 -38 34.5 -87t-35.5 -84.5t-87 -35.5h-616q-41 -25 -55.5 -67.5z" />
    <glyph glyph-name="uniFEDC" unicode="&#x643;" horiz-adv-x="1260" arabic-form="medial" 
d="M-55.5 152.5q-14.5 -42.5 0 -85t55.5 -67.5h564q131 0 218 68.5t108 163.5l123 -129q47 -50 109.5 -76.5t129.5 -26.5h12v220h-12q-30 0 -57 9.5t-45 28.5l-744 781l572 219l-73 194l-719 -274v-208l522 -546q33 -39 30.5 -87t-36.5 -82.5t-86 -34.5h-616
q-41 -25 -55.5 -67.5z" />
    <glyph glyph-name="uniFEDE" unicode="&#x644;" horiz-adv-x="1609" arabic-form="final" 
d="M807 -544q171 0 301 76.5t200 204.5t71 279v79q34 -44 80 -69.5t99 -25.5h51v220h-51q-48 0 -89.5 24t-65.5 65t-24 89v1038h-207v-1391q0 -98 -42 -182.5t-125 -135.5t-198 -51h-93q-115 0 -197.5 51t-125 135.5t-42.5 182.5v434h-207v-460q0 -151 70 -280t200.5 -206
t301.5 -77h93z" />
    <glyph glyph-name="uniFEDF" unicode="&#x644;" horiz-adv-x="670" arabic-form="initial" 
d="M-55.5 152.5q-14.5 -42.5 0 -85t55.5 -67.5h103q105 0 193.5 52t140.5 140.5t52 193.5v1050h-207v-1037q0 -49 -24 -90t-65.5 -65t-89.5 -24h-103q-41 -25 -55.5 -67.5z" />
    <glyph glyph-name="uniFEE0" unicode="&#x644;" horiz-adv-x="718" arabic-form="medial" 
d="M-55.5 152.5q-14.5 -42.5 0 -85t55.5 -67.5h103q93 0 165.5 43.5t116.5 120.5q45 -77 117 -120.5t166 -43.5h50v220h-50q-49 0 -90 24t-65 65t-24 90v1037h-207v-1037q0 -49 -24 -90t-65.5 -65t-89.5 -24h-103q-41 -25 -55.5 -67.5z" />
    <glyph glyph-name="uniFEE2" unicode="&#x645;" horiz-adv-x="1646" arabic-form="final" 
d="M1646 220h-37q-48 0 -89 25t-66 67t-25 90v19q-4 200 -114 317t-298 120h-445q-117 0 -216 -58t-156.5 -156.5t-57.5 -215.5v-974h207v974q0 61 30 112t81 81t112 30h45q-3 -94 -3 -229q-1 -132 47 -231t139 -153t216 -54q107 0 186.5 46.5t125.5 135.5
q45 -78 116.5 -122t164.5 -44h37v220zM1170 587q52 -63 53 -166q0 -116 -60.5 -173t-146.5 -57q-108 0 -158 67t-49 162v231h207q102 -1 154 -64z" />
    <glyph glyph-name="uniFEE3" unicode="&#x645;" horiz-adv-x="1174" arabic-form="initial" 
d="M807 289.5q-31 -52.5 -78.5 -75.5t-97.5 -23q-107 0 -157.5 69t-49.5 165q0 110 54 172t153 62q102 -1 154 -65.5t53 -168.5v0q0 -83 -31 -135.5zM409.5 808.5q-93.5 -57.5 -142.5 -157t-50 -225.5q0 -7 1 -21q-3 -77 -54 -130t-126 -55h-38q-40 -25 -55 -67.5t0 -85
t55 -67.5h38q92 0 164 44.5t116 123.5q47 -88 125 -136t188 -48q118 0 212.5 54.5t148.5 155t53 231.5q-4 199 -114.5 317.5t-298.5 123.5v0q-129 0 -222.5 -57.5z" />
    <glyph glyph-name="uniFEE4" unicode="&#x645;" horiz-adv-x="1261" arabic-form="medial" 
d="M807 289.5q-31 -52.5 -78.5 -75.5t-97.5 -23q-107 0 -157.5 69t-49.5 165q0 110 54 172t153 62q102 -1 154 -65.5t53 -168.5v0q0 -83 -31 -135.5zM1134.5 245.5q-41.5 25.5 -66 68t-24.5 90.5v21q-4 198 -114 317t-298 124q-129 -1 -222.5 -59.5t-142.5 -158.5t-50 -222
q0 -7 1 -21q-2 -77 -53 -130t-127 -55h-38q-40 -25 -55 -67.5t0 -85t55 -67.5h38q92 0 164 44.5t116 123.5q47 -88 125 -136t188 -48q107 0 186 47.5t126 136.5q44 -79 116.5 -123.5t164.5 -44.5h37v220h-37q-48 0 -89.5 25.5z" />
    <glyph glyph-name="uniFEE6" unicode="&#x646;" horiz-adv-x="1609" arabic-form="final" 
d="M807 -544q171 0 301 76.5t200 204.5t71 279v79q34 -44 80 -69.5t99 -25.5h51v220h-51q-48 0 -89.5 24t-65.5 65t-24 89v278h-207v-631q0 -98 -42 -182.5t-125 -135.5t-198 -51h-93q-115 0 -197.5 51t-125 135.5t-42.5 182.5v445h-207v-471q0 -151 70 -280t200.5 -206
t301.5 -77h93zM785 906q-35 35 -84 35t-84 -35t-35 -84t35 -84t84 -35t84 35t35 84t-35 84z" />
    <glyph glyph-name="uniFEE7" unicode="&#x646;" horiz-adv-x="727" arabic-form="initial" 
d="M-55.5 152.5q-14.5 -42.5 0 -85t55.5 -67.5h199q105 0 193.5 50t140.5 136t52 188v352h-207v-327q0 -49 -24.5 -90t-65.5 -65t-89 -24h-199q-41 -25 -55.5 -67.5zM450 1180q-35 35 -84 35t-84 -35t-35 -84t35 -84t84 -35t84 35t35 84t-35 84z" />
    <glyph glyph-name="uniFEE8" unicode="&#x646;" horiz-adv-x="814" arabic-form="medial" 
d="M-55.5 152.5q-14.5 -42.5 0 -85t55.5 -67.5h199q93 0 165.5 43.5t116.5 120.5q45 -77 117 -120.5t166 -43.5h50v220h-50q-49 0 -90 24t-65 65t-24 90v293h-207v-293q0 -49 -24.5 -90t-65.5 -65t-89 -24h-199q-41 -25 -55.5 -67.5zM450 1138q-35 35 -84 35t-84 -35
t-35 -84t35 -84t84 -35t84 35t35 84t-35 84z" />
    <glyph glyph-name="uniFEEA" unicode="&#x647;" horiz-adv-x="1200" arabic-form="final" 
d="M958.5 51.5q77.5 -51.5 173.5 -51.5h68v220h-69q-56 0 -98.5 36.5t-50.5 92.5l-108 736l-205 -30l17 -122q-183 -6 -312.5 -76.5t-193 -191t-52.5 -274.5q7 -111 73.5 -187.5t172 -106.5t228 -4.5t236.5 108.5q43 -98 120.5 -149.5zM769 368q-105 -76 -204 -88.5
t-162 25.5t-68 102q-10 153 90 237.5t291 82.5z" />
    <glyph glyph-name="uniFEEB" unicode="&#x647;" horiz-adv-x="1628" arabic-form="initial" 
d="M676.5 685q47.5 -21 77.5 -61.5t30 -96.5q0 -105 -64 -179t-143 -127q-207 138 -207 306q0 56 30 96.5t77.5 61.5t99.5 21t99.5 -21zM1171 0q96 0 174 50t120 131.5t36 174.5t-67 173l-383 504l-165 -126l373 -490q29 -38 24.5 -85t-38 -79.5t-84.5 -32.5h-318
q60 53 104 131.5t44 175.5q0 107 -54.5 195.5t-149.5 140t-210 51.5t-210 -51.5t-149.5 -140t-54.5 -195.5q0 -97 43.5 -175.5t104.5 -131.5h-311q-41 -25 -55.5 -67.5t0 -85t55.5 -67.5h366q91 0 144.5 15t66.5 31q13 -16 67 -31t144 -15h383z" />
    <glyph glyph-name="uniFEEC" unicode="&#x647;" horiz-adv-x="1276" arabic-form="medial" 
d="M382 418q0 114 53.5 174.5t152.5 59.5q109 0 157.5 -59.5t48.5 -138.5q1 -101 -65 -174t-185 -73h-162v211zM-55.5 152.5q-14.5 -42.5 0 -85t55.5 -67.5h175q0 -161 67 -280t190.5 -182.5t289.5 -63.5h117l122 285q53 119 135.5 180t172.5 61h7v220h-7
q-94 0 -185.5 -46.5t-162.5 -121.5t-108 -158l-91 -208q-340 -2 -340 314h162q133 0 238 60.5t163 165t57 229.5q-1 116 -53 207.5t-145 143.5t-213 53q-125 2 -219.5 -54t-145.5 -157t-51 -230v-198h-175q-41 -25 -55.5 -67.5z" />
    <glyph glyph-name="uniFEEE" unicode="&#x648;" horiz-adv-x="1133" arabic-form="final" 
d="M548 220q-108 0 -154.5 43.5t-46.5 128.5q0 59 21 114t66.5 91t113.5 36q108 0 155 -73t47 -168v-172h-202zM655.5 -238q-91.5 -86 -236.5 -86h-283v-220h283q141 0 263 69.5t196 194t78 280.5h176v220h-175v172q0 131 -52 232.5t-144.5 158.5t-212.5 57
q-117 0 -210.5 -57.5t-146 -159.5t-52.5 -231q0 -185 101.5 -288.5t307.5 -103.5h199q0 -152 -91.5 -238z" />
    <glyph glyph-name="uniFEF2" unicode="&#x64a;" horiz-adv-x="1695" arabic-form="final" 
d="M1695 220h-940v-207h398q50 -2 77 -36.5t26 -83.5q-1 -105 -97.5 -161t-233.5 -56h-222q-114 0 -194 48.5t-120 130t-40 179.5v456h-207v-482q0 -150 68 -276.5t195 -201t298 -74.5h222q170 0 291 64t182 164t60 205q-1 69 -36 111h273v220zM729 -792q-35 35 -84 35
q-50 0 -85 -35t-35 -84t35 -84t85 -35q49 0 84 35t35 84t-35 84zM1066 -792q-35 35 -85 35q-49 0 -84 -35t-35 -84t35 -84t84 -35q50 0 85 35t35 84t-35 84z" />
    <glyph glyph-name=".notdef" horiz-adv-x="1300" 
d="M1179 0v1400h-1058v-1400h1058zM307 1214h686v-1028h-686v1028z" />
    <glyph glyph-name=".null" horiz-adv-x="0" 
 />
    <glyph glyph-name="uni000D" unicode="&#xd;" horiz-adv-x="0" 
 />
    <glyph glyph-name="space" unicode=" " horiz-adv-x="460" 
 />
    <glyph glyph-name="exclam" unicode="!" horiz-adv-x="551" 
d="M383 362l12 712v358h-238v-358l14 -712h212zM401 0v189h-251v-189h251z" />
    <glyph glyph-name="quotedbl" unicode="&#x22;" horiz-adv-x="764" 
d="M631 1008l28 424h-205v-424h177zM282 1008l29 424h-205v-424h176z" />
    <glyph glyph-name="numbersign" unicode="#" horiz-adv-x="1543" 
d="M374 0l117 382h363l-116 -382h206l116 382h280v168h-230l104 333h224v170h-174l118 379h-208l-117 -379h-362l117 379h-208l-117 -379h-283v-170h232l-102 -333h-228v-168h178l-116 -382h206zM644 883h362l-102 -333h-363z" />
    <glyph glyph-name="dollar" unicode="$" horiz-adv-x="1225" 
d="M757 559.5q122 -53.5 120 -175.5q-2 -222 -310 -223q-223 2 -432 83v-192q151 -63 377 -71v-172h212v186q395 57 395 390q0 110 -37 191t-134.5 139.5t-291.5 108.5q-171 43 -240 90t-69 138q1 209 313 216q188 5 377 -64v192q-108 39 -313 52v176h-212v-180
q-407 -50 -406 -393q0 -158 87 -250t315 -154q127 -34 249 -87.5z" />
    <glyph glyph-name="percent" unicode="%" horiz-adv-x="1599" 
d="M638.5 886q79.5 86 79.5 227q0 161 -78.5 251t-227.5 90q-150 0 -228 -90t-78 -251q0 -141 79.5 -227t226.5 -86t226.5 86zM542 0l736 1432h-225l-736 -1432h225zM243 1117q0 103 41.5 152t127.5 49q85 0 126.5 -49t41.5 -152q0 -89 -40.5 -135t-127.5 -46
q-169 0 -169 181zM1414 64.5q79 86.5 79 226.5q0 161 -78 251.5t-228 90.5q-149 0 -227.5 -90.5t-78.5 -251.5q0 -140 79.5 -226.5t226.5 -86.5q148 0 227 86.5zM1019 295q0 103 41.5 152t126.5 49q86 0 127.5 -49t41.5 -152q0 -89 -41 -134.5t-128 -45.5q-168 0 -168 180z
" />
    <glyph glyph-name="ampersand" unicode="&#x26;" horiz-adv-x="1472" 
d="M870.5 23.5q118.5 45.5 192.5 129.5l167 -174l145 138l-155 161q82 123 81 297v51h-182v-47q1 -95 -33 -164l-337 351q119 88 172.5 167.5t53.5 190.5q0 156 -100 244.5t-264 85.5q-364 -5 -367 -330q0 -89 52 -168t133 -160q-317 -161 -322 -431q-10 -384 495 -387
q150 0 268.5 45.5zM733.5 976.5q-46.5 -53.5 -134.5 -108.5q-73 67 -117 125t-44 121q0 75 43.5 123t131.5 48q85 0 126 -46t41 -125q0 -84 -46.5 -137.5zM334 356q-2 166 239 290l345 -357q-95 -136 -316 -136q-268 6 -268 203z" />
    <glyph glyph-name="quotesingle" unicode="'" horiz-adv-x="417" 
d="M282 1008l29 424h-205v-424h176z" />
    <glyph glyph-name="parenleft" unicode="(" horiz-adv-x="729" 
d="M666 -160q-319 289 -319 834q0 552 319 834h-271q-150 -137 -219.5 -360t-69.5 -474q0 -252 69.5 -474t219.5 -360h271z" />
    <glyph glyph-name="parenright" unicode=")" horiz-adv-x="729" 
d="M334 -160q150 138 219.5 360t69.5 474q0 251 -69.5 474t-219.5 360h-271q319 -282 319 -834q0 -545 -319 -834h271z" />
    <glyph glyph-name="asterisk" unicode="*" horiz-adv-x="959" 
d="M479 952l175 -236l140 108l-192 213l251 106l-73 156l-219 -111l10 244h-183l9 -244l-218 111l-73 -156l249 -104l-191 -215l140 -108z" />
    <glyph glyph-name="plus" unicode="+" horiz-adv-x="1053" 
d="M621 183v312h325v195h-325v321h-190v-321h-325v-195h325v-312h190z" />
    <glyph glyph-name="comma" unicode="," horiz-adv-x="484" 
d="M277 -267l101 424h-209l-63 -424h171z" />
    <glyph glyph-name="hyphen" unicode="-" horiz-adv-x="1036" 
d="M930 495v195h-824v-195h824z" />
    <glyph glyph-name="period" unicode="." horiz-adv-x="503" 
d="M359 0v204h-214v-204h214z" />
    <glyph glyph-name="slash" unicode="/" horiz-adv-x="960" 
d="M348 0l505 1472h-241l-506 -1472h242z" />
    <glyph glyph-name="zero" unicode="0" horiz-adv-x="1433" 
d="M1177 165q150 187 150 531q0 378 -143.5 568.5t-467.5 189.5q-218 0 -352.5 -87t-196 -254.5t-61.5 -416.5q0 -344 150 -531t460 -187q311 0 461 187zM436 326q-89 134 -89 370q0 135 18.5 235t62 169t115 105t173.5 36q103 0 174.5 -36t115 -105t62 -169t18.5 -235
q0 -236 -89 -370t-281 -134q-191 0 -280 134z" />
    <glyph glyph-name="one" unicode="1" horiz-adv-x="717" 
d="M568 0v1454l-462 -72v-210l224 39v-1211h238z" />
    <glyph glyph-name="two" unicode="2" horiz-adv-x="1126" 
d="M1020 0v195h-603q31 77 87 142t145 147q16 17 42 36q24 21 36 34q137 122 208.5 231.5t71.5 257.5q0 195 -121.5 303t-351.5 108q-102 0 -204 -18t-173 -50v-210q161 65 329 65q139 0 209.5 -64t70.5 -172q0 -95 -51.5 -176t-163.5 -182q-36 -34 -74 -68
q-137 -122 -228.5 -226.5t-142.5 -226.5v-126h914z" />
    <glyph glyph-name="three" unicode="3" horiz-adv-x="1147" 
d="M897.5 85q143.5 107 143.5 316q0 130 -64 211.5t-175 113.5q102 41 156 133.5t54 204.5q0 177 -128.5 283.5t-376.5 106.5q-101 0 -205 -19t-172 -48v-194q163 69 339 69q155 0 228.5 -55.5t73.5 -163.5q0 -113 -67.5 -173.5t-204.5 -60.5h-175l-19 -168h210
q137 0 211 -55.5t74 -168.5q0 -126 -82.5 -186t-248.5 -60q-95 0 -187 16.5t-176 51.5v-195q68 -26 184.5 -46t211.5 -20q252 0 395.5 107z" />
    <glyph glyph-name="four" unicode="4" horiz-adv-x="1198" 
d="M994 0v313h141v203h-141v916h-210l-721 -942v-177h693v-313h238zM794 1155v-647h-505z" />
    <glyph glyph-name="five" unicode="5" horiz-adv-x="1138" 
d="M895.5 99q136.5 121 136.5 337q0 229 -121.5 332.5t-355.5 99.5h-234l24 370h571l19 194h-792l-37 -602v-133h402q158 0 220.5 -60t62.5 -194q0 -131 -81.5 -201t-240.5 -70q-89 0 -185 18.5t-171 48.5v-196q69 -30 179 -47.5t209 -17.5q258 0 394.5 121z" />
    <glyph glyph-name="six" unicode="6" horiz-adv-x="1265" 
d="M1027 106q132 128 132 352q0 228 -118 344.5t-358 116.5q-87 0 -182 -28.5t-171 -82.5v95q0 158 100 262t280 104q188 0 316 -53v188q-68 27 -150 38.5t-188 11.5q-267 0 -424.5 -166t-157.5 -435v-319q0 -283 132.5 -419.5t396.5 -136.5q260 0 392 128zM406 235
q-76 78 -76 242v158q67 48 149.5 77t159.5 29q164 0 234.5 -74t70.5 -217q0 -138 -78.5 -215.5t-230.5 -77.5q-153 0 -229 78z" />
    <glyph glyph-name="seven" unicode="7" horiz-adv-x="1100" 
d="M492 0l524 1273v159h-932v-194h672l-509 -1238h245z" />
    <glyph glyph-name="eight" unicode="8" horiz-adv-x="1302" 
d="M1059 82q137 104 137 308q0 125 -62 208t-192 125q112 44 164 129t52 192q0 127 -54 219t-166.5 141.5t-287.5 49.5q-253 0 -379.5 -108t-126.5 -302q0 -100 50.5 -181.5t155.5 -121.5q-117 -38 -180.5 -132.5t-63.5 -218.5q0 -204 137.5 -308t406.5 -104q272 0 409 104z
M557 822q-187 37 -187 218q0 114 71.5 175t208.5 61q139 0 210.5 -61.5t71.5 -174.5q0 -102 -53 -160.5t-170 -87.5zM332 401q0 113 60.5 174t172.5 85l176 -36q122 -26 175.5 -77.5t53.5 -152.5q0 -118 -80 -177.5t-240 -59.5q-318 0 -318 244z" />
    <glyph glyph-name="nine" unicode="9" horiz-adv-x="1265" 
d="M1008 148q151 170 151 431v319q0 288 -126 422t-396 134q-257 0 -393.5 -129t-137.5 -357q0 -228 120 -345t360 -117q188 0 349 111v-90q0 -157 -95.5 -260t-278.5 -103q-198 0 -321 50v-188q69 -24 154 -36t190 -12q273 0 424 170zM398.5 753.5q-76.5 69.5 -77.5 222.5
q0 139 81 219.5t234 80.5q155 0 227 -78.5t72 -242.5v-165q-66 -49 -143.5 -77.5t-162.5 -28.5q-154 0 -230.5 69.5z" />
    <glyph glyph-name="colon" unicode=":" horiz-adv-x="503" 
d="M359 725v207h-214v-207h214zM359 57v206h-214v-206h214z" />
    <glyph glyph-name="semicolon" unicode=";" horiz-adv-x="487" 
d="M383 725v207h-214v-207h214zM277 -220l101 425h-209l-63 -425h171z" />
    <glyph glyph-name="less" unicode="&#x3c;" horiz-adv-x="1202" 
d="M1095 335l-738 333l738 334v234l-989 -465v-205l989 -465v234z" />
    <glyph glyph-name="equal" unicode="=" horiz-adv-x="1045" 
d="M939 676v177h-833v-177h833zM939 331v178h-833v-178h833z" />
    <glyph glyph-name="greater" unicode="&#x3e;" horiz-adv-x="1202" 
d="M1095 566v205l-989 465v-234l739 -334l-739 -333v-234z" />
    <glyph glyph-name="question" unicode="?" horiz-adv-x="1095" 
d="M572 364v38q0 85 66.5 156.5t149.5 136.5q107 89 154 166t47 192q0 193 -122.5 297t-358.5 104q-243 0 -402 -86v-181q137 82 340 83q302 0 302 -242q0 -88 -44.5 -141.5t-140.5 -131.5q-89 -72 -150 -146t-60 -198v-47h219zM589 0v189h-251v-189h251z" />
    <glyph glyph-name="at" unicode="@" horiz-adv-x="1675" 
d="M1224 -254v150q-139 -42 -374 -42q-269 0 -422 132.5t-153 429.5q0 311 152 457.5t455 146.5q263 0 390.5 -116.5t127.5 -347.5q0 -166 -47 -239.5t-147 -73.5v312q0 168 -78.5 242t-254.5 74q-87 0 -166 -12.5t-134 -37.5v-112q123 44 262 44q93 0 141 -18.5t66 -55
t18 -109.5v-63h-267q-321 0 -321 -261q0 -128 81 -188.5t209 -60.5q205 0 323 114h83q202 0 301.5 117.5t99.5 338.5q0 288 -176.5 444.5t-510.5 156.5q-371 0 -573.5 -185t-202.5 -565q0 -371 201.5 -541.5t546.5 -170.5q193 0 370 40zM679.5 141q-47.5 33 -47.5 106
q0 79 43.5 115.5t151.5 36.5h233v-178q-47 -59 -105 -86t-139 -27q-89 0 -136.5 33z" />
    <glyph glyph-name="A" unicode="A" horiz-adv-x="1537" 
d="M354 0l138 375h555l138 -375h246l-528 1432h-268l-529 -1432h248zM768 1204l243 -651h-486z" />
    <glyph glyph-name="B" unicode="B" horiz-adv-x="1388" 
d="M856 0q212 0 320.5 104t108.5 311q0 138 -56.5 215t-164.5 107q167 89 167 312q0 189 -100 286t-307 97h-675v-1432h707zM375 1255h389q137 0 191 -55t54 -170q0 -211 -219 -215h-415v440zM375 651h406q87 0 145 -21t89 -70.5t29 -134.5q0 -131 -57.5 -189.5
t-182.5 -58.5h-429v474z" />
    <glyph glyph-name="C" unicode="C" horiz-adv-x="1317" 
d="M1019.5 -6.5q99.5 15.5 192.5 47.5v219q-179 -70 -389 -70q-242 0 -359 128q-114 125 -117 370q0 272 110 413.5t361 141.5q216 0 392 -76v219q-87 35 -187.5 51.5t-221.5 16.5q-358 0 -526.5 -198.5t-168.5 -567.5q0 -338 173.5 -524t522.5 -186q118 0 217.5 15.5z" />
    <glyph glyph-name="D" unicode="D" horiz-adv-x="1424" 
d="M713 0q316 0 462.5 168.5t146.5 537.5q0 260 -66 419t-200 233t-343 74h-564v-1432h564zM388 1226h289q169 0 256 -58.5t118 -168t31 -293.5q0 -155 -25.5 -256t-75.5 -156t-124 -77t-180 -22h-289v1031z" />
    <glyph glyph-name="E" unicode="E" horiz-adv-x="1204" 
d="M1120 0v186h-732v435h654v191h-654v434h732v186h-971v-1432h971z" />
    <glyph glyph-name="F" unicode="F" horiz-adv-x="1150" 
d="M388 0v621h628v191h-628v434h708v186h-947v-1432h239z" />
    <glyph glyph-name="G" unicode="G" horiz-adv-x="1421" 
d="M1100.5 12q127.5 34 205.5 84v692h-550v-162h347v-386q-138 -50 -301 -50q-147 0 -239 51.5t-133 164.5q-83 167 -45 370q19 224 121.5 345.5t320.5 121.5q219 0 394 -61v215q-174 57 -413 57q-358 0 -530 -200t-172 -566q0 -337 173 -523.5t516 -186.5q178 0 305.5 34z
" />
    <glyph glyph-name="H" unicode="H" horiz-adv-x="1442" 
d="M388 0v602h667v-602h238v1432h-238v-600h-667v600h-239v-1432h239z" />
    <glyph glyph-name="I" unicode="I" horiz-adv-x="537" 
d="M388 0v1432h-239v-1432h239z" />
    <glyph glyph-name="J" unicode="J" horiz-adv-x="936" 
d="M684 82.5q113 104.5 113 312.5v1037h-238v-985q0 -136 -60.5 -195.5t-202.5 -59.5q-148 0 -255 49v-211q130 -52 302 -52q228 0 341 104.5z" />
    <glyph glyph-name="K" unicode="K" horiz-adv-x="1366" 
d="M388 0v472l204 223l426 -695h255l-532 855l512 577h-277l-588 -650v650h-239v-1432h239z" />
    <glyph glyph-name="L" unicode="L" horiz-adv-x="1165" 
d="M1098 0v195h-710v1237h-239v-1432h949z" />
    <glyph glyph-name="M" unicode="M" horiz-adv-x="1665" 
d="M388 0v1025l373 -776h144l372 776v-1025h239v1432h-246l-436 -917l-439 917h-246v-1432h239z" />
    <glyph glyph-name="N" unicode="N" horiz-adv-x="1469" 
d="M388 0v1038l720 -1038h211v1432h-238v-1038l-722 1038h-210v-1432h239z" />
    <glyph glyph-name="O" unicode="O" horiz-adv-x="1532" 
d="M1261.5 162.5q165.5 184.5 165.5 545.5q0 389 -162.5 567.5t-498.5 178.5q-335 0 -497.5 -178.5t-162.5 -567.5q0 -361 165.5 -545.5t494.5 -184.5q330 0 495.5 184.5zM450 319.5q-103 128.5 -103 388.5q0 196 45.5 312t137 169t236.5 53q146 0 237.5 -53t137 -169
t45.5 -312q0 -260 -103.5 -388.5t-316.5 -128.5t-316 128.5z" />
    <glyph glyph-name="P" unicode="P" horiz-adv-x="1301" 
d="M388 0v478h374q145 0 253 59t165.5 166t57.5 249q0 219 -117 349.5t-350 130.5h-622v-1432h239zM388 1233h339q135 0 203 -71.5t68 -209.5q0 -128 -72 -201.5t-209 -73.5h-329v556z" />
    <glyph glyph-name="Q" unicode="Q" horiz-adv-x="1532" 
d="M1171 -355v152q-82 -24 -154 -24q-89 0 -126.5 48.5t-40.5 161.5q289 20 433 203t144 522q0 389 -162.5 567.5t-498.5 178.5q-335 0 -497.5 -178.5t-162.5 -567.5q0 -321 132.5 -507t413.5 -215q3 -172 75.5 -270.5t238.5 -98.5q107 0 205 28zM450 319.5
q-103 128.5 -103 388.5q0 196 45.5 312t137 169t236.5 53q146 0 237.5 -53t137 -169t45.5 -312q0 -260 -103.5 -388.5t-316.5 -128.5t-316 128.5z" />
    <glyph glyph-name="R" unicode="R" horiz-adv-x="1347" 
d="M388 0v512h230q93 0 132 -24t66 -90l169 -398h246l-181 434q-23 51 -43 78.5t-59 44.5q139 46 214.5 152t75.5 264q0 213 -111 336t-337 123h-641v-1432h239zM388 1233h359q126 0 188.5 -63.5t62.5 -196.5q0 -262 -271 -262h-339v522z" />
    <glyph glyph-name="S" unicode="S" horiz-adv-x="1225" 
d="M979 82q140 104 140 303q0 117 -38.5 196t-132.5 137t-262 99l-78 20q-151 43 -206 87.5t-55 127.5q0 113 90.5 165.5t246.5 51.5q189 0 353 -65v192q-64 23 -178 40.5t-220 17.5q-268 0 -400.5 -105.5t-132.5 -297.5q0 -162 89.5 -250.5t315.5 -153.5q83 -20 154 -44
q113 -41 162.5 -90t49.5 -129q0 -222 -329 -223q-106 0 -213 23t-200 60v-192q83 -36 193 -55t242 -19q269 0 409 104z" />
    <glyph glyph-name="T" unicode="T" horiz-adv-x="1258" 
d="M749 0v1246h442v186h-1124v-186h444v-1246h238z" />
    <glyph glyph-name="U" unicode="U" horiz-adv-x="1486" 
d="M1188.5 121q158.5 143 158.5 413v898h-238v-887q0 -176 -94 -264.5t-272 -88.5q-177 0 -271.5 88.5t-94.5 264.5v887h-238v-898q0 -270 158.5 -413t445.5 -143t445.5 143z" />
    <glyph glyph-name="V" unicode="V" horiz-adv-x="1537" 
d="M903 0l528 1432h-247l-416 -1161l-414 1161h-248l529 -1432h268z" />
    <glyph glyph-name="W" unicode="W" horiz-adv-x="1903" 
d="M667 0l296 992l275 -992h235l322 1432h-232l-239 -1058l-293 1058h-196v-173l-261 -884l-233 1057h-235l324 -1432h237z" />
    <glyph glyph-name="X" unicode="X" horiz-adv-x="1492" 
d="M388 0l358 518l358 -518h282l-498 715l488 717h-278l-352 -524l-351 524h-279l487 -717l-497 -715h282z" />
    <glyph glyph-name="Y" unicode="Y" horiz-adv-x="1439" 
d="M838 0v531l498 901h-247l-370 -687l-369 687h-248l498 -901v-531h238z" />
    <glyph glyph-name="Z" unicode="Z" horiz-adv-x="1264" 
d="M1169 0v195h-749l738 1082v155h-1018v-206h710l-744 -1092v-134h1063z" />
    <glyph glyph-name="bracketleft" unicode="[" horiz-adv-x="786" 
d="M694 -220l8 194h-358v1402h357l-8 194h-587v-1790h588z" />
    <glyph glyph-name="backslash" unicode="\" horiz-adv-x="1003" 
d="M897 -120l-546 1592h-245l547 -1592h244z" />
    <glyph glyph-name="bracketright" unicode="]" horiz-adv-x="786" 
d="M680 -220v1790h-587l-8 -194h356v-1402h-357l8 -194h588z" />
    <glyph glyph-name="asciicircum" unicode="^" horiz-adv-x="1056" 
d="M329 860l199 347l200 -347h222l-340 528h-173l-331 -528h223z" />
    <glyph glyph-name="underscore" unicode="_" horiz-adv-x="1193" 
d="M1087 -168v168h-981v-168h981z" />
    <glyph glyph-name="a" unicode="a" horiz-adv-x="1210" 
d="M690.5 12q94.5 34 161.5 105l14 -117h205v678q0 206 -116.5 302t-344.5 96q-107 0 -208 -15.5t-176 -47.5v-149q161 55 332 55q109 0 170.5 -22t88 -68t26.5 -126v-86h-340q-192 0 -294.5 -76t-102.5 -250q0 -159 99 -236t258 -77q133 0 227.5 34zM327 297q0 103 59 141
t171 37h286v-221q-102 -127 -295 -127q-221 0 -221 170z" />
    <glyph glyph-name="b" unicode="b" horiz-adv-x="1286" 
d="M1057.5 117q122.5 139 122.5 419q0 278 -117.5 409t-353.5 131q-93 0 -174.5 -20.5t-146.5 -67.5v511h-239v-1499h205l15 104q71 -63 153.5 -94.5t190.5 -31.5q222 0 344.5 139zM388 272v528q109 92 258 92t221 -84t72 -276q0 -187 -70 -278t-220 -91q-153 0 -261 109z
" />
    <glyph glyph-name="c" unicode="c" horiz-adv-x="1053" 
d="M986 41v189q-138 -67 -279 -67q-190 0 -275 88t-85 276q0 185 93 275t274 90q148 0 271 -60v181q-70 35 -142 49t-178 14q-263 0 -411 -137t-148 -412q0 -267 139.5 -408t407.5 -141q193 0 333 63z" />
    <glyph glyph-name="d" unicode="d" horiz-adv-x="1286" 
d="M763.5 9.5q81.5 31.5 153.5 94.5l15 -104h205v1499h-238v-511q-68 47 -142 67.5t-166 20.5q-237 0 -359.5 -150.5t-125.5 -419.5q0 -272 126 -400t341 -128q109 0 190.5 31.5zM419 247.5q-71 84.5 -72 260.5q0 192 79 288t228 96q77 0 135 -23t110 -69v-528
q-56 -55 -119.5 -82t-141.5 -27q-148 0 -219 84.5z" />
    <glyph glyph-name="e" unicode="e" horiz-adv-x="1187" 
d="M859.5 -6q86.5 16 159.5 48v148q-62 -26 -138.5 -40t-152.5 -14q-199 0 -292 74t-109 235h754v181q0 210 -123.5 330t-346.5 120q-253 0 -377 -139t-128 -406q0 -277 141.5 -415t420.5 -138q105 0 191.5 16zM395 831.5q68 87.5 223 86.5q132 0 193 -68.5t61 -185.5v-79
h-545q0 159 68 246.5z" />
    <glyph glyph-name="f" unicode="f" horiz-adv-x="827" 
d="M460 0v867h256l11 187h-267v134q0 86 43.5 126.5t141.5 40.5q66 0 130 -24v166q-84 38 -213 38q-164 0 -252 -92t-88 -253v-136h-147v-187h147v-867h238z" />
    <glyph glyph-name="g" unicode="g" horiz-adv-x="1282" 
d="M1133 1054v-1121q1 -117 -78 -196t-202 -117t-258 -38q-125 0 -254 13.5t-200 39.5v156q83 -27 206 -41.5t235 -14.5q139 0 240.5 58t101.5 140l-1 144q-71 -45 -159 -72t-179 -27q-241 0 -363 147t-119 411q0 540 466 540q214 0 345 -126l14 104h205zM418.5 253.5
q75.5 -90.5 226.5 -90.5q77 0 135 23.5t115 67.5v529q-105 109 -261 109q-152 0 -221.5 -86t-69.5 -272q0 -190 75.5 -280.5z" />
    <glyph glyph-name="h" unicode="h" horiz-adv-x="1277" 
d="M388 0v764q56 56 128.5 89.5t153.5 33.5q133 0 181.5 -50t48.5 -171v-666h238v683q0 204 -91.5 298.5t-289.5 94.5q-116 0 -206.5 -31t-162.5 -90v544h-239v-1499h239z" />
    <glyph glyph-name="i" unicode="i" horiz-adv-x="561" 
d="M411 1272v205h-262v-205h262zM406 0v1054l-253 2v-1056h253z" />
    <glyph glyph-name="j" unicode="j" horiz-adv-x="689" 
d="M542 1272v205h-262v-205h262zM451 -430q86 90 86 244v1240h-253v-1226v-11q0 -80 -38 -119t-128 -39q-65 0 -131 24v-166q97 -37 216 -37q162 0 248 90z" />
    <glyph glyph-name="k" unicode="k" horiz-adv-x="1190" 
d="M388 0v365l135 131l338 -496h252l-440 629l416 425h-274l-427 -415v860h-239v-1499h239z" />
    <glyph glyph-name="l" unicode="l" horiz-adv-x="637" 
d="M491 -16.5q38 5.5 82 23.5v166q-40 -14 -99 -14q-45 0 -65.5 25.5t-20.5 87.5v1227h-239v-1249q0 -145 61.5 -208.5t193.5 -63.5q49 0 87 5.5z" />
    <glyph glyph-name="m" unicode="m" horiz-adv-x="1875" 
d="M379 0v766q57 54 127.5 87.5t139.5 33.5q107 0 147 -52.5t37 -165.5v-669h223v675q0 60 -11 106q102 106 251 106q112 0 160.5 -49.5t48.5 -166.5v-671h234v697q0 193 -84 286t-261 93q-222 0 -386 -134q-34 67 -96.5 100.5t-169.5 33.5q-194 0 -362 -131l-11 109h-217
v-1054h230z" />
    <glyph glyph-name="n" unicode="n" horiz-adv-x="1277" 
d="M388 0v764q56 56 128.5 89.5t153.5 33.5q133 0 181.5 -49.5t48.5 -170.5v-667h238v695q0 197 -85 289t-269 92q-127 0 -226.5 -33.5t-178.5 -95.5l-11 107h-219v-1054h239z" />
    <glyph glyph-name="o" unicode="o" horiz-adv-x="1282" 
d="M1046.5 114.5q129.5 136.5 129.5 412.5q0 274 -131 411.5t-404 137.5q-274 0 -404.5 -137.5t-130.5 -411.5q0 -273 130.5 -411t404.5 -138q276 0 405.5 136.5zM470 202q-65 39 -94 120.5t-29 204.5q0 190 69 277.5t225 87.5q107 0 171.5 -39.5t93.5 -120.5t29 -205
t-29 -205t-93.5 -120t-171.5 -39q-106 0 -171 39z" />
    <glyph glyph-name="p" unicode="p" horiz-adv-x="1286" 
d="M388 -466v532q68 -44 142.5 -66t167.5 -22q240 0 362.5 147t119.5 411q0 540 -467 540q-213 0 -344 -126l-15 104h-205v-1520h239zM502 186.5q-58 23.5 -114 67.5v529q105 109 261 109q152 0 221 -86t69 -272q0 -190 -75 -280.5t-226 -90.5q-78 0 -136 23.5z" />
    <glyph glyph-name="q" unicode="q" horiz-adv-x="1282" 
d="M895 -466v532q-68 -44 -143 -66t-167 -22q-240 0 -362.5 147t-119.5 411q0 540 466 540q211 0 345 -126l14 104h205v-1520h-238zM780 186.5q58 23.5 115 67.5v529q-105 109 -261 109q-152 0 -221.5 -86t-69.5 -272q0 -190 75.5 -280.5t226.5 -90.5q77 0 135 23.5z" />
    <glyph glyph-name="r" unicode="r" horiz-adv-x="813" 
d="M388 0v758q148 90 369 128v190q-97 -14 -196 -52.5t-173 -88.5l-11 119h-228v-1054h239z" />
    <glyph glyph-name="s" unicode="s" horiz-adv-x="1030" 
d="M812.5 54.5q111.5 76.5 111.5 231.5q0 135 -80 202t-247 115q-85 28 -126 45.5t-66 44t-32 71.5q-24 69 13 108q17 23 65.5 32t120.5 10h18q65 0 133 -12t131 -35v168q-56 20 -145 30.5t-175 10.5q-221 0 -324.5 -74t-103.5 -222q0 -118 64.5 -178.5t179.5 -102.5
q30 -11 52 -20q16 -5 40 -13q74 -26 120 -42q64 -24 92.5 -53.5t28.5 -84.5q0 -74 -48 -108.5t-154 -37.5h-33q-74 0 -161.5 16t-158.5 45v-169q66 -23 161.5 -38.5t202.5 -15.5q209 0 320.5 76.5z" />
    <glyph glyph-name="t" unicode="t" horiz-adv-x="807" 
d="M753 15v166q-66 -24 -124 -24q-174 0 -174 171v539h264l7 187h-271v291h-238v-291h-150v-187h150v-551q0 -164 85.5 -251t241.5 -87q104 0 209 37z" />
    <glyph glyph-name="u" unicode="u" horiz-adv-x="1277" 
d="M730.5 10q90.5 32 167.5 97l10 -107h220v1054h-239v-764q-51 -56 -120 -89.5t-149 -33.5q-124 0 -183.5 61t-59.5 182v644h-238v-667q0 -197 98.5 -303t278.5 -106q124 0 214.5 32z" />
    <glyph glyph-name="v" unicode="v" horiz-adv-x="1277" 
d="M770 0l401 1054h-247l-287 -809l-283 809h-248l402 -1054h262z" />
    <glyph glyph-name="w" unicode="w" horiz-adv-x="1637" 
d="M603 0l220 689l217 -689h224l267 1054h-228l-181 -754l-225 754h-176v-129l-200 -625l-185 754h-230l268 -1054h229z" />
    <glyph glyph-name="x" unicode="x" horiz-adv-x="1218" 
d="M348 0l260 361l261 -361h260l-390 536l375 518h-258l-248 -342l-248 342h-258l377 -518l-390 -536h259z" />
    <glyph glyph-name="y" unicode="y" horiz-adv-x="1320" 
d="M271 -383.5q47 -7.5 111 -7.5q159 0 265 115.5t185 311.5q6 16 9 26l416 992h-246l-333 -801l-323 801h-249l454 -1038q-2 -4 -3 -9q-46 -102 -101 -160.5t-144 -58.5q-71 0 -131 24v-170q43 -18 90 -25.5z" />
    <glyph glyph-name="z" unicode="z" horiz-adv-x="1078" 
d="M972 0v187h-561l547 712v155h-828v-197h531l-555 -715v-142h866z" />
    <glyph glyph-name="braceleft" unicode="{" horiz-adv-x="683" 
d="M478 -231q-127 0 -191 65.5t-64 199.5v358q0 94 -30.5 139t-108.5 55v155q78 10 108.5 56t30.5 139v358q0 135 64 200t191 65h142v-196h-47q-121 1 -121 -127v-365q0 -64 -25 -119q-29 -61 -93 -89q64 -26 91 -84q27 -56 27 -123v-364q2 -129 121 -127h47v-196h-142z" />
    <glyph glyph-name="bar" unicode="|" horiz-adv-x="451" 
d="M344 -267v1902h-238v-1902h238z" />
    <glyph glyph-name="braceright" unicode="}" horiz-adv-x="683" 
d="M226 -231q127 0 191.5 65.5t64.5 199.5v358q0 94 30 139t108 55v155q-78 10 -108 56t-30 139v358q0 135 -64.5 200t-191.5 65h-142v-196h47q121 1 121 -127v-365q0 -64 25 -119q29 -61 93 -89q-64 -26 -91 -84q-27 -56 -27 -123v-364q-2 -129 -121 -127h-47v-196h142z
" />
    <glyph glyph-name="asciitilde" unicode="~" horiz-adv-x="1238" 
d="M1027.5 522.5q66.5 29.5 104.5 83.5v222q-54 -69 -112.5 -100t-140.5 -31q-60 0 -119 20t-134 58q-74 36 -136 56t-129 20q-80 0 -148.5 -30.5t-106.5 -83.5v-222q53 70 113 100.5t142 30.5q63 0 122.5 -19.5t136.5 -55.5q72 -39 133 -58.5t126 -19.5q82 0 148.5 29.5z
" />
    <glyph glyph-name="uni00A0" unicode="&#xa0;" horiz-adv-x="0" 
 />
    <glyph glyph-name="cent" unicode="&#xa2;" horiz-adv-x="1093" 
d="M427.5 255q-80.5 91 -80.5 272q5 353 345 364q158 5 293 -59v181q-103 54 -253 59v173h-209v-185q-196 -29 -306.5 -163.5t-110.5 -369.5q0 -236 104.5 -371t312.5 -162v-185h209v173q135 8 254 59v189q-142 -69 -294 -67q-184 1 -264.5 92z" />
    <glyph glyph-name="sterling" unicode="&#xa3;" horiz-adv-x="1074" 
d="M982 0v187h-533q55 29 54 158v308h382l9 187h-391v243q4 190 222 192q103 -1 173 -32v166q-90 46 -255 45q-167 0 -272.5 -96.5t-105.5 -270.5v-247h-146v-187h146v-323q0 -143 -116 -143h-57v-187h890z" />
    <glyph glyph-name="currency" unicode="&#xa4;" horiz-adv-x="1261" 
d="M393 262q51 -39 112 -60.5t126 -21.5q133 0 237 83l182 -143l103 134l-174 136q62 97 62 208q0 117 -62 208l176 135l-105 135l-183 -145q-100 85 -238 85q-135 0 -237 -84l-180 146l-105 -136l174 -136q-61 -92 -61 -208q0 -115 61 -207l-175 -135l106 -137zM460 424.5
q-70 73.5 -70 174.5q0 104 70 176.5t169 72.5q101 0 171 -72.5t70 -176.5q0 -102 -70 -175t-171 -73q-99 0 -169 73.5z" />
    <glyph glyph-name="yen" unicode="&#xa5;" horiz-adv-x="1422" 
d="M830 0v217h326v132h-326v154h326v132h-270l430 797h-247l-358 -687l-358 687h-247l428 -797h-270v-132h327v-154h-327v-132h327v-217h239z" />
    <glyph glyph-name="brokenbar" unicode="&#xa6;" horiz-adv-x="451" 
d="M344 918v717h-238v-717h238zM344 -267v717h-238v-717h238z" />
    <glyph glyph-name="section" unicode="&#xa7;" horiz-adv-x="1225" 
d="M1119 377q0 91 -40 158q41 76 40 166q0 103 -34 166t-122.5 106.5t-276.5 90.5q-194 50 -266.5 95t-72.5 140q0 113 90 165t247 52q179 0 353 -66v193q-53 19 -163.5 38t-234.5 20q-532 2 -532 -384q0 -98 40 -162q-41 -66 -41 -144q-1 -152 83.5 -224t321.5 -140
q193 -50 279.5 -103.5t86.5 -159.5q0 -223 -329 -223q-210 1 -413 83v-192q173 -74 435 -74q549 4 549 399zM813.5 719q-79.5 35 -182.5 58q-185 44 -256.5 84.5t-71.5 127.5q0 35 11 60q3 -47 304 -129q178 -40 251 -80t73 -131q0 -35 -12 -68q-37 43 -116.5 78z" />
    <glyph glyph-name="copyright" unicode="&#xa9;" horiz-adv-x="1647" 
d="M1113 296v128q-122 -64 -249 -64q-160 0 -252.5 85t-92.5 271q0 180 101.5 267.5t251.5 87.5q128 0 239 -60v123q-106 71 -276 72q-474 -2 -479 -490q-3 -489 467 -492q177 0 290 72zM1183 77q165 99 261.5 269t96.5 370t-96.5 370.5t-261.5 269t-360 98.5
q-194 0 -359.5 -98.5t-261.5 -269t-96 -370.5t96 -370t261.5 -269t359.5 -99q195 0 360 99zM531.5 195.5q-132.5 79.5 -210.5 216.5t-78 304t78 304t210.5 216.5t291.5 79.5q160 0 292.5 -79.5t210.5 -216.5t78 -304t-78 -304t-210.5 -216.5t-292.5 -79.5
q-159 0 -291.5 79.5z" />
    <glyph glyph-name="ordfeminine" unicode="&#xaa;" horiz-adv-x="767" 
d="M523 923l8 -65h130v375q0 114 -70.5 167.5t-197.5 53.5q-59 0 -115.5 -8.5t-98.5 -26.5v-96q93 31 183 31q89 0 122.5 -25t33.5 -86v-31h-183q-229 0 -229 -189q0 -89 57 -133.5t147 -44.5q132 0 213 78zM244 1027q0 48 28.5 71t90.5 23h155v-108q-30 -38 -67.5 -55
t-92.5 -17q-114 0 -114 86z" />
    <glyph glyph-name="guillemotleft" unicode="&#xab;" horiz-adv-x="1368" 
d="M1263 302l-439 334l439 334l-94 142l-558 -424v-104l558 -423zM758 302l-439 334l439 334l-94 142l-558 -424v-104l558 -423z" />
    <glyph glyph-name="registered" unicode="&#xae;" horiz-adv-x="1647" 
d="M1183 77q165 99 261.5 269t96.5 370t-96.5 370.5t-261.5 269t-360 98.5q-194 0 -359.5 -98.5t-261.5 -269t-96 -370.5t96 -370t261.5 -269t359.5 -99q195 0 360 99zM531.5 195.5q-132.5 79.5 -210.5 216.5t-78 304t78 304t210.5 216.5t291.5 79.5q160 0 292.5 -79.5
t210.5 -216.5t78 -304t-78 -304t-210.5 -216.5t-292.5 -79.5q-159 0 -291.5 79.5zM645 266v332h155q66 0 93.5 -15.5t44.5 -59.5l102 -257h136l-108 274q-15 35 -28.5 54.5t-39.5 29.5q194 50 194 262q0 132 -72 206.5t-213 74.5h-405v-901h141zM645 1052h239q88 0 129 -39
t41 -127q0 -92 -47.5 -132.5t-137.5 -40.5h-224v339z" />
    <glyph glyph-name="macron" unicode="&#xaf;" horiz-adv-x="789" 
d="M717 1252v156h-645v-156h645z" />
    <glyph glyph-name="degree" unicode="&#xb0;" horiz-adv-x="933" 
d="M466 804q90 0 166.5 44.5t121 120.5t44.5 167q0 90 -44.5 166t-120.5 120t-167 44q-90 0 -166 -44t-120 -120t-44 -166q0 -91 44 -167t120 -120.5t167 -44.5h-1zM552.5 1283q38.5 -23 61.5 -62.5t23 -85.5q0 -70 -50.5 -120t-120.5 -50q-45 0 -84.5 23t-62.5 62.5
t-23 85.5q0 69 51 119.5t123 50.5q44 0 82.5 -23z" />
    <glyph glyph-name="plusminus" unicode="&#xb1;" horiz-adv-x="1053" 
d="M621 289v312h325v194h-325v322h-190v-322h-325v-194h325v-312h190zM946 0v195h-840v-195h840z" />
    <glyph glyph-name="mu" unicode="&#xb5;" horiz-adv-x="1287" 
d="M388 -318v397q80 -99 237 -92q178 9 283 120l11 -107h219v1054h-238v-764q-117 -123 -270 -123q-242 0 -242 243v644h-239v-1372h239z" />
    <glyph glyph-name="paragraph" unicode="&#xb6;" horiz-adv-x="1380" 
d="M851 -171v1563h219v-1563h205v1750h-608q-561 0 -561 -518q0 -279 158.5 -388.5t384.5 -109.5v-734h202z" />
    <glyph glyph-name="guillemotright" unicode="&#xbb;" horiz-adv-x="1368" 
d="M1263 584v104l-558 424l-94 -142l438 -334l-438 -334l94 -141zM758 584v104l-559 424l-93 -142l438 -334l-438 -334l93 -141z" />
    <glyph glyph-name="multiply" unicode="&#xd7;" horiz-adv-x="920" 
d="M814 312l-234 240l234 242l-121 126l-236 -239l-231 241l-120 -125l234 -240l-225 -232l122 -126l226 231l234 -241z" />
    <glyph glyph-name="germandbls" unicode="&#xdf;" horiz-adv-x="1389" 
d="M840 -22q-82 0 -163 12t-136 37v167q52 -21 116.5 -30t125.5 -9q131 0 195 62.5t64 192.5q0 111 -57 166t-196 55h-180v132l382 271q4 116 -88.5 166t-216.5 50q-165 0 -243 -73t-78 -223v-954h-226v962q2 263 149.5 377.5t397.5 114.5q287 0 403 -122.5t126 -330.5
l-371 -265h101q167 0 252.5 -91.5t85.5 -259.5q0 -208 -114.5 -307.5t-328.5 -99.5z" />
    <glyph glyph-name="divide" unicode="&#xf7;" horiz-adv-x="1036" 
d="M603 884v176h-173v-176h173zM930 495v195h-824v-195h824zM603 135v176h-173v-176h173z" />
    <glyph glyph-name="uni060C" unicode="&#x60c;" horiz-adv-x="689" 
d="M497 260q-26 37 -69 50t-91 -1v112q-1 46 28 80t74 42l80 10l-28 173l-62 -11q-121 -22 -196.5 -111.5t-77.5 -213.5v-214q0 -75 51.5 -128t129.5 -53q79 0 133 51t54 125q0 52 -26 89z" />
    <glyph glyph-name="uni0615" unicode="&#x615;" horiz-adv-x="0" 
d="M-43.5 1838.5q44.5 66.5 105.5 66.5q63 0 91 -39.5t28 -88.5q0 -37 -35.5 -62.5t-87.5 -25.5h-176q30 83 74.5 149.5zM-237 1718q-3 -11 -6 -27q-1 -1 -1 -2h-55v-118h357q68 0 123 27.5t86.5 74.5t31.5 104q0 100 -65 173t-172 73q-98 0 -180 -110v313h-119v-508z" />
    <glyph glyph-name="uni0615" unicode="&#xfbc0;" horiz-adv-x="0" 
d="M-43.5 1838.5q44.5 66.5 105.5 66.5q63 0 91 -39.5t28 -88.5q0 -37 -35.5 -62.5t-87.5 -25.5h-176q30 83 74.5 149.5zM-237 1718q-3 -11 -6 -27q-1 -1 -1 -2h-55v-118h357q68 0 123 27.5t86.5 74.5t31.5 104q0 100 -65 173t-172 73q-98 0 -180 -110v313h-119v-508z" />
    <glyph glyph-name="uni0615" unicode="&#xe0bf;" horiz-adv-x="0" 
d="M-43.5 1838.5q44.5 66.5 105.5 66.5q63 0 91 -39.5t28 -88.5q0 -37 -35.5 -62.5t-87.5 -25.5h-176q30 83 74.5 149.5zM-237 1718q-3 -11 -6 -27q-1 -1 -1 -2h-55v-118h357q68 0 123 27.5t86.5 74.5t31.5 104q0 100 -65 173t-172 73q-98 0 -180 -110v313h-119v-508z" />
    <glyph glyph-name="uni061B" unicode="&#x61b;" horiz-adv-x="688" 
d="M497 627q-26 37 -69 50t-91 -1v112q-1 46 28 80t74 42l80 10l-28 173l-62 -11q-121 -22 -196.5 -111.5t-77.5 -213.5v-214q0 -75 51.5 -128t129.5 -53q79 0 133 51t54 125q0 52 -26 89zM441 0v204h-214v-204h214z" />
    <glyph glyph-name="uni061F" unicode="&#x61f;" horiz-adv-x="1092" 
d="M504 0v189h251v-189h-251zM520 364v38q0 85 -66.5 156.5t-148.5 136.5q-107 89 -154 166t-47 192q0 193 122 297t359 104q243 0 401 -186l-154 -179q-101 151 -243 152q-244 0 -244 -213q0 -88 44.5 -141.5t140.5 -131.5q89 -72 150 -146t60 -198v-47h-220z" />
    <glyph glyph-name="uni0640" unicode="&#x640;" horiz-adv-x="283" 
d="M-55.5 152.5q-14.5 -42.5 0 -85t55.5 -67.5h284v220h-284q-41 -25 -55.5 -67.5z" />
    <glyph glyph-name="uni0640" unicode="&#xe0b5;" horiz-adv-x="283" 
d="M-55.5 152.5q-14.5 -42.5 0 -85t55.5 -67.5h284v220h-284q-41 -25 -55.5 -67.5z" />
    <glyph glyph-name="uni0653" unicode="&#x653;" horiz-adv-x="0" 
d="M-195 154q19 44 57.5 70.5t86.5 25.5h453v144h-453q-92 0 -167.5 -51t-109.5 -136l-61 -154l134 -53z" />
    <glyph glyph-name="uni0653" unicode="&#xe010;" horiz-adv-x="0" 
d="M-195 154q19 44 57.5 70.5t86.5 25.5h453v144h-453q-92 0 -167.5 -51t-109.5 -136l-61 -154l134 -53z" />
    <glyph glyph-name="uni0654" unicode="&#x654;" horiz-adv-x="0" 
d="M-207 1781l456 174l-42 110l-154 -59q-65 -3 -101 27.5t-36 83.5q0 44 28 80t73 37q31 0 56 -8.5t56 -24.5q6 -3 9 -5l28 113q-38 21 -71.5 32t-77.5 11q-64 0 -114 -34t-77.5 -88.5t-27.5 -112.5q0 -54 27 -101t73 -69l-147 -56z" />
    <glyph glyph-name="uni0654" unicode="&#x674;" horiz-adv-x="0" 
d="M-207 1781l456 174l-42 110l-154 -59q-65 -3 -101 27.5t-36 83.5q0 44 28 80t73 37q31 0 56 -8.5t56 -24.5q6 -3 9 -5l28 113q-38 21 -71.5 32t-77.5 11q-64 0 -114 -34t-77.5 -88.5t-27.5 -112.5q0 -54 27 -101t73 -69l-147 -56z" />
    <glyph glyph-name="uni0655" unicode="&#x655;" horiz-adv-x="0" 
d="M-207 -1092l456 174l-42 109l-154 -58q-65 -3 -101 28t-36 83q0 44 28 80.5t73 36.5q31 1 56 -8t56 -26q6 -3 9 -4l28 113q-37 21 -71 32.5t-78 11.5q-64 0 -114 -34.5t-77.5 -89t-27.5 -112.5q0 -54 27 -100.5t73 -69.5l-147 -56z" />
    <glyph glyph-name="uni0656" unicode="&#x656;" horiz-adv-x="0" 
d="M-59 -942h118v391h-118v-391z" />
    <glyph glyph-name="uni0656" unicode="&#x8ad;" horiz-adv-x="0" 
d="M-59 -942h118v391h-118v-391z" />
    <glyph glyph-name="uni065A" unicode="&#x65a;" horiz-adv-x="0" 
d="M342 1916l-150 3l-192 -219l-192 219l-150 -3l298 -345h88z" />
    <glyph glyph-name="uni065B" unicode="&#x65b;" horiz-adv-x="0" 
d="M342 1574l-150 -3l-192 219l-192 -219l-150 3l298 345h88z" />
    <glyph glyph-name="uni0660" unicode="&#x660;" horiz-adv-x="621" 
d="M310 285l208 208l-208 208l-208 -208z" />
    <glyph glyph-name="uni0661" unicode="&#x661;" horiz-adv-x="567" 
d="M425 637q0 135 -15.5 300t-44.5 289l-24 106l-212 -49l25 -106q26 -111 40 -263.5t14 -276.5v-637h217v637z" />
    <glyph glyph-name="uni0662" unicode="&#x662;" horiz-adv-x="1064" 
d="M365 1226l-24 106l-212 -49l25 -106q26 -111 40 -263.5t14 -276.5v-637h217v590q0 42 -2 83q21 -33 67.5 -49t107.5 -8q149 19 240 114t97 238q3 81 -5 146t-34 197q-3 17 -4 25l-213 -41q2 -13 7 -38q21 -111 28 -164.5t5 -117.5q-7 -124 -149 -144q-61 -8 -100.5 18
t-58.5 70q-16 180 -46 307z" />
    <glyph glyph-name="uni0663" unicode="&#x663;" horiz-adv-x="1561" 
d="M1333.5 735.5q92.5 94.5 99.5 236.5q3 79 -5 142.5t-32 190.5q-5 22 -7 35l-214 -40q3 -15 8 -41q22 -116 28.5 -166t4.5 -114q-2 -59 -43 -97t-111 -47q-86 -11 -146 68q12 31 13 65q3 81 -5.5 146t-33.5 198q-3 16 -5 24l-213 -41q3 -13 8 -38q21 -111 28 -164t4 -118
q-6 -124 -148 -144q-109 -14 -153 87q-16 181 -46 308l-24 106l-212 -49l25 -106q26 -111 40.5 -263.5t14.5 -276.5v-637h216v598q0 33 -2 71q21 -30 66.5 -45t101.5 -8q135 17 220 99q51 -49 126.5 -77t151.5 -18q152 21 244.5 115.5z" />
    <glyph glyph-name="uni0664" unicode="&#x664;" horiz-adv-x="1048" 
d="M250.5 798.5q33.5 -79.5 117 -116t207.5 -21.5q13 0 30.5 -9.5t45.5 -28.5q34 -22 54.5 -32.5t34.5 -7.5l117 23l-41 204l-117 -23q-77 -16 -136.5 -4.5t-90.5 43.5q-45 43 -29 118q16 83 65 132.5t106.5 69t106.5 19.5q51 0 127 -18l10 208q-56 18 -137 18
q-104 0 -204.5 -42t-176 -129t-101.5 -215q-22 -109 11.5 -188.5zM909 208h-402q-65 0 -112 44t-51 109q-3 61 34 109.5t97 59.5l382 76l-41 204l-382 -76q-86 -17 -154 -69.5t-106 -129.5t-38 -165q0 -100 50 -185t135 -135t186 -50h401z" />
    <glyph glyph-name="uni0665" unicode="&#x665;" horiz-adv-x="1385" 
d="M1096.5 117q148.5 126 148.5 427q0 206 -62.5 391t-187.5 301t-303 116q-177 0 -302 -116t-187.5 -301t-62.5 -391q0 -301 148.5 -427t371.5 -126h65q223 0 371.5 126zM880 1055.5q78 -89.5 117.5 -228t39.5 -283.5q0 -81 -13 -142t-47 -106.5t-96 -71t-156 -25.5h-65
q-125 0 -193.5 43.5t-93.5 118t-25 183.5q0 144 39.5 283t117.5 228.5t187 89.5q110 0 188 -89.5z" />
    <glyph glyph-name="uni0666" unicode="&#x666;" horiz-adv-x="1211" 
d="M1101 83q-92 150 -139.5 344.5t-29.5 403t118 389.5l-122 150q-198 -60 -324.5 -69.5t-214 9t-199.5 60.5l-73 -189q115 -45 203 -67.5t200 -22.5t275 34q-99 -320 -60.5 -611.5t189.5 -538.5z" />
    <glyph glyph-name="uni0667" unicode="&#x667;" horiz-adv-x="1259" 
d="M1015.5 901.5q-80.5 -177.5 -141.5 -346.5t-96 -313t-40 -243l-220 -1q-12 214 -137 563.5t-311 682.5l180 114q129 -222 222.5 -456t156.5 -555q63 321 156.5 555t222.5 456l180 -114q-92 -165 -172.5 -342.5z" />
    <glyph glyph-name="uni0668" unicode="&#x668;" horiz-adv-x="1229" 
d="M876.5 772.5q-125.5 350.5 -138.5 562.5l-220 1q-5 -134 -64.5 -342t-160 -446.5t-223.5 -457.5l180 -114q128 221 222 455t157 556q63 -322 156.5 -556t222.5 -455l180 114q-186 332 -311.5 682.5z" />
    <glyph glyph-name="uni0669" unicode="&#x669;" horiz-adv-x="1111" 
d="M752 801q-42 -31 -87.5 -43.5t-107.5 -20.5q-6 -1 -9 -1q-83 -9 -141 43.5t-61 144.5q1 54 29 101.5t74.5 76t100.5 28.5q62 0 108 -36t70 -92t24 -113v-88zM752 0h217v889q0 115 -51.5 220.5t-146.5 171.5t-221 66q-111 0 -208 -57.5t-154.5 -155t-58.5 -209.5
q0 -122 61.5 -221t165 -149t221.5 -35q3 0 10 1q49 7 87 17t78 34v-572z" />
    <glyph glyph-name="uni066A" unicode="&#x66a;" horiz-adv-x="1267" 
d="M1060 1295l-145 67l-708 -1316l144 -67zM365 1219q38 -38 38 -93q0 -54 -38.5 -92t-91.5 -38q-55 0 -93 38t-38 92q0 55 38 93t93 38q54 0 92 -38zM1087 307q38 -38 38 -93q0 -54 -38 -92t-92 -38q-55 0 -93 38t-38 92q0 55 38 93t93 38q54 0 92 -38z" />
    <glyph glyph-name="uni066B" unicode="&#x66b;" horiz-adv-x="640" 
d="M498 390l-131 58l-367 -807l131 -60z" />
    <glyph glyph-name="uni066C" unicode="&#x66c;" horiz-adv-x="493" 
d="M199 -238q72 39 112 115t40 175v211h-143v-211q0 -51 -19 -96.5t-59 -67.5l-64 -35l69 -126z" />
    <glyph glyph-name="uni066D" unicode="&#x66d;" horiz-adv-x="1331" 
d="M142 799l323 -237l-125 -379l326 235l325 -235l-124 379l323 237h-400l-124 380l-125 -380h-399z" />
    <glyph glyph-name="uni066E" unicode="&#x66e;" horiz-adv-x="1765" 
d="M1237 0q105 0 193.5 50t140.5 136t52 188v352h-207v-327q0 -49 -24 -90t-65 -65t-90 -24h-709q-49 0 -90 24t-65 65t-24 90v327h-207v-352q0 -102 52 -188t140.5 -136t193.5 -50h709z" />
    <glyph glyph-name="uni066F" unicode="&#x66f;" horiz-adv-x="1674" 
d="M1337 783.5q93 -56.5 144.5 -158.5t51.5 -233v-377q0 -157 -74.5 -284.5t-202 -201t-279.5 -73.5h-263q-171 0 -301.5 77.5t-200.5 206.5t-70 280v470h207v-444q0 -99 42 -183.5t125 -135.5t198 -51h263q159 0 252 86.5t95 237.5h-199q-207 0 -308 103.5t-101 288.5
q0 129 52.5 231t145.5 159.5t211 57.5q119 0 212 -56.5zM1326 392q0 95 -47 168t-154 73q-69 0 -114 -36t-66 -91t-21 -114q0 -85 46.5 -128.5t154.5 -43.5h201v172z" />
    <glyph glyph-name="uni066F" unicode="&#x8bc;" horiz-adv-x="1674" 
d="M1337 783.5q93 -56.5 144.5 -158.5t51.5 -233v-377q0 -157 -74.5 -284.5t-202 -201t-279.5 -73.5h-263q-171 0 -301.5 77.5t-200.5 206.5t-70 280v470h207v-444q0 -99 42 -183.5t125 -135.5t198 -51h263q159 0 252 86.5t95 237.5h-199q-207 0 -308 103.5t-101 288.5
q0 129 52.5 231t145.5 159.5t211 57.5q119 0 212 -56.5zM1326 392q0 95 -47 168t-154 73q-69 0 -114 -36t-66 -91t-21 -114q0 -85 46.5 -128.5t154.5 -43.5h201v172z" />
    <glyph glyph-name="uni0670" unicode="&#x670;" horiz-adv-x="0" 
d="M-59 1781h118v391h-118v-391z" />
    <glyph glyph-name="uni0695" unicode="&#x695;" horiz-adv-x="772" 
d="M74 -544q149 0 277 78t203 208t75 278v672h-207v-646q0 -95 -47 -180.5t-127.5 -137.5t-173.5 -52h-80v-220h80zM636 -786l-150 3l-192 -219l-192 219l-150 -3l298 -345h88z" />
    <glyph glyph-name="uni06A1" unicode="&#x6a1;" horiz-adv-x="1820" 
d="M1626.5 983.5q-51.5 93.5 -143 150t-203.5 56.5q-109 0 -199 -54.5t-143.5 -148.5t-57.5 -209q-6 -181 72 -271.5t254 -90.5h265v-23q0 -49 -31.5 -88.5t-83.5 -62t-114 -22.5h-714q-49 0 -90 24t-65 65t-24 90v327h-207v-352q0 -102 52 -188t140.5 -136t193.5 -50h714
q117 0 217 50t159.5 135t59.5 185v415q0 105 -51.5 198.5zM1250 623q-89 0 -128 43.5t-34 129.5q4 79 53.5 136.5t138.5 57.5q57 0 100.5 -30.5t67 -78.5t23.5 -98v-160h-221z" />
    <glyph glyph-name="uni06A1" unicode="&#x8bb;" horiz-adv-x="1820" 
d="M1626.5 983.5q-51.5 93.5 -143 150t-203.5 56.5q-109 0 -199 -54.5t-143.5 -148.5t-57.5 -209q-6 -181 72 -271.5t254 -90.5h265v-23q0 -49 -31.5 -88.5t-83.5 -62t-114 -22.5h-714q-49 0 -90 24t-65 65t-24 90v327h-207v-352q0 -102 52 -188t140.5 -136t193.5 -50h714
q117 0 217 50t159.5 135t59.5 185v415q0 105 -51.5 198.5zM1250 623q-89 0 -128 43.5t-34 129.5q4 79 53.5 136.5t138.5 57.5q57 0 100.5 -30.5t67 -78.5t23.5 -98v-160h-221z" />
    <glyph glyph-name="uni06AA" unicode="&#x6aa;" horiz-adv-x="2094" 
d="M1748.5 52q88.5 52 140.5 140.5t52 193.5t-52 193.5t-140.5 140.5t-193.5 52h-515l435 532l-160 132l-574 -702l80 -169h734q49 0 90 -24t65 -65t24 -90q0 -73 -51.5 -119.5t-127.5 -46.5h-1017q-75 0 -127 46.5t-52 119.5v314h-207v-301q0 -108 52 -200t140.5 -145.5
t193.5 -53.5h1017q105 0 193.5 52z" />
    <glyph glyph-name="uni06B5" unicode="&#x6b5;" horiz-adv-x="1560" 
d="M807 -544q172 0 302 77t200 206t70 280v1417h-207v-1391q0 -98 -42 -182.5t-125 -135.5t-198 -51h-93q-115 0 -197.5 51t-125 135.5t-42.5 182.5v434h-207v-460q0 -151 70 -280t200.5 -206t301.5 -77h93zM1618 2052l-150 3l-192 -219l-192 219l-150 -3l298 -345h88z" />
    <glyph glyph-name="uni06C2" unicode="&#x6c2;" horiz-adv-x="1077" 
d="M696 507q47 -83 47 -142q0 -53 -30 -92t-77 -59.5t-95 -20.5t-95 21t-77 60.5t-30 90.5q0 89 62.5 173t142.5 156q105 -104 152 -187zM221.5 628.5q-90.5 -122.5 -90.5 -263.5q0 -106 57 -193t151.5 -137t201.5 -50q103 0 197.5 46.5t153.5 133t59 200.5q0 280 -415 618
l-80 65l-131 -160l77 -64q-90 -73 -180.5 -195.5zM293 1257l456 174l-42 110l-154 -59q-65 -3 -101 27.5t-36 83.5q0 44 28 80t73 37q31 0 56 -8.5t56 -24.5q6 -3 9 -5l28 113q-38 21 -71.5 32t-77.5 11q-64 0 -114 -34t-77.5 -88.5t-27.5 -112.5q0 -54 27 -101t73 -69
l-147 -56z" />
    <glyph glyph-name="uni06C3" unicode="&#x6c3;" horiz-adv-x="1077" 
d="M696 507q47 -83 47 -142q0 -53 -30 -92t-77 -59.5t-95 -20.5t-95 21t-77 60.5t-30 90.5q0 89 62.5 173t142.5 156q105 -104 152 -187zM221.5 628.5q-90.5 -122.5 -90.5 -263.5q0 -106 57 -193t151.5 -137t201.5 -50q103 0 197.5 46.5t153.5 133t59 200.5q0 280 -415 618
l-80 65l-131 -160l77 -64q-90 -73 -180.5 -195.5zM437 1440q-35 35 -84 35q-50 0 -85 -35t-35 -84t35 -84t85 -35q49 0 84 35t35 84t-35 84zM774 1440q-35 35 -85 35q-49 0 -84 -35t-35 -84t35 -84t84 -35q50 0 85 35t35 84t-35 84z" />
    <glyph glyph-name="uni06CE" unicode="&#x6ce;" horiz-adv-x="1601" 
d="M1384.5 210.5q-96.5 75.5 -261.5 78.5h-208v187q0 81 55 135.5t136 54.5h305v208h-305q-110 0 -201 -53t-144 -144.5t-53 -200.5v-394h411q79 -2 114.5 -35.5t28.5 -110.5q-9 -111 -117 -185.5t-305 -74.5h-132q-114 0 -195.5 50t-122.5 133t-41 181v450h-207v-476
q0 -150 69 -278t198 -204t299 -76h132q222 0 359.5 76.5t199 187t71.5 224.5q11 191 -85.5 266.5zM588 1086l-150 3l-192 -219l-192 219l-150 -3l298 -345h88z" />
    <glyph glyph-name="uni06D4" unicode="&#x6d4;" horiz-adv-x="743" 
d="M60 0v-144h624v144h-624z" />
    <glyph glyph-name="uni06F0" unicode="&#x6f0;" horiz-adv-x="1033" 
d="M181 308q52 -89 141 -141t195 -52q105 0 194 52t141 141t52 194q0 106 -52 194.5t-141 140.5t-194 52q-106 0 -195 -52t-141 -140.5t-52 -194.5q0 -105 52 -194zM382 634.5q55 54.5 138 56.5q50 0 92.5 -25.5t68 -69t25.5 -94.5t-25.5 -94.5t-69 -69t-94.5 -25.5
q-52 0 -95.5 25.5t-69 69t-25.5 94.5q0 78 55 132.5z" />
    <glyph glyph-name="uni06F1" unicode="&#x6f1;" horiz-adv-x="567" 
d="M425 637q0 135 -15.5 300t-44.5 289l-24 106l-212 -49l25 -106q26 -111 40 -263.5t14 -276.5v-637h217v637z" />
    <glyph glyph-name="uni06F2" unicode="&#x6f2;" horiz-adv-x="1063" 
d="M365 1226l-24 106l-212 -49l25 -106q26 -111 40 -263.5t14 -276.5v-637h217v590q0 42 -2 83q21 -33 67.5 -49t107.5 -8q149 19 240 114t97 238q3 81 -5 146t-34 197q-3 17 -4 25l-213 -41q2 -13 7 -38q21 -111 28 -164.5t5 -117.5q-7 -124 -149 -144q-61 -8 -100.5 18
t-58.5 70q-16 180 -46 307z" />
    <glyph glyph-name="uni06F3" unicode="&#x6f3;" horiz-adv-x="1561" 
d="M1333.5 735.5q92.5 94.5 99.5 236.5q3 79 -5 142.5t-32 190.5q-5 22 -7 35l-214 -40q3 -15 8 -41q22 -116 28.5 -166t4.5 -114q-2 -59 -43 -97t-111 -47q-86 -11 -146 68q12 31 13 65q3 81 -5.5 146t-33.5 198q-3 16 -5 24l-213 -41q3 -13 8 -38q21 -111 28 -164t4 -118
q-6 -124 -148 -144q-109 -14 -153 87q-16 181 -46 308l-24 106l-212 -49l25 -106q26 -111 40.5 -263.5t14.5 -276.5v-637h216v598q0 33 -2 71q21 -30 66.5 -45t101.5 -8q135 17 220 99q51 -49 126.5 -77t151.5 -18q152 21 244.5 115.5z" />
    <glyph glyph-name="uni06F4" unicode="&#x6f4;" horiz-adv-x="1389" 
d="M365 1226l-24 106l-212 -49l25 -106q26 -111 40.5 -263.5t14.5 -276.5v-637h216v607q0 37 -2 78q56 -62 177.5 -105t344.5 -43q91 0 167 25t160 76l-43 203q-91 -45 -159 -66.5t-124 -20.5q-80 1 -137.5 41.5t-55.5 139.5q1 86 52.5 141t138.5 58q31 1 70.5 -8.5
t112.5 -35.5l54 199q-50 26 -113.5 44.5t-112.5 18.5q-112 2 -204.5 -50.5t-146.5 -148t-56 -217.5q0 -88 64 -134q-83 20 -133 72t-75 105q-15 145 -39 247z" />
    <glyph glyph-name="uni06F5" unicode="&#x6f5;" horiz-adv-x="1451" 
d="M638 1364q33 -27 101 -81q154 -123 248 -206.5t175.5 -185.5t129 -224.5t47.5 -268.5q0 -108 -51.5 -201t-138.5 -148.5t-187 -55.5q-165 0 -242 118q-81 -118 -247 -118q-102 0 -184.5 54t-129.5 146.5t-47 204.5q0 207 136.5 394t348.5 327q-9 8 -28 22q-43 35 -64 52z
M1036 234.5q37 24.5 61.5 67.5t24.5 96q0 120 -44 219t-121.5 184.5t-201.5 187.5q-187 -134 -306.5 -285.5t-119.5 -305.5q0 -86 42.5 -137t101.5 -51q73 0 119.5 40t46.5 129v129h191v-91q1 -46 -8 -91q21 -60 57.5 -88t82.5 -28q37 0 74 24.5z" />
    <glyph glyph-name="uni06F6" unicode="&#x6f6;" horiz-adv-x="1077" 
d="M681 772q-87 -26 -158 -25q-78 2 -136.5 45t-56.5 143q1 86 53 141t138 58q35 1 86.5 -9t116.5 -35l54 199q-49 25 -122.5 44t-123.5 19q-112 2 -204.5 -50.5t-147 -148.5t-55.5 -217q-1 -122 50.5 -206t133.5 -125t173 -42q46 0 95 22q-202 -237 -334 -516l190 -90
q113 239 244.5 406t296.5 308l-136 160q-70 -55 -157 -81z" />
    <glyph glyph-name="uni06F7" unicode="&#x6f7;" horiz-adv-x="1259" 
d="M1015.5 901.5q-80.5 -177.5 -141.5 -346.5t-96 -313t-40 -243l-220 -1q-12 214 -137 563.5t-311 682.5l180 114q129 -222 222.5 -456t156.5 -555q63 321 156.5 555t222.5 456l180 -114q-92 -165 -172.5 -342.5z" />
    <glyph glyph-name="uni06F8" unicode="&#x6f8;" horiz-adv-x="1229" 
d="M876.5 772.5q-125.5 350.5 -138.5 562.5l-220 1q-5 -134 -64.5 -342t-160 -446.5t-223.5 -457.5l180 -114q128 221 222 455t157 556q63 -322 156.5 -556t222.5 -455l180 114q-186 332 -311.5 682.5z" />
    <glyph glyph-name="uni06F9" unicode="&#x6f9;" horiz-adv-x="1112" 
d="M752 801q-42 -31 -87.5 -43.5t-107.5 -20.5q-6 -1 -9 -1q-83 -9 -141 43.5t-61 144.5q1 54 29 101.5t74.5 76t100.5 28.5q62 0 108 -36t70 -92t24 -113v-88zM752 0h217v889q0 115 -51.5 220.5t-146.5 171.5t-221 66q-111 0 -208 -57.5t-154.5 -155t-58.5 -209.5
q0 -122 61.5 -221t165 -149t221.5 -35q3 0 10 1q49 7 87 17t78 34v-572z" />
    <glyph glyph-name="uni2009" unicode="&#x2009;" horiz-adv-x="105" 
 />
    <glyph glyph-name="uni200A" unicode="&#x200a;" horiz-adv-x="105" 
 />
    <glyph glyph-name="uni200B" unicode="&#x200b;" horiz-adv-x="0" 
 />
    <glyph glyph-name="uni200C" unicode="&#x200c;" horiz-adv-x="0" 
 />
    <glyph glyph-name="uni200D" unicode="&#x200d;" horiz-adv-x="0" 
 />
    <glyph glyph-name="uni200E" unicode="&#x200e;" horiz-adv-x="0" 
 />
    <glyph glyph-name="uni200F" unicode="&#x200f;" horiz-adv-x="0" 
 />
    <glyph glyph-name="quoteleft" unicode="&#x2018;" horiz-adv-x="535" 
d="M315 1019l114 435h-180l-143 -435h209z" />
    <glyph glyph-name="quoteright" unicode="&#x2019;" horiz-adv-x="535" 
d="M286 1019l143 435h-209l-114 -435h180z" />
    <glyph glyph-name="quotesinglbase" unicode="&#x201a;" horiz-adv-x="535" 
d="M286 -362l143 435h-209l-114 -435h180z" />
    <glyph glyph-name="quotedblleft" unicode="&#x201c;" horiz-adv-x="837" 
d="M616 1019l114 435h-163l-143 -435h192zM299 1019l113 435h-163l-143 -435h193z" />
    <glyph glyph-name="quotedblright" unicode="&#x201d;" horiz-adv-x="837" 
d="M587 1019l143 435h-192l-114 -435h163zM269 1019l143 435h-192l-114 -435h163z" />
    <glyph glyph-name="quotedblbase" unicode="&#x201e;" horiz-adv-x="837" 
d="M587 -252l143 435h-192l-114 -435h163zM269 -252l143 435h-192l-114 -435h163z" />
    <glyph glyph-name="guilsinglleft" unicode="&#x2039;" horiz-adv-x="864" 
d="M758 302l-439 334l439 334l-94 142l-558 -424v-104l558 -423z" />
    <glyph glyph-name="guilsinglright" unicode="&#x203a;" horiz-adv-x="864" 
d="M758 584v104l-559 424l-93 -142l438 -334l-438 -334l93 -141z" />
    <glyph glyph-name="infinity" unicode="&#x221e;" horiz-adv-x="1539" 
d="M636.5 340.5q82.5 50.5 133.5 137.5q51 -87 133.5 -137.5t183.5 -50.5q157 0 251.5 86.5t94.5 251.5t-94.5 251.5t-251.5 86.5q-101 0 -183 -50.5t-134 -138.5q-51 88 -133.5 138.5t-184.5 50.5q-157 0 -251.5 -86.5t-94.5 -251.5t94.5 -251.5t251.5 -86.5
q102 0 184.5 50.5zM325 500.5q-47 45.5 -47 127.5q0 83 47 128t136 45q80 0 134 -43t96 -130q-73 -173 -230 -173q-89 0 -136 45.5zM946 498q-56 43 -97 127q40 87 95 131.5t134 44.5q89 0 136 -45t47 -128q0 -82 -47 -127.5t-136 -45.5q-76 0 -132 43z" />
    <glyph glyph-name="notequal" unicode="&#x2260;" horiz-adv-x="1045" 
d="M423 85l79 246h437v178h-386l55 167h331v177h-282l79 240h-116l-79 -240h-435v-177h385l-55 -167h-330v-178h280l-80 -246h117z" />
    <glyph glyph-name="lessequal" unicode="&#x2264;" horiz-adv-x="1202" 
d="M1095 460l-738 325l738 324v212l-989 -451v-171l989 -451v212zM1095 0v173h-989v-173h989z" />
    <glyph glyph-name="greaterequal" unicode="&#x2265;" horiz-adv-x="1202" 
d="M1095 699v171l-989 451v-212l739 -324l-739 -325v-212zM1095 0v173h-989v-173h989z" />
    <glyph glyph-name="uniE000" unicode="&#xe000;" horiz-adv-x="0" 
d="M-91.5 -4.5q-27.5 27.5 -66.5 27.5t-67 -27.5t-28 -67.5q0 -39 28 -66.5t67 -27.5t66.5 27.5t27.5 66.5q0 40 -27.5 67.5zM198.5 54.5q-27.5 27.5 -66.5 27.5t-67 -27.5t-28 -67.5q0 -39 28 -66.5t67 -27.5t66.5 27.5t27.5 66.5q0 40 -27.5 67.5zM107.5 -179.5
q-27.5 27.5 -66.5 27.5t-67 -27.5t-28 -66.5t28 -67t67 -28t66.5 28t27.5 67t-27.5 66.5z" />
    <glyph glyph-name="uniE002" unicode="&#xe002;" horiz-adv-x="704" 
d="M-55.5 152.5q-14.5 -42.5 0 -85t55.5 -67.5h176q106 0 194.5 50t140 136t51.5 188v352h-207v-327q0 -49 -24 -90t-65 -65t-90 -24h-176q-41 -25 -55.5 -67.5z" />
    <glyph glyph-name="uniE003" unicode="&#xe003;" horiz-adv-x="792" 
d="M-55.5 152.5q-14.5 -42.5 0 -85t55.5 -67.5h176q94 0 166 43.5t117 120.5q44 -77 116.5 -120.5t165.5 -43.5h51v220h-51q-48 0 -89 24t-65.5 65t-24.5 90v293h-207v-293q0 -49 -24 -90t-65 -65t-90 -24h-176q-41 -25 -55.5 -67.5z" />
    <glyph glyph-name="uniE006" unicode="&#xe006;" horiz-adv-x="1037" 
d="M-55.5 152.5q-14.5 -42.5 0 -85t55.5 -67.5h509q105 0 193.5 50t140.5 136t52 188v352h-207v-327q0 -49 -24.5 -90t-65.5 -65t-89 -24h-509q-41 -25 -55.5 -67.5z" />
    <glyph glyph-name="uniE007" unicode="&#xe007;" horiz-adv-x="1015" 
d="M-55.5 152.5q-14.5 -42.5 0 -85t55.5 -67.5h400q94 0 166 43.5t116 120.5q45 -77 117 -120.5t166 -43.5h50v220h-50q-49 0 -90 24t-65 65t-24 90v293h-207v-293q0 -49 -24 -90t-65 -65t-90 -24h-400q-41 -25 -55.5 -67.5z" />
    <glyph glyph-name="uniE008" unicode="&#xe008;" horiz-adv-x="1345" 
d="M509 373q-190 -76 -287.5 -213t-90.5 -293q5 -136 69.5 -243t180 -167.5t268.5 -60.5h547v219h-547q-116 0 -192 50.5t-101 127.5q-36 113 19 215.5t208 171.5l667 313l8 222l-106 62.5t-228 130.5t-217 113t-194 33t-180 -77t-125 -173l-23 -52l190 -84l23 52
q27 72 91.5 109.5t136.5 1.5q31 -16 106 -55q239 -124 323 -164z" />
    <glyph glyph-name="uniE009" unicode="&#xe009;" horiz-adv-x="1428" 
d="M1250 512l8 203l-106 62.5t-228 130.5t-217 113t-194 33t-180 -77t-125 -173l-23 -52l190 -84l23 52q27 72 91.5 109.5t136.5 1.5q31 -16 106 -55q239 -124 323 -164l-546 -239q-190 -76 -287.5 -213t-90.5 -293q5 -136 69.5 -243t180 -167.5t268.5 -60.5h547v219h-547
q-116 0 -192 50.5t-101 127.5q-36 113 19 215.5t208 171.5l390 185l36 -175q21 -95 96 -142.5t168 -47.5h155v220h-149q-41 0 -77 18t-46 65l-30 142z" />
    <glyph glyph-name="uniE021" unicode="&#xe021;" horiz-adv-x="1735" 
d="M1383 50q89 50 141 136t52 188v1062h-207v-1037q0 -49 -24.5 -90t-65.5 -65t-89 -24h-662q-49 0 -90 24t-65 65t-24 90v327h-207v-352q0 -102 52 -188t140.5 -136t193.5 -50h662q104 0 193 50z" />
    <glyph glyph-name="uniE022" unicode="&#xe022;" horiz-adv-x="1818" 
d="M1355 43.5q72 43.5 117 120.5q45 -77 117 -120.5t165 -43.5h63v220h-63q-48 0 -89 24t-65 65t-24 90v1037h-207v-1037q0 -49 -24.5 -90t-65.5 -65t-89 -24h-662q-49 0 -90 24t-65 65t-24 90v327h-207v-352q0 -102 52 -188t140.5 -136t193.5 -50h662q93 0 165 43.5z" />
    <glyph glyph-name="uE024" unicode="&#xe024;" horiz-adv-x="873" 
d="M731 35q59 -35 127 -35h15v220h-15q-61 0 -113.5 31.5t-84 85.5t-31.5 118v237h-207v-646q0 -95 -47 -180.5t-127.5 -137.5t-173.5 -52h-80v-220h80q149 0 277 78t203 208t75 277v112q43 -61 102 -96zM636 -786l-150 3l-192 -219l-192 219l-150 -3l298 -345h88z" />
    <glyph glyph-name="uE025" unicode="&#xe025;" horiz-adv-x="727" 
d="M-55.5 152.5q-14.5 -42.5 0 -85t55.5 -67.5h199q105 0 193.5 50t140.5 136t52 188v352h-207v-327q0 -49 -24.5 -90t-65.5 -65t-89 -24h-199q-41 -25 -55.5 -67.5zM247.5 1226.5q44.5 66.5 105.5 66.5q63 0 91 -39.5t28 -88.5q0 -37 -35.5 -62.5t-87.5 -25.5h-176
q30 83 74.5 149.5zM54 1106q-3 -11 -6 -27q-1 -1 -1 -2h-55v-118h357q68 0 123 27.5t86.5 74.5t31.5 104q0 100 -65 173t-172 73q-98 0 -180 -110v313h-119v-508z" />
    <glyph glyph-name="uE026" unicode="&#xe026;" horiz-adv-x="814" 
d="M-55.5 152.5q-14.5 -42.5 0 -85t55.5 -67.5h199q93 0 165.5 43.5t116.5 120.5q45 -77 117 -120.5t166 -43.5h50v220h-50q-49 0 -90 24t-65 65t-24 90v293h-207v-293q0 -49 -24.5 -90t-65.5 -65t-89 -24h-199q-41 -25 -55.5 -67.5zM247.5 1226.5q44.5 66.5 105.5 66.5
q63 0 91 -39.5t28 -88.5q0 -37 -35.5 -62.5t-87.5 -25.5h-176q30 83 74.5 149.5zM54 1106q-3 -11 -6 -27q-1 -1 -1 -2h-55v-118h357q68 0 123 27.5t86.5 74.5t31.5 104q0 100 -65 173t-172 73q-98 0 -180 -110v313h-119v-508z" />
    <glyph glyph-name="uE027" unicode="&#xe027;" horiz-adv-x="1696" 
d="M1695 220h-940v-207h398q50 -2 77 -36.5t26 -83.5q-1 -105 -97.5 -161t-233.5 -56h-222q-114 0 -194 48.5t-120 130t-40 179.5v456h-207v-482q0 -150 68 -276.5t195 -201t298 -74.5h222q170 0 291 64t182 164t60 205q-1 69 -36 111h273v220zM588 1086l-150 3l-192 -219
l-192 219l-150 -3l298 -345h88z" />
    <glyph glyph-name="uE028" unicode="&#xe028;" horiz-adv-x="704" 
d="M-55.5 152.5q-14.5 -42.5 0 -85t55.5 -67.5h176q106 0 194.5 50t140 136t51.5 188v352h-207v-327q0 -49 -24 -90t-65 -65t-90 -24h-176q-41 -25 -55.5 -67.5zM46 -321q-35 35 -84 35q-50 0 -85 -35t-35 -84t35 -84t85 -35q49 0 84 35t35 84t-35 84zM383 -321
q-35 35 -85 35q-49 0 -84 -35t-35 -84t35 -84t84 -35q50 0 85 35t35 84t-35 84zM751 1321l-150 3l-192 -219l-192 219l-150 -3l298 -345h88z" />
    <glyph glyph-name="uE029" unicode="&#xe029;" horiz-adv-x="792" 
d="M-55.5 152.5q-14.5 -42.5 0 -85t55.5 -67.5h176q94 0 166 43.5t117 120.5q44 -77 116.5 -120.5t165.5 -43.5h51v220h-51q-48 0 -89 24t-65.5 65t-24.5 90v293h-207v-293q0 -49 -24 -90t-65 -65t-90 -24h-176q-41 -25 -55.5 -67.5zM46 -321q-35 35 -84 35q-50 0 -85 -35
t-35 -84t35 -84t85 -35q49 0 84 35t35 84t-35 84zM383 -321q-35 35 -85 35q-49 0 -84 -35t-35 -84t35 -84t84 -35q50 0 85 35t35 84t-35 84zM751 1288l-150 3l-192 -219l-192 219l-150 -3l298 -345h88z" />
    <glyph glyph-name="uniFEEA0654" unicode="&#xe030;" horiz-adv-x="1200" 
d="M958.5 51.5q77.5 -51.5 173.5 -51.5h68v220h-69q-56 0 -98.5 36.5t-50.5 92.5l-108 736l-205 -30l17 -122q-183 -6 -312.5 -76.5t-193 -191t-52.5 -274.5q7 -111 73.5 -187.5t172 -106.5t228 -4.5t236.5 108.5q43 -98 120.5 -149.5zM769 368q-105 -76 -204 -88.5
t-162 25.5t-68 102q-10 153 90 237.5t291 82.5zM286 1195l456 174l-42 110l-154 -59q-65 -3 -101 27.5t-36 83.5q0 44 28 80t73 37q31 0 56 -8.5t56 -24.5q6 -3 9 -5l28 113q-38 21 -71.5 32t-77.5 11q-64 0 -114 -34t-77.5 -88.5t-27.5 -112.5q0 -54 27 -101t73 -69
l-147 -56z" />
    <glyph glyph-name="uE060_uFBB5" unicode="&#xe032;" horiz-adv-x="840" 
d="M-55.5 152.5q-14.5 -42.5 0 -85t55.5 -67.5h312q105 0 193.5 50t140.5 136t52 188v352h-207v-327q0 -49 -24.5 -90t-65.5 -65t-89 -24h-312q-41 -25 -55.5 -67.5zM236 -321q-35 35 -84 35q-50 0 -85 -35t-35 -84t35 -84t85 -35q49 0 84 35t35 84t-35 84zM573 -321
q-35 35 -85 35q-49 0 -84 -35t-35 -84t35 -84t84 -35q50 0 85 35t35 84t-35 84z" />
    <glyph glyph-name="uE061_uFBB5" unicode="&#xe033;" horiz-adv-x="927" 
d="M-55.5 152.5q-14.5 -42.5 0 -85t55.5 -67.5h312q93 0 165 43.5t117 120.5q45 -77 117 -120.5t165 -43.5h51v220h-51q-48 0 -89 24t-65 65t-24 90v293h-207v-293q0 -49 -24.5 -90t-65.5 -65t-89 -24h-312q-41 -25 -55.5 -67.5zM236 -321q-35 35 -84 35q-50 0 -85 -35
t-35 -84t35 -84t85 -35q49 0 84 35t35 84t-35 84zM573 -321q-35 35 -85 35q-49 0 -84 -35t-35 -84t35 -84t84 -35q50 0 85 35t35 84t-35 84z" />
    <glyph glyph-name="uniE006_uFBB5" unicode="&#xe034;" horiz-adv-x="1037" 
d="M-55.5 152.5q-14.5 -42.5 0 -85t55.5 -67.5h509q105 0 193.5 50t140.5 136t52 188v352h-207v-327q0 -49 -24.5 -90t-65.5 -65t-89 -24h-509q-41 -25 -55.5 -67.5zM203 -321q-35 35 -84 35q-50 0 -85 -35t-35 -84t35 -84t85 -35q49 0 84 35t35 84t-35 84zM540 -321
q-35 35 -85 35q-49 0 -84 -35t-35 -84t35 -84t84 -35q50 0 85 35t35 84t-35 84z" />
    <glyph glyph-name="uniE007_uFBB5" unicode="&#xe035;" horiz-adv-x="1015" 
d="M-55.5 152.5q-14.5 -42.5 0 -85t55.5 -67.5h400q94 0 166 43.5t116 120.5q45 -77 117 -120.5t166 -43.5h50v220h-50q-49 0 -90 24t-65 65t-24 90v293h-207v-293q0 -49 -24 -90t-65 -65t-90 -24h-400q-41 -25 -55.5 -67.5zM203 -321q-35 35 -84 35q-50 0 -85 -35t-35 -84
t35 -84t85 -35q49 0 84 35t35 84t-35 84zM540 -321q-35 35 -85 35q-49 0 -84 -35t-35 -84t35 -84t84 -35q50 0 85 35t35 84t-35 84z" />
    <glyph glyph-name="uE060_uFBB9" unicode="&#xe036;" horiz-adv-x="840" 
d="M-55.5 152.5q-14.5 -42.5 0 -85t55.5 -67.5h312q105 0 193.5 50t140.5 136t52 188v352h-207v-327q0 -49 -24.5 -90t-65.5 -65t-89 -24h-312q-41 -25 -55.5 -67.5zM236 -267q-35 35 -84 35q-50 0 -85 -35t-35 -84t35 -84t85 -35q49 0 84 35t35 84t-35 84zM573 -267
q-35 35 -85 35q-49 0 -84 -35t-35 -84t35 -84t84 -35q50 0 85 35t35 84t-35 84zM404 -559q-35 35 -84 35t-84 -35t-35 -84q0 -50 35 -85t84 -35t84 35t35 85q0 49 -35 84z" />
    <glyph glyph-name="uE061_uFBB9" unicode="&#xe037;" horiz-adv-x="927" 
d="M-55.5 152.5q-14.5 -42.5 0 -85t55.5 -67.5h312q93 0 165 43.5t117 120.5q45 -77 117 -120.5t165 -43.5h51v220h-51q-48 0 -89 24t-65 65t-24 90v293h-207v-293q0 -49 -24.5 -90t-65.5 -65t-89 -24h-312q-41 -25 -55.5 -67.5zM236 -267q-35 35 -84 35q-50 0 -85 -35
t-35 -84t35 -84t85 -35q49 0 84 35t35 84t-35 84zM573 -267q-35 35 -85 35q-49 0 -84 -35t-35 -84t35 -84t84 -35q50 0 85 35t35 84t-35 84zM404 -559q-35 35 -84 35t-84 -35t-35 -84q0 -50 35 -85t84 -35t84 35t35 85q0 49 -35 84z" />
    <glyph glyph-name="uniE006_uFBB9" unicode="&#xe038;" horiz-adv-x="1037" 
d="M-55.5 152.5q-14.5 -42.5 0 -85t55.5 -67.5h509q105 0 193.5 50t140.5 136t52 188v352h-207v-327q0 -49 -24.5 -90t-65.5 -65t-89 -24h-509q-41 -25 -55.5 -67.5zM203 -267q-35 35 -84 35q-50 0 -85 -35t-35 -84t35 -84t85 -35q49 0 84 35t35 84t-35 84zM540 -267
q-35 35 -85 35q-49 0 -84 -35t-35 -84t35 -84t84 -35q50 0 85 35t35 84t-35 84zM371 -559q-35 35 -84 35t-84 -35t-35 -84q0 -50 35 -85t84 -35t84 35t35 85q0 49 -35 84z" />
    <glyph glyph-name="uniE007_uFBB9" unicode="&#xe039;" horiz-adv-x="1015" 
d="M-55.5 152.5q-14.5 -42.5 0 -85t55.5 -67.5h400q94 0 166 43.5t116 120.5q45 -77 117 -120.5t166 -43.5h50v220h-50q-49 0 -90 24t-65 65t-24 90v293h-207v-293q0 -49 -24 -90t-65 -65t-90 -24h-400q-41 -25 -55.5 -67.5zM203 -267q-35 35 -84 35q-50 0 -85 -35t-35 -84
t35 -84t85 -35q49 0 84 35t35 84t-35 84zM540 -267q-35 35 -85 35q-49 0 -84 -35t-35 -84t35 -84t84 -35q50 0 85 35t35 84t-35 84zM371 -559q-35 35 -84 35t-84 -35t-35 -84q0 -50 35 -85t84 -35t84 35t35 85q0 49 -35 84z" />
    <glyph glyph-name="uniE002_uFBB3" unicode="&#xe040;" horiz-adv-x="704" 
d="M-55.5 152.5q-14.5 -42.5 0 -85t55.5 -67.5h176q106 0 194.5 50t140 136t51.5 188v352h-207v-327q0 -49 -24 -90t-65 -65t-90 -24h-176q-41 -25 -55.5 -67.5zM262 -321q-35 35 -84 35t-84 -35t-35 -84t35 -84t84 -35t84 35t35 84t-35 84z" />
    <glyph glyph-name="uniE003_uFBB3" unicode="&#xe041;" horiz-adv-x="792" 
d="M-55.5 152.5q-14.5 -42.5 0 -85t55.5 -67.5h176q94 0 166 43.5t117 120.5q44 -77 116.5 -120.5t165.5 -43.5h51v220h-51q-48 0 -89 24t-65.5 65t-24.5 90v293h-207v-293q0 -49 -24 -90t-65 -65t-90 -24h-176q-41 -25 -55.5 -67.5zM262 -321q-35 35 -84 35t-84 -35
t-35 -84t35 -84t84 -35t84 35t35 84t-35 84z" />
    <glyph glyph-name="uniFBE8FBB4" unicode="&#xe042;" horiz-adv-x="727" 
d="M-55.5 152.5q-14.5 -42.5 0 -85t55.5 -67.5h199q105 0 193.5 50t140.5 136t52 188v352h-207v-327q0 -49 -24.5 -90t-65.5 -65t-89 -24h-199q-41 -25 -55.5 -67.5zM241 1180q-35 35 -84 35q-50 0 -85 -35t-35 -84t35 -84t85 -35q49 0 84 35t35 84t-35 84zM578 1180
q-35 35 -85 35q-49 0 -84 -35t-35 -84t35 -84t84 -35q50 0 85 35t35 84t-35 84z" />
    <glyph glyph-name="uniFBE9FBB4" unicode="&#xe043;" horiz-adv-x="814" 
d="M-55.5 152.5q-14.5 -42.5 0 -85t55.5 -67.5h199q93 0 165.5 43.5t116.5 120.5q45 -77 117 -120.5t166 -43.5h50v220h-50q-49 0 -90 24t-65 65t-24 90v293h-207v-293q0 -49 -24.5 -90t-65.5 -65t-89 -24h-199q-41 -25 -55.5 -67.5zM241 1147q-35 35 -84 35q-50 0 -85 -35
t-35 -84t35 -84t85 -35q49 0 84 35t35 84t-35 84zM578 1147q-35 35 -85 35q-49 0 -84 -35t-35 -84t35 -84t84 -35q50 0 85 35t35 84t-35 84z" />
    <glyph glyph-name="uniFBE8FBB6" unicode="&#xe044;" horiz-adv-x="727" 
d="M-55.5 152.5q-14.5 -42.5 0 -85t55.5 -67.5h199q105 0 193.5 50t140.5 136t52 188v352h-207v-327q0 -49 -24.5 -90t-65.5 -65t-89 -24h-199q-41 -25 -55.5 -67.5zM241 1180q-35 35 -84 35q-50 0 -85 -35t-35 -84t35 -84t85 -35q49 0 84 35t35 84t-35 84zM578 1180
q-35 35 -85 35q-49 0 -84 -35t-35 -84t35 -84t84 -35q50 0 85 35t35 84t-35 84zM409 1473q-35 35 -84 35t-84 -35t-35 -85q0 -49 35 -84t84 -35t84 35t35 84q0 50 -35 85z" />
    <glyph glyph-name="uniFBE9FBB6" unicode="&#xe045;" horiz-adv-x="814" 
d="M-55.5 152.5q-14.5 -42.5 0 -85t55.5 -67.5h199q93 0 165.5 43.5t116.5 120.5q45 -77 117 -120.5t166 -43.5h50v220h-50q-49 0 -90 24t-65 65t-24 90v293h-207v-293q0 -49 -24.5 -90t-65.5 -65t-89 -24h-199q-41 -25 -55.5 -67.5zM241 1147q-35 35 -84 35q-50 0 -85 -35
t-35 -84t35 -84t85 -35q49 0 84 35t35 84t-35 84zM578 1147q-35 35 -85 35q-49 0 -84 -35t-35 -84t35 -84t84 -35q50 0 85 35t35 84t-35 84zM409 1440q-35 35 -84 35t-84 -35t-35 -85q0 -49 35 -84t84 -35t84 35t35 84q0 50 -35 85z" />
    <glyph glyph-name="uE046" unicode="&#xe046;" horiz-adv-x="840" 
d="M-55.5 152.5q-14.5 -42.5 0 -85t55.5 -67.5h312q105 0 193.5 50t140.5 136t52 188v352h-207v-327q0 -49 -24.5 -90t-65.5 -65t-89 -24h-312q-41 -25 -55.5 -67.5zM236 -321q-35 35 -84 35q-50 0 -85 -35t-35 -84t35 -84t85 -35q49 0 84 35t35 84t-35 84zM573 -321
q-35 35 -85 35q-49 0 -84 -35t-35 -84t35 -84t84 -35q50 0 85 35t35 84t-35 84zM836 1321l-150 3l-192 -219l-192 219l-150 -3l298 -345h88z" />
    <glyph glyph-name="uE047" unicode="&#xe047;" horiz-adv-x="1037" 
d="M-55.5 152.5q-14.5 -42.5 0 -85t55.5 -67.5h509q105 0 193.5 50t140.5 136t52 188v352h-207v-327q0 -49 -24.5 -90t-65.5 -65t-89 -24h-509q-41 -25 -55.5 -67.5zM203 -321q-35 35 -84 35q-50 0 -85 -35t-35 -84t35 -84t85 -35q49 0 84 35t35 84t-35 84zM540 -321
q-35 35 -85 35q-49 0 -84 -35t-35 -84t35 -84t84 -35q50 0 85 35t35 84t-35 84zM1033 1313l-150 3l-192 -219l-192 219l-150 -3l298 -345h88z" />
    <glyph glyph-name="uniE054" unicode="&#xe054;" horiz-adv-x="0" 
d="M50.5 37q95.5 34 129.5 85.5t34 111.5v144h-265v60q0 45 30.5 76t75.5 31h150v112h-150q-57 0 -107.5 -29.5t-80.5 -79.5t-30 -110v-91q-1 -30 24 -55t55 -25h186l1 -33q0 -118 -317 -109v-119q169 -3 264.5 31z" />
    <glyph glyph-name="uE055" unicode="&#xe055;" horiz-adv-x="0" 
d="M11.5 1630.5q43.5 64.5 104.5 64.5q63 0 91 -39t28 -88q0 -38 -35.5 -63t-86.5 -25h-180q35 86 78.5 150.5zM-217.5 1577q-17.5 35 -17.5 69v60h-118v-60q0 -65 32.5 -131.5t85.5 -109.5t111 -43h237q66 0 121 27t87 74t32 105q0 100 -65.5 172.5t-172.5 72.5
q-109 0 -178.5 -89.5t-112.5 -199.5q-24 18 -41.5 53z" />
    <glyph glyph-name="farsiyeharab.fina.1" unicode="&#xe056;" horiz-adv-x="1617" 
d="M1617 220h-862v-207h404q50 -2 77 -36.5t26 -83.5q-1 -105 -97.5 -161t-233.5 -56h-228q-114 0 -194 48.5t-120 130t-40 179.5v456h-207v-482q0 -150 68 -276.5t195 -201t298 -74.5h228q169 0 290.5 64t182.5 164t60 205q-1 69 -37 111h190v220z" />
    <glyph glyph-name="yeharab.fina.1" unicode="&#xe057;" horiz-adv-x="1616" 
d="M1617 220h-862v-207h404q50 -2 77 -36.5t26 -83.5q-1 -105 -97.5 -161t-233.5 -56h-228q-114 0 -194 48.5t-120 130t-40 179.5v456h-207v-482q0 -150 68 -276.5t195 -201t298 -74.5h228q169 0 290.5 64t182.5 164t60 205q-1 69 -37 111h190v220zM705 -781q-35 35 -84 35
q-50 0 -85 -35t-35 -84t35 -84t85 -35q49 0 84 35t35 84t-35 84zM1042 -781q-35 35 -85 35q-49 0 -84 -35t-35 -84t35 -84t84 -35q50 0 85 35t35 84t-35 84z" />
    <glyph glyph-name="farsiyeharab_u0654" unicode="&#xe058;" horiz-adv-x="1616" 
d="M1617 220h-862v-207h404q50 -2 77 -36.5t26 -83.5q-1 -105 -97.5 -161t-233.5 -56h-228q-114 0 -194 48.5t-120 130t-40 179.5v456h-207v-482q0 -150 68 -276.5t195 -201t298 -74.5h228q169 0 290.5 64t182.5 164t60 205q-1 69 -37 111h190v220zM138 733l456 174l-42 110
l-154 -59q-65 -3 -101 27.5t-36 83.5q0 44 28 80t73 37q31 0 56 -8.5t56 -24.5q6 -3 9 -5l28 113q-38 21 -71.5 32t-77.5 11q-64 0 -114 -34t-77.5 -88.5t-27.5 -112.5q0 -54 27 -101t73 -69l-147 -56z" />
    <glyph glyph-name="uE059" unicode="&#xe059;" horiz-adv-x="1015" 
d="M-55.5 152.5q-14.5 -42.5 0 -85t55.5 -67.5h400q94 0 166 43.5t116 120.5q45 -77 117 -120.5t166 -43.5h50v220h-50q-49 0 -90 24t-65 65t-24 90v293h-207v-293q0 -49 -24 -90t-65 -65t-90 -24h-400q-41 -25 -55.5 -67.5zM203 -321q-35 35 -84 35q-50 0 -85 -35t-35 -84
t35 -84t85 -35q49 0 84 35t35 84t-35 84zM540 -321q-35 35 -85 35q-49 0 -84 -35t-35 -84t35 -84t84 -35q50 0 85 35t35 84t-35 84zM924 1288l-150 3l-192 -219l-192 219l-150 -3l298 -345h88z" />
    <glyph glyph-name="uE060" unicode="&#xe060;" horiz-adv-x="840" 
d="M-55.5 152.5q-14.5 -42.5 0 -85t55.5 -67.5h312q105 0 193.5 50t140.5 136t52 188v352h-207v-327q0 -49 -24.5 -90t-65.5 -65t-89 -24h-312q-41 -25 -55.5 -67.5z" />
    <glyph glyph-name="uE061" unicode="&#xe061;" horiz-adv-x="927" 
d="M-55.5 152.5q-14.5 -42.5 0 -85t55.5 -67.5h312q93 0 165 43.5t117 120.5q45 -77 117 -120.5t165 -43.5h51v220h-51q-48 0 -89 24t-65 65t-24 90v293h-207v-293q0 -49 -24.5 -90t-65.5 -65t-89 -24h-312q-41 -25 -55.5 -67.5z" />
    <glyph glyph-name="uE062" unicode="&#xe062;" horiz-adv-x="927" 
d="M-55.5 152.5q-14.5 -42.5 0 -85t55.5 -67.5h312q93 0 165 43.5t117 120.5q45 -77 117 -120.5t165 -43.5h51v220h-51q-48 0 -89 24t-65 65t-24 90v293h-207v-293q0 -49 -24.5 -90t-65.5 -65t-89 -24h-312q-41 -25 -55.5 -67.5zM236 -321q-35 35 -84 35q-50 0 -85 -35
t-35 -84t35 -84t85 -35q49 0 84 35t35 84t-35 84zM573 -321q-35 35 -85 35q-49 0 -84 -35t-35 -84t35 -84t84 -35q50 0 85 35t35 84t-35 84zM836 1288l-150 3l-192 -219l-192 219l-150 -3l298 -345h88z" />
    <glyph glyph-name="uE066" unicode="&#xe066;" horiz-adv-x="1462" 
d="M620 54l-251 916q-12 43 9 82.5t63 55.5q44 16 87.5 -4.5t59.5 -64.5l159 -437l186 -18l392 652l-178 106l-278 -465l-86 233q-30 80 -94 134t-146.5 71t-162.5 -9q-80 -27 -136 -88t-76.5 -141t2.5 -161l249 -916z" />
    <glyph glyph-name="uE067" unicode="&#xe067;" horiz-adv-x="1261" 
d="M631.5 12.5q194.5 6.5 379.5 68.5l98 32l-66 196l-98 -32q-152 -51 -303.5 -57t-280.5 32q26 271 186.5 525t286.5 397q2 3 3 3l-154 139l-1 -1q-143 -161 -325 -452.5t-205 -614.5l116 -185q169 -57 363.5 -50.5z" />
    <glyph glyph-name="uniE069" unicode="&#xe069;" horiz-adv-x="653" 
d="M-55.5 152.5q-14.5 -42.5 0 -85t55.5 -67.5h44q94 0 166 43.5t116 120.5q45 -77 117 -120.5t166 -43.5h44v220h-44q-49 0 -90 24t-65 65t-24 90v773h-207v-773q0 -49 -24 -90t-65 -65t-90 -24h-44q-41 -25 -55.5 -67.5z" />
    <glyph glyph-name="uE070" unicode="&#xe070;" horiz-adv-x="806" 
d="M-55.5 152.5q-14.5 -42.5 0 -85t55.5 -67.5h278q105 0 193.5 50t140.5 136t52 188v352h-207v-327q0 -49 -24 -90t-65 -65t-90 -24h-278q-41 -25 -55.5 -67.5zM-22 -267q-35 35 -84 35q-50 0 -85 -35t-35 -84t35 -84t85 -35q49 0 84 35t35 84t-35 84zM315 -267
q-35 35 -85 35q-49 0 -84 -35t-35 -84t35 -84t84 -35q50 0 85 35t35 84t-35 84zM146 -559q-35 35 -84 35t-84 -35t-35 -84q0 -50 35 -85t84 -35t84 35t35 85q0 49 -35 84z" />
    <glyph glyph-name="uE071" unicode="&#xe071;" horiz-adv-x="893" 
d="M-55.5 152.5q-14.5 -42.5 0 -85t55.5 -67.5h278q94 0 166 43.5t117 120.5q44 -77 116.5 -120.5t165.5 -43.5h51v220h-51q-49 0 -90 24t-65 65t-24 90v293h-207v-293q0 -49 -24 -90t-65 -65t-90 -24h-278q-41 -25 -55.5 -67.5zM-22 -267q-35 35 -84 35q-50 0 -85 -35
t-35 -84t35 -84t85 -35q49 0 84 35t35 84t-35 84zM315 -267q-35 35 -85 35q-49 0 -84 -35t-35 -84t35 -84t84 -35q50 0 85 35t35 84t-35 84zM146 -559q-35 35 -84 35t-84 -35t-35 -84q0 -50 35 -85t84 -35t84 35t35 85q0 49 -35 84z" />
    <glyph glyph-name="uE072" unicode="&#xe072;" horiz-adv-x="806" 
d="M-55.5 152.5q-14.5 -42.5 0 -85t55.5 -67.5h278q105 0 193.5 50t140.5 136t52 188v352h-207v-327q0 -49 -24 -90t-65 -65t-90 -24h-278q-41 -25 -55.5 -67.5zM-22 -321q-35 35 -84 35q-50 0 -85 -35t-35 -84t35 -84t85 -35q49 0 84 35t35 84t-35 84zM315 -321
q-35 35 -85 35q-49 0 -84 -35t-35 -84t35 -84t84 -35q50 0 85 35t35 84t-35 84z" />
    <glyph glyph-name="uE073" unicode="&#xe073;" horiz-adv-x="893" 
d="M-55.5 152.5q-14.5 -42.5 0 -85t55.5 -67.5h278q94 0 166 43.5t117 120.5q44 -77 116.5 -120.5t165.5 -43.5h51v220h-51q-49 0 -90 24t-65 65t-24 90v293h-207v-293q0 -49 -24 -90t-65 -65t-90 -24h-278q-41 -25 -55.5 -67.5zM-22 -321q-35 35 -84 35q-50 0 -85 -35
t-35 -84t35 -84t85 -35q49 0 84 35t35 84t-35 84zM315 -321q-35 35 -85 35q-49 0 -84 -35t-35 -84t35 -84t84 -35q50 0 85 35t35 84t-35 84z" />
    <glyph glyph-name="uE074" unicode="&#xe074;" horiz-adv-x="806" 
d="M-55.5 152.5q-14.5 -42.5 0 -85t55.5 -67.5h278q105 0 193.5 50t140.5 136t52 188v352h-207v-327q0 -49 -24 -90t-65 -65t-90 -24h-278q-41 -25 -55.5 -67.5zM-22 -321q-35 35 -84 35q-50 0 -85 -35t-35 -84t35 -84t85 -35q49 0 84 35t35 84t-35 84zM315 -321
q-35 35 -85 35q-49 0 -84 -35t-35 -84t35 -84t84 -35q50 0 85 35t35 84t-35 84zM803 1345l-150 3l-192 -219l-192 219l-150 -3l298 -345h88z" />
    <glyph glyph-name="uE075" unicode="&#xe075;" horiz-adv-x="893" 
d="M-55.5 152.5q-14.5 -42.5 0 -85t55.5 -67.5h278q94 0 166 43.5t117 120.5q44 -77 116.5 -120.5t165.5 -43.5h51v220h-51q-49 0 -90 24t-65 65t-24 90v293h-207v-293q0 -49 -24 -90t-65 -65t-90 -24h-278q-41 -25 -55.5 -67.5zM-22 -321q-35 35 -84 35q-50 0 -85 -35
t-35 -84t35 -84t85 -35q49 0 84 35t35 84t-35 84zM315 -321q-35 35 -85 35q-49 0 -84 -35t-35 -84t35 -84t84 -35q50 0 85 35t35 84t-35 84zM803 1313l-150 3l-192 -219l-192 219l-150 -3l298 -345h88z" />
    <glyph glyph-name="uE076" unicode="&#xe076;" horiz-adv-x="806" 
d="M-55.5 152.5q-14.5 -42.5 0 -85t55.5 -67.5h278q105 0 193.5 50t140.5 136t52 188v352h-207v-327q0 -49 -24 -90t-65 -65t-90 -24h-278q-41 -25 -55.5 -67.5z" />
    <glyph glyph-name="uE077" unicode="&#xe077;" horiz-adv-x="893" 
d="M-55.5 152.5q-14.5 -42.5 0 -85t55.5 -67.5h278q94 0 166 43.5t117 120.5q44 -77 116.5 -120.5t165.5 -43.5h51v220h-51q-49 0 -90 24t-65 65t-24 90v293h-207v-293q0 -49 -24 -90t-65 -65t-90 -24h-278q-41 -25 -55.5 -67.5z" />
    <glyph glyph-name="uE078" unicode="&#xe078;" horiz-adv-x="1820" 
d="M1498.5 52.5q84.5 52.5 134 160t49.5 266.5q0 122 -56 218t-151 148.5t-207 52.5q-110 1 -206 -52.5t-152.5 -146.5t-55.5 -204q0 -80 38.5 -152t109.5 -123h-474q-49 0 -90 24t-65 65t-24 90v310h-207v-335q0 -102 52 -188t140.5 -136t193.5 -50h781q105 0 189.5 52.5z
M1113.5 339q-52.5 70 -52.5 158q2 86 62 140t145 55q53 0 100 -23t77 -71t30 -119q0 -89 -35.5 -169.5t-128.5 -88.5q-145 48 -197.5 118z" />
    <glyph glyph-name="uE079" unicode="&#xe079;" horiz-adv-x="1110" 
d="M409.5 339q-52.5 70 -52.5 158q3 86 63 140t144 55q53 0 100.5 -23t77 -71t29.5 -119q0 -89 -35.5 -169.5t-128.5 -88.5q-145 48 -197.5 118zM-55.5 152.5q-14.5 -42.5 0 -85t55.5 -67.5h599q107 0 192.5 51.5t136.5 159t51 268.5q0 122 -56 218t-151 148.5t-208 52.5
q-110 1 -205.5 -52.5t-152 -146.5t-56.5 -204q0 -79 38.5 -151.5t109.5 -123.5h-298q-41 -25 -55.5 -67.5z" />
    <glyph glyph-name="uE080" unicode="&#xe080;" horiz-adv-x="862" 
d="M165 -544q150 0 277.5 78.5t202.5 209.5t75 282v666h-207v-646q0 -95 -47 -180.5t-127 -137.5t-174 -52h-165v-220h165z" />
    <glyph glyph-name="uE081" unicode="&#xe081;" horiz-adv-x="965" 
d="M165 -544q150 0 277.5 78.5t202.5 209.5t75 282v107q44 -62 105 -97.5t131 -35.5h8v220h-8q-64 0 -118 31.5t-86 85.5t-32 118v237h-207v-646q0 -95 -47 -180.5t-127 -137.5t-174 -52h-165v-220h165z" />
    <glyph glyph-name="uE082" unicode="&#xe082;" horiz-adv-x="862" 
d="M165 -544q150 0 277.5 78.5t202.5 209.5t75 282v666h-207v-646q0 -95 -47 -180.5t-127 -137.5t-174 -52h-165v-220h165zM701 1147q-35 35 -84 35t-84 -35t-35 -84t35 -84t84 -35t84 35t35 84t-35 84z" />
    <glyph glyph-name="uE083" unicode="&#xe083;" horiz-adv-x="965" 
d="M165 -544q150 0 277.5 78.5t202.5 209.5t75 282v107q44 -62 105 -97.5t131 -35.5h8v220h-8q-64 0 -118 31.5t-86 85.5t-32 118v237h-207v-646q0 -95 -47 -180.5t-127 -137.5t-174 -52h-165v-220h165zM701 1147q-35 35 -84 35t-84 -35t-35 -84t35 -84t84 -35t84 35t35 84
t-35 84z" />
    <glyph glyph-name="uE084" unicode="&#xe084;" horiz-adv-x="862" 
d="M165 -544q150 0 277.5 78.5t202.5 209.5t75 282v666h-207v-646q0 -95 -47 -180.5t-127 -137.5t-174 -52h-165v-220h165zM533 1147q-35 35 -84 35q-50 0 -85 -35t-35 -84t35 -84t85 -35q49 0 84 35t35 84t-35 84zM870 1147q-35 35 -85 35q-49 0 -84 -35t-35 -84t35 -84
t84 -35q50 0 85 35t35 84t-35 84zM701 1440q-35 35 -84 35t-84 -35t-35 -85q0 -49 35 -84t84 -35t84 35t35 84q0 50 -35 85z" />
    <glyph glyph-name="uE085" unicode="&#xe085;" horiz-adv-x="965" 
d="M165 -544q150 0 277.5 78.5t202.5 209.5t75 282v107q44 -62 105 -97.5t131 -35.5h8v220h-8q-64 0 -118 31.5t-86 85.5t-32 118v237h-207v-646q0 -95 -47 -180.5t-127 -137.5t-174 -52h-165v-220h165zM533 1147q-35 35 -84 35q-50 0 -85 -35t-35 -84t35 -84t85 -35
q49 0 84 35t35 84t-35 84zM870 1147q-35 35 -85 35q-49 0 -84 -35t-35 -84t35 -84t84 -35q50 0 85 35t35 84t-35 84zM701 1440q-35 35 -84 35t-84 -35t-35 -85q0 -49 35 -84t84 -35t84 35t35 84q0 50 -35 85z" />
    <glyph glyph-name="uE086" unicode="&#xe086;" horiz-adv-x="862" 
d="M165 -544q150 0 277.5 78.5t202.5 209.5t75 282v666h-207v-646q0 -95 -47 -180.5t-127 -137.5t-174 -52h-165v-220h165zM573.5 1230.5q44.5 66.5 105.5 66.5q63 0 91 -39.5t28 -88.5q0 -37 -35.5 -62.5t-87.5 -25.5h-176q30 83 74.5 149.5zM380 1110q-3 -11 -6 -27
q-1 -1 -1 -2h-55v-118h357q68 0 123 27.5t86.5 74.5t31.5 104q0 100 -65 173t-172 73q-98 0 -180 -110v313h-119v-508z" />
    <glyph glyph-name="uE087" unicode="&#xe087;" horiz-adv-x="965" 
d="M165 -544q150 0 277.5 78.5t202.5 209.5t75 282v107q44 -62 105 -97.5t131 -35.5h8v220h-8q-64 0 -118 31.5t-86 85.5t-32 118v237h-207v-646q0 -95 -47 -180.5t-127 -137.5t-174 -52h-165v-220h165zM573.5 1230.5q44.5 66.5 105.5 66.5q63 0 91 -39.5t28 -88.5
q0 -37 -35.5 -62.5t-87.5 -25.5h-176q30 83 74.5 149.5zM380 1110q-3 -11 -6 -27q-1 -1 -1 -2h-55v-118h357q68 0 123 27.5t86.5 74.5t31.5 104q0 100 -65 173t-172 73q-98 0 -180 -110v313h-119v-508z" />
    <glyph glyph-name="uE088" unicode="&#xe088;" horiz-adv-x="862" 
d="M165 -544q150 0 277.5 78.5t202.5 209.5t75 282v666h-207v-646q0 -95 -47 -180.5t-127 -137.5t-174 -52h-165v-220h165zM706 -786l-150 3l-192 -219l-192 219l-150 -3l298 -345h88z" />
    <glyph glyph-name="uE089" unicode="&#xe089;" horiz-adv-x="965" 
d="M165 -544q150 0 277.5 78.5t202.5 209.5t75 282v107q44 -62 105 -97.5t131 -35.5h8v220h-8q-64 0 -118 31.5t-86 85.5t-32 118v237h-207v-646q0 -95 -47 -180.5t-127 -137.5t-174 -52h-165v-220h165zM706 -786l-150 3l-192 -219l-192 219l-150 -3l298 -345h88z" />
    <glyph glyph-name="uE090" unicode="&#xe090;" horiz-adv-x="1609" 
d="M807 -544q171 0 301 76.5t200 204.5t71 279v79q34 -44 80 -69.5t99 -25.5h51v220h-51q-48 0 -89.5 24t-65.5 65t-24 89v1038h-207v-1391q0 -98 -42 -182.5t-125 -135.5t-198 -51h-93q-115 0 -197.5 51t-125 135.5t-42.5 182.5v434h-207v-460q0 -151 70 -280t200.5 -206
t301.5 -77h93zM1616 2052l-150 3l-192 -219l-192 219l-150 -3l298 -345h88z" />
    <glyph glyph-name="uE091" unicode="&#xe091;" horiz-adv-x="659" 
d="M-55.5 152.5q-14.5 -42.5 0 -85t55.5 -67.5h103q105 0 193.5 52t140.5 140.5t52 193.5v1050h-207v-1037q0 -49 -24 -90t-65.5 -65t-89.5 -24h-103q-41 -25 -55.5 -67.5zM728 2052l-150 3l-192 -219l-192 219l-150 -3l298 -345h88z" />
    <glyph glyph-name="uE092" unicode="&#xe092;" horiz-adv-x="719" 
d="M-55.5 152.5q-14.5 -42.5 0 -85t55.5 -67.5h103q93 0 165.5 43.5t116.5 120.5q45 -77 117 -120.5t166 -43.5h50v220h-50q-49 0 -90 24t-65 65t-24 90v1037h-207v-1037q0 -49 -24 -90t-65.5 -65t-89.5 -24h-103q-41 -25 -55.5 -67.5zM728 2052l-150 3l-192 -219l-192 219
l-150 -3l298 -345h88z" />
    <glyph glyph-name="uniE094" unicode="&#xe094;" horiz-adv-x="0" 
d="M118.5 248q-60.5 31 -155.5 6v30q0 46 29 80t74 41l102 15l-21 154l-62 -11q-121 -23 -196.5 -109.5t-77.5 -196.5v-107q0 -65 51 -110t130 -45t133 43.5t54 107.5q0 71 -60.5 102z" />
    <glyph glyph-name="uE098" unicode="&#xe098;" horiz-adv-x="2171" 
d="M1715.5 38.5q74.5 38.5 122.5 103.5q47 -65 121.5 -103.5t160.5 -38.5h51v220h-51q-75 0 -127 46.5t-52 119.5q0 105 -52 193.5t-140.5 140.5t-193.5 52h-515l435 532l-160 132l-574 -702l80 -169h734q49 0 90 -24t65 -65t24 -90q0 -73 -51.5 -119.5t-127.5 -46.5h-1017
q-75 0 -127 46.5t-52 119.5v314h-207v-301q0 -108 52 -200t140.5 -145.5t193.5 -53.5h1017q86 0 160.5 38.5z" />
    <glyph glyph-name="uE099" unicode="&#xe099;" horiz-adv-x="1518" 
d="M-55.5 152.5q-14.5 -42.5 0 -85t55.5 -67.5h980q105 0 193.5 52t140.5 140.5t52 193.5t-52 193.5t-140.5 140.5t-193.5 52h-516l435 532l-160 132l-573 -702l79 -169h735q49 0 90 -24t65 -65t24 -90q0 -73 -52 -119.5t-127 -46.5h-980q-41 -25 -55.5 -67.5z" />
    <glyph glyph-name="uE0A0" unicode="&#xe0a0;" horiz-adv-x="1596" 
d="M-55.5 152.5q-14.5 -42.5 0 -85t55.5 -67.5h980q86 0 160.5 38.5t121.5 103.5q48 -65 122 -103.5t161 -38.5h50v220h-50q-76 0 -127.5 46.5t-51.5 119.5q0 105 -52 193.5t-140.5 140.5t-193.5 52h-516l435 532l-160 132l-573 -702l79 -169h735q49 0 90 -24t65 -65t24 -90
q0 -73 -52 -119.5t-127 -46.5h-980q-41 -25 -55.5 -67.5z" />
    <glyph glyph-name="uE100" unicode="&#xe100;" horiz-adv-x="1820" 
d="M1498.5 52.5q84.5 52.5 134 160t49.5 266.5q0 122 -56 218t-151 148.5t-207 52.5q-110 1 -206 -52.5t-152.5 -146.5t-55.5 -204q0 -80 38.5 -152t109.5 -123h-474q-49 0 -90 24t-65 65t-24 90v310h-207v-335q0 -102 52 -188t140.5 -136t193.5 -50h781q105 0 189.5 52.5z
M1113.5 339q-52.5 70 -52.5 158q2 86 62 140t145 55q53 0 100 -23t77 -71t30 -119q0 -89 -35.5 -169.5t-128.5 -88.5q-145 48 -197.5 118zM1352 1312q-35 35 -84 35t-84 -35t-35 -84t35 -84t84 -35t84 35t35 84t-35 84z" />
    <glyph glyph-name="uE101" unicode="&#xe101;" horiz-adv-x="1110" 
d="M409.5 339q-52.5 70 -52.5 158q3 86 63 140t144 55q53 0 100.5 -23t77 -71t29.5 -119q0 -89 -35.5 -169.5t-128.5 -88.5q-145 48 -197.5 118zM-55.5 152.5q-14.5 -42.5 0 -85t55.5 -67.5h599q107 0 192.5 51.5t136.5 159t51 268.5q0 122 -56 218t-151 148.5t-208 52.5
q-110 1 -205.5 -52.5t-152 -146.5t-56.5 -204q0 -79 38.5 -151.5t109.5 -123.5h-298q-41 -25 -55.5 -67.5zM648 1312q-35 35 -84 35t-84 -35t-35 -84t35 -84t84 -35t84 35t35 84t-35 84z" />
    <glyph glyph-name="uE102" unicode="&#xe102;" horiz-adv-x="1110" 
d="M409.5 339q-52.5 70 -52.5 158q3 86 63 140t144 55q53 0 100.5 -23t77 -71t29.5 -119q0 -89 -35.5 -169.5t-128.5 -88.5q-145 48 -197.5 118zM-55.5 152.5q-14.5 -42.5 0 -85t55.5 -67.5h599q107 0 192.5 51.5t136.5 159t51 268.5q0 122 -56 218t-151 148.5t-208 52.5
q-110 1 -205.5 -52.5t-152 -146.5t-56.5 -204q0 -79 38.5 -151.5t109.5 -123.5h-298q-41 -25 -55.5 -67.5zM480 1312q-35 35 -84 35q-50 0 -85 -35t-35 -84t35 -84t85 -35q49 0 84 35t35 84t-35 84zM817 1312q-35 35 -85 35q-49 0 -84 -35t-35 -84t35 -84t84 -35q50 0 85 35
t35 84t-35 84z" />
    <glyph glyph-name="uE103" unicode="&#xe103;" horiz-adv-x="1820" 
d="M1498.5 52.5q84.5 52.5 134 160t49.5 266.5q0 122 -56 218t-151 148.5t-207 52.5q-110 1 -206 -52.5t-152.5 -146.5t-55.5 -204q0 -80 38.5 -152t109.5 -123h-474q-49 0 -90 24t-65 65t-24 90v310h-207v-335q0 -102 52 -188t140.5 -136t193.5 -50h781q105 0 189.5 52.5z
M1113.5 339q-52.5 70 -52.5 158q2 86 62 140t145 55q53 0 100 -23t77 -71t30 -119q0 -89 -35.5 -169.5t-128.5 -88.5q-145 48 -197.5 118zM1188 1312q-35 35 -84 35q-50 0 -85 -35t-35 -84t35 -84t85 -35q49 0 84 35t35 84t-35 84zM1525 1312q-35 35 -85 35q-49 0 -84 -35
t-35 -84t35 -84t84 -35q50 0 85 35t35 84t-35 84zM1356 1605q-35 35 -84 35t-84 -35t-35 -85q0 -49 35 -84t84 -35t84 35t35 84q0 50 -35 85z" />
    <glyph glyph-name="uE104" unicode="&#xe104;" horiz-adv-x="1110" 
d="M409.5 339q-52.5 70 -52.5 158q3 86 63 140t144 55q53 0 100.5 -23t77 -71t29.5 -119q0 -89 -35.5 -169.5t-128.5 -88.5q-145 48 -197.5 118zM-55.5 152.5q-14.5 -42.5 0 -85t55.5 -67.5h599q107 0 192.5 51.5t136.5 159t51 268.5q0 122 -56 218t-151 148.5t-208 52.5
q-110 1 -205.5 -52.5t-152 -146.5t-56.5 -204q0 -79 38.5 -151.5t109.5 -123.5h-298q-41 -25 -55.5 -67.5zM480 1312q-35 35 -84 35q-50 0 -85 -35t-35 -84t35 -84t85 -35q49 0 84 35t35 84t-35 84zM817 1312q-35 35 -85 35q-49 0 -84 -35t-35 -84t35 -84t84 -35q50 0 85 35
t35 84t-35 84zM648 1605q-35 35 -84 35t-84 -35t-35 -85q0 -49 35 -84t84 -35t84 35t35 84q0 50 -35 85z" />
    <glyph glyph-name="uE105" unicode="&#xe105;" horiz-adv-x="0" 
d="M80 -135q17 33 6 69t-44 53t-69 6t-53 -44t-6 -69t44 -53t69 -6t53 44z" />
    <glyph glyph-name="uE106" unicode="&#xe106;" horiz-adv-x="1617" 
d="M1617 220h-862v-207h404q50 -2 77 -36.5t26 -83.5q-1 -105 -97.5 -161t-233.5 -56h-228q-114 0 -194 48.5t-120 130t-40 179.5v456h-207v-482q0 -150 68 -276.5t195 -201t298 -74.5h228q169 0 290.5 64t182.5 164t60 205q-1 69 -37 111h190v220zM588 1112l-150 3
l-192 -219l-192 219l-150 -3l298 -345h88z" />
    <glyph glyph-name="uE107" unicode="&#xe107;" horiz-adv-x="1675" 
d="M1337 783.5q93 -56.5 144.5 -158.5t51.5 -233v-377q0 -157 -74.5 -284.5t-202 -201t-279.5 -73.5h-263q-171 0 -301.5 77.5t-200.5 206.5t-70 280v470h207v-444q0 -99 42 -183.5t125 -135.5t198 -51h263q159 0 252 86.5t95 237.5h-199q-207 0 -308 103.5t-101 288.5
q0 129 52.5 231t145.5 159.5t211 57.5q119 0 212 -56.5zM1326 392q0 95 -47 168t-154 73q-69 0 -114 -36t-66 -91t-21 -114q0 -85 46.5 -128.5t154.5 -43.5h201v172zM1044 1254q-35 35 -84 35q-50 0 -85 -35t-35 -84t35 -84t85 -35q49 0 84 35t35 84t-35 84zM1381 1254
q-35 35 -85 35q-49 0 -84 -35t-35 -84t35 -84t84 -35q50 0 85 35t35 84t-35 84z" />
    <glyph glyph-name="uE108" unicode="&#xe108;" horiz-adv-x="0" 
d="M-84 -18.5q-26 25.5 -62 25.5q-37 0 -63 -25.5t-26 -62.5t26 -62.5t63 -25.5q36 0 62 25.5t26 62.5t-26 62.5zM166 56q-26 26 -62 26q-37 0 -63 -26t-26 -62q0 -37 26 -63t63 -26q36 0 62 26t26 63q0 36 -26 62zM99.5 -169q-25.5 26 -62.5 26t-62.5 -26t-25.5 -63
q0 -36 25.5 -62t62.5 -26t62.5 26t25.5 62q0 37 -25.5 63z" />
    <glyph glyph-name="uE109" unicode="&#xe109;" horiz-adv-x="1231" 
d="M388 386v876h-207v-876h207zM181 220v-220h482q105 0 194 52t141 140.5t52 193.5v1050h-208v-1037q0 -49 -24 -90t-65 -65t-90 -24h-482zM277.5 1753.5q43.5 64.5 104.5 64.5q63 0 91 -39t28 -88q0 -38 -35.5 -63t-86.5 -25h-180q35 86 78.5 150.5zM48.5 1700
q-17.5 35 -17.5 69v60h-118v-60q0 -65 32.5 -131.5t85.5 -109.5t111 -43h237q66 0 121 27t87 74t32 105q0 100 -65.5 172.5t-172.5 72.5q-109 0 -178.5 -89.5t-112.5 -199.5q-24 18 -41.5 53z" />
    <glyph glyph-name="uE110" unicode="&#xe110;" horiz-adv-x="1280" 
d="M1279 220h-50q-49 0 -90 24t-65 65t-24 90v1037h-208v-1037q0 -49 -24 -90t-65 -65t-90 -24h-482v-220h482q94 0 166.5 43.5t116.5 120.5q44 -76 116.5 -120t166.5 -44h50v220zM388 386v876h-207v-876h207zM277.5 1753.5q43.5 64.5 104.5 64.5q63 0 91 -39t28 -88
q0 -38 -35.5 -63t-86.5 -25h-180q35 86 78.5 150.5zM48.5 1700q-17.5 35 -17.5 69v60h-118v-60q0 -65 32.5 -131.5t85.5 -109.5t111 -43h237q66 0 121 27t87 74t32 105q0 100 -65.5 172.5t-172.5 72.5q-109 0 -178.5 -89.5t-112.5 -199.5q-24 18 -41.5 53z" />
    <glyph glyph-name="uE111" unicode="&#xe111;" horiz-adv-x="1231" 
d="M388 386v876h-207v-876h207zM181 220v-220h482q105 0 194 52t141 140.5t52 193.5v1050h-208v-1037q0 -49 -24 -90t-65 -65t-90 -24h-482zM61 1433l522 207l-44 109l-522 -206zM-44 1727l522 207l-44 109l-522 -206z" />
    <glyph glyph-name="uE112" unicode="&#xe112;" horiz-adv-x="1279" 
d="M1279 220h-50q-49 0 -90 24t-65 65t-24 90v1037h-208v-1037q0 -49 -24 -90t-65 -65t-90 -24h-482v-220h482q94 0 166.5 43.5t116.5 120.5q44 -76 116.5 -120t166.5 -44h50v220zM388 386v876h-207v-876h207zM61 1433l522 207l-44 109l-522 -206zM-44 1727l522 207l-44 109
l-522 -206z" />
    <glyph glyph-name="uE113" unicode="&#xe113;" horiz-adv-x="1230" 
d="M388 386v876h-207v-876h207zM181 220v-220h482q105 0 194 52t141 140.5t52 193.5v1050h-208v-1037q0 -49 -24 -90t-65 -65t-90 -24h-482zM1288 2052l-150 4l-192 -220l-191 220l-150 -4l297 -344h89z" />
    <glyph glyph-name="uE114" unicode="&#xe114;" horiz-adv-x="1279" 
d="M1279 220h-50q-49 0 -90 24t-65 65t-24 90v1037h-208v-1037q0 -49 -24 -90t-65 -65t-90 -24h-482v-220h482q94 0 166.5 43.5t116.5 120.5q44 -76 116.5 -120t166.5 -44h50v220zM388 386v876h-207v-876h207zM1288 2052l-150 4l-192 -220l-191 220l-150 -4l297 -344h89z
" />
    <glyph glyph-name="uE124" unicode="&#xe124;" horiz-adv-x="1231" 
d="M388 386v876h-207v-876h207zM181 220v-220h482q105 0 194 52t141 140.5t52 193.5v1050h-208v-1037q0 -49 -24 -90t-65 -65t-90 -24h-482zM283.5 1753.5q43.5 64.5 104.5 64.5q63 0 91 -39t28 -88q0 -38 -35.5 -63t-86.5 -25h-180q35 86 78.5 150.5zM54.5 1700
q-17.5 35 -17.5 69v60h-118v-60q0 -65 32.5 -131.5t85.5 -109.5t111 -43h237q66 0 121 27t87 74t32 105q0 100 -65.5 172.5t-172.5 72.5q-109 0 -178.5 -89.5t-112.5 -199.5q-24 18 -41.5 53zM1289 2052l-150 3l-192 -219l-192 219l-150 -3l298 -345h88z" />
    <glyph glyph-name="uE125" unicode="&#xe125;" horiz-adv-x="1280" 
d="M1279 220h-50q-49 0 -90 24t-65 65t-24 90v1037h-208v-1037q0 -49 -24 -90t-65 -65t-90 -24h-482v-220h482q94 0 166.5 43.5t116.5 120.5q44 -76 116.5 -120t166.5 -44h50v220zM388 386v876h-207v-876h207zM283.5 1753.5q43.5 64.5 104.5 64.5q63 0 91 -39t28 -88
q0 -38 -35.5 -63t-86.5 -25h-180q35 86 78.5 150.5zM54.5 1700q-17.5 35 -17.5 69v60h-118v-60q0 -65 32.5 -131.5t85.5 -109.5t111 -43h237q66 0 121 27t87 74t32 105q0 100 -65.5 172.5t-172.5 72.5q-109 0 -178.5 -89.5t-112.5 -199.5q-24 18 -41.5 53zM1289 2052l-150 3
l-192 -219l-192 219l-150 -3l298 -345h88z" />
    <glyph glyph-name="uE126" unicode="&#xe126;" horiz-adv-x="1231" 
d="M388 386v876h-207v-876h207zM181 220v-220h482q105 0 194 52t141 140.5t52 193.5v1050h-208v-1037q0 -49 -24 -90t-65 -65t-90 -24h-482zM67 1433l522 207l-44 109l-522 -206zM-38 1727l522 207l-44 109l-522 -206zM1288 2052l-150 3l-192 -219l-192 219l-150 -3
l298 -345h88z" />
    <glyph glyph-name="uniE127" unicode="&#xe127;" horiz-adv-x="0" 
d="M280 1581l-45 116l-586 -218l1 -128z" />
    <glyph glyph-name="uE128" unicode="&#xe128;" horiz-adv-x="1279" 
d="M1279 220h-50q-49 0 -90 24t-65 65t-24 90v1037h-208v-1037q0 -49 -24 -90t-65 -65t-90 -24h-482v-220h482q94 0 166.5 43.5t116.5 120.5q44 -76 116.5 -120t166.5 -44h50v220zM388 386v876h-207v-876h207zM67 1433l522 207l-44 109l-522 -206zM-38 1727l522 207l-44 109
l-522 -206zM1288 2052l-150 3l-192 -219l-192 219l-150 -3l298 -345h88z" />
    <glyph glyph-name="uE130" unicode="&#xe130;" horiz-adv-x="0" 
d="M-94 -178h188v178h-188v-178z" />
    <glyph glyph-name="uE1A0" unicode="&#xe1a0;" 
d="M1225 165q155 187 155 531q0 377 -148 568t-482 190q-226 0 -364.5 -87t-202 -254.5t-63.5 -416.5q0 -344 155 -531t475 -187t475 187zM463.5 325.5q-90.5 134.5 -90.5 370.5q0 134 19 234.5t63 169.5t117 105t178 36t178 -36t117 -105t63 -169.5t19 -234.5
q0 -236 -90.5 -370.5t-286.5 -134.5t-286.5 134.5z" />
    <glyph glyph-name="uE1A1" unicode="&#xe1a1;" 
d="M990 0v1454l-480 -72v-211l231 40v-1211h249z" />
    <glyph glyph-name="uE1A2" unicode="&#xe1a2;" 
d="M1222 0v194h-618q32 77 89 142.5t148 146.5q17 17 43 37q24 21 37 34q141 122 214 231t73 258q0 195 -125 303t-363 108q-105 0 -210.5 -18.5t-179.5 -49.5v-211q167 66 340 66q142 0 214 -64t72 -172q0 -96 -53.5 -176.5t-167.5 -181.5q-37 -34 -76 -68
q-140 -122 -234 -226.5t-147 -226.5v-126h944z" />
    <glyph glyph-name="uE1A3" unicode="&#xe1a3;" 
d="M1084 85q148 107 148 316q0 130 -65 211.5t-179 113.5q104 41 159.5 133.5t55.5 204.5q0 177 -133 283.5t-388 106.5q-104 0 -211.5 -19t-178.5 -48v-194q169 69 349 69q159 0 234 -56t75 -163q0 -113 -68.5 -174t-208.5 -61h-181l-19 -167h216q140 0 215.5 -56
t75.5 -168q0 -126 -84.5 -186.5t-253.5 -60.5q-98 0 -193 17t-181 52v-195q70 -26 190.5 -46t218.5 -20q259 0 407 107z" />
    <glyph glyph-name="uE1A4" unicode="&#xe1a4;" 
d="M1159 0v313h144v203h-144v916h-220l-742 -942v-177h712v-313h250zM949 1155v-647h-515z" />
    <glyph glyph-name="uE1A5" unicode="&#xe1a5;" 
d="M1087 99q141 121 141 336q0 230 -125.5 333.5t-366.5 99.5h-239l24 370h587l20 194h-818l-38 -602v-133h414q162 0 226 -60t64 -194q0 -131 -83.5 -201t-246.5 -70q-92 0 -191 18.5t-176 48.5v-196q72 -30 185.5 -47.5t214.5 -17.5q267 0 408 121z" />
    <glyph glyph-name="uE1A6" unicode="&#xe1a6;" 
d="M1157.5 106q135.5 128 135.5 352q0 228 -121 344.5t-369 116.5q-89 0 -186.5 -28.5t-175.5 -82.5v94q0 159 102.5 263t287.5 104q194 0 326 -53v188q-70 27 -155 38.5t-195 11.5q-275 0 -437.5 -166t-162.5 -435v-319q0 -283 136.5 -419.5t408.5 -136.5q270 0 405.5 128z
M518.5 234.5q-77.5 78.5 -77.5 242.5v158q69 48 153 77t163 29q167 0 239.5 -74t72.5 -217q0 -138 -80.5 -216t-235.5 -78q-157 0 -234.5 78.5z" />
    <glyph glyph-name="uE1A7" unicode="&#xe1a7;" 
d="M692 0l538 1273v159h-960v-194h689l-523 -1238h256z" />
    <glyph glyph-name="uE1A8" unicode="&#xe1a8;" 
d="M1171 82q141 104 141 308q0 125 -63.5 208t-195.5 125q114 44 167.5 129t53.5 192q0 127 -55.5 219t-172 141.5t-297.5 49.5q-262 0 -392.5 -108t-130.5 -302q0 -101 52 -182t160 -121q-120 -38 -185 -133t-65 -218q0 -204 141.5 -308t419.5 -104q281 0 422 104zM653 822
q-190 37 -190 218q0 114 73 175t213 61q142 0 215 -61.5t73 -174.5q0 -102 -54 -160.5t-173 -87.5zM424 401q0 113 61.5 173.5t176.5 85.5l180 -37q125 -26 179.5 -77t54.5 -152q0 -118 -81.5 -178t-245.5 -60q-325 0 -325 245z" />
    <glyph glyph-name="uE1A9" unicode="&#xe1a9;" 
d="M1137.5 148q155.5 170 155.5 431v319q0 288 -130 422t-409 134q-265 0 -405.5 -129t-141.5 -357q0 -228 123.5 -345t370.5 -117q193 0 358 111v-90q0 -157 -98 -260.5t-285 -103.5q-204 0 -331 51v-188q72 -24 159 -36t195 -12q283 0 438.5 170zM511 753.5
q-78 69.5 -80 222.5q0 139 83 219.5t240 80.5q158 0 231.5 -78.5t73.5 -242.5v-165q-67 -49 -146.5 -77.5t-165.5 -28.5q-158 0 -236 69.5z" />
    <glyph glyph-name="uE1B0" unicode="&#xe1b0;" 
d="M415 308q52 -89 141 -141t194 -52q106 0 194.5 52t140.5 141t52 194q0 106 -52 194.5t-140.5 140.5t-194.5 52q-105 0 -194 -52t-141 -140.5t-52 -194.5q0 -105 52 -194zM616 634.5q55 54.5 138 56.5q49 0 92 -25.5t68 -69t25 -94.5t-25.5 -94.5t-69 -69t-94.5 -25.5
t-94.5 25.5t-69 69t-25.5 94.5q0 78 55 132.5z" />
    <glyph glyph-name="uE1B1" unicode="&#xe1b1;" 
d="M898 637q0 135 -15.5 300t-44.5 289l-24 106l-212 -49l25 -106q26 -111 40 -263.5t14 -276.5v-637h217v637z" />
    <glyph glyph-name="uE1B2" unicode="&#xe1b2;" 
d="M583 1226l-25 106l-211 -49l25 -106q26 -111 40 -263.5t14 -276.5v-637h217v590q-1 42 -3 83q22 -33 68.5 -49t106.5 -8q149 19 240 114t98 238q2 81 -6 146t-33 197q-3 17 -5 25l-213 -41q3 -13 7 -38q22 -111 28.5 -164.5t4.5 -117.5q-6 -124 -149 -144q-61 -8 -100 18
t-58 70q-17 180 -46 307z" />
    <glyph glyph-name="uE1B3" unicode="&#xe1b3;" 
d="M1302.5 735.5q92.5 94.5 98.5 236.5q3 79 -5 142.5t-32 190.5q-4 22 -6 35l-214 -40q3 -15 8 -41q22 -116 28.5 -166t4.5 -114q-2 -59 -43 -97t-111 -47q-87 -11 -146 68q12 31 13 65q2 81 -6 146t-34 198q-3 16 -4 24l-213 -41q3 -13 7 -38q21 -111 28 -164t5 -118
q-6 -124 -149 -144q-108 -14 -152 87q-16 181 -46 308l-25 106l-211 -49l25 -106q26 -111 40 -263.5t14 -276.5v-637h217v598q0 33 -2 71q21 -30 66 -45t102 -8q134 17 219 99q51 -49 127 -77t152 -18q152 21 244.5 115.5z" />
    <glyph glyph-name="uE1B4" unicode="&#xe1b4;" 
d="M415 1226l-25 106l-211 -49l25 -106q26 -111 40 -263.5t14 -276.5v-637h217v607q0 37 -3 78q57 -62 178.5 -105t343.5 -43q91 0 167.5 25t159.5 76l-43 203q-91 -45 -158.5 -66.5t-124.5 -20.5q-79 1 -136.5 41.5t-56.5 139.5q2 86 53.5 141t137.5 58q31 1 71 -8.5
t113 -35.5l54 199q-51 26 -114.5 44.5t-111.5 18.5q-112 2 -204.5 -50.5t-147 -148t-55.5 -217.5q0 -88 63 -134q-83 20 -133 72t-75 105q-14 145 -38 247z" />
    <glyph glyph-name="uE1B5" unicode="&#xe1b5;" 
d="M662 1364q34 -27 101 -81q154 -123 248.5 -206.5t175.5 -185.5t128.5 -224.5t47.5 -268.5q0 -108 -51.5 -201t-138 -148.5t-187.5 -55.5q-165 0 -241 118q-81 -118 -248 -118q-102 0 -184.5 54t-129 146.5t-46.5 204.5q0 207 136.5 394t347.5 327q-9 8 -27 22
q-43 35 -65 52zM1060.5 234.5q37.5 24.5 61.5 67.5t24 96q0 120 -43.5 219t-121.5 184.5t-201 187.5q-188 -134 -307 -285.5t-119 -305.5q0 -86 42 -137t101 -51q73 0 119.5 40t46.5 129v129h192v-91q0 -46 -8 -91q20 -60 57 -88t82 -28q37 0 74.5 24.5z" />
    <glyph glyph-name="uE1B6" unicode="&#xe1b6;" 
d="M881.5 772q-87.5 -26 -157.5 -25q-78 2 -136.5 45t-57.5 143q1 86 53 141t138 58q35 1 87 -9t117 -35l53 199q-48 25 -122 44t-123 19q-112 2 -205 -50.5t-147 -148.5t-55 -217q-2 -122 49.5 -206t133.5 -125t173 -42q46 0 96 22q-202 -237 -335 -516l190 -90
q114 239 245 406t297 308l-137 160q-69 -55 -156.5 -81z" />
    <glyph glyph-name="uE1B7" unicode="&#xe1b7;" 
d="M1136.5 901.5q-80.5 -177.5 -141.5 -346.5t-96 -313t-40 -243l-220 -1q-12 214 -137 563.5t-311 682.5l180 114q129 -222 222.5 -456t156.5 -555q63 321 156.5 555t222.5 456l180 -114q-92 -165 -172.5 -342.5z" />
    <glyph glyph-name="uE1B8" unicode="&#xe1b8;" 
d="M997.5 772.5q-125.5 350.5 -138.5 562.5l-220 1q-5 -134 -64.5 -342t-160 -446.5t-223.5 -457.5l180 -114q128 221 222 455t157 556q63 -322 156.5 -556t222.5 -455l180 114q-186 332 -311.5 682.5z" />
    <glyph glyph-name="uE1B9" unicode="&#xe1b9;" 
d="M953 801q-42 -31 -87.5 -43.5t-107.5 -20.5q-6 -1 -9 -1q-83 -9 -141 43.5t-60 144.5q0 55 28 102.5t75 75.5t101 28q61 0 107 -36t70 -92t24 -113v-88zM953 0h217v889q0 115 -51.5 220.5t-146.5 171.5t-220 66q-112 0 -209 -57.5t-154.5 -154.5t-58.5 -210
q0 -122 61.5 -220.5t165 -149t221.5 -35.5q3 0 10 1q49 7 87 17t78 34v-572z" />
    <glyph glyph-name="uE1C0" unicode="&#xe1c0;" 
d="M750 285l208 208l-208 208l-208 -208z" />
    <glyph glyph-name="uE1C1" unicode="&#xe1c1;" 
d="M898 637q0 135 -15.5 300t-44.5 289l-24 106l-212 -49l25 -106q26 -111 40 -263.5t14 -276.5v-637h217v637z" />
    <glyph glyph-name="uE1C2" unicode="&#xe1c2;" 
d="M582 1226l-24 106l-212 -49l25 -106q26 -111 40 -263.5t14 -276.5v-637h217v590q0 42 -2 83q21 -33 67.5 -49t107.5 -8q149 19 240 114t97 238q3 81 -5 146t-34 197q-3 17 -4 25l-213 -41q2 -13 7 -38q21 -111 28 -164.5t5 -117.5q-7 -124 -149 -144q-61 -8 -100.5 18
t-58.5 70q-16 180 -46 307z" />
    <glyph glyph-name="uE1C3" unicode="&#xe1c3;" 
d="M1302.5 735.5q92.5 94.5 99.5 236.5q3 79 -5 142.5t-32 190.5q-5 22 -7 35l-214 -40q3 -15 8 -41q22 -116 28.5 -166t4.5 -114q-2 -59 -43 -97t-111 -47q-86 -11 -146 68q12 31 13 65q3 81 -5.5 146t-33.5 198q-3 16 -5 24l-213 -41q3 -13 8 -38q21 -111 28 -164t4 -118
q-6 -124 -148 -144q-109 -14 -153 87q-16 181 -46 308l-24 106l-212 -49l25 -106q26 -111 40.5 -263.5t14.5 -276.5v-637h216v598q0 33 -2 71q21 -30 66.5 -45t101.5 -8q135 17 220 99q51 -49 126.5 -77t151.5 -18q152 21 244.5 115.5z" />
    <glyph glyph-name="uE1C4" unicode="&#xe1c4;" 
d="M478.5 798.5q33.5 -79.5 117 -116t207.5 -21.5q13 0 30 -9.5t46 -28.5q34 -22 54 -32.5t35 -7.5l117 23l-41 204l-117 -23q-77 -16 -136.5 -4.5t-90.5 43.5q-45 44 -29 118q16 83 65 132.5t106.5 69t106.5 19.5q51 0 127 -18l10 208q-56 18 -137 18q-104 0 -204.5 -41.5
t-176 -129t-101.5 -215.5q-22 -109 11.5 -188.5zM1136 208h-401q-65 0 -112 44t-51 109q-3 61 34 109.5t97 59.5l382 76l-41 204l-382 -76q-86 -17 -154 -69.5t-106 -129.5t-38 -165q0 -100 49.5 -185t135 -135t186.5 -50h401v208z" />
    <glyph glyph-name="uE1C5" unicode="&#xe1c5;" 
d="M1153.5 117.5q148.5 125.5 148.5 426.5q0 206 -62.5 391.5t-187.5 301.5t-302 116q-178 0 -302.5 -116t-187 -301.5t-62.5 -391.5q0 -301 148.5 -426.5t371.5 -125.5h64q223 0 371.5 125.5zM937.5 1055.5q78.5 -89.5 118 -228t39.5 -283.5q0 -80 -13.5 -141.5t-47 -107
t-95.5 -70.5t-157 -25h-64q-125 0 -193.5 43t-94 117.5t-25.5 183.5q0 145 39.5 283.5t117.5 228t188 89.5q109 0 187.5 -89.5z" />
    <glyph glyph-name="uE1C6" unicode="&#xe1c6;" 
d="M1242 83q-92 150 -139.5 344.5t-29.5 403t118 390.5l-123 150q-197 -61 -323.5 -70.5t-214 9t-199.5 60.5l-73 -188q115 -46 202.5 -68t200 -22.5t275.5 33.5q-99 -320 -60.5 -611.5t189.5 -538.5z" />
    <glyph glyph-name="uE1C7" unicode="&#xe1c7;" 
d="M1136.5 901.5q-80.5 -177.5 -141.5 -346.5t-96 -313t-40 -243l-220 -1q-12 214 -137 563.5t-311 682.5l180 114q129 -222 222.5 -456t156.5 -555q63 321 156.5 555t222.5 456l180 -114q-92 -165 -172.5 -342.5z" />
    <glyph glyph-name="uE1C8" unicode="&#xe1c8;" 
d="M997.5 772.5q-125.5 350.5 -138.5 562.5l-220 1q-5 -134 -64.5 -342t-160 -446.5t-223.5 -457.5l180 -114q128 221 222 455t157 556q63 -322 156.5 -556t222.5 -455l180 114q-186 332 -311.5 682.5z" />
    <glyph glyph-name="uE1C9" unicode="&#xe1c9;" 
d="M953 801q-42 -31 -87.5 -43.5t-107.5 -20.5q-6 -1 -9 -1q-83 -9 -141 43.5t-61 144.5q1 54 29 101.5t74.5 76t100.5 28.5q62 0 108 -36t70 -92t24 -113v-88zM953 0h217v889q0 115 -51.5 220.5t-146.5 171.5t-221 66q-111 0 -208 -57.5t-154.5 -155t-58.5 -209.5
q0 -122 61.5 -221t165 -149t221.5 -35q3 0 10 1q49 7 87 17t78 34v-572z" />
    <glyph glyph-name="uE1D0" unicode="&#xe1d0;" 
d="M628 53l-251 916q-11 43 10 83t63 56q44 16 87.5 -4.5t59.5 -64.5l158 -437l187 -19l391 652l-177 107l-279 -466l-86 233q-29 81 -93.5 135t-146.5 71t-163 -10q-80 -26 -135.5 -87t-76 -141.5t1.5 -160.5l250 -916z" />
    <glyph glyph-name="uE1D1" unicode="&#xe1d1;" 
d="M750.5 12.5q194.5 6.5 379.5 68.5l98 32l-65 197l-99 -33q-152 -51 -303.5 -57t-280.5 32q26 271 186.5 525t286.5 397l3 3l-154 140q0 -1 -1 -2q-143 -161 -324.5 -452.5t-204.5 -614.5l115 -185q169 -57 363.5 -50.5z" />
    <glyph glyph-name="uE1D2" unicode="&#xe1d2;" 
d="M583 885.5q82 86.5 82 227.5q0 161 -80.5 251t-235.5 90q-154 0 -234.5 -90t-80.5 -251q0 -141 81.5 -227.5t233.5 -86.5t234 86.5zM487 0l758 1432h-236l-758 -1432h236zM177 1117q0 103 42.5 152t129.5 49q88 0 130.5 -49t42.5 -152q0 -89 -42 -135t-131 -46
q-172 0 -172 181zM1384.5 64q81.5 86 81.5 227q0 161 -80.5 251.5t-234.5 90.5q-155 0 -235.5 -90.5t-80.5 -251.5q0 -141 82 -227t234 -86t233.5 86zM978 295q0 103 42.5 152t130.5 49q87 0 129.5 -49t42.5 -152q0 -89 -42 -135t-130 -46q-173 0 -173 181z" />
    <glyph glyph-name="uE1D3" unicode="&#xe1d3;" 
d="M750 952l179 -236l147 108l-197 213l256 106l-76 156l-223 -111l10 244h-192l10 -244l-223 111l-76 -156l255 -104l-196 -215l147 -108z" />
    <glyph glyph-name="uE1D4" unicode="&#xe1d4;" 
d="M849 183v312h334v195h-334v321h-199v-321h-333v-195h333v-312h199z" />
    <glyph glyph-name="uE1D5" unicode="&#xe1d5;" 
d="M861 0v204h-222v-204h222z" />
    <glyph glyph-name="uE1D6" unicode="&#xe1d6;" 
d="M1179 676v177h-858v-177h858zM1179 331v178h-858v-178h858z" />
    <glyph glyph-name="uE1D7" unicode="&#xe1d7;" 
d="M647 85l82 246h450v178h-397l56 167h341v177h-290l81 240h-121l-81 -240h-447v-177h396l-57 -167h-339v-178h287l-82 -246h121z" />
    <glyph glyph-name="uE1D8" unicode="&#xe1d8;" 
d="M849 289v312h334v194h-334v321h-199v-321h-333v-194h333v-312h199zM1183 0v194h-866v-194h866z" />
    <glyph glyph-name="uE1D9" unicode="&#xe1d9;" 
d="M1116 312l-241 240l241 242l-126 127l-243 -240l-237 241l-126 -125l241 -240l-231 -231l127 -127l232 231l240 -241z" />
    <glyph glyph-name="uE1E0" unicode="&#xe1e0;" 
d="M839 884v177h-180v-177h180zM1174 495v195h-848v-195h848zM839 135v176h-180v-176h180z" />
    <glyph glyph-name="uE1E1" unicode="&#xe1e1;" 
d="M1176 1295l-144 67l-709 -1316l145 -67zM481.5 1219q38.5 -38 38.5 -93q0 -53 -38.5 -91.5t-92.5 -38.5q-55 0 -93 38t-38 92q0 55 38 93t93 38q54 0 92.5 -38zM1204 307q38 -38 38 -93q0 -54 -38.5 -92t-92.5 -38t-92 38t-38 92q0 55 38 93t92 38q55 0 93 -38z" />
    <glyph glyph-name="uE1E2" unicode="&#xe1e2;" 
d="M740 -238q73 39 112.5 115t39.5 175v212h-143v-212q0 -51 -19 -96.5t-59 -67.5l-63 -35l69 -126z" />
    <glyph glyph-name="uE1E3" unicode="&#xe1e3;" 
d="M999 390l-131 58l-367 -807l131 -60z" />
    <glyph glyph-name="uE1E4" unicode="&#xe1e4;" 
d="M1174 495v194h-848v-194h848z" />
    <glyph glyph-name="uniFBB2" unicode="&#xfbb2;" horiz-adv-x="0" 
d="M84 183q-35 35 -84 35t-84 -35t-35 -84t35 -84t84 -35t84 35t35 84t-35 84z" />
    <glyph glyph-name="uniFBB3" unicode="&#xfbb3;" horiz-adv-x="0" 
d="M84 -15q-35 35 -84 35t-84 -35t-35 -84t35 -84t84 -35t84 35t35 84t-35 84z" />
    <glyph glyph-name="uniFBB4" unicode="&#xfbb4;" horiz-adv-x="0" 
d="M-84 183q-35 35 -84 35q-50 0 -85 -35t-35 -84t35 -84t85 -35q49 0 84 35t35 84t-35 84zM253 183q-35 35 -85 35q-49 0 -84 -35t-35 -84t35 -84t84 -35q50 0 85 35t35 84t-35 84z" />
    <glyph glyph-name="uniFBB5" unicode="&#xfbb5;" horiz-adv-x="0" 
d="M-84 -15q-35 35 -84 35q-50 0 -85 -35t-35 -84t35 -84t85 -35q49 0 84 35t35 84t-35 84zM253 -15q-35 35 -85 35q-49 0 -84 -35t-35 -84t35 -84t84 -35q50 0 85 35t35 84t-35 84z" />
    <glyph glyph-name="uniFBB6" unicode="&#xfbb6;" horiz-adv-x="0" 
d="M-84 183q-35 35 -84 35q-50 0 -85 -35t-35 -84t35 -84t85 -35q49 0 84 35t35 84t-35 84zM253 183q-35 35 -85 35q-49 0 -84 -35t-35 -84t35 -84t84 -35q50 0 85 35t35 84t-35 84zM84 476q-35 35 -84 35t-84 -35t-35 -85q0 -49 35 -84t84 -35t84 35t35 84q0 50 -35 85z
" />
    <glyph glyph-name="uniFBB9" unicode="&#xfbb9;" horiz-adv-x="0" 
d="M-84 -15q-35 35 -84 35q-50 0 -85 -35t-35 -84t35 -84t85 -35q49 0 84 35t35 84t-35 84zM253 -15q-35 35 -85 35q-49 0 -84 -35t-35 -84t35 -84t84 -35q50 0 85 35t35 84t-35 84zM84 -307q-35 35 -84 35t-84 -35t-35 -84q0 -50 35 -85t84 -35t84 35t35 85q0 49 -35 84z
" />
    <glyph glyph-name="uniFD3E" unicode="&#xfd3e;" horiz-adv-x="951" 
d="M585 790q45 -45 45 -109t-45 -109t-109 -45t-109.5 45t-45.5 109t45.5 109t109.5 45t109 -45zM449 134q38 -107 92 -212l40 -78l156 81l-40 78q-97 186 -132 373q102 26 168 111t66 194q0 108 -66 193t-168 112q33 179 132 373l40 78l-156 80l-40 -78
q-117 -227 -155 -448q-102 -29 -168 -115t-66 -195t66 -195t168 -115q25 -130 63 -237z" />
    <glyph glyph-name="uniFD3F" unicode="&#xfd3f;" horiz-adv-x="951" 
d="M366.5 790q-45.5 -45 -45.5 -109t45.5 -109t109.5 -45t109 45t45 109t-45 109t-109 45t-109.5 -45zM502 134q-38 -107 -92 -212l-40 -78l-156 81l40 78q97 186 132 373q-102 26 -168 111t-66 194q0 108 66 193t168 112q-33 179 -132 373l-40 78l156 80l40 -78
q117 -227 155 -448q102 -29 168 -115t66 -195t-66 -195t-167 -115q-26 -130 -64 -237z" />
    <glyph glyph-name="uni0627_alt.short" horiz-adv-x="569" 
d="M181 0h207v1262h-207v-1262z" />
    <glyph glyph-name="uni0627.fina.short" horiz-adv-x="645" 
d="M645 220h-84q-74 0 -123.5 52t-49.5 127v863h-207v-888q0 -102 47 -187.5t133.5 -136t199.5 -50.5h84v220z" />
    <glyph glyph-name="uni066E.fina" horiz-adv-x="1852" 
d="M1403 43.5q72 43.5 117 120.5q44 -77 116 -120.5t166 -43.5h51v220h-51q-49 0 -90 24t-65 65t-24 90v293h-207v-293q0 -49 -24 -90t-65 -65t-90 -24h-709q-49 0 -90 24t-65 65t-24 90v327h-207v-352q0 -102 52 -188t140.5 -136t193.5 -50h709q94 0 166 43.5z" />
    <glyph glyph-name="uni06A1.fina" horiz-adv-x="1865" 
d="M1388.5 685q47.5 -21 77.5 -61.5t30 -96.5q0 -168 -207 -306q-207 138 -207 306q0 56 30 96.5t77.5 61.5t99.5 21t99.5 -21zM1077 0q91 0 145 15t67 31q12 -16 66 -31t145 -15h366v220h-311q60 53 104 131.5t44 175.5q0 107 -54.5 195.5t-149.5 140t-210 51.5t-210 -51.5
t-150 -140t-55 -195.5q0 -97 44 -175.5t105 -131.5h-495q-49 0 -90 24t-65 65t-24 90v327h-207v-352q0 -102 52 -188t140.5 -136t193.5 -50h549z" />
    <glyph glyph-name="uni06A1.init" horiz-adv-x="1098" 
d="M514 617q-94 0 -130.5 27.5t-36.5 103.5q0 87 54.5 161.5t146.5 74.5q66 0 111.5 -39t67.5 -96t22 -110v-122h-235zM-55.5 152.5q-14.5 -42.5 0 -85t55.5 -67.5h521q115 0 215.5 55.5t160 146t59.5 191.5v346q0 117 -52.5 221t-146 167.5t-209.5 63.5q-113 0 -207 -64
t-148 -169t-54 -223q0 -108 29.5 -177.5t102.5 -105.5t200 -36h278v-23q0 -44 -31.5 -84t-84 -64.5t-112.5 -24.5h-521q-41 -25 -55.5 -67.5z" />
    <glyph glyph-name="uni06A1.medi" horiz-adv-x="1154" 
d="M676.5 685q47.5 -21 77.5 -61.5t30 -96.5q0 -105 -64 -179t-143 -127q-207 138 -207 306q0 56 30 96.5t77.5 61.5t99.5 21t99.5 -21zM-55.5 152.5q-14.5 -42.5 0 -85t55.5 -67.5h366q91 0 144.5 15t66.5 31q13 -16 67 -31t144 -15h366v220h-311q60 53 104 131.5t44 175.5
q0 107 -54.5 195.5t-149.5 140t-210 51.5t-210 -51.5t-149.5 -140t-54.5 -195.5q0 -97 43.5 -175.5t104.5 -131.5h-311q-41 -25 -55.5 -67.5z" />
    <glyph glyph-name="uniE014" horiz-adv-x="1736" 
d="M1125 220q-109 0 -155 44t-46 128q0 59 21 114t66 91t114 36q107 0 154 -73t47 -168v-172h-201zM1735 220h-201l-1 172q0 131 -51.5 233t-144.5 158.5t-212 56.5q-118 0 -211 -57.5t-145.5 -159.5t-52.5 -231q0 -185 101 -288.5t308 -103.5h199q-2 -150 -95 -236.5
t-252 -86.5h-263q-115 0 -197.5 51t-125 135t-42.5 183v445h-207v-471q0 -151 70 -280t200.5 -206t301.5 -77h263q150 0 276 70.5t201 195t79 277.5h202v220z" />
    <glyph glyph-name="uni06D2.2.fina" horiz-adv-x="949" 
d="M1054 -278h-526q-77 0 -128 37.5t-51 101.5t51 101.5t128 37.5h421v220h-421q-106 0 -194.5 -46t-140 -128t-51.5 -185q0 -102 51.5 -181t139.5 -122t195 -43h526v207z" />
    <glyph glyph-name="uni06D3.2.fina" horiz-adv-x="949" 
d="M1054 -278h-526q-77 0 -128 37.5t-51 101.5t51 101.5t128 37.5h421v220h-421q-106 0 -194.5 -46t-140 -128t-51.5 -185q0 -102 51.5 -181t139.5 -122t195 -43h526v207zM275 446l456 174l-42 110l-154 -59q-65 -3 -101 27.5t-36 83.5q0 44 28 80t73 37q31 0 56 -8.5
t56 -24.5q6 -3 9 -5l28 113q-38 21 -71.5 32t-77.5 11q-64 0 -114 -34t-77.5 -88.5t-27.5 -112.5q0 -54 27 -101t73 -69l-147 -56z" />
    <glyph glyph-name="uni06270644.init" horiz-adv-x="1231" 
d="M388 386v876h-207v-876h207zM181 220v-220h482q105 0 194 52t141 140.5t52 193.5v1050h-208v-1037q0 -49 -24 -90t-65 -65t-90 -24h-482z" />
    <glyph glyph-name="uni06270644.medi" horiz-adv-x="1279" 
d="M1279 220h-50q-49 0 -90 24t-65 65t-24 90v1037h-208v-1037q0 -49 -24 -90t-65 -65t-90 -24h-482v-220h482q94 0 166.5 43.5t116.5 120.5q44 -76 116.5 -120t166.5 -44h50v220zM388 386v876h-207v-876h207z" />
    </font>
</defs>
</svg>
