<?xml version="1.0" standalone="no"?>
<!DOCTYPE svg PUBLIC "-//W3C//DTD SVG 1.1//EN" "http://www.w3.org/Graphics/SVG/1.1/DTD/svg11.dtd" >
<svg xmlns="http://www.w3.org/2000/svg" xmlns:xlink="http://www.w3.org/1999/xlink" version="1.1">
<metadata>
Created by FontForge 20201107 at Sat Sep 21 20:36:02 2024
 By 
Copyright 2024 The Arad Project Authors (https://github.com/MDarvishi5124/Arad)
</metadata>
<defs>
<font id="Arad-ExtraBoldDots4" horiz-adv-x="1500" >
  <font-face 
    font-family="Arad ExtraBold Dots4"
    font-weight="800"
    font-stretch="normal"
    units-per-em="2176"
    panose-1="0 0 0 0 0 0 0 0 0 0"
    ascent="1740"
    descent="-436"
    x-height="1054"
    cap-height="1432"
    bbox="-470 -1227 3225 2514"
    underline-thickness="40"
    underline-position="-185"
    unicode-range="U+000D-FEFC"
  />
<missing-glyph horiz-adv-x="1300" 
d="M1200 0v1400h-1100v-1400h1100zM350 1150h600v-900h-600v900z" />
    <glyph glyph-name="uni0626" unicode="&#x649;&#x654;" horiz-adv-x="1637" 
d="M1471.5 248.5q-56.5 79.5 -141 105.5t-195.5 26h-132v126q0 51 33 84t84 33h343v320h-343q-120 0 -220 -58t-158 -158t-58 -221v-444h446q41 -1 60 -13.5t18 -50.5q0 -43 -29 -87.5t-103.5 -77t-202.5 -32.5h-149q-96 0 -160 39.5t-95 104.5t-31 142v470h-318v-513
q0 -157 73.5 -290.5t211 -213t319.5 -79.5h149q252 0 398 95.5t201 222.5t56 240q0 150 -56.5 229.5zM147 756l478 183l-60 158l-147 -56q-45 -7 -77.5 10.5t-31.5 64.5q0 30 18 56.5t51 27.5q24 0 46 -7t53 -22q7 -3 10 -4l44 159q-46 24 -79.5 34t-73.5 10
q-71 0 -125.5 -37t-84 -95.5t-29.5 -121.5q0 -43 17.5 -85t52.5 -69l-122 -47z" />
    <glyph glyph-name="uni06C0" unicode="&#x647;&#x654;" horiz-adv-x="1119" 
d="M667.5 493.5q27.5 -58.5 27.5 -90.5q0 -51 -43 -77.5t-90 -26.5q-48 0 -90.5 28.5t-42.5 75.5q0 62 43.5 125.5t89.5 107.5q78 -84 105.5 -142.5zM184 654q-75 -112 -75 -251q0 -115 61 -212.5t165 -155t227 -57.5q114 0 218.5 52t169.5 149t65 224q0 299 -420 638
l-124 101l-201 -246l76 -62q-87 -68 -162 -180zM646 1321.5q89 75.5 89 168.5v172h-247v30q0 33 20.5 53.5t53.5 20.5h157v160h-157q-60 0 -114 -31t-87 -84.5t-33 -118.5v-83q-1 -40 32.5 -73t73.5 -33h141v-13q0 -17 -26 -34t-90 -27.5t-170 -5.5v-170q268 -7 357 68.5z
" />
    <glyph glyph-name="uniFBA70654" unicode="&#xfba7;&#x654;" horiz-adv-x="1183" 
d="M474 370q6 47 36.5 84.5t75.5 52.5l102 33l13 -149q10 -109 70 -198.5t154.5 -141t204.5 -51.5h53v340h-53q-47 0 -77 19.5t-35 60.5l-31 350l-209 137l-294 -97q-132 -46 -220.5 -154t-105.5 -246l-49 -388l317 -40zM332 1014l478 183l-60 158l-147 -56
q-45 -7 -77.5 10.5t-31.5 64.5q0 30 18 56.5t51 27.5q24 0 46 -7t53 -22q7 -3 10 -4l44 159q-46 24 -79.5 34t-73.5 10q-71 0 -125.5 -37t-84 -95.5t-29.5 -121.5q0 -43 17.5 -85t52.5 -69l-122 -47z" />
    <glyph glyph-name="uE115" unicode="&#xe091;&#xfe8e;" horiz-adv-x="1299" 
d="M484 451v1003h-318v-1003h318zM166 340v-340h537q117 0 216 57.5t157 156.5t58 216v1024h-319v-1003q0 -46 -32.5 -78.5t-79.5 -32.5h-537zM1370 2060l-215 6l-180 -208l-181 208l-214 -6l331 -387h128z" />
    <glyph glyph-name="uE116" unicode="&#xe092;&#xfe8e;" horiz-adv-x="1309" 
d="M166 340v-340h537q89 0 154.5 34.5t117.5 99.5q51 -65 116.5 -99.5t153.5 -34.5h65v340h-65q-46 0 -78.5 32.5t-32.5 78.5v1003h-319v-1003q0 -46 -32.5 -78.5t-79.5 -32.5h-537zM484 451v1003h-318v-1003h318zM1370 2060l-215 6l-180 -208l-181 208l-214 -6l331 -387
h128z" />
    <glyph glyph-name="uE117" unicode="&#xe091;&#xfe82;" horiz-adv-x="1301" 
d="M484 451v843h-318v-843h318zM166 340v-340h537q117 0 216 57.5t157 156.5t58 216v1024h-319v-1003q0 -46 -32.5 -78.5t-79.5 -32.5h-537zM95 1479q14 31 41.5 50t61.5 18h480v213h-480q-100 0 -182 -55.5t-118 -147.5l-73 -182l198 -79zM1370 2060l-214 5l-181 -207
l-181 207l-214 -5l331 -387h128z" />
    <glyph glyph-name="uE118" unicode="&#xe092;&#xfe82;" horiz-adv-x="1310" 
d="M1310 340h-65q-46 0 -78.5 32.5t-32.5 78.5v1003h-319v-1003q0 -46 -32.5 -78.5t-79.5 -32.5h-537v-340h537q89 0 154.5 34.5t117.5 99.5q51 -65 116.5 -99.5t153.5 -34.5h65v340zM484 451v843h-318v-843h318zM95 1479q14 31 41.5 50t61.5 18h480v213h-480
q-100 0 -182 -55.5t-118 -147.5l-73 -182l198 -79zM1370 2060l-214 5l-181 -207l-181 207l-214 -5l331 -387h128z" />
    <glyph glyph-name="uE120" unicode="&#xe091;&#x675;" horiz-adv-x="1300" 
d="M484 451v843h-318v-843h318zM166 340v-340h537q117 0 216 57.5t157 156.5t58 216v1024h-319v-1003q0 -46 -32.5 -78.5t-79.5 -32.5h-537zM96 1469l478 183l-60 158l-147 -56q-45 -7 -77.5 10.5t-31.5 64.5q0 30 18 56.5t51 27.5q24 0 46 -7t53 -22q7 -3 10 -4l44 159
q-46 24 -79.5 34t-73.5 10q-71 0 -125.5 -37t-84 -95.5t-29.5 -121.5q0 -43 17.5 -85t52.5 -69l-122 -47zM1370 2060l-214 5l-181 -207l-181 207l-214 -5l331 -387h128z" />
    <glyph glyph-name="uE121" unicode="&#xe092;&#x675;" horiz-adv-x="1309" 
d="M1310 340h-65q-46 0 -78.5 32.5t-32.5 78.5v1003h-319v-1003q0 -46 -32.5 -78.5t-79.5 -32.5h-537v-340h537q89 0 154.5 34.5t117.5 99.5q51 -65 116.5 -99.5t153.5 -34.5h65v340zM484 451v843h-318v-843h318zM96 1469l478 183l-60 158l-147 -56q-45 -7 -77.5 10.5
t-31.5 64.5q0 30 18 56.5t51 27.5q24 0 46 -7t53 -22q7 -3 10 -4l44 159q-46 24 -79.5 34t-73.5 10q-71 0 -125.5 -37t-84 -95.5t-29.5 -121.5q0 -43 17.5 -85t52.5 -69l-122 -47zM1370 2060l-214 5l-181 -207l-181 207l-214 -5l331 -387h128z" />
    <glyph glyph-name="uE122" unicode="&#xe091;&#xfe88;" horiz-adv-x="1301" 
d="M484 451v1003h-318v-1003h318zM166 340v-340h537q117 0 216 57.5t157 156.5t58 216v1024h-319v-1003q0 -46 -32.5 -78.5t-79.5 -32.5h-537zM160 -821l478 183l-60 158l-147 -56q-45 -7 -77.5 10.5t-31.5 64.5q0 30 18 56.5t51 27.5q24 0 46 -7t53 -22q7 -3 10 -4l44 159
q-46 24 -79.5 34t-73.5 10q-71 0 -125.5 -37t-84 -95.5t-29.5 -121.5q0 -43 17.5 -85t52.5 -69l-122 -47zM1370 2060l-214 5l-181 -207l-181 207l-214 -5l331 -387h128z" />
    <glyph glyph-name="uE123" unicode="&#xe092;&#xfe88;" horiz-adv-x="1310" 
d="M166 340v-340h537q89 0 154.5 34.5t117.5 99.5q51 -65 116.5 -99.5t153.5 -34.5h65v340h-65q-46 0 -78.5 32.5t-32.5 78.5v1003h-319v-1003q0 -46 -32.5 -78.5t-79.5 -32.5h-537zM484 451v1003h-318v-1003h318zM159 -821l478 183l-60 158l-147 -56q-45 -7 -77.5 10.5
t-31.5 64.5q0 30 18 56.5t51 27.5q24 0 46 -7t53 -22q7 -3 10 -4l44 159q-46 24 -79.5 34t-73.5 10q-71 0 -125.5 -37t-84 -95.5t-29.5 -121.5q0 -43 17.5 -85t52.5 -69l-122 -47zM1370 2060l-214 5l-181 -207l-181 207l-214 -5l331 -387h128z" />
    <glyph glyph-name="uniFBA5" unicode="&#xfeea;&#x654;" horiz-adv-x="1219" arabic-form="final" 
d="M1114 0h105v340h-107q-32 0 -55.5 20.5t-27.5 51.5l-107 728l-316 -45l13 -94q-159 -21 -280 -98.5t-183 -201t-50 -276.5q9 -112 73 -193.5t166.5 -118t224.5 -18t240 95.5q105 -191 304 -191zM700 441q-72 -43 -134.5 -49.5t-101 12.5t-40.5 47q-8 104 59 162t182 70z
M673 1313.5q89 75.5 89 168.5v172h-247v30q0 33 20.5 53.5t53.5 20.5h157v160h-157q-60 0 -114 -31t-87 -84.5t-33 -118.5v-83q-1 -40 32.5 -73t73.5 -33h141v-13q0 -17 -26 -34t-90 -27.5t-170 -5.5v-170q268 -7 357 68.5z" />
    <glyph glyph-name="uniFE8A" unicode="&#xfbfd;&#x654;" horiz-adv-x="1732" arabic-form="final" 
d="M1732 340h-990v-318h374q48 -1 65.5 -22.5t16.5 -58.5q-1 -54 -63.5 -97t-170.5 -43h-250q-141 0 -208.5 77.5t-67.5 198.5v480h-318v-523q0 -158 71 -288.5t206 -207.5t317 -77h250q178 0 301 74t182.5 183t60.5 215q0 39 -3 67h227v340zM147 756l478 183l-60 158
l-147 -56q-45 -7 -77.5 10.5t-31.5 64.5q0 30 18 56.5t51 27.5q24 0 46 -7t53 -22q7 -3 10 -4l44 159q-46 24 -79.5 34t-73.5 10q-71 0 -125.5 -37t-84 -95.5t-29.5 -121.5q0 -43 17.5 -85t52.5 -69l-122 -47z" />
    <glyph glyph-name="uniFEF5" unicode="&#xfedf;&#xfe82;" horiz-adv-x="1300" arabic-form="isolated" 
d="M484 451v843h-318v-843h318zM166 340v-340h537q117 0 216 57.5t157 156.5t58 216v1024h-319v-1003q0 -46 -32.5 -78.5t-79.5 -32.5h-537zM95 1479q14 31 41.5 50t61.5 18h480v213h-480q-100 0 -182 -55.5t-118 -147.5l-73 -182l198 -79z" />
    <glyph glyph-name="uniFEF6" unicode="&#xfee0;&#xfe82;" horiz-adv-x="1310" arabic-form="final" 
d="M1310 340h-65q-46 0 -78.5 32.5t-32.5 78.5v1003h-319v-1003q0 -46 -32.5 -78.5t-79.5 -32.5h-537v-340h537q89 0 154.5 34.5t117.5 99.5q51 -65 116.5 -99.5t153.5 -34.5h65v340zM484 451v843h-318v-843h318zM95 1479q14 31 41.5 50t61.5 18h480v213h-480
q-100 0 -182 -55.5t-118 -147.5l-73 -182l198 -79z" />
    <glyph glyph-name="uniFEF7" unicode="&#xfedf;&#x675;" horiz-adv-x="1300" arabic-form="isolated" 
d="M484 451v843h-318v-843h318zM166 340v-340h537q117 0 216 57.5t157 156.5t58 216v1024h-319v-1003q0 -46 -32.5 -78.5t-79.5 -32.5h-537zM96 1469l478 183l-60 158l-147 -56q-45 -7 -77.5 10.5t-31.5 64.5q0 30 18 56.5t51 27.5q24 0 46 -7t53 -22q7 -3 10 -4l44 159
q-46 24 -79.5 34t-73.5 10q-71 0 -125.5 -37t-84 -95.5t-29.5 -121.5q0 -43 17.5 -85t52.5 -69l-122 -47z" />
    <glyph glyph-name="uniFEF8" unicode="&#xfee0;&#x675;" horiz-adv-x="1310" arabic-form="final" 
d="M1310 340h-65q-46 0 -78.5 32.5t-32.5 78.5v1003h-319v-1003q0 -46 -32.5 -78.5t-79.5 -32.5h-537v-340h537q89 0 154.5 34.5t117.5 99.5q51 -65 116.5 -99.5t153.5 -34.5h65v340zM484 451v843h-318v-843h318zM96 1469l478 183l-60 158l-147 -56q-45 -7 -77.5 10.5
t-31.5 64.5q0 30 18 56.5t51 27.5q24 0 46 -7t53 -22q7 -3 10 -4l44 159q-46 24 -79.5 34t-73.5 10q-71 0 -125.5 -37t-84 -95.5t-29.5 -121.5q0 -43 17.5 -85t52.5 -69l-122 -47z" />
    <glyph glyph-name="uniFEF9" unicode="&#xfedf;&#xfe88;" horiz-adv-x="1300" arabic-form="isolated" 
d="M484 451v1003h-318v-1003h318zM166 340v-340h537q117 0 216 57.5t157 156.5t58 216v1024h-319v-1003q0 -46 -32.5 -78.5t-79.5 -32.5h-537zM160 -821l478 183l-60 158l-147 -56q-45 -7 -77.5 10.5t-31.5 64.5q0 30 18 56.5t51 27.5q24 0 46 -7t53 -22q7 -3 10 -4l44 159
q-46 24 -79.5 34t-73.5 10q-71 0 -125.5 -37t-84 -95.5t-29.5 -121.5q0 -43 17.5 -85t52.5 -69l-122 -47z" />
    <glyph glyph-name="uniFEFA" unicode="&#xfee0;&#xfe88;" horiz-adv-x="1310" arabic-form="final" 
d="M166 340v-340h537q89 0 154.5 34.5t117.5 99.5q51 -65 116.5 -99.5t153.5 -34.5h65v340h-65q-46 0 -78.5 32.5t-32.5 78.5v1003h-319v-1003q0 -46 -32.5 -78.5t-79.5 -32.5h-537zM484 451v1003h-318v-1003h318zM159 -821l478 183l-60 158l-147 -56q-45 -7 -77.5 10.5
t-31.5 64.5q0 30 18 56.5t51 27.5q24 0 46 -7t53 -22q7 -3 10 -4l44 159q-46 24 -79.5 34t-73.5 10q-71 0 -125.5 -37t-84 -95.5t-29.5 -121.5q0 -43 17.5 -85t52.5 -69l-122 -47z" />
    <glyph glyph-name="uniFEFB" unicode="&#xfedf;&#xfe8e;" horiz-adv-x="1300" arabic-form="isolated" 
d="M484 451v1003h-318v-1003h318zM166 340v-340h537q117 0 216 57.5t157 156.5t58 216v1024h-319v-1003q0 -46 -32.5 -78.5t-79.5 -32.5h-537z" />
    <glyph glyph-name="uniFEFC" unicode="&#xfee0;&#xfe8e;" horiz-adv-x="1309" arabic-form="final" 
d="M166 340v-340h537q89 0 154.5 34.5t117.5 99.5q51 -65 116.5 -99.5t153.5 -34.5h65v340h-65q-46 0 -78.5 32.5t-32.5 78.5v1003h-319v-1003q0 -46 -32.5 -78.5t-79.5 -32.5h-537zM484 451v1003h-318v-1003h318z" />
    <glyph glyph-name="uni064406440647" unicode="&#xfedf;&#xfee0;&#xfeea;" horiz-adv-x="2508" 
d="M1757 234q-15 -64 0 -128.5t57 -105.5h118q117 0 216 57.5t156.5 156.5t57.5 216v1024h-318v-1003q0 -46 -33 -78.5t-79 -32.5h-118q-42 -42 -57 -106zM1109 234q-15 -64 0 -128.5t57 -105.5h54q87 0 152.5 34.5t117.5 99.5q52 -65 117.5 -99.5t153.5 -34.5h53v340h-53
q-46 0 -79 32.5t-33 78.5v730h-318v-730q0 -46 -33 -78.5t-78 -32.5h-54q-42 -42 -57 -106zM1412 1371q36 25 65 73q49 -44 116 -44h13q60 0 111 30t80.5 81t29.5 110v200h-170v-200q0 -21 -15 -35.5t-36 -14.5h-13q-21 0 -35.5 14.5t-14.5 35.5v146h-170v-200
q0 -21 -14.5 -35.5t-35.5 -14.5h-13q-21 0 -36 14.5t-15 35.5v200h-170v-200q0 -60 29.5 -110.5t80.5 -80.5t111 -30h13q53 0 89 25zM1366 1873h170v419h-170v-419zM1114 0h105v340h-107q-32 0 -55.5 20.5t-27.5 51.5l-107 728l-316 -45l13 -94q-159 -21 -280 -98.5
t-183 -201t-50 -276.5q9 -112 73 -193.5t166.5 -118t224.5 -18t240 95.5q105 -191 304 -191zM700 441q-72 -43 -134.5 -49.5t-101 12.5t-40.5 47q-8 104 59 162t182 70z" />
    <glyph glyph-name="uni0621" unicode="&#x621;" horiz-adv-x="1097" arabic-form="isolated" 
d="M224 -22l754 293l-103 268l-276 -107q-74 7 -106.5 45t-32.5 86q0 45 23 83.5t68 50.5q80 23 187 -63l108 264q-42 31 -113 58.5t-166 27.5q-116 0 -206 -61.5t-139 -158.5t-49 -201q0 -74 27 -142t80 -114l-159 -60z" />
    <glyph glyph-name="uni0622" unicode="&#x622;" horiz-adv-x="651" arabic-form="isolated" 
d="M166 0h318v1294h-318v-1294zM95 1479q14 31 41.5 50t61.5 18h480v213h-480q-100 0 -182 -55.5t-118 -147.5l-73 -182l198 -79z" />
    <glyph glyph-name="uni0623" unicode="&#x623;" horiz-adv-x="650" arabic-form="isolated" 
d="M166 0h318v1294h-318v-1294zM96 1469l478 183l-60 158l-147 -56q-45 -7 -77.5 10.5t-31.5 64.5q0 30 18 56.5t51 27.5q24 0 46 -7t53 -22q7 -3 10 -4l44 159q-46 24 -79.5 34t-73.5 10q-71 0 -125.5 -37t-84 -95.5t-29.5 -121.5q0 -43 17.5 -85t52.5 -69l-122 -47z" />
    <glyph glyph-name="uni0624" unicode="&#x624;" horiz-adv-x="1138" arabic-form="isolated" 
d="M566 340q-58 0 -86.5 11.5t-37 31t-8.5 53.5q0 58 27 114t105 56q76 0 105 -52t29 -118v-96h-134zM1018 436q0 142 -57.5 253.5t-160.5 173.5t-234 62q-129 0 -232 -63t-161.5 -174.5t-58.5 -251.5q0 -436 452 -436h130q0 -56 -28 -101.5t-76.5 -71t-107.5 -25.5h-360
v-340h360q129 0 253.5 78t202.5 206.5t78 271.5v418zM357 1062l478 183l-60 158l-147 -56q-45 -7 -77.5 10.5t-31.5 64.5q0 30 18 56.5t51 27.5q24 0 46 -7t53 -22q7 -3 10 -4l44 159q-46 24 -79.5 34t-73.5 10q-71 0 -125.5 -37t-84 -95.5t-29.5 -121.5q0 -43 17.5 -85
t52.5 -69l-122 -47z" />
    <glyph glyph-name="uni0625" unicode="&#x625;" horiz-adv-x="650" arabic-form="isolated" 
d="M166 0h318v1454h-318v-1454zM96 -821l478 183l-60 158l-147 -56q-45 -7 -77.5 10.5t-31.5 64.5q0 30 18 56.5t51 27.5q24 0 46 -7t53 -22q7 -3 10 -4l44 159q-46 24 -79.5 34t-73.5 10q-71 0 -125.5 -37t-84 -95.5t-29.5 -121.5q0 -43 17.5 -85t52.5 -69l-122 -47z" />
    <glyph glyph-name="uni0627" unicode="&#x627;" horiz-adv-x="650" arabic-form="isolated" 
d="M166 0h318v1454h-318v-1454z" />
    <glyph glyph-name="uni0628" unicode="&#x628;" horiz-adv-x="1757" arabic-form="isolated" 
d="M1207 0q117 0 215.5 55t156.5 149t58 205v387h-318v-345q0 -46 -33 -78.5t-79 -32.5h-657q-46 0 -78.5 32.5t-32.5 78.5v345h-319v-387q0 -111 58 -205t156.5 -149t215.5 -55h657zM985 -234q-44 44 -106 44t-106 -44t-44 -106t44 -106t106 -44t106 44t44 106t-44 106z
" />
    <glyph glyph-name="uni0629" unicode="&#x629;" horiz-adv-x="1119" arabic-form="isolated" 
d="M667.5 493.5q27.5 -58.5 27.5 -90.5q0 -51 -43 -77.5t-90 -26.5q-48 0 -90.5 28.5t-42.5 75.5q0 62 43.5 125.5t89.5 107.5q78 -84 105.5 -142.5zM184 654q-75 -112 -75 -251q0 -115 61 -212.5t165 -155t227 -57.5q114 0 218.5 52t169.5 149t65 224q0 299 -420 638
l-124 101l-201 -246l76 -62q-87 -68 -162 -180zM467 1531q-44 44 -106 44t-106 -44t-44 -106t44 -106t106 -44t106 44t44 106t-44 106zM827 1531q-44 44 -106 44t-106 -44t-44 -106t44 -106t106 -44t106 44t44 106t-44 106z" />
    <glyph glyph-name="uni062A" unicode="&#x62a;" horiz-adv-x="1757" arabic-form="isolated" 
d="M1207 0q117 0 215.5 55t156.5 149t58 205v387h-318v-345q0 -46 -33 -78.5t-79 -32.5h-657q-46 0 -78.5 32.5t-32.5 78.5v345h-319v-387q0 -111 58 -205t156.5 -149t215.5 -55h657zM805 1142q-44 44 -106 44t-106 -44t-44 -106t44 -106t106 -44t106 44t44 106t-44 106z
M1165 1142q-44 44 -106 44t-106 -44t-44 -106t44 -106t106 -44t106 44t44 106t-44 106z" />
    <glyph glyph-name="uni062B" unicode="&#x62b;" horiz-adv-x="1757" arabic-form="isolated" 
d="M1207 0q117 0 215.5 55t156.5 149t58 205v387h-318v-345q0 -46 -33 -78.5t-79 -32.5h-657q-46 0 -78.5 32.5t-32.5 78.5v345h-319v-387q0 -111 58 -205t156.5 -149t215.5 -55h657zM805 1143q-44 44 -106 44t-106 -44t-44 -106t44 -106t106 -44t106 44t44 106t-44 106z
M1165 1143q-44 44 -106 44t-106 -44t-44 -106t44 -106t106 -44t106 44t44 106t-44 106zM985 1443q-44 44 -106 44t-106 -44t-44 -106t44 -106t106 -44t106 44t44 106t-44 106z" />
    <glyph glyph-name="uni062C" unicode="&#x62c;" horiz-adv-x="1351" arabic-form="isolated" 
d="M576 483q-164 -64 -271.5 -161.5t-155.5 -212t-41 -231.5q10 -156 82 -273.5t204.5 -183t318.5 -65.5h497v339h-497q-123 0 -190 43.5t-82 103.5q-24 98 29 182.5t220 160.5l570 263l13 347l-98 58.5t-214.5 121t-213.5 101.5q-110 46 -220.5 31t-201 -85.5
t-141.5 -184.5l-33 -74l291 -131l33 74q18 40 55 70.5t95 6.5q71 -30 270 -118q49 -21 74 -32zM979 67q-44 44 -106 44t-106 -44t-44 -106t44 -106t106 -44t106 44t44 106t-44 106z" />
    <glyph glyph-name="uni062D" unicode="&#x62d;" horiz-adv-x="1354" arabic-form="isolated" 
d="M430 426q-145 -56 -233 -183.5t-88 -282.5q0 -136 67 -250t181.5 -181t249.5 -67h603v339h-603q-59 0 -103 22.5t-63 71.5q-27 69 3 135t100 97l716 322l13 346l-98 58.5t-214.5 121t-213.5 101.5q-110 46 -220.5 31t-201 -85.5t-141.5 -184.5l-33 -74l291 -131l33 74
q18 40 55 70.5t95 6.5q71 -30 270 -117q49 -22 74 -33z" />
    <glyph glyph-name="uni062E" unicode="&#x62e;" horiz-adv-x="1354" arabic-form="isolated" 
d="M430 426q-145 -56 -233 -183.5t-88 -282.5q0 -136 67 -250t181.5 -181t249.5 -67h603v339h-603q-59 0 -103 22.5t-63 71.5q-27 69 3 135t100 97l716 322l13 346l-98 58.5t-214.5 121t-213.5 101.5q-110 46 -220.5 31t-201 -85.5t-141.5 -184.5l-33 -74l291 -131l33 74
q18 40 55 70.5t95 6.5q71 -30 270 -117q49 -22 74 -33zM746 1545q-44 44 -106 44t-106 -44t-44 -106t44 -106t106 -44t106 44t44 106t-44 106z" />
    <glyph glyph-name="uni062F" unicode="&#x62f;" horiz-adv-x="1155" arabic-form="isolated" 
d="M873 57q89 57 137 150t41 199t-76 197l-404 531l-253 -194l403 -529q14 -18 11.5 -40t-18 -37.5t-39.5 -15.5h-609v-318h609q109 0 198 57z" />
    <glyph glyph-name="uni0630" unicode="&#x630;" horiz-adv-x="1155" arabic-form="isolated" 
d="M873 57q89 57 137 150t41 199t-76 197l-404 531l-253 -194l403 -529q14 -18 11.5 -40t-18 -37.5t-39.5 -15.5h-609v-318h609q109 0 198 57zM667 1556q-44 44 -106 44t-106 -44t-44 -106t44 -106t106 -44t106 44t44 106t-44 106z" />
    <glyph glyph-name="uni0631" unicode="&#x631;" horiz-adv-x="808" arabic-form="isolated" 
d="M96 -538q160 0 296.5 82t216.5 218.5t80 291.5v699h-319v-656q0 -74 -37.5 -142.5t-100.5 -110.5t-136 -42h-107v-340h107z" />
    <glyph glyph-name="uni0632" unicode="&#x632;" horiz-adv-x="808" arabic-form="isolated" 
d="M96 -538q160 0 296.5 82t216.5 218.5t80 291.5v699h-319v-656q0 -74 -37.5 -142.5t-100.5 -110.5t-136 -42h-107v-340h107zM636 1209q-44 44 -106 44t-106 -44t-44 -106t44 -106t106 -44t106 44t44 106t-44 106z" />
    <glyph glyph-name="uni0633" unicode="&#x633;" horiz-adv-x="2647" arabic-form="isolated" 
d="M1562 0q81 0 143.5 34.5t115.5 102.5q52 -67 115 -102t144 -35h28q116 0 212 57.5t151.5 156t55.5 216.5v366h-318v-345q0 -47 -28 -79t-73 -32h-28q-44 0 -72 32t-28 79v302h-318v-302q0 -47 -28 -79t-72 -32h-27q-46 0 -74 32t-28 79v301h-318v-655q0 -79 -32.5 -146.5
t-99 -108.5t-163.5 -41h-86q-98 0 -164.5 41t-98.5 108.5t-32 146.5v460h-319v-503q0 -159 75.5 -295t215 -217t323.5 -81h86q178 0 314.5 76t213.5 204t85 281v1q42 -23 102 -23h27z" />
    <glyph glyph-name="uni0634" unicode="&#x634;" horiz-adv-x="2647" arabic-form="isolated" 
d="M1562 0q81 0 143.5 34.5t115.5 102.5q52 -67 115 -102t144 -35h28q116 0 212 57.5t151.5 156t55.5 216.5v366h-318v-345q0 -47 -28 -79t-73 -32h-28q-44 0 -72 32t-28 79v302h-318v-302q0 -47 -28 -79t-72 -32h-27q-46 0 -74 32t-28 79v301h-318v-655q0 -79 -32.5 -146.5
t-99 -108.5t-163.5 -41h-86q-98 0 -164.5 41t-98.5 108.5t-32 146.5v460h-319v-503q0 -159 75.5 -295t215 -217t323.5 -81h86q178 0 314.5 76t213.5 204t85 281v1q42 -23 102 -23h27zM1747 1209q-44 44 -106 44t-106 -44t-44 -106t44 -106t106 -44t106 44t44 106t-44 106z
M2107 1209q-44 44 -106 44t-106 -44t-44 -106t44 -106t106 -44t106 44t44 106t-44 106zM1927 1509q-44 44 -106 44t-106 -44t-44 -106t44 -106t106 -44t106 44t44 106t-44 106z" />
    <glyph glyph-name="uni0635" unicode="&#x635;" horiz-adv-x="2669" arabic-form="isolated" 
d="M2312 62.5q116 62.5 182 172t66 244.5q0 112 -50.5 224.5t-164 186.5t-291.5 68q-238 -9 -383.5 -196t-217.5 -392q-20 29 -20 60v322h-318v-655q0 -79 -32.5 -146.5t-99 -108.5t-163.5 -41h-86q-98 0 -164.5 41t-98.5 108.5t-32 146.5v460h-319v-503q0 -159 75.5 -295
t215 -217t323.5 -81h86q184 0 323.5 81t214.5 217t75 295v4q110 -58 218 -58h402q143 0 259 62.5zM2065 639q78 1 127 -32.5t49 -127.5q0 -76 -53 -107.5t-135 -31.5h-279q140 294 291 299z" />
    <glyph glyph-name="uni0636" unicode="&#x636;" horiz-adv-x="2669" arabic-form="isolated" 
d="M2312 62.5q116 62.5 182 172t66 244.5q0 112 -50.5 224.5t-164 186.5t-291.5 68q-238 -9 -383.5 -196t-217.5 -392q-20 29 -20 60v322h-318v-655q0 -79 -32.5 -146.5t-99 -108.5t-163.5 -41h-86q-98 0 -164.5 41t-98.5 108.5t-32 146.5v460h-319v-503q0 -159 75.5 -295
t215 -217t323.5 -81h86q184 0 323.5 81t214.5 217t75 295v4q110 -58 218 -58h402q143 0 259 62.5zM2065 639q78 1 127 -32.5t49 -127.5q0 -76 -53 -107.5t-135 -31.5h-279q140 294 291 299zM2147 1401q-44 44 -106 44t-106 -44t-44 -106t44 -106t106 -44t106 44t44 106
t-44 106z" />
    <glyph glyph-name="uni0637" unicode="&#x637;" horiz-adv-x="1566" arabic-form="isolated" 
d="M348 377q-3 -8 -8 -20q-5 -13 -6 -17h-214v-340h830q143 0 258.5 62.5t182 172t66.5 244.5q0 112 -52 225.5t-166 187.5t-288 66q-162 -7 -300 -120l15 134v482h-318v-1077zM670 340q34 71 75.5 135.5t97.5 113t119 50.5q177 7 177 -160q0 -76 -53.5 -107.5t-135.5 -31.5
h-280z" />
    <glyph glyph-name="uni0638" unicode="&#x638;" horiz-adv-x="1566" arabic-form="isolated" 
d="M348 377q-3 -8 -8 -20q-5 -13 -6 -17h-214v-340h830q143 0 258.5 62.5t182 172t66.5 244.5q0 112 -52 225.5t-166 187.5t-288 66q-162 -7 -300 -120l15 134v482h-318v-1077zM670 340q34 71 75.5 135.5t97.5 113t119 50.5q177 7 177 -160q0 -76 -53.5 -107.5t-135.5 -31.5
h-280zM1168 1401q-44 44 -106 44t-106 -44t-44 -106t44 -106t106 -44t106 44t44 106t-44 106z" />
    <glyph glyph-name="uni0639" unicode="&#x639;" horiz-adv-x="1221" arabic-form="isolated" 
d="M1101 -199h-475q-84 0 -141 48.5t-57 128.5q0 54 26.5 99.5t72.5 72.5t99 27h444v340h-357q-69 10 -104 41t-35 87q0 62 34.5 110.5t98.5 55.5q56 6 98.5 -7.5t121.5 -60.5l105 306q-73 46 -159.5 68t-200.5 10q-119 -13 -214 -79.5t-149 -172t-54 -230.5
q0 -71 27.5 -136.5t77.5 -119.5q-120 -75 -185.5 -175.5t-65.5 -235.5q0 -140 69.5 -258.5t188.5 -188t259 -69.5h475v339z" />
    <glyph glyph-name="uni063A" unicode="&#x63a;" horiz-adv-x="1221" arabic-form="isolated" 
d="M1101 -199h-475q-84 0 -141 48.5t-57 128.5q0 54 26.5 99.5t72.5 72.5t99 27h444v340h-357q-69 10 -104 41t-35 87q0 62 34.5 110.5t98.5 55.5q56 6 98.5 -7.5t121.5 -60.5l105 306q-73 46 -159.5 68t-200.5 10q-119 -13 -214 -79.5t-149 -172t-54 -230.5
q0 -71 27.5 -136.5t77.5 -119.5q-120 -75 -185.5 -175.5t-65.5 -235.5q0 -140 69.5 -258.5t188.5 -188t259 -69.5h475v339zM802 1565q-44 44 -106 44t-106 -44t-44 -106t44 -106t106 -44t106 44t44 106t-44 106z" />
    <glyph glyph-name="uni0641" unicode="&#x641;" horiz-adv-x="1847" arabic-form="isolated" 
d="M1527.5 55.5q87.5 55.5 143.5 173t56 293.5q0 129 -59.5 233.5t-163 164t-229.5 59.5q-121 0 -225.5 -58.5t-166 -160t-60.5 -223.5q0 -53 19 -106t55 -91h-347q-46 0 -78.5 32.5t-32.5 78.5v345h-319v-387q0 -111 58 -205t156.5 -149t215.5 -55h793q97 0 184.5 55.5z
M1208.5 403q-45.5 35 -56.5 67t-11 69q0 52 40.5 87t93.5 35q55 0 94 -34t39 -105q0 -47 -12 -107.5t-50 -72.5q-92 26 -137.5 61zM1381 1380q-44 44 -106 44t-106 -44t-44 -106t44 -106t106 -44t106 44t44 106t-44 106z" />
    <glyph glyph-name="uni0642.1" unicode="&#x642;" horiz-adv-x="1714" arabic-form="isolated" 
d="M1376 863q103 -62 160.5 -173.5t57.5 -253.5v-418q0 -142 -78.5 -271t-202.5 -207t-253 -78h-326q-184 0 -324 81t-215 216.5t-75 295.5v503h318v-460q0 -79 32.5 -146.5t99 -108.5t164.5 -41h326q59 0 107.5 26t76 71t27.5 101h-129q-452 0 -452 436q0 140 58.5 251.5
t161.5 174.5t232 63q131 0 234 -62zM1275 436q0 66 -28.5 118.5t-104.5 52.5q-78 0 -105.5 -56.5t-27.5 -114.5q0 -33 9 -53t37.5 -31.5t86.5 -11.5h133v96zM1068 1326q-44 44 -106 44t-106 -44t-44 -106t44 -106t106 -44t106 44t44 106t-44 106zM1428 1326q-44 44 -106 44
t-106 -44t-44 -106t44 -106t106 -44t106 44t44 106t-44 106z" />
    <glyph glyph-name="uni0643" unicode="&#x643;" horiz-adv-x="1765" arabic-form="isolated" 
d="M1415 55q99 55 156.5 149t57.5 205v1045h-318v-1003q0 -46 -33 -78.5t-78 -32.5h-650q-46 0 -78.5 32.5t-32.5 78.5v345h-319v-387q0 -111 58 -205t156.5 -149t215.5 -55h650q116 0 215 55zM665 636l478 183l-60 158l-147 -56q-45 -7 -77.5 10.5t-31.5 64.5q0 30 18 56.5
t51 27.5q24 0 46 -7t53 -22q7 -3 10 -4l44 159q-46 24 -79.5 34t-73.5 10q-71 0 -125.5 -37t-84 -95.5t-29.5 -121.5q0 -43 17.5 -85t52.5 -69l-122 -47z" />
    <glyph glyph-name="uni0644" unicode="&#x644;" horiz-adv-x="1599" arabic-form="isolated" 
d="M820 -539q184 0 323.5 81t214.5 217t75 295v1400h-318v-1357q0 -79 -32.5 -146.5t-99 -108.5t-163.5 -41h-86q-98 0 -164.5 41t-98.5 108.5t-32 146.5v440h-319v-483q0 -159 75.5 -295t215 -217t323.5 -81h86z" />
    <glyph glyph-name="uni0645" unicode="&#x645;" horiz-adv-x="1607" arabic-form="isolated" 
d="M439 473q0 61 42 103t102 42h26q-5 -62 -5 -154q-1 -144 49.5 -251t149 -165.5t238.5 -58.5q132 0 236 60t162.5 168t58.5 246q0 136 -58 244t-161.5 169t-235.5 60h-460q-126 0 -232.5 -62t-168.5 -168.5t-62 -232.5v-1011h319v1011zM1148 571.5q31 -44.5 31 -108.5
q0 -156 -138 -156q-140 0 -139 155v156h139q76 -2 107 -46.5z" />
    <glyph glyph-name="uni0646" unicode="&#x646;" horiz-adv-x="1554" arabic-form="isolated" 
d="M820 -539q184 0 323.5 81t214.5 217t75 295v698h-318v-655q0 -79 -32.5 -146.5t-99 -108.5t-163.5 -41h-86q-98 0 -164.5 41t-98.5 108.5t-32 146.5v460h-319v-503q0 -159 75.5 -295t215 -217t323.5 -81h86zM830 981q-44 44 -106 44t-106 -44t-44 -106t44 -106t106 -44
t106 44t44 106t-44 106z" />
    <glyph glyph-name="uni0647" unicode="&#x647;" horiz-adv-x="1119" arabic-form="isolated" 
d="M667.5 493.5q27.5 -58.5 27.5 -90.5q0 -51 -43 -77.5t-90 -26.5q-48 0 -90.5 28.5t-42.5 75.5q0 62 43.5 125.5t89.5 107.5q78 -84 105.5 -142.5zM184 654q-75 -112 -75 -251q0 -115 61 -212.5t165 -155t227 -57.5q114 0 218.5 52t169.5 149t65 224q0 299 -420 638
l-124 101l-201 -246l76 -62q-87 -68 -162 -180z" />
    <glyph glyph-name="uni0648" unicode="&#x648;" horiz-adv-x="1138" arabic-form="isolated" 
d="M566 340q-58 0 -86.5 11.5t-37 31t-8.5 53.5q0 58 27 114t105 56q76 0 105 -52t29 -118v-96h-134zM1018 436q0 142 -57.5 253.5t-160.5 173.5t-234 62q-129 0 -232 -63t-161.5 -174.5t-58.5 -251.5q0 -436 452 -436h130q0 -56 -28 -101.5t-76.5 -71t-107.5 -25.5h-360
v-340h360q129 0 253.5 78t202.5 206.5t78 271.5v418z" />
    <glyph glyph-name="uni0649" unicode="&#x649;" horiz-adv-x="1637" arabic-form="isolated" 
d="M1471.5 248.5q-56.5 79.5 -141 105.5t-195.5 26h-132v126q0 51 33 84t84 33h343v320h-343q-120 0 -220 -58t-158 -158t-58 -221v-444h446q41 -1 60 -13.5t18 -50.5q0 -43 -29 -87.5t-103.5 -77t-202.5 -32.5h-149q-96 0 -160 39.5t-95 104.5t-31 142v470h-318v-513
q0 -157 73.5 -290.5t211 -213t319.5 -79.5h149q252 0 398 95.5t201 222.5t56 240q0 150 -56.5 229.5z" />
    <glyph glyph-name="uni064A" unicode="&#x64a;" horiz-adv-x="1637" arabic-form="isolated" 
d="M1471.5 248.5q-56.5 79.5 -141 105.5t-195.5 26h-132v126q0 51 33 84t84 33h343v320h-343q-120 0 -220 -58t-158 -158t-58 -221v-444h446q41 -1 60 -13.5t18 -50.5q0 -43 -29 -87.5t-103.5 -77t-202.5 -32.5h-149q-96 0 -160 39.5t-95 104.5t-31 142v470h-318v-513
q0 -157 73.5 -290.5t211 -213t319.5 -79.5h149q252 0 398 95.5t201 222.5t56 240q0 150 -56.5 229.5zM737 -739q-44 44 -106 44t-106 -44t-44 -106t44 -106t106 -44t106 44t44 106t-44 106zM1097 -739q-44 44 -106 44t-106 -44t-44 -106t44 -106t106 -44t106 44t44 106
t-44 106z" />
    <glyph glyph-name="uni064B" unicode="&#xfe70;" horiz-adv-x="0" arabic-form="isolated" 
d="M-299 1834l553 220l-63 157l-553 -218zM-407 2137l553 220l-63 157l-553 -218z" />
    <glyph glyph-name="uni064C" unicode="&#xfe72;" horiz-adv-x="0" arabic-form="isolated" 
d="M47 1918l20 -47l157 63l-19 46l74 28q96 41 135 131.5t3 189.5q-41 97 -131.5 136t-190.5 4q-96 -42 -135.5 -133t-2.5 -190l28 -70l-80 -31l-6 114q-4 70 -39 125.5t-93 71.5t-127 -23l-75 -43l85 -147l74 41q10 6 18 0.5t7 -17.5l-32 -242l114 -91zM219 2309
q28 -14 40 -43q11 -30 -1 -59t-42 -41l-73 -27l-27 70q-12 31 0.5 60.5t43.5 41.5t59 -2z" />
    <glyph glyph-name="uni064D" unicode="&#xfe74;" horiz-adv-x="0" arabic-form="isolated" 
d="M-407 -924l553 219l-63 158l-553 -219zM-299 -1227l553 219l-63 158l-553 -219z" />
    <glyph glyph-name="uni064E" unicode="&#xfe76;" horiz-adv-x="0" arabic-form="isolated" 
d="M-245 1834l553 220l-63 157l-553 -218z" />
    <glyph glyph-name="uni064F" unicode="&#xfe78;" horiz-adv-x="0" arabic-form="isolated" 
d="M-52 1921l18 -46l158 63l-18 46l72 28q97 42 136 133t3 190q-41 96 -131.5 135.5t-189.5 2.5q-97 -41 -136.5 -132t-2.5 -189l27 -72l-219 -87l63 -159zM130 2306.5q20 -13.5 29 -34.5q12 -30 -1 -59.5t-42 -41.5l-73 -29l-29 73q-12 38 9.5 71.5t62.5 33.5
q24 0 44 -13.5z" />
    <glyph glyph-name="uni0650" unicode="&#xfe7a;" horiz-adv-x="0" arabic-form="isolated" 
d="M-245 -924l553 219l-63 158l-553 -219z" />
    <glyph glyph-name="uni0651" unicode="&#xfe7c;" horiz-adv-x="0" arabic-form="isolated" 
d="M-46 1859q36 25 65 73q49 -44 116 -44h13q60 0 111 30t80.5 81t29.5 110v200h-170v-200q0 -21 -15 -35.5t-36 -14.5h-13q-21 0 -35.5 14.5t-14.5 35.5v146h-170v-200q0 -21 -14.5 -35.5t-35.5 -14.5h-13q-21 0 -36 14.5t-15 35.5v200h-170v-200q0 -60 29.5 -110.5
t80.5 -80.5t111 -30h13q53 0 89 25z" />
    <glyph glyph-name="uni0652" unicode="&#xfe7e;" horiz-adv-x="0" arabic-form="isolated" 
d="M138 1871q63 37 100 100t37 138t-37 138t-100 100t-138 37t-138 -37t-100 -100t-37 -138t37 -138t100 -100t138 -37t138 37zM74 2182.5q31 -30.5 31 -73.5t-31 -73.5t-74 -30.5t-74 30.5t-31 73.5q0 44 30.5 74t74.5 30q43 0 74 -30.5z" />
    <glyph glyph-name="uni0671" unicode="&#x671;" horiz-adv-x="651" arabic-form="isolated" 
d="M166 0h318v1294h-318v-1294zM345 1738q35 44 72 44q50 0 68 -30t18 -64q0 -23 -26 -39.5t-63 -16.5h-131q27 62 62 106zM109 1763v86h-169v-86q0 -69 33.5 -139t90.5 -116t123 -46h227q71 0 130.5 30t93.5 81.5t34 114.5q0 75 -33 135.5t-91 94.5t-132 34
q-105 0 -176 -76.5t-113 -176.5q-18 32 -18 64z" />
    <glyph glyph-name="uni0675" unicode="&#x623;" horiz-adv-x="692" arabic-form="final" 
d="M693 340h-107q-45 0 -73.5 32t-28.5 79v843h-318v-885q0 -110 49.5 -203.5t145 -149.5t225.5 -56h107v340zM97 1469l478 183l-60 158l-147 -56q-45 -7 -77.5 10.5t-31.5 64.5q0 30 18 56.5t51 27.5q24 0 46 -7t53 -22q7 -3 10 -4l44 159q-46 24 -79.5 34t-73.5 10
q-71 0 -125.5 -37t-84 -95.5t-29.5 -121.5q0 -43 17.5 -85t52.5 -69l-122 -47z" />
    <glyph glyph-name="uni0679" unicode="&#x679;" horiz-adv-x="1757" arabic-form="isolated" 
d="M1207 0q117 0 215.5 55t156.5 149t58 205v387h-318v-345q0 -46 -33 -78.5t-79 -32.5h-657q-46 0 -78.5 32.5t-32.5 78.5v345h-319v-387q0 -111 58 -205t156.5 -149t215.5 -55h657zM866 1074.5q34 43.5 72 43.5q50 0 68.5 -30t18.5 -63q0 -23 -26.5 -39.5t-63.5 -16.5
h-130q27 62 61 105.5zM624 979v-8v-2h-60v-170h371q72 0 131.5 29.5t94 81.5t33.5 115q0 75 -32.5 135t-91 94.5t-132.5 34.5q-77 0 -144 -51v245h-170v-504z" />
    <glyph glyph-name="uni067E" unicode="&#x67e;" horiz-adv-x="1757" arabic-form="isolated" 
d="M1207 0q117 0 215.5 55t156.5 149t58 205v387h-318v-345q0 -46 -33 -78.5t-79 -32.5h-657q-46 0 -78.5 32.5t-32.5 78.5v345h-319v-387q0 -111 58 -205t156.5 -149t215.5 -55h657zM805 -190q-44 44 -106 44t-106 -44t-44 -106t44 -106t106 -44t106 44t44 106t-44 106z
M1165 -190q-44 44 -106 44t-106 -44t-44 -106t44 -106t106 -44t106 44t44 106t-44 106zM985 -490q-44 44 -106 44t-106 -44t-44 -106t44 -106t106 -44t106 44t44 106t-44 106z" />
    <glyph glyph-name="uni0686" unicode="&#x686;" horiz-adv-x="1351" arabic-form="isolated" 
d="M576 483q-164 -64 -271.5 -161.5t-155.5 -212t-41 -231.5q10 -156 82 -273.5t204.5 -183t318.5 -65.5h497v339h-497q-123 0 -190 43.5t-82 103.5q-24 98 29 182.5t220 160.5l570 263l13 347l-98 58.5t-214.5 121t-213.5 101.5q-110 46 -220.5 31t-201 -85.5
t-141.5 -184.5l-33 -74l291 -131l33 74q18 40 55 70.5t95 6.5q71 -30 270 -118q49 -21 74 -32zM820 129q-32 32 -78 32t-78 -32t-32 -78t32 -78t78 -32t78 32t32 78t-32 78zM1108 175q-32 32 -78 32t-78 -32t-32 -78t32 -78t78 -32t78 32t32 78t-32 78zM1014 -44
q-32 32 -78 32t-78 -32t-32 -78t32 -78t78 -32t78 32t32 78t-32 78z" />
    <glyph glyph-name="uni0688" unicode="&#x688;" horiz-adv-x="1155" arabic-form="isolated" 
d="M873 57q89 57 137 150t41 199t-76 197l-404 531l-253 -194l403 -529q14 -18 11.5 -40t-18 -37.5t-39.5 -15.5h-609v-318h609q109 0 198 57zM548 1597.5q34 43.5 72 43.5q50 0 68.5 -30t18.5 -63q0 -23 -26.5 -39.5t-63.5 -16.5h-130q27 62 61 105.5zM306 1502v-8v-2h-60
v-170h371q72 0 131.5 29.5t94 81.5t33.5 115q0 75 -32.5 135t-91 94.5t-132.5 34.5q-77 0 -144 -51v245h-170v-504z" />
    <glyph glyph-name="uni0691" unicode="&#x691;" horiz-adv-x="808" arabic-form="isolated" 
d="M96 -538q160 0 296.5 82t216.5 218.5t80 291.5v699h-319v-656q0 -74 -37.5 -142.5t-100.5 -110.5t-136 -42h-107v-340h107zM517 1290.5q34 43.5 72 43.5q50 0 68.5 -30t18.5 -63q0 -23 -26.5 -39.5t-63.5 -16.5h-130q27 62 61 105.5zM275 1195v-8v-2h-60v-170h371
q72 0 131.5 29.5t94 81.5t33.5 115q0 75 -32.5 135t-91 94.5t-132.5 34.5q-77 0 -144 -51v245h-170v-504z" />
    <glyph glyph-name="uni0698" unicode="&#x698;" horiz-adv-x="808" arabic-form="isolated" 
d="M96 -538q160 0 296.5 82t216.5 218.5t80 291.5v699h-319v-656q0 -74 -37.5 -142.5t-100.5 -110.5t-136 -42h-107v-340h107zM456 1209q-44 44 -106 44t-106 -44t-44 -106t44 -106t106 -44t106 44t44 106t-44 106zM816 1209q-44 44 -106 44t-106 -44t-44 -106t44 -106
t106 -44t106 44t44 106t-44 106zM636 1509q-44 44 -106 44t-106 -44t-44 -106t44 -106t106 -44t106 44t44 106t-44 106z" />
    <glyph glyph-name="uni06A4" unicode="&#x6a4;" horiz-adv-x="1847" arabic-form="isolated" 
d="M1527.5 55.5q87.5 55.5 143.5 173t56 293.5q0 129 -59.5 233.5t-163 164t-229.5 59.5q-121 0 -225.5 -58.5t-166 -160t-60.5 -223.5q0 -53 19 -106t55 -91h-347q-46 0 -78.5 32.5t-32.5 78.5v345h-319v-387q0 -111 58 -205t156.5 -149t215.5 -55h793q97 0 184.5 55.5z
M1208.5 403q-45.5 35 -56.5 67t-11 69q0 52 40.5 87t93.5 35q55 0 94 -34t39 -105q0 -47 -12 -107.5t-50 -72.5q-92 26 -137.5 61zM1201 1380q-44 44 -106 44t-106 -44t-44 -106t44 -106t106 -44t106 44t44 106t-44 106zM1561 1380q-44 44 -106 44t-106 -44t-44 -106
t44 -106t106 -44t106 44t44 106t-44 106zM1381 1680q-44 44 -106 44t-106 -44t-44 -106t44 -106t106 -44t106 44t44 106t-44 106z" />
    <glyph glyph-name="uni06A9" unicode="&#x6a9;" horiz-adv-x="1787" arabic-form="isolated" 
d="M1290 0q120 0 211.5 63.5t135 164.5t26.5 211t-100 196l-373 391l520 199l-112 297l-745 -284v-319l459 -482q16 -18 16 -41t-15.5 -39.5t-42.5 -16.5h-720q-46 0 -78.5 32.5t-32.5 78.5v345h-319v-366q0 -117 58 -216t156.5 -156.5t215.5 -57.5h740z" />
    <glyph glyph-name="uni06AF" unicode="&#x6af;" horiz-adv-x="1787" arabic-form="isolated" 
d="M1290 0q120 0 211.5 63.5t135 164.5t26.5 211t-100 196l-373 391l520 199l-112 297l-745 -284v-319l459 -482q16 -18 16 -41t-15.5 -39.5t-42.5 -16.5h-720q-46 0 -78.5 32.5t-32.5 78.5v345h-319v-366q0 -117 58 -216t156.5 -156.5t215.5 -57.5h740zM1512 1608l-64 167
l-595 -217l1 -186z" />
    <glyph glyph-name="uni06BA" unicode="&#x6ba;" horiz-adv-x="1554" arabic-form="isolated" 
d="M820 -539q184 0 323.5 81t214.5 217t75 295v698h-318v-655q0 -79 -32.5 -146.5t-99 -108.5t-163.5 -41h-86q-98 0 -164.5 41t-98.5 108.5t-32 146.5v460h-319v-503q0 -159 75.5 -295t215 -217t323.5 -81h86z" />
    <glyph glyph-name="uni06BE" unicode="&#x6be;" horiz-adv-x="1626" arabic-form="isolated" 
d="M1187 466q20 -31 14.5 -60t-31 -47.5t-62.5 -18.5h-155q31 39 48 98.5t17 126.5q0 119 -61 217.5t-165.5 156t-230.5 57.5t-230.5 -57.5t-165.5 -156t-61 -217.5q0 -54 18.5 -142.5t72 -186.5t160 -167t270.5 -69h483q119 0 214 59.5t148 157t51.5 209.5t-65.5 212
l-319 494l-268 -172zM654.5 649.5q44.5 -26.5 44.5 -84.5q0 -67 -39.5 -123.5t-98.5 -101.5q-59 45 -98.5 101.5t-39.5 123.5q0 58 44.5 84.5t93.5 26.5t93.5 -26.5z" />
    <glyph glyph-name="uni06C1" unicode="&#x6c1;" horiz-adv-x="1119" arabic-form="isolated" 
d="M667.5 493.5q27.5 -58.5 27.5 -90.5q0 -51 -43 -77.5t-90 -26.5q-48 0 -90.5 28.5t-42.5 75.5q0 62 43.5 125.5t89.5 107.5q78 -84 105.5 -142.5zM184 654q-75 -112 -75 -251q0 -115 61 -212.5t165 -155t227 -57.5q114 0 218.5 52t169.5 149t65 224q0 299 -420 638
l-124 101l-201 -246l76 -62q-87 -68 -162 -180z" />
    <glyph glyph-name="uni06C3.fina" unicode="&#x6c3;" horiz-adv-x="1183" 
d="M474 370q6 47 36.5 84.5t75.5 52.5l102 33l13 -149q10 -109 70 -198.5t154.5 -141t204.5 -51.5h53v340h-53q-47 0 -77 19.5t-35 60.5l-31 350l-209 137l-294 -97q-132 -46 -220.5 -154t-105.5 -246l-49 -388l317 -40zM576 1325q-44 44 -106 44t-106 -44t-44 -106t44 -106
t106 -44t106 44t44 106t-44 106zM936 1325q-44 44 -106 44t-106 -44t-44 -106t44 -106t106 -44t106 44t44 106t-44 106z" />
    <glyph glyph-name="uni06C6" unicode="&#x6c6;" horiz-adv-x="1138" arabic-form="isolated" 
d="M566 340q-58 0 -86.5 11.5t-37 31t-8.5 53.5q0 58 27 114t105 56q76 0 105 -52t29 -118v-96h-134zM1018 436q0 142 -57.5 253.5t-160.5 173.5t-234 62q-129 0 -232 -63t-161.5 -174.5t-58.5 -251.5q0 -436 452 -436h130q0 -56 -28 -101.5t-76.5 -71t-107.5 -25.5h-360
v-340h360q129 0 253.5 78t202.5 206.5t78 271.5v418zM956 1478l-214 5l-181 -207l-181 207l-214 -5l331 -387h128z" />
    <glyph glyph-name="uni06C7" unicode="&#x6c7;" horiz-adv-x="1138" arabic-form="isolated" 
d="M566 340q-58 0 -86.5 11.5t-37 31t-8.5 53.5q0 58 27 114t105 56q76 0 105 -52t29 -118v-96h-134zM1018 436q0 142 -57.5 253.5t-160.5 173.5t-234 62q-129 0 -232 -63t-161.5 -174.5t-58.5 -251.5q0 -436 452 -436h130q0 -56 -28 -101.5t-76.5 -71t-107.5 -25.5h-360
v-340h360q129 0 253.5 78t202.5 206.5t78 271.5v418zM509 1156l18 -46l158 63l-18 46l72 28q97 42 136 133t3 190q-41 96 -131.5 135.5t-189.5 2.5q-97 -41 -136.5 -132t-2.5 -189l27 -72l-219 -87l63 -159zM691 1541.5q20 -13.5 29 -34.5q12 -30 -1 -59.5t-42 -41.5
l-73 -29l-29 73q-12 38 9.5 71.5t62.5 33.5q24 0 44 -13.5z" />
    <glyph glyph-name="uni06C9" unicode="&#x6c9;" horiz-adv-x="1138" arabic-form="isolated" 
d="M566 340q-58 0 -86.5 11.5t-37 31t-8.5 53.5q0 58 27 114t105 56q76 0 105 -52t29 -118v-96h-134zM1018 436q0 142 -57.5 253.5t-160.5 173.5t-234 62q-129 0 -232 -63t-161.5 -174.5t-58.5 -251.5q0 -436 452 -436h130q0 -56 -28 -101.5t-76.5 -71t-107.5 -25.5h-360
v-340h360q129 0 253.5 78t202.5 206.5t78 271.5v418zM956 1095l-214 -5l-181 206l-181 -206l-214 5l331 387h128z" />
    <glyph glyph-name="uni06D2" unicode="&#x6d2;" horiz-adv-x="1642" arabic-form="isolated" 
d="M1522 318h-918q-69 0 -117 49t-48 117q0 69 48 117t117 48h242v320h-242q-132 0 -243 -65.5t-176 -176.5t-65 -243t65 -243t176 -176t243 -65h918v318z" />
    <glyph glyph-name="uni06D3" unicode="&#x6d3;" horiz-adv-x="1642" arabic-form="isolated" 
d="M1522 318h-918q-69 0 -117 49t-48 117q0 69 48 117t117 48h242v320h-242q-132 0 -243 -65.5t-176 -176.5t-65 -243t65 -243t176 -176t243 -65h918v318zM287 1145l478 183l-60 158l-147 -56q-45 -7 -77.5 10.5t-31.5 64.5q0 30 18 56.5t51 27.5q24 0 46 -7t53 -22
q7 -3 10 -4l44 159q-46 24 -79.5 34t-73.5 10q-71 0 -125.5 -37t-84 -95.5t-29.5 -121.5q0 -43 17.5 -85t52.5 -69l-122 -47z" />
    <glyph glyph-name="uniFED3" unicode="&#x641;" horiz-adv-x="1123" arabic-form="initial" 
d="M495 403q-45 35 -56 67t-11 69q0 52 40.5 87t93.5 35q55 0 94.5 -34t39.5 -105q0 -46 -13 -107t-50 -73q-93 26 -138 61zM-57 234q-15 -64 0 -128.5t57 -105.5h620q99 0 189 54t147.5 171.5t57.5 296.5q0 129 -59.5 233.5t-162.5 164t-230 59.5q-120 0 -224.5 -58.5
t-166 -160t-61.5 -223.5q0 -53 19 -106t55 -91h-184q-42 -42 -57 -106zM668 1380q-44 44 -106 44t-106 -44t-44 -106t44 -106t106 -44t106 44t44 106t-44 106z" />
    <glyph glyph-name="uniFED7" unicode="&#x642;" horiz-adv-x="1123" arabic-form="initial" 
d="M495 403q-45 35 -56 67t-11 69q0 52 40.5 87t93.5 35q55 0 94.5 -34t39.5 -105q0 -46 -13 -107t-50 -73q-93 26 -138 61zM-57 234q-15 -64 0 -128.5t57 -105.5h620q99 0 189 54t147.5 171.5t57.5 296.5q0 129 -59.5 233.5t-162.5 164t-230 59.5q-120 0 -224.5 -58.5
t-166 -160t-61.5 -223.5q0 -53 19 -106t55 -91h-184q-42 -42 -57 -106zM488 1380q-44 44 -106 44t-106 -44t-44 -106t44 -106t106 -44t106 44t44 106t-44 106zM848 1380q-44 44 -106 44t-106 -44t-44 -106t44 -106t106 -44t106 44t44 106t-44 106z" />
    <glyph glyph-name="uniFB6C" unicode="&#x6a4;" horiz-adv-x="1123" arabic-form="initial" 
d="M495 403q-45 35 -56 67t-11 69q0 52 40.5 87t93.5 35q55 0 94.5 -34t39.5 -105q0 -46 -13 -107t-50 -73q-93 26 -138 61zM-57 234q-15 -64 0 -128.5t57 -105.5h620q99 0 189 54t147.5 171.5t57.5 296.5q0 129 -59.5 233.5t-162.5 164t-230 59.5q-120 0 -224.5 -58.5
t-166 -160t-61.5 -223.5q0 -53 19 -106t55 -91h-184q-42 -42 -57 -106zM488 1380q-44 44 -106 44t-106 -44t-44 -106t44 -106t106 -44t106 44t44 106t-44 106zM848 1380q-44 44 -106 44t-106 -44t-44 -106t44 -106t106 -44t106 44t44 106t-44 106zM668 1680q-44 44 -106 44
t-106 -44t-44 -106t44 -106t106 -44t106 44t44 106t-44 106z" />
    <glyph glyph-name="uniFB51" unicode="&#x671;" horiz-adv-x="692" arabic-form="final" 
d="M693 340h-107q-45 0 -73.5 32t-28.5 79v843h-318v-885q0 -110 49.5 -203.5t145 -149.5t225.5 -56h107v340zM345 1738q35 44 72 44q50 0 68 -30t18 -64q0 -23 -26 -39.5t-63 -16.5h-131q27 62 62 106zM109 1763v86h-169v-86q0 -69 33.5 -139t90.5 -116t123 -46h227
q71 0 130.5 30t93.5 81.5t34 114.5q0 75 -33 135.5t-91 94.5t-132 34q-105 0 -176 -76.5t-113 -176.5q-18 32 -18 64z" />
    <glyph glyph-name="uniFB57" unicode="&#x67e;" horiz-adv-x="1813" arabic-form="final" 
d="M1360.5 34.5q65.5 34.5 117.5 99.5q52 -65 117.5 -99.5t153.5 -34.5h64v340h-64q-47 0 -79.5 32.5t-32.5 78.5v302h-318v-302q0 -46 -33 -78.5t-79 -32.5h-657q-46 0 -78.5 32.5t-32.5 78.5v345h-319v-387q0 -111 58 -205t156.5 -149t215.5 -55h657q88 0 153.5 34.5z
M805 -190q-44 44 -106 44t-106 -44t-44 -106t44 -106t106 -44t106 44t44 106t-44 106zM1165 -190q-44 44 -106 44t-106 -44t-44 -106t44 -106t106 -44t106 44t44 106t-44 106zM985 -490q-44 44 -106 44t-106 -44t-44 -106t44 -106t106 -44t106 44t44 106t-44 106z" />
    <glyph glyph-name="uniFB58" unicode="&#x67e;" horiz-adv-x="737" arabic-form="initial" 
d="M-57 234q-15 -64 0 -128.5t57 -105.5h187q117 0 216 55t156.5 149t57.5 205v387h-318v-345q0 -46 -33 -78.5t-79 -32.5h-187q-42 -42 -57 -106zM76 -211q-44 44 -106 44t-106 -44t-44 -106t44 -106t106 -44t106 44t44 106t-44 106zM436 -211q-44 44 -106 44t-106 -44
t-44 -106t44 -106t106 -44t106 44t44 106t-44 106zM256 -511q-44 44 -106 44t-106 -44t-44 -106t44 -106t106 -44t106 44t44 106t-44 106z" />
    <glyph glyph-name="uniFB59" unicode="&#x67e;" horiz-adv-x="793" arabic-form="medial" 
d="M-57 234q-15 -64 0 -128.5t57 -105.5h187q88 0 153.5 34.5t117.5 99.5q52 -65 117.5 -99.5t153.5 -34.5h64v340h-64q-46 0 -79 32.5t-33 78.5v302h-318v-302q0 -46 -33 -78.5t-79 -32.5h-187q-42 -42 -57 -106zM76 -211q-44 44 -106 44t-106 -44t-44 -106t44 -106
t106 -44t106 44t44 106t-44 106zM436 -211q-44 44 -106 44t-106 -44t-44 -106t44 -106t106 -44t106 44t44 106t-44 106zM256 -511q-44 44 -106 44t-106 -44t-44 -106t44 -106t106 -44t106 44t44 106t-44 106z" />
    <glyph glyph-name="uniFB67" unicode="&#x679;" horiz-adv-x="1813" arabic-form="final" 
d="M1360.5 34.5q65.5 34.5 117.5 99.5q52 -65 117.5 -99.5t153.5 -34.5h64v340h-64q-47 0 -79.5 32.5t-32.5 78.5v302h-318v-302q0 -46 -33 -78.5t-79 -32.5h-657q-46 0 -78.5 32.5t-32.5 78.5v345h-319v-387q0 -111 58 -205t156.5 -149t215.5 -55h657q88 0 153.5 34.5z
M866 1074.5q34 43.5 72 43.5q50 0 68.5 -30t18.5 -63q0 -23 -26.5 -39.5t-63.5 -16.5h-130q27 62 61 105.5zM624 979v-8v-2h-60v-170h371q72 0 131.5 29.5t94 81.5t33.5 115q0 75 -32.5 135t-91 94.5t-132.5 34.5q-77 0 -144 -51v245h-170v-504z" />
    <glyph glyph-name="uniFB68" unicode="&#x679;" horiz-adv-x="800" arabic-form="initial" 
d="M-57 234q-15 -64 0 -128.5t57 -105.5h250q117 0 215.5 55t156.5 149t58 205v387h-318v-345q0 -46 -33 -78.5t-79 -32.5h-250q-42 -42 -57 -106zM394 1289.5q34 43.5 72 43.5q50 0 68.5 -30t18.5 -63q0 -23 -26.5 -39.5t-63.5 -16.5h-130q27 62 61 105.5zM152 1194v-8v-2
h-60v-170h371q72 0 131.5 29.5t94 81.5t33.5 115q0 75 -32.5 135t-91 94.5t-132.5 34.5q-77 0 -144 -51v245h-170v-504z" />
    <glyph glyph-name="uniFB69" unicode="&#x679;" horiz-adv-x="856" arabic-form="medial" 
d="M-57 234q-15 -64 0 -128.5t57 -105.5h250q88 0 153.5 34.5t117.5 99.5q52 -65 117.5 -99.5t153.5 -34.5h64v340h-64q-47 0 -79.5 32.5t-32.5 78.5v302h-318v-302q0 -46 -33 -78.5t-79 -32.5h-250q-42 -42 -57 -106zM394 1247.5q34 43.5 72 43.5q50 0 68.5 -30t18.5 -63
q0 -23 -26.5 -39.5t-63.5 -16.5h-130q27 62 61 105.5zM152 1152v-8v-2h-60v-170h371q72 0 131.5 29.5t94 81.5t33.5 115q0 75 -32.5 135t-91 94.5t-132.5 34.5q-77 0 -144 -51v245h-170v-504z" />
    <glyph glyph-name="uniFB6B" unicode="&#x6a4;" horiz-adv-x="1874" arabic-form="final" 
d="M1380.5 649.5q44.5 -26.5 44.5 -84.5q0 -67 -39.5 -123.5t-98.5 -101.5q-59 45 -98.5 101.5t-39.5 123.5q0 58 44.5 84.5t93.5 26.5t93.5 -26.5zM967 0q107 0 170.5 10.5t99.5 25t50 28.5q22 -23 100 -43.5t219 -20.5h269v340h-197q31 40 48.5 99.5t17.5 125.5
q0 119 -61 217.5t-165.5 156t-230.5 57.5t-231 -57.5t-166 -156t-61 -217.5q0 -66 17.5 -125.5t48.5 -99.5h-345q-46 0 -78.5 32.5t-32.5 78.5v345h-319v-387q0 -111 58 -205t156.5 -149t215.5 -55h417zM1213 1397q-44 44 -106 44t-106 -44t-44 -106t44 -106t106 -44t106 44
t44 106t-44 106zM1573 1397q-44 44 -106 44t-106 -44t-44 -106t44 -106t106 -44t106 44t44 106t-44 106zM1393 1697q-44 44 -106 44t-106 -44t-44 -106t44 -106t106 -44t106 44t44 106t-44 106z" />
    <glyph glyph-name="uniFB6D" unicode="&#x6a4;" horiz-adv-x="1177" arabic-form="medial" 
d="M682 649.5q45 -26.5 45 -84.5q0 -119 -139 -225q-59 45 -98.5 101.5t-39.5 123.5q0 58 44.5 84.5t93.5 26.5t94 -26.5zM-57 234q-15 -64 0 -128.5t57 -105.5h270q140 0 218 20.5t100 43.5q23 -23 101 -43.5t218 -20.5h270v340h-197q31 40 48 99.5t17 125.5
q0 119 -60.5 217.5t-165.5 156t-231 57.5t-230.5 -57.5t-165 -156t-60.5 -217.5q0 -138 65 -225h-197q-42 -42 -57 -106zM514 1397q-44 44 -106 44t-106 -44t-44 -106t44 -106t106 -44t106 44t44 106t-44 106zM874 1397q-44 44 -106 44t-106 -44t-44 -106t44 -106t106 -44
t106 44t44 106t-44 106zM694 1697q-44 44 -106 44t-106 -44t-44 -106t44 -106t106 -44t106 44t44 106t-44 106z" />
    <glyph glyph-name="uniFB7B" unicode="&#x686;" horiz-adv-x="1450" arabic-form="final" 
d="M1260 478l13 317l-98 58.5t-214.5 121t-213.5 101.5q-110 46 -220.5 31t-201 -85.5t-141.5 -184.5l-33 -74l291 -131l33 74q18 40 55 70.5t95 6.5q71 -30 270 -118q49 -21 74 -32l-393 -150q-164 -64 -271.5 -161.5t-155.5 -212t-41 -231.5q10 -156 82 -273.5t204.5 -183
t318.5 -65.5h497v339h-497q-123 0 -190 43.5t-82 103.5q-24 98 29 182.5t220 160.5l247 114l24 -108q21 -90 90 -140.5t174 -50.5h225v340h-215q-21 0 -36.5 8t-19.5 26l-13 46zM734.5 53.5q-29.5 29.5 -70.5 29.5t-70.5 -29.5t-29.5 -70.5q0 -42 29.5 -71t70.5 -29t70.5 29
t29.5 71q0 41 -29.5 70.5zM970.5 124.5q-29.5 29.5 -70.5 29.5t-70.5 -29.5t-29.5 -70.5t29.5 -70.5t70.5 -29.5t70.5 29.5t29.5 70.5t-29.5 70.5zM909.5 -94.5q-29.5 29.5 -70.5 29.5t-70.5 -29.5t-29.5 -70.5t29.5 -70.5t70.5 -29.5t70.5 29.5t29.5 70.5t-29.5 70.5z" />
    <glyph glyph-name="uniFB7C" unicode="&#x686;" horiz-adv-x="1294" arabic-form="initial" 
d="M-57 234q-15 -64 0 -128.5t57 -105.5h212q370 0 614.5 117t376.5 229q8 6 9 7l-17 312l-102.5 56t-223.5 116.5t-217 100.5q-110 45 -221 30.5t-201 -85t-141 -185.5l-28 -62l291 -131l29 63q15 39 52.5 70t96.5 6t221 -96q113 -49 168 -73q-144 -61 -328.5 -98
t-378.5 -37h-212q-42 -42 -57 -106zM466 -200q-44 44 -106 44t-106 -44t-44 -106t44 -106t106 -44t106 44t44 106t-44 106zM826 -200q-44 44 -106 44t-106 -44t-44 -106t44 -106t106 -44t106 44t44 106t-44 106zM646 -500q-44 44 -106 44t-106 -44t-44 -106t44 -106t106 -44
t106 44t44 106t-44 106z" />
    <glyph glyph-name="uniFB7D" unicode="&#x686;" horiz-adv-x="1382" arabic-form="medial" 
d="M-57 234q-15 -64 0 -128.5t57 -105.5h212q381 0 711 190l30 -67q22 -57 86.5 -90t142.5 -33h200v340h-200q-25 0 -39 3l-3 3q28 24 57 50q9 8 10 9l-12 260l-102.5 56t-223.5 116.5t-217 100.5q-110 45 -221 30.5t-201 -85t-141 -185.5l-28 -62l291 -131l29 63
q15 39 52.5 70t96.5 6t221 -96q113 -49 168 -73q-144 -61 -328.5 -98t-378.5 -37h-212q-42 -42 -57 -106zM466 -200q-44 44 -106 44t-106 -44t-44 -106t44 -106t106 -44t106 44t44 106t-44 106zM826 -200q-44 44 -106 44t-106 -44t-44 -106t44 -106t106 -44t106 44t44 106
t-44 106zM646 -500q-44 44 -106 44t-106 -44t-44 -106t44 -106t106 -44t106 44t44 106t-44 106z" />
    <glyph glyph-name="uniFB89" unicode="&#x688;" horiz-adv-x="1179" arabic-form="final" 
d="M554 0q228 0 319 154l1 -2q55 -73 129.5 -112.5t165.5 -39.5h10v340h-10q-34 0 -54 9.5t-34 37.5l-402 741l-280 -153l312 -572q14 -29 -2 -57t-49 -28h-594v-318h488zM602 1594.5q34 43.5 72 43.5q50 0 68.5 -30t18.5 -63q0 -23 -26.5 -39.5t-63.5 -16.5h-130
q27 62 61 105.5zM360 1499v-8v-2h-60v-170h371q72 0 131.5 29.5t94 81.5t33.5 115q0 75 -32.5 135t-91 94.5t-132.5 34.5q-77 0 -144 -51v245h-170v-504z" />
    <glyph glyph-name="uniFB8B" unicode="&#x698;" horiz-adv-x="855" arabic-form="final" 
d="M844 0h11v340h-11q-61 0 -108 48.5t-47 116.5v248h-319v-656q0 -74 -37.5 -142.5t-100.5 -110.5t-136 -42h-107v-340h107q160 0 296.5 82t216.5 218.5t80 291.5v24q79 -78 155 -78zM456 1209q-44 44 -106 44t-106 -44t-44 -106t44 -106t106 -44t106 44t44 106t-44 106z
M816 1209q-44 44 -106 44t-106 -44t-44 -106t44 -106t106 -44t106 44t44 106t-44 106zM636 1509q-44 44 -106 44t-106 -44t-44 -106t44 -106t106 -44t106 44t44 106t-44 106z" />
    <glyph glyph-name="uniFB8D" unicode="&#x691;" horiz-adv-x="855" arabic-form="final" 
d="M844 0h11v340h-11q-61 0 -108 48.5t-47 116.5v248h-319v-656q0 -74 -37.5 -142.5t-100.5 -110.5t-136 -42h-107v-340h107q160 0 296.5 82t216.5 218.5t80 291.5v24q79 -78 155 -78zM517 1290.5q34 43.5 72 43.5q50 0 68.5 -30t18.5 -63q0 -23 -26.5 -39.5t-63.5 -16.5
h-130q27 62 61 105.5zM275 1195v-8v-2h-60v-170h371q72 0 131.5 29.5t94 81.5t33.5 115q0 75 -32.5 135t-91 94.5t-132.5 34.5q-77 0 -144 -51v245h-170v-504z" />
    <glyph glyph-name="uniFB8F" unicode="&#x6a9;" horiz-adv-x="1894" arabic-form="final" 
d="M1184 0q136 0 229.5 48t143.5 132l59 -63q54 -56 125 -86.5t148 -30.5h5v340h-5q-46 0 -64 18l-635 668l520 199l-112 297l-745 -284v-319l459 -482q17 -18 16.5 -41t-16 -39.5t-42.5 -16.5h-720q-46 0 -78.5 32.5t-32.5 78.5v345h-319v-366q0 -117 58 -216t156.5 -156.5
t215.5 -57.5h634z" />
    <glyph glyph-name="uniFB90" unicode="&#x6a9;" horiz-adv-x="1075" arabic-form="initial" 
d="M-57 234q-15 -64 0 -128.5t57 -105.5h581q120 0 211.5 63.5t135 164.5t26.5 211t-99 196l-374 391l520 199l-112 297l-745 -284v-319l459 -482q17 -18 17 -41t-16 -39.5t-42 -16.5h-562q-42 -42 -57 -106z" />
    <glyph glyph-name="uniFB91" unicode="&#x6a9;" horiz-adv-x="1186" arabic-form="medial" 
d="M-57 234q-15 -64 0 -128.5t57 -105.5h475q136 0 229.5 48t143.5 132l59 -63q55 -56 125.5 -86.5t148.5 -30.5h5v340h-5q-46 0 -64 18l-636 668l520 199l-112 297l-745 -284v-319l459 -482q17 -18 16.5 -41t-16 -39.5t-41.5 -16.5h-562q-42 -42 -57 -106z" />
    <glyph glyph-name="uniFB93" unicode="&#x6af;" horiz-adv-x="1890" arabic-form="final" 
d="M1184 0q136 0 229.5 48t143.5 132l59 -63q54 -56 125 -86.5t148 -30.5h5v340h-5q-46 0 -64 18l-635 668l520 199l-112 297l-745 -284v-319l459 -482q17 -18 16.5 -41t-16 -39.5t-42.5 -16.5h-720q-46 0 -78.5 32.5t-32.5 78.5v345h-319v-366q0 -117 58 -216t156.5 -156.5
t215.5 -57.5h634zM1512 1608l-64 167l-595 -217l1 -186z" />
    <glyph glyph-name="uniFB94" unicode="&#x6af;" horiz-adv-x="1075" arabic-form="initial" 
d="M-57 234q-15 -64 0 -128.5t57 -105.5h581q120 0 211.5 63.5t135 164.5t26.5 211t-99 196l-374 391l520 199l-112 297l-745 -284v-319l459 -482q17 -18 17 -41t-16 -39.5t-42 -16.5h-562q-42 -42 -57 -106zM802 1608l-64 167l-595 -217l1 -186z" />
    <glyph glyph-name="uniFB95" unicode="&#x6af;" horiz-adv-x="1181" arabic-form="medial" 
d="M-57 234q-15 -64 0 -128.5t57 -105.5h475q136 0 229.5 48t143.5 132l59 -63q55 -56 125.5 -86.5t148.5 -30.5h5v340h-5q-46 0 -64 18l-636 668l520 199l-112 297l-745 -284v-319l459 -482q17 -18 16.5 -41t-16 -39.5t-41.5 -16.5h-562q-42 -42 -57 -106zM802 1608
l-64 167l-595 -217l1 -186z" />
    <glyph glyph-name="uniFB9F" unicode="&#x6ba;" horiz-adv-x="1609" arabic-form="final" 
d="M820 -539q183 0 322 80.5t214.5 215t76.5 292.5v0q60 -49 112 -49h64v340h-64q-46 0 -79 32.5t-33 78.5v301h-318v-655q0 -79 -32.5 -146.5t-99 -108.5t-163.5 -41h-86q-98 0 -164.5 41t-98.5 108.5t-32 146.5v460h-319v-503q0 -159 75.5 -295t215 -217t323.5 -81h86z
" />
    <glyph glyph-name="uniFBA7" unicode="&#x6c1;" horiz-adv-x="1183" arabic-form="final" 
d="M474 370q6 47 36.5 84.5t75.5 52.5l102 33l13 -149q10 -109 70 -198.5t154.5 -141t204.5 -51.5h53v340h-53q-47 0 -77 19.5t-35 60.5l-31 350l-209 137l-294 -97q-132 -46 -220.5 -154t-105.5 -246l-49 -388l317 -40z" />
    <glyph glyph-name="uniFBA8" unicode="&#x6c1;" horiz-adv-x="1275" arabic-form="initial" 
d="M875.5 -585q-65.5 38 -185.5 32v32q0 22 13 38t34 19l170 25l-32 230l-100 -18q-89 -16 -161 -67.5t-112.5 -123.5t-40.5 -148v-140q0 -80 66 -136t169 -56q68 0 124 25.5t88.5 69.5t32.5 97q0 83 -65.5 121zM-57 234q-15 -64 0 -128.5t57 -105.5h130q88 0 153 34.5
t117 99.5q52 -65 117.5 -99.5t153.5 -34.5h54q117 0 215.5 55t156.5 149t58 205v387h-319v-345q0 -46 -32.5 -78.5t-78.5 -32.5h-54q-46 0 -78.5 32.5t-32.5 78.5v302h-319v-302q0 -46 -32.5 -78.5t-78.5 -32.5h-130q-42 -42 -57 -106z" />
    <glyph glyph-name="uniFBA9" unicode="&#x6c1;" horiz-adv-x="1134" arabic-form="medial" 
d="M-57 234q-15 -64 0 -128.5t57 -105.5h174q33 -264 197 -402.5t440 -138.5l160 200v311q0 12 9 21t21 9h133v340h-242q-112 0 -176 -64t-64 -176v-299q-83 26 -125.5 107t-43.5 237v526h-318v-331h-165q-42 -42 -57 -106z" />
    <glyph glyph-name="uniFBAB" unicode="&#x6be;" horiz-adv-x="1674" arabic-form="final" 
d="M1512 340q15 75 2 151.5t-58 146.5l-319 494l-268 -172l318 -494q20 -31 14.5 -60t-31 -47.5t-62.5 -18.5h-155q31 39 48 98.5t17 126.5q0 119 -61 217.5t-165.5 156t-230.5 57.5t-230.5 -57.5t-165.5 -156t-61 -217.5q0 -54 18.5 -142.5t72 -186.5t160 -167t270.5 -69
h1048v340h-161zM654.5 649.5q44.5 -26.5 44.5 -84.5q0 -67 -39.5 -123.5t-98.5 -101.5q-59 45 -98.5 101.5t-39.5 123.5q0 58 44.5 84.5t93.5 26.5t93.5 -26.5z" />
    <glyph glyph-name="uniFBAC" unicode="&#x6be;" horiz-adv-x="1663" arabic-form="initial" 
d="M682 649.5q45 -26.5 45 -84.5q0 -119 -139 -225q-59 45 -98.5 101.5t-39.5 123.5q0 58 44.5 84.5t93.5 26.5t94 -26.5zM1202 0q109 0 198 57t137 150t41 199t-76 197l-404 531l-253 -194l386 -507q14 -18 11.5 -40t-18.5 -37.5t-39 -15.5h-205q31 40 48 99.5t17 125.5
q0 119 -60.5 217.5t-165.5 156t-231 57.5t-230.5 -57.5t-165 -156t-60.5 -217.5q0 -138 65 -225h-197q-42 -42 -57 -106t0 -128.5t57 -105.5h270q140 0 218 20.5t100 43.5q23 -23 101 -43.5t218 -20.5h295z" />
    <glyph glyph-name="uniFBAD" unicode="&#x6be;" horiz-adv-x="1699" arabic-form="medial" 
d="M682 649.5q45 -26.5 45 -84.5q0 -67 -40 -123.5t-99 -101.5q-59 45 -98.5 101.5t-39.5 123.5q0 58 44.5 84.5t93.5 26.5t94 -26.5zM-57 234q-15 -64 0 -128.5t57 -105.5h323q115 1 176 18.5t89 50.5q29 -33 89.5 -50.5t176.5 -18.5h846v340h-160q15 75 1.5 151.5
t-57.5 146.5l-319 494l-269 -172l318 -494q20 -31 15 -60t-30.5 -47.5t-62.5 -18.5h-156q31 39 48 98.5t17 126.5q0 119 -60.5 217.5t-165.5 156t-231 57.5t-230.5 -57.5t-165.5 -156t-61 -217.5q0 -67 17 -126.5t49 -98.5h-197q-42 -42 -57 -106z" />
    <glyph glyph-name="uniFBAF" unicode="&#x6d2;" horiz-adv-x="1091" arabic-form="final" 
d="M876 -143h-326q-49 0 -80 18t-31 54t31 53.5t80 17.5h541v340h-541q-118 0 -216.5 -53.5t-156 -147.5t-57.5 -210q0 -117 57 -205.5t155.5 -136.5t217.5 -48h326v318z" />
    <glyph glyph-name="uniFBB1" unicode="&#x6d3;" horiz-adv-x="1091" arabic-form="final" 
d="M876 -143h-326q-49 0 -80 18t-31 54t31 53.5t80 17.5h541v340h-541q-118 0 -216.5 -53.5t-156 -147.5t-57.5 -210q0 -117 57 -205.5t155.5 -136.5t217.5 -48h326v318zM287 517l478 183l-60 158l-147 -56q-45 -7 -77.5 10.5t-31.5 64.5q0 30 18 56.5t51 27.5q24 0 46 -7
t53 -22q7 -3 10 -4l44 159q-46 24 -79.5 34t-73.5 10q-71 0 -125.5 -37t-84 -95.5t-29.5 -121.5q0 -43 17.5 -85t52.5 -69l-122 -47z" />
    <glyph glyph-name="uniFBD8" unicode="&#x6c7;" horiz-adv-x="1171" arabic-form="final" 
d="M566 340q-58 0 -86.5 11.5t-37 31t-8.5 53.5q0 58 27 114t105 56q76 0 105 -52t29 -118v-96h-134zM668 -101.5q-28 -45.5 -76.5 -71t-107.5 -25.5h-360v-340h360q127 0 249 75t200.5 199.5t84.5 263.5h152v340h-152v96q0 142 -57.5 253.5t-160.5 173.5t-234 62
q-129 0 -232 -63t-161.5 -174.5t-58.5 -251.5q0 -436 452 -436h130q0 -56 -28 -101.5zM509 1156l18 -46l158 63l-18 46l72 28q97 42 136 133t3 190q-41 96 -131.5 135.5t-189.5 2.5q-97 -41 -136.5 -132t-2.5 -189l27 -72l-219 -87l63 -159zM691 1541.5q20 -13.5 29 -34.5
q12 -30 -1 -59.5t-42 -41.5l-73 -29l-29 73q-12 38 9.5 71.5t62.5 33.5q24 0 44 -13.5z" />
    <glyph glyph-name="uniFBDA" unicode="&#x6c6;" horiz-adv-x="1171" arabic-form="final" 
d="M566 340q-58 0 -86.5 11.5t-37 31t-8.5 53.5q0 58 27 114t105 56q76 0 105 -52t29 -118v-96h-134zM668 -101.5q-28 -45.5 -76.5 -71t-107.5 -25.5h-360v-340h360q127 0 249 75t200.5 199.5t84.5 263.5h152v340h-152v96q0 142 -57.5 253.5t-160.5 173.5t-234 62
q-129 0 -232 -63t-161.5 -174.5t-58.5 -251.5q0 -436 452 -436h130q0 -56 -28 -101.5zM956 1478l-214 5l-181 -207l-181 207l-214 -5l331 -387h128z" />
    <glyph glyph-name="uniFBE3" unicode="&#x6c9;" horiz-adv-x="1171" arabic-form="final" 
d="M566 340q-58 0 -86.5 11.5t-37 31t-8.5 53.5q0 58 27 114t105 56q76 0 105 -52t29 -118v-96h-134zM668 -101.5q-28 -45.5 -76.5 -71t-107.5 -25.5h-360v-340h360q127 0 249 75t200.5 199.5t84.5 263.5h152v340h-152v96q0 142 -57.5 253.5t-160.5 173.5t-234 62
q-129 0 -232 -63t-161.5 -174.5t-58.5 -251.5q0 -436 452 -436h130q0 -56 -28 -101.5zM956 1095l-214 -5l-181 206l-181 -206l-214 5l331 387h128z" />
    <glyph glyph-name="uniFBE8" unicode="&#x649;" horiz-adv-x="735" arabic-form="initial" 
d="M-57 234q-15 -64 0 -128.5t57 -105.5h185q117 0 215.5 55t156.5 149t58 205v387h-319v-345q0 -46 -32.5 -78.5t-78.5 -32.5h-185q-42 -42 -57 -106z" />
    <glyph glyph-name="uniFBE9" unicode="&#x649;" horiz-adv-x="790" arabic-form="medial" 
d="M-57 234q-15 -64 0 -128.5t57 -105.5h185q88 0 153 34.5t117 99.5q52 -65 117.5 -99.5t153.5 -34.5h64v340h-64q-46 0 -78.5 32.5t-32.5 78.5v302h-319v-302q0 -46 -32.5 -78.5t-78.5 -32.5h-185q-42 -42 -57 -106z" />
    <glyph glyph-name="uniFBFD" unicode="&#x6cc;" horiz-adv-x="1732" arabic-form="final" 
d="M1732 340h-990v-318h374q48 -1 65.5 -22.5t16.5 -58.5q-1 -54 -63.5 -97t-170.5 -43h-250q-141 0 -208.5 77.5t-67.5 198.5v480h-318v-523q0 -158 71 -288.5t206 -207.5t317 -77h250q178 0 301 74t182.5 183t60.5 215q0 39 -3 67h227v340z" />
    <glyph glyph-name="uniFBFE" unicode="&#x6cc;" horiz-adv-x="737" arabic-form="initial" 
d="M-57 234q-15 -64 0 -128.5t57 -105.5h187q117 0 216 55t156.5 149t57.5 205v387h-318v-345q0 -46 -33 -78.5t-79 -32.5h-187q-42 -42 -57 -106zM76 -234q-44 44 -106 44t-106 -44t-44 -106t44 -106t106 -44t106 44t44 106t-44 106zM436 -234q-44 44 -106 44t-106 -44
t-44 -106t44 -106t106 -44t106 44t44 106t-44 106z" />
    <glyph glyph-name="uniFBFF" unicode="&#x6cc;" horiz-adv-x="793" arabic-form="medial" 
d="M-57 234q-15 -64 0 -128.5t57 -105.5h187q88 0 153.5 34.5t117.5 99.5q52 -65 117.5 -99.5t153.5 -34.5h64v340h-64q-46 0 -79 32.5t-33 78.5v302h-318v-302q0 -46 -33 -78.5t-79 -32.5h-187q-42 -42 -57 -106zM76 -234q-44 44 -106 44t-106 -44t-44 -106t44 -106
t106 -44t106 44t44 106t-44 106zM436 -234q-44 44 -106 44t-106 -44t-44 -106t44 -106t106 -44t106 44t44 106t-44 106z" />
    <glyph glyph-name="uniFD3C" unicode="&#xfd3c;" horiz-adv-x="691" arabic-form="final" 
d="M693 340h-107q-45 0 -73.5 32t-28.5 79v843h-318v-885q0 -110 49.5 -203.5t145 -149.5t225.5 -56h107v340zM68 1408l553 220l-63 157l-553 -218zM-40 1711l553 220l-63 157l-553 -218z" />
    <glyph glyph-name="uniFD3D" unicode="&#xfd3d;" horiz-adv-x="650" arabic-form="isolated" 
d="M166 0h318v1294h-318v-1294zM68 1408l553 220l-63 157l-553 -218zM-40 1711l553 220l-63 157l-553 -218z" />
    <glyph glyph-name="uniFDF2" unicode="&#xfdf2;" horiz-adv-x="3012" arabic-form="isolated" 
d="M2612 0h318v1454h-318v-1454zM1754 234q-15 -64 0 -128.5t57 -105.5h118q117 0 216 57.5t156.5 156.5t57.5 216v1024h-318v-1003q0 -46 -33 -78.5t-79 -32.5h-118q-42 -42 -57 -106zM1106 234q-15 -64 0 -128.5t57 -105.5h54q87 0 152.5 34.5t117.5 99.5
q52 -65 117.5 -99.5t153.5 -34.5h53v340h-53q-46 0 -79 32.5t-33 78.5v730h-318v-730q0 -46 -33 -78.5t-78 -32.5h-54q-42 -42 -57 -106zM1409 1371q36 25 65 73q49 -44 116 -44h13q60 0 111 30t80.5 81t29.5 110v200h-170v-200q0 -21 -15 -35.5t-36 -14.5h-13
q-21 0 -35.5 14.5t-14.5 35.5v146h-170v-200q0 -21 -14.5 -35.5t-35.5 -14.5h-13q-21 0 -36 14.5t-15 35.5v200h-170v-200q0 -60 29.5 -110.5t80.5 -80.5t111 -30h13q53 0 89 25zM1363 1873h170v419h-170v-419zM1111 0h105v340h-107q-32 0 -55.5 20.5t-27.5 51.5l-107 728
l-316 -45l13 -94q-159 -21 -280 -98.5t-183 -201t-50 -276.5q9 -112 73 -193.5t166.5 -118t224.5 -18t240 95.5q105 -191 304 -191zM697 441q-72 -43 -134.5 -49.5t-101 12.5t-40.5 47q-8 104 59 162t182 70z" />
    <glyph glyph-name="uniFDFC" unicode="&#xfdfc;" horiz-adv-x="3345" arabic-form="isolated" 
d="M2632 -498q159 0 295.5 82t217 218.5t80.5 292.5v658h-320v-615q0 -76 -37.5 -152t-100.5 -125t-135 -49h-907v-310h907zM1614 1145v-736q0 -110 49.5 -203.5t145 -149.5t225.5 -56h202q117 0 216 55t156.5 149t57.5 205v387h-318v-345q0 -46 -33 -78.5t-79 -32.5h-202
q-45 0 -73.5 32t-28.5 79v1003h-817v-1327q0 -79 -32.5 -146.5t-99 -108.5t-164.5 -41h-85q-98 0 -164.5 41t-99 108.5t-32.5 146.5v410h-318v-453q0 -159 75 -295t215 -217t324 -81h85q185 0 324.5 81t214.5 217t75 295v1061h181z" />
    <glyph glyph-name="uniFE82" unicode="&#x622;" horiz-adv-x="692" arabic-form="final" 
d="M693 340h-107q-45 0 -73.5 32t-28.5 79v843h-318v-885q0 -110 49.5 -203.5t145 -149.5t225.5 -56h107v340zM95 1479q14 31 41.5 50t61.5 18h480v213h-480q-100 0 -182 -55.5t-118 -147.5l-73 -182l198 -79z" />
    <glyph glyph-name="uniFE86" unicode="&#x624;" horiz-adv-x="1171" arabic-form="final" 
d="M566 340q-58 0 -86.5 11.5t-37 31t-8.5 53.5q0 58 27 114t105 56q76 0 105 -52t29 -118v-96h-134zM668 -101.5q-28 -45.5 -76.5 -71t-107.5 -25.5h-360v-340h360q127 0 249 75t200.5 199.5t84.5 263.5h152v340h-152v96q0 142 -57.5 253.5t-160.5 173.5t-234 62
q-129 0 -232 -63t-161.5 -174.5t-58.5 -251.5q0 -436 452 -436h130q0 -56 -28 -101.5zM357 1062l478 183l-60 158l-147 -56q-45 -7 -77.5 10.5t-31.5 64.5q0 30 18 56.5t51 27.5q24 0 46 -7t53 -22q7 -3 10 -4l44 159q-46 24 -79.5 34t-73.5 10q-71 0 -125.5 -37t-84 -95.5
t-29.5 -121.5q0 -43 17.5 -85t52.5 -69l-122 -47z" />
    <glyph glyph-name="uniFE88" unicode="&#x625;" horiz-adv-x="692" arabic-form="final" 
d="M693 340h-107q-45 0 -73.5 32t-28.5 79v1003h-318v-1045q0 -110 49.5 -203.5t145 -149.5t225.5 -56h107v340zM96 -821l478 183l-60 158l-147 -56q-45 -7 -77.5 10.5t-31.5 64.5q0 30 18 56.5t51 27.5q24 0 46 -7t53 -22q7 -3 10 -4l44 159q-46 24 -79.5 34t-73.5 10
q-71 0 -125.5 -37t-84 -95.5t-29.5 -121.5q0 -43 17.5 -85t52.5 -69l-122 -47z" />
    <glyph glyph-name="uniFE8B" unicode="&#x626;" horiz-adv-x="735" arabic-form="initial" 
d="M-57 234q-15 -64 0 -128.5t57 -105.5h185q117 0 215.5 55t156.5 149t58 205v387h-319v-345q0 -46 -32.5 -78.5t-78.5 -32.5h-185q-42 -42 -57 -106zM84 971l478 183l-60 158l-147 -56q-45 -7 -77.5 10.5t-31.5 64.5q0 30 18 56.5t51 27.5q24 0 46 -7t53 -22q7 -3 10 -4
l44 159q-46 24 -79.5 34t-73.5 10q-71 0 -125.5 -37t-84 -95.5t-29.5 -121.5q0 -43 17.5 -85t52.5 -69l-122 -47z" />
    <glyph glyph-name="uniFE8C" unicode="&#x626;" horiz-adv-x="790" arabic-form="medial" 
d="M-57 234q-15 -64 0 -128.5t57 -105.5h185q88 0 153 34.5t117 99.5q52 -65 117.5 -99.5t153.5 -34.5h64v340h-64q-46 0 -78.5 32.5t-32.5 78.5v302h-319v-302q0 -46 -32.5 -78.5t-78.5 -32.5h-185q-42 -42 -57 -106zM84 929l478 183l-60 158l-147 -56q-45 -7 -77.5 10.5
t-31.5 64.5q0 30 18 56.5t51 27.5q24 0 46 -7t53 -22q7 -3 10 -4l44 159q-46 24 -79.5 34t-73.5 10q-71 0 -125.5 -37t-84 -95.5t-29.5 -121.5q0 -43 17.5 -85t52.5 -69l-122 -47z" />
    <glyph glyph-name="uniFE8E" unicode="&#x627;" horiz-adv-x="692" arabic-form="final" 
d="M693 340h-107q-45 0 -73.5 32t-28.5 79v1003h-318v-1045q0 -110 49.5 -203.5t145 -149.5t225.5 -56h107v340z" />
    <glyph glyph-name="uniFE90" unicode="&#x628;" horiz-adv-x="1813" arabic-form="final" 
d="M1360.5 34.5q65.5 34.5 117.5 99.5q52 -65 117.5 -99.5t153.5 -34.5h64v340h-64q-47 0 -79.5 32.5t-32.5 78.5v302h-318v-302q0 -46 -33 -78.5t-79 -32.5h-657q-46 0 -78.5 32.5t-32.5 78.5v345h-319v-387q0 -111 58 -205t156.5 -149t215.5 -55h657q88 0 153.5 34.5z
M985 -234q-44 44 -106 44t-106 -44t-44 -106t44 -106t106 -44t106 44t44 106t-44 106z" />
    <glyph glyph-name="uniFE91" unicode="&#x628;" horiz-adv-x="735" arabic-form="initial" 
d="M-57 234q-15 -64 0 -128.5t57 -105.5h185q117 0 215.5 55t156.5 149t58 205v387h-319v-345q0 -46 -32.5 -78.5t-78.5 -32.5h-185q-42 -42 -57 -106zM269 -234q-44 44 -106 44t-106 -44t-44 -106t44 -106t106 -44t106 44t44 106t-44 106z" />
    <glyph glyph-name="uniFE92" unicode="&#x628;" horiz-adv-x="790" arabic-form="medial" 
d="M-57 234q-15 -64 0 -128.5t57 -105.5h185q88 0 153 34.5t117 99.5q52 -65 117.5 -99.5t153.5 -34.5h64v340h-64q-46 0 -78.5 32.5t-32.5 78.5v302h-319v-302q0 -46 -32.5 -78.5t-78.5 -32.5h-185q-42 -42 -57 -106zM269 -234q-44 44 -106 44t-106 -44t-44 -106t44 -106
t106 -44t106 44t44 106t-44 106z" />
    <glyph glyph-name="uniFE94" unicode="&#x629;" horiz-adv-x="1219" arabic-form="final" 
d="M1114 0h105v340h-107q-32 0 -55.5 20.5t-27.5 51.5l-107 728l-316 -45l13 -94q-159 -21 -280 -98.5t-183 -201t-50 -276.5q9 -112 73 -193.5t166.5 -118t224.5 -18t240 95.5q105 -191 304 -191zM700 441q-72 -43 -134.5 -49.5t-101 12.5t-40.5 47q-8 104 59 162t182 70z
M602 1596q-44 44 -106 44t-106 -44t-44 -106t44 -106t106 -44t106 44t44 106t-44 106zM962 1596q-44 44 -106 44t-106 -44t-44 -106t44 -106t106 -44t106 44t44 106t-44 106z" />
    <glyph glyph-name="uniFE96" unicode="&#x62a;" horiz-adv-x="1813" arabic-form="final" 
d="M1360.5 34.5q65.5 34.5 117.5 99.5q52 -65 117.5 -99.5t153.5 -34.5h64v340h-64q-47 0 -79.5 32.5t-32.5 78.5v302h-318v-302q0 -46 -33 -78.5t-79 -32.5h-657q-46 0 -78.5 32.5t-32.5 78.5v345h-319v-387q0 -111 58 -205t156.5 -149t215.5 -55h657q88 0 153.5 34.5z
M805 1142q-44 44 -106 44t-106 -44t-44 -106t44 -106t106 -44t106 44t44 106t-44 106zM1165 1142q-44 44 -106 44t-106 -44t-44 -106t44 -106t106 -44t106 44t44 106t-44 106z" />
    <glyph glyph-name="uniFE97" unicode="&#x62a;" horiz-adv-x="800" arabic-form="initial" 
d="M-57 234q-15 -64 0 -128.5t57 -105.5h250q117 0 215.5 55t156.5 149t58 205v387h-318v-345q0 -46 -33 -78.5t-79 -32.5h-250q-42 -42 -57 -106zM326 1251q-44 44 -106 44t-106 -44t-44 -106t44 -106t106 -44t106 44t44 106t-44 106zM686 1251q-44 44 -106 44t-106 -44
t-44 -106t44 -106t106 -44t106 44t44 106t-44 106z" />
    <glyph glyph-name="uniFE98" unicode="&#x62a;" horiz-adv-x="856" arabic-form="medial" 
d="M-57 234q-15 -64 0 -128.5t57 -105.5h250q88 0 153.5 34.5t117.5 99.5q52 -65 117.5 -99.5t153.5 -34.5h64v340h-64q-47 0 -79.5 32.5t-32.5 78.5v302h-318v-302q0 -46 -33 -78.5t-79 -32.5h-250q-42 -42 -57 -106zM326 1209q-44 44 -106 44t-106 -44t-44 -106t44 -106
t106 -44t106 44t44 106t-44 106zM686 1209q-44 44 -106 44t-106 -44t-44 -106t44 -106t106 -44t106 44t44 106t-44 106z" />
    <glyph glyph-name="uniFE9A" unicode="&#x62b;" horiz-adv-x="1813" arabic-form="final" 
d="M1360.5 34.5q65.5 34.5 117.5 99.5q52 -65 117.5 -99.5t153.5 -34.5h64v340h-64q-47 0 -79.5 32.5t-32.5 78.5v302h-318v-302q0 -46 -33 -78.5t-79 -32.5h-657q-46 0 -78.5 32.5t-32.5 78.5v345h-319v-387q0 -111 58 -205t156.5 -149t215.5 -55h657q88 0 153.5 34.5z
M805 1143q-44 44 -106 44t-106 -44t-44 -106t44 -106t106 -44t106 44t44 106t-44 106zM1165 1143q-44 44 -106 44t-106 -44t-44 -106t44 -106t106 -44t106 44t44 106t-44 106zM985 1443q-44 44 -106 44t-106 -44t-44 -106t44 -106t106 -44t106 44t44 106t-44 106z" />
    <glyph glyph-name="uniFE9B" unicode="&#x62b;" horiz-adv-x="800" arabic-form="initial" 
d="M-57 234q-15 -64 0 -128.5t57 -105.5h250q117 0 215.5 55t156.5 149t58 205v387h-318v-345q0 -46 -33 -78.5t-79 -32.5h-250q-42 -42 -57 -106zM326 1251q-44 44 -106 44t-106 -44t-44 -106t44 -106t106 -44t106 44t44 106t-44 106zM686 1251q-44 44 -106 44t-106 -44
t-44 -106t44 -106t106 -44t106 44t44 106t-44 106zM506 1551q-44 44 -106 44t-106 -44t-44 -106t44 -106t106 -44t106 44t44 106t-44 106z" />
    <glyph glyph-name="uniFE9C" unicode="&#x62b;" horiz-adv-x="856" arabic-form="medial" 
d="M-57 234q-15 -64 0 -128.5t57 -105.5h250q88 0 153.5 34.5t117.5 99.5q52 -65 117.5 -99.5t153.5 -34.5h64v340h-64q-47 0 -79.5 32.5t-32.5 78.5v302h-318v-302q0 -46 -33 -78.5t-79 -32.5h-250q-42 -42 -57 -106zM326 1209q-44 44 -106 44t-106 -44t-44 -106t44 -106
t106 -44t106 44t44 106t-44 106zM686 1209q-44 44 -106 44t-106 -44t-44 -106t44 -106t106 -44t106 44t44 106t-44 106zM506 1509q-44 44 -106 44t-106 -44t-44 -106t44 -106t106 -44t106 44t44 106t-44 106z" />
    <glyph glyph-name="uniFE9E" unicode="&#x62c;" horiz-adv-x="1450" arabic-form="final" 
d="M1260 478l13 317l-98 58.5t-214.5 121t-213.5 101.5q-110 46 -220.5 31t-201 -85.5t-141.5 -184.5l-33 -74l291 -131l33 74q18 40 55 70.5t95 6.5q71 -30 270 -118q49 -21 74 -32l-393 -150q-164 -64 -271.5 -161.5t-155.5 -212t-41 -231.5q10 -156 82 -273.5t204.5 -183
t318.5 -65.5h497v339h-497q-123 0 -190 43.5t-82 103.5q-24 98 29 182.5t220 160.5l247 114l24 -108q21 -90 90 -140.5t174 -50.5h225v340h-215q-21 0 -36.5 8t-19.5 26l-13 46zM914 -139q41 41 41 99t-41 99t-99 41t-99 -41t-41 -99t41 -99t99 -41t99 41z" />
    <glyph glyph-name="uniFE9F" unicode="&#x62c;" horiz-adv-x="1294" arabic-form="initial" 
d="M-57 234q-15 -64 0 -128.5t57 -105.5h212q370 0 614.5 117t376.5 229q8 6 9 7l-17 312l-102.5 56t-223.5 116.5t-217 100.5q-110 45 -221 30.5t-201 -85t-141 -185.5l-28 -62l291 -131l29 63q15 39 52.5 70t96.5 6t221 -96q113 -49 168 -73q-144 -61 -328.5 -98
t-378.5 -37h-212q-42 -42 -57 -106zM646 -224q-44 44 -106 44t-106 -44t-44 -106t44 -106t106 -44t106 44t44 106t-44 106z" />
    <glyph glyph-name="uniFEA0" unicode="&#x62c;" horiz-adv-x="1382" arabic-form="medial" 
d="M-57 234q-15 -64 0 -128.5t57 -105.5h212q381 0 711 190l30 -67q22 -57 86.5 -90t142.5 -33h200v340h-200q-25 0 -39 3l-3 3q28 24 57 50q9 8 10 9l-12 260l-102.5 56t-223.5 116.5t-217 100.5q-110 45 -221 30.5t-201 -85t-141 -185.5l-28 -62l291 -131l29 63
q15 39 52.5 70t96.5 6t221 -96q113 -49 168 -73q-144 -61 -328.5 -98t-378.5 -37h-212q-42 -42 -57 -106zM646 -224q-44 44 -106 44t-106 -44t-44 -106t44 -106t106 -44t106 44t44 106t-44 106z" />
    <glyph glyph-name="uniFEA2" unicode="&#x62d;" horiz-adv-x="1450" arabic-form="final" 
d="M1260 479l13 316l-98 58.5t-214.5 121t-213.5 101.5q-110 46 -220.5 31t-201 -85.5t-141.5 -184.5l-33 -74l291 -131l33 74q18 40 55 70.5t95 6.5q71 -30 270 -117q49 -22 74 -33l-539 -207q-145 -56 -233 -183.5t-88 -282.5q0 -136 67 -250t181.5 -181t249.5 -67h603
v339h-603q-59 0 -103 22.5t-63 71.5q-27 69 3 135t100 97l392 176l26 -112q21 -90 90 -140.5t174 -50.5h218v340h-208q-21 0 -36.5 8t-19.5 26l-14 47z" />
    <glyph glyph-name="uniFEA3" unicode="&#x62d;" horiz-adv-x="1294" arabic-form="initial" 
d="M-57 234q-15 -64 0 -128.5t57 -105.5h212q370 0 614.5 117t376.5 229q8 6 9 7l-17 312l-102.5 56t-223.5 116.5t-217 100.5q-110 45 -221 30.5t-201 -85t-141 -185.5l-28 -62l291 -131l29 63q15 39 52.5 70t96.5 6t221 -96q113 -49 168 -73q-144 -61 -328.5 -98
t-378.5 -37h-212q-42 -42 -57 -106z" />
    <glyph glyph-name="uniFEA4" unicode="&#x62d;" horiz-adv-x="1382" arabic-form="medial" 
d="M-57 234q-15 -64 0 -128.5t57 -105.5h212q381 0 711 190l30 -67q22 -57 86.5 -90t142.5 -33h200v340h-200q-25 0 -39 3l-3 3q28 24 57 50q9 8 10 9l-12 260l-102.5 56t-223.5 116.5t-217 100.5q-110 45 -221 30.5t-201 -85t-141 -185.5l-28 -62l291 -131l29 63
q15 39 52.5 70t96.5 6t221 -96q113 -49 168 -73q-144 -61 -328.5 -98t-378.5 -37h-212q-42 -42 -57 -106z" />
    <glyph glyph-name="uniFEA6" unicode="&#x62e;" horiz-adv-x="1450" arabic-form="final" 
d="M1260 479l13 316l-98 58.5t-214.5 121t-213.5 101.5q-110 46 -220.5 31t-201 -85.5t-141.5 -184.5l-33 -74l291 -131l33 74q18 40 55 70.5t95 6.5q71 -30 270 -117q49 -22 74 -33l-539 -207q-145 -56 -233 -183.5t-88 -282.5q0 -136 67 -250t181.5 -181t249.5 -67h603
v339h-603q-59 0 -103 22.5t-63 71.5q-27 69 3 135t100 97l392 176l26 -112q21 -90 90 -140.5t174 -50.5h218v340h-208q-21 0 -36.5 8t-19.5 26l-14 47zM746 1545q-44 44 -106 44t-106 -44t-44 -106t44 -106t106 -44t106 44t44 106t-44 106z" />
    <glyph glyph-name="uniFEA7" unicode="&#x62e;" horiz-adv-x="1294" arabic-form="initial" 
d="M-57 234q-15 -64 0 -128.5t57 -105.5h212q370 0 614.5 117t376.5 229q8 6 9 7l-17 312l-102.5 56t-223.5 116.5t-217 100.5q-110 45 -221 30.5t-201 -85t-141 -185.5l-28 -62l291 -131l29 63q15 39 52.5 70t96.5 6t221 -96q113 -49 168 -73q-144 -61 -328.5 -98
t-378.5 -37h-212q-42 -42 -57 -106zM650 1406q-44 44 -106 44t-106 -44t-44 -106t44 -106t106 -44t106 44t44 106t-44 106z" />
    <glyph glyph-name="uniFEA8" unicode="&#x62e;" horiz-adv-x="1382" arabic-form="medial" 
d="M-57 234q-15 -64 0 -128.5t57 -105.5h212q381 0 711 190l30 -67q22 -57 86.5 -90t142.5 -33h200v340h-200q-25 0 -39 3l-3 3q28 24 57 50q9 8 10 9l-12 260l-102.5 56t-223.5 116.5t-217 100.5q-110 45 -221 30.5t-201 -85t-141 -185.5l-28 -62l291 -131l29 63
q15 39 52.5 70t96.5 6t221 -96q113 -49 168 -73q-144 -61 -328.5 -98t-378.5 -37h-212q-42 -42 -57 -106zM650 1406q-44 44 -106 44t-106 -44t-44 -106t44 -106t106 -44t106 44t44 106t-44 106z" />
    <glyph glyph-name="uniFEAA" unicode="&#x62f;" horiz-adv-x="1179" arabic-form="final" 
d="M554 0q228 0 319 154l1 -2q55 -73 129.5 -112.5t165.5 -39.5h10v340h-10q-34 0 -54 9.5t-34 37.5l-402 741l-280 -153l312 -572q14 -29 -2 -57t-49 -28h-594v-318h488z" />
    <glyph glyph-name="uniFEAC" unicode="&#x630;" horiz-adv-x="1179" arabic-form="final" 
d="M554 0q228 0 319 154l1 -2q55 -73 129.5 -112.5t165.5 -39.5h10v340h-10q-34 0 -54 9.5t-34 37.5l-402 741l-280 -153l312 -572q14 -29 -2 -57t-49 -28h-594v-318h488zM720 1554q-44 44 -106 44t-106 -44t-44 -106t44 -106t106 -44t106 44t44 106t-44 106z" />
    <glyph glyph-name="uniFEAE" unicode="&#x631;" horiz-adv-x="855" arabic-form="final" 
d="M844 0h11v340h-11q-61 0 -108 48.5t-47 116.5v248h-319v-656q0 -74 -37.5 -142.5t-100.5 -110.5t-136 -42h-107v-340h107q160 0 296.5 82t216.5 218.5t80 291.5v24q79 -78 155 -78z" />
    <glyph glyph-name="uniFEB0" unicode="&#x632;" horiz-adv-x="855" arabic-form="final" 
d="M844 0h11v340h-11q-61 0 -108 48.5t-47 116.5v248h-319v-656q0 -74 -37.5 -142.5t-100.5 -110.5t-136 -42h-107v-340h107q160 0 296.5 82t216.5 218.5t80 291.5v24q79 -78 155 -78zM636 1209q-44 44 -106 44t-106 -44t-44 -106t44 -106t106 -44t106 44t44 106t-44 106z
" />
    <glyph glyph-name="uniFEB2" unicode="&#x633;" horiz-adv-x="2745" arabic-form="final" 
d="M2745 340h-106q-47 0 -79.5 32.5t-32.5 78.5v302h-318v-302q0 -47 -28 -79t-73 -32h-28q-44 0 -72 32t-28 79v302h-318v-302q0 -47 -28 -79t-72 -32h-27q-46 0 -74 32t-28 79v301h-318v-655q0 -79 -32.5 -146.5t-99 -108.5t-163.5 -41h-86q-98 0 -164.5 41t-98.5 108.5
t-32 146.5v460h-319v-503q0 -159 75.5 -295t215 -217t323.5 -81h86q178 0 314.5 76t213.5 204.5t85 280.5v1q42 -23 102 -23h27q81 0 144 35t115 102q52 -67 115 -102t144 -35h28q87 0 150.5 34t113.5 99q50 -65 114.5 -99t152.5 -34h106v340z" />
    <glyph glyph-name="uniFEB3" unicode="&#x633;" horiz-adv-x="1750" arabic-form="initial" 
d="M-57 234q-15 -64 0 -128.5t57 -105.5h106q88 0 153 34t116 98q50 -65 113 -98.5t149 -33.5h28q81 0 144 35t115 102q52 -67 115 -102t144 -35h27q117 0 213 57.5t151.5 156t55.5 216.5v366h-318v-345q0 -47 -28 -79t-74 -32h-27q-44 0 -72 32t-28 79v302h-318v-302
q0 -47 -28 -79t-72 -32h-28q-45 0 -73 32t-28 79v302h-318v-302q0 -46 -32.5 -78.5t-79.5 -32.5h-106q-42 -42 -57 -106z" />
    <glyph glyph-name="uniFEB4" unicode="&#x633;" horiz-adv-x="1848" arabic-form="medial" 
d="M-57 234q-15 -64 0 -128.5t57 -105.5h106q88 0 153 34t116 98q50 -65 113 -98.5t149 -33.5h28q81 0 144 35t115 102q52 -67 115 -102t144 -35h27q87 0 150 33.5t113 97.5q51 -63 116 -97t152 -34h107v340h-107q-46 0 -78.5 32.5t-32.5 78.5v302h-318v-302q0 -47 -28 -79
t-74 -32h-27q-44 0 -72 32t-28 79v302h-318v-302q0 -47 -28 -79t-72 -32h-28q-45 0 -73 32t-28 79v302h-318v-302q0 -46 -32.5 -78.5t-79.5 -32.5h-106q-42 -42 -57 -106z" />
    <glyph glyph-name="uniFEB6" unicode="&#x634;" horiz-adv-x="2745" arabic-form="final" 
d="M2745 340h-106q-47 0 -79.5 32.5t-32.5 78.5v302h-318v-302q0 -47 -28 -79t-73 -32h-28q-44 0 -72 32t-28 79v302h-318v-302q0 -47 -28 -79t-72 -32h-27q-46 0 -74 32t-28 79v301h-318v-655q0 -79 -32.5 -146.5t-99 -108.5t-163.5 -41h-86q-98 0 -164.5 41t-98.5 108.5
t-32 146.5v460h-319v-503q0 -159 75.5 -295t215 -217t323.5 -81h86q178 0 314.5 76t213.5 204.5t85 280.5v1q42 -23 102 -23h27q81 0 144 35t115 102q52 -67 115 -102t144 -35h28q87 0 150.5 34t113.5 99q50 -65 114.5 -99t152.5 -34h106v340zM1747 1209q-44 44 -106 44
t-106 -44t-44 -106t44 -106t106 -44t106 44t44 106t-44 106zM2107 1209q-44 44 -106 44t-106 -44t-44 -106t44 -106t106 -44t106 44t44 106t-44 106zM1927 1509q-44 44 -106 44t-106 -44t-44 -106t44 -106t106 -44t106 44t44 106t-44 106z" />
    <glyph glyph-name="uniFEB7" unicode="&#x634;" horiz-adv-x="1750" arabic-form="initial" 
d="M-57 234q-15 -64 0 -128.5t57 -105.5h106q88 0 153 34t116 98q50 -65 113 -98.5t149 -33.5h28q81 0 144 35t115 102q52 -67 115 -102t144 -35h27q117 0 213 57.5t151.5 156t55.5 216.5v366h-318v-345q0 -47 -28 -79t-74 -32h-27q-44 0 -72 32t-28 79v302h-318v-302
q0 -47 -28 -79t-72 -32h-28q-45 0 -73 32t-28 79v302h-318v-302q0 -46 -32.5 -78.5t-79.5 -32.5h-106q-42 -42 -57 -106zM850 1209q-44 44 -106 44t-106 -44t-44 -106t44 -106t106 -44t106 44t44 106t-44 106zM1210 1209q-44 44 -106 44t-106 -44t-44 -106t44 -106t106 -44
t106 44t44 106t-44 106zM1030 1509q-44 44 -106 44t-106 -44t-44 -106t44 -106t106 -44t106 44t44 106t-44 106z" />
    <glyph glyph-name="uniFEB8" unicode="&#x634;" horiz-adv-x="1848" arabic-form="medial" 
d="M-57 234q-15 -64 0 -128.5t57 -105.5h106q88 0 153 34t116 98q50 -65 113 -98.5t149 -33.5h28q81 0 144 35t115 102q52 -67 115 -102t144 -35h27q87 0 150 33.5t113 97.5q51 -63 116 -97t152 -34h107v340h-107q-46 0 -78.5 32.5t-32.5 78.5v302h-318v-302q0 -47 -28 -79
t-74 -32h-27q-44 0 -72 32t-28 79v302h-318v-302q0 -47 -28 -79t-72 -32h-28q-45 0 -73 32t-28 79v302h-318v-302q0 -46 -32.5 -78.5t-79.5 -32.5h-106q-42 -42 -57 -106zM850 1209q-44 44 -106 44t-106 -44t-44 -106t44 -106t106 -44t106 44t44 106t-44 106zM1210 1209
q-44 44 -106 44t-106 -44t-44 -106t44 -106t106 -44t106 44t44 106t-44 106zM1030 1509q-44 44 -106 44t-106 -44t-44 -106t44 -106t106 -44t106 44t44 106t-44 106z" />
    <glyph glyph-name="uniFEBA" unicode="&#x635;" horiz-adv-x="2724" arabic-form="final" 
d="M2232 28q84 28 151 81q69 -49 148.5 -79t178.5 -30h14v340h-13q-95 0 -167 15q16 59 16 124q0 112 -50.5 224.5t-164 186.5t-291.5 68q-238 -9 -383.5 -196t-217.5 -392q-20 29 -20 60v322h-318v-655q0 -79 -32.5 -146.5t-99 -108.5t-163.5 -41h-86q-98 0 -164.5 41
t-98.5 108.5t-32 146.5v460h-319v-503q0 -159 75.5 -295t215 -217t323.5 -81h86q184 0 323.5 81t214.5 217t75 295v4q110 -58 218 -58h402q95 0 179 28zM2065 639q78 1 127 -32.5t49 -127.5q0 -76 -53 -107.5t-135 -31.5h-279q140 294 291 299z" />
    <glyph glyph-name="uniFEBB" unicode="&#x635;" horiz-adv-x="1719" arabic-form="initial" 
d="M1115 639q78 1 127 -32.5t49 -127.5q0 -76 -53 -107.5t-135 -31.5h-279q140 294 291 299zM-57 234q-15 -64 0 -128.5t57 -105.5h54q87 0 152.5 34.5t117.5 99.5q52 -65 117.5 -99.5t153.5 -34.5h508q143 0 258.5 62.5t182 172t66.5 244.5q0 112 -50.5 224.5t-164 186.5
t-291.5 68q-238 -9 -383.5 -196t-217.5 -392q-20 29 -20 60v323h-318v-302q0 -46 -33 -78.5t-78 -32.5h-54q-42 -42 -57 -106z" />
    <glyph glyph-name="uniFEBC" unicode="&#x635;" horiz-adv-x="1774" arabic-form="medial" 
d="M1115 639q78 1 127 -32.5t49 -127.5q0 -76 -53 -107.5t-135 -31.5h-279q140 294 291 299zM-57 234q-15 -64 0 -128.5t57 -105.5h54q87 0 152.5 34.5t117.5 99.5q52 -65 117.5 -99.5t153.5 -34.5h508q95 0 179 28t151 81q69 -49 148.5 -79t178.5 -30h14v340h-13
q-95 0 -167 15q16 59 16 124q0 112 -50.5 224.5t-164 186.5t-291.5 68q-238 -9 -383.5 -196t-217.5 -392q-20 29 -20 60v323h-318v-302q0 -46 -33 -78.5t-78 -32.5h-54q-42 -42 -57 -106z" />
    <glyph glyph-name="uniFEBE" unicode="&#x636;" horiz-adv-x="2724" arabic-form="final" 
d="M2232 28q84 28 151 81q69 -49 148.5 -79t178.5 -30h14v340h-13q-95 0 -167 15q16 59 16 124q0 112 -50.5 224.5t-164 186.5t-291.5 68q-238 -9 -383.5 -196t-217.5 -392q-20 29 -20 60v322h-318v-655q0 -79 -32.5 -146.5t-99 -108.5t-163.5 -41h-86q-98 0 -164.5 41
t-98.5 108.5t-32 146.5v460h-319v-503q0 -159 75.5 -295t215 -217t323.5 -81h86q184 0 323.5 81t214.5 217t75 295v4q110 -58 218 -58h402q95 0 179 28zM2065 639q78 1 127 -32.5t49 -127.5q0 -76 -53 -107.5t-135 -31.5h-279q140 294 291 299zM2147 1401q-44 44 -106 44
t-106 -44t-44 -106t44 -106t106 -44t106 44t44 106t-44 106z" />
    <glyph glyph-name="uniFEBF" unicode="&#x636;" horiz-adv-x="1719" arabic-form="initial" 
d="M1115 639q78 1 127 -32.5t49 -127.5q0 -76 -53 -107.5t-135 -31.5h-279q140 294 291 299zM-57 234q-15 -64 0 -128.5t57 -105.5h54q87 0 152.5 34.5t117.5 99.5q52 -65 117.5 -99.5t153.5 -34.5h508q143 0 258.5 62.5t182 172t66.5 244.5q0 112 -50.5 224.5t-164 186.5
t-291.5 68q-238 -9 -383.5 -196t-217.5 -392q-20 29 -20 60v323h-318v-302q0 -46 -33 -78.5t-78 -32.5h-54q-42 -42 -57 -106zM1209 1401q-44 44 -106 44t-106 -44t-44 -106t44 -106t106 -44t106 44t44 106t-44 106z" />
    <glyph glyph-name="uniFEC0" unicode="&#x636;" horiz-adv-x="1774" arabic-form="medial" 
d="M1115 639q78 1 127 -32.5t49 -127.5q0 -76 -53 -107.5t-135 -31.5h-279q140 294 291 299zM-57 234q-15 -64 0 -128.5t57 -105.5h54q87 0 152.5 34.5t117.5 99.5q52 -65 117.5 -99.5t153.5 -34.5h508q95 0 179 28t151 81q69 -49 148.5 -79t178.5 -30h14v340h-13
q-95 0 -167 15q16 59 16 124q0 112 -50.5 224.5t-164 186.5t-291.5 68q-238 -9 -383.5 -196t-217.5 -392q-20 29 -20 60v323h-318v-302q0 -46 -33 -78.5t-78 -32.5h-54q-42 -42 -57 -106zM1209 1401q-44 44 -106 44t-106 -44t-44 -106t44 -106t106 -44t106 44t44 106
t-44 106z" />
    <glyph glyph-name="uniFEC2" unicode="&#x637;" horiz-adv-x="1579" arabic-form="final" 
d="M1579 340h-13q-71 0 -127 8q18 70 18 131q0 112 -52 225.5t-166 187.5t-288 66q-162 -7 -300 -120l15 134v482h-318v-1077q-3 -8 -8 -20q-5 -13 -6 -17h-214v-340h830q88 0 167 24.5t142 69.5q141 -94 306 -94h14v340zM670 340q34 71 75.5 135.5t97.5 113t119 50.5
q177 7 177 -160q0 -76 -53.5 -107.5t-135.5 -31.5h-280z" />
    <glyph glyph-name="uniFEC3" unicode="&#x637;" horiz-adv-x="1426" arabic-form="initial" 
d="M500 829l17 142v483h-318v-1106q-3 -4 -4 -8h-195q-42 -42 -57 -106t0 -128.5t57 -105.5h811q142 0 258 62.5t182.5 172t66.5 244.5q0 113 -52 226t-165.5 187t-288.5 66v0q-166 -7 -312 -129zM946 371.5q-53 -31.5 -135 -31.5h-279q140 294 291 299q176 7 176 -160v0
q0 -76 -53 -107.5z" />
    <glyph glyph-name="uniFEC4" unicode="&#x637;" horiz-adv-x="1429" arabic-form="medial" 
d="M1300 347q19 65 18 132q0 113 -52 226.5t-165.5 187t-288.5 65.5q-166 -7 -312 -129l17 142v483h-318v-1106q-3 -4 -4 -8h-195q-42 -42 -57 -106t0 -128.5t57 -105.5h811q175 0 305 91q141 -91 300 -91h13v340h-13q-58 0 -116 7zM946 371.5q-53 -31.5 -135 -31.5h-279
q140 294 291 299q176 7 176 -160q0 -76 -53 -107.5z" />
    <glyph glyph-name="uniFEC6" unicode="&#x638;" horiz-adv-x="1579" arabic-form="final" 
d="M1579 340h-13q-71 0 -127 8q18 70 18 131q0 112 -52 225.5t-166 187.5t-288 66q-162 -7 -300 -120l15 134v482h-318v-1077q-3 -8 -8 -20q-5 -13 -6 -17h-214v-340h830q88 0 167 24.5t142 69.5q141 -94 306 -94h14v340zM670 340q34 71 75.5 135.5t97.5 113t119 50.5
q177 7 177 -160q0 -76 -53.5 -107.5t-135.5 -31.5h-280zM1168 1401q-44 44 -106 44t-106 -44t-44 -106t44 -106t106 -44t106 44t44 106t-44 106z" />
    <glyph glyph-name="uniFEC7" unicode="&#x638;" horiz-adv-x="1426" arabic-form="initial" 
d="M500 829l17 142v483h-318v-1106q-3 -4 -4 -8h-195q-42 -42 -57 -106t0 -128.5t57 -105.5h811q142 0 258 62.5t182.5 172t66.5 244.5q0 113 -52 226t-165.5 187t-288.5 66v0q-166 -7 -312 -129zM946 371.5q-53 -31.5 -135 -31.5h-279q140 294 291 299q176 7 176 -160v0
q0 -76 -53 -107.5zM1040 1401q-44 44 -106 44t-106 -44t-44 -106t44 -106t106 -44t106 44t44 106t-44 106z" />
    <glyph glyph-name="uniFEC8" unicode="&#x638;" horiz-adv-x="1429" arabic-form="medial" 
d="M1300 347q19 65 18 132q0 113 -52 226.5t-165.5 187t-288.5 65.5q-166 -7 -312 -129l17 142v483h-318v-1106q-3 -4 -4 -8h-195q-42 -42 -57 -106t0 -128.5t57 -105.5h811q175 0 305 91q141 -91 300 -91h13v340h-13q-58 0 -116 7zM946 371.5q-53 -31.5 -135 -31.5h-279
q140 294 291 299q176 7 176 -160q0 -76 -53 -107.5zM1040 1401q-44 44 -106 44t-106 -44t-44 -106t44 -106t106 -44t106 44t44 106t-44 106z" />
    <glyph glyph-name="uniFECA" unicode="&#x639;" horiz-adv-x="1340" arabic-form="final" 
d="M1115 -199h-464q-92 0 -158 55.5t-66 145.5q0 46 25 80t59 56t87 48l6 3q9 4 25 12q28 14 35 18q93 -107 160.5 -152t121.5 -56t132 -11h262v340h-196q-77 0 -129.5 9t-71.5 32l190 218q64 77 74 169t-28.5 174.5t-115 133.5t-174.5 51h-557l-130 -332l240 -359
q-171 -86 -252 -188.5t-81 -245.5q0 -146 73 -270t197.5 -197t271.5 -73h464v339zM857 797q32 0 38.5 -19.5t-13.5 -44.5l-162 -196l-187 260h324z" />
    <glyph glyph-name="uniFECB" unicode="&#x639;" horiz-adv-x="1054" arabic-form="initial" 
d="M-57 234q-15 -64 0 -128.5t57 -105.5h940v340h-344q-140 21 -140 128q0 63 34.5 111t99.5 55q61 7 120.5 -10t139.5 -69l64 318q-73 45 -159.5 67.5t-199.5 10.5q-120 -13 -215 -80t-148.5 -172.5t-53.5 -230.5q0 -67 26 -128h-164q-42 -42 -57 -106z" />
    <glyph glyph-name="uniFECC" unicode="&#x639;" horiz-adv-x="1223" arabic-form="medial" 
d="M740 628q32 0 39 -19t-13 -45l-162 -197l-187 261h323zM-57 234q-15 -64 0 -128.5t57 -105.5h270q140 0 217.5 20.5t100.5 43.5q22 -23 100.5 -43.5t218.5 -20.5h316v340h-245q-11 0 -24.5 -3t-18.5 -8l82 101q64 77 74 169t-28.5 174.5t-115.5 133.5t-175 51h-557
l-129 -332l196 -296q-7 10 -32 10h-250q-42 -42 -57 -106z" />
    <glyph glyph-name="uniFECE" unicode="&#x63a;" horiz-adv-x="1340" arabic-form="final" 
d="M1115 -199h-464q-92 0 -158 55.5t-66 145.5q0 46 25 80t59 56t87 48l6 3q9 4 25 12q28 14 35 18q93 -107 160.5 -152t121.5 -56t132 -11h262v340h-196q-77 0 -129.5 9t-71.5 32l190 218q64 77 74 169t-28.5 174.5t-115 133.5t-174.5 51h-557l-130 -332l240 -359
q-171 -86 -252 -188.5t-81 -245.5q0 -146 73 -270t197.5 -197t271.5 -73h464v339zM857 797q32 0 38.5 -19.5t-13.5 -44.5l-162 -196l-187 260h324zM829 1583q-44 44 -106 44t-106 -44t-44 -106t44 -106t106 -44t106 44t44 106t-44 106z" />
    <glyph glyph-name="uniFECF" unicode="&#x63a;" horiz-adv-x="1034" arabic-form="initial" 
d="M-57 234q-15 -64 0 -128.5t57 -105.5h940v340h-344q-140 21 -140 128q0 63 34.5 111t99.5 55q61 7 120.5 -10t139.5 -69l64 318q-73 45 -159.5 67.5t-199.5 10.5q-120 -13 -215 -80t-148.5 -172.5t-53.5 -230.5q0 -67 26 -128h-164q-42 -42 -57 -106zM686 1388
q-44 44 -106 44t-106 -44t-44 -106t44 -106t106 -44t106 44t44 106t-44 106z" />
    <glyph glyph-name="uniFED0" unicode="&#x63a;" horiz-adv-x="1223" arabic-form="medial" 
d="M740 628q32 0 39 -19t-13 -45l-162 -197l-187 261h323zM-57 234q-15 -64 0 -128.5t57 -105.5h270q140 0 217.5 20.5t100.5 43.5q22 -23 100.5 -43.5t218.5 -20.5h316v340h-245q-11 0 -24.5 -3t-18.5 -8l82 101q64 77 74 169t-28.5 174.5t-115.5 133.5t-175 51h-557
l-129 -332l196 -296q-7 10 -32 10h-250q-42 -42 -57 -106zM701 1413q-44 44 -106 44t-106 -44t-44 -106t44 -106t106 -44t106 44t44 106t-44 106z" />
    <glyph glyph-name="uniFED2" unicode="&#x641;" horiz-adv-x="1874" arabic-form="final" 
d="M1380.5 649.5q44.5 -26.5 44.5 -84.5q0 -67 -39.5 -123.5t-98.5 -101.5q-59 45 -98.5 101.5t-39.5 123.5q0 58 44.5 84.5t93.5 26.5t93.5 -26.5zM967 0q107 0 170.5 10.5t99.5 25t50 28.5q22 -23 100 -43.5t219 -20.5h269v340h-197q31 40 48.5 99.5t17.5 125.5
q0 119 -61 217.5t-165.5 156t-230.5 57.5t-231 -57.5t-166 -156t-61 -217.5q0 -66 17.5 -125.5t48.5 -99.5h-345q-46 0 -78.5 32.5t-32.5 78.5v345h-319v-387q0 -111 58 -205t156.5 -149t215.5 -55h417zM1393 1397q-44 44 -106 44t-106 -44t-44 -106t44 -106t106 -44t106 44
t44 106t-44 106z" />
    <glyph glyph-name="uniFED4" unicode="&#x641;" horiz-adv-x="1177" arabic-form="medial" 
d="M682 649.5q45 -26.5 45 -84.5q0 -119 -139 -225q-59 45 -98.5 101.5t-39.5 123.5q0 58 44.5 84.5t93.5 26.5t94 -26.5zM-57 234q-15 -64 0 -128.5t57 -105.5h270q140 0 218 20.5t100 43.5q23 -23 101 -43.5t218 -20.5h270v340h-197q31 40 48 99.5t17 125.5
q0 119 -60.5 217.5t-165.5 156t-231 57.5t-230.5 -57.5t-165 -156t-60.5 -217.5q0 -138 65 -225h-197q-42 -42 -57 -106zM694 1397q-44 44 -106 44t-106 -44t-44 -106t44 -106t106 -44t106 44t44 106t-44 106z" />
    <glyph glyph-name="uniFED6" unicode="&#x642;" horiz-adv-x="1758" arabic-form="final" 
d="M1142 341q-58 0 -86.5 11.5t-37 31t-8.5 53.5q0 58 27 114t105 56q76 0 104.5 -52t28.5 -118v-96h-133zM1758 340h-163l-1 97q0 142 -57.5 253t-160.5 173.5t-234 62.5q-129 0 -232 -63t-161.5 -174.5t-58.5 -251.5q0 -436 452 -436h129q0 -56 -27.5 -101.5t-76 -71
t-107.5 -25.5h-326q-98 0 -164.5 41t-98.5 108t-32 146v460h-319v-503q0 -159 75.5 -295t215 -217t323.5 -81h326q127 0 248.5 75.5t200.5 199.5t85 264h164v339zM1068 1326q-44 44 -106 44t-106 -44t-44 -106t44 -106t106 -44t106 44t44 106t-44 106zM1428 1326
q-44 44 -106 44t-106 -44t-44 -106t44 -106t106 -44t106 44t44 106t-44 106z" />
    <glyph glyph-name="uniFED8" unicode="&#x642;" horiz-adv-x="1177" arabic-form="medial" 
d="M682 649.5q45 -26.5 45 -84.5q0 -119 -139 -225q-59 45 -98.5 101.5t-39.5 123.5q0 58 44.5 84.5t93.5 26.5t94 -26.5zM-57 234q-15 -64 0 -128.5t57 -105.5h270q140 0 218 20.5t100 43.5q23 -23 101 -43.5t218 -20.5h270v340h-197q31 40 48 99.5t17 125.5
q0 119 -60.5 217.5t-165.5 156t-231 57.5t-230.5 -57.5t-165 -156t-60.5 -217.5q0 -138 65 -225h-197q-42 -42 -57 -106zM514 1429q-44 44 -106 44t-106 -44t-44 -106t44 -106t106 -44t106 44t44 106t-44 106zM874 1429q-44 44 -106 44t-106 -44t-44 -106t44 -106t106 -44
t106 44t44 106t-44 106z" />
    <glyph glyph-name="uniFEDA" unicode="&#x643;" horiz-adv-x="1806" arabic-form="final" 
d="M1352.5 34.5q65.5 34.5 117.5 99.5q52 -65 117.5 -99.5t153.5 -34.5h65v340h-65q-47 0 -79.5 32.5t-32.5 78.5v1003h-318v-1003q0 -46 -33 -78.5t-78 -32.5h-650q-46 0 -78.5 32.5t-32.5 78.5v345h-319v-387q0 -111 58 -205t156.5 -149t215.5 -55h650q87 0 152.5 34.5z
M665 636l478 183l-60 158l-147 -56q-45 -7 -77.5 10.5t-31.5 64.5q0 30 18 56.5t51 27.5q24 0 46 -7t53 -22q7 -3 10 -4l44 159q-46 24 -79.5 34t-73.5 10q-71 0 -125.5 -37t-84 -95.5t-29.5 -121.5q0 -43 17.5 -85t52.5 -69l-122 -47z" />
    <glyph glyph-name="uniFEDB" unicode="&#x643;" horiz-adv-x="1075" arabic-form="initial" 
d="M-57 234q-15 -64 0 -128.5t57 -105.5h581q120 0 211.5 63.5t135 164.5t26.5 211t-99 196l-374 391l520 199l-112 297l-745 -284v-319l459 -482q17 -18 17 -41t-16 -39.5t-42 -16.5h-562q-42 -42 -57 -106z" />
    <glyph glyph-name="uniFEDC" unicode="&#x643;" horiz-adv-x="1181" arabic-form="medial" 
d="M-57 234q-15 -64 0 -128.5t57 -105.5h475q136 0 229.5 48t143.5 132l59 -63q55 -56 125.5 -86.5t148.5 -30.5h5v340h-5q-46 0 -64 18l-636 668l520 199l-112 297l-745 -284v-319l459 -482q17 -18 16.5 -41t-16 -39.5t-41.5 -16.5h-562q-42 -42 -57 -106z" />
    <glyph glyph-name="uniFEDE" unicode="&#x644;" horiz-adv-x="1609" arabic-form="final" 
d="M820 -539q183 0 322 80.5t214.5 215t76.5 292.5v0q60 -49 112 -49h64v340h-64q-46 0 -79 32.5t-33 78.5v1003h-318v-1357q0 -79 -32.5 -146.5t-99 -108.5t-163.5 -41h-86q-98 0 -164.5 41t-98.5 108.5t-32 146.5v440h-319v-483q0 -159 75.5 -295t215 -217t323.5 -81h86z
" />
    <glyph glyph-name="uniFEDF" unicode="&#x644;" horiz-adv-x="714" arabic-form="initial" 
d="M-57 234q-15 -64 0 -128.5t57 -105.5h118q117 0 216 57.5t156.5 156.5t57.5 216v1024h-318v-1003q0 -46 -33 -78.5t-79 -32.5h-118q-42 -42 -57 -106z" />
    <glyph glyph-name="uniFEE0" unicode="&#x644;" horiz-adv-x="724" arabic-form="medial" 
d="M-57 234q-15 -64 0 -128.5t57 -105.5h118q88 0 153.5 34.5t117.5 99.5q52 -65 117.5 -99.5t152.5 -34.5h65v340h-65q-45 0 -78 32.5t-33 78.5v1003h-318v-1003q0 -46 -33 -78.5t-79 -32.5h-118q-42 -42 -57 -106z" />
    <glyph glyph-name="uniFEE2" unicode="&#x645;" horiz-adv-x="1632" arabic-form="final" 
d="M1632 340h-23q-44 0 -78 36.5t-34 83.5v3q0 138 -57.5 246t-161 168t-235.5 59h-460q-126 0 -232.5 -62t-168.5 -168.5t-62 -232.5v-1011h319v1011q0 61 42 103t102 42h26q-5 -62 -5 -154q-1 -144 49.5 -251t149 -165.5t238.5 -58.5q102 0 174.5 37.5t126.5 110.5
q53 -67 116.5 -102t150.5 -35h23v340zM1148 571.5q31 -44.5 31 -108.5q0 -156 -138 -156q-140 0 -139 155v156h139q76 -2 107 -46.5z" />
    <glyph glyph-name="uniFEE3" unicode="&#x645;" horiz-adv-x="1157" arabic-form="initial" 
d="M592 308q-73 0 -106.5 41t-32.5 113q2 155 139 156q76 -1 107 -45.5t31 -109.5v0q0 -155 -138 -155zM346 874q-103 -62 -156 -168.5t-54 -241.5v-3q-1 -47 -34.5 -84t-78.5 -37h-23q-42 -42 -57 -106t0 -128.5t57 -105.5h23q87 0 149.5 35t115.5 102q53 -73 125.5 -110.5
t178.5 -37.5q132 0 236 60t162 168t58 246q0 136 -57.5 243t-161 168t-235.5 63v0q-145 -1 -248 -63z" />
    <glyph glyph-name="uniFEE4" unicode="&#x645;" horiz-adv-x="1182" arabic-form="medial" 
d="M592 307q-73 0 -106.5 41.5t-32.5 113.5q2 155 139 156q76 -1 107 -45.5t31 -109.5v0q0 -156 -138 -156zM1081.5 376.5q-33.5 36.5 -34.5 83.5v3q0 136 -57.5 243t-160.5 168t-236 63q-143 -1 -246 -65.5t-156.5 -172t-54.5 -235.5v-3q0 -47 -34 -84t-79 -37h-23
q-42 -42 -57 -106t0 -128.5t57 -105.5h23q87 0 149.5 35t115.5 102q53 -73 125.5 -110.5t178.5 -37.5q103 0 175 37.5t126 111.5q53 -67 116.5 -102.5t150.5 -35.5h23v340h-23q-45 0 -78.5 36.5z" />
    <glyph glyph-name="uniFEE6" unicode="&#x646;" horiz-adv-x="1609" arabic-form="final" 
d="M820 -539q183 0 322 80.5t214.5 215t76.5 292.5v0q60 -49 112 -49h64v340h-64q-46 0 -79 32.5t-33 78.5v301h-318v-655q0 -79 -32.5 -146.5t-99 -108.5t-163.5 -41h-86q-98 0 -164.5 41t-98.5 108.5t-32 146.5v460h-319v-503q0 -159 75.5 -295t215 -217t323.5 -81h86z
M830 981q-44 44 -106 44t-106 -44t-44 -106t44 -106t106 -44t106 44t44 106t-44 106z" />
    <glyph glyph-name="uniFEE7" unicode="&#x646;" horiz-adv-x="735" arabic-form="initial" 
d="M-57 234q-15 -64 0 -128.5t57 -105.5h185q117 0 215.5 55t156.5 149t58 205v387h-319v-345q0 -46 -32.5 -78.5t-78.5 -32.5h-185q-42 -42 -57 -106zM483 1251q-44 44 -106 44t-106 -44t-44 -106t44 -106t106 -44t106 44t44 106t-44 106z" />
    <glyph glyph-name="uniFEE8" unicode="&#x646;" horiz-adv-x="790" arabic-form="medial" 
d="M-57 234q-15 -64 0 -128.5t57 -105.5h185q88 0 153 34.5t117 99.5q52 -65 117.5 -99.5t153.5 -34.5h64v340h-64q-46 0 -78.5 32.5t-32.5 78.5v302h-319v-302q0 -46 -32.5 -78.5t-78.5 -32.5h-185q-42 -42 -57 -106zM483 1208q-44 44 -106 44t-106 -44t-44 -106t44 -106
t106 -44t106 44t44 106t-44 106z" />
    <glyph glyph-name="uniFEEA" unicode="&#x647;" horiz-adv-x="1219" arabic-form="final" 
d="M1114 0h105v340h-107q-32 0 -55.5 20.5t-27.5 51.5l-107 728l-316 -45l13 -94q-159 -21 -280 -98.5t-183 -201t-50 -276.5q9 -112 73 -193.5t166.5 -118t224.5 -18t240 95.5q105 -191 304 -191zM700 441q-72 -43 -134.5 -49.5t-101 12.5t-40.5 47q-8 104 59 162t182 70z
" />
    <glyph glyph-name="uniFEEB" unicode="&#x647;" horiz-adv-x="1683" arabic-form="initial" 
d="M682 649.5q45 -26.5 45 -84.5q0 -119 -139 -225q-59 45 -98.5 101.5t-39.5 123.5q0 58 44.5 84.5t93.5 26.5t94 -26.5zM1202 0q109 0 198 57t137 150t41 199t-76 197l-404 531l-253 -194l386 -507q14 -18 11.5 -40t-18.5 -37.5t-39 -15.5h-205q31 40 48 99.5t17 125.5
q0 119 -60.5 217.5t-165.5 156t-231 57.5t-230.5 -57.5t-165 -156t-60.5 -217.5q0 -138 65 -225h-197q-42 -42 -57 -106t0 -128.5t57 -105.5h270q140 0 218 20.5t100 43.5q23 -23 101 -43.5t218 -20.5h295z" />
    <glyph glyph-name="uniFEEC" unicode="&#x647;" horiz-adv-x="1306" arabic-form="medial" 
d="M470 451q0 79 36.5 118.5t99.5 37.5q84 -1 111.5 -43t27.5 -81q2 -56 -47.5 -110.5t-136.5 -54.5h-90zM-57 234q-15 -64 0 -128.5t57 -105.5h152q0 -173 84.5 -290t212.5 -173t260 -56h175l125 273q57 128 132 187t160 59h5v340h-5q-108 0 -212 -57t-183 -142t-118 -166
l-79 -167q-87 -3 -140.5 27t-75.5 75.5t-22 89.5h90q141 0 257 66.5t182 178t65 240.5q-2 123 -62 223t-163 158t-229 60q-133 3 -237.5 -58.5t-163 -170.5t-59.5 -246l1 -111h-152q-42 -42 -57 -106z" />
    <glyph glyph-name="uniFEEE" unicode="&#x648;" horiz-adv-x="1171" arabic-form="final" 
d="M566 340q-58 0 -86.5 11.5t-37 31t-8.5 53.5q0 58 27 114t105 56q76 0 105 -52t29 -118v-96h-134zM668 -101.5q-28 -45.5 -76.5 -71t-107.5 -25.5h-360v-340h360q127 0 249 75t200.5 199.5t84.5 263.5h152v340h-152v96q0 142 -57.5 253.5t-160.5 173.5t-234 62
q-129 0 -232 -63t-161.5 -174.5t-58.5 -251.5q0 -436 452 -436h130q0 -56 -28 -101.5z" />
    <glyph glyph-name="uniFEF2" unicode="&#x64a;" horiz-adv-x="1732" arabic-form="final" 
d="M1732 340h-990v-318h374q48 -1 65.5 -22.5t16.5 -58.5q-1 -54 -63.5 -97t-170.5 -43h-250q-141 0 -208.5 77.5t-67.5 198.5v480h-318v-523q0 -158 71 -288.5t206 -207.5t317 -77h250q178 0 301 74t182.5 183t60.5 215q0 39 -3 67h227v340zM762 -739q-44 44 -106 44
t-106 -44t-44 -106t44 -106t106 -44t106 44t44 106t-44 106zM1122 -739q-44 44 -106 44t-106 -44t-44 -106t44 -106t106 -44t106 44t44 106t-44 106z" />
    <glyph glyph-name=".notdef" horiz-adv-x="1300" 
d="M1200 0v1400h-1100v-1400h1100zM350 1150h600v-900h-600v900z" />
    <glyph glyph-name=".null" horiz-adv-x="0" 
 />
    <glyph glyph-name="uni000D" unicode="&#xd;" horiz-adv-x="0" 
 />
    <glyph glyph-name="space" unicode=" " horiz-adv-x="433" 
 />
    <glyph glyph-name="exclam" unicode="!" horiz-adv-x="604" 
d="M475 401l13 653v378h-370v-378l14 -653h343zM495 0v277h-385v-277h385z" />
    <glyph glyph-name="quotedbl" unicode="&#x22;" horiz-adv-x="851" 
d="M751 945l30 487h-303v-487h273zM343 945l32 487h-304v-487h272z" />
    <glyph glyph-name="numbersign" unicode="#" horiz-adv-x="1522" 
d="M424 0l103 343h255l-101 -343h316l101 343h267v252h-192l74 245h205v253h-130l102 339h-316l-102 -339h-255l102 339h-317l-102 -339h-275v-253h200l-74 -245h-214v-252h139l-101 -343h315zM675 840h256l-74 -245h-255z" />
    <glyph glyph-name="dollar" unicode="$" horiz-adv-x="1195" 
d="M653 525.5q94 -38.5 93 -120.5q-1 -147 -220 -146q-220 5 -434 100v-294q142 -67 357 -81v-175h324v197q351 82 352 400q0 116 -32.5 202t-122.5 149t-269 113q-137 37 -195 69.5t-58 93.5q-1 132 235 138q158 4 365 -76v296q-103 35 -275 51v182h-324v-185
q-378 -64 -378 -409q0 -162 78 -261t293 -167q117 -38 211 -76.5z" />
    <glyph glyph-name="percent" unicode="%" horiz-adv-x="1639" 
d="M623.5 862.5q83.5 90.5 83.5 235.5q0 168 -82 262t-236 94q-153 0 -235.5 -94t-82.5 -262q0 -145 83.5 -235.5t234.5 -90.5t234.5 90.5zM637 0l713 1432h-349l-713 -1432h349zM266 1106q0 77 31 114t92 37t92 -37t31 -114q0 -67 -30.5 -101.5t-92.5 -34.5
q-123 0 -123 136zM1485.5 68q83.5 90 83.5 236q0 167 -82.5 261.5t-235.5 94.5q-154 0 -236.5 -94.5t-82.5 -261.5q0 -146 83.5 -236t235.5 -90q151 0 234.5 90zM1127 312q0 77 31 113.5t93 36.5q61 0 92 -36.5t31 -113.5q0 -68 -31 -102t-92 -34q-124 0 -124 136z" />
    <glyph glyph-name="ampersand" unicode="&#x26;" horiz-adv-x="1471" 
d="M848 13q112 35 183 102l143 -152l226 217l-114 123q94 125 93 311v52h-274v-40q1 -73 -24 -114l-231 249q95 78 138.5 154.5t43.5 182.5q0 170 -117.5 265.5t-295.5 90.5q-409 -9 -410 -356q0 -86 39 -155.5t105 -137.5q-278 -147 -282 -422q-9 -405 534 -405
q131 0 243 35zM705.5 985.5q-31.5 -37.5 -90.5 -75.5q-51 44 -81 84t-30 87q0 51 29.5 85t89.5 34q57 0 85.5 -32.5t28.5 -86.5q0 -58 -31.5 -95.5zM425 385q-1 115 150 187l232 -249q-65 -80 -202 -80q-180 3 -180 142z" />
    <glyph glyph-name="quotesingle" unicode="'" horiz-adv-x="445" 
d="M343 945l32 487h-304v-487h272z" />
    <glyph glyph-name="parenleft" unicode="(" horiz-adv-x="789" 
d="M761 -160q-313 302 -313 834q0 539 313 834h-420q-136 -141 -203 -358.5t-67 -475.5q0 -259 67 -475t203 -359h420z" />
    <glyph glyph-name="parenright" unicode=")" horiz-adv-x="789" 
d="M448 -160q136 143 203 359t67 475q0 258 -67 475.5t-203 358.5h-420q313 -295 313 -834q0 -532 -313 -834h420z" />
    <glyph glyph-name="asterisk" unicode="*" horiz-adv-x="957" 
d="M479 866l146 -210l210 161l-169 181l221 96l-109 234l-174 -99l12 203h-274l12 -203l-174 99l-109 -234l220 -95l-168 -182l210 -161z" />
    <glyph glyph-name="plus" unicode="+" horiz-adv-x="1000" 
d="M643 202v274h286v299h-286v278h-286v-278h-286v-299h286v-274h286z" />
    <glyph glyph-name="comma" unicode="," horiz-adv-x="522" 
d="M334 -267l117 487h-310l-70 -487h263z" />
    <glyph glyph-name="hyphen" unicode="-" horiz-adv-x="970" 
d="M900 476v299h-829v-299h829z" />
    <glyph glyph-name="period" unicode="." horiz-adv-x="494" 
d="M393 0v281h-292v-281h292z" />
    <glyph glyph-name="slash" unicode="/" horiz-adv-x="1014" 
d="M449 0l494 1472h-378l-494 -1472h378z" />
    <glyph glyph-name="zero" unicode="0" horiz-adv-x="1423" 
d="M1196.5 164q156.5 186 156.5 542q0 375 -153.5 562.5t-487.5 185.5q-226 0 -367 -84t-207.5 -249.5t-66.5 -414.5q0 -356 156.5 -542t484.5 -186t484.5 186zM510.5 411.5q-62.5 101.5 -62.5 294.5q0 104 13 180.5t44.5 129t82.5 79.5t124 27t124 -27t82.5 -79.5t45 -129
t13.5 -180.5q0 -193 -63 -294.5t-202 -101.5t-201.5 101.5z" />
    <glyph glyph-name="one" unicode="1" horiz-adv-x="777" 
d="M665 0v1454l-594 -91v-325l224 38v-1076h370z" />
    <glyph glyph-name="two" unicode="2" horiz-adv-x="1120" 
d="M1050 0v299h-484q23 51 66 99t112 113q16 17 31 28q17 15 26 26q125 114 181 212t56 239q0 206 -126 322t-371 116q-117 0 -230 -21t-195 -58v-325q167 72 335 72q104 0 157.5 -45.5t53.5 -126.5q0 -77 -51.5 -148.5t-148.5 -157.5q-31 -29 -54 -51q-118 -108 -200 -204
t-137 -209v-180h979z" />
    <glyph glyph-name="three" unicode="3" horiz-adv-x="1146" 
d="M921.5 88.5q154.5 110.5 154.5 328.5q0 118 -49 193t-134 113q76 48 116.5 133.5t40.5 188.5q0 180 -142.5 294.5t-398.5 114.5q-111 0 -224 -21.5t-193 -55.5v-297q167 79 348 79q120 0 176.5 -39t56.5 -111q0 -79 -45.5 -120t-143.5 -41h-188l-25 -251h227
q98 0 149.5 -38.5t51.5 -113.5q0 -91 -61.5 -131.5t-188.5 -40.5q-93 0 -193 19.5t-185 59.5v-298q75 -30 209 -53t227 -23q260 0 414.5 110.5z" />
    <glyph glyph-name="four" unicode="4" horiz-adv-x="1181" 
d="M1026 0v278h126v314h-126v840h-320l-678 -898v-256h628v-278h370zM722 1010v-434h-339z" />
    <glyph glyph-name="five" unicode="5" horiz-adv-x="1126" 
d="M914 105q142 127 142 347q0 228 -121 338.5t-359 108.5h-167l15 235h520l25 298h-862l-36 -621v-171h407q111 0 156 -41t45 -133t-59 -141t-180 -49q-77 0 -184 22t-179 54v-299q79 -36 201 -55.5t220 -19.5q274 0 416 127z" />
    <glyph glyph-name="six" unicode="6" horiz-adv-x="1261" 
d="M1054.5 111.5q136.5 133.5 136.5 365.5q0 234 -117 352.5t-362 118.5q-75 0 -156.5 -22t-139.5 -62v55q0 105 85.5 178.5t234.5 73.5q189 0 321 -61v286q-75 32 -160.5 45t-199.5 13q-289 0 -457.5 -173.5t-168.5 -443.5v-283q0 -288 140.5 -432t422.5 -144
q284 0 420.5 133.5zM470.5 306q-54.5 57 -54.5 183v115q52 35 111 54.5t114 19.5q117 0 168.5 -53.5t51.5 -160.5q0 -102 -57 -158.5t-168 -56.5t-165.5 57z" />
    <glyph glyph-name="seven" unicode="7" horiz-adv-x="1075" 
d="M540 0l485 1207v225h-976v-298h563l-456 -1134h384z" />
    <glyph glyph-name="eight" unicode="8" horiz-adv-x="1305" 
d="M1092.5 86.5q141.5 108.5 141.5 325.5q0 109 -48.5 189.5t-144.5 127.5q80 46 119.5 124.5t39.5 168.5q0 136 -56 232t-176.5 148t-316.5 52q-280 0 -413 -113t-133 -319q0 -86 39 -161.5t116 -118.5q-89 -42 -139 -132t-50 -198q0 -217 143 -325.5t437 -108.5
q300 0 441.5 108.5zM581 857q-125 25 -125 158q0 82 49.5 125t145.5 43q99 0 148.5 -44t49.5 -124q0 -72 -35 -116.5t-110 -66.5zM421 432q0 81 40 124.5t115 62.5l147 -31q86 -19 123.5 -58t37.5 -110q0 -84 -58 -127.5t-175 -43.5q-230 0 -230 183z" />
    <glyph glyph-name="nine" unicode="9" horiz-adv-x="1261" 
d="M1025.5 154q165.5 176 165.5 441v283q0 294 -134 435t-426 141q-282 0 -420.5 -134.5t-139.5 -368.5q0 -233 118.5 -351.5t361.5 -118.5q156 0 294 84v-53q0 -105 -81.5 -178t-234.5 -73q-192 0 -322 56v-285q76 -29 162 -41.5t199 -12.5q292 0 457.5 176zM456 801.5
q-54 51.5 -55 163.5q0 104 58 161t170 57q114 0 165 -57t51 -182v-119q-51 -36 -106.5 -55.5t-115.5 -19.5q-113 0 -167 51.5z" />
    <glyph glyph-name="colon" unicode=":" horiz-adv-x="494" 
d="M393 709v286h-292v-286h292zM393 44v286h-292v-286h292z" />
    <glyph glyph-name="semicolon" unicode=";" horiz-adv-x="523" 
d="M445 709v286h-291v-286h291zM334 -243l117 488h-310l-70 -488h263z" />
    <glyph glyph-name="less" unicode="&#x3c;" horiz-adv-x="1163" 
d="M1092 413l-629 276l629 277v361l-1021 -478v-319l1021 -478v361z" />
    <glyph glyph-name="equal" unicode="=" horiz-adv-x="975" 
d="M905 689v268h-834v-268h834zM905 287v269h-834v-269h834z" />
    <glyph glyph-name="greater" unicode="&#x3e;" horiz-adv-x="1163" 
d="M1092 530v319l-1021 478v-361l629 -277l-629 -276v-361z" />
    <glyph glyph-name="question" unicode="?" horiz-adv-x="1079" 
d="M630 402v28q0 63 55.5 120.5t140.5 125.5q102 87 142.5 166t40.5 195q0 199 -131.5 308t-380.5 109q-251 0 -426 -93v-274q119 84 322 86q239 0 239 -180q0 -72 -39 -116t-122 -115q-73 -63 -127 -128t-52 -191v-41h338zM654 0v278h-385v-278h385z" />
    <glyph glyph-name="at" unicode="@" horiz-adv-x="1621" 
d="M1193 -254v219q-135 -42 -366 -42q-246 0 -376 118t-130 374q0 273 134 404.5t396 131.5q223 0 336 -102t113 -303q0 -128 -30.5 -187t-93.5 -59v234q0 162 -79 235.5t-250 73.5q-84 0 -163.5 -13.5t-134.5 -37.5v-154q121 41 245 41q67 0 103.5 -12t52.5 -35t16 -68v-35
h-204q-305 0 -305 -253q0 -125 74 -187t191 -62q172 0 279 85h114q217 0 326 116.5t109 336.5q0 285 -185 444t-514 159q-364 0 -572 -186t-208 -564q0 -360 203.5 -536t556.5 -176q189 0 362 40zM721 204.5q-30 23.5 -30 72.5q0 55 29.5 81t98.5 26h147v-128
q-31 -39 -69 -57t-91 -18q-55 0 -85 23.5z" />
    <glyph glyph-name="A" unicode="A" horiz-adv-x="1576" 
d="M456 0l117 322h432l116 -322h385l-520 1432h-394l-521 -1432h385zM788 1060l171 -468h-343z" />
    <glyph glyph-name="B" unicode="B" horiz-adv-x="1378" 
d="M865 0q217 0 333 109.5t116 314.5q0 128 -50 199.5t-145 107.5q145 95 145 308q0 192 -106 292.5t-313 100.5h-732v-1432h752zM461 1164h287q93 0 132 -39t39 -120q0 -155 -158 -157h-300v316zM461 601h295q60 0 100.5 -15.5t61 -50.5t19.5 -93q0 -91 -41 -132.5
t-128 -41.5h-307v333z" />
    <glyph glyph-name="C" unicode="C" horiz-adv-x="1301" 
d="M1034 -5q98 17 197 53v341q-184 -82 -387 -82q-194 0 -294 96q-101 94 -102 299q0 214 95 318.5t296 104.5q206 0 390 -84v341q-92 37 -192 54.5t-223 17.5q-374 0 -558.5 -193t-184.5 -559q0 -351 187.5 -537.5t558.5 -186.5q119 0 217 17z" />
    <glyph glyph-name="D" unicode="D" horiz-adv-x="1425" 
d="M711 0q325 0 487.5 170.5t162.5 536.5q0 257 -74.5 417.5t-218.5 234t-357 73.5h-598v-1432h598zM483 1112h181q129 0 197 -40t96.5 -125.5t28.5 -239.5q0 -124 -21 -205.5t-61 -124.5t-98.5 -60.5t-141.5 -17.5h-181v813z" />
    <glyph glyph-name="E" unicode="E" horiz-adv-x="1180" 
d="M1130 0v283h-647v287h569v293h-569v286h647v283h-1017v-1432h1017z" />
    <glyph glyph-name="F" unicode="F" horiz-adv-x="1148" 
d="M483 0v570h557v293h-557v286h636v283h-1006v-1432h370z" />
    <glyph glyph-name="G" unicode="G" horiz-adv-x="1411" 
d="M1108.5 14.5q130.5 36.5 216.5 92.5v715h-592v-241h283v-240q-96 -34 -212 -34q-139 0 -217 58t-98 191q-41 165 25 300q34 130 115 200.5t224 68.5q226 0 394 -65v333q-173 61 -420 61q-376 0 -566 -194t-190 -558q0 -350 185.5 -537t546.5 -187q175 0 305.5 36.5z" />
    <glyph glyph-name="H" unicode="H" horiz-adv-x="1465" 
d="M483 0v537h499v-537h370v1432h-370v-536h-499v536h-370v-1432h370z" />
    <glyph glyph-name="I" unicode="I" horiz-adv-x="597" 
d="M483 0v1432h-370v-1432h370z" />
    <glyph glyph-name="J" unicode="J" horiz-adv-x="956" 
d="M723.5 93q129.5 115 129.5 344v995h-370v-905q0 -118 -49.5 -168t-167.5 -50q-139 0 -243 46v-325q139 -52 319 -52q252 0 381.5 115z" />
    <glyph glyph-name="K" unicode="K" horiz-adv-x="1422" 
d="M483 0v424l149 176l349 -600h393l-513 847l482 585h-421l-439 -529v529h-370v-1432h370z" />
    <glyph glyph-name="L" unicode="L" horiz-adv-x="1145" 
d="M1109 0v299h-626v1133h-370v-1432h996z" />
    <glyph glyph-name="M" unicode="M" horiz-adv-x="1655" 
d="M483 0v772l245 -525h199l244 525v-772h370v1432h-361l-352 -759l-354 759h-361v-1432h370z" />
    <glyph glyph-name="N" unicode="N" horiz-adv-x="1458" 
d="M483 0v806l544 -806h317v1432h-370v-806l-546 806h-315v-1432h370z" />
    <glyph glyph-name="O" unicode="O" horiz-adv-x="1514" 
d="M1270.5 157.5q173.5 179.5 173.5 554.5q0 390 -171.5 566t-514.5 176q-344 0 -515.5 -176t-171.5 -566q0 -375 173.5 -554.5t513.5 -179.5q339 0 512.5 179.5zM522.5 406.5q-74.5 97.5 -74.5 305.5q0 152 33 241t100 130t177 41q109 0 176.5 -41t100.5 -130t33 -241
q0 -208 -75 -305.5t-235 -97.5q-161 0 -235.5 97.5z" />
    <glyph glyph-name="P" unicode="P" horiz-adv-x="1313" 
d="M483 0v402h306q150 0 262 65t172.5 182t60.5 265q0 232 -123.5 375t-362.5 143h-685v-1432h370zM483 1126h234q96 0 144 -53.5t48 -158.5q0 -96 -51.5 -151t-149.5 -55h-225v418z" />
    <glyph glyph-name="Q" unicode="Q" horiz-adv-x="1514" 
d="M1185 -351v223q-77 -25 -151 -25q-68 0 -101 33t-39 107q273 30 411.5 208t138.5 517q0 390 -171.5 566t-514.5 176q-344 0 -515.5 -176t-171.5 -566q0 -323 129 -503.5t393 -217.5q6 -174 89.5 -274t262.5 -100q135 0 240 32zM522.5 406.5q-74.5 97.5 -74.5 305.5
q0 152 33 241t100 130t177 41q109 0 176.5 -41t100.5 -130t33 -241q0 -208 -75 -305.5t-235 -97.5q-161 0 -235.5 97.5z" />
    <glyph glyph-name="R" unicode="R" horiz-adv-x="1357" 
d="M483 0v440h125q57 0 82.5 -17t44.5 -64l150 -359h384l-169 412q-17 38 -33 61t-46 38q122 61 192.5 169t70.5 256q0 226 -119.5 361t-356.5 135h-695v-1432h370zM483 1126h244q92 0 137 -46t45 -144q0 -189 -196 -189h-230v379z" />
    <glyph glyph-name="S" unicode="S" horiz-adv-x="1195" 
d="M979 89.5q146 111.5 146 316.5q0 125 -34 208.5t-123 145.5t-252 106q-27 8 -61 17q-122 36 -164.5 65.5t-42.5 84.5q0 75 72.5 107.5t174.5 30.5q176 0 353 -76v296q-72 25 -194.5 44t-223.5 19q-281 0 -420 -108.5t-139 -315.5q0 -172 81.5 -263.5t290.5 -164.5
q59 -17 124 -39q97 -36 138 -70t41 -88q0 -145 -230 -146q-102 0 -216.5 28.5t-207.5 71.5v-294q84 -42 204.5 -64.5t257.5 -22.5q279 0 425 111.5z" />
    <glyph glyph-name="T" unicode="T" horiz-adv-x="1223" 
d="M797 0v1149h390v283h-1151v-283h391v-1149h370z" />
    <glyph glyph-name="U" unicode="U" horiz-adv-x="1476" 
d="M1200 126.5q173 148.5 173 422.5v883h-370v-844q0 -139 -67.5 -209t-197.5 -70t-197.5 70t-67.5 209v844h-370v-883q0 -274 172.5 -422.5t462.5 -148.5q289 0 462 148.5z" />
    <glyph glyph-name="V" unicode="V" horiz-adv-x="1576" 
d="M986 0l520 1432h-385l-333 -984l-332 984h-385l521 -1432h394z" />
    <glyph glyph-name="W" unicode="W" horiz-adv-x="1900" 
d="M725 0l233 785l217 -785h336l315 1432h-360l-175 -811l-221 811h-302v-207l-168 -603l-167 810h-362l317 -1432h337z" />
    <glyph glyph-name="X" unicode="X" horiz-adv-x="1587" 
d="M516 0l277 408l279 -408h445l-501 723l483 709h-439l-267 -398l-266 398h-439l483 -709l-500 -723h445z" />
    <glyph glyph-name="Y" unicode="Y" horiz-adv-x="1477" 
d="M924 0v526l489 906h-385l-289 -575l-290 575h-385l490 -906v-526h370z" />
    <glyph glyph-name="Z" unicode="Z" horiz-adv-x="1242" 
d="M1182 0v299h-620l608 906v227h-1067v-320h583l-615 -915v-197h1111z" />
    <glyph glyph-name="bracketleft" unicode="[" horiz-adv-x="807" 
d="M748 -220l10 299h-317v1192h315l-10 299h-675v-1790h677z" />
    <glyph glyph-name="backslash" unicode="\" horiz-adv-x="1058" 
d="M988 -120l-533 1592h-384l535 -1592h382z" />
    <glyph glyph-name="bracketright" unicode="]" horiz-adv-x="807" 
d="M736 -220v1790h-676l-10 -299h316v-1192h-317l10 -299h677z" />
    <glyph glyph-name="asciicircum" unicode="^" horiz-adv-x="1118" 
d="M413 834l146 273l148 -273h341l-370 554h-254l-353 -554h342z" />
    <glyph glyph-name="underscore" unicode="_" horiz-adv-x="1125" 
d="M1055 -253v253h-984v-253h984z" />
    <glyph glyph-name="a" unicode="a" horiz-adv-x="1216" 
d="M627.5 8q86.5 30 146.5 89l17 -97h323v654q0 214 -132.5 318t-374.5 104q-112 0 -222.5 -17t-191.5 -54v-217q166 55 338 55q83 0 133 -15.5t73.5 -45.5t23.5 -80v-50h-279q-203 0 -307 -83t-104 -259q0 -168 97.5 -250t253.5 -82q119 0 205.5 30zM413 320q0 72 40.5 100
t120.5 27h187v-161q-72 -89 -202 -89q-146 0 -146 123z" />
    <glyph glyph-name="b" unicode="b" horiz-adv-x="1297" 
d="M1103 118q123 140 123 418q0 276 -116.5 408t-360.5 132q-74 0 -144.5 -15.5t-121.5 -49.5v488h-370v-1499h320l19 87q64 -54 138.5 -81.5t170.5 -27.5q219 0 342 140zM483 332v399q73 64 172 64q98 0 146 -61.5t48 -203.5q0 -141 -47 -205.5t-146 -64.5q-96 0 -173 72z
" />
    <glyph glyph-name="c" unicode="c" horiz-adv-x="1068" 
d="M1018 48v287q-143 -75 -283 -75q-150 0 -218.5 64t-68.5 203q0 138 71.5 203t216.5 65q155 0 279 -64v275q-77 38 -161 54t-199 16q-273 0 -428.5 -137t-155.5 -412q0 -269 153 -409t428 -140q213 0 366 70z" />
    <glyph glyph-name="d" unicode="d" horiz-adv-x="1297" 
d="M706.5 5.5q72.5 27.5 138.5 81.5l19 -87h320v1499h-370v-488q-53 33 -120 49t-140 16q-228 0 -355 -149t-128 -427q0 -271 124 -396.5t341 -125.5q98 0 170.5 27.5zM492.5 318q-43.5 58 -44.5 185q0 144 52 218t149 74q51 0 90.5 -15.5t74.5 -48.5v-399
q-40 -37 -80.5 -54.5t-92.5 -17.5q-105 0 -148.5 58z" />
    <glyph glyph-name="e" unicode="e" horiz-adv-x="1184" 
d="M883 -4q99 18 175 53v217q-58 -24 -140 -39t-164 -15q-155 0 -237.5 49.5t-105.5 152.5h703v181q0 232 -139.5 356.5t-372.5 124.5q-255 0 -391 -139.5t-140 -409.5q0 -268 156 -408.5t430 -140.5q127 0 226 18zM459 782q48 59 154 58q96 0 139 -47.5t43 -125.5v-49h-384
q0 105 48 164z" />
    <glyph glyph-name="f" unicode="f" horiz-adv-x="858" 
d="M551 0v770h224l16 284h-240v79q0 66 34 97.5t107 31.5q67 0 127 -23v247q-103 49 -259 49q-182 0 -280.5 -107.5t-98.5 -287.5v-86h-131v-284h131v-770h370z" />
    <glyph glyph-name="g" unicode="g" horiz-adv-x="1294" 
d="M1182 1054v-1092q1 -129 -92.5 -211t-229 -119t-265.5 -37q-126 0 -270 14t-212 39v229q79 -27 212 -41t247 -14q108 0 199.5 43.5t91.5 96.5l-1 99q-60 -32 -150.5 -57.5t-160.5 -25.5q-236 0 -359.5 144.5t-122.5 415.5q0 538 465 538q185 0 309 -109l19 87h320z
M495.5 326q49.5 -66 148.5 -66q51 0 90.5 16.5t77.5 46.5v399q-71 73 -173 73q-100 0 -146.5 -61t-46.5 -200q0 -142 49.5 -208z" />
    <glyph glyph-name="h" unicode="h" horiz-adv-x="1290" 
d="M483 0v702q35 37 84.5 61t101.5 24q84 0 116 -35t32 -116v-636h370v667q0 212 -94 310.5t-298 98.5q-94 0 -174 -24.5t-138 -67.5v515h-370v-1499h370z" />
    <glyph glyph-name="i" unicode="i" horiz-adv-x="626" 
d="M512 1208v286h-399v-286h399zM510 0v1054l-395 1v-1055h395z" />
    <glyph glyph-name="j" unicode="j" horiz-adv-x="746" 
d="M634 1208v286h-399v-286h399zM538 -418q94 102 94 276v1196h-395v-1172v-8q1 -65 -23 -93.5t-91 -28.5q-65 0 -127 23v-247q119 -48 260 -48q188 0 282 102z" />
    <glyph glyph-name="k" unicode="k" horiz-adv-x="1278" 
d="M483 0v315l90 95l262 -410h392l-424 614l402 440h-419l-303 -316v761h-370v-1499h370z" />
    <glyph glyph-name="l" unicode="l" horiz-adv-x="703" 
d="M554.5 -14q47.5 8 108.5 35v247q-42 -17 -101 -17q-42 0 -60.5 22.5t-18.5 75.5v1150h-370v-1196q0 -171 75.5 -248t248.5 -77q70 0 117.5 8z" />
    <glyph glyph-name="m" unicode="m" horiz-adv-x="1840" 
d="M468 0v705q37 38 81 60t87 22q65 0 90.5 -33.5t24.5 -104.5v-649h342v659q0 33 -5 59q62 69 153 69q74 0 103.5 -33t29.5 -111v-643h363v688q0 198 -81.5 293t-257.5 95q-205 0 -359 -116q-33 59 -90 87.5t-153 28.5q-178 0 -332 -109l-10 87h-341v-1054h355z" />
    <glyph glyph-name="n" unicode="n" horiz-adv-x="1290" 
d="M483 0v702q35 37 84.5 61t101.5 24q84 0 116 -34t32 -114v-639h370v687q0 199 -82.5 294t-261.5 95q-114 0 -209.5 -28.5t-165.5 -77.5l-10 84h-345v-1054h370z" />
    <glyph glyph-name="o" unicode="o" horiz-adv-x="1293" 
d="M1081.5 114.5q141.5 136.5 141.5 412.5q0 274 -143 411.5t-434 137.5t-433 -137.5t-142 -411.5q0 -273 142 -411t433 -138q294 0 435.5 136.5zM532 287.5q-44 27.5 -64 87t-20 152.5q0 142 47 205t151 63q72 0 116 -28t64.5 -87t20.5 -153t-20.5 -153t-64.5 -86.5
t-116 -27.5q-70 0 -114 27.5z" />
    <glyph glyph-name="p" unicode="p" horiz-adv-x="1296" 
d="M483 -456v499q56 -30 122.5 -47.5t138.5 -17.5q235 0 359 144.5t123 415.5q0 538 -465 538q-185 0 -309 -109l-19 87h-320v-1510h370zM560.5 276.5q-39.5 16.5 -77.5 46.5v399q71 73 173 73q100 0 146.5 -61t46.5 -200q0 -142 -49.5 -208t-148.5 -66q-51 0 -90.5 16.5z
" />
    <glyph glyph-name="q" unicode="q" horiz-adv-x="1294" 
d="M812 -456v499q-56 -30 -122.5 -47.5t-138.5 -17.5q-235 0 -359 144.5t-123 415.5q0 538 465 538q183 0 309 -109l19 87h320v-1510h-370zM734.5 276.5q39.5 16.5 77.5 46.5v399q-71 73 -173 73q-100 0 -146.5 -61t-46.5 -200q0 -142 49.5 -208t148.5 -66q51 0 90.5 16.5z
" />
    <glyph glyph-name="r" unicode="r" horiz-adv-x="870" 
d="M483 0v699q130 68 347 87v290q-93 -7 -186.5 -38t-160.5 -74l-11 90h-359v-1054h370z" />
    <glyph glyph-name="s" unicode="s" horiz-adv-x="1043" 
d="M850.5 62.5q122.5 84.5 122.5 244.5q0 134 -68.5 202t-230.5 117q-58 18 -90 30.5t-55 29t-36 41.5q-42 42 -26 71q8 22 50.5 29t108.5 7h15q63 0 135 -14t136 -41v250q-58 21 -164.5 34t-197.5 13q-244 0 -361.5 -80.5t-117.5 -238.5q0 -115 55.5 -178t167.5 -110
q26 -11 52 -20q14 -6 32 -11q51 -19 103 -35q61 -20 88.5 -40t27.5 -56q0 -46 -35.5 -66.5t-115.5 -20.5h-22q-71 0 -169 20.5t-169 53.5v-252q68 -27 177.5 -45.5t231.5 -18.5q233 0 355.5 84.5z" />
    <glyph glyph-name="t" unicode="t" horiz-adv-x="828" 
d="M799 26v247q-61 -23 -124 -23q-135 0 -135 134v386h226l9 284h-235v272h-370v-272h-134v-284h134v-406q0 -192 96 -289t276 -97q137 0 257 48z" />
    <glyph glyph-name="u" unicode="u" horiz-adv-x="1290" 
d="M667.5 5.5q87.5 27.5 154.5 78.5l10 -84h345v1054h-370v-702q-31 -37 -79.5 -61t-99.5 -24q-78 0 -116.5 40t-38.5 120v627h-370v-667q0 -197 97.5 -303t270.5 -106q109 0 196.5 27.5z" />
    <glyph glyph-name="v" unicode="v" horiz-adv-x="1322" 
d="M857 0l395 1054h-385l-207 -651l-204 651h-385l395 -1054h391z" />
    <glyph glyph-name="w" unicode="w" horiz-adv-x="1664" 
d="M673 0l163 520l161 -520h333l264 1054h-353l-129 -563l-155 563h-269v-146l-130 -417l-134 563h-353l264 -1054h338z" />
    <glyph glyph-name="x" unicode="x" horiz-adv-x="1288" 
d="M460 0l183 259l184 -259h404l-386 536l370 518h-400l-172 -243l-171 243h-400l371 -518l-386 -536h403z" />
    <glyph glyph-name="y" unicode="y" horiz-adv-x="1364" 
d="M293.5 -382q55.5 -9 137.5 -9q185 0 309 120t210 336q7 16 10 28l376 961h-384l-248 -667l-246 667h-387l451 -1030q-2 -3 -3 -5q-36 -68 -83 -103t-124 -35q-70 0 -128 23v-253q54 -24 109.5 -33z" />
    <glyph glyph-name="z" unicode="z" horiz-adv-x="1066" 
d="M996 0v284h-444l429 539v231h-893v-301h424l-441 -543v-210h925z" />
    <glyph glyph-name="braceleft" unicode="{" horiz-adv-x="707" 
d="M455 -231q-139 0 -210.5 79.5t-71.5 230.5v293q0 86 -28.5 127t-95.5 51v226q67 10 95.5 52t28.5 127v294q0 152 71.5 231t210.5 79h223v-299h-58q-92 0 -92 -102v-285q0 -66 -23 -118q-27 -58 -79 -92q50 -31 76 -85q26 -53 26 -125v-284q1 -102 92 -101h58v-299h-223z
" />
    <glyph glyph-name="bar" unicode="|" horiz-adv-x="512" 
d="M441 -267v1902h-370v-1902h370z" />
    <glyph glyph-name="braceright" unicode="}" horiz-adv-x="707" 
d="M272 -231q139 0 210.5 79.5t71.5 230.5v293q0 86 28.5 127t95.5 51v226q-67 10 -95.5 52t-28.5 127v294q0 152 -71.5 231t-210.5 79h-223v-299h58q92 0 92 -102v-285q0 -66 23 -118q27 -58 79 -92q-50 -31 -76 -85q-26 -53 -26 -125v-284q-1 -102 -92 -101h-58v-299h223z
" />
    <glyph glyph-name="asciitilde" unicode="~" horiz-adv-x="1157" 
d="M984 468.5q66 28.5 103 82.5v333q-52 -68 -110.5 -98t-140.5 -30q-59 0 -116.5 19t-133.5 56q-75 34 -136 53t-127 19q-79 0 -147 -29t-105 -81v-334q51 69 111 98.5t141 29.5q62 0 120.5 -18.5t136.5 -53.5q73 -37 133 -56t123 -19q82 0 148 28.5z" />
    <glyph glyph-name="uni00A0" unicode="&#xa0;" horiz-adv-x="0" 
 />
    <glyph glyph-name="cent" unicode="&#xa2;" horiz-adv-x="1088" 
d="M515 325.5q-67 65.5 -67 201.5q2 262 277 267q156 4 290 -63v275q-104 53 -239 63v176h-322v-195q-179 -40 -281 -170.5t-102 -352.5t99 -353t284 -170v-195h322v176q129 12 242 63v287q-139 -76 -291 -75q-145 0 -212 65.5z" />
    <glyph glyph-name="sterling" unicode="&#xa3;" horiz-adv-x="1034" 
d="M973 0v284h-443q48 14 46 133v177h286l15 284h-301v162q2 141 159 142q83 -1 148 -27v247q-105 53 -279 52q-184 0 -291 -110t-107 -296v-170h-131v-284h131v-202q-1 -108 -92 -108h-52v-284h911z" />
    <glyph glyph-name="currency" unicode="&#xa4;" horiz-adv-x="1228" 
d="M405 227q47 -30 100 -46t110 -16q116 0 209 63l174 -141l157 202l-164 132q43 87 43 177q0 98 -43 178l167 128l-160 204l-174 -142q-89 64 -211 64q-119 0 -209 -62l-172 143l-160 -205l163 -130q-42 -84 -42 -178t42 -178l-164 -128l161 -206zM494.5 475
q-48.5 53 -48.5 125q0 75 48.5 127t118.5 52t119 -52t49 -127q0 -73 -49 -125.5t-119 -52.5t-118.5 53z" />
    <glyph glyph-name="yen" unicode="&#xa5;" horiz-adv-x="1478" 
d="M925 0v171h287v190h-287v129h287v190h-204l400 752h-385l-283 -575l-284 575h-385l399 -752h-206v-190h290v-129h-290v-190h290v-171h371z" />
    <glyph glyph-name="brokenbar" unicode="&#xa6;" horiz-adv-x="512" 
d="M441 864v771h-370v-771h370zM441 -267v770h-370v-770h370z" />
    <glyph glyph-name="section" unicode="&#xa7;" horiz-adv-x="1195" 
d="M1125 393q0 93 -46 157q47 69 46 174q0 104 -31 172.5t-116.5 118.5t-261.5 98q-149 41 -208.5 72.5t-59.5 94.5q0 75 71.5 106.5t175.5 31.5q158 1 353 -76v296q-53 18 -169 40t-249 23q-558 1 -558 -391q0 -99 44 -164q-45 -66 -45 -153q-1 -158 75 -237.5t297 -153.5
q151 -47 227 -85t76 -112q0 -147 -230 -146q-210 1 -424 100v-294q183 -86 462 -87q571 7 571 415zM758 751q-65 28 -139 45q-131 33 -189.5 65t-58.5 94q0 24 7 44q30 -43 228 -98q130 -31 191.5 -65.5t61.5 -97.5q0 -24 -9 -46q-27 31 -92 59z" />
    <glyph glyph-name="copyright" unicode="&#xa9;" horiz-adv-x="1544" 
d="M1053 350v180q-101 -68 -217 -68q-102 0 -169.5 57t-67.5 198q0 137 72.5 196t170.5 59q108 0 208 -60v171q-103 82 -269 84q-417 0 -423 -450q2 -450 418 -449q169 0 277 82zM1124.5 77q161.5 99 255.5 269t94 370t-94 370.5t-255.5 269t-352.5 98.5
q-190 0 -351.5 -98.5t-255.5 -269t-94 -370.5t94 -370t255.5 -269t351.5 -99q191 0 352.5 99zM517 246.5q-115 70.5 -182.5 193t-67.5 276.5t67.5 277t182.5 193t255 70q141 0 256 -70t182.5 -193t67.5 -277t-67.5 -276.5t-182.5 -193t-256 -70.5q-140 0 -255 70.5z" />
    <glyph glyph-name="ordfeminine" unicode="&#xaa;" horiz-adv-x="730" 
d="M462 911l10 -53h187v363q0 119 -76.5 176t-210.5 57q-61 0 -124 -10t-107 -29v-128q97 32 188 32q69 0 98 -17.5t29 -57.5v-19h-153q-232 0 -232 -193q0 -94 55.5 -140.5t142.5 -46.5q120 0 193 66zM268 1038q0 35 21 51.5t64 16.5h103v-83q-21 -26 -47.5 -38t-63.5 -12
q-77 0 -77 65z" />
    <glyph glyph-name="guillemotleft" unicode="&#xab;" horiz-adv-x="1431" 
d="M1361 337l-380 296l380 296l-140 214l-566 -439v-142l566 -439zM777 337l-380 296l380 296l-140 214l-566 -439v-142l566 -439z" />
    <glyph glyph-name="registered" unicode="&#xae;" horiz-adv-x="1544" 
d="M1124.5 77q161.5 99 255.5 269t94 370t-94 370.5t-255.5 269t-352.5 98.5q-190 0 -351.5 -98.5t-255.5 -269t-94 -370.5t94 -370t255.5 -269t351.5 -99q191 0 352.5 99zM517 246.5q-115 70.5 -182.5 193t-67.5 276.5t67.5 277t182.5 193t255 70q141 0 256 -70t182.5 -193
t67.5 -277t-67.5 -276.5t-182.5 -193t-256 -70.5q-140 0 -255 70.5zM673 320v258h81q37 0 54 -11.5t27 -39.5l71 -207h191l-81 228q-10 24 -19 39t-26 22q161 61 161 242q0 125 -67.5 198t-197.5 73h-394v-802h200zM673 963h148q57 0 84.5 -27t27.5 -85q0 -60 -31.5 -87.5
t-90.5 -27.5h-138v227z" />
    <glyph glyph-name="macron" unicode="&#xaf;" horiz-adv-x="705" 
d="M695 1243v231h-683v-231h683z" />
    <glyph glyph-name="degree" unicode="&#xb0;" horiz-adv-x="896" 
d="M447 834q92 0 170 45t124 123t46 171t-45.5 170t-123.5 122.5t-171 45.5q-92 0 -169.5 -45.5t-123 -122.5t-45.5 -170t45.5 -171t123 -123t170.5 -45h-1zM517 1240.5q28 -29.5 28 -68.5t-29 -68t-69 -29q-39 0 -68 29.5t-29 68.5t30.5 68t73.5 29q35 0 63 -29.5z" />
    <glyph glyph-name="plusminus" unicode="&#xb1;" horiz-adv-x="1000" 
d="M643 387v274h286v299h-286v278h-286v-278h-286v-299h286v-274h286zM929 0v299h-858v-299h858z" />
    <glyph glyph-name="mu" unicode="&#xb5;" horiz-adv-x="1300" 
d="M483 -318v348q67 -51 170 -35q113 16 179 89l10 -84h345v1054h-370v-702q-77 -85 -179 -85q-155 0 -155 160v627h-370v-1372h370z" />
    <glyph glyph-name="paragraph" unicode="&#xb6;" horiz-adv-x="1395" 
d="M851 -171v1466h162v-1466h312v1750h-720q-534 0 -534 -518q0 -266 136.5 -382t337.5 -116v-734h306z" />
    <glyph glyph-name="guillemotright" unicode="&#xbb;" horiz-adv-x="1431" 
d="M1361 562v142l-566 439l-140 -214l379 -296l-379 -296l140 -214zM777 562v142l-566 439l-140 -214l380 -296l-380 -296l140 -214z" />
    <glyph glyph-name="multiply" unicode="&#xd7;" horiz-adv-x="918" 
d="M848 335l-210 221l210 222l-180 189l-212 -219l-205 222l-180 -190l210 -220l-202 -212l181 -189l203 211l208 -221z" />
    <glyph glyph-name="germandbls" unicode="&#xdf;" horiz-adv-x="1379" 
d="M853 -22q-81 0 -158 12.5t-125 36.5v249q37 -16 88.5 -23t95.5 -7q92 0 134.5 43.5t42.5 130.5q0 72 -41 109t-140 37h-145v184l301 245q2 75 -61.5 110t-160.5 35q-124 0 -178.5 -57t-54.5 -162v-921h-348v928q4 292 162.5 409t418.5 117q309 -1 428.5 -131.5
t138.5 -365.5l-300 -248h62q139 0 217 -86.5t78 -246.5q0 -205 -119 -301.5t-336 -96.5z" />
    <glyph glyph-name="divide" unicode="&#xf7;" horiz-adv-x="970" 
d="M606 915v242h-243v-242h243zM900 476v299h-829v-299h829zM606 101v241h-243v-241h243z" />
    <glyph glyph-name="uni060C" unicode="&#x60c;" horiz-adv-x="721" 
d="M541.5 379q-58.5 54 -145.5 53v36q0 22 13 38t35 19l132 18l-42 261l-101 -18q-138 -25 -224 -127t-89 -243v-187q0 -63 30 -117t83.5 -85.5t121.5 -31.5t124.5 31.5t88.5 85.5t32 117q0 96 -58.5 150z" />
    <glyph glyph-name="uni0615" unicode="&#x615;" horiz-adv-x="0" 
d="M-13 1894.5q34 43.5 72 43.5q50 0 68.5 -30t18.5 -63q0 -23 -26.5 -39.5t-63.5 -16.5h-130q27 62 61 105.5zM-255 1799v-8v-2h-60v-170h371q72 0 131.5 29.5t94 81.5t33.5 115q0 75 -32.5 135t-91 94.5t-132.5 34.5q-77 0 -144 -51v245h-170v-504z" />
    <glyph glyph-name="uni0615" unicode="&#xfbc0;" horiz-adv-x="0" 
d="M-13 1894.5q34 43.5 72 43.5q50 0 68.5 -30t18.5 -63q0 -23 -26.5 -39.5t-63.5 -16.5h-130q27 62 61 105.5zM-255 1799v-8v-2h-60v-170h371q72 0 131.5 29.5t94 81.5t33.5 115q0 75 -32.5 135t-91 94.5t-132.5 34.5q-77 0 -144 -51v245h-170v-504z" />
    <glyph glyph-name="uni0615" unicode="&#xe0bf;" horiz-adv-x="0" 
d="M-13 1894.5q34 43.5 72 43.5q50 0 68.5 -30t18.5 -63q0 -23 -26.5 -39.5t-63.5 -16.5h-130q27 62 61 105.5zM-255 1799v-8v-2h-60v-170h371q72 0 131.5 29.5t94 81.5t33.5 115q0 75 -32.5 135t-91 94.5t-132.5 34.5q-77 0 -144 -51v245h-170v-504z" />
    <glyph glyph-name="uni061B" unicode="&#x61b;" horiz-adv-x="720" 
d="M541.5 797q-58.5 54 -145.5 53v36q0 22 13 38t35 19l132 18l-42 261l-101 -18q-138 -25 -224 -127t-89 -243v-187q0 -63 30 -117t83.5 -85.5t121.5 -31.5t124.5 31.5t88.5 85.5t32 117q0 96 -58.5 150zM496 0v281h-292v-281h292z" />
    <glyph glyph-name="uni061F" unicode="&#x61f;" horiz-adv-x="1075" 
d="M421 0v278h385v-278h-385zM445 402v28q0 63 -55.5 120.5t-139.5 125.5q-102 87 -142.5 166t-40.5 195q0 199 131.5 308t379.5 109q252 0 426 -193l-246 -293q-81 154 -175 155q-140 0 -140 -130q0 -72 39 -116t122 -115q73 -63 127 -128t52 -191v-41h-338z" />
    <glyph glyph-name="uni0640" unicode="&#x640;" horiz-adv-x="299" 
d="M-57 234q-15 -64 0 -128.5t57 -105.5h299v340h-299q-42 -42 -57 -106z" />
    <glyph glyph-name="uni0640" unicode="&#xe0b5;" horiz-adv-x="299" 
d="M-57 234q-15 -64 0 -128.5t57 -105.5h299v340h-299q-42 -42 -57 -106z" />
    <glyph glyph-name="uni0653" unicode="&#x653;" horiz-adv-x="0" 
d="M-146 183q14 31 41.5 50t61.5 18h480v213h-480q-100 0 -182 -55.5t-118 -147.5l-73 -182l198 -79z" />
    <glyph glyph-name="uni0653" unicode="&#xe010;" horiz-adv-x="0" 
d="M-146 183q14 31 41.5 50t61.5 18h480v213h-480q-100 0 -182 -55.5t-118 -147.5l-73 -182l198 -79z" />
    <glyph glyph-name="uni0654" unicode="&#x654;" horiz-adv-x="0" 
d="M-209 1834l478 183l-60 158l-147 -56q-45 -7 -77.5 10.5t-31.5 64.5q0 30 18 56.5t51 27.5q24 0 46 -7t53 -22q7 -3 10 -4l44 159q-46 24 -79.5 34t-73.5 10q-71 0 -125.5 -37t-84 -95.5t-29.5 -121.5q0 -43 17.5 -85t52.5 -69l-122 -47z" />
    <glyph glyph-name="uni0654" unicode="&#x674;" horiz-adv-x="0" 
d="M-209 1834l478 183l-60 158l-147 -56q-45 -7 -77.5 10.5t-31.5 64.5q0 30 18 56.5t51 27.5q24 0 46 -7t53 -22q7 -3 10 -4l44 159q-46 24 -79.5 34t-73.5 10q-71 0 -125.5 -37t-84 -95.5t-29.5 -121.5q0 -43 17.5 -85t52.5 -69l-122 -47z" />
    <glyph glyph-name="uni0655" unicode="&#x655;" horiz-adv-x="0" 
d="M-209 -1153l478 181l-60 159l-147 -56q-45 -7 -77.5 11t-31.5 65q0 29 18.5 56t50.5 27q23 1 44.5 -6t51.5 -22q9 -4 13 -6l44 160q-46 25 -79.5 35t-73.5 10q-71 0 -125.5 -37t-84 -96t-29.5 -121q0 -43 17.5 -85.5t52.5 -69.5l-122 -47z" />
    <glyph glyph-name="uni0656" unicode="&#x656;" horiz-adv-x="0" 
d="M-85 -1008h170v419h-170v-419z" />
    <glyph glyph-name="uni0656" unicode="&#x8ad;" horiz-adv-x="0" 
d="M-85 -1008h170v419h-170v-419z" />
    <glyph glyph-name="uni065A" unicode="&#x65a;" horiz-adv-x="0" 
d="M395 2006l-214 5l-181 -207l-181 207l-214 -5l331 -387h128z" />
    <glyph glyph-name="uni065B" unicode="&#x65b;" horiz-adv-x="0" 
d="M395 1624l-214 -5l-181 206l-181 -206l-214 5l331 387h128z" />
    <glyph glyph-name="uni0660" unicode="&#x660;" horiz-adv-x="668" 
d="M334 275l263 263l-263 263l-263 -263z" />
    <glyph glyph-name="uni0661" unicode="&#x661;" horiz-adv-x="640" 
d="M519 671q0 133 -14.5 290.5t-43.5 277.5l-37 163l-325 -76l38 -162q23 -100 36 -244t13 -249v-671h333v671z" />
    <glyph glyph-name="uni0662" unicode="&#x662;" horiz-adv-x="1139" 
d="M461 1239l-37 163l-325 -76l38 -162q23 -100 36 -244t13 -249v-671h333v593v25q41 -44 143 -31q166 24 268 129.5t110 262.5q2 83 -6.5 150.5t-37.5 218.5q-7 36 -11 56l-327 -63q5 -27 14 -72q23 -123 29.5 -172t5.5 -106q-2 -63 -88 -72q-47 -6 -77.5 12.5t-38.5 48.5
q-16 150 -42 259z" />
    <glyph glyph-name="uni0663" unicode="&#x663;" horiz-adv-x="1652" 
d="M1442 720.5q102 105.5 110 262.5q3 82 -6 149.5t-37 217.5q-8 37 -11 57l-329 -61q5 -26 14 -70q25 -130 31.5 -177.5t4.5 -104.5q-2 -61 -87 -72q-29 -3 -52.5 4.5t-51.5 32.5q1 10 1 20q3 83 -6 150.5t-38 218.5q-7 36 -10 56l-328 -63q5 -27 14 -72q23 -123 30 -172
t5 -106q-2 -63 -87 -72q-46 -6 -72.5 12t-33.5 48q-16 151 -42 260l-37 163l-325 -76l38 -162q23 -100 36 -244t13 -249v-671h333v606v6q41 -37 132 -25q124 17 216 85q66 -40 147 -65.5t159 -15.5q167 24 269 129.5z" />
    <glyph glyph-name="uni0664" unicode="&#x664;" horiz-adv-x="1071" 
d="M276 733q92 -83 289 -45q13 0 34.5 -17t57.5 -50q41 -38 65.5 -56t39.5 -15l157 30l-63 313l-157 -31q-58 -12 -99.5 -4.5t-57.5 23.5q-19 16 -11 55q18 104 84 136.5t116 32.5q52 0 150 -21l11 319q-62 20 -161 20q-109 0 -216.5 -45t-188 -140t-108.5 -236
q-34 -186 58 -269zM951 318h-420q-35 0 -60.5 21.5t-31.5 54.5q-6 37 15.5 68t57.5 38l407 80l-63 313l-406 -81q-95 -19 -170.5 -77t-117.5 -143.5t-42 -181.5q0 -112 55 -206t149.5 -149t206.5 -55h420v318z" />
    <glyph glyph-name="uni0665" unicode="&#x665;" horiz-adv-x="1402" 
d="M1114.5 113q167.5 124 167.5 458q0 208 -64.5 396t-196 306.5t-320.5 118.5t-320.5 -118.5t-196 -307t-64.5 -395.5q0 -334 167.5 -458t382.5 -124h62q215 0 382.5 124zM845.5 995.5q59.5 -78.5 89 -195t29.5 -229.5q0 -76 -12 -125.5t-38.5 -80t-70.5 -44t-111 -13.5
h-62q-88 0 -138.5 24.5t-72 81t-21.5 157.5q0 113 29.5 229.5t89 195t144.5 78.5t144.5 -78.5z" />
    <glyph glyph-name="uni0666" unicode="&#x666;" horiz-adv-x="1218" 
d="M1161 124q-150 242 -188.5 516.5t108.5 543.5l-186 230q-182 -57 -301.5 -70.5t-192.5 -1t-169 44.5q-28 10 -43 14l-111 -289q11 -3 32 -11q113 -41 182 -59t165 -20.5t239 18.5q-51 -232 -40.5 -416t68.5 -337.5t165 -328.5z" />
    <glyph glyph-name="uni0667" unicode="&#x667;" horiz-adv-x="1249" 
d="M917 519.5q-123 -374.5 -126 -518.5l-338 -1q-1 146 -123 519.5t-316 741.5l274 177q74 -136 126.5 -253t105 -282t104.5 -400q52 235 104 400t104.5 282t126.5 253l275 -177q-194 -367 -317 -741.5z" />
    <glyph glyph-name="uni0668" unicode="&#x668;" horiz-adv-x="1246" 
d="M917 882q-123 375 -126 519l-338 1q-1 -146 -123 -520.5t-316 -741.5l274 -176q74 135 126.5 252t105 282.5t104.5 399.5q52 -234 104 -399.5t105 -283t126 -251.5l275 176q-194 367 -317 742z" />
    <glyph glyph-name="uni0669" unicode="&#x669;" horiz-adv-x="1149" 
d="M696 866q-22 -12 -52.5 -18t-78.5 -12q-7 -1 -10 -1q-48 -7 -85 26t-37 92q0 54 39.5 94.5t92.5 40.5q42 0 71.5 -26.5t44.5 -65.5t15 -77v-53zM696 0h333v919q0 126 -57 242t-162.5 188t-244.5 72q-123 0 -230.5 -63.5t-171.5 -171t-64 -231.5q-1 -138 68.5 -247.5
t185 -165.5t246.5 -39q10 2 31 5q44 7 66 12v-520z" />
    <glyph glyph-name="uni066A" unicode="&#x66a;" horiz-adv-x="1298" 
d="M1091 1350l-218 99l-667 -1380l218 -98zM397 1316q42 -25 67 -67.5t25 -92.5t-25 -92.5t-67.5 -67.5t-92.5 -25t-92.5 25t-67 67.5t-24.5 92.5t24.5 92.5t67 67.5t92.5 25q51 0 93 -25zM1086.5 424q42.5 -25 67 -67.5t24.5 -92.5t-24.5 -92.5t-67 -67.5t-92.5 -25
t-92.5 25t-67 67t-24.5 93q0 50 24.5 92.5t67 67.5t92.5 25t92.5 -25z" />
    <glyph glyph-name="uni066B" unicode="&#x66b;" horiz-adv-x="696" 
d="M576 412l-193 86l-383 -842l194 -87z" />
    <glyph glyph-name="uni066C" unicode="&#x66c;" horiz-adv-x="525" 
d="M240 -270q79 42 122 123.5t43 187.5v240h-212v-240q0 -35 -11.5 -71t-43.5 -53l-94 -52l102 -187z" />
    <glyph glyph-name="uni066D" unicode="&#x66d;" horiz-adv-x="1319" 
d="M120 824l333 -245l-129 -390l335 241l336 -241l-128 390l333 245h-412l-129 390l-128 -390h-411z" />
    <glyph glyph-name="uni066E" unicode="&#x66e;" horiz-adv-x="1757" 
d="M1207 0q117 0 215.5 55t156.5 149t58 205v387h-318v-345q0 -46 -33 -78.5t-79 -32.5h-657q-46 0 -78.5 32.5t-32.5 78.5v345h-319v-387q0 -111 58 -205t156.5 -149t215.5 -55h657z" />
    <glyph glyph-name="uni066F" unicode="&#x66f;" horiz-adv-x="1713" 
d="M1376 863q103 -62 160.5 -173.5t57.5 -253.5v-418q0 -142 -78.5 -271t-202.5 -207t-253 -78h-326q-184 0 -324 81t-215 216.5t-75 295.5v503h318v-460q0 -79 32.5 -146.5t99 -108.5t164.5 -41h326q59 0 107.5 26t76 71t27.5 101h-129q-452 0 -452 436q0 140 58.5 251.5
t161.5 174.5t232 63q131 0 234 -62zM1275 436q0 66 -28.5 118.5t-104.5 52.5q-78 0 -105.5 -56.5t-27.5 -114.5q0 -33 9 -53t37.5 -31.5t86.5 -11.5h133v96z" />
    <glyph glyph-name="uni066F" unicode="&#x8bc;" horiz-adv-x="1713" 
d="M1376 863q103 -62 160.5 -173.5t57.5 -253.5v-418q0 -142 -78.5 -271t-202.5 -207t-253 -78h-326q-184 0 -324 81t-215 216.5t-75 295.5v503h318v-460q0 -79 32.5 -146.5t99 -108.5t164.5 -41h326q59 0 107.5 26t76 71t27.5 101h-129q-452 0 -452 436q0 140 58.5 251.5
t161.5 174.5t232 63q131 0 234 -62zM1275 436q0 66 -28.5 118.5t-104.5 52.5q-78 0 -105.5 -56.5t-27.5 -114.5q0 -33 9 -53t37.5 -31.5t86.5 -11.5h133v96z" />
    <glyph glyph-name="uni0670" unicode="&#x670;" horiz-adv-x="0" 
d="M-85 1834h170v419h-170v-419z" />
    <glyph glyph-name="uni0695" unicode="&#x695;" horiz-adv-x="810" 
d="M96 -538q160 0 296.5 82t216.5 218.5t80 291.5v699h-319v-656q0 -74 -37.5 -142.5t-100.5 -110.5t-136 -42h-107v-340h107zM685 -709l-214 5l-181 -207l-181 207l-214 -5l331 -387h128z" />
    <glyph glyph-name="uni06A1" unicode="&#x6a1;" horiz-adv-x="1847" 
d="M1527.5 55.5q87.5 55.5 143.5 173t56 293.5q0 129 -59.5 233.5t-163 164t-229.5 59.5q-121 0 -225.5 -58.5t-166 -160t-60.5 -223.5q0 -53 19 -106t55 -91h-347q-46 0 -78.5 32.5t-32.5 78.5v345h-319v-387q0 -111 58 -205t156.5 -149t215.5 -55h793q97 0 184.5 55.5z
M1208.5 403q-45.5 35 -56.5 67t-11 69q0 52 40.5 87t93.5 35q55 0 94 -34t39 -105q0 -47 -12 -107.5t-50 -72.5q-92 26 -137.5 61z" />
    <glyph glyph-name="uni06A1" unicode="&#xe078;" horiz-adv-x="1847" 
d="M1527.5 55.5q87.5 55.5 143.5 173t56 293.5q0 129 -59.5 233.5t-163 164t-229.5 59.5q-121 0 -225.5 -58.5t-166 -160t-60.5 -223.5q0 -53 19 -106t55 -91h-347q-46 0 -78.5 32.5t-32.5 78.5v345h-319v-387q0 -111 58 -205t156.5 -149t215.5 -55h793q97 0 184.5 55.5z
M1208.5 403q-45.5 35 -56.5 67t-11 69q0 52 40.5 87t93.5 35q55 0 94 -34t39 -105q0 -47 -12 -107.5t-50 -72.5q-92 26 -137.5 61z" />
    <glyph glyph-name="uni06A1" unicode="&#x8bb;" horiz-adv-x="1847" 
d="M1527.5 55.5q87.5 55.5 143.5 173t56 293.5q0 129 -59.5 233.5t-163 164t-229.5 59.5q-121 0 -225.5 -58.5t-166 -160t-60.5 -223.5q0 -53 19 -106t55 -91h-347q-46 0 -78.5 32.5t-32.5 78.5v345h-319v-387q0 -111 58 -205t156.5 -149t215.5 -55h793q97 0 184.5 55.5z
M1208.5 403q-45.5 35 -56.5 67t-11 69q0 52 40.5 87t93.5 35q55 0 94 -34t39 -105q0 -47 -12 -107.5t-50 -72.5q-92 26 -137.5 61z" />
    <glyph glyph-name="uni06AA" unicode="&#x6aa;" horiz-adv-x="2076" 
d="M1741 57.5q99 57.5 156.5 156.5t57.5 216t-57.5 216t-156.5 157t-216 58h-367l375 457l-247 203l-588 -719l123 -261h704q46 0 79 -32.5t33 -78.5q0 -44 -31.5 -67t-80.5 -23h-975q-48 0 -79.5 23t-31.5 67v323h-318v-302q0 -122 57.5 -225.5t156.5 -164.5t215 -61h975
q117 0 216 57.5z" />
    <glyph glyph-name="uni06B5" unicode="&#x6b5;" horiz-adv-x="1599" 
d="M820 -539q184 0 323.5 81t214.5 217t75 295v1400h-318v-1357q0 -79 -32.5 -146.5t-99 -108.5t-163.5 -41h-86q-98 0 -164.5 41t-98.5 108.5t-32 146.5v440h-319v-483q0 -159 75.5 -295t215 -217t323.5 -81h86zM1669 2060l-214 5l-181 -207l-181 207l-214 -5l331 -387h128
z" />
    <glyph glyph-name="uni06C2" unicode="&#x6c2;" horiz-adv-x="1119" 
d="M667.5 493.5q27.5 -58.5 27.5 -90.5q0 -51 -43 -77.5t-90 -26.5q-48 0 -90.5 28.5t-42.5 75.5q0 62 43.5 125.5t89.5 107.5q78 -84 105.5 -142.5zM184 654q-75 -112 -75 -251q0 -115 61 -212.5t165 -155t227 -57.5q114 0 218.5 52t169.5 149t65 224q0 299 -420 638
l-124 101l-201 -246l76 -62q-87 -68 -162 -180zM321 1295l478 183l-60 158l-147 -56q-45 -7 -77.5 10.5t-31.5 64.5q0 30 18 56.5t51 27.5q24 0 46 -7t53 -22q7 -3 10 -4l44 159q-46 24 -79.5 34t-73.5 10q-71 0 -125.5 -37t-84 -95.5t-29.5 -121.5q0 -43 17.5 -85t52.5 -69
l-122 -47z" />
    <glyph glyph-name="uni06C3" unicode="&#x6c3;" horiz-adv-x="1119" 
d="M667.5 493.5q27.5 -58.5 27.5 -90.5q0 -51 -43 -77.5t-90 -26.5q-48 0 -90.5 28.5t-42.5 75.5q0 62 43.5 125.5t89.5 107.5q78 -84 105.5 -142.5zM184 654q-75 -112 -75 -251q0 -115 61 -212.5t165 -155t227 -57.5q114 0 218.5 52t169.5 149t65 224q0 299 -420 638
l-124 101l-201 -246l76 -62q-87 -68 -162 -180zM467 1531q-44 44 -106 44t-106 -44t-44 -106t44 -106t106 -44t106 44t44 106t-44 106zM827 1531q-44 44 -106 44t-106 -44t-44 -106t44 -106t106 -44t106 44t44 106t-44 106z" />
    <glyph glyph-name="uni06CE" unicode="&#x6ce;" horiz-adv-x="1637" 
d="M1471.5 248.5q-56.5 79.5 -141 105.5t-195.5 26h-132v126q0 51 33 84t84 33h343v320h-343q-120 0 -220 -58t-158 -158t-58 -221v-444h446q41 -1 60 -13.5t18 -50.5q0 -43 -29 -87.5t-103.5 -77t-202.5 -32.5h-149q-96 0 -160 39.5t-95 104.5t-31 142v470h-318v-513
q0 -157 73.5 -290.5t211 -213t319.5 -79.5h149q252 0 398 95.5t201 222.5t56 240q0 150 -56.5 229.5zM675 1143l-214 5l-181 -207l-181 207l-214 -5l331 -387h128z" />
    <glyph glyph-name="uni06D4" unicode="&#x6d4;" horiz-adv-x="766" 
d="M50 0v-213h667v213h-667z" />
    <glyph glyph-name="uni06F0" unicode="&#x6f0;" horiz-adv-x="1062" 
d="M165.5 318q56.5 -97 153.5 -153.5t212 -56.5t212 56.5t153.5 153.5t56.5 213q0 115 -56.5 211.5t-153.5 153t-212 56.5t-212 -56.5t-153.5 -153t-56.5 -211.5q0 -116 56.5 -213zM447.5 615q36.5 35 89.5 35q45 0 79.5 -35.5t34.5 -83.5q0 -50 -35.5 -85.5t-84.5 -35.5
t-84.5 35.5t-35.5 85.5q0 49 36.5 84z" />
    <glyph glyph-name="uni06F1" unicode="&#x6f1;" horiz-adv-x="639" 
d="M519 671q0 133 -14.5 290.5t-43.5 277.5l-37 163l-325 -76l38 -162q23 -100 36 -244t13 -249v-671h333v671z" />
    <glyph glyph-name="uni06F2" unicode="&#x6f2;" horiz-adv-x="1139" 
d="M461 1239l-37 163l-325 -76l38 -162q23 -100 36 -244t13 -249v-671h333v593v25q41 -44 143 -31q166 24 268 129.5t110 262.5q2 83 -6.5 150.5t-37.5 218.5q-7 36 -11 56l-327 -63q5 -27 14 -72q23 -123 29.5 -172t5.5 -106q-2 -63 -88 -72q-47 -6 -77.5 12.5t-38.5 48.5
q-16 150 -42 259z" />
    <glyph glyph-name="uni06F3" unicode="&#x6f3;" horiz-adv-x="1652" 
d="M1442 720.5q102 105.5 110 262.5q3 82 -6 149.5t-37 217.5q-8 37 -11 57l-329 -61q5 -26 14 -70q25 -130 31.5 -177.5t4.5 -104.5q-2 -61 -87 -72q-29 -3 -52.5 4.5t-51.5 32.5q1 10 1 20q3 83 -6 150.5t-38 218.5q-7 36 -10 56l-328 -63q5 -27 14 -72q23 -123 30 -172
t5 -106q-2 -63 -87 -72q-46 -6 -72.5 12t-33.5 48q-16 151 -42 260l-37 163l-325 -76l38 -162q23 -100 36 -244t13 -249v-671h333v606v6q41 -37 132 -25q124 17 216 85q66 -40 147 -65.5t159 -15.5q167 24 269 129.5z" />
    <glyph glyph-name="uni06F4" unicode="&#x6f4;" horiz-adv-x="1434" 
d="M461 1239l-37 163l-325 -76l38 -162q23 -100 36 -239t13 -254v-671h333v622v14q35 -28 94.5 -51.5t160 -38.5t241.5 -15q93 0 159.5 17.5t161.5 57.5l-54 317q-117 -35 -170.5 -47.5t-94.5 -11.5q-56 2 -88 25t-28 86q2 50 30 81t80 35q20 2 55 -5t128 -31l74 309
q-57 23 -125.5 42.5t-112.5 20.5q-118 4 -219 -52t-161.5 -160.5t-62.5 -239.5q0 -17 4 -36q-33 19 -61 64t-40 78q-12 89 -29 158z" />
    <glyph glyph-name="uni06F5" unicode="&#x6f5;" horiz-adv-x="1485" 
d="M650 1477q45 -37 136 -111q158 -127 250 -208.5t182 -194t140 -240t50 -277.5q0 -122 -58.5 -227t-157.5 -167.5t-214 -62.5q-96 0 -151.5 27.5t-89.5 79.5q-43 -53 -101.5 -80t-144.5 -27q-117 0 -211.5 61t-148 165.5t-53.5 230.5q0 209 126.5 392t321.5 310
q-45 37 -80 66zM1021 339q23 16 38 44t15 63q0 96 -35.5 178.5t-101.5 158t-170 166.5q-158 -121 -257 -248.5t-99 -254.5q0 -62 25.5 -92.5t54.5 -30.5q48 0 79.5 19t31.5 86v168h291v-105q0 -32 -1 -69q16 -60 37.5 -79.5t48.5 -19.5q20 0 43 16z" />
    <glyph glyph-name="uni06F6" unicode="&#x6f6;" horiz-adv-x="1089" 
d="M668.5 872.5q-81.5 -20.5 -138.5 -18.5q-55 1 -88 29t-30 91q2 51 30.5 82t79.5 35q26 2 81.5 -6t133.5 -30l74 309q-49 20 -136.5 41t-132.5 22q-119 4 -220 -52t-161 -161t-63 -240q-2 -125 47.5 -215t132.5 -136.5t182 -47.5q4 0 9 1q-132 -181 -264 -459l291 -139
q125 265 244.5 424t280.5 292l-210 245q-61 -46 -142.5 -66.5z" />
    <glyph glyph-name="uni06F7" unicode="&#x6f7;" horiz-adv-x="1248" 
d="M917 519.5q-123 -374.5 -126 -518.5l-338 -1q-1 146 -123 519.5t-316 741.5l274 177q74 -136 126.5 -253t105 -282t104.5 -400q52 235 104 400t104.5 282t126.5 253l275 -177q-194 -367 -317 -741.5z" />
    <glyph glyph-name="uni06F8" unicode="&#x6f8;" horiz-adv-x="1246" 
d="M917 882q-123 375 -126 519l-338 1q-1 -146 -123 -520.5t-316 -741.5l274 -176q74 135 126.5 252t105 282.5t104.5 399.5q52 -234 104 -399.5t105 -283t126 -251.5l275 176q-194 367 -317 742z" />
    <glyph glyph-name="uni06F9" unicode="&#x6f9;" horiz-adv-x="1149" 
d="M696 866q-22 -12 -52.5 -18t-78.5 -12q-7 -1 -10 -1q-48 -7 -85 26t-37 92q0 54 39.5 94.5t92.5 40.5q42 0 71.5 -26.5t44.5 -65.5t15 -77v-53zM696 0h333v919q0 126 -57 242t-162.5 188t-244.5 72q-123 0 -230.5 -63.5t-171.5 -171t-64 -231.5q-1 -138 68.5 -247.5
t185 -165.5t246.5 -39q10 2 31 5q44 7 66 12v-520z" />
    <glyph glyph-name="uni2009" unicode="&#x2009;" horiz-adv-x="108" 
 />
    <glyph glyph-name="uni200A" unicode="&#x200a;" horiz-adv-x="108" 
 />
    <glyph glyph-name="uni200B" unicode="&#x200b;" horiz-adv-x="0" 
 />
    <glyph glyph-name="uni200C" unicode="&#x200c;" horiz-adv-x="0" 
 />
    <glyph glyph-name="uni200D" unicode="&#x200d;" horiz-adv-x="0" 
 />
    <glyph glyph-name="uni200E" unicode="&#x200e;" horiz-adv-x="0" 
 />
    <glyph glyph-name="uni200F" unicode="&#x200f;" horiz-adv-x="0" 
 />
    <glyph glyph-name="quoteleft" unicode="&#x2018;" horiz-adv-x="579" 
d="M382 957l127 497h-277l-161 -497h311z" />
    <glyph glyph-name="quoteright" unicode="&#x2019;" horiz-adv-x="579" 
d="M348 957l161 497h-311l-127 -497h277z" />
    <glyph glyph-name="quotesinglbase" unicode="&#x201a;" horiz-adv-x="579" 
d="M348 -424l161 497h-311l-127 -497h277z" />
    <glyph glyph-name="quotedblleft" unicode="&#x201c;" horiz-adv-x="914" 
d="M716 957l127 497h-249l-160 -497h282zM353 957l127 497h-248l-161 -497h282z" />
    <glyph glyph-name="quotedblright" unicode="&#x201d;" horiz-adv-x="914" 
d="M682 957l161 497h-282l-127 -497h248zM319 957l161 497h-282l-127 -497h248z" />
    <glyph glyph-name="quotedblbase" unicode="&#x201e;" horiz-adv-x="914" 
d="M682 -231l161 497h-282l-127 -497h248zM319 -231l161 497h-282l-127 -497h248z" />
    <glyph glyph-name="guilsinglleft" unicode="&#x2039;" horiz-adv-x="848" 
d="M777 337l-380 296l380 296l-140 214l-566 -439v-142l566 -439z" />
    <glyph glyph-name="guilsinglright" unicode="&#x203a;" horiz-adv-x="848" 
d="M777 562v142l-566 439l-140 -214l380 -296l-380 -296l140 -214z" />
    <glyph glyph-name="infinity" unicode="&#x221e;" horiz-adv-x="1449" 
d="M599.5 300q77.5 40 125.5 110q51 -70 127 -110t167 -40q164 0 262 93t98 273q0 179 -98 272t-262 93q-90 0 -166 -41t-128 -111q-49 70 -126 111t-168 41q-164 0 -262 -93t-98 -272q0 -180 98 -273t262 -93q91 0 168.5 40zM357.5 537q-30.5 31 -30.5 89q0 57 30.5 88
t89.5 31q53 0 91 -30.5t69 -91.5q-56 -117 -160 -117q-59 0 -89.5 31zM913 535q-39 29 -70 87q31 61 69 92t91 31q59 0 89.5 -31t30.5 -88q0 -58 -30.5 -89t-89.5 -31q-51 0 -90 29z" />
    <glyph glyph-name="notequal" unicode="&#x2260;" horiz-adv-x="975" 
d="M403 78l61 209h441v269h-368l40 133h328v268h-257l60 200h-158l-60 -200h-419v-268h347l-40 -133h-307v-269h235l-62 -209h159z" />
    <glyph glyph-name="lessequal" unicode="&#x2264;" horiz-adv-x="1163" 
d="M1092 632l-629 261l629 261v323l-1021 -455v-258l1021 -455v323zM1092 0v260h-1021v-260h1021z" />
    <glyph glyph-name="greaterequal" unicode="&#x2265;" horiz-adv-x="1163" 
d="M1092 764v258l-1021 455v-323l629 -261l-629 -261v-323zM1092 0v260h-1021v-260h1021z" />
    <glyph glyph-name="uniE000" unicode="&#xe000;" horiz-adv-x="0" 
d="M-86 -16q-32 32 -78 32t-78 -32t-32 -78t32 -78t78 -32t78 32t32 78t-32 78zM202 30q-32 32 -78 32t-78 -32t-32 -78t32 -78t78 -32t78 32t32 78t-32 78zM108 -189q-32 32 -78 32t-78 -32t-32 -78t32 -78t78 -32t78 32t32 78t-32 78z" />
    <glyph glyph-name="uniE002" unicode="&#xe002;" horiz-adv-x="737" 
d="M-57 234q-15 -64 0 -128.5t57 -105.5h187q117 0 216 55t156.5 149t57.5 205v387h-318v-345q0 -46 -33 -78.5t-79 -32.5h-187q-42 -42 -57 -106z" />
    <glyph glyph-name="uniE003" unicode="&#xe003;" horiz-adv-x="793" 
d="M-57 234q-15 -64 0 -128.5t57 -105.5h187q88 0 153.5 34.5t117.5 99.5q52 -65 117.5 -99.5t153.5 -34.5h64v340h-64q-46 0 -79 32.5t-33 78.5v302h-318v-302q0 -46 -33 -78.5t-79 -32.5h-187q-42 -42 -57 -106z" />
    <glyph glyph-name="uniE006" unicode="&#xe006;" horiz-adv-x="1058" 
d="M-57 234q-15 -64 0 -128.5t57 -105.5h508q117 0 215.5 55t156.5 149t58 205v387h-319v-345q0 -46 -32.5 -78.5t-78.5 -32.5h-508q-42 -42 -57 -106z" />
    <glyph glyph-name="uniE007" unicode="&#xe007;" horiz-adv-x="1005" 
d="M-57 234q-15 -64 0 -128.5t57 -105.5h400q88 0 153.5 34.5t117.5 99.5q52 -65 117 -99.5t153 -34.5h64v340h-64q-46 0 -78.5 32.5t-32.5 78.5v302h-319v-302q0 -46 -32.5 -78.5t-78.5 -32.5h-400q-42 -42 -57 -106z" />
    <glyph glyph-name="uniE008" unicode="&#xe008;" horiz-adv-x="1351" 
d="M576 483q-164 -64 -271.5 -161.5t-155.5 -212t-41 -231.5q10 -156 82 -273.5t204.5 -183t318.5 -65.5h497v339h-497q-123 0 -190 43.5t-82 103.5q-24 98 29 182.5t220 160.5l570 263l13 347l-98 58.5t-214.5 121t-213.5 101.5q-110 46 -220.5 31t-201 -85.5
t-141.5 -184.5l-33 -74l291 -131l33 74q18 40 55 70.5t95 6.5q71 -30 270 -118q49 -21 74 -32z" />
    <glyph glyph-name="uniE009" unicode="&#xe009;" horiz-adv-x="1451" 
d="M1260 478l13 317l-98 58.5t-214.5 121t-213.5 101.5q-110 46 -220.5 31t-201 -85.5t-141.5 -184.5l-33 -74l291 -131l33 74q18 40 55 70.5t95 6.5q71 -30 270 -118q49 -21 74 -32l-393 -150q-164 -64 -271.5 -161.5t-155.5 -212t-41 -231.5q10 -156 82 -273.5t204.5 -183
t318.5 -65.5h497v339h-497q-123 0 -190 43.5t-82 103.5q-24 98 29 182.5t220 160.5l247 114l24 -108q21 -90 90 -140.5t174 -50.5h225v340h-215q-21 0 -36.5 8t-19.5 26l-13 46z" />
    <glyph glyph-name="uniE021" unicode="&#xe021;" horiz-adv-x="1765" 
d="M1415 55q99 55 156.5 149t57.5 205v1045h-318v-1003q0 -46 -33 -78.5t-78 -32.5h-650q-46 0 -78.5 32.5t-32.5 78.5v345h-319v-387q0 -111 58 -205t156.5 -149t215.5 -55h650q116 0 215 55z" />
    <glyph glyph-name="uniE022" unicode="&#xe022;" horiz-adv-x="1806" 
d="M1352.5 34.5q65.5 34.5 117.5 99.5q52 -65 117.5 -99.5t153.5 -34.5h65v340h-65q-47 0 -79.5 32.5t-32.5 78.5v1003h-318v-1003q0 -46 -33 -78.5t-78 -32.5h-650q-46 0 -78.5 32.5t-32.5 78.5v345h-319v-387q0 -111 58 -205t156.5 -149t215.5 -55h650q87 0 152.5 34.5z
" />
    <glyph glyph-name="uE024" unicode="&#xe024;" horiz-adv-x="855" 
d="M844 0h11v340h-11q-61 0 -108 48.5t-47 116.5v248h-319v-656q0 -74 -37.5 -142.5t-100.5 -110.5t-136 -42h-107v-340h107q160 0 296.5 82t216.5 218.5t80 291.5v24q79 -78 155 -78zM685 -709l-214 5l-181 -207l-181 207l-214 -5l331 -387h128z" />
    <glyph glyph-name="uE025" unicode="&#xe025;" horiz-adv-x="735" 
d="M-57 234q-15 -64 0 -128.5t57 -105.5h185q117 0 215.5 55t156.5 149t58 205v387h-319v-345q0 -46 -32.5 -78.5t-78.5 -32.5h-185q-42 -42 -57 -106zM287 1248.5q34 43.5 72 43.5q50 0 68.5 -30t18.5 -63q0 -23 -26.5 -39.5t-63.5 -16.5h-130q27 62 61 105.5zM45 1153v-8
v-2h-60v-170h371q72 0 131.5 29.5t94 81.5t33.5 115q0 75 -32.5 135t-91 94.5t-132.5 34.5q-77 0 -144 -51v245h-170v-504z" />
    <glyph glyph-name="uE026" unicode="&#xe026;" horiz-adv-x="790" 
d="M-57 234q-15 -64 0 -128.5t57 -105.5h185q88 0 153 34.5t117 99.5q52 -65 117.5 -99.5t153.5 -34.5h64v340h-64q-46 0 -78.5 32.5t-32.5 78.5v302h-319v-302q0 -46 -32.5 -78.5t-78.5 -32.5h-185q-42 -42 -57 -106zM287 1248.5q34 43.5 72 43.5q50 0 68.5 -30t18.5 -63
q0 -23 -26.5 -39.5t-63.5 -16.5h-130q27 62 61 105.5zM45 1153v-8v-2h-60v-170h371q72 0 131.5 29.5t94 81.5t33.5 115q0 75 -32.5 135t-91 94.5t-132.5 34.5q-77 0 -144 -51v245h-170v-504z" />
    <glyph glyph-name="uE027" unicode="&#xe027;" horiz-adv-x="1732" 
d="M1732 340h-990v-318h374q48 -1 65.5 -22.5t16.5 -58.5q-1 -54 -63.5 -97t-170.5 -43h-250q-141 0 -208.5 77.5t-67.5 198.5v480h-318v-523q0 -158 71 -288.5t206 -207.5t317 -77h250q178 0 301 74t182.5 183t60.5 215q0 39 -3 67h227v340zM674 1143l-214 5l-181 -207
l-181 207l-214 -5l331 -387h128z" />
    <glyph glyph-name="uE028" unicode="&#xe028;" horiz-adv-x="737" 
d="M-57 234q-15 -64 0 -128.5t57 -105.5h187q117 0 216 55t156.5 149t57.5 205v387h-318v-345q0 -46 -33 -78.5t-79 -32.5h-187q-42 -42 -57 -106zM76 -234q-44 44 -106 44t-106 -44t-44 -106t44 -106t106 -44t106 44t44 106t-44 106zM436 -234q-44 44 -106 44t-106 -44
t-44 -106t44 -106t106 -44t106 44t44 106t-44 106zM803 1401l-214 5l-181 -207l-181 207l-214 -5l331 -387h128z" />
    <glyph glyph-name="uE029" unicode="&#xe029;" horiz-adv-x="793" 
d="M-57 234q-15 -64 0 -128.5t57 -105.5h187q88 0 153.5 34.5t117.5 99.5q52 -65 117.5 -99.5t153.5 -34.5h64v340h-64q-46 0 -79 32.5t-33 78.5v302h-318v-302q0 -46 -33 -78.5t-79 -32.5h-187q-42 -42 -57 -106zM76 -234q-44 44 -106 44t-106 -44t-44 -106t44 -106
t106 -44t106 44t44 106t-44 106zM436 -234q-44 44 -106 44t-106 -44t-44 -106t44 -106t106 -44t106 44t44 106t-44 106zM803 1359l-214 5l-181 -207l-181 207l-214 -5l331 -387h128z" />
    <glyph glyph-name="uniFEEA0654" unicode="&#xe030;" horiz-adv-x="1219" 
d="M1114 0h105v340h-107q-32 0 -55.5 20.5t-27.5 51.5l-107 728l-316 -45l13 -94q-159 -21 -280 -98.5t-183 -201t-50 -276.5q9 -112 73 -193.5t166.5 -118t224.5 -18t240 95.5q105 -191 304 -191zM700 441q-72 -43 -134.5 -49.5t-101 12.5t-40.5 47q-8 104 59 162t182 70z
M305 1230l478 183l-60 158l-147 -56q-45 -7 -77.5 10.5t-31.5 64.5q0 30 18 56.5t51 27.5q24 0 46 -7t53 -22q7 -3 10 -4l44 159q-46 24 -79.5 34t-73.5 10q-71 0 -125.5 -37t-84 -95.5t-29.5 -121.5q0 -43 17.5 -85t52.5 -69l-122 -47z" />
    <glyph glyph-name="uE060_uFBB5" unicode="&#xe032;" horiz-adv-x="843" 
d="M-57 234q-15 -64 0 -128.5t57 -105.5h293q117 0 215.5 55t156.5 149t58 205v387h-319v-345q0 -46 -32.5 -78.5t-78.5 -32.5h-293q-42 -42 -57 -106zM239 -234q-44 44 -106 44t-106 -44t-44 -106t44 -106t106 -44t106 44t44 106t-44 106zM599 -234q-44 44 -106 44
t-106 -44t-44 -106t44 -106t106 -44t106 44t44 106t-44 106z" />
    <glyph glyph-name="uE061_uFBB5" unicode="&#xe033;" horiz-adv-x="898" 
d="M-57 234q-15 -64 0 -128.5t57 -105.5h293q88 0 153.5 34.5t117.5 99.5q51 -65 116.5 -99.5t153.5 -34.5h64v340h-64q-46 0 -78.5 32.5t-32.5 78.5v302h-319v-302q0 -46 -32.5 -78.5t-78.5 -32.5h-293q-42 -42 -57 -106zM239 -234q-44 44 -106 44t-106 -44t-44 -106
t44 -106t106 -44t106 44t44 106t-44 106zM599 -234q-44 44 -106 44t-106 -44t-44 -106t44 -106t106 -44t106 44t44 106t-44 106z" />
    <glyph glyph-name="uniE006_uFBB5" unicode="&#xe034;" horiz-adv-x="1058" 
d="M-57 234q-15 -64 0 -128.5t57 -105.5h508q117 0 215.5 55t156.5 149t58 205v387h-319v-345q0 -46 -32.5 -78.5t-78.5 -32.5h-508q-42 -42 -57 -106zM238 -234q-44 44 -106 44t-106 -44t-44 -106t44 -106t106 -44t106 44t44 106t-44 106zM598 -234q-44 44 -106 44
t-106 -44t-44 -106t44 -106t106 -44t106 44t44 106t-44 106z" />
    <glyph glyph-name="uniE007_uFBB5" unicode="&#xe035;" horiz-adv-x="1005" 
d="M-57 234q-15 -64 0 -128.5t57 -105.5h400q88 0 153.5 34.5t117.5 99.5q52 -65 117 -99.5t153 -34.5h64v340h-64q-46 0 -78.5 32.5t-32.5 78.5v302h-319v-302q0 -46 -32.5 -78.5t-78.5 -32.5h-400q-42 -42 -57 -106zM238 -234q-44 44 -106 44t-106 -44t-44 -106t44 -106
t106 -44t106 44t44 106t-44 106zM598 -234q-44 44 -106 44t-106 -44t-44 -106t44 -106t106 -44t106 44t44 106t-44 106z" />
    <glyph glyph-name="uE060_uFBB9" unicode="&#xe036;" horiz-adv-x="843" 
d="M-57 234q-15 -64 0 -128.5t57 -105.5h293q117 0 215.5 55t156.5 149t58 205v387h-319v-345q0 -46 -32.5 -78.5t-78.5 -32.5h-293q-42 -42 -57 -106zM239 -211q-44 44 -106 44t-106 -44t-44 -106t44 -106t106 -44t106 44t44 106t-44 106zM599 -211q-44 44 -106 44
t-106 -44t-44 -106t44 -106t106 -44t106 44t44 106t-44 106zM419 -511q-44 44 -106 44t-106 -44t-44 -106t44 -106t106 -44t106 44t44 106t-44 106z" />
    <glyph glyph-name="uE061_uFBB9" unicode="&#xe037;" horiz-adv-x="898" 
d="M-57 234q-15 -64 0 -128.5t57 -105.5h293q88 0 153.5 34.5t117.5 99.5q51 -65 116.5 -99.5t153.5 -34.5h64v340h-64q-46 0 -78.5 32.5t-32.5 78.5v302h-319v-302q0 -46 -32.5 -78.5t-78.5 -32.5h-293q-42 -42 -57 -106zM239 -211q-44 44 -106 44t-106 -44t-44 -106
t44 -106t106 -44t106 44t44 106t-44 106zM599 -211q-44 44 -106 44t-106 -44t-44 -106t44 -106t106 -44t106 44t44 106t-44 106zM419 -511q-44 44 -106 44t-106 -44t-44 -106t44 -106t106 -44t106 44t44 106t-44 106z" />
    <glyph glyph-name="uniE006_uFBB9" unicode="&#xe038;" horiz-adv-x="1058" 
d="M-57 234q-15 -64 0 -128.5t57 -105.5h508q117 0 215.5 55t156.5 149t58 205v387h-319v-345q0 -46 -32.5 -78.5t-78.5 -32.5h-508q-42 -42 -57 -106zM238 -211q-44 44 -106 44t-106 -44t-44 -106t44 -106t106 -44t106 44t44 106t-44 106zM598 -211q-44 44 -106 44
t-106 -44t-44 -106t44 -106t106 -44t106 44t44 106t-44 106zM418 -511q-44 44 -106 44t-106 -44t-44 -106t44 -106t106 -44t106 44t44 106t-44 106z" />
    <glyph glyph-name="uniE007_uFBB9" unicode="&#xe039;" horiz-adv-x="1005" 
d="M-57 234q-15 -64 0 -128.5t57 -105.5h400q88 0 153.5 34.5t117.5 99.5q52 -65 117 -99.5t153 -34.5h64v340h-64q-46 0 -78.5 32.5t-32.5 78.5v302h-319v-302q0 -46 -32.5 -78.5t-78.5 -32.5h-400q-42 -42 -57 -106zM238 -211q-44 44 -106 44t-106 -44t-44 -106t44 -106
t106 -44t106 44t44 106t-44 106zM598 -211q-44 44 -106 44t-106 -44t-44 -106t44 -106t106 -44t106 44t44 106t-44 106zM418 -511q-44 44 -106 44t-106 -44t-44 -106t44 -106t106 -44t106 44t44 106t-44 106z" />
    <glyph glyph-name="uniE002_uFBB3" unicode="&#xe040;" horiz-adv-x="737" 
d="M-57 234q-15 -64 0 -128.5t57 -105.5h187q117 0 216 55t156.5 149t57.5 205v387h-318v-345q0 -46 -33 -78.5t-79 -32.5h-187q-42 -42 -57 -106zM290 -234q-44 44 -106 44t-106 -44t-44 -106t44 -106t106 -44t106 44t44 106t-44 106z" />
    <glyph glyph-name="uniE003_uFBB3" unicode="&#xe041;" horiz-adv-x="793" 
d="M-57 234q-15 -64 0 -128.5t57 -105.5h187q88 0 153.5 34.5t117.5 99.5q52 -65 117.5 -99.5t153.5 -34.5h64v340h-64q-46 0 -79 32.5t-33 78.5v302h-318v-302q0 -46 -33 -78.5t-79 -32.5h-187q-42 -42 -57 -106zM290 -234q-44 44 -106 44t-106 -44t-44 -106t44 -106
t106 -44t106 44t44 106t-44 106z" />
    <glyph glyph-name="uniFBE8FBB4" unicode="&#xe042;" horiz-adv-x="735" 
d="M-57 234q-15 -64 0 -128.5t57 -105.5h185q117 0 215.5 55t156.5 149t58 205v387h-319v-345q0 -46 -32.5 -78.5t-78.5 -32.5h-185q-42 -42 -57 -106zM261 1251q-44 44 -106 44t-106 -44t-44 -106t44 -106t106 -44t106 44t44 106t-44 106zM621 1251q-44 44 -106 44
t-106 -44t-44 -106t44 -106t106 -44t106 44t44 106t-44 106z" />
    <glyph glyph-name="uniFBE9FBB4" unicode="&#xe043;" horiz-adv-x="790" 
d="M-57 234q-15 -64 0 -128.5t57 -105.5h185q88 0 153 34.5t117 99.5q52 -65 117.5 -99.5t153.5 -34.5h64v340h-64q-46 0 -78.5 32.5t-32.5 78.5v302h-319v-302q0 -46 -32.5 -78.5t-78.5 -32.5h-185q-42 -42 -57 -106zM261 1209q-44 44 -106 44t-106 -44t-44 -106t44 -106
t106 -44t106 44t44 106t-44 106zM621 1209q-44 44 -106 44t-106 -44t-44 -106t44 -106t106 -44t106 44t44 106t-44 106z" />
    <glyph glyph-name="uniFBE8FBB6" unicode="&#xe044;" horiz-adv-x="735" 
d="M-57 234q-15 -64 0 -128.5t57 -105.5h185q117 0 215.5 55t156.5 149t58 205v387h-319v-345q0 -46 -32.5 -78.5t-78.5 -32.5h-185q-42 -42 -57 -106zM261 1251q-44 44 -106 44t-106 -44t-44 -106t44 -106t106 -44t106 44t44 106t-44 106zM621 1251q-44 44 -106 44
t-106 -44t-44 -106t44 -106t106 -44t106 44t44 106t-44 106zM441 1551q-44 44 -106 44t-106 -44t-44 -106t44 -106t106 -44t106 44t44 106t-44 106z" />
    <glyph glyph-name="uniFBE9FBB6" unicode="&#xe045;" horiz-adv-x="790" 
d="M-57 234q-15 -64 0 -128.5t57 -105.5h185q88 0 153 34.5t117 99.5q52 -65 117.5 -99.5t153.5 -34.5h64v340h-64q-46 0 -78.5 32.5t-32.5 78.5v302h-319v-302q0 -46 -32.5 -78.5t-78.5 -32.5h-185q-42 -42 -57 -106zM261 1209q-44 44 -106 44t-106 -44t-44 -106t44 -106
t106 -44t106 44t44 106t-44 106zM621 1209q-44 44 -106 44t-106 -44t-44 -106t44 -106t106 -44t106 44t44 106t-44 106zM441 1509q-44 44 -106 44t-106 -44t-44 -106t44 -106t106 -44t106 44t44 106t-44 106z" />
    <glyph glyph-name="uE046" unicode="&#xe046;" horiz-adv-x="843" 
d="M-57 234q-15 -64 0 -128.5t57 -105.5h293q117 0 215.5 55t156.5 149t58 205v387h-319v-345q0 -46 -32.5 -78.5t-78.5 -32.5h-293q-42 -42 -57 -106zM239 -234q-44 44 -106 44t-106 -44t-44 -106t44 -106t106 -44t106 44t44 106t-44 106zM599 -234q-44 44 -106 44
t-106 -44t-44 -106t44 -106t106 -44t106 44t44 106t-44 106zM859 1401l-214 5l-181 -207l-181 207l-214 -5l331 -387h128z" />
    <glyph glyph-name="uE047" unicode="&#xe047;" horiz-adv-x="1058" 
d="M-57 234q-15 -64 0 -128.5t57 -105.5h508q117 0 215.5 55t156.5 149t58 205v387h-319v-345q0 -46 -32.5 -78.5t-78.5 -32.5h-508q-42 -42 -57 -106zM238 -234q-44 44 -106 44t-106 -44t-44 -106t44 -106t106 -44t106 44t44 106t-44 106zM598 -234q-44 44 -106 44
t-106 -44t-44 -106t44 -106t106 -44t106 44t44 106t-44 106zM1074 1401l-214 5l-181 -207l-181 207l-214 -5l331 -387h128z" />
    <glyph glyph-name="uniE054" unicode="&#xe054;" horiz-adv-x="0" 
d="M134 79.5q89 75.5 89 168.5v172h-247v30q0 33 20.5 53.5t53.5 20.5h157v160h-157q-60 0 -114 -31t-87 -84.5t-33 -118.5v-83q-1 -40 32.5 -73t73.5 -33h141v-13q0 -17 -26 -34t-90 -27.5t-170 -5.5v-170q268 -7 357 68.5z" />
    <glyph glyph-name="uE055" unicode="&#xe055;" horiz-adv-x="0" 
d="M39 1679q35 44 72 44q50 0 68 -30t18 -64q0 -23 -26 -39.5t-63 -16.5h-131q27 62 62 106zM-197 1704v86h-169v-86q0 -69 33.5 -139t90.5 -116t123 -46h227q71 0 130.5 30t93.5 81.5t34 114.5q0 75 -33 135.5t-91 94.5t-132 34q-105 0 -176 -76.5t-113 -176.5
q-18 32 -18 64z" />
    <glyph glyph-name="farsiyeharab.fina.1" unicode="&#xe056;" horiz-adv-x="1635" 
d="M1635 340h-893v-318h384q48 -1 65.5 -22.5t16.5 -58.5q-1 -54 -63.5 -97t-170.5 -43h-260q-141 0 -208.5 77.5t-67.5 198.5v480h-318v-523q0 -158 71 -288.5t206 -207.5t317 -77h260q178 0 301 74t182.5 183t60.5 215q0 39 -3 67h120v340z" />
    <glyph glyph-name="yeharab.fina.1" unicode="&#xe057;" horiz-adv-x="1635" 
d="M1635 340h-893v-318h384q48 -1 65.5 -22.5t16.5 -58.5q-1 -54 -63.5 -97t-170.5 -43h-260q-141 0 -208.5 77.5t-67.5 198.5v480h-318v-523q0 -158 71 -288.5t206 -207.5t317 -77h260q178 0 301 74t182.5 183t60.5 215q0 39 -3 67h120v340zM722 -720q-44 44 -106 44
t-106 -44t-44 -106t44 -106t106 -44t106 44t44 106t-44 106zM1082 -720q-44 44 -106 44t-106 -44t-44 -106t44 -106t106 -44t106 44t44 106t-44 106z" />
    <glyph glyph-name="farsiyeharab_u0654" unicode="&#xe058;" horiz-adv-x="1634" 
d="M1635 340h-893v-318h384q48 -1 65.5 -22.5t16.5 -58.5q-1 -54 -63.5 -97t-170.5 -43h-260q-141 0 -208.5 77.5t-67.5 198.5v480h-318v-523q0 -158 71 -288.5t206 -207.5t317 -77h260q178 0 301 74t182.5 183t60.5 215q0 39 -3 67h120v340zM147 755l478 183l-60 158
l-147 -56q-45 -7 -77.5 10.5t-31.5 64.5q0 30 18 56.5t51 27.5q24 0 46 -7t53 -22q7 -3 10 -4l44 159q-46 24 -79.5 34t-73.5 10q-71 0 -125.5 -37t-84 -95.5t-29.5 -121.5q0 -43 17.5 -85t52.5 -69l-122 -47z" />
    <glyph glyph-name="uE059" unicode="&#xe059;" horiz-adv-x="1005" 
d="M-57 234q-15 -64 0 -128.5t57 -105.5h400q88 0 153.5 34.5t117.5 99.5q52 -65 117 -99.5t153 -34.5h64v340h-64q-46 0 -78.5 32.5t-32.5 78.5v302h-319v-302q0 -46 -32.5 -78.5t-78.5 -32.5h-400q-42 -42 -57 -106zM238 -234q-44 44 -106 44t-106 -44t-44 -106t44 -106
t106 -44t106 44t44 106t-44 106zM598 -234q-44 44 -106 44t-106 -44t-44 -106t44 -106t106 -44t106 44t44 106t-44 106zM966 1359l-214 5l-181 -207l-181 207l-214 -5l331 -387h128z" />
    <glyph glyph-name="uE060" unicode="&#xe060;" horiz-adv-x="843" 
d="M-57 234q-15 -64 0 -128.5t57 -105.5h293q117 0 215.5 55t156.5 149t58 205v387h-319v-345q0 -46 -32.5 -78.5t-78.5 -32.5h-293q-42 -42 -57 -106z" />
    <glyph glyph-name="uE061" unicode="&#xe061;" horiz-adv-x="898" 
d="M-57 234q-15 -64 0 -128.5t57 -105.5h293q88 0 153.5 34.5t117.5 99.5q51 -65 116.5 -99.5t153.5 -34.5h64v340h-64q-46 0 -78.5 32.5t-32.5 78.5v302h-319v-302q0 -46 -32.5 -78.5t-78.5 -32.5h-293q-42 -42 -57 -106z" />
    <glyph glyph-name="uE062" unicode="&#xe062;" horiz-adv-x="898" 
d="M-57 234q-15 -64 0 -128.5t57 -105.5h293q88 0 153.5 34.5t117.5 99.5q51 -65 116.5 -99.5t153.5 -34.5h64v340h-64q-46 0 -78.5 32.5t-32.5 78.5v302h-319v-302q0 -46 -32.5 -78.5t-78.5 -32.5h-293q-42 -42 -57 -106zM239 -234q-44 44 -106 44t-106 -44t-44 -106
t44 -106t106 -44t106 44t44 106t-44 106zM599 -234q-44 44 -106 44t-106 -44t-44 -106t44 -106t106 -44t106 44t44 106t-44 106zM859 1359l-214 5l-181 -207l-181 207l-214 -5l331 -387h128z" />
    <glyph glyph-name="uE066" unicode="&#xe066;" horiz-adv-x="1493" 
d="M702 83l-252 914q-5 18 4.5 35t27.5 25q19 7 38.5 -2t25.5 -27l158 -436l287 -27l406 677l-273 163l-233 -390l-46 121q-34 93 -109.5 155.5t-171 81t-189.5 -15.5q-88 -31 -150 -101t-84.5 -160.5t2.5 -181.5l251 -914z" />
    <glyph glyph-name="uE067" unicode="&#xe067;" horiz-adv-x="1291" 
d="M658.5 20.5q186.5 9.5 361.5 68.5l151 49l-101 302l-152 -50q-254 -83 -476 -37q38 231 175.5 445.5t249.5 346.5l5 5l-236 215q0 -1 -2 -3q-133 -152 -304 -425t-209 -582l184 -297q167 -47 353.5 -37.5z" />
    <glyph glyph-name="uniE069" unicode="&#xe069;" horiz-adv-x="648" 
d="M-57 234q-15 -64 0 -128.5t57 -105.5h54q87 0 152.5 34.5t117.5 99.5q52 -65 117.5 -99.5t153.5 -34.5h53v340h-53q-46 0 -79 32.5t-33 78.5v730h-318v-730q0 -46 -33 -78.5t-78 -32.5h-54q-42 -42 -57 -106z" />
    <glyph glyph-name="uE070" unicode="&#xe070;" horiz-adv-x="800" 
d="M-57 234q-15 -64 0 -128.5t57 -105.5h250q117 0 215.5 55t156.5 149t58 205v387h-318v-345q0 -46 -33 -78.5t-79 -32.5h-250q-42 -42 -57 -106zM-30 -211q-44 44 -106 44t-106 -44t-44 -106t44 -106t106 -44t106 44t44 106t-44 106zM330 -211q-44 44 -106 44t-106 -44
t-44 -106t44 -106t106 -44t106 44t44 106t-44 106zM150 -511q-44 44 -106 44t-106 -44t-44 -106t44 -106t106 -44t106 44t44 106t-44 106z" />
    <glyph glyph-name="uE071" unicode="&#xe071;" horiz-adv-x="856" 
d="M-57 234q-15 -64 0 -128.5t57 -105.5h250q88 0 153.5 34.5t117.5 99.5q52 -65 117.5 -99.5t153.5 -34.5h64v340h-64q-47 0 -79.5 32.5t-32.5 78.5v302h-318v-302q0 -46 -33 -78.5t-79 -32.5h-250q-42 -42 -57 -106zM-30 -211q-44 44 -106 44t-106 -44t-44 -106t44 -106
t106 -44t106 44t44 106t-44 106zM330 -211q-44 44 -106 44t-106 -44t-44 -106t44 -106t106 -44t106 44t44 106t-44 106zM150 -511q-44 44 -106 44t-106 -44t-44 -106t44 -106t106 -44t106 44t44 106t-44 106z" />
    <glyph glyph-name="uE072" unicode="&#xe072;" horiz-adv-x="800" 
d="M-57 234q-15 -64 0 -128.5t57 -105.5h250q117 0 215.5 55t156.5 149t58 205v387h-318v-345q0 -46 -33 -78.5t-79 -32.5h-250q-42 -42 -57 -106zM-30 -234q-44 44 -106 44t-106 -44t-44 -106t44 -106t106 -44t106 44t44 106t-44 106zM330 -234q-44 44 -106 44t-106 -44
t-44 -106t44 -106t106 -44t106 44t44 106t-44 106z" />
    <glyph glyph-name="uE073" unicode="&#xe073;" horiz-adv-x="856" 
d="M-57 234q-15 -64 0 -128.5t57 -105.5h250q88 0 153.5 34.5t117.5 99.5q52 -65 117.5 -99.5t153.5 -34.5h64v340h-64q-47 0 -79.5 32.5t-32.5 78.5v302h-318v-302q0 -46 -33 -78.5t-79 -32.5h-250q-42 -42 -57 -106zM-30 -234q-44 44 -106 44t-106 -44t-44 -106t44 -106
t106 -44t106 44t44 106t-44 106zM330 -234q-44 44 -106 44t-106 -44t-44 -106t44 -106t106 -44t106 44t44 106t-44 106z" />
    <glyph glyph-name="uE074" unicode="&#xe074;" horiz-adv-x="800" 
d="M-57 234q-15 -64 0 -128.5t57 -105.5h250q117 0 215.5 55t156.5 149t58 205v387h-318v-345q0 -46 -33 -78.5t-79 -32.5h-250q-42 -42 -57 -106zM-30 -234q-44 44 -106 44t-106 -44t-44 -106t44 -106t106 -44t106 44t44 106t-44 106zM330 -234q-44 44 -106 44t-106 -44
t-44 -106t44 -106t106 -44t106 44t44 106t-44 106zM816 1441l-214 5l-181 -207l-181 207l-214 -5l331 -387h128z" />
    <glyph glyph-name="uE075" unicode="&#xe075;" horiz-adv-x="856" 
d="M-57 234q-15 -64 0 -128.5t57 -105.5h250q88 0 153.5 34.5t117.5 99.5q52 -65 117.5 -99.5t153.5 -34.5h64v340h-64q-47 0 -79.5 32.5t-32.5 78.5v302h-318v-302q0 -46 -33 -78.5t-79 -32.5h-250q-42 -42 -57 -106zM-30 -234q-44 44 -106 44t-106 -44t-44 -106t44 -106
t106 -44t106 44t44 106t-44 106zM330 -234q-44 44 -106 44t-106 -44t-44 -106t44 -106t106 -44t106 44t44 106t-44 106zM816 1401l-214 5l-181 -207l-181 207l-214 -5l331 -387h128z" />
    <glyph glyph-name="uE076" unicode="&#xe076;" horiz-adv-x="800" 
d="M-57 234q-15 -64 0 -128.5t57 -105.5h250q117 0 215.5 55t156.5 149t58 205v387h-318v-345q0 -46 -33 -78.5t-79 -32.5h-250q-42 -42 -57 -106z" />
    <glyph glyph-name="uE077" unicode="&#xe077;" horiz-adv-x="856" 
d="M-57 234q-15 -64 0 -128.5t57 -105.5h250q88 0 153.5 34.5t117.5 99.5q52 -65 117.5 -99.5t153.5 -34.5h64v340h-64q-47 0 -79.5 32.5t-32.5 78.5v302h-318v-302q0 -46 -33 -78.5t-79 -32.5h-250q-42 -42 -57 -106z" />
    <glyph glyph-name="uE079" unicode="&#xe079;" horiz-adv-x="1123" 
d="M495 403q-45 35 -56 67t-11 69q0 52 40.5 87t93.5 35q55 0 94.5 -34t39.5 -105q0 -46 -13 -107t-50 -73q-93 26 -138 61zM-57 234q-15 -64 0 -128.5t57 -105.5h620q99 0 189 54t147.5 171.5t57.5 296.5q0 129 -59.5 233.5t-162.5 164t-230 59.5q-120 0 -224.5 -58.5
t-166 -160t-61.5 -223.5q0 -53 19 -106t55 -91h-184q-42 -42 -57 -106z" />
    <glyph glyph-name="uE080" unicode="&#xe080;" horiz-adv-x="923" 
d="M211 -538q160 0 296 82.5t216 221t80 299.5v688h-318v-656q0 -74 -37.5 -142.5t-100.5 -110.5t-136 -42h-211v-340h211z" />
    <glyph glyph-name="uE081" unicode="&#xe081;" horiz-adv-x="970" 
d="M211 -538q160 0 296 82.5t216 221t80 299.5v17q84 -82 166 -82h1v340h-1q-69 0 -117.5 48.5t-48.5 116.5v248h-318v-656q0 -74 -37.5 -142.5t-100.5 -110.5t-136 -42h-211v-340h211z" />
    <glyph glyph-name="uE082" unicode="&#xe082;" horiz-adv-x="923" 
d="M211 -538q160 0 296 82.5t216 221t80 299.5v688h-318v-656q0 -74 -37.5 -142.5t-100.5 -110.5t-136 -42h-211v-340h211zM750 1209q-44 44 -106 44t-106 -44t-44 -106t44 -106t106 -44t106 44t44 106t-44 106z" />
    <glyph glyph-name="uE083" unicode="&#xe083;" horiz-adv-x="970" 
d="M211 -538q160 0 296 82.5t216 221t80 299.5v17q84 -82 166 -82h1v340h-1q-69 0 -117.5 48.5t-48.5 116.5v248h-318v-656q0 -74 -37.5 -142.5t-100.5 -110.5t-136 -42h-211v-340h211zM750 1209q-44 44 -106 44t-106 -44t-44 -106t44 -106t106 -44t106 44t44 106t-44 106z
" />
    <glyph glyph-name="uE084" unicode="&#xe084;" horiz-adv-x="923" 
d="M211 -538q160 0 296 82.5t216 221t80 299.5v688h-318v-656q0 -74 -37.5 -142.5t-100.5 -110.5t-136 -42h-211v-340h211zM570 1209q-44 44 -106 44t-106 -44t-44 -106t44 -106t106 -44t106 44t44 106t-44 106zM930 1209q-44 44 -106 44t-106 -44t-44 -106t44 -106t106 -44
t106 44t44 106t-44 106zM750 1509q-44 44 -106 44t-106 -44t-44 -106t44 -106t106 -44t106 44t44 106t-44 106z" />
    <glyph glyph-name="uE085" unicode="&#xe085;" horiz-adv-x="970" 
d="M211 -538q160 0 296 82.5t216 221t80 299.5v17q84 -82 166 -82h1v340h-1q-69 0 -117.5 48.5t-48.5 116.5v248h-318v-656q0 -74 -37.5 -142.5t-100.5 -110.5t-136 -42h-211v-340h211zM570 1209q-44 44 -106 44t-106 -44t-44 -106t44 -106t106 -44t106 44t44 106t-44 106z
M930 1209q-44 44 -106 44t-106 -44t-44 -106t44 -106t106 -44t106 44t44 106t-44 106zM750 1509q-44 44 -106 44t-106 -44t-44 -106t44 -106t106 -44t106 44t44 106t-44 106z" />
    <glyph glyph-name="uE086" unicode="&#xe086;" horiz-adv-x="923" 
d="M211 -538q160 0 296 82.5t216 221t80 299.5v688h-318v-656q0 -74 -37.5 -142.5t-100.5 -110.5t-136 -42h-211v-340h211zM631 1248.5q34 43.5 72 43.5q50 0 68.5 -30t18.5 -63q0 -23 -26.5 -39.5t-63.5 -16.5h-130q27 62 61 105.5zM389 1153v-8v-2h-60v-170h371
q72 0 131.5 29.5t94 81.5t33.5 115q0 75 -32.5 135t-91 94.5t-132.5 34.5q-77 0 -144 -51v245h-170v-504z" />
    <glyph glyph-name="uE087" unicode="&#xe087;" horiz-adv-x="970" 
d="M211 -538q160 0 296 82.5t216 221t80 299.5v17q84 -82 166 -82h1v340h-1q-69 0 -117.5 48.5t-48.5 116.5v248h-318v-656q0 -74 -37.5 -142.5t-100.5 -110.5t-136 -42h-211v-340h211zM631 1248.5q34 43.5 72 43.5q50 0 68.5 -30t18.5 -63q0 -23 -26.5 -39.5t-63.5 -16.5
h-130q27 62 61 105.5zM389 1153v-8v-2h-60v-170h371q72 0 131.5 29.5t94 81.5t33.5 115q0 75 -32.5 135t-91 94.5t-132.5 34.5q-77 0 -144 -51v245h-170v-504z" />
    <glyph glyph-name="uE088" unicode="&#xe088;" horiz-adv-x="923" 
d="M211 -538q160 0 296 82.5t216 221t80 299.5v688h-318v-656q0 -74 -37.5 -142.5t-100.5 -110.5t-136 -42h-211v-340h211zM798 -709l-214 5l-181 -207l-181 207l-214 -5l331 -387h128z" />
    <glyph glyph-name="uE089" unicode="&#xe089;" horiz-adv-x="970" 
d="M211 -538q160 0 296 82.5t216 221t80 299.5v17q84 -82 166 -82h1v340h-1q-69 0 -117.5 48.5t-48.5 116.5v248h-318v-656q0 -74 -37.5 -142.5t-100.5 -110.5t-136 -42h-211v-340h211zM798 -709l-214 5l-181 -207l-181 207l-214 -5l331 -387h128z" />
    <glyph glyph-name="uE090" unicode="&#xe090;" horiz-adv-x="1609" 
d="M820 -539q183 0 322 80.5t214.5 215t76.5 292.5v0q60 -49 112 -49h64v340h-64q-46 0 -79 32.5t-33 78.5v1003h-318v-1357q0 -79 -32.5 -146.5t-99 -108.5t-163.5 -41h-86q-98 0 -164.5 41t-98.5 108.5t-32 146.5v440h-319v-483q0 -159 75.5 -295t215 -217t323.5 -81h86z
M1669 2060l-214 5l-181 -207l-181 207l-214 -5l331 -387h128z" />
    <glyph glyph-name="uE091" unicode="&#xe091;" horiz-adv-x="695" 
d="M-57 234q-15 -64 0 -128.5t57 -105.5h118q117 0 216 57.5t156.5 156.5t57.5 216v1024h-318v-1003q0 -46 -33 -78.5t-79 -32.5h-118q-42 -42 -57 -106zM785 2060l-214 5l-181 -207l-181 207l-214 -5l331 -387h128z" />
    <glyph glyph-name="uE092" unicode="&#xe092;" horiz-adv-x="725" 
d="M-57 234q-15 -64 0 -128.5t57 -105.5h118q88 0 153.5 34.5t117.5 99.5q52 -65 117.5 -99.5t152.5 -34.5h65v340h-65q-45 0 -78 32.5t-33 78.5v1003h-318v-1003q0 -46 -33 -78.5t-79 -32.5h-118q-42 -42 -57 -106zM785 2060l-214 5l-181 -207l-181 207l-214 -5l331 -387
h128z" />
    <glyph glyph-name="uniE094" unicode="&#xe094;" horiz-adv-x="0" 
d="M174.5 308q-65.5 38 -186.5 33v32q0 22 13 38t35 19l169 24l-31 230l-101 -18q-88 -15 -160 -66.5t-112.5 -124t-40.5 -148.5v-140q0 -80 66 -136t169 -56q68 0 124 25.5t88.5 69.5t32.5 97q0 83 -65.5 121z" />
    <glyph glyph-name="uE098" unicode="&#xe098;" horiz-adv-x="2131" 
d="M1670.5 25.5q69.5 25.5 125.5 71.5q56 -46 125 -71.5t146 -25.5h64v340h-64q-49 0 -80.5 23t-31.5 67q0 117 -57.5 216t-156.5 157t-216 58h-367l375 457l-247 203l-588 -719l123 -261h704q46 0 79 -32.5t33 -78.5q0 -44 -31.5 -67t-80.5 -23h-975q-48 0 -79.5 23
t-31.5 67v323h-318v-302q0 -122 57.5 -225.5t156.5 -164.5t215 -61h975q76 0 145.5 25.5z" />
    <glyph glyph-name="uE099" unicode="&#xe099;" horiz-adv-x="1524" 
d="M-57 234q-15 -64 0 -128.5t57 -105.5h973q117 0 215.5 58t156.5 156.5t58 215.5t-58 216t-156.5 157t-215.5 58h-367l374 457l-246 203l-588 -719l123 -261h704q46 0 79 -32.5t33 -78.5q0 -44 -31.5 -67t-80.5 -23h-973q-42 -42 -57 -106z" />
    <glyph glyph-name="uE0A0" unicode="&#xe0a0;" horiz-adv-x="1579" 
d="M-57 234q-15 -64 0 -128.5t57 -105.5h973q76 0 145.5 25.5t125.5 71.5q55 -46 124.5 -71.5t146.5 -25.5h64v340h-64q-49 0 -80.5 23t-31.5 67q0 117 -58 216t-156.5 157t-215.5 58h-367l374 457l-246 203l-588 -719l123 -261h704q46 0 79 -32.5t33 -78.5q0 -44 -31.5 -67
t-80.5 -23h-973q-42 -42 -57 -106z" />
    <glyph glyph-name="uE105" unicode="&#xe105;" horiz-adv-x="0" 
d="M99 -219q41 41 41 99t-41 99t-99 41t-99 -41t-41 -99t41 -99t99 -41t99 41z" />
    <glyph glyph-name="uE106" unicode="&#xe106;" horiz-adv-x="1635" 
d="M1635 340h-893v-318h384q48 -1 65.5 -22.5t16.5 -58.5q-1 -54 -63.5 -97t-170.5 -43h-260q-141 0 -208.5 77.5t-67.5 198.5v480h-318v-523q0 -158 71 -288.5t206 -207.5t317 -77h260q178 0 301 74t182.5 183t60.5 215q0 39 -3 67h120v340zM674 1186l-214 5l-181 -207
l-181 207l-214 -5l331 -387h128z" />
    <glyph glyph-name="uE108" unicode="&#xe108;" horiz-adv-x="0" 
d="M-74.5 -38.5q-29.5 29.5 -70.5 29.5t-70.5 -29.5t-29.5 -70.5q0 -42 29.5 -71t70.5 -29t70.5 29t29.5 71q0 41 -29.5 70.5zM161.5 32.5q-29.5 29.5 -70.5 29.5t-70.5 -29.5t-29.5 -70.5t29.5 -70.5t70.5 -29.5t70.5 29.5t29.5 70.5t-29.5 70.5zM100.5 -186.5
q-29.5 29.5 -70.5 29.5t-70.5 -29.5t-29.5 -70.5t29.5 -70.5t70.5 -29.5t70.5 29.5t29.5 70.5t-29.5 70.5z" />
    <glyph glyph-name="uE109" unicode="&#xe109;" horiz-adv-x="1300" 
d="M484 451v843h-318v-843h318zM166 340v-340h537q117 0 216 57.5t157 156.5t58 216v1024h-319v-1003q0 -46 -32.5 -78.5t-79.5 -32.5h-537zM309 1774q35 44 72 44q50 0 68 -30t18 -64q0 -23 -26 -39.5t-63 -16.5h-131q27 62 62 106zM73 1799v86h-169v-86q0 -69 33.5 -139
t90.5 -116t123 -46h227q71 0 130.5 30t93.5 81.5t34 114.5q0 75 -33 135.5t-91 94.5t-132 34q-105 0 -176 -76.5t-113 -176.5q-18 32 -18 64z" />
    <glyph glyph-name="uE110" unicode="&#xe110;" horiz-adv-x="1310" 
d="M1310 340h-65q-46 0 -78.5 32.5t-32.5 78.5v1003h-319v-1003q0 -46 -32.5 -78.5t-79.5 -32.5h-537v-340h537q89 0 154.5 34.5t117.5 99.5q51 -65 116.5 -99.5t153.5 -34.5h65v340zM484 451v843h-318v-843h318zM309 1774q35 44 72 44q50 0 68 -30t18 -64q0 -23 -26 -39.5
t-63 -16.5h-131q27 62 62 106zM73 1799v86h-169v-86q0 -69 33.5 -139t90.5 -116t123 -46h227q71 0 130.5 30t93.5 81.5t34 114.5q0 75 -33 135.5t-91 94.5t-132 34q-105 0 -176 -76.5t-113 -176.5q-18 32 -18 64z" />
    <glyph glyph-name="uE111" unicode="&#xe111;" horiz-adv-x="1300" 
d="M484 451v843h-318v-843h318zM166 340v-340h537q117 0 216 57.5t157 156.5t58 216v1024h-319v-1003q0 -46 -32.5 -78.5t-79.5 -32.5h-537zM78 1445l553 220l-63 157l-553 -218zM-30 1748l553 220l-63 157l-553 -218z" />
    <glyph glyph-name="uE112" unicode="&#xe112;" horiz-adv-x="1309" 
d="M1310 340h-65q-46 0 -78.5 32.5t-32.5 78.5v1003h-319v-1003q0 -46 -32.5 -78.5t-79.5 -32.5h-537v-340h537q89 0 154.5 34.5t117.5 99.5q51 -65 116.5 -99.5t153.5 -34.5h65v340zM484 451v843h-318v-843h318zM78 1445l553 220l-63 157l-553 -218zM-30 1748l553 220
l-63 157l-553 -218z" />
    <glyph glyph-name="uE113" unicode="&#xe113;" horiz-adv-x="1299" 
d="M484 451v843h-318v-843h318zM166 340v-340h537q117 0 216 57.5t157 156.5t58 216v1024h-319v-1003q0 -46 -32.5 -78.5t-79.5 -32.5h-537zM1370 2060l-215 6l-180 -208l-181 208l-214 -6l331 -387h128z" />
    <glyph glyph-name="uE114" unicode="&#xe114;" horiz-adv-x="1309" 
d="M1310 340h-65q-46 0 -78.5 32.5t-32.5 78.5v1003h-319v-1003q0 -46 -32.5 -78.5t-79.5 -32.5h-537v-340h537q89 0 154.5 34.5t117.5 99.5q51 -65 116.5 -99.5t153.5 -34.5h65v340zM484 451v843h-318v-843h318zM1370 2060l-215 6l-180 -208l-181 208l-214 -6l331 -387h128
z" />
    <glyph glyph-name="uE124" unicode="&#xe124;" horiz-adv-x="1301" 
d="M484 451v843h-318v-843h318zM166 340v-340h537q117 0 216 57.5t157 156.5t58 216v1024h-319v-1003q0 -46 -32.5 -78.5t-79.5 -32.5h-537zM319 1774q35 44 72 44q50 0 68 -30t18 -64q0 -23 -26 -39.5t-63 -16.5h-131q27 62 62 106zM83 1799v86h-169v-86q0 -69 33.5 -139
t90.5 -116t123 -46h227q71 0 130.5 30t93.5 81.5t34 114.5q0 75 -33 135.5t-91 94.5t-132 34q-105 0 -176 -76.5t-113 -176.5q-18 32 -18 64zM1370 2060l-214 5l-181 -207l-181 207l-214 -5l331 -387h128z" />
    <glyph glyph-name="uE125" unicode="&#xe125;" horiz-adv-x="1310" 
d="M1310 340h-65q-46 0 -78.5 32.5t-32.5 78.5v1003h-319v-1003q0 -46 -32.5 -78.5t-79.5 -32.5h-537v-340h537q89 0 154.5 34.5t117.5 99.5q51 -65 116.5 -99.5t153.5 -34.5h65v340zM484 451v843h-318v-843h318zM319 1774q35 44 72 44q50 0 68 -30t18 -64q0 -23 -26 -39.5
t-63 -16.5h-131q27 62 62 106zM83 1799v86h-169v-86q0 -69 33.5 -139t90.5 -116t123 -46h227q71 0 130.5 30t93.5 81.5t34 114.5q0 75 -33 135.5t-91 94.5t-132 34q-105 0 -176 -76.5t-113 -176.5q-18 32 -18 64zM1370 2060l-214 5l-181 -207l-181 207l-214 -5l331 -387h128
z" />
    <glyph glyph-name="uE126" unicode="&#xe126;" horiz-adv-x="1300" 
d="M484 451v843h-318v-843h318zM166 340v-340h537q117 0 216 57.5t157 156.5t58 216v1024h-319v-1003q0 -46 -32.5 -78.5t-79.5 -32.5h-537zM88 1445l553 220l-63 157l-553 -218zM-20 1748l553 220l-63 157l-553 -218zM1370 2060l-214 5l-181 -207l-181 207l-214 -5
l331 -387h128z" />
    <glyph glyph-name="uniE127" unicode="&#xe127;" horiz-adv-x="0" 
d="M309 1608l-64 167l-595 -217l1 -186z" />
    <glyph glyph-name="uE128" unicode="&#xe128;" horiz-adv-x="1309" 
d="M1310 340h-65q-46 0 -78.5 32.5t-32.5 78.5v1003h-319v-1003q0 -46 -32.5 -78.5t-79.5 -32.5h-537v-340h537q89 0 154.5 34.5t117.5 99.5q51 -65 116.5 -99.5t153.5 -34.5h65v340zM484 451v843h-318v-843h318zM88 1445l553 220l-63 157l-553 -218zM-20 1748l553 220
l-63 157l-553 -218zM1370 2060l-214 5l-181 -207l-181 207l-214 -5l331 -387h128z" />
    <glyph glyph-name="uE130" unicode="&#xe130;" horiz-adv-x="0" 
d="M-130 -249h260v249h-260v-249z" />
    <glyph glyph-name="uE1A0" unicode="&#xe1a0;" 
d="M1260 164q165 186 165 542q0 375 -161.5 562.5t-513.5 185.5q-238 0 -386.5 -84t-218.5 -249.5t-70 -414.5q0 -356 165 -542t510 -186t510 186zM538 411.5q-66 101.5 -66 294.5q0 103 14 180t47 129.5t86.5 79.5t130.5 27t130.5 -27t86.5 -79.5t47 -129.5t14 -180
q0 -193 -66 -294.5t-212 -101.5t-212 101.5z" />
    <glyph glyph-name="uE1A1" unicode="&#xe1a1;" 
d="M1063 0v1454l-626 -91v-325l236 37v-1075h390z" />
    <glyph glyph-name="uE1A2" unicode="&#xe1a2;" 
d="M1265 0v298h-510q25 52 70 100t118 113q17 16 33 28q18 15 27 26q132 114 191 212t59 239q0 206 -133 322t-390 116q-124 0 -242.5 -21t-205.5 -58v-326q176 73 353 73q110 0 165.5 -46t55.5 -126q0 -77 -53.5 -148.5t-155.5 -157.5q-33 -30 -58 -52
q-124 -108 -210.5 -203.5t-143.5 -208.5v-180h1030z" />
    <glyph glyph-name="uE1A3" unicode="&#xe1a3;" 
d="M1116.5 88.5q162.5 110.5 162.5 328.5q0 118 -51.5 193t-141.5 112q80 49 123 134.5t43 188.5q0 180 -150 294.5t-419 114.5q-118 0 -237 -21.5t-203 -55.5v-297q176 79 367 79q126 0 185.5 -39t59.5 -111q0 -79 -48 -120t-152 -41h-197l-27 -252h239q103 0 157.5 -38
t54.5 -114q0 -91 -64.5 -131t-198.5 -40q-98 0 -203 19.5t-195 59.5v-298q79 -30 220 -53t239 -23q274 0 436.5 110.5z" />
    <glyph glyph-name="uE1A4" unicode="&#xe1a4;" 
d="M1209 0v278h133v314h-133v840h-337l-714 -898v-256h662v-278h389zM888 1010v-434h-356z" />
    <glyph glyph-name="uE1A5" unicode="&#xe1a5;" 
d="M1118.5 105q149.5 127 149.5 347q0 228 -127.5 338.5t-377.5 108.5h-176l16 235h548l26 298h-908l-37 -621v-171h428q117 0 164.5 -41t47.5 -133t-62.5 -141t-189.5 -49q-81 0 -193.5 22t-188.5 54v-299q82 -36 211 -55.5t232 -19.5q288 0 437.5 127z" />
    <glyph glyph-name="uE1A6" unicode="&#xe1a6;" 
d="M1196 111.5q143 133.5 143 365.5q0 234 -122.5 352.5t-380.5 118.5q-80 0 -165.5 -22t-146.5 -62v55q0 105 90 178.5t247 73.5q199 0 338 -61v286q-79 32 -169 45t-211 13q-303 0 -480.5 -173.5t-177.5 -443.5v-283q0 -288 148 -432t444 -144q300 0 443 133.5zM581 306
q-57 57 -57 182v116q55 35 116.5 54.5t119.5 19.5q124 0 178 -53.5t54 -161.5q0 -102 -60 -158t-176 -56q-118 0 -175 57z" />
    <glyph glyph-name="uE1A7" unicode="&#xe1a7;" 
d="M753 0l511 1207v225h-1028v-299h592l-479 -1133h404z" />
    <glyph glyph-name="uE1A8" unicode="&#xe1a8;" 
d="M1213 86.5q149 108.5 149 325.5q0 109 -51 189.5t-152 127.5q84 45 125.5 124t41.5 169q0 136 -59 232t-185.5 148t-333.5 52q-294 0 -434 -113t-140 -319q0 -86 40.5 -161.5t122.5 -118.5q-93 -43 -146 -132.5t-53 -197.5q0 -217 150.5 -325.5t459.5 -108.5
q316 0 465 108.5zM674 857q-131 24 -131 157q0 83 52 126t153 43q105 0 157 -44t52 -125q0 -72 -37 -116t-116 -66zM507 432q0 81 42 124.5t120 62.5l155 -32q91 -18 130 -57t39 -110q0 -84 -60.5 -127.5t-184.5 -43.5q-241 0 -241 183z" />
    <glyph glyph-name="uE1A9" unicode="&#xe1a9;" 
d="M1165 154q174 176 174 441v283q0 294 -140.5 435t-448.5 141q-296 0 -442.5 -135t-146.5 -368q0 -234 124.5 -352t380.5 -118q164 0 310 84v-53q0 -105 -86 -178t-247 -73q-202 0 -339 56v-286q80 -28 170.5 -40.5t209.5 -12.5q307 0 481 176zM566 801.5
q-57 51.5 -58 163.5q0 104 61 161t179 57q120 0 174 -57t54 -182v-120q-54 -35 -112.5 -54.5t-121.5 -19.5q-119 0 -176 51.5z" />
    <glyph glyph-name="uE1B0" unicode="&#xe1b0;" 
d="M384.5 318q56.5 -97 153.5 -153.5t212 -56.5q116 0 212.5 56.5t153 153.5t56.5 213q0 115 -56.5 211.5t-153 153t-212.5 56.5q-115 0 -212 -56.5t-153.5 -153t-56.5 -211.5q0 -116 56.5 -213zM666.5 615q36.5 35 89.5 35q45 0 79.5 -35.5t34.5 -83.5q0 -50 -35.5 -85.5
t-84.5 -35.5t-84.5 35.5t-35.5 85.5q0 49 36.5 84z" />
    <glyph glyph-name="uE1B1" unicode="&#xe1b1;" 
d="M960 671q0 133 -14.5 290.5t-43.5 277.5l-37 163l-325 -76l38 -162q23 -100 36 -244t13 -249v-671h333v671z" />
    <glyph glyph-name="uE1B2" unicode="&#xe1b2;" 
d="M642 1239l-38 163l-325 -76l38 -162q24 -100 37 -244t13 -249v-671h333v593v25q41 -44 142 -31q167 24 269 129.5t109 262.5q3 83 -6 150.5t-38 218.5q-6 36 -10 56l-327 -63q5 -27 13 -72q24 -123 30.5 -172t4.5 -106q-1 -63 -88 -72q-46 -6 -77 12.5t-39 48.5
q-15 150 -41 259z" />
    <glyph glyph-name="uE1B3" unicode="&#xe1b3;" 
d="M1366.5 720.5q102.5 105.5 109.5 262.5q3 82 -5.5 149.5t-37.5 217.5q-7 37 -11 57l-328 -61q4 -26 13 -70q25 -130 31.5 -177.5t4.5 -104.5q-1 -61 -87 -72q-28 -3 -51.5 4.5t-52.5 32.5q1 10 1 20q3 83 -6 150.5t-38 218.5q-6 36 -10 56l-327 -63q5 -27 13 -72
q24 -123 30.5 -172t4.5 -106q-1 -63 -87 -72q-46 -6 -72 12t-34 48q-15 151 -41 260l-38 163l-325 -76l38 -162q24 -100 36.5 -244t12.5 -249v-671h334v606v6q40 -37 131 -25q124 17 217 85q66 -40 146.5 -65.5t158.5 -15.5q167 24 269.5 129.5z" />
    <glyph glyph-name="uE1B4" unicode="&#xe1b4;" 
d="M494 1239l-37 163l-326 -76l39 -162q23 -100 36 -239t13 -254v-671h333v622v14q35 -28 94.5 -51.5t159.5 -38.5t242 -15q93 0 159.5 17.5t161.5 57.5l-54 317q-117 -35 -170.5 -47.5t-94.5 -11.5q-56 2 -88 25t-28 86q2 50 30 81t80 35q20 2 55 -5t128 -31l74 309
q-57 23 -125.5 42.5t-112.5 20.5q-119 4 -219.5 -52t-161 -160.5t-62.5 -239.5q0 -17 3 -36q-32 19 -60.5 64t-39.5 78q-13 89 -29 158z" />
    <glyph glyph-name="uE1B5" unicode="&#xe1b5;" 
d="M658 1477q45 -37 136 -111q157 -127 249 -208.5t182 -194t140 -240t50 -277.5q0 -122 -58.5 -227t-157.5 -167.5t-213 -62.5q-96 0 -152 27.5t-90 79.5q-42 -53 -101 -80t-145 -27q-116 0 -210.5 61t-148.5 165.5t-54 230.5q0 209 126.5 392t321.5 310q-44 37 -80 66z
M1028.5 339q22.5 16 38 44t15.5 63q0 96 -36 178.5t-101.5 158t-170.5 166.5q-158 -121 -257 -248.5t-99 -254.5q0 -62 25.5 -92.5t54.5 -30.5q48 0 79.5 19t31.5 86v168h291v-105v-69q16 -60 37 -79.5t49 -19.5q20 0 42.5 16z" />
    <glyph glyph-name="uE1B6" unicode="&#xe1b6;" 
d="M858.5 872.5q-81.5 -20.5 -138.5 -18.5q-54 1 -87.5 29t-30.5 91q3 51 31 82t79 35q26 2 82 -6t134 -30l74 309q-50 20 -137 41t-133 22q-119 4 -219.5 -52t-161 -161t-62.5 -240q-2 -125 47 -215t132.5 -136.5t181.5 -47.5q5 0 9 1q-131 -181 -264 -459l291 -139
q125 265 245 424t280 292l-209 245q-62 -46 -143.5 -66.5z" />
    <glyph glyph-name="uE1B7" unicode="&#xe1b7;" 
d="M1043 519.5q-123 -374.5 -125 -518.5l-339 -1q0 146 -122.5 519.5t-316.5 741.5l274 177q74 -136 126.5 -253t105 -282t104.5 -400q52 235 104 400t105 282t127 253l274 -177q-194 -367 -317 -741.5z" />
    <glyph glyph-name="uE1B8" unicode="&#xe1b8;" 
d="M1043 882q-123 375 -125 519l-339 1q0 -146 -122.5 -520.5t-316.5 -741.5l274 -176q74 135 126.5 252t105 282.5t104.5 399.5q52 -234 104 -399.5t105 -283t127 -251.5l274 176q-194 367 -317 742z" />
    <glyph glyph-name="uE1B9" unicode="&#xe1b9;" 
d="M882 866q-21 -11 -52 -17t-79 -12q-7 -1 -10 -2q-48 -7 -85 26t-37 92q0 54 39.5 94.5t93.5 40.5q41 0 70.5 -26.5t44.5 -65.5t15 -76v-54zM882 0h333v920q0 126 -57 241.5t-162.5 188t-243.5 72.5q-124 0 -231.5 -64t-171.5 -171.5t-64 -231.5q-1 -137 68.5 -247
t185.5 -165.5t246 -39.5q10 2 31 5q44 7 66 12v-520z" />
    <glyph glyph-name="uE1C0" unicode="&#xe1c0;" 
d="M750 275l263 263l-263 263l-263 -263z" />
    <glyph glyph-name="uE1C1" unicode="&#xe1c1;" 
d="M960 671q0 133 -14.5 290.5t-43.5 277.5l-37 163l-325 -76l38 -162q23 -100 36 -244t13 -249v-671h333v671z" />
    <glyph glyph-name="uE1C2" unicode="&#xe1c2;" 
d="M642 1239l-37 163l-325 -76l38 -162q23 -100 36 -244t13 -249v-671h333v593v25q41 -44 143 -31q166 24 268 129.5t110 262.5q2 83 -6.5 150.5t-37.5 218.5q-7 36 -11 56l-327 -63q5 -27 14 -72q23 -123 29.5 -172t5.5 -106q-2 -63 -88 -72q-47 -6 -77.5 12.5t-38.5 48.5
q-16 150 -42 259z" />
    <glyph glyph-name="uE1C3" unicode="&#xe1c3;" 
d="M1366 720.5q102 105.5 110 262.5q3 82 -6 149.5t-37 217.5q-8 37 -11 57l-329 -61q5 -26 14 -70q25 -130 31.5 -177.5t4.5 -104.5q-2 -61 -87 -72q-29 -3 -52.5 4.5t-51.5 32.5q1 10 1 20q3 83 -6 150.5t-38 218.5q-7 36 -10 56l-328 -63q5 -27 14 -72q23 -123 30 -172
t5 -106q-2 -63 -87 -72q-46 -6 -72.5 12t-33.5 48q-16 151 -42 260l-37 163l-325 -76l38 -162q23 -100 36 -244t13 -249v-671h333v606v6q41 -37 132 -25q124 17 216 85q66 -40 147 -65.5t159 -15.5q167 24 269 129.5z" />
    <glyph glyph-name="uE1C4" unicode="&#xe1c4;" 
d="M491 733q92 -83 288 -45q13 0 34.5 -16.5t58.5 -50.5q41 -38 65.5 -56t39.5 -15l157 31l-63 312l-157 -31q-59 -11 -100 -4t-58 23q-19 16 -11 56q19 103 85 135.5t116 32.5q52 0 150 -21l11 319q-63 21 -161 21q-109 0 -216.5 -45.5t-188 -140.5t-108.5 -236
q-34 -186 58 -269zM1166 319h-421q-34 0 -59.5 21t-31.5 55q-6 36 15.5 67.5t57.5 37.5l407 81l-63 312l-406 -81q-95 -18 -170.5 -76.5t-118 -143.5t-42.5 -182q0 -111 55.5 -205.5t150 -149.5t205.5 -55h421v319z" />
    <glyph glyph-name="uE1C5" unicode="&#xe1c5;" 
d="M1163.5 113.5q167.5 123.5 167.5 457.5q0 208 -64.5 396t-196 306.5t-320.5 118.5t-320.5 -118.5t-196 -306.5t-64.5 -396q0 -334 167.5 -457.5t382.5 -123.5h62q215 0 382.5 123.5zM894.5 995.5q59.5 -78.5 89 -195t29.5 -229.5q0 -75 -12 -125t-38.5 -80t-70.5 -44
t-111 -14h-62q-88 0 -138.5 25t-72 81.5t-21.5 156.5q0 113 29.5 229.5t89 195t144.5 78.5t144.5 -78.5z" />
    <glyph glyph-name="uE1C6" unicode="&#xe1c6;" 
d="M1292 124q-150 242 -189 516.5t109 543.5l-187 230q-181 -56 -300.5 -70t-192.5 -1.5t-170 44.5l-42 15l-112 -289q11 -4 32 -12q113 -41 182.5 -59t165 -20t238.5 18q-50 -231 -39.5 -415.5t68.5 -338t164 -328.5z" />
    <glyph glyph-name="uE1C7" unicode="&#xe1c7;" 
d="M1043 519.5q-123 -374.5 -126 -518.5l-338 -1q-1 146 -123 519.5t-316 741.5l274 177q74 -136 126.5 -253t105 -282t104.5 -400q52 235 104 400t104.5 282t126.5 253l275 -177q-194 -367 -317 -741.5z" />
    <glyph glyph-name="uE1C8" unicode="&#xe1c8;" 
d="M1043 882q-123 375 -126 519l-338 1q-1 -146 -123 -520.5t-316 -741.5l274 -176q74 135 126.5 252t105 282.5t104.5 399.5q52 -234 104 -399.5t105 -283t126 -251.5l275 176q-194 367 -317 742z" />
    <glyph glyph-name="uE1C9" unicode="&#xe1c9;" 
d="M882 866q-22 -12 -52.5 -18t-78.5 -12q-7 -1 -10 -1q-48 -7 -85 26t-37 92q0 54 39.5 94.5t92.5 40.5q42 0 71.5 -26.5t44.5 -65.5t15 -77v-53zM882 0h333v919q0 126 -57 242t-162.5 188t-244.5 72q-123 0 -230.5 -63.5t-171.5 -171t-64 -231.5q-1 -138 68.5 -247.5
t185 -165.5t246.5 -39q10 2 31 5q44 7 66 12v-520z" />
    <glyph glyph-name="uE1D0" unicode="&#xe1d0;" 
d="M688 82l-252 914q-5 18 4.5 35.5t27.5 24.5q19 7 38.5 -1.5t25.5 -27.5l158 -435l287 -27l407 676l-274 163l-233 -389l-46 120q-34 94 -109.5 156.5t-171 80.5t-189.5 -15q-88 -32 -150 -102t-84.5 -160.5t2.5 -180.5l251 -914z" />
    <glyph glyph-name="uE1D1" unicode="&#xe1d1;" 
d="M763 20.5q187 9.5 361 68.5l151 49l-101 303l-151 -50q-255 -83 -477 -38q39 231 176 445.5t250 346.5q4 5 4 6l-235 214l-3 -3q-133 -152 -304 -425t-209 -582l184 -297q167 -47 354 -37.5z" />
    <glyph glyph-name="uE1D2" unicode="&#xe1d2;" 
d="M544 862.5q88 90.5 88 235.5q0 167 -87 261.5t-248 94.5q-162 0 -248.5 -94.5t-86.5 -261.5q0 -145 87.5 -235.5t247.5 -90.5q159 0 247 90.5zM557 0l751 1432h-368l-750 -1432h367zM167 1106q0 77 32.5 114t97.5 37q64 0 96.5 -37t32.5 -114q0 -68 -32 -102t-97 -34
q-130 0 -130 136zM1450.5 68q87.5 90 87.5 236q0 167 -86.5 261.5t-248.5 94.5q-161 0 -248 -94.5t-87 -261.5q0 -146 88 -236t247 -90q160 0 247.5 90zM1074 312q0 76 32.5 113t96.5 37q65 0 97.5 -37t32.5 -113q0 -68 -32.5 -102.5t-97.5 -34.5q-129 0 -129 137z" />
    <glyph glyph-name="uE1D3" unicode="&#xe1d3;" 
d="M750 866l154 -210l221 161l-178 181l232 97l-114 233l-184 -99l13 203h-288l13 -203l-184 99l-114 -233l231 -96l-177 -182l221 -161z" />
    <glyph glyph-name="uE1D4" unicode="&#xe1d4;" 
d="M900 202v274h302v299h-302v279h-301v-279h-301v-299h301v-274h301z" />
    <glyph glyph-name="uE1D5" unicode="&#xe1d5;" 
d="M904 0v281h-308v-281h308z" />
    <glyph glyph-name="uE1D6" unicode="&#xe1d6;" 
d="M1189 689v268h-878v-268h878zM1189 287v269h-878v-269h878z" />
    <glyph glyph-name="uE1D7" unicode="&#xe1d7;" 
d="M660 78l65 209h464v269h-387l42 133h345v268h-270l63 201h-167l-63 -201h-441v-268h366l-42 -133h-324v-269h247l-65 -209h167z" />
    <glyph glyph-name="uE1D8" unicode="&#xe1d8;" 
d="M900 387v274h302v299h-302v278h-301v-278h-301v-299h301v-274h301zM1202 0v298h-904v-298h904z" />
    <glyph glyph-name="uE1D9" unicode="&#xe1d9;" 
d="M1159 336l-221 221l221 221l-189 189l-223 -219l-216 222l-190 -189l221 -221l-213 -212l191 -189l213 212l220 -221z" />
    <glyph glyph-name="uE1E0" unicode="&#xe1e0;" 
d="M877 915v242h-256v-242h256zM1186 476v299h-872v-299h872zM877 101v242h-256v-242h256z" />
    <glyph glyph-name="uE1E1" unicode="&#xe1e1;" 
d="M1192 1350l-218 99l-667 -1380l218 -98zM498 1316q42 -25 67 -67.5t25 -92.5t-25.5 -92.5t-67.5 -67.5t-92 -25t-92.5 25t-67 67.5t-24.5 92.5t24.5 92.5t67 67.5t92.5 25q51 0 93 -25zM1187.5 424q42.5 -25 67 -67.5t24.5 -92.5t-25 -92.5t-67 -67.5t-92 -25
q-51 0 -93 24.5t-66.5 67t-24.5 93.5q0 50 24.5 92.5t66.5 67.5t93 25q50 0 92.5 -25z" />
    <glyph glyph-name="uE1E2" unicode="&#xe1e2;" 
d="M765 -270q79 42 122.5 124t43.5 187v240h-213v-240q0 -35 -11.5 -71t-43.5 -53l-94 -51l103 -187z" />
    <glyph glyph-name="uE1E3" unicode="&#xe1e3;" 
d="M1038 412l-193 87l-383 -842l194 -88z" />
    <glyph glyph-name="uE1E4" unicode="&#xe1e4;" 
d="M1186 476v298h-872v-298h872z" />
    <glyph glyph-name="uniFBB2" unicode="&#xfbb2;" horiz-adv-x="0" 
d="M106 236q-44 44 -106 44t-106 -44t-44 -106t44 -106t106 -44t106 44t44 106t-44 106z" />
    <glyph glyph-name="uniFBB3" unicode="&#xfbb3;" horiz-adv-x="0" 
d="M106 -24q-44 44 -106 44t-106 -44t-44 -106t44 -106t106 -44t106 44t44 106t-44 106z" />
    <glyph glyph-name="uniFBB4" unicode="&#xfbb4;" horiz-adv-x="0" 
d="M-74 236q-44 44 -106 44t-106 -44t-44 -106t44 -106t106 -44t106 44t44 106t-44 106zM286 236q-44 44 -106 44t-106 -44t-44 -106t44 -106t106 -44t106 44t44 106t-44 106z" />
    <glyph glyph-name="uniFBB5" unicode="&#xfbb5;" horiz-adv-x="0" 
d="M-74 -24q-44 44 -106 44t-106 -44t-44 -106t44 -106t106 -44t106 44t44 106t-44 106zM286 -24q-44 44 -106 44t-106 -44t-44 -106t44 -106t106 -44t106 44t44 106t-44 106z" />
    <glyph glyph-name="uniFBB6" unicode="&#xfbb6;" horiz-adv-x="0" 
d="M-74 236q-44 44 -106 44t-106 -44t-44 -106t44 -106t106 -44t106 44t44 106t-44 106zM286 236q-44 44 -106 44t-106 -44t-44 -106t44 -106t106 -44t106 44t44 106t-44 106zM106 536q-44 44 -106 44t-106 -44t-44 -106t44 -106t106 -44t106 44t44 106t-44 106z" />
    <glyph glyph-name="uniFBB9" unicode="&#xfbb9;" horiz-adv-x="0" 
d="M-74 -24q-44 44 -106 44t-106 -44t-44 -106t44 -106t106 -44t106 44t44 106t-44 106zM286 -24q-44 44 -106 44t-106 -44t-44 -106t44 -106t106 -44t106 44t44 106t-44 106zM106 -324q-44 44 -106 44t-106 -44t-44 -106t44 -106t106 -44t106 44t44 106t-44 106z" />
    <glyph glyph-name="uniFD3E" unicode="&#xfd3e;" horiz-adv-x="992" 
d="M581.5 786.5q35.5 -35.5 35.5 -85.5t-35.5 -85t-85.5 -35t-85.5 35t-35.5 85t35.5 85.5t85.5 35.5t85.5 -35.5zM437.5 134q30.5 -84 88.5 -197l61 -118l236 122l-61 118q-74 141 -117 298q101 43 163.5 136.5t62.5 207.5t-62.5 207.5t-163.5 137.5q40 146 117 298l61 118
l-236 121l-61 -118q-105 -204 -153 -408q-111 -39 -181.5 -136.5t-70.5 -219.5q0 -121 70 -218t181 -136q35 -129 65.5 -213z" />
    <glyph glyph-name="uniFD3F" unicode="&#xfd3f;" horiz-adv-x="992" 
d="M410.5 786.5q-35.5 -35.5 -35.5 -85.5t35.5 -85t85.5 -35t85.5 35t35.5 85t-35.5 85.5t-85.5 35.5t-85.5 -35.5zM554.5 134q-30.5 -84 -88.5 -197l-61 -118l-236 122l61 118q74 141 117 298q-101 43 -163.5 136.5t-62.5 207.5t62.5 207.5t163.5 137.5q-40 146 -117 298
l-61 118l236 121l61 -118q105 -204 153 -408q111 -39 181.5 -136.5t70.5 -219.5q0 -121 -70 -218t-181 -136q-35 -129 -65.5 -213z" />
    <glyph glyph-name="uni0627_alt.short" horiz-adv-x="650" 
d="M166 0h318v1294h-318v-1294z" />
    <glyph glyph-name="uni0627.fina.short" horiz-adv-x="692" 
d="M693 340h-107q-45 0 -73.5 32t-28.5 79v843h-318v-885q0 -110 49.5 -203.5t145 -149.5t225.5 -56h107v340z" />
    <glyph glyph-name="uni066E.fina" horiz-adv-x="1813" 
d="M1360.5 34.5q65.5 34.5 117.5 99.5q52 -65 117.5 -99.5t153.5 -34.5h64v340h-64q-47 0 -79.5 32.5t-32.5 78.5v302h-318v-302q0 -46 -33 -78.5t-79 -32.5h-657q-46 0 -78.5 32.5t-32.5 78.5v345h-319v-387q0 -111 58 -205t156.5 -149t215.5 -55h657q88 0 153.5 34.5z" />
    <glyph glyph-name="uni06A1.fina" horiz-adv-x="1874" 
d="M1380.5 649.5q44.5 -26.5 44.5 -84.5q0 -67 -39.5 -123.5t-98.5 -101.5q-59 45 -98.5 101.5t-39.5 123.5q0 58 44.5 84.5t93.5 26.5t93.5 -26.5zM967 0q107 0 170.5 10.5t99.5 25t50 28.5q22 -23 100 -43.5t219 -20.5h269v340h-197q31 40 48.5 99.5t17.5 125.5
q0 119 -61 217.5t-165.5 156t-230.5 57.5t-231 -57.5t-166 -156t-61 -217.5q0 -66 17.5 -125.5t48.5 -99.5h-345q-46 0 -78.5 32.5t-32.5 78.5v345h-319v-387q0 -111 58 -205t156.5 -149t215.5 -55h417z" />
    <glyph glyph-name="uni06A1.medi" horiz-adv-x="1177" 
d="M682 649.5q45 -26.5 45 -84.5q0 -119 -139 -225q-59 45 -98.5 101.5t-39.5 123.5q0 58 44.5 84.5t93.5 26.5t94 -26.5zM-57 234q-15 -64 0 -128.5t57 -105.5h270q140 0 218 20.5t100 43.5q23 -23 101 -43.5t218 -20.5h270v340h-197q31 40 48 99.5t17 125.5
q0 119 -60.5 217.5t-165.5 156t-231 57.5t-230.5 -57.5t-165 -156t-60.5 -217.5q0 -138 65 -225h-197q-42 -42 -57 -106z" />
    <glyph glyph-name="uniE014" horiz-adv-x="1758" 
d="M1142 341q-58 0 -86.5 11.5t-37 31t-8.5 53.5q0 58 27 114t105 56q76 0 104.5 -52t28.5 -118v-96h-133zM1758 340h-163l-1 97q0 142 -57.5 253t-160.5 173.5t-234 62.5q-129 0 -232 -63t-161.5 -174.5t-58.5 -251.5q0 -436 452 -436h129q0 -56 -27.5 -101.5t-76 -71
t-107.5 -25.5h-326q-98 0 -164.5 41t-98.5 108t-32 146v460h-319v-503q0 -159 75.5 -295t215 -217t323.5 -81h326q127 0 248.5 75.5t200.5 199.5t85 264h164v339z" />
    <glyph glyph-name="uni0642" horiz-adv-x="1714" 
d="M1376 863q103 -62 160.5 -173.5t57.5 -253.5v-418q0 -142 -78.5 -271t-202.5 -207t-253 -78h-326q-184 0 -324 81t-215 216.5t-75 295.5v503h318v-460q0 -79 32.5 -146.5t99 -108.5t164.5 -41h326q59 0 107.5 26t76 71t27.5 101h-129q-452 0 -452 436q0 140 58.5 251.5
t161.5 174.5t232 63q131 0 234 -62zM1275 436q0 66 -28.5 118.5t-104.5 52.5q-78 0 -105.5 -56.5t-27.5 -114.5q0 -33 9 -53t37.5 -31.5t86.5 -11.5h133v96zM1068 1326q-44 44 -106 44t-106 -44t-44 -106t44 -106t106 -44t106 44t44 106t-44 106zM1428 1326q-44 44 -106 44
t-106 -44t-44 -106t44 -106t106 -44t106 44t44 106t-44 106z" />
    <glyph glyph-name="uni06D2.2.fina" horiz-adv-x="981" 
d="M1086 -143h-536q-49 0 -80 18t-31 54t31 53.5t80 17.5h431v340h-431q-118 0 -216.5 -53.5t-156 -147.5t-57.5 -210q0 -117 57 -205.5t155.5 -136.5t217.5 -48h536v318z" />
    <glyph glyph-name="uni06D3.2.fina" horiz-adv-x="981" 
d="M1086 -143h-536q-49 0 -80 18t-31 54t31 53.5t80 17.5h431v340h-431q-118 0 -216.5 -53.5t-156 -147.5t-57.5 -210q0 -117 57 -205.5t155.5 -136.5t217.5 -48h536v318zM287 515l478 183l-60 158l-147 -56q-45 -7 -77.5 10.5t-31.5 64.5q0 30 18 56.5t51 27.5q24 0 46 -7
t53 -22q7 -3 10 -4l44 159q-46 24 -79.5 34t-73.5 10q-71 0 -125.5 -37t-84 -95.5t-29.5 -121.5q0 -43 17.5 -85t52.5 -69l-122 -47z" />
    <glyph glyph-name="uni06270644.init" horiz-adv-x="1300" 
d="M484 451v843h-318v-843h318zM166 340v-340h537q117 0 216 57.5t157 156.5t58 216v1024h-319v-1003q0 -46 -32.5 -78.5t-79.5 -32.5h-537z" />
    <glyph glyph-name="uni06270644.medi" horiz-adv-x="1309" 
d="M1310 340h-65q-46 0 -78.5 32.5t-32.5 78.5v1003h-319v-1003q0 -46 -32.5 -78.5t-79.5 -32.5h-537v-340h537q89 0 154.5 34.5t117.5 99.5q51 -65 116.5 -99.5t153.5 -34.5h65v340zM484 451v843h-318v-843h318z" />
    </font>
</defs>
</svg>
