<?xml version="1.0" standalone="no"?>
<!DOCTYPE svg PUBLIC "-//W3C//DTD SVG 1.1//EN" "http://www.w3.org/Graphics/SVG/1.1/DTD/svg11.dtd" >
<svg xmlns="http://www.w3.org/2000/svg" xmlns:xlink="http://www.w3.org/1999/xlink" version="1.1">
<metadata>
Created by FontForge 20201107 at Sat Sep 21 20:36:01 2024
 By 
Copyright 2024 The Arad Project Authors (https://github.com/MDarvishi5124/Arad)
</metadata>
<defs>
<font id="Arad-BoldDots4" horiz-adv-x="1500" >
  <font-face 
    font-family="Arad Bold Dots4"
    font-weight="700"
    font-stretch="normal"
    units-per-em="2176"
    panose-1="0 0 0 0 0 0 0 0 0 0"
    ascent="1740"
    descent="-436"
    x-height="1054"
    cap-height="1432"
    bbox="-460 -1197 3195 2473"
    underline-thickness="40"
    underline-position="-185"
    unicode-range="U+000D-FEFC"
  />
<missing-glyph horiz-adv-x="1300" 
d="M1193 0v1400h-1086v-1400h1086zM336 1171h628v-942h-628v942z" />
    <glyph glyph-name="uni0626" unicode="&#x649;&#x654;" horiz-adv-x="1625" 
d="M1407 275.5q-105 73.5 -276 74.5h-157v146q0 61 40 101t102 40h330v283h-330q-117 0 -214 -56.5t-153.5 -153.5t-56.5 -214v-427l434 -1q54 -1 78.5 -20.5t21.5 -70.5q-2 -53 -37.5 -102.5t-116.5 -82.5t-210 -33h-143q-102 0 -172 43t-104.5 114t-33.5 155v463h-282
v-500q0 -155 72.5 -286.5t207 -210t312.5 -78.5h143q242 0 385 89.5t200.5 211t60.5 234.5q4 208 -101 281.5zM141 758l470 180l-54 143l-149 -57q-51 -6 -85 16t-33 70q0 35 21 65t58 30q26 1 49.5 -7t53.5 -23q7 -3 10 -4l39 143q-43 23 -77 33.5t-75 10.5q-68 0 -121 -36
t-82 -93.5t-29 -118.5q0 -46 20.5 -89.5t59.5 -69.5l-130 -50z" />
    <glyph glyph-name="uni06C0" unicode="&#x647;&#x654;" horiz-adv-x="1105" 
d="M681 492.5q30 -61.5 30 -101.5q0 -61 -49.5 -94t-106.5 -33q-36 0 -72.5 15t-60 44t-23.5 68q0 70 50 140.5t107 123.5q95 -101 125 -162.5zM197 645.5q-80 -115.5 -80 -254.5q0 -113 59.5 -207t160 -148.5t218.5 -54.5q110 0 211.5 50t164 143.5t62.5 216.5
q0 146 -103.5 302.5t-314.5 328.5l-109 89l-178 -218l77 -62q-88 -70 -168 -185.5zM561.5 1273q97.5 38 129 91t31.5 109v163h-253v40q0 37 23.5 61t61.5 24h154v144h-154q-59 0 -112 -30.5t-85 -83t-32 -115.5v-85q-1 -37 29.5 -67.5t67.5 -30.5h156v-20q0 -38 -64 -62
t-232 -19v-153q182 -4 279.5 34z" />
    <glyph glyph-name="uniFBA70654" unicode="&#xfba7;&#x654;" horiz-adv-x="1177" 
d="M443 357q6 53 41 96t86 60l129 42l16 -177q9 -105 67 -191.5t149.5 -136.5t197.5 -50h49v300h-49q-55 0 -92 27t-42 77l-32 354l-185 121l-297 -99q-129 -44 -215 -148.5t-103 -238.5l-46 -374l279 -35zM323 1004l470 180l-54 143l-149 -57q-51 -6 -85 16t-33 70
q0 35 21 65t58 30q26 1 49.5 -7t53.5 -23q7 -3 10 -4l39 143q-43 23 -77 33.5t-75 10.5q-68 0 -121 -36t-82 -93.5t-29 -118.5q0 -46 20.5 -89.5t59.5 -69.5l-130 -50z" />
    <glyph glyph-name="uE115" unicode="&#xe091;&#xfe8e;" horiz-adv-x="1276" 
d="M452 429v1019h-281v-1019h281zM171 300v-300h519q113 0 208.5 56t151.5 151t56 208v1033h-282v-1014q0 -56 -39 -95t-95 -39h-519zM1343 2057l-193 5l-185 -211l-184 211l-193 -5l320 -373h115z" />
    <glyph glyph-name="uE116" unicode="&#xe092;&#xfe8e;" horiz-adv-x="1299" 
d="M171 300v-300h519q172 0 275 144q102 -144 275 -144h60v300h-60q-56 0 -95 39t-39 95v1014h-282v-1014q0 -56 -39 -95t-95 -39h-519zM452 429v1019h-281v-1019h281zM1343 2057l-193 5l-185 -211l-184 211l-193 -5l320 -373h115z" />
    <glyph glyph-name="uE117" unicode="&#xe091;&#xfe82;" horiz-adv-x="1278" 
d="M452 429v855h-281v-855h281zM171 300v-300h519q113 0 208.5 56t151.5 151t56 208v1033h-282v-1014q0 -56 -39 -95t-95 -39h-519zM71 1470q15 36 46.5 57t69.5 21h471v189h-471q-97 1 -176.5 -53t-115.5 -144l-69 -173l177 -70zM1343 2058l-193 5l-184 -212l-184 212
l-193 -5l320 -373h114z" />
    <glyph glyph-name="uE118" unicode="&#xe092;&#xfe82;" horiz-adv-x="1300" 
d="M1300 300h-60q-56 0 -95 39t-39 95v1014h-282v-1014q0 -56 -39 -95t-95 -39h-519v-300h519q172 0 275 144q102 -144 275 -144h60v300zM452 429v855h-281v-855h281zM71 1470q15 36 46.5 57t69.5 21h471v189h-471q-97 1 -176.5 -53t-115.5 -144l-69 -173l177 -70z
M1343 2058l-193 5l-184 -212l-184 212l-193 -5l320 -373h114z" />
    <glyph glyph-name="uE120" unicode="&#xe091;&#x675;" horiz-adv-x="1277" 
d="M452 429v855h-281v-855h281zM171 300v-300h519q113 0 208.5 56t151.5 151t56 208v1033h-282v-1014q0 -56 -39 -95t-95 -39h-519zM88 1475l470 180l-54 143l-149 -57q-51 -6 -85 16t-33 70q0 35 21 65t58 30q26 1 49.5 -7t53.5 -23q7 -3 10 -4l39 143q-43 23 -77 33.5
t-75 10.5q-68 0 -121 -36t-82 -93.5t-29 -118.5q0 -46 20.5 -89.5t59.5 -69.5l-130 -50zM1342 2058l-193 5l-184 -212l-184 212l-193 -5l320 -373h114z" />
    <glyph glyph-name="uE121" unicode="&#xe092;&#x675;" horiz-adv-x="1299" 
d="M1300 300h-60q-56 0 -95 39t-39 95v1014h-282v-1014q0 -56 -39 -95t-95 -39h-519v-300h519q172 0 275 144q102 -144 275 -144h60v300zM452 429v855h-281v-855h281zM88 1475l470 180l-54 143l-149 -57q-51 -6 -85 16t-33 70q0 35 21 65t58 30q26 1 49.5 -7t53.5 -23
q7 -3 10 -4l39 143q-43 23 -77 33.5t-75 10.5q-68 0 -121 -36t-82 -93.5t-29 -118.5q0 -46 20.5 -89.5t59.5 -69.5l-130 -50zM1342 2058l-193 5l-184 -212l-184 212l-193 -5l320 -373h114z" />
    <glyph glyph-name="uE122" unicode="&#xe091;&#xfe88;" horiz-adv-x="1277" 
d="M452 429v1019h-281v-1019h281zM171 300v-300h519q113 0 208.5 56t151.5 151t56 208v1033h-282v-1014q0 -56 -39 -95t-95 -39h-519zM142 -818l470 180l-54 143l-149 -57q-51 -6 -85 16t-33 70q0 35 21 65t58 30q26 1 49.5 -7t53.5 -23q7 -3 10 -4l39 143q-43 23 -77 33.5
t-75 10.5q-68 0 -121 -36t-82 -93.5t-29 -118.5q0 -46 20.5 -89.5t59.5 -69.5l-130 -50zM1343 2058l-193 5l-184 -212l-184 212l-193 -5l320 -373h114z" />
    <glyph glyph-name="uE123" unicode="&#xe092;&#xfe88;" horiz-adv-x="1300" 
d="M171 300v-300h519q172 0 275 144q102 -144 275 -144h60v300h-60q-56 0 -95 39t-39 95v1014h-282v-1014q0 -56 -39 -95t-95 -39h-519zM452 429v1019h-281v-1019h281zM141 -818l470 180l-54 143l-149 -57q-51 -6 -85 16t-33 70q0 35 21 65t58 30q26 1 49.5 -7t53.5 -23
q7 -3 10 -4l39 143q-43 23 -77 33.5t-75 10.5q-68 0 -121 -36t-82 -93.5t-29 -118.5q0 -46 20.5 -89.5t59.5 -69.5l-130 -50zM1343 2058l-193 5l-184 -212l-184 212l-193 -5l320 -373h114z" />
    <glyph glyph-name="uniFBA5" unicode="&#xfeea;&#x654;" horiz-adv-x="1213" arabic-form="final" 
d="M947.5 48q77.5 -48 172.5 -48h93v300h-95q-39 0 -69.5 26t-35.5 65l-107 731l-279 -40l15 -104q-168 -15 -291.5 -90.5t-186 -198t-51.5 -275.5q8 -112 73 -192t168.5 -114t226 -13.5t239.5 100.5q50 -99 127.5 -147zM723 417q-83 -54 -158 -63t-121.5 16.5t-49.5 65.5
q-9 121 69.5 188t218.5 74zM589.5 1270q97.5 38 129 91t31.5 109v163h-253v40q0 37 23.5 61t61.5 24h154v144h-154q-59 0 -112 -30.5t-85 -83t-32 -115.5v-85q-1 -37 29.5 -67.5t67.5 -30.5h156v-20q0 -38 -64 -62t-232 -19v-153q182 -4 279.5 34z" />
    <glyph glyph-name="uniFE8A" unicode="&#xfbfd;&#x654;" horiz-adv-x="1720" arabic-form="final" 
d="M1720 300h-973v-281h381q49 -1 69.5 -27t20.5 -67q-3 -73 -76 -119.5t-191 -46.5h-241q-150 0 -226 86.5t-75 217.5v471h-282v-509q0 -155 70 -284t202.5 -205.5t310.5 -76.5h241q175 0 297.5 71t182.5 177t60 211q0 48 -14 82h243v300zM141 758l470 180l-54 143
l-149 -57q-51 -6 -85 16t-33 70q0 35 21 65t58 30q26 1 49.5 -7t53.5 -23q7 -3 10 -4l39 143q-43 23 -77 33.5t-75 10.5q-68 0 -121 -36t-82 -93.5t-29 -118.5q0 -46 20.5 -89.5t59.5 -69.5l-130 -50z" />
    <glyph glyph-name="uniFEF5" unicode="&#xfedf;&#xfe82;" horiz-adv-x="1277" arabic-form="isolated" 
d="M452 429v855h-281v-855h281zM171 300v-300h519q113 0 208.5 56t151.5 151t56 208v1033h-282v-1014q0 -56 -39 -95t-95 -39h-519zM71 1470q15 36 46.5 57t69.5 21h471v189h-471q-97 1 -176.5 -53t-115.5 -144l-69 -173l177 -70z" />
    <glyph glyph-name="uniFEF6" unicode="&#xfee0;&#xfe82;" horiz-adv-x="1300" arabic-form="final" 
d="M1300 300h-60q-56 0 -95 39t-39 95v1014h-282v-1014q0 -56 -39 -95t-95 -39h-519v-300h519q172 0 275 144q102 -144 275 -144h60v300zM452 429v855h-281v-855h281zM71 1470q15 36 46.5 57t69.5 21h471v189h-471q-97 1 -176.5 -53t-115.5 -144l-69 -173l177 -70z" />
    <glyph glyph-name="uniFEF7" unicode="&#xfedf;&#x675;" horiz-adv-x="1277" arabic-form="isolated" 
d="M452 429v855h-281v-855h281zM171 300v-300h519q113 0 208.5 56t151.5 151t56 208v1033h-282v-1014q0 -56 -39 -95t-95 -39h-519zM88 1475l470 180l-54 143l-149 -57q-51 -6 -85 16t-33 70q0 35 21 65t58 30q26 1 49.5 -7t53.5 -23q7 -3 10 -4l39 143q-43 23 -77 33.5
t-75 10.5q-68 0 -121 -36t-82 -93.5t-29 -118.5q0 -46 20.5 -89.5t59.5 -69.5l-130 -50z" />
    <glyph glyph-name="uniFEF8" unicode="&#xfee0;&#x675;" horiz-adv-x="1300" arabic-form="final" 
d="M1300 300h-60q-56 0 -95 39t-39 95v1014h-282v-1014q0 -56 -39 -95t-95 -39h-519v-300h519q172 0 275 144q102 -144 275 -144h60v300zM452 429v855h-281v-855h281zM88 1475l470 180l-54 143l-149 -57q-51 -6 -85 16t-33 70q0 35 21 65t58 30q26 1 49.5 -7t53.5 -23
q7 -3 10 -4l39 143q-43 23 -77 33.5t-75 10.5q-68 0 -121 -36t-82 -93.5t-29 -118.5q0 -46 20.5 -89.5t59.5 -69.5l-130 -50z" />
    <glyph glyph-name="uniFEF9" unicode="&#xfedf;&#xfe88;" horiz-adv-x="1277" arabic-form="isolated" 
d="M452 429v1019h-281v-1019h281zM171 300v-300h519q113 0 208.5 56t151.5 151t56 208v1033h-282v-1014q0 -56 -39 -95t-95 -39h-519zM142 -818l470 180l-54 143l-149 -57q-51 -6 -85 16t-33 70q0 35 21 65t58 30q26 1 49.5 -7t53.5 -23q7 -3 10 -4l39 143q-43 23 -77 33.5
t-75 10.5q-68 0 -121 -36t-82 -93.5t-29 -118.5q0 -46 20.5 -89.5t59.5 -69.5l-130 -50z" />
    <glyph glyph-name="uniFEFA" unicode="&#xfee0;&#xfe88;" horiz-adv-x="1300" arabic-form="final" 
d="M171 300v-300h519q172 0 275 144q102 -144 275 -144h60v300h-60q-56 0 -95 39t-39 95v1014h-282v-1014q0 -56 -39 -95t-95 -39h-519zM452 429v1019h-281v-1019h281zM141 -818l470 180l-54 143l-149 -57q-51 -6 -85 16t-33 70q0 35 21 65t58 30q26 1 49.5 -7t53.5 -23
q7 -3 10 -4l39 143q-43 23 -77 33.5t-75 10.5q-68 0 -121 -36t-82 -93.5t-29 -118.5q0 -46 20.5 -89.5t59.5 -69.5l-130 -50z" />
    <glyph glyph-name="uniFEFB" unicode="&#xfedf;&#xfe8e;" horiz-adv-x="1277" arabic-form="isolated" 
d="M452 429v1019h-281v-1019h281zM171 300v-300h519q113 0 208.5 56t151.5 151t56 208v1033h-282v-1014q0 -56 -39 -95t-95 -39h-519z" />
    <glyph glyph-name="uniFEFC" unicode="&#xfee0;&#xfe8e;" horiz-adv-x="1299" arabic-form="final" 
d="M171 300v-300h519q172 0 275 144q102 -144 275 -144h60v300h-60q-56 0 -95 39t-39 95v1014h-282v-1014q0 -56 -39 -95t-95 -39h-519zM452 429v1019h-281v-1019h281z" />
    <glyph glyph-name="uni064406440647" unicode="&#xfedf;&#xfee0;&#xfeea;" horiz-adv-x="2500" 
d="M1760.5 207q-14.5 -57 0 -114t56.5 -93h113q113 0 208.5 56t151 151t55.5 208v1033h-281v-1014q0 -56 -39.5 -95t-94.5 -39h-113q-42 -36 -56.5 -93zM1111.5 207q-14.5 -57 0 -114t56.5 -93h50q172 0 275 144q103 -144 274 -144h51v300h-51q-55 0 -94 39t-39 95v744h-282
v-744q0 -56 -39 -95t-95 -39h-50q-42 -36 -56.5 -93zM1420 1391.5q37 26.5 64 75.5q50 -47 119 -47h14q58 0 107 29t78 78.5t29 106.5v194h-153v-194q0 -25 -18 -43t-43 -18h-14q-25 0 -43 18t-18 43v140h-152v-194q0 -26 -18 -44t-43 -18h-14q-25 0 -43 18t-18 44v194h-153
v-194q0 -58 29 -107.5t78 -78.5t107 -29h14q54 0 91 26.5zM1384 1884h152v410h-152v-410zM948.5 48q77.5 -48 172.5 -48h93v300h-95q-39 0 -69.5 26t-35.5 65l-107 731l-279 -40l15 -104q-168 -15 -291.5 -90.5t-186 -198t-51.5 -275.5q8 -112 73 -192t168.5 -114t226 -13.5
t239.5 100.5q50 -99 127.5 -147zM724 417q-83 -54 -158 -63t-121.5 16.5t-49.5 65.5q-9 121 69.5 188t218.5 74z" />
    <glyph glyph-name="uni0621" unicode="&#x621;" horiz-adv-x="1087" arabic-form="isolated" 
d="M222 -20l743 287l-91 238l-283 -109q-80 5 -117.5 48.5t-37.5 100.5q0 54 29.5 99t83.5 56q86 19 192 -65l94 235q-40 30 -109.5 57t-162.5 27q-112 0 -199 -59.5t-134.5 -154t-47.5 -195.5q0 -78 31.5 -148.5t90.5 -113.5l-173 -66z" />
    <glyph glyph-name="uni0622" unicode="&#x622;" horiz-adv-x="624" arabic-form="isolated" 
d="M171 0h281v1284h-281v-1284zM71 1470q15 36 46.5 57t69.5 21h471v189h-471q-97 1 -176.5 -53t-115.5 -144l-69 -173l177 -70z" />
    <glyph glyph-name="uni0623" unicode="&#x623;" horiz-adv-x="623" arabic-form="isolated" 
d="M171 0h281v1284h-281v-1284zM88 1475l470 180l-54 143l-149 -57q-51 -6 -85 16t-33 70q0 35 21 65t58 30q26 1 49.5 -7t53.5 -23q7 -3 10 -4l39 143q-43 23 -77 33.5t-75 10.5q-68 0 -121 -36t-82 -93.5t-29 -118.5q0 -46 20.5 -89.5t59.5 -69.5l-130 -50z" />
    <glyph glyph-name="uni0624" unicode="&#x624;" horiz-adv-x="1125" arabic-form="isolated" 
d="M560 300q-92 0 -123.5 30t-31.5 91q0 69 35 131.5t120 62.5q87 0 121.5 -59t34.5 -135v-121h-156zM998 421q0 139 -55.5 247t-155 168t-227.5 60q-125 0 -224.5 -61t-156 -169.5t-56.5 -244.5q0 -199 105.5 -310t331.5 -111h153q0 -107 -71 -173.5t-180 -66.5h-334v-300
h334q134 0 258 76t201 204.5t77 276.5v404zM352 1055l470 180l-54 143l-149 -57q-51 -6 -85 16t-33 70q0 35 21 65t58 30q26 1 49.5 -7t53.5 -23q7 -3 10 -4l39 143q-43 23 -77 33.5t-75 10.5q-68 0 -121 -36t-82 -93.5t-29 -118.5q0 -46 20.5 -89.5t59.5 -69.5l-130 -50z
" />
    <glyph glyph-name="uni0625" unicode="&#x625;" horiz-adv-x="623" arabic-form="isolated" 
d="M171 0h281v1448h-281v-1448zM88 -818l470 180l-54 143l-149 -57q-51 -6 -85 16t-33 70q0 35 21 65t58 30q26 1 49.5 -7t53.5 -23q7 -3 10 -4l39 143q-43 23 -77 33.5t-75 10.5q-68 0 -121 -36t-82 -93.5t-29 -118.5q0 -46 20.5 -89.5t59.5 -69.5l-130 -50z" />
    <glyph glyph-name="uni0627" unicode="&#x627;" horiz-adv-x="623" arabic-form="isolated" 
d="M171 0h281v1448h-281v-1448z" />
    <glyph glyph-name="uni0628" unicode="&#x628;" horiz-adv-x="1760" arabic-form="isolated" 
d="M1217 0q113 0 208.5 53.5t151 144.5t55.5 199v376h-281v-339q0 -56 -39 -95t-95 -39h-674q-56 0 -95 39t-39 95v339h-282v-376q0 -108 56 -199t151.5 -144.5t208.5 -53.5h674zM979 -263q-41 41 -99 41t-99 -41t-41 -99t41 -98.5t99 -40.5t99 40.5t41 98.5t-41 99z" />
    <glyph glyph-name="uni0629" unicode="&#x629;" horiz-adv-x="1105" arabic-form="isolated" 
d="M681 492.5q30 -61.5 30 -101.5q0 -61 -49.5 -94t-106.5 -33q-36 0 -72.5 15t-60 44t-23.5 68q0 70 50 140.5t107 123.5q95 -101 125 -162.5zM197 645.5q-80 -115.5 -80 -254.5q0 -113 59.5 -207t160 -148.5t218.5 -54.5q110 0 211.5 50t164 143.5t62.5 216.5
q0 146 -103.5 302.5t-314.5 328.5l-109 89l-178 -218l77 -62q-88 -70 -168 -185.5zM457 1500.5q-41 40.5 -99 40.5t-99 -40.5t-41 -98.5t41 -99t99 -41t99 41t41 99t-41 98.5zM809 1500.5q-41 40.5 -99 40.5t-99 -40.5t-41 -98.5t41 -99t99 -41t99 41t41 99t-41 98.5z" />
    <glyph glyph-name="uni062A" unicode="&#x62a;" horiz-adv-x="1760" arabic-form="isolated" 
d="M1217 0q113 0 208.5 53.5t151 144.5t55.5 199v376h-281v-339q0 -56 -39 -95t-95 -39h-674q-56 0 -95 39t-39 95v339h-282v-376q0 -108 56 -199t151.5 -144.5t208.5 -53.5h674zM803 1113.5q-41 40.5 -99 40.5t-99 -40.5t-41 -98.5t41 -99t99 -41t99 41t41 99t-41 98.5z
M1155 1113.5q-41 40.5 -99 40.5t-99 -40.5t-41 -98.5t41 -99t99 -41t99 41t41 99t-41 98.5z" />
    <glyph glyph-name="uni062B" unicode="&#x62b;" horiz-adv-x="1760" arabic-form="isolated" 
d="M1217 0q113 0 208.5 53.5t151 144.5t55.5 199v376h-281v-339q0 -56 -39 -95t-95 -39h-674q-56 0 -95 39t-39 95v339h-282v-376q0 -108 56 -199t151.5 -144.5t208.5 -53.5h674zM803 1120.5q-41 40.5 -99 40.5t-99 -40.5t-41 -98.5t41 -99t99 -41t99 41t41 99t-41 98.5z
M1155 1120.5q-41 40.5 -99 40.5t-99 -40.5t-41 -98.5t41 -99t99 -41t99 41t41 99t-41 98.5zM979 1418q-41 41 -99 41t-99 -41t-41 -99t41 -99t99 -41t99 41t41 99t-41 99z" />
    <glyph glyph-name="uni062C" unicode="&#x62c;" horiz-adv-x="1349" arabic-form="isolated" 
d="M554 446q-225 -88 -336.5 -246t-101.5 -326q8 -149 77.5 -263t196.5 -178t302 -64h513v299h-513q-121 0 -191 46t-88 112q-61 221 242 357l601 280l12 305l-100.5 60t-219 124t-214.5 106q-105 45 -212 31t-194 -82.5t-136 -180.5l-30 -67l258 -115l30 67q19 50 66 83
t110 5q37 -18 132 -62q165 -78 239 -111zM960 54.5q-41 40.5 -99 40.5t-99 -40.5t-41 -98.5t41 -99t99 -41t99 41t41 99t-41 98.5z" />
    <glyph glyph-name="uni062D" unicode="&#x62d;" horiz-adv-x="1352" arabic-form="isolated" 
d="M429 398q-142 -56 -227 -179.5t-85 -273.5q0 -132 65 -243.5t176 -176.5t243 -65h604v299h-604q-66 0 -116.5 28t-71.5 84q-30 78 3.5 152.5t112.5 110.5l732 329l11 306q-1 0 -43 24q-327 192 -495 265q-105 45 -212 31.5t-194 -82.5t-136 -181l-30 -67l258 -115l30 67
q19 50 66 83t110 5q28 -13 95 -45q191 -89 281 -128z" />
    <glyph glyph-name="uni062E" unicode="&#x62e;" horiz-adv-x="1352" arabic-form="isolated" 
d="M429 398q-142 -56 -227 -179.5t-85 -273.5q0 -132 65 -243.5t176 -176.5t243 -65h604v299h-604q-66 0 -116.5 28t-71.5 84q-30 78 3.5 152.5t112.5 110.5l732 329l11 306q-1 0 -43 24q-327 192 -495 265q-105 45 -212 31.5t-194 -82.5t-136 -181l-30 -67l258 -115l30 67
q19 50 66 83t110 5q28 -13 95 -45q191 -89 281 -128zM732 1533.5q-41 40.5 -99 40.5t-99 -40.5t-41 -98.5t41 -99t99 -41t99 41t41 99t-41 98.5z" />
    <glyph glyph-name="uni062F" unicode="&#x62f;" horiz-adv-x="1140" arabic-form="isolated" 
d="M857.5 54.5q85.5 54.5 131 144t39 191t-72.5 189.5l-397 521l-223 -171l396 -521q19 -24 16 -54t-25 -51.5t-55 -21.5h-597v-281h597q105 0 190.5 54.5z" />
    <glyph glyph-name="uni0630" unicode="&#x630;" horiz-adv-x="1139" arabic-form="isolated" 
d="M857.5 54.5q85.5 54.5 131 144t39 191t-72.5 189.5l-397 521l-223 -171l396 -521q19 -24 16 -54t-25 -51.5t-55 -21.5h-597v-281h597q105 0 190.5 54.5zM650 1517.5q-41 40.5 -99 40.5t-99 -40.5t-41 -98.5t41 -99t99 -41t99 41t41 99t-41 98.5z" />
    <glyph glyph-name="uni0631" unicode="&#x631;" horiz-adv-x="796" arabic-form="isolated" 
d="M88 -540q157 0 290.5 80.5t212 215t78.5 287.5v690h-282v-653q0 -81 -40.5 -155.5t-109 -119.5t-149.5 -45h-97v-300h97z" />
    <glyph glyph-name="uni0632" unicode="&#x632;" horiz-adv-x="796" arabic-form="isolated" 
d="M88 -540q157 0 290.5 80.5t212 215t78.5 287.5v690h-282v-653q0 -81 -40.5 -155.5t-109 -119.5t-149.5 -45h-97v-300h97zM627 1188.5q-41 40.5 -99 40.5t-99 -40.5t-41 -98.5t41 -99t99 -41t99 41t41 99t-41 98.5z" />
    <glyph glyph-name="uni0633" unicode="&#x633;" horiz-adv-x="2648" arabic-form="isolated" 
d="M1565 0q83 0 147.5 37t114.5 109q102 -146 262 -146h28q112 0 204.5 55.5t146 150.5t53.5 209v358h-282v-339q0 -57 -33.5 -95.5t-88.5 -38.5h-28q-54 0 -87.5 38.5t-33.5 95.5v299h-281v-299q0 -57 -34 -95.5t-88 -38.5h-27q-54 0 -88.5 39t-34.5 95v298h-281v-652
q0 -87 -36 -160t-108 -117t-175 -44h-88q-103 0 -175 44.5t-107.5 117.5t-35.5 159v454h-282v-492q0 -156 74 -289.5t210 -213.5t316 -80h88q174 0 308 75t209.5 201.5t82.5 278.5v27q48 -41 123 -41h27z" />
    <glyph glyph-name="uni0634" unicode="&#x634;" horiz-adv-x="2648" arabic-form="isolated" 
d="M1565 0q83 0 147.5 37t114.5 109q102 -146 262 -146h28q112 0 204.5 55.5t146 150.5t53.5 209v358h-282v-339q0 -57 -33.5 -95.5t-88.5 -38.5h-28q-54 0 -87.5 38.5t-33.5 95.5v299h-281v-299q0 -57 -34 -95.5t-88 -38.5h-27q-54 0 -88.5 39t-34.5 95v298h-281v-652
q0 -87 -36 -160t-108 -117t-175 -44h-88q-103 0 -175 44.5t-107.5 117.5t-35.5 159v454h-282v-492q0 -156 74 -289.5t210 -213.5t316 -80h88q174 0 308 75t209.5 201.5t82.5 278.5v27q48 -41 123 -41h27zM1750 1188.5q-41 40.5 -99 40.5t-99 -40.5t-41 -98.5t41 -99t99 -41
t99 41t41 99t-41 98.5zM2102 1188.5q-41 40.5 -99 40.5t-99 -40.5t-41 -98.5t41 -99t99 -41t99 41t41 99t-41 98.5zM1926 1486q-41 41 -99 41t-99 -41t-41 -99t41 -99t99 -41t99 41t41 99t-41 99z" />
    <glyph glyph-name="uni0635" unicode="&#x635;" horiz-adv-x="2674" arabic-form="isolated" 
d="M2316.5 60.5q112.5 60.5 177 167t64.5 237.5q0 112 -50 221t-160.5 179.5t-281.5 64.5q-238 -9 -382.5 -204.5t-215.5 -399.5q-23 12 -38 36.5t-15 52.5v312h-281v-647q0 -86 -35.5 -159t-107.5 -117.5t-176 -44.5h-88q-103 0 -175 44.5t-107.5 117.5t-35.5 159v454h-282
v-492q0 -156 73.5 -289.5t210 -213.5t316.5 -80h88q180 0 316.5 80t210 213.5t73.5 289.5v30q108 -72 226 -72h424q139 0 251.5 60.5zM1891.5 539.5q78.5 105.5 184.5 109.5q89 1 145 -41t56 -143q0 -85 -60.5 -125t-151.5 -40h-314q62 134 140.5 239.5z" />
    <glyph glyph-name="uni0636" unicode="&#x636;" horiz-adv-x="2674" arabic-form="isolated" 
d="M2316.5 60.5q112.5 60.5 177 167t64.5 237.5q0 112 -50 221t-160.5 179.5t-281.5 64.5q-238 -9 -382.5 -204.5t-215.5 -399.5q-23 12 -38 36.5t-15 52.5v312h-281v-647q0 -86 -35.5 -159t-107.5 -117.5t-176 -44.5h-88q-103 0 -175 44.5t-107.5 117.5t-35.5 159v454h-282
v-492q0 -156 73.5 -289.5t210 -213.5t316.5 -80h88q180 0 316.5 80t210 213.5t73.5 289.5v30q108 -72 226 -72h424q139 0 251.5 60.5zM1891.5 539.5q78.5 105.5 184.5 109.5q89 1 145 -41t56 -143q0 -85 -60.5 -125t-151.5 -40h-314q62 134 140.5 239.5zM2141 1372.5
q-41 40.5 -99 40.5t-99 -40.5t-41 -98.5t41 -99t99 -41t99 41t41 99t-41 98.5z" />
    <glyph glyph-name="uni0637" unicode="&#x637;" horiz-adv-x="1560" arabic-form="isolated" 
d="M358 353q-6 -17 -15 -41l-4 -12h-212v-300h823q139 0 251.5 60.5t177 167t64.5 237.5q0 112 -51 222t-161.5 180.5t-278.5 62.5q-170 -7 -325 -165l12 197v486h-281v-1095zM636 300q61 133 140.5 239t184.5 110q89 3 145 -40t56 -144q0 -85 -60.5 -125t-151.5 -40h-314z
" />
    <glyph glyph-name="uni0638" unicode="&#x638;" horiz-adv-x="1560" arabic-form="isolated" 
d="M358 353q-6 -17 -15 -41l-4 -12h-212v-300h823q139 0 251.5 60.5t177 167t64.5 237.5q0 112 -51 222t-161.5 180.5t-278.5 62.5q-170 -7 -325 -165l12 197v486h-281v-1095zM636 300q61 133 140.5 239t184.5 110q89 3 145 -40t56 -144q0 -85 -60.5 -125t-151.5 -40h-314z
M1147 1372.5q-41 40.5 -99 40.5t-99 -40.5t-41 -98.5t41 -99t99 -41t99 41t41 99t-41 98.5z" />
    <glyph glyph-name="uni0639" unicode="&#x639;" horiz-adv-x="1221" arabic-form="isolated" 
d="M1093 -241h-473q-92 0 -157 57t-65 147q0 60 30 111t81 81t111 30h446v300h-357q-79 9 -122 49.5t-43 107.5q0 75 42 130t118 62q60 5 105 -10t122 -61l91 271q-69 44 -153 67t-196 12q-117 -11 -210.5 -75.5t-146.5 -168t-53 -227.5q0 -76 31 -145.5t88 -122.5
q-125 -68 -195 -171t-70 -240t67.5 -252.5t183 -183t252.5 -67.5h473v299z" />
    <glyph glyph-name="uni063A" unicode="&#x63a;" horiz-adv-x="1221" arabic-form="isolated" 
d="M1093 -241h-473q-92 0 -157 57t-65 147q0 60 30 111t81 81t111 30h446v300h-357q-79 9 -122 49.5t-43 107.5q0 75 42 130t118 62q60 5 105 -10t122 -61l91 271q-69 44 -153 67t-196 12q-117 -11 -210.5 -75.5t-146.5 -168t-53 -227.5q0 -76 31 -145.5t88 -122.5
q-125 -68 -195 -171t-70 -240t67.5 -252.5t183 -183t252.5 -67.5h473v299zM784 1552.5q-41 40.5 -99 40.5t-99 -40.5t-41 -98.5t41 -99t99 -41t99 41t41 99t-41 98.5z" />
    <glyph glyph-name="uni0641" unicode="&#x641;" horiz-adv-x="1838" arabic-form="isolated" 
d="M1518 54.5q86 54.5 140 168.5t54 284q0 127 -58.5 228.5t-159 159t-222.5 57.5q-117 1 -218.5 -56t-161.5 -156t-59 -217q0 -62 26 -121.5t73 -101.5h-389q-56 0 -95 39t-39 95v333h-282v-370q0 -108 56 -199t151.5 -144.5t208.5 -53.5h789q100 0 186 54.5zM1156.5 400
q-42.5 57 -42.5 125q0 62 47.5 104.5t110.5 41.5q65 0 112 -40.5t47 -123.5q0 -59 -20.5 -127t-76.5 -78q-135 41 -177.5 98zM1371 1357.5q-41 40.5 -99 40.5t-99 -40.5t-41 -98.5t41 -99t99 -41t99 41t41 99t-41 98.5z" />
    <glyph glyph-name="uni0642.1" unicode="&#x642;" horiz-adv-x="1701" arabic-form="isolated" 
d="M1363.5 836.5q99.5 -60.5 155 -168.5t55.5 -247v-404q0 -147 -77 -275.5t-202.5 -205t-262.5 -76.5h-305q-180 0 -316.5 80t-210 213t-73.5 290v492h282v-455q0 -85 35.5 -158t107.5 -117.5t175 -44.5h305q113 0 184 66t73 174h-153q-226 0 -331.5 111t-105.5 310
q0 137 56.5 245t156 169.5t224.5 61.5q128 0 227.5 -60.5zM1292 421q0 76 -34.5 135t-121.5 59q-85 0 -120 -62.5t-35 -131.5q0 -61 31.5 -91t123.5 -30h156v121zM1060 1302.5q-41 40.5 -99 40.5t-99 -40.5t-41 -98.5t41 -99t99 -41t99 41t41 99t-41 98.5zM1412 1302.5
q-41 40.5 -99 40.5t-99 -40.5t-41 -98.5t41 -99t99 -41t99 41t41 99t-41 98.5z" />
    <glyph glyph-name="uni0643" unicode="&#x643;" horiz-adv-x="1755" arabic-form="isolated" 
d="M1404.5 53.5q95.5 53.5 151 144.5t55.5 199v1051h-281v-1014q0 -56 -39.5 -95t-94.5 -39h-653q-56 0 -95 39t-39 95v339h-282v-376q0 -108 56 -199t151.5 -144.5t208.5 -53.5h653q113 0 208.5 53.5zM661 631l470 180l-54 143l-149 -57q-51 -6 -85 16t-33 70q0 35 21 65
t58 30q26 1 49.5 -7t53.5 -23q7 -3 10 -4l39 143q-43 23 -77 33.5t-75 10.5q-68 0 -121 -36t-82 -93.5t-29 -118.5q0 -46 20.5 -89.5t59.5 -69.5l-130 -50z" />
    <glyph glyph-name="uni0644" unicode="&#x644;" horiz-adv-x="1586" arabic-form="isolated" 
d="M815 -541q180 0 316.5 80t210 213.5t73.5 289.5v1406h-281v-1368q0 -86 -35.5 -159t-107.5 -117.5t-176 -44.5h-88q-103 0 -175 44.5t-107.5 117.5t-35.5 159v437h-282v-475q0 -156 73.5 -289.5t210 -213.5t316.5 -80h88z" />
    <glyph glyph-name="uni0645" unicode="&#x645;" horiz-adv-x="1591" arabic-form="isolated" 
d="M409 458q0 71 49.5 121t121.5 50h32q-4 -73 -4 -179q-1 -140 48.5 -244.5t145.5 -161.5t230 -57q128 0 229 58t157.5 163t56.5 241q0 134 -56 239t-156 163.5t-229 58.5h-454q-124 0 -227.5 -60.5t-164.5 -164.5t-61 -227v-999h282v999zM1155.5 576.5
q37.5 -50.5 38.5 -127.5q0 -106 -50 -143.5t-112 -37.5q-84 0 -123 50t-38 130v181h161q86 -2 123.5 -52.5z" />
    <glyph glyph-name="uni0646" unicode="&#x646;" horiz-adv-x="1543" arabic-form="isolated" 
d="M815 -541q180 0 316.5 80t210 213.5t73.5 289.5v685h-281v-647q0 -86 -35.5 -159t-107.5 -117.5t-176 -44.5h-88q-103 0 -175 44.5t-107.5 117.5t-35.5 159v454h-282v-492q0 -156 73.5 -289.5t210 -213.5t316.5 -80h88zM816 956.5q-41 40.5 -99 40.5t-99 -40.5t-41 -98.5
t41 -99t99 -41t99 41t41 99t-41 98.5z" />
    <glyph glyph-name="uni0647" unicode="&#x647;" horiz-adv-x="1105" arabic-form="isolated" 
d="M681 492.5q30 -61.5 30 -101.5q0 -61 -49.5 -94t-106.5 -33q-36 0 -72.5 15t-60 44t-23.5 68q0 70 50 140.5t107 123.5q95 -101 125 -162.5zM197 645.5q-80 -115.5 -80 -254.5q0 -113 59.5 -207t160 -148.5t218.5 -54.5q110 0 211.5 50t164 143.5t62.5 216.5
q0 146 -103.5 302.5t-314.5 328.5l-109 89l-178 -218l77 -62q-88 -70 -168 -185.5z" />
    <glyph glyph-name="uni0648" unicode="&#x648;" horiz-adv-x="1125" arabic-form="isolated" 
d="M560 300q-92 0 -123.5 30t-31.5 91q0 69 35 131.5t120 62.5q87 0 121.5 -59t34.5 -135v-121h-156zM998 421q0 139 -55.5 247t-155 168t-227.5 60q-125 0 -224.5 -61t-156 -169.5t-56.5 -244.5q0 -199 105.5 -310t331.5 -111h153q0 -107 -71 -173.5t-180 -66.5h-334v-300
h334q134 0 258 76t201 204.5t77 276.5v404z" />
    <glyph glyph-name="uni0649" unicode="&#x649;" horiz-adv-x="1625" arabic-form="isolated" 
d="M1407 275.5q-105 73.5 -276 74.5h-157v146q0 61 40 101t102 40h330v283h-330q-117 0 -214 -56.5t-153.5 -153.5t-56.5 -214v-427l434 -1q54 -1 78.5 -20.5t21.5 -70.5q-2 -53 -37.5 -102.5t-116.5 -82.5t-210 -33h-143q-102 0 -172 43t-104.5 114t-33.5 155v463h-282
v-500q0 -155 72.5 -286.5t207 -210t312.5 -78.5h143q242 0 385 89.5t200.5 211t60.5 234.5q4 208 -101 281.5z" />
    <glyph glyph-name="uni064A" unicode="&#x64a;" horiz-adv-x="1625" arabic-form="isolated" 
d="M1407 275.5q-105 73.5 -276 74.5h-157v146q0 61 40 101t102 40h330v283h-330q-117 0 -214 -56.5t-153.5 -153.5t-56.5 -214v-427l434 -1q54 -1 78.5 -20.5t21.5 -70.5q-2 -53 -37.5 -102.5t-116.5 -82.5t-210 -33h-143q-102 0 -172 43t-104.5 114t-33.5 155v463h-282
v-500q0 -155 72.5 -286.5t207 -210t312.5 -78.5h143q242 0 385 89.5t200.5 211t60.5 234.5q4 208 -101 281.5zM730 -757q-41 41 -99 41t-99 -41t-41 -99t41 -98.5t99 -40.5t99 40.5t41 98.5t-41 99zM1082 -757q-41 41 -99 41t-99 -41t-41 -99t41 -98.5t99 -40.5t99 40.5
t41 98.5t-41 99z" />
    <glyph glyph-name="uni064B" unicode="&#xfe70;" horiz-adv-x="0" arabic-form="isolated" 
d="M-296 1816l543 216l-57 141l-543 -214zM-403 2116l543 216l-57 141l-543 -214z" />
    <glyph glyph-name="uni064C" unicode="&#xfe72;" horiz-adv-x="0" arabic-form="isolated" 
d="M51 1905l20 -48l142 57l-19 47l83 31q94 41 132 129t3 185q-40 94 -128.5 132t-184.5 4q-94 -41 -132.5 -129.5t-2.5 -185.5l31 -81l-106 -40v132q-3 67 -37 120t-91 68.5t-123 -22.5l-68 -38l76 -133l68 38q15 9 28.5 0t10.5 -26l-32 -247l102 -82zM228 2295.5
q30 -15.5 42 -46.5q13 -34 -1 -67t-48 -47l-83 -32l-32 81q-14 36 3 71.5t55 45.5q34 10 64 -5.5z" />
    <glyph glyph-name="uni064D" unicode="&#xfe74;" horiz-adv-x="0" arabic-form="isolated" 
d="M-403 -897l543 215l-57 142l-543 -215zM-296 -1197l543 215l-57 142l-543 -215z" />
    <glyph glyph-name="uni064E" unicode="&#xfe76;" horiz-adv-x="0" arabic-form="isolated" 
d="M-243 1816l543 216l-57 141l-543 -214z" />
    <glyph glyph-name="uni064F" unicode="&#xfe78;" horiz-adv-x="0" arabic-form="isolated" 
d="M-49 1905l18 -47l143 57l-19 46l82 32q95 41 133 129.5t3 185.5q-40 94 -128.5 132t-184.5 3q-94 -41 -132.5 -129.5t-3.5 -184.5l32 -82l-222 -88l56 -143zM136.5 2291q22.5 -15 32.5 -40q13 -34 -1.5 -67.5t-48.5 -47.5l-82 -33l-33 83q-10 27 -2.5 55t30.5 46.5
t54 18.5q28 0 50.5 -15z" />
    <glyph glyph-name="uni0650" unicode="&#xfe7a;" horiz-adv-x="0" arabic-form="isolated" 
d="M-243 -897l543 215l-57 142l-543 -215z" />
    <glyph glyph-name="uni0651" unicode="&#xfe7c;" horiz-adv-x="0" arabic-form="isolated" 
d="M-46 1842.5q37 26.5 64 75.5q50 -47 119 -47h14q58 0 107 29t78 78.5t29 106.5v194h-153v-194q0 -25 -18 -43t-43 -18h-14q-25 0 -43 18t-18 43v140h-152v-194q0 -26 -18 -44t-43 -18h-14q-25 0 -43 18t-18 44v194h-153v-194q0 -58 29 -107.5t78 -78.5t107 -29h14
q54 0 91 26.5z" />
    <glyph glyph-name="uni0652" unicode="&#xfe7e;" horiz-adv-x="0" arabic-form="isolated" 
d="M135 1852.5q62 36.5 98 98t36 134.5t-36 135t-98 98t-135 36t-135 -36t-98 -98t-36 -135t36 -134.5t98 -98t135 -36.5t135 36.5zM82 2167q34 -34 34 -82t-34 -82t-82 -34t-82 34t-34 82q0 49 34 82.5t82 33.5t82 -34z" />
    <glyph glyph-name="uni0671" unicode="&#x671;" horiz-adv-x="621" arabic-form="isolated" 
d="M171 0h281v1284h-281v-1284zM329 1733.5q38 50.5 83 50.5q54 0 75.5 -33t21.5 -71q0 -28 -29.5 -47.5t-70.5 -19.5h-148q30 70 68 120.5zM98 1711.5q-9 22.5 -9 44.5v77h-152v-77q0 -68 33.5 -137t89 -114t118.5 -45h231q69 0 127 29t91.5 79.5t33.5 111.5q0 72 -32 131
t-88.5 92.5t-129.5 33.5q-107 0 -177.5 -81t-112.5 -183q-14 16 -23 38.5z" />
    <glyph glyph-name="uni0675" unicode="&#x623;" horiz-adv-x="675" arabic-form="final" 
d="M677 300h-99q-55 0 -90.5 38.5t-35.5 95.5v850h-281v-887q0 -107 49 -198t141 -145t217 -54h99v300zM89 1475l470 180l-54 143l-149 -57q-51 -6 -85 16t-33 70q0 35 21 65t58 30q26 1 49.5 -7t53.5 -23q7 -3 10 -4l39 143q-43 23 -77 33.5t-75 10.5q-68 0 -121 -36
t-82 -93.5t-29 -118.5q0 -46 20.5 -89.5t59.5 -69.5l-130 -50z" />
    <glyph glyph-name="uni0679" unicode="&#x679;" horiz-adv-x="1760" arabic-form="isolated" 
d="M1217 0q113 0 208.5 53.5t151 144.5t55.5 199v376h-281v-339q0 -56 -39 -95t-95 -39h-674q-56 0 -95 39t-39 95v339h-282v-376q0 -108 56 -199t151.5 -144.5t208.5 -53.5h674zM856.5 1064q37.5 51 83.5 51q54 0 76 -33t22 -72q0 -28 -29.5 -47t-71.5 -19h-146
q28 69 65.5 120zM631 960q-1 -5 -2 -14v-2h-59v-153h367q70 0 128 29t91.5 79t33.5 111q0 73 -31.5 131.5t-88.5 92.5t-130 34q-83 0 -156 -70v267h-153v-505z" />
    <glyph glyph-name="uni067E" unicode="&#x67e;" horiz-adv-x="1760" arabic-form="isolated" 
d="M1217 0q113 0 208.5 53.5t151 144.5t55.5 199v376h-281v-339q0 -56 -39 -95t-95 -39h-674q-56 0 -95 39t-39 95v339h-282v-376q0 -108 56 -199t151.5 -144.5t208.5 -53.5h674zM803 -212q-41 41 -99 41t-99 -41t-41 -99t41 -98.5t99 -40.5t99 40.5t41 98.5t-41 99z
M1155 -212q-41 41 -99 41t-99 -41t-41 -99t41 -98.5t99 -40.5t99 40.5t41 98.5t-41 99zM979 -509q-41 41 -99 41t-99 -41t-41 -99t41 -99t99 -41t99 41t41 99t-41 99z" />
    <glyph glyph-name="uni0686" unicode="&#x686;" horiz-adv-x="1349" arabic-form="isolated" 
d="M554 446q-225 -88 -336.5 -246t-101.5 -326q8 -149 77.5 -263t196.5 -178t302 -64h513v299h-513q-121 0 -191 46t-88 112q-61 221 242 357l601 280l12 305l-100.5 60t-219 124t-214.5 106q-105 45 -212 31t-194 -82.5t-136 -180.5l-30 -67l258 -115l30 67q19 50 66 83
t110 5q37 -18 132 -62q165 -78 239 -111zM806 115.5q-31 30.5 -74 30.5q-44 0 -74.5 -30.5t-30.5 -74.5q0 -43 30.5 -73.5t74.5 -30.5q43 0 74 30.5t31 73.5q0 44 -31 74.5zM1094.5 166q-30.5 31 -73.5 31q-44 0 -74.5 -31t-30.5 -74q0 -44 30.5 -74.5t74.5 -30.5
q43 0 73.5 30.5t30.5 74.5q0 43 -30.5 74zM1001.5 -58q-30.5 31 -73.5 31q-44 0 -74.5 -31t-30.5 -74t30.5 -74t74.5 -31q43 0 73.5 31t30.5 74t-30.5 74z" />
    <glyph glyph-name="uni0688" unicode="&#x688;" horiz-adv-x="1140" arabic-form="isolated" 
d="M857.5 54.5q85.5 54.5 131 144t39 191t-72.5 189.5l-397 521l-223 -171l396 -521q19 -24 16 -54t-25 -51.5t-55 -21.5h-597v-281h597q105 0 190.5 54.5zM533.5 1579q37.5 51 83.5 51q54 0 76 -33t22 -72q0 -28 -29.5 -47t-71.5 -19h-146q28 69 65.5 120zM308 1475
q-1 -5 -2 -14v-2h-59v-153h367q70 0 128 29t91.5 79t33.5 111q0 73 -31.5 131.5t-88.5 92.5t-130 34q-83 0 -156 -70v267h-153v-505z" />
    <glyph glyph-name="uni0691" unicode="&#x691;" horiz-adv-x="796" arabic-form="isolated" 
d="M88 -540q157 0 290.5 80.5t212 215t78.5 287.5v690h-282v-653q0 -81 -40.5 -155.5t-109 -119.5t-149.5 -45h-97v-300h97zM504.5 1279q37.5 51 83.5 51q54 0 76 -33t22 -72q0 -28 -29.5 -47t-71.5 -19h-146q28 69 65.5 120zM279 1175q-1 -5 -2 -14v-2h-59v-153h367
q70 0 128 29t91.5 79t33.5 111q0 73 -31.5 131.5t-88.5 92.5t-130 34q-83 0 -156 -70v267h-153v-505z" />
    <glyph glyph-name="uni0698" unicode="&#x698;" horiz-adv-x="796" arabic-form="isolated" 
d="M88 -540q157 0 290.5 80.5t212 215t78.5 287.5v690h-282v-653q0 -81 -40.5 -155.5t-109 -119.5t-149.5 -45h-97v-300h97zM451 1188.5q-41 40.5 -99 40.5t-99 -40.5t-41 -98.5t41 -99t99 -41t99 41t41 99t-41 98.5zM803 1188.5q-41 40.5 -99 40.5t-99 -40.5t-41 -98.5
t41 -99t99 -41t99 41t41 99t-41 98.5zM627 1486q-41 41 -99 41t-99 -41t-41 -99t41 -99t99 -41t99 41t41 99t-41 99z" />
    <glyph glyph-name="uni06A4" unicode="&#x6a4;" horiz-adv-x="1838" arabic-form="isolated" 
d="M1518 54.5q86 54.5 140 168.5t54 284q0 127 -58.5 228.5t-159 159t-222.5 57.5q-117 1 -218.5 -56t-161.5 -156t-59 -217q0 -62 26 -121.5t73 -101.5h-389q-56 0 -95 39t-39 95v333h-282v-370q0 -108 56 -199t151.5 -144.5t208.5 -53.5h789q100 0 186 54.5zM1156.5 400
q-42.5 57 -42.5 125q0 62 47.5 104.5t110.5 41.5q65 0 112 -40.5t47 -123.5q0 -59 -20.5 -127t-76.5 -78q-135 41 -177.5 98zM1197 1357.5q-41 40.5 -99 40.5t-99 -40.5t-41 -98.5t41 -99t99 -41t99 41t41 99t-41 98.5zM1549 1357.5q-41 40.5 -99 40.5t-99 -40.5t-41 -98.5
t41 -99t99 -41t99 41t41 99t-41 98.5zM1373 1655q-41 41 -99 41t-99 -41t-41 -99t41 -99t99 -41t99 41t41 99t-41 99z" />
    <glyph glyph-name="uni06A9" unicode="&#x6a9;" horiz-adv-x="1787" arabic-form="isolated" 
d="M1297 0q115 0 203 61t129.5 158t25 202t-95.5 188l-402 421l537 206l-99 263l-736 -281v-282l478 -502q23 -25 22.5 -56.5t-22.5 -54.5t-57 -23h-737q-56 0 -95 39t-39 95v339h-282v-358q0 -113 56 -208t151.5 -151t208.5 -56h754z" />
    <glyph glyph-name="uni06AF" unicode="&#x6af;" horiz-adv-x="1787" arabic-form="isolated" 
d="M1297 0q115 0 203 61t129.5 158t25 202t-95.5 188l-402 421l537 206l-99 263l-736 -281v-282l478 -502q23 -25 22.5 -56.5t-22.5 -54.5t-57 -23h-737q-56 0 -95 39t-39 95v339h-282v-358q0 -113 56 -208t151.5 -151t208.5 -56h754zM1507 1599l-58 150l-591 -217l1 -167z
" />
    <glyph glyph-name="uni06BA" unicode="&#x6ba;" horiz-adv-x="1543" arabic-form="isolated" 
d="M815 -541q180 0 316.5 80t210 213.5t73.5 289.5v685h-281v-647q0 -86 -35.5 -159t-107.5 -117.5t-176 -44.5h-88q-103 0 -175 44.5t-107.5 117.5t-35.5 159v454h-282v-492q0 -156 73.5 -289.5t210 -213.5t316.5 -80h88z" />
    <glyph glyph-name="uni06BE" unicode="&#x6be;" horiz-adv-x="1609" arabic-form="isolated" 
d="M1196 463q25 -38 18.5 -76t-38.5 -62.5t-77 -24.5h-195q40 44 66.5 110.5t26.5 141.5q0 115 -59 210.5t-160.5 150.5t-223.5 55t-223.5 -55t-160 -150.5t-58.5 -210.5q0 -56 22.5 -146t77 -183.5t154 -158t243.5 -64.5h490q114 0 205.5 57t143 151t50 202.5t-63.5 204.5
l-312 484l-237 -152zM664.5 652.5q50.5 -33.5 50.5 -100.5q0 -134 -161 -252q-161 118 -161 252q0 67 50.5 100.5t110.5 33.5t110.5 -33.5z" />
    <glyph glyph-name="uni06C1" unicode="&#x6c1;" horiz-adv-x="1105" arabic-form="isolated" 
d="M681 492.5q30 -61.5 30 -101.5q0 -61 -49.5 -94t-106.5 -33q-36 0 -72.5 15t-60 44t-23.5 68q0 70 50 140.5t107 123.5q95 -101 125 -162.5zM197 645.5q-80 -115.5 -80 -254.5q0 -113 59.5 -207t160 -148.5t218.5 -54.5q110 0 211.5 50t164 143.5t62.5 216.5
q0 146 -103.5 302.5t-314.5 328.5l-109 89l-178 -218l77 -62q-88 -70 -168 -185.5z" />
    <glyph glyph-name="uni06C3.fina" unicode="&#x6c3;" horiz-adv-x="1177" 
d="M443 357q6 53 41 96t86 60l129 42l16 -177q9 -105 67 -191.5t149.5 -136.5t197.5 -50h49v300h-49q-55 0 -92 27t-42 77l-32 354l-185 121l-297 -99q-129 -44 -215 -148.5t-103 -238.5l-46 -374l279 -35zM565 1297.5q-41 40.5 -99 40.5t-99 -40.5t-41 -98.5t41 -99t99 -41
t99 41t41 99t-41 98.5zM917 1297.5q-41 40.5 -99 40.5t-99 -40.5t-41 -98.5t41 -99t99 -41t99 41t41 99t-41 98.5z" />
    <glyph glyph-name="uni06C6" unicode="&#x6c6;" horiz-adv-x="1125" arabic-form="isolated" 
d="M560 300q-92 0 -123.5 30t-31.5 91q0 69 35 131.5t120 62.5q87 0 121.5 -59t34.5 -135v-121h-156zM998 421q0 139 -55.5 247t-155 168t-227.5 60q-125 0 -224.5 -61t-156 -169.5t-56.5 -244.5q0 -199 105.5 -310t331.5 -111h153q0 -107 -71 -173.5t-180 -66.5h-334v-300
h334q134 0 258 76t201 204.5t77 276.5v404zM933 1460l-193 5l-184 -212l-184 212l-193 -5l320 -373h114z" />
    <glyph glyph-name="uni06C7" unicode="&#x6c7;" horiz-adv-x="1125" arabic-form="isolated" 
d="M560 300q-92 0 -123.5 30t-31.5 91q0 69 35 131.5t120 62.5q87 0 121.5 -59t34.5 -135v-121h-156zM998 421q0 139 -55.5 247t-155 168t-227.5 60q-125 0 -224.5 -61t-156 -169.5t-56.5 -244.5q0 -199 105.5 -310t331.5 -111h153q0 -107 -71 -173.5t-180 -66.5h-334v-300
h334q134 0 258 76t201 204.5t77 276.5v404zM507 1150l18 -47l143 57l-19 46l82 32q95 41 133 129.5t3 185.5q-40 94 -128.5 132t-184.5 3q-94 -41 -132.5 -129.5t-3.5 -184.5l32 -82l-222 -88l56 -143zM692.5 1536q22.5 -15 32.5 -40q13 -34 -1.5 -67.5t-48.5 -47.5l-82 -33
l-33 83q-10 27 -2.5 55t30.5 46.5t54 18.5q28 0 50.5 -15z" />
    <glyph glyph-name="uni06C9" unicode="&#x6c9;" horiz-adv-x="1125" arabic-form="isolated" 
d="M560 300q-92 0 -123.5 30t-31.5 91q0 69 35 131.5t120 62.5q87 0 121.5 -59t34.5 -135v-121h-156zM998 421q0 139 -55.5 247t-155 168t-227.5 60q-125 0 -224.5 -61t-156 -169.5t-56.5 -244.5q0 -199 105.5 -310t331.5 -111h153q0 -107 -71 -173.5t-180 -66.5h-334v-300
h334q134 0 258 76t201 204.5t77 276.5v404zM933 1083l-193 -4l-184 211l-184 -211l-193 4l320 374h114z" />
    <glyph glyph-name="uni06D2" unicode="&#x6d2;" horiz-adv-x="1635" arabic-form="isolated" 
d="M1508 281h-911q-51 0 -94.5 25.5t-68.5 69t-25 94.5q0 52 25 95t68.5 68.5t94.5 25.5h239v282h-239q-127 0 -235 -63.5t-171.5 -171.5t-63.5 -236t63.5 -236t171.5 -171t235 -63h911v281z" />
    <glyph glyph-name="uni06D3" unicode="&#x6d3;" horiz-adv-x="1635" arabic-form="isolated" 
d="M1508 281h-911q-51 0 -94.5 25.5t-68.5 69t-25 94.5q0 52 25 95t68.5 68.5t94.5 25.5h239v282h-239q-127 0 -235 -63.5t-171.5 -171.5t-63.5 -236t63.5 -236t171.5 -171t235 -63h911v281zM283 1147l470 180l-54 143l-149 -57q-51 -6 -85 16t-33 70q0 35 21 65t58 30
q26 1 49.5 -7t53.5 -23q7 -3 10 -4l39 143q-43 23 -77 33.5t-75 10.5q-68 0 -121 -36t-82 -93.5t-29 -118.5q0 -46 20.5 -89.5t59.5 -69.5l-130 -50z" />
    <glyph glyph-name="uniFED3" unicode="&#x641;" horiz-adv-x="1119" arabic-form="initial" 
d="M481 368.5q-48 38.5 -62 76t-14 80.5q0 62 47.5 104.5t110.5 41.5q65 0 111.5 -40.5t46.5 -123.5q0 -58 -20.5 -126.5t-76.5 -78.5q-95 28 -143 66.5zM-56.5 207q-14.5 -57 0 -114t56.5 -93h613q101 0 189.5 53.5t144 167.5t55.5 286q0 127 -58 228.5t-158.5 159
t-222.5 57.5q-117 1 -218.5 -56t-161.5 -156t-60 -217q0 -62 26 -121.5t73 -101.5h-222q-42 -36 -56.5 -93zM662 1357.5q-41 40.5 -99 40.5t-99 -40.5t-41 -98.5t41 -99t99 -41t99 41t41 99t-41 98.5z" />
    <glyph glyph-name="uniFED7" unicode="&#x642;" horiz-adv-x="1119" arabic-form="initial" 
d="M481 368.5q-48 38.5 -62 76t-14 80.5q0 62 47.5 104.5t110.5 41.5q65 0 111.5 -40.5t46.5 -123.5q0 -58 -20.5 -126.5t-76.5 -78.5q-95 28 -143 66.5zM-56.5 207q-14.5 -57 0 -114t56.5 -93h613q101 0 189.5 53.5t144 167.5t55.5 286q0 127 -58 228.5t-158.5 159
t-222.5 57.5q-117 1 -218.5 -56t-161.5 -156t-60 -217q0 -62 26 -121.5t73 -101.5h-222q-42 -36 -56.5 -93zM486 1357.5q-41 40.5 -99 40.5t-99 -40.5t-41 -98.5t41 -99t99 -41t99 41t41 99t-41 98.5zM838 1357.5q-41 40.5 -99 40.5t-99 -40.5t-41 -98.5t41 -99t99 -41
t99 41t41 99t-41 98.5z" />
    <glyph glyph-name="uniFB6C" unicode="&#x6a4;" horiz-adv-x="1119" arabic-form="initial" 
d="M481 368.5q-48 38.5 -62 76t-14 80.5q0 62 47.5 104.5t110.5 41.5q65 0 111.5 -40.5t46.5 -123.5q0 -58 -20.5 -126.5t-76.5 -78.5q-95 28 -143 66.5zM-56.5 207q-14.5 -57 0 -114t56.5 -93h613q101 0 189.5 53.5t144 167.5t55.5 286q0 127 -58 228.5t-158.5 159
t-222.5 57.5q-117 1 -218.5 -56t-161.5 -156t-60 -217q0 -62 26 -121.5t73 -101.5h-222q-42 -36 -56.5 -93zM486 1357.5q-41 40.5 -99 40.5t-99 -40.5t-41 -98.5t41 -99t99 -41t99 41t41 99t-41 98.5zM838 1357.5q-41 40.5 -99 40.5t-99 -40.5t-41 -98.5t41 -99t99 -41
t99 41t41 99t-41 98.5zM662 1655q-41 41 -99 41t-99 -41t-41 -99t41 -99t99 -41t99 41t41 99t-41 99z" />
    <glyph glyph-name="uniFB51" unicode="&#x671;" horiz-adv-x="672" arabic-form="final" 
d="M677 300h-99q-55 0 -90.5 38.5t-35.5 95.5v850h-281v-887q0 -107 49 -198t141 -145t217 -54h99v300zM329 1733.5q38 50.5 83 50.5q54 0 75.5 -33t21.5 -71q0 -28 -29.5 -47.5t-70.5 -19.5h-148q30 70 68 120.5zM98 1711.5q-9 22.5 -9 44.5v77h-152v-77q0 -68 33.5 -137
t89 -114t118.5 -45h231q69 0 127 29t91.5 79.5t33.5 111.5q0 72 -32 131t-88.5 92.5t-129.5 33.5q-107 0 -177.5 -81t-112.5 -183q-14 16 -23 38.5z" />
    <glyph glyph-name="uniFB57" unicode="&#x67e;" horiz-adv-x="1826" arabic-form="final" 
d="M1492 144q103 -144 274 -144h60v300h-60q-55 0 -94.5 39t-39.5 95v299h-281v-299q0 -56 -39 -95t-95 -39h-674q-56 0 -95 39t-39 95v339h-282v-376q0 -108 56 -199t151.5 -144.5t208.5 -53.5h674q172 0 275 144zM803 -212q-41 41 -99 41t-99 -41t-41 -99t41 -98.5
t99 -40.5t99 40.5t41 98.5t-41 99zM1155 -212q-41 41 -99 41t-99 -41t-41 -99t41 -98.5t99 -40.5t99 40.5t41 98.5t-41 99zM979 -509q-41 41 -99 41t-99 -41t-41 -99t41 -99t99 -41t99 41t41 99t-41 99z" />
    <glyph glyph-name="uniFB58" unicode="&#x67e;" horiz-adv-x="726" arabic-form="initial" 
d="M-56.5 207q-14.5 -57 0 -114t56.5 -93h184q113 0 208 53.5t151 144.5t56 199v376h-281v-339q0 -56 -39.5 -95t-94.5 -39h-184q-42 -36 -56.5 -93zM66 -230q-41 41 -99 41t-99 -41t-41 -99t41 -98.5t99 -40.5t99 40.5t41 98.5t-41 99zM418 -230q-41 41 -99 41t-99 -41
t-41 -99t41 -98.5t99 -40.5t99 40.5t41 98.5t-41 99zM242 -527q-41 41 -99 41t-99 -41t-41 -99t41 -99t99 -41t99 41t41 99t-41 99z" />
    <glyph glyph-name="uniFB59" unicode="&#x67e;" horiz-adv-x="793" arabic-form="medial" 
d="M-56.5 207q-14.5 -57 0 -114t56.5 -93h184q171 0 274 144q103 -144 275 -144h60v300h-60q-55 0 -94.5 39t-39.5 95v299h-281v-299q0 -56 -39.5 -95t-94.5 -39h-184q-42 -36 -56.5 -93zM66 -230q-41 41 -99 41t-99 -41t-41 -99t41 -98.5t99 -40.5t99 40.5t41 98.5t-41 99z
M418 -230q-41 41 -99 41t-99 -41t-41 -99t41 -98.5t99 -40.5t99 40.5t41 98.5t-41 99zM242 -527q-41 41 -99 41t-99 -41t-41 -99t41 -99t99 -41t99 41t41 99t-41 99z" />
    <glyph glyph-name="uniFB67" unicode="&#x679;" horiz-adv-x="1826" arabic-form="final" 
d="M1492 144q103 -144 274 -144h60v300h-60q-55 0 -94.5 39t-39.5 95v299h-281v-299q0 -56 -39 -95t-95 -39h-674q-56 0 -95 39t-39 95v339h-282v-376q0 -108 56 -199t151.5 -144.5t208.5 -53.5h674q172 0 275 144zM856.5 1064q37.5 51 83.5 51q54 0 76 -33t22 -72
q0 -28 -29.5 -47t-71.5 -19h-146q28 69 65.5 120zM631 960q-1 -5 -2 -14v-2h-59v-153h367q70 0 128 29t91.5 79t33.5 111q0 73 -31.5 131.5t-88.5 92.5t-130 34q-83 0 -156 -70v267h-153v-505z" />
    <glyph glyph-name="uniFB68" unicode="&#x679;" horiz-adv-x="802" arabic-form="initial" 
d="M-56.5 207q-14.5 -57 0 -114t56.5 -93h260q112 0 207.5 53.5t151.5 144.5t56 199v376h-281v-339q0 -56 -39.5 -95t-94.5 -39h-260q-42 -36 -56.5 -93zM379.5 1275q37.5 51 83.5 51q54 0 76 -33t22 -72q0 -28 -29.5 -47t-71.5 -19h-146q28 69 65.5 120zM154 1171
q-1 -5 -2 -14v-2h-59v-153h367q70 0 128 29t91.5 79t33.5 111q0 73 -31.5 131.5t-88.5 92.5t-130 34q-83 0 -156 -70v267h-153v-505z" />
    <glyph glyph-name="uniFB69" unicode="&#x679;" horiz-adv-x="868" arabic-form="medial" 
d="M-56.5 207q-14.5 -57 0 -114t56.5 -93h260q171 0 274 144q103 -144 275 -144h59v300h-59q-56 0 -95 39t-39 95v299h-281v-299q0 -56 -39.5 -95t-94.5 -39h-260q-42 -36 -56.5 -93zM379.5 1235q37.5 51 83.5 51q54 0 76 -33t22 -72q0 -28 -29.5 -47t-71.5 -19h-146
q28 69 65.5 120zM154 1131q-1 -5 -2 -14v-2h-59v-153h367q70 0 128 29t91.5 79t33.5 111q0 73 -31.5 131.5t-88.5 92.5t-130 34q-83 0 -156 -70v267h-153v-505z" />
    <glyph glyph-name="uniFB6B" unicode="&#x6a4;" horiz-adv-x="1871" arabic-form="final" 
d="M1398 652.5q51 -33.5 51 -100.5q0 -134 -161 -252q-162 118 -162 252q0 67 51 100.5t111 33.5q59 0 110 -33.5zM1004 0q124 0 194 18.5t90 39.5q10 -12 43 -25.5t93.5 -23t145.5 -9.5h302v300h-235q40 44 66.5 110.5t26.5 141.5q0 115 -58.5 210.5t-160 150.5t-223.5 55
q-123 0 -224.5 -55t-160.5 -150.5t-59 -210.5q0 -75 26.5 -141.5t67.5 -110.5h-395q-56 0 -95 39t-39 95v339h-282v-376q0 -108 56 -199t151.5 -144.5t208.5 -53.5h461zM1211 1374.5q-41 40.5 -99 40.5t-99 -40.5t-41 -98.5t41 -99t99 -41t99 41t41 99t-41 98.5z
M1563 1374.5q-41 40.5 -99 40.5t-99 -40.5t-41 -98.5t41 -99t99 -41t99 41t41 99t-41 98.5zM1387 1672q-41 41 -99 41t-99 -41t-41 -99t41 -99t99 -41t99 41t41 99t-41 99z" />
    <glyph glyph-name="uniFB6D" unicode="&#x6a4;" horiz-adv-x="1169" arabic-form="medial" 
d="M695 652.5q51 -33.5 51 -100.5q0 -133 -161 -252q-162 118 -162 252q0 67 51 100.5t111 33.5q59 0 110 -33.5zM-56.5 207q-14.5 -57 0 -114t56.5 -93h302q124 0 193.5 18.5t89.5 39.5q19 -21 89 -39.5t193 -18.5h302v300h-234q40 45 66 111t26 141q0 115 -58.5 210.5
t-160 150.5t-223.5 55q-123 0 -224.5 -55t-160 -150.5t-58.5 -210.5q-1 -75 25.5 -141.5t67.5 -110.5h-235q-42 -36 -56.5 -93zM508 1374.5q-41 40.5 -99 40.5t-99 -40.5t-41 -98.5t41 -99t99 -41t99 41t41 99t-41 98.5zM860 1374.5q-41 40.5 -99 40.5t-99 -40.5t-41 -98.5
t41 -99t99 -41t99 41t41 99t-41 98.5zM684 1672q-41 41 -99 41t-99 -41t-41 -99t41 -99t99 -41t99 41t41 99t-41 99z" />
    <glyph glyph-name="uniFB7B" unicode="&#x686;" horiz-adv-x="1442" arabic-form="final" 
d="M1256 490l12 278l-100.5 60t-219 124t-214.5 106q-105 45 -212 31t-194 -82.5t-136 -180.5l-30 -67l258 -115l30 67q19 50 66 83t110 5q37 -18 132 -62q165 -78 239 -111l-443 -180q-225 -88 -336.5 -246t-101.5 -326q8 -149 77.5 -263t196.5 -178t302 -64h513v299h-513
q-121 0 -191 46t-88 112q-61 221 242 357l294 138l28 -130q21 -92 92 -141.5t172 -49.5h202v300h-194q-27 0 -49 11.5t-29 38.5l-18 78zM725.5 46q-28.5 28 -67.5 28q-40 0 -68.5 -28t-28.5 -68t28.5 -68t68.5 -28q39 0 67.5 28t28.5 68t-28.5 68zM966 118.5
q-28 28.5 -68 28.5t-68 -28.5t-28 -67.5q0 -40 28 -68.5t68 -28.5t68 28.5t28 68.5q0 39 -28 67.5zM903 -102.5q-28 28.5 -68 28.5t-68 -28.5t-28 -68.5q0 -39 28 -67.5t68 -28.5t68 28.5t28 67.5q0 40 -28 68.5z" />
    <glyph glyph-name="uniFB7C" unicode="&#x686;" horiz-adv-x="1298" arabic-form="initial" 
d="M-56.5 207q-14.5 -57 0 -114t56.5 -93h213q352 0 596.5 113.5t393.5 230.5q12 10 14 11l-15 274q-1 0 -65 35q-330 179 -489 248q-105 45 -211.5 31t-194 -82.5t-135.5 -180.5l-25 -57l257 -115l26 57q11 29 35 56.5t60 39t80 -8.5q32 -14 110 -51q212 -98 307 -139
q-158 -67 -352 -114.5t-392 -47.5h-213q-42 -36 -56.5 -93zM466 -221q-41 41 -99 41t-99 -41t-41 -99t41 -98.5t99 -40.5t99 40.5t41 98.5t-41 99zM818 -221q-41 41 -99 41t-99 -41t-41 -99t41 -98.5t99 -40.5t99 40.5t41 98.5t-41 99zM642 -518q-41 41 -99 41t-99 -41
t-41 -99t41 -99t99 -41t99 41t41 99t-41 99z" />
    <glyph glyph-name="uniFB7D" unicode="&#x686;" horiz-adv-x="1382" arabic-form="medial" 
d="M-56.5 207q-14.5 -57 0 -114t56.5 -93h213q374 0 716 193l47 -76q25 -54 88 -85.5t138 -31.5h185v300h-185q-33 0 -58 11l-22 19q31 23 69 53q20 15 22 16l-11 230q-1 0 -65 35q-330 179 -489 248q-105 45 -211.5 31t-194 -82.5t-135.5 -180.5l-25 -57l257 -115l26 57
q11 29 35 56.5t60 39t80 -8.5q32 -14 110 -51q212 -98 307 -139q-158 -67 -352 -114.5t-392 -47.5h-213q-42 -36 -56.5 -93zM466 -221q-41 41 -99 41t-99 -41t-41 -99t41 -98.5t99 -40.5t99 40.5t41 98.5t-41 99zM818 -221q-41 41 -99 41t-99 -41t-41 -99t41 -98.5t99 -40.5
t99 40.5t41 98.5t-41 99zM642 -518q-41 41 -99 41t-99 -41t-41 -99t41 -99t99 -41t99 41t41 99t-41 99z" />
    <glyph glyph-name="uniFB89" unicode="&#x688;" horiz-adv-x="1179" arabic-form="final" 
d="M557 0q120 0 196.5 44.5t114.5 121.5l8 -14q53 -73 126.5 -112.5t163.5 -39.5h13v300h-13q-38 0 -63.5 13t-42.5 45l-400 737l-247 -135l306 -562q13 -25 7.5 -52.5t-26.5 -46t-51 -18.5h-579v-281h487zM588.5 1576q37.5 51 83.5 51q54 0 76 -33t22 -72q0 -28 -29.5 -47
t-71.5 -19h-146q28 69 65.5 120zM363 1472q-1 -5 -2 -14v-2h-59v-153h367q70 0 128 29t91.5 79t33.5 111q0 73 -31.5 131.5t-88.5 92.5t-130 34q-83 0 -156 -70v267h-153v-505z" />
    <glyph glyph-name="uniFB8B" unicode="&#x698;" horiz-adv-x="861" arabic-form="final" 
d="M849 0h12v300h-12q-48 0 -89 25.5t-66 69t-25 94.5v244h-282v-653q0 -81 -40.5 -155.5t-109 -119.5t-149.5 -45h-97v-300h97q157 0 290.5 80.5t212 215t78.5 287.5v53q84 -96 180 -96zM451 1188.5q-41 40.5 -99 40.5t-99 -40.5t-41 -98.5t41 -99t99 -41t99 41t41 99
t-41 98.5zM803 1188.5q-41 40.5 -99 40.5t-99 -40.5t-41 -98.5t41 -99t99 -41t99 41t41 99t-41 98.5zM627 1486q-41 41 -99 41t-99 -41t-41 -99t41 -99t99 -41t99 41t41 99t-41 99z" />
    <glyph glyph-name="uniFB8D" unicode="&#x691;" horiz-adv-x="861" arabic-form="final" 
d="M849 0h12v300h-12q-48 0 -89 25.5t-66 69t-25 94.5v244h-282v-653q0 -81 -40.5 -155.5t-109 -119.5t-149.5 -45h-97v-300h97q157 0 290.5 80.5t212 215t78.5 287.5v53q84 -96 180 -96zM504.5 1279q37.5 51 83.5 51q54 0 76 -33t22 -72q0 -28 -29.5 -47t-71.5 -19h-146
q28 69 65.5 120zM279 1175q-1 -5 -2 -14v-2h-59v-153h367q70 0 128 29t91.5 79t33.5 111q0 73 -31.5 131.5t-88.5 92.5t-130 34q-83 0 -156 -70v267h-153v-505z" />
    <glyph glyph-name="uniFB8F" unicode="&#x6a9;" horiz-adv-x="1910" arabic-form="final" 
d="M1206 0q134 0 225 54.5t132 142.5l80 -85q52 -54 120 -83t142 -29h6v300h-6q-52 0 -76 25l-672 705l537 206l-99 263l-736 -281v-282l480 -503q22 -25 21 -56.5t-23 -54t-57 -22.5h-737q-56 0 -95 39t-39 95v339h-282v-358q0 -113 56 -208t151.5 -151t208.5 -56h663z" />
    <glyph glyph-name="uniFB90" unicode="&#x6a9;" horiz-adv-x="1084" arabic-form="initial" 
d="M-56.5 207q-14.5 -57 0 -114t56.5 -93h597q115 0 202.5 61t129 158t25.5 202t-95 188l-403 421l537 206l-99 263l-736 -281v-282l479 -502q23 -25 22.5 -56.5t-22.5 -54.5t-57 -23h-580q-42 -36 -56.5 -93z" />
    <glyph glyph-name="uniFB91" unicode="&#x6a9;" horiz-adv-x="1212" arabic-form="medial" 
d="M-56.5 207q-14.5 -57 0 -114t56.5 -93h505q134 0 225 54.5t132 142.5l80 -85q53 -54 120.5 -83t142.5 -29h7v300h-7q-53 0 -77 25l-672 705l537 206l-99 263l-736 -281v-282l480 -503q22 -25 21 -56.5t-22.5 -54t-56.5 -22.5h-580q-42 -36 -56.5 -93z" />
    <glyph glyph-name="uniFB93" unicode="&#x6af;" horiz-adv-x="1907" arabic-form="final" 
d="M1206 0q134 0 225 54.5t132 142.5l80 -85q52 -54 120 -83t142 -29h6v300h-6q-52 0 -76 25l-672 705l537 206l-99 263l-736 -281v-282l480 -503q22 -25 21 -56.5t-23 -54t-57 -22.5h-737q-56 0 -95 39t-39 95v339h-282v-358q0 -113 56 -208t151.5 -151t208.5 -56h663z
M1508 1599l-58 150l-591 -217l1 -167z" />
    <glyph glyph-name="uniFB94" unicode="&#x6af;" horiz-adv-x="1084" arabic-form="initial" 
d="M-56.5 207q-14.5 -57 0 -114t56.5 -93h597q115 0 202.5 61t129 158t25.5 202t-95 188l-403 421l537 206l-99 263l-736 -281v-282l479 -502q23 -25 22.5 -56.5t-22.5 -54.5t-57 -23h-580q-42 -36 -56.5 -93zM802 1599l-58 150l-591 -217l1 -167z" />
    <glyph glyph-name="uniFB95" unicode="&#x6af;" horiz-adv-x="1207" arabic-form="medial" 
d="M-56.5 207q-14.5 -57 0 -114t56.5 -93h505q134 0 225 54.5t132 142.5l80 -85q53 -54 120.5 -83t142.5 -29h7v300h-7q-53 0 -77 25l-672 705l537 206l-99 263l-736 -281v-282l480 -503q22 -25 21 -56.5t-22.5 -54t-56.5 -22.5h-580q-42 -36 -56.5 -93zM802 1599l-58 150
l-591 -217l1 -167z" />
    <glyph glyph-name="uniFB9F" unicode="&#x6ba;" horiz-adv-x="1609" arabic-form="final" 
d="M815 -541q180 0 316 79t209.5 212t74.5 288v27q64 -65 134 -65h60v300h-60q-55 0 -94.5 39t-39.5 95v293h-281v-647q0 -86 -35.5 -159t-107.5 -117.5t-176 -44.5h-88q-103 0 -175 44.5t-107.5 117.5t-35.5 159v454h-282v-492q0 -156 73.5 -289.5t210 -213.5t316.5 -80h88
z" />
    <glyph glyph-name="uniFBA7" unicode="&#x6c1;" horiz-adv-x="1177" arabic-form="final" 
d="M443 357q6 53 41 96t86 60l129 42l16 -177q9 -105 67 -191.5t149.5 -136.5t197.5 -50h49v300h-49q-55 0 -92 27t-42 77l-32 354l-185 121l-297 -99q-129 -44 -215 -148.5t-103 -238.5l-46 -374l279 -35z" />
    <glyph glyph-name="uniFBA8" unicode="&#x6c1;" horiz-adv-x="1273" arabic-form="initial" 
d="M856.5 -587.5q-63.5 35.5 -175.5 24.5v31q0 29 18.5 51.5t47.5 26.5l147 22l-29 204l-87 -16q-85 -15 -154 -64.5t-108 -119.5t-39 -143v-130q0 -75 61.5 -127t155.5 -52q63 0 115 23.5t81.5 64.5t29.5 90q0 79 -63.5 114.5zM-56.5 207q-14.5 -57 0 -114t56.5 -93h128
q172 0 275 144q103 -144 275 -144h53q113 0 208.5 53.5t151 144.5t55.5 199v376h-281v-339q0 -56 -39.5 -95t-94.5 -39h-53q-56 0 -95 39t-39 95v299h-282v-299q0 -56 -39 -95t-95 -39h-128q-42 -36 -56.5 -93z" />
    <glyph glyph-name="uniFBA9" unicode="&#x6c1;" horiz-adv-x="1126" arabic-form="medial" 
d="M-56.5 207q-14.5 -57 0 -114t56.5 -93h190q30 -271 191.5 -410t436.5 -139l141 176v336q0 15 10.5 26t26.5 11h131v300h-224q-105 0 -165.5 -60.5t-60.5 -165.5v-321q-69 15 -116 57.5t-71.5 120.5t-25.5 195v523h-281v-349h-183q-42 -36 -56.5 -93z" />
    <glyph glyph-name="uniFBAB" unicode="&#x6be;" horiz-adv-x="1655" arabic-form="final" 
d="M1469 300q28 74 20.5 157t-55.5 158l-312 484l-237 -152l311 -484q25 -38 18.5 -76t-38.5 -62.5t-77 -24.5h-195q40 44 66.5 110.5t26.5 141.5q0 115 -59 210.5t-160.5 150.5t-223.5 55t-223.5 -55t-160 -150.5t-58.5 -210.5q0 -56 22.5 -146t77 -183.5t154 -158
t243.5 -64.5h1045v300h-185zM664.5 652.5q50.5 -33.5 50.5 -100.5q0 -134 -161 -252q-161 118 -161 252q0 67 50.5 100.5t110.5 33.5t110.5 -33.5z" />
    <glyph glyph-name="uniFBAC" unicode="&#x6be;" horiz-adv-x="1647" arabic-form="initial" 
d="M695 652.5q51 -33.5 51 -100.5q0 -133 -161 -252q-162 118 -162 252q0 67 51 100.5t111 33.5q59 0 110 -33.5zM1191 0q106 0 191 54.5t131 144t39.5 191t-73.5 189.5l-397 521l-223 -171l382 -502q18 -24 15 -54t-24.5 -51.5t-54.5 -21.5h-242q40 45 66 111t26 141
q0 115 -58.5 210.5t-160 150.5t-223.5 55q-123 0 -224.5 -55t-160 -150.5t-58.5 -210.5q-1 -75 25.5 -141.5t67.5 -110.5h-235q-42 -36 -56.5 -93t0 -114t56.5 -93h302q124 0 193.5 18.5t89.5 39.5q19 -21 89 -39.5t193 -18.5h324z" />
    <glyph glyph-name="uniFBAD" unicode="&#x6be;" horiz-adv-x="1681" arabic-form="medial" 
d="M693 652.5q51 -33.5 51 -100.5q0 -134 -161 -252q-161 118 -161 252q0 67 50.5 100.5t110.5 33.5q59 0 110 -33.5zM-56.5 207q-14.5 -57 0 -114t56.5 -93h346q103 1 157.5 17t79.5 45q25 -29 80 -45t157 -17h862v300h-184q28 74 20.5 157t-55.5 158l-312 484l-237 -152
l311 -484q25 -38 18 -76t-38.5 -62.5t-76.5 -24.5h-195q40 44 66.5 110.5t26.5 141.5q0 115 -59 210.5t-160.5 150.5t-223.5 55t-223.5 -55t-160 -150.5t-58.5 -210.5q0 -75 26 -141.5t66 -110.5h-233q-42 -36 -56.5 -93z" />
    <glyph glyph-name="uniFBAF" unicode="&#x6d2;" horiz-adv-x="1089" arabic-form="final" 
d="M881 -188h-338q-59 0 -96.5 24.5t-37.5 69.5q0 46 37.5 70t96.5 24h546v300h-546q-114 0 -209.5 -51t-151 -141t-55.5 -202q0 -111 55.5 -196.5t150.5 -132t210 -46.5h338v281z" />
    <glyph glyph-name="uniFBB1" unicode="&#x6d3;" horiz-adv-x="1089" arabic-form="final" 
d="M881 -188h-338q-59 0 -96.5 24.5t-37.5 69.5q0 46 37.5 70t96.5 24h546v300h-546q-114 0 -209.5 -51t-151 -141t-55.5 -202q0 -111 55.5 -196.5t150.5 -132t210 -46.5h338v281zM283 507l470 180l-54 143l-149 -57q-51 -6 -85 16t-33 70q0 35 21 65t58 30q26 1 49.5 -7
t53.5 -23q7 -3 10 -4l39 143q-43 23 -77 33.5t-75 10.5q-68 0 -121 -36t-82 -93.5t-29 -118.5q0 -46 20.5 -89.5t59.5 -69.5l-130 -50z" />
    <glyph glyph-name="uniFBD8" unicode="&#x6c7;" horiz-adv-x="1159" arabic-form="final" 
d="M560 300q-92 0 -123.5 30t-31.5 91q0 69 35 131.5t120 62.5q87 0 121.5 -59t34.5 -135v-121h-156zM642 -173.5q-71 -66.5 -180 -66.5h-334v-300h334q132 0 254 73t199 197.5t82 269.5h160v300h-159v121q0 139 -55.5 247t-155 168t-227.5 60q-125 0 -224.5 -61
t-156 -169.5t-56.5 -244.5q0 -199 105.5 -310t331.5 -111h153q0 -107 -71 -173.5zM507 1150l18 -47l143 57l-19 46l82 32q95 41 133 129.5t3 185.5q-40 94 -128.5 132t-184.5 3q-94 -41 -132.5 -129.5t-3.5 -184.5l32 -82l-222 -88l56 -143zM692.5 1536q22.5 -15 32.5 -40
q13 -34 -1.5 -67.5t-48.5 -47.5l-82 -33l-33 83q-10 27 -2.5 55t30.5 46.5t54 18.5q28 0 50.5 -15z" />
    <glyph glyph-name="uniFBDA" unicode="&#x6c6;" horiz-adv-x="1159" arabic-form="final" 
d="M560 300q-92 0 -123.5 30t-31.5 91q0 69 35 131.5t120 62.5q87 0 121.5 -59t34.5 -135v-121h-156zM642 -173.5q-71 -66.5 -180 -66.5h-334v-300h334q132 0 254 73t199 197.5t82 269.5h160v300h-159v121q0 139 -55.5 247t-155 168t-227.5 60q-125 0 -224.5 -61
t-156 -169.5t-56.5 -244.5q0 -199 105.5 -310t331.5 -111h153q0 -107 -71 -173.5zM933 1460l-193 5l-184 -212l-184 212l-193 -5l320 -373h114z" />
    <glyph glyph-name="uniFBE3" unicode="&#x6c9;" horiz-adv-x="1159" arabic-form="final" 
d="M560 300q-92 0 -123.5 30t-31.5 91q0 69 35 131.5t120 62.5q87 0 121.5 -59t34.5 -135v-121h-156zM642 -173.5q-71 -66.5 -180 -66.5h-334v-300h334q132 0 254 73t199 197.5t82 269.5h160v300h-159v121q0 139 -55.5 247t-155 168t-227.5 60q-125 0 -224.5 -61
t-156 -169.5t-56.5 -244.5q0 -199 105.5 -310t331.5 -111h153q0 -107 -71 -173.5zM933 1083l-193 -4l-184 211l-184 -211l-193 4l320 374h114z" />
    <glyph glyph-name="uniFBE8" unicode="&#x649;" horiz-adv-x="733" arabic-form="initial" 
d="M-56.5 207q-14.5 -57 0 -114t56.5 -93h189q113 0 208.5 53.5t151.5 144.5t56 199v376h-282v-339q0 -56 -39 -95t-95 -39h-189q-42 -36 -56.5 -93z" />
    <glyph glyph-name="uniFBE9" unicode="&#x649;" horiz-adv-x="798" arabic-form="medial" 
d="M-56.5 207q-14.5 -57 0 -114t56.5 -93h189q172 0 275 144q103 -144 274 -144h60v300h-60q-55 0 -94 39t-39 95v299h-282v-299q0 -56 -39 -95t-95 -39h-189q-42 -36 -56.5 -93z" />
    <glyph glyph-name="uniFBFD" unicode="&#x6cc;" horiz-adv-x="1720" arabic-form="final" 
d="M1720 300h-973v-281h381q49 -1 69.5 -27t20.5 -67q-3 -73 -76 -119.5t-191 -46.5h-241q-150 0 -226 86.5t-75 217.5v471h-282v-509q0 -155 70 -284t202.5 -205.5t310.5 -76.5h241q175 0 297.5 71t182.5 177t60 211q0 48 -14 82h243v300z" />
    <glyph glyph-name="uniFBFE" unicode="&#x6cc;" horiz-adv-x="726" arabic-form="initial" 
d="M-56.5 207q-14.5 -57 0 -114t56.5 -93h184q113 0 208 53.5t151 144.5t56 199v376h-281v-339q0 -56 -39.5 -95t-94.5 -39h-184q-42 -36 -56.5 -93zM66 -263q-41 41 -99 41t-99 -41t-41 -99t41 -98.5t99 -40.5t99 40.5t41 98.5t-41 99zM418 -263q-41 41 -99 41t-99 -41
t-41 -99t41 -98.5t99 -40.5t99 40.5t41 98.5t-41 99z" />
    <glyph glyph-name="uniFBFF" unicode="&#x6cc;" horiz-adv-x="793" arabic-form="medial" 
d="M-56.5 207q-14.5 -57 0 -114t56.5 -93h184q171 0 274 144q103 -144 275 -144h60v300h-60q-55 0 -94.5 39t-39.5 95v299h-281v-299q0 -56 -39.5 -95t-94.5 -39h-184q-42 -36 -56.5 -93zM66 -263q-41 41 -99 41t-99 -41t-41 -99t41 -98.5t99 -40.5t99 40.5t41 98.5t-41 99z
M418 -263q-41 41 -99 41t-99 -41t-41 -99t41 -98.5t99 -40.5t99 40.5t41 98.5t-41 99z" />
    <glyph glyph-name="uniFD3C" unicode="&#xfd3c;" horiz-adv-x="671" arabic-form="final" 
d="M677 300h-99q-55 0 -90.5 38.5t-35.5 95.5v850h-281v-887q0 -107 49 -198t141 -145t217 -54h99v300zM62 1407l543 216l-57 141l-543 -214zM-45 1707l543 216l-57 141l-543 -214z" />
    <glyph glyph-name="uniFD3D" unicode="&#xfd3d;" horiz-adv-x="620" arabic-form="isolated" 
d="M171 0h281v1284h-281v-1284zM62 1407l543 216l-57 141l-543 -214zM-45 1707l543 216l-57 141l-543 -214z" />
    <glyph glyph-name="uniFDF2" unicode="&#xfdf2;" horiz-adv-x="2984" arabic-form="isolated" 
d="M2610 0h281v1448h-281v-1448zM1757.5 207q-14.5 -57 0 -114t56.5 -93h113q113 0 208.5 56t151 151t55.5 208v1033h-281v-1014q0 -56 -39.5 -95t-94.5 -39h-113q-42 -36 -56.5 -93zM1108.5 207q-14.5 -57 0 -114t56.5 -93h50q172 0 275 144q103 -144 274 -144h51v300h-51
q-55 0 -94 39t-39 95v744h-282v-744q0 -56 -39 -95t-95 -39h-50q-42 -36 -56.5 -93zM1417 1391.5q37 26.5 64 75.5q50 -47 119 -47h14q58 0 107 29t78 78.5t29 106.5v194h-153v-194q0 -25 -18 -43t-43 -18h-14q-25 0 -43 18t-18 43v140h-152v-194q0 -26 -18 -44t-43 -18h-14
q-25 0 -43 18t-18 44v194h-153v-194q0 -58 29 -107.5t78 -78.5t107 -29h14q54 0 91 26.5zM1381 1884h152v410h-152v-410zM945.5 48q77.5 -48 172.5 -48h93v300h-95q-39 0 -69.5 26t-35.5 65l-107 731l-279 -40l15 -104q-168 -15 -291.5 -90.5t-186 -198t-51.5 -275.5
q8 -112 73 -192t168.5 -114t226 -13.5t239.5 100.5q50 -99 127.5 -147zM721 417q-83 -54 -158 -63t-121.5 16.5t-49.5 65.5q-9 121 69.5 188t218.5 74z" />
    <glyph glyph-name="uniFDFC" unicode="&#xfdfc;" horiz-adv-x="3322" arabic-form="isolated" 
d="M2614 -501q157 0 290.5 80.5t212 215t78.5 287.5v651h-282v-614q0 -82 -41 -162.5t-109.5 -132t-148.5 -51.5h-901v-274h901zM1619 1175v-778q0 -107 49 -198t141 -145t217 -54h204q113 0 208 53.5t151 144.5t56 199v376h-281v-339q0 -56 -39.5 -95t-94.5 -39h-204
q-55 0 -90.5 38.5t-35.5 95.5v1014h-772v-1342q0 -86 -35.5 -159t-107.5 -117.5t-176 -44.5h-82q-103 0 -175 44.5t-107.5 117.5t-35.5 159v408h-282v-446q0 -156 73.5 -289.5t210 -213.5t316.5 -80h82q181 0 317.5 80t210 213.5t73.5 289.5v1107h209z" />
    <glyph glyph-name="uniFE82" unicode="&#x622;" horiz-adv-x="675" arabic-form="final" 
d="M677 300h-99q-55 0 -90.5 38.5t-35.5 95.5v850h-281v-887q0 -107 49 -198t141 -145t217 -54h99v300zM71 1470q15 36 46.5 57t69.5 21h471v189h-471q-97 1 -176.5 -53t-115.5 -144l-69 -173l177 -70z" />
    <glyph glyph-name="uniFE86" unicode="&#x624;" horiz-adv-x="1159" arabic-form="final" 
d="M560 300q-92 0 -123.5 30t-31.5 91q0 69 35 131.5t120 62.5q87 0 121.5 -59t34.5 -135v-121h-156zM642 -173.5q-71 -66.5 -180 -66.5h-334v-300h334q132 0 254 73t199 197.5t82 269.5h160v300h-159v121q0 139 -55.5 247t-155 168t-227.5 60q-125 0 -224.5 -61
t-156 -169.5t-56.5 -244.5q0 -199 105.5 -310t331.5 -111h153q0 -107 -71 -173.5zM352 1055l470 180l-54 143l-149 -57q-51 -6 -85 16t-33 70q0 35 21 65t58 30q26 1 49.5 -7t53.5 -23q7 -3 10 -4l39 143q-43 23 -77 33.5t-75 10.5q-68 0 -121 -36t-82 -93.5t-29 -118.5
q0 -46 20.5 -89.5t59.5 -69.5l-130 -50z" />
    <glyph glyph-name="uniFE88" unicode="&#x625;" horiz-adv-x="675" arabic-form="final" 
d="M677 300h-99q-55 0 -90.5 38.5t-35.5 95.5v1014h-281v-1051q0 -107 49 -198t141 -145t217 -54h99v300zM88 -818l470 180l-54 143l-149 -57q-51 -6 -85 16t-33 70q0 35 21 65t58 30q26 1 49.5 -7t53.5 -23q7 -3 10 -4l39 143q-43 23 -77 33.5t-75 10.5q-68 0 -121 -36
t-82 -93.5t-29 -118.5q0 -46 20.5 -89.5t59.5 -69.5l-130 -50z" />
    <glyph glyph-name="uniFE8B" unicode="&#x626;" horiz-adv-x="733" arabic-form="initial" 
d="M-56.5 207q-14.5 -57 0 -114t56.5 -93h189q113 0 208.5 53.5t151.5 144.5t56 199v376h-282v-339q0 -56 -39 -95t-95 -39h-189q-42 -36 -56.5 -93zM92 967l470 180l-54 143l-149 -57q-51 -6 -85 16t-33 70q0 35 21 65t58 30q26 1 49.5 -7t53.5 -23q7 -3 10 -4l39 143
q-43 23 -77 33.5t-75 10.5q-68 0 -121 -36t-82 -93.5t-29 -118.5q0 -46 20.5 -89.5t59.5 -69.5l-130 -50z" />
    <glyph glyph-name="uniFE8C" unicode="&#x626;" horiz-adv-x="798" arabic-form="medial" 
d="M-56.5 207q-14.5 -57 0 -114t56.5 -93h189q172 0 275 144q103 -144 274 -144h60v300h-60q-55 0 -94 39t-39 95v299h-282v-299q0 -56 -39 -95t-95 -39h-189q-42 -36 -56.5 -93zM92 927l470 180l-54 143l-149 -57q-51 -6 -85 16t-33 70q0 35 21 65t58 30q26 1 49.5 -7
t53.5 -23q7 -3 10 -4l39 143q-43 23 -77 33.5t-75 10.5q-68 0 -121 -36t-82 -93.5t-29 -118.5q0 -46 20.5 -89.5t59.5 -69.5l-130 -50z" />
    <glyph glyph-name="uniFE8E" unicode="&#x627;" horiz-adv-x="677" arabic-form="final" 
d="M677 300h-99q-55 0 -90.5 38.5t-35.5 95.5v1014h-281v-1051q0 -107 49 -198t141 -145t217 -54h99v300z" />
    <glyph glyph-name="uniFE90" unicode="&#x628;" horiz-adv-x="1826" arabic-form="final" 
d="M1492 144q103 -144 274 -144h60v300h-60q-55 0 -94.5 39t-39.5 95v299h-281v-299q0 -56 -39 -95t-95 -39h-674q-56 0 -95 39t-39 95v339h-282v-376q0 -108 56 -199t151.5 -144.5t208.5 -53.5h674q172 0 275 144zM979 -263q-41 41 -99 41t-99 -41t-41 -99t41 -98.5
t99 -40.5t99 40.5t41 98.5t-41 99z" />
    <glyph glyph-name="uniFE91" unicode="&#x628;" horiz-adv-x="733" arabic-form="initial" 
d="M-56.5 207q-14.5 -57 0 -114t56.5 -93h189q113 0 208.5 53.5t151.5 144.5t56 199v376h-282v-339q0 -56 -39 -95t-95 -39h-189q-42 -36 -56.5 -93zM267 -263q-41 41 -99 41t-99 -41t-41 -99t41 -98.5t99 -40.5t99 40.5t41 98.5t-41 99z" />
    <glyph glyph-name="uniFE92" unicode="&#x628;" horiz-adv-x="798" arabic-form="medial" 
d="M-56.5 207q-14.5 -57 0 -114t56.5 -93h189q172 0 275 144q103 -144 274 -144h60v300h-60q-55 0 -94 39t-39 95v299h-282v-299q0 -56 -39 -95t-95 -39h-189q-42 -36 -56.5 -93zM267 -263q-41 41 -99 41t-99 -41t-41 -99t41 -98.5t99 -40.5t99 40.5t41 98.5t-41 99z" />
    <glyph glyph-name="uniFE94" unicode="&#x629;" horiz-adv-x="1213" arabic-form="final" 
d="M947.5 48q77.5 -48 172.5 -48h93v300h-95q-39 0 -69.5 26t-35.5 65l-107 731l-279 -40l15 -104q-168 -15 -291.5 -90.5t-186 -198t-51.5 -275.5q8 -112 73 -192t168.5 -114t226 -13.5t239.5 100.5q50 -99 127.5 -147zM723 417q-83 -54 -158 -63t-121.5 16.5t-49.5 65.5
q-9 121 69.5 188t218.5 74zM587 1565.5q-41 40.5 -99 40.5t-99 -40.5t-41 -98.5t41 -99t99 -41t99 41t41 99t-41 98.5zM939 1565.5q-41 40.5 -99 40.5t-99 -40.5t-41 -98.5t41 -99t99 -41t99 41t41 99t-41 98.5z" />
    <glyph glyph-name="uniFE96" unicode="&#x62a;" horiz-adv-x="1826" arabic-form="final" 
d="M1492 144q103 -144 274 -144h60v300h-60q-55 0 -94.5 39t-39.5 95v299h-281v-299q0 -56 -39 -95t-95 -39h-674q-56 0 -95 39t-39 95v339h-282v-376q0 -108 56 -199t151.5 -144.5t208.5 -53.5h674q172 0 275 144zM803 1113.5q-41 40.5 -99 40.5t-99 -40.5t-41 -98.5
t41 -99t99 -41t99 41t41 99t-41 98.5zM1155 1113.5q-41 40.5 -99 40.5t-99 -40.5t-41 -98.5t41 -99t99 -41t99 41t41 99t-41 98.5z" />
    <glyph glyph-name="uniFE97" unicode="&#x62a;" horiz-adv-x="802" arabic-form="initial" 
d="M-56.5 207q-14.5 -57 0 -114t56.5 -93h260q112 0 207.5 53.5t151.5 144.5t56 199v376h-281v-339q0 -56 -39.5 -95t-94.5 -39h-260q-42 -36 -56.5 -93zM321 1227.5q-41 40.5 -99 40.5t-99 -40.5t-41 -98.5t41 -99t99 -41t99 41t41 99t-41 98.5zM673 1227.5
q-41 40.5 -99 40.5t-99 -40.5t-41 -98.5t41 -99t99 -41t99 41t41 99t-41 98.5z" />
    <glyph glyph-name="uniFE98" unicode="&#x62a;" horiz-adv-x="868" arabic-form="medial" 
d="M-56.5 207q-14.5 -57 0 -114t56.5 -93h260q171 0 274 144q103 -144 275 -144h59v300h-59q-56 0 -95 39t-39 95v299h-281v-299q0 -56 -39.5 -95t-94.5 -39h-260q-42 -36 -56.5 -93zM321 1188.5q-41 40.5 -99 40.5t-99 -40.5t-41 -98.5t41 -99t99 -41t99 41t41 99t-41 98.5
zM673 1188.5q-41 40.5 -99 40.5t-99 -40.5t-41 -98.5t41 -99t99 -41t99 41t41 99t-41 98.5z" />
    <glyph glyph-name="uniFE9A" unicode="&#x62b;" horiz-adv-x="1826" arabic-form="final" 
d="M1492 144q103 -144 274 -144h60v300h-60q-55 0 -94.5 39t-39.5 95v299h-281v-299q0 -56 -39 -95t-95 -39h-674q-56 0 -95 39t-39 95v339h-282v-376q0 -108 56 -199t151.5 -144.5t208.5 -53.5h674q172 0 275 144zM803 1120.5q-41 40.5 -99 40.5t-99 -40.5t-41 -98.5
t41 -99t99 -41t99 41t41 99t-41 98.5zM1155 1120.5q-41 40.5 -99 40.5t-99 -40.5t-41 -98.5t41 -99t99 -41t99 41t41 99t-41 98.5zM979 1418q-41 41 -99 41t-99 -41t-41 -99t41 -99t99 -41t99 41t41 99t-41 99z" />
    <glyph glyph-name="uniFE9B" unicode="&#x62b;" horiz-adv-x="802" arabic-form="initial" 
d="M-56.5 207q-14.5 -57 0 -114t56.5 -93h260q112 0 207.5 53.5t151.5 144.5t56 199v376h-281v-339q0 -56 -39.5 -95t-94.5 -39h-260q-42 -36 -56.5 -93zM320 1227.5q-41 40.5 -99 40.5t-99 -40.5t-41 -98.5t41 -99t99 -41t99 41t41 99t-41 98.5zM672 1227.5
q-41 40.5 -99 40.5t-99 -40.5t-41 -98.5t41 -99t99 -41t99 41t41 99t-41 98.5zM496 1525q-41 41 -99 41t-99 -41t-41 -99t41 -99t99 -41t99 41t41 99t-41 99z" />
    <glyph glyph-name="uniFE9C" unicode="&#x62b;" horiz-adv-x="868" arabic-form="medial" 
d="M-56.5 207q-14.5 -57 0 -114t56.5 -93h260q171 0 274 144q103 -144 275 -144h59v300h-59q-56 0 -95 39t-39 95v299h-281v-299q0 -56 -39.5 -95t-94.5 -39h-260q-42 -36 -56.5 -93zM320 1188.5q-41 40.5 -99 40.5t-99 -40.5t-41 -98.5t41 -99t99 -41t99 41t41 99t-41 98.5
zM672 1188.5q-41 40.5 -99 40.5t-99 -40.5t-41 -98.5t41 -99t99 -41t99 41t41 99t-41 98.5zM496 1486q-41 41 -99 41t-99 -41t-41 -99t41 -99t99 -41t99 41t41 99t-41 99z" />
    <glyph glyph-name="uniFE9E" unicode="&#x62c;" horiz-adv-x="1442" arabic-form="final" 
d="M1256 490l12 278l-100.5 60t-219 124t-214.5 106q-105 45 -212 31t-194 -82.5t-136 -180.5l-30 -67l258 -115l30 67q19 50 66 83t110 5q37 -18 132 -62q165 -78 239 -111l-443 -180q-225 -88 -336.5 -246t-101.5 -326q8 -149 77.5 -263t196.5 -178t302 -64h513v299h-513
q-121 0 -191 46t-88 112q-61 221 242 357l294 138l28 -130q21 -92 92 -141.5t172 -49.5h202v300h-194q-27 0 -49 11.5t-29 38.5l-18 78zM904 -129q33 38 29 89t-42 84t-89 29t-84 -42t-29 -89t42 -84t89 -29t84 42z" />
    <glyph glyph-name="uniFE9F" unicode="&#x62c;" horiz-adv-x="1298" arabic-form="initial" 
d="M-56.5 207q-14.5 -57 0 -114t56.5 -93h213q352 0 596.5 113.5t393.5 230.5q12 10 14 11l-15 274q-1 0 -65 35q-330 179 -489 248q-105 45 -211.5 31t-194 -82.5t-135.5 -180.5l-25 -57l257 -115l26 57q11 29 35 56.5t60 39t80 -8.5q32 -14 110 -51q212 -98 307 -139
q-158 -67 -352 -114.5t-392 -47.5h-213q-42 -36 -56.5 -93zM642 -254q-41 41 -99 41t-99 -41t-41 -99t41 -98.5t99 -40.5t99 40.5t41 98.5t-41 99z" />
    <glyph glyph-name="uniFEA0" unicode="&#x62c;" horiz-adv-x="1382" arabic-form="medial" 
d="M-56.5 207q-14.5 -57 0 -114t56.5 -93h213q374 0 716 193l47 -76q25 -54 88 -85.5t138 -31.5h185v300h-185q-33 0 -58 11l-22 19q31 23 69 53q20 15 22 16l-11 230q-1 0 -65 35q-330 179 -489 248q-105 45 -211.5 31t-194 -82.5t-135.5 -180.5l-25 -57l257 -115l26 57
q11 29 35 56.5t60 39t80 -8.5q32 -14 110 -51q212 -98 307 -139q-158 -67 -352 -114.5t-392 -47.5h-213q-42 -36 -56.5 -93zM642 -254q-41 41 -99 41t-99 -41t-41 -99t41 -98.5t99 -40.5t99 40.5t41 98.5t-41 99z" />
    <glyph glyph-name="uniFEA2" unicode="&#x62d;" horiz-adv-x="1442" arabic-form="final" 
d="M1261 489l11 280q-1 0 -43 24q-327 192 -495 265q-105 45 -212 31.5t-194 -82.5t-136 -181l-30 -67l258 -115l30 67q19 50 66 83t110 5q28 -13 95 -45q191 -89 281 -128l-573 -228q-142 -56 -227 -179.5t-85 -273.5q0 -132 65 -243.5t176 -176.5t243 -65h604v299h-604
q-66 0 -116.5 28t-71.5 84q-30 78 3.5 152.5t112.5 110.5l419 189l30 -132q21 -92 92 -141.5t172 -49.5h194v300h-186q-27 0 -49.5 11.5t-28.5 38.5l-19 77z" />
    <glyph glyph-name="uniFEA3" unicode="&#x62d;" horiz-adv-x="1298" arabic-form="initial" 
d="M-56.5 207q-14.5 -57 0 -114t56.5 -93h213q352 0 596.5 113.5t393.5 230.5q12 10 14 11l-15 274q-1 0 -65 35q-330 179 -489 248q-105 45 -211.5 31t-194 -82.5t-135.5 -180.5l-25 -57l257 -115l26 57q11 29 35 56.5t60 39t80 -8.5q32 -14 110 -51q212 -98 307 -139
q-158 -67 -352 -114.5t-392 -47.5h-213q-42 -36 -56.5 -93z" />
    <glyph glyph-name="uniFEA4" unicode="&#x62d;" horiz-adv-x="1387" arabic-form="medial" 
d="M-56.5 207q-14.5 -57 0 -114t56.5 -93h213q374 0 716 193l47 -76q25 -54 88 -85.5t138 -31.5h185v300h-185q-33 0 -58 11l-22 19q31 23 69 53q20 15 22 16l-11 230q-1 0 -65 35q-330 179 -489 248q-105 45 -211.5 31t-194 -82.5t-135.5 -180.5l-25 -57l257 -115l26 57
q11 29 35 56.5t60 39t80 -8.5q32 -14 110 -51q212 -98 307 -139q-158 -67 -352 -114.5t-392 -47.5h-213q-42 -36 -56.5 -93z" />
    <glyph glyph-name="uniFEA6" unicode="&#x62e;" horiz-adv-x="1442" arabic-form="final" 
d="M1261 489l11 280q-1 0 -43 24q-327 192 -495 265q-105 45 -212 31.5t-194 -82.5t-136 -181l-30 -67l258 -115l30 67q19 50 66 83t110 5q28 -13 95 -45q191 -89 281 -128l-573 -228q-142 -56 -227 -179.5t-85 -273.5q0 -132 65 -243.5t176 -176.5t243 -65h604v299h-604
q-66 0 -116.5 28t-71.5 84q-30 78 3.5 152.5t112.5 110.5l419 189l30 -132q21 -92 92 -141.5t172 -49.5h194v300h-186q-27 0 -49.5 11.5t-28.5 38.5l-19 77zM732 1533.5q-41 40.5 -99 40.5t-99 -40.5t-41 -98.5t41 -99t99 -41t99 41t41 99t-41 98.5z" />
    <glyph glyph-name="uniFEA7" unicode="&#x62e;" horiz-adv-x="1298" arabic-form="initial" 
d="M-56.5 207q-14.5 -57 0 -114t56.5 -93h213q352 0 596.5 113.5t393.5 230.5q12 10 14 11l-15 274q-1 0 -65 35q-330 179 -489 248q-105 45 -211.5 31t-194 -82.5t-135.5 -180.5l-25 -57l257 -115l26 57q11 29 35 56.5t60 39t80 -8.5q32 -14 110 -51q212 -98 307 -139
q-158 -67 -352 -114.5t-392 -47.5h-213q-42 -36 -56.5 -93zM646 1386.5q-41 40.5 -99 40.5t-99 -40.5t-41 -98.5t41 -99t99 -41t99 41t41 99t-41 98.5z" />
    <glyph glyph-name="uniFEA8" unicode="&#x62e;" horiz-adv-x="1382" arabic-form="medial" 
d="M-56.5 207q-14.5 -57 0 -114t56.5 -93h213q374 0 716 193l47 -76q25 -54 88 -85.5t138 -31.5h185v300h-185q-33 0 -58 11l-22 19q31 23 69 53q20 15 22 16l-11 230q-1 0 -65 35q-330 179 -489 248q-105 45 -211.5 31t-194 -82.5t-135.5 -180.5l-25 -57l257 -115l26 57
q11 29 35 56.5t60 39t80 -8.5q32 -14 110 -51q212 -98 307 -139q-158 -67 -352 -114.5t-392 -47.5h-213q-42 -36 -56.5 -93zM646 1386.5q-41 40.5 -99 40.5t-99 -40.5t-41 -98.5t41 -99t99 -41t99 41t41 99t-41 98.5z" />
    <glyph glyph-name="uniFEAA" unicode="&#x62f;" horiz-adv-x="1179" arabic-form="final" 
d="M557 0q120 0 196.5 44.5t114.5 121.5l8 -14q53 -73 126.5 -112.5t163.5 -39.5h13v300h-13q-38 0 -63.5 13t-42.5 45l-400 737l-247 -135l306 -562q13 -25 7.5 -52.5t-26.5 -46t-51 -18.5h-579v-281h487z" />
    <glyph glyph-name="uniFEAC" unicode="&#x630;" horiz-adv-x="1175" arabic-form="final" 
d="M557 0q120 0 196.5 44.5t114.5 121.5l8 -14q53 -73 126.5 -112.5t163.5 -39.5h13v300h-13q-38 0 -63.5 13t-42.5 45l-400 737l-247 -135l306 -562q13 -25 7.5 -52.5t-26.5 -46t-51 -18.5h-579v-281h487zM702 1515.5q-41 40.5 -99 40.5t-99 -40.5t-41 -98.5t41 -99t99 -41
t99 41t41 99t-41 98.5z" />
    <glyph glyph-name="uniFEAE" unicode="&#x631;" horiz-adv-x="861" arabic-form="final" 
d="M849 0h12v300h-12q-48 0 -89 25.5t-66 69t-25 94.5v244h-282v-653q0 -81 -40.5 -155.5t-109 -119.5t-149.5 -45h-97v-300h97q157 0 290.5 80.5t212 215t78.5 287.5v53q84 -96 180 -96z" />
    <glyph glyph-name="uniFEB0" unicode="&#x632;" horiz-adv-x="861" arabic-form="final" 
d="M849 0h12v300h-12q-48 0 -89 25.5t-66 69t-25 94.5v244h-282v-653q0 -81 -40.5 -155.5t-109 -119.5t-149.5 -45h-97v-300h97q157 0 290.5 80.5t212 215t78.5 287.5v53q84 -96 180 -96zM627 1188.5q-41 40.5 -99 40.5t-99 -40.5t-41 -98.5t41 -99t99 -41t99 41t41 99
t-41 98.5z" />
    <glyph glyph-name="uniFEB2" unicode="&#x633;" horiz-adv-x="2750" arabic-form="final" 
d="M2751 300h-97q-55 0 -94 39t-39 95v299h-282v-299q0 -57 -34 -95.5t-88 -38.5h-28q-54 0 -87.5 38.5t-33.5 95.5v299h-281v-299q0 -57 -34 -95.5t-88 -38.5h-27q-53 0 -88 39t-35 95v298h-281v-652q0 -86 -35.5 -159t-107.5 -117.5t-176 -44.5h-88q-103 0 -175 44.5
t-107.5 117.5t-35.5 159v454h-282v-492q0 -156 73.5 -289.5t210 -213.5t316.5 -80h88q175 0 309 75.5t209 202.5t82 278v26q47 -41 123 -41h27q160 0 262 146q102 -146 262 -146h28q168 0 266 143q101 -143 271 -143h97v300z" />
    <glyph glyph-name="uniFEB3" unicode="&#x633;" horiz-adv-x="1744" arabic-form="initial" 
d="M-56.5 207q-14.5 -57 0 -114t56.5 -93h96q171 0 273 142q99 -142 265 -142h27q160 0 262 146q102 -146 263 -146h27q113 0 205.5 55.5t145.5 151t53 208.5v358h-282v-339q0 -57 -33.5 -95.5t-88.5 -38.5h-27q-54 0 -88 38.5t-34 95.5v299h-281v-299q0 -57 -34 -95.5
t-88 -38.5h-27q-53 0 -88 38.5t-35 95.5v299h-281v-299q0 -56 -39 -95t-95 -39h-96q-42 -36 -56.5 -93z" />
    <glyph glyph-name="uniFEB4" unicode="&#x633;" horiz-adv-x="1847" arabic-form="medial" 
d="M-56.5 207q-14.5 -57 0 -114t56.5 -93h96q171 0 273 142q99 -142 265 -142h27q160 0 262 146q102 -146 263 -146h27q89 0 153.5 36.5t111.5 104.5q102 -141 273 -141h96v300h-96q-56 0 -95 39t-39 95v299h-282v-299q0 -57 -33.5 -95.5t-88.5 -38.5h-27q-54 0 -88 38.5
t-34 95.5v299h-281v-299q0 -57 -34 -95.5t-88 -38.5h-27q-53 0 -88 38.5t-35 95.5v299h-281v-299q0 -56 -39 -95t-95 -39h-96q-42 -36 -56.5 -93z" />
    <glyph glyph-name="uniFEB6" unicode="&#x634;" horiz-adv-x="2751" arabic-form="final" 
d="M2751 300h-97q-55 0 -94 39t-39 95v299h-282v-299q0 -57 -34 -95.5t-88 -38.5h-28q-54 0 -87.5 38.5t-33.5 95.5v299h-281v-299q0 -57 -34 -95.5t-88 -38.5h-27q-53 0 -88 39t-35 95v298h-281v-652q0 -86 -35.5 -159t-107.5 -117.5t-176 -44.5h-88q-103 0 -175 44.5
t-107.5 117.5t-35.5 159v454h-282v-492q0 -156 73.5 -289.5t210 -213.5t316.5 -80h88q175 0 309 75.5t209 202.5t82 278v26q47 -41 123 -41h27q160 0 262 146q102 -146 262 -146h28q168 0 266 143q101 -143 271 -143h97v300zM1750 1188.5q-41 40.5 -99 40.5t-99 -40.5
t-41 -98.5t41 -99t99 -41t99 41t41 99t-41 98.5zM2102 1188.5q-41 40.5 -99 40.5t-99 -40.5t-41 -98.5t41 -99t99 -41t99 41t41 99t-41 98.5zM1926 1486q-41 41 -99 41t-99 -41t-41 -99t41 -99t99 -41t99 41t41 99t-41 99z" />
    <glyph glyph-name="uniFEB7" unicode="&#x634;" horiz-adv-x="1744" arabic-form="initial" 
d="M-56.5 207q-14.5 -57 0 -114t56.5 -93h96q171 0 273 142q99 -142 265 -142h27q160 0 262 146q102 -146 263 -146h27q113 0 205.5 55.5t145.5 151t53 208.5v358h-282v-339q0 -57 -33.5 -95.5t-88.5 -38.5h-27q-54 0 -88 38.5t-34 95.5v299h-281v-299q0 -57 -34 -95.5
t-88 -38.5h-27q-53 0 -88 38.5t-35 95.5v299h-281v-299q0 -56 -39 -95t-95 -39h-96q-42 -36 -56.5 -93zM846 1188.5q-41 40.5 -99 40.5t-99 -40.5t-41 -98.5t41 -99t99 -41t99 41t41 99t-41 98.5zM1198 1188.5q-41 40.5 -99 40.5t-99 -40.5t-41 -98.5t41 -99t99 -41t99 41
t41 99t-41 98.5zM1022 1486q-41 41 -99 41t-99 -41t-41 -99t41 -99t99 -41t99 41t41 99t-41 99z" />
    <glyph glyph-name="uniFEB8" unicode="&#x634;" horiz-adv-x="1847" arabic-form="medial" 
d="M-56.5 207q-14.5 -57 0 -114t56.5 -93h96q171 0 273 142q99 -142 265 -142h27q160 0 262 146q102 -146 263 -146h27q89 0 153.5 36.5t111.5 104.5q102 -141 273 -141h96v300h-96q-56 0 -95 39t-39 95v299h-282v-299q0 -57 -33.5 -95.5t-88.5 -38.5h-27q-54 0 -88 38.5
t-34 95.5v299h-281v-299q0 -57 -34 -95.5t-88 -38.5h-27q-53 0 -88 38.5t-35 95.5v299h-281v-299q0 -56 -39 -95t-95 -39h-96q-42 -36 -56.5 -93zM846 1188.5q-41 40.5 -99 40.5t-99 -40.5t-41 -98.5t41 -99t99 -41t99 41t41 99t-41 98.5zM1198 1188.5q-41 40.5 -99 40.5
t-99 -40.5t-41 -98.5t41 -99t99 -41t99 41t41 99t-41 98.5zM1022 1486q-41 41 -99 41t-99 -41t-41 -99t41 -99t99 -41t99 41t41 99t-41 99z" />
    <glyph glyph-name="uniFEBA" unicode="&#x635;" horiz-adv-x="2739" arabic-form="final" 
d="M2245.5 30q84.5 30 149.5 85q71 -52 150.5 -83.5t179.5 -31.5h14v300h-13q-55 0 -96 8t-92 24q20 63 20 133q0 112 -50 221t-160.5 179.5t-281.5 64.5q-238 -9 -382.5 -204.5t-215.5 -399.5q-23 12 -38 36.5t-15 52.5v312h-281v-647q0 -86 -35.5 -159t-107.5 -117.5
t-176 -44.5h-88q-103 0 -175 44.5t-107.5 117.5t-35.5 159v454h-282v-492q0 -156 73.5 -289.5t210 -213.5t316.5 -80h88q180 0 316.5 80t210 213.5t73.5 289.5v30q108 -72 226 -72h424q96 0 180.5 30zM1891.5 539.5q78.5 105.5 184.5 109.5q89 1 145 -41t56 -143
q0 -85 -60.5 -125t-151.5 -40h-314q62 134 140.5 239.5z" />
    <glyph glyph-name="uniFEBB" unicode="&#x635;" horiz-adv-x="1725" arabic-form="initial" 
d="M942 539.5q79 105.5 184 109.5q90 1 145.5 -41t55.5 -143q0 -85 -60.5 -125t-151.5 -40h-314q62 134 141 239.5zM-56.5 207q-14.5 -57 0 -114t56.5 -93h50q172 0 275 144q103 -144 274 -144h516q139 0 252 60.5t177 167t64 237.5q0 112 -49.5 221t-160 179.5t-281.5 64.5
q-238 -9 -383 -204.5t-216 -399.5q-23 12 -37.5 36.5t-14.5 52.5v318h-282v-299q0 -56 -39 -95t-95 -39h-50q-42 -36 -56.5 -93z" />
    <glyph glyph-name="uniFEBC" unicode="&#x635;" horiz-adv-x="1788" arabic-form="medial" 
d="M942 539.5q79 105.5 184 109.5q90 1 145.5 -41t55.5 -143q0 -85 -60.5 -125t-151.5 -40h-314q62 134 141 239.5zM-56.5 207q-14.5 -57 0 -114t56.5 -93h50q172 0 275 144q103 -144 274 -144h516q96 0 180.5 30t149.5 85q72 -52 151 -83.5t180 -31.5h13v300h-13
q-54 0 -95.5 8t-92.5 24q20 63 20 133q0 112 -49.5 221t-160 179.5t-281.5 64.5q-238 -9 -383 -204.5t-216 -399.5q-23 12 -37.5 36.5t-14.5 52.5v318h-282v-299q0 -56 -39 -95t-95 -39h-50q-42 -36 -56.5 -93z" />
    <glyph glyph-name="uniFEBE" unicode="&#x636;" horiz-adv-x="2738" arabic-form="final" 
d="M2245.5 30q84.5 30 149.5 85q71 -52 150.5 -83.5t179.5 -31.5h14v300h-13q-55 0 -96 8t-92 24q20 63 20 133q0 112 -50 221t-160.5 179.5t-281.5 64.5q-238 -9 -382.5 -204.5t-215.5 -399.5q-23 12 -38 36.5t-15 52.5v312h-281v-647q0 -86 -35.5 -159t-107.5 -117.5
t-176 -44.5h-88q-103 0 -175 44.5t-107.5 117.5t-35.5 159v454h-282v-492q0 -156 73.5 -289.5t210 -213.5t316.5 -80h88q180 0 316.5 80t210 213.5t73.5 289.5v30q108 -72 226 -72h424q96 0 180.5 30zM1891.5 539.5q78.5 105.5 184.5 109.5q89 1 145 -41t56 -143
q0 -85 -60.5 -125t-151.5 -40h-314q62 134 140.5 239.5zM2141 1372.5q-41 40.5 -99 40.5t-99 -40.5t-41 -98.5t41 -99t99 -41t99 41t41 99t-41 98.5z" />
    <glyph glyph-name="uniFEBF" unicode="&#x636;" horiz-adv-x="1725" arabic-form="initial" 
d="M942 539.5q79 105.5 184 109.5q90 1 145.5 -41t55.5 -143q0 -85 -60.5 -125t-151.5 -40h-314q62 134 141 239.5zM-56.5 207q-14.5 -57 0 -114t56.5 -93h50q172 0 275 144q103 -144 274 -144h516q139 0 252 60.5t177 167t64 237.5q0 112 -49.5 221t-160 179.5t-281.5 64.5
q-238 -9 -383 -204.5t-216 -399.5q-23 12 -37.5 36.5t-14.5 52.5v318h-282v-299q0 -56 -39 -95t-95 -39h-50q-42 -36 -56.5 -93zM1205 1372.5q-41 40.5 -99 40.5t-99 -40.5t-41 -98.5t41 -99t99 -41t99 41t41 99t-41 98.5z" />
    <glyph glyph-name="uniFEC0" unicode="&#x636;" horiz-adv-x="1788" arabic-form="medial" 
d="M942 539.5q79 105.5 184 109.5q90 1 145.5 -41t55.5 -143q0 -85 -60.5 -125t-151.5 -40h-314q62 134 141 239.5zM-56.5 207q-14.5 -57 0 -114t56.5 -93h50q172 0 275 144q103 -144 274 -144h516q96 0 180.5 30t149.5 85q72 -52 151 -83.5t180 -31.5h13v300h-13
q-54 0 -95.5 8t-92.5 24q20 63 20 133q0 112 -49.5 221t-160 179.5t-281.5 64.5q-238 -9 -383 -204.5t-216 -399.5q-23 12 -37.5 36.5t-14.5 52.5v318h-282v-299q0 -56 -39 -95t-95 -39h-50q-42 -36 -56.5 -93zM1205 1372.5q-41 40.5 -99 40.5t-99 -40.5t-41 -98.5t41 -99
t99 -41t99 41t41 99t-41 98.5z" />
    <glyph glyph-name="uniFEC2" unicode="&#x637;" horiz-adv-x="1587" arabic-form="final" 
d="M1588 300h-13q-43 0 -78 7t-76 19q22 71 22 139q0 112 -51 222t-161.5 180.5t-278.5 62.5q-170 -7 -325 -165l12 197v486h-281v-1095q-6 -17 -15 -41l-4 -12h-212v-300h823q90 0 170 26.5t143 75.5q67 -46 142 -74t169 -28h14v300zM636 300q61 133 140.5 239t184.5 110
q89 3 145 -40t56 -144q0 -85 -60.5 -125t-151.5 -40h-314z" />
    <glyph glyph-name="uniFEC3" unicode="&#x637;" horiz-adv-x="1430" arabic-form="initial" 
d="M487 757l15 205v486h-281v-1120q-8 -17 -11 -28h-210q-41 -36 -56 -93t0 -114t56 -93h821q139 0 251.5 60.5t177 167t64.5 237.5q0 112 -51 222t-161.5 180.5t-278.5 62.5v0q-175 -7 -336 -173zM972.5 340q-60.5 -40 -151.5 -40h-314q62 134 141 239.5t184 109.5
q89 3 145 -40t56 -144v0q0 -85 -60.5 -125z" />
    <glyph glyph-name="uniFEC4" unicode="&#x637;" horiz-adv-x="1449" arabic-form="medial" 
d="M1367 306.5q-33 6.5 -75 18.5q23 68 22 140q0 112 -51 222t-161.5 180.5t-278.5 62.5q-175 -7 -336 -173l15 205v486h-281v-1120q-8 -17 -11 -28h-210q-41 -36 -56 -93t0 -114t56 -93h821q89 0 168 25.5t140 73.5q68 -45 141.5 -72t165.5 -27h13v300h-12q-37 0 -70 6.5z
M972.5 340q-60.5 -40 -151.5 -40h-314q62 134 141 239.5t184 109.5q89 3 145 -40t56 -144q0 -85 -60.5 -125z" />
    <glyph glyph-name="uniFEC6" unicode="&#x638;" horiz-adv-x="1587" arabic-form="final" 
d="M1588 300h-13q-43 0 -78 7t-76 19q22 71 22 139q0 112 -51 222t-161.5 180.5t-278.5 62.5q-170 -7 -325 -165l12 197v486h-281v-1095q-6 -17 -15 -41l-4 -12h-212v-300h823q90 0 170 26.5t143 75.5q67 -46 142 -74t169 -28h14v300zM636 300q61 133 140.5 239t184.5 110
q89 3 145 -40t56 -144q0 -85 -60.5 -125t-151.5 -40h-314zM1147 1372.5q-41 40.5 -99 40.5t-99 -40.5t-41 -98.5t41 -99t99 -41t99 41t41 99t-41 98.5z" />
    <glyph glyph-name="uniFEC7" unicode="&#x638;" horiz-adv-x="1430" arabic-form="initial" 
d="M487 757l15 205v486h-281v-1120q-8 -17 -11 -28h-210q-41 -36 -56 -93t0 -114t56 -93h821q139 0 251.5 60.5t177 167t64.5 237.5q0 112 -51 222t-161.5 180.5t-278.5 62.5v0q-175 -7 -336 -173zM972.5 340q-60.5 -40 -151.5 -40h-314q62 134 141 239.5t184 109.5
q89 3 145 -40t56 -144v0q0 -85 -60.5 -125zM1025 1372.5q-41 40.5 -99 40.5t-99 -40.5t-41 -98.5t41 -99t99 -41t99 41t41 99t-41 98.5z" />
    <glyph glyph-name="uniFEC8" unicode="&#x638;" horiz-adv-x="1449" arabic-form="medial" 
d="M1367 306.5q-33 6.5 -75 18.5q23 68 22 140q0 112 -51 222t-161.5 180.5t-278.5 62.5q-175 -7 -336 -173l15 205v486h-281v-1120q-8 -17 -11 -28h-210q-41 -36 -56 -93t0 -114t56 -93h821q89 0 168 25.5t140 73.5q68 -45 141.5 -72t165.5 -27h13v300h-12q-37 0 -70 6.5z
M972.5 340q-60.5 -40 -151.5 -40h-314q62 134 141 239.5t184 109.5q89 3 145 -40t56 -144q0 -85 -60.5 -125zM1025 1372.5q-41 40.5 -99 40.5t-99 -40.5t-41 -98.5t41 -99t99 -41t99 41t41 99t-41 98.5z" />
    <glyph glyph-name="uniFECA" unicode="&#x639;" horiz-adv-x="1336" arabic-form="final" 
d="M1099 -241h-454q-68 0 -124.5 28t-89.5 78t-33 114q0 74 51.5 119.5t146.5 91.5q8 3 22 10q32 16 41 21q79 -92 145.5 -140t127.5 -64.5t139 -16.5h265v300h-209q-79 0 -137 16.5t-81 42.5l215 248q60 71 69.5 157t-26.5 163t-108 124.5t-163 47.5h-577l-114 -291
l259 -394q-180 -85 -264 -188.5t-84 -246.5q0 -140 71.5 -259.5t193 -189.5t264.5 -70h454v299zM869 808q37 0 47 -26t-14 -56l-189 -227l-214 309h370z" />
    <glyph glyph-name="uniFECB" unicode="&#x639;" horiz-adv-x="1067" arabic-form="initial" 
d="M-56.5 207q-14.5 -57 0 -114t56.5 -93h945v300h-344q-79 9 -122 50t-43 107q0 75 42 130.5t118 61.5q64 6 125 -12.5t136 -68.5l57 282q-69 43 -153.5 66t-195.5 12q-117 -11 -210.5 -75.5t-146.5 -168t-53 -227.5q0 -87 49 -157h-204q-42 -36 -56.5 -93z" />
    <glyph glyph-name="uniFECC" unicode="&#x639;" horiz-adv-x="1233" arabic-form="medial" 
d="M765 635q38 0 48.5 -26t-13.5 -56l-189 -227l-215 309h369zM-56.5 207q-14.5 -57 0 -114t56.5 -93h314q124 0 193.5 18.5t89.5 39.5q11 -12 43.5 -25.5t93 -23t146.5 -9.5h353v300h-292q-9 0 -21.5 -2.5t-16.5 -6.5l119 143q59 71 68.5 157t-26.5 163t-107.5 124.5
t-163.5 47.5h-577l-114 -291l224 -344q-6 9 -29 9h-297q-42 -36 -56.5 -93z" />
    <glyph glyph-name="uniFECE" unicode="&#x63a;" horiz-adv-x="1336" arabic-form="final" 
d="M1099 -241h-454q-68 0 -124.5 28t-89.5 78t-33 114q0 74 51.5 119.5t146.5 91.5q8 3 22 10q32 16 41 21q79 -92 145.5 -140t127.5 -64.5t139 -16.5h265v300h-209q-79 0 -137 16.5t-81 42.5l215 248q60 71 69.5 157t-26.5 163t-108 124.5t-163 47.5h-577l-114 -291
l259 -394q-180 -85 -264 -188.5t-84 -246.5q0 -140 71.5 -259.5t193 -189.5t264.5 -70h454v299zM869 808q37 0 47 -26t-14 -56l-189 -227l-214 309h370zM815 1567.5q-41 40.5 -99 40.5t-99 -40.5t-41 -98.5t41 -99t99 -41t99 41t41 99t-41 98.5z" />
    <glyph glyph-name="uniFECF" unicode="&#x63a;" horiz-adv-x="1048" arabic-form="initial" 
d="M-56.5 207q-14.5 -57 0 -114t56.5 -93h945v300h-344q-79 9 -122 50t-43 107q0 75 42 130.5t118 61.5q64 6 125 -12.5t136 -68.5l57 282q-69 43 -153.5 66t-195.5 12q-117 -11 -210.5 -75.5t-146.5 -168t-53 -227.5q0 -87 49 -157h-204q-42 -36 -56.5 -93zM683 1366.5
q-41 40.5 -99 40.5t-99 -40.5t-41 -98.5t41 -99t99 -41t99 41t41 99t-41 98.5z" />
    <glyph glyph-name="uniFED0" unicode="&#x63a;" horiz-adv-x="1233" arabic-form="medial" 
d="M765 635q38 0 48.5 -26t-13.5 -56l-189 -227l-215 309h369zM-56.5 207q-14.5 -57 0 -114t56.5 -93h314q124 0 193.5 18.5t89.5 39.5q11 -12 43.5 -25.5t93 -23t146.5 -9.5h353v300h-292q-9 0 -21.5 -2.5t-16.5 -6.5l119 143q59 71 68.5 157t-26.5 163t-107.5 124.5
t-163.5 47.5h-577l-114 -291l224 -344q-6 9 -29 9h-297q-42 -36 -56.5 -93zM703 1381.5q-41 40.5 -99 40.5t-99 -40.5t-41 -98.5t41 -99t99 -41t99 41t41 99t-41 98.5z" />
    <glyph glyph-name="uniFED2" unicode="&#x641;" horiz-adv-x="1871" arabic-form="final" 
d="M1398 652.5q51 -33.5 51 -100.5q0 -134 -161 -252q-162 118 -162 252q0 67 51 100.5t111 33.5q59 0 110 -33.5zM1004 0q124 0 194 18.5t90 39.5q10 -12 43 -25.5t93.5 -23t145.5 -9.5h302v300h-235q40 44 66.5 110.5t26.5 141.5q0 115 -58.5 210.5t-160 150.5t-223.5 55
q-123 0 -224.5 -55t-160.5 -150.5t-59 -210.5q0 -75 26.5 -141.5t67.5 -110.5h-395q-56 0 -95 39t-39 95v339h-282v-376q0 -108 56 -199t151.5 -144.5t208.5 -53.5h461zM1387 1374.5q-41 40.5 -99 40.5t-99 -40.5t-41 -98.5t41 -99t99 -41t99 41t41 99t-41 98.5z" />
    <glyph glyph-name="uniFED4" unicode="&#x641;" horiz-adv-x="1169" arabic-form="medial" 
d="M695 652.5q51 -33.5 51 -100.5q0 -133 -161 -252q-162 118 -162 252q0 67 51 100.5t111 33.5q59 0 110 -33.5zM-56.5 207q-14.5 -57 0 -114t56.5 -93h302q124 0 193.5 18.5t89.5 39.5q19 -21 89 -39.5t193 -18.5h302v300h-234q40 45 66 111t26 141q0 115 -58.5 210.5
t-160 150.5t-223.5 55q-123 0 -224.5 -55t-160 -150.5t-58.5 -210.5q-1 -75 25.5 -141.5t67.5 -110.5h-235q-42 -36 -56.5 -93zM684 1374.5q-41 40.5 -99 40.5t-99 -40.5t-41 -98.5t41 -99t99 -41t99 41t41 99t-41 98.5z" />
    <glyph glyph-name="uniFED6" unicode="&#x642;" horiz-adv-x="1750" arabic-form="final" 
d="M1136 301q-92 0 -123.5 29.5t-31.5 91.5q0 69 35 131.5t120 62.5q87 0 121.5 -59.5t34.5 -134.5v-121h-156zM1750 300h-176v122q0 138 -55.5 246.5t-155 168.5t-227.5 60q-125 0 -224.5 -61t-156 -169.5t-56.5 -244.5q0 -200 105.5 -310.5t331.5 -110.5h153
q-2 -109 -73 -174.5t-184 -65.5h-305q-103 0 -175 44t-107.5 117t-35.5 159v455h-282v-493q0 -156 74 -289.5t210 -213t317 -79.5h304q135 0 258 73.5t200.5 197.5t82.5 268h177v300zM1060 1302.5q-41 40.5 -99 40.5t-99 -40.5t-41 -98.5t41 -99t99 -41t99 41t41 99
t-41 98.5zM1412 1302.5q-41 40.5 -99 40.5t-99 -40.5t-41 -98.5t41 -99t99 -41t99 41t41 99t-41 98.5z" />
    <glyph glyph-name="uniFED8" unicode="&#x642;" horiz-adv-x="1169" arabic-form="medial" 
d="M695 652.5q51 -33.5 51 -100.5q0 -133 -161 -252q-162 118 -162 252q0 67 51 100.5t111 33.5q59 0 110 -33.5zM-56.5 207q-14.5 -57 0 -114t56.5 -93h302q124 0 193.5 18.5t89.5 39.5q19 -21 89 -39.5t193 -18.5h302v300h-234q40 45 66 111t26 141q0 115 -58.5 210.5
t-160 150.5t-223.5 55q-123 0 -224.5 -55t-160 -150.5t-58.5 -210.5q-1 -75 25.5 -141.5t67.5 -110.5h-235q-42 -36 -56.5 -93zM508 1401.5q-41 40.5 -99 40.5t-99 -40.5t-41 -98.5t41 -99t99 -41t99 41t41 99t-41 98.5zM860 1401.5q-41 40.5 -99 40.5t-99 -40.5t-41 -98.5
t41 -99t99 -41t99 41t41 99t-41 98.5z" />
    <glyph glyph-name="uniFEDA" unicode="&#x643;" horiz-adv-x="1810" arabic-form="final" 
d="M1471 144q103 -144 274 -144h65v300h-65q-55 0 -94.5 39t-39.5 95v1014h-281v-1014q0 -56 -39.5 -95t-94.5 -39h-653q-56 0 -95 39t-39 95v339h-282v-376q0 -108 56 -199t151.5 -144.5t208.5 -53.5h653q172 0 275 144zM661 631l470 180l-54 143l-149 -57q-51 -6 -85 16
t-33 70q0 35 21 65t58 30q26 1 49.5 -7t53.5 -23q7 -3 10 -4l39 143q-43 23 -77 33.5t-75 10.5q-68 0 -121 -36t-82 -93.5t-29 -118.5q0 -46 20.5 -89.5t59.5 -69.5l-130 -50z" />
    <glyph glyph-name="uniFEDB" unicode="&#x643;" horiz-adv-x="1084" arabic-form="initial" 
d="M-56.5 207q-14.5 -57 0 -114t56.5 -93h597q115 0 202.5 61t129 158t25.5 202t-95 188l-403 421l537 206l-99 263l-736 -281v-282l479 -502q23 -25 22.5 -56.5t-22.5 -54.5t-57 -23h-580q-42 -36 -56.5 -93z" />
    <glyph glyph-name="uniFEDC" unicode="&#x643;" horiz-adv-x="1207" arabic-form="medial" 
d="M-56.5 207q-14.5 -57 0 -114t56.5 -93h505q134 0 225 54.5t132 142.5l80 -85q53 -54 120.5 -83t142.5 -29h7v300h-7q-53 0 -77 25l-672 705l537 206l-99 263l-736 -281v-282l480 -503q22 -25 21 -56.5t-22.5 -54t-56.5 -22.5h-580q-42 -36 -56.5 -93z" />
    <glyph glyph-name="uniFEDE" unicode="&#x644;" horiz-adv-x="1609" arabic-form="final" 
d="M815 -541q180 0 316 79t209.5 212t74.5 288v27q65 -65 134 -65h60v300h-60q-55 0 -94.5 39t-39.5 95v1014h-281v-1368q0 -86 -35.5 -159t-107.5 -117.5t-176 -44.5h-88q-103 0 -175 44.5t-107.5 117.5t-35.5 159v437h-282v-475q0 -156 73.5 -289.5t210 -213.5t316.5 -80
h88z" />
    <glyph glyph-name="uniFEDF" unicode="&#x644;" horiz-adv-x="699" arabic-form="initial" 
d="M-56.5 207q-14.5 -57 0 -114t56.5 -93h113q113 0 208.5 56t151 151t55.5 208v1033h-281v-1014q0 -56 -39.5 -95t-94.5 -39h-113q-42 -36 -56.5 -93z" />
    <glyph glyph-name="uniFEE0" unicode="&#x644;" horiz-adv-x="722" arabic-form="medial" 
d="M-56.5 207q-14.5 -57 0 -114t56.5 -93h113q172 0 275 144q103 -144 274 -144h60v300h-60q-55 0 -94.5 39t-39.5 95v1014h-281v-1014q0 -56 -39.5 -95t-94.5 -39h-113q-42 -36 -56.5 -93z" />
    <glyph glyph-name="uniFEE2" unicode="&#x645;" horiz-adv-x="1636" arabic-form="final" 
d="M1637 300h-28q-54 0 -94 42.5t-41 98.5v8q0 135 -55.5 240t-155.5 163t-229 58h-454q-124 0 -227.5 -60.5t-164.5 -164.5t-61 -227v-999h282v999q0 71 49.5 121t121.5 50h32q-4 -73 -4 -179q-1 -140 48.5 -244.5t145.5 -161.5t230 -57q202 0 306 160q104 -147 271 -147
h28v300zM1155.5 576.5q37.5 -50.5 38.5 -127.5q0 -104 -50 -142.5t-112 -38.5q-84 0 -123 50t-38 130v181h161q86 -2 123.5 -52.5z" />
    <glyph glyph-name="uniFEE3" unicode="&#x645;" horiz-adv-x="1163" arabic-form="initial" 
d="M715.5 306.5q-50.5 -37.5 -110.5 -37.5q-84 0 -123 50t-39 131q1 87 41.5 134t120.5 48q85 -1 123 -52.5t38 -128.5v0q0 -107 -50.5 -144.5zM367 852q-100 -60 -151.5 -164.5t-52.5 -236.5v-9q-1 -56 -41 -99t-94 -43h-28q-41 -36 -56 -93t0 -114t56 -93h28q88 0 154 38
t116 109q51 -77 125.5 -118.5t181.5 -41.5q127 0 228 58.5t157.5 164t56.5 241.5q0 133 -56 237.5t-156 164t-229 60.5v0q-139 -1 -239 -61z" />
    <glyph glyph-name="uniFEE4" unicode="&#x645;" horiz-adv-x="1208" arabic-form="medial" 
d="M715.5 306.5q-50.5 -37.5 -110.5 -37.5q-84 0 -123 50t-39 131q1 87 41.5 134t120.5 48q85 -1 123 -52.5t38 -128.5v0q0 -107 -50.5 -144.5zM1087 343q-40 43 -41 99v8q0 134 -55.5 238.5t-155.5 163.5t-229 61q-138 -1 -238 -63.5t-152 -167.5t-53 -231v-9
q0 -56 -40.5 -99t-94.5 -43h-28q-41 -36 -56 -93t0 -114t56 -93h28q88 0 154 38t116 109q51 -77 125.5 -118.5t181.5 -41.5q104 0 178.5 41t126.5 120q103 -148 271 -148h28v300h-28q-54 0 -94 43z" />
    <glyph glyph-name="uniFEE6" unicode="&#x646;" horiz-adv-x="1609" arabic-form="final" 
d="M815 -541q180 0 316 79t209.5 212t74.5 288v27q64 -65 134 -65h60v300h-60q-55 0 -94.5 39t-39.5 95v293h-281v-647q0 -86 -35.5 -159t-107.5 -117.5t-176 -44.5h-88q-103 0 -175 44.5t-107.5 117.5t-35.5 159v454h-282v-492q0 -156 73.5 -289.5t210 -213.5t316.5 -80h88
zM816 956.5q-41 40.5 -99 40.5t-99 -40.5t-41 -98.5t41 -99t99 -41t99 41t41 99t-41 98.5z" />
    <glyph glyph-name="uniFEE7" unicode="&#x646;" horiz-adv-x="733" arabic-form="initial" 
d="M-56.5 207q-14.5 -57 0 -114t56.5 -93h189q113 0 208.5 53.5t151.5 144.5t56 199v376h-282v-339q0 -56 -39 -95t-95 -39h-189q-42 -36 -56.5 -93zM473 1227.5q-41 40.5 -99 40.5t-99 -40.5t-41 -98.5t41 -99t99 -41t99 41t41 99t-41 98.5z" />
    <glyph glyph-name="uniFEE8" unicode="&#x646;" horiz-adv-x="798" arabic-form="medial" 
d="M-56.5 207q-14.5 -57 0 -114t56.5 -93h189q172 0 275 144q103 -144 274 -144h60v300h-60q-55 0 -94 39t-39 95v299h-282v-299q0 -56 -39 -95t-95 -39h-189q-42 -36 -56.5 -93zM473 1185.5q-41 40.5 -99 40.5t-99 -40.5t-41 -98.5t41 -99t99 -41t99 41t41 99t-41 98.5z
" />
    <glyph glyph-name="uniFEEA" unicode="&#x647;" horiz-adv-x="1213" arabic-form="final" 
d="M947.5 48q77.5 -48 172.5 -48h93v300h-95q-39 0 -69.5 26t-35.5 65l-107 731l-279 -40l15 -104q-168 -15 -291.5 -90.5t-186 -198t-51.5 -275.5q8 -112 73 -192t168.5 -114t226 -13.5t239.5 100.5q50 -99 127.5 -147zM723 417q-83 -54 -158 -63t-121.5 16.5t-49.5 65.5
q-9 121 69.5 188t218.5 74z" />
    <glyph glyph-name="uniFEEB" unicode="&#x647;" horiz-adv-x="1664" arabic-form="initial" 
d="M695 652.5q51 -33.5 51 -100.5q0 -133 -161 -252q-162 118 -162 252q0 67 51 100.5t111 33.5q59 0 110 -33.5zM1191 0q106 0 191 54.5t131 144t39.5 191t-73.5 189.5l-397 521l-223 -171l382 -502q18 -24 15 -54t-24.5 -51.5t-54.5 -21.5h-242q40 45 66 111t26 141
q0 115 -58.5 210.5t-160 150.5t-223.5 55q-123 0 -224.5 -55t-160 -150.5t-58.5 -210.5q-1 -75 25.5 -141.5t67.5 -110.5h-235q-42 -36 -56.5 -93t0 -114t56.5 -93h302q124 0 193.5 18.5t89.5 39.5q19 -21 89 -39.5t193 -18.5h324z" />
    <glyph glyph-name="uniFEEC" unicode="&#x647;" horiz-adv-x="1296" arabic-form="medial" 
d="M440 440q1 90 43 137t117 45q92 -1 127 -49t35 -100q1 -71 -54 -131.5t-152 -60.5h-115zM-56.5 207q-14.5 -57 0 -114t56.5 -93h160q0 -169 78.5 -286.5t205 -176t269.5 -59.5h156l124 277q56 126 133 185.5t165 59.5h5v300h-5q-104 0 -204 -53.5t-176 -135t-114 -163.5
l-84 -181q-143 -3 -207.5 65.5t-64.5 167.5h115q137 0 249.5 64.5t176 174t62.5 236.5q-2 121 -59 218t-156.5 153t-224.5 58q-130 2 -231 -57.5t-157 -166t-57 -240.5l1 -140h-160q-42 -36 -56.5 -93z" />
    <glyph glyph-name="uniFEEE" unicode="&#x648;" horiz-adv-x="1159" arabic-form="final" 
d="M560 300q-92 0 -123.5 30t-31.5 91q0 69 35 131.5t120 62.5q87 0 121.5 -59t34.5 -135v-121h-156zM642 -173.5q-71 -66.5 -180 -66.5h-334v-300h334q132 0 254 73t199 197.5t82 269.5h160v300h-159v121q0 139 -55.5 247t-155 168t-227.5 60q-125 0 -224.5 -61
t-156 -169.5t-56.5 -244.5q0 -199 105.5 -310t331.5 -111h153q0 -107 -71 -173.5z" />
    <glyph glyph-name="uniFEF2" unicode="&#x64a;" horiz-adv-x="1719" arabic-form="final" 
d="M1720 300h-973v-281h381q49 -1 69.5 -27t20.5 -67q-3 -73 -76 -119.5t-191 -46.5h-241q-150 0 -226 86.5t-75 217.5v471h-282v-509q0 -155 70 -284t202.5 -205.5t310.5 -76.5h241q175 0 297.5 71t182.5 177t60 211q0 48 -14 82h243v300zM751 -757q-41 41 -99 41t-99 -41
t-41 -99t41 -98.5t99 -40.5t99 40.5t41 98.5t-41 99zM1103 -757q-41 41 -99 41t-99 -41t-41 -99t41 -98.5t99 -40.5t99 40.5t41 98.5t-41 99z" />
    <glyph glyph-name=".notdef" horiz-adv-x="1300" 
d="M1193 0v1400h-1086v-1400h1086zM336 1171h628v-942h-628v942z" />
    <glyph glyph-name=".null" horiz-adv-x="0" 
 />
    <glyph glyph-name="uni000D" unicode="&#xd;" horiz-adv-x="0" 
 />
    <glyph glyph-name="space" unicode=" " horiz-adv-x="442" 
 />
    <glyph glyph-name="exclam" unicode="!" horiz-adv-x="587" 
d="M444 388l13 673v371h-326v-371l14 -673h299zM464 0v248h-341v-248h341z" />
    <glyph glyph-name="quotedbl" unicode="&#x22;" horiz-adv-x="822" 
d="M711 966l29 466h-270v-466h241zM323 966l30 466h-270v-466h240z" />
    <glyph glyph-name="numbersign" unicode="#" horiz-adv-x="1529" 
d="M408 0l107 356h291l-106 -356h279l106 356h272v224h-205l84 274h211v226h-144l107 352h-280l-107 -352h-290l107 352h-281l-108 -352h-277v-226h211l-83 -274h-219v-224h152l-106 -356h279zM665 854h291l-83 -274h-291z" />
    <glyph glyph-name="dollar" unicode="$" horiz-adv-x="1205" 
d="M688 536.5q103 -43.5 102 -138.5q-2 -172 -250 -172q-221 4 -434 95v-261q145 -65 364 -77v-174h286v193q366 74 367 397q0 114 -34 198.5t-126.5 146t-276.5 111.5q-148 39 -210 76t-62 108q0 158 262 164q167 5 369 -72v262q-106 36 -289 51v180h-286v-184
q-388 -59 -387 -403q0 -161 80.5 -257.5t300.5 -162.5q121 -37 224 -80.5z" />
    <glyph glyph-name="percent" unicode="%" horiz-adv-x="1626" 
d="M629 870q82 89 82 233q0 165 -81 258t-233 93t-233 -93t-81 -258q0 -144 82 -233t232 -89t232 89zM605 0l721 1432h-308l-720 -1432h307zM258 1110q0 85 35 126t104 41t103.5 -41t34.5 -126q0 -75 -34 -113t-104 -38q-139 0 -139 151zM1461.5 67q82.5 89 82.5 233
q0 165 -81 258t-234 93q-152 0 -233 -93t-81 -258q0 -144 82.5 -233t231.5 -89q150 0 232.5 89zM1091 306q0 86 34.5 127t103.5 41q70 0 104.5 -41t34.5 -127q0 -74 -34 -112.5t-105 -38.5q-138 0 -138 151z" />
    <glyph glyph-name="ampersand" unicode="&#x26;" horiz-adv-x="1471" 
d="M855.5 16.5q114.5 38.5 186.5 111.5l150 -159l200 190l-128 135q90 125 89 307v51h-243v-42q1 -80 -27 -130l-267 283q103 81 150 158.5t47 184.5q0 166 -111.5 259.5t-285.5 88.5q-394 -8 -396 -348q0 -87 43.5 -159t114.5 -145q-291 -152 -295 -425q-9 -398 521 -399
q137 0 251.5 38.5zM715.5 982.5q-36.5 -43.5 -105.5 -86.5q-58 52 -93 98t-35 98q0 59 34 98t104 39q66 0 99 -37t33 -100q0 -66 -36.5 -109.5zM395 376q-1 131 180 221l269 -285q-75 -99 -240 -99q-209 4 -209 163z" />
    <glyph glyph-name="quotesingle" unicode="'" horiz-adv-x="436" 
d="M323 966l30 466h-270v-466h240z" />
    <glyph glyph-name="parenleft" unicode="(" horiz-adv-x="769" 
d="M730 -160q-316 297 -316 834q0 543 316 834h-371q-140 -139 -208 -359t-68 -475q0 -257 68 -474.5t208 -359.5h371z" />
    <glyph glyph-name="parenright" unicode=")" horiz-adv-x="769" 
d="M410 -160q140 142 208 359.5t68 474.5q0 255 -68 475t-208 359h-370q315 -291 315 -834q0 -537 -315 -834h370z" />
    <glyph glyph-name="asterisk" unicode="*" horiz-adv-x="958" 
d="M479 895l156 -219l186 144l-176 191l230 100l-96 208l-189 -104l11 217h-244l11 -217l-188 104l-97 -208l229 -99l-175 -192l186 -144z" />
    <glyph glyph-name="plus" unicode="+" horiz-adv-x="1018" 
d="M635 196v286h300v264h-300v293h-254v-293h-298v-264h298v-286h254z" />
    <glyph glyph-name="comma" unicode="," horiz-adv-x="509" 
d="M315 -267l112 466h-277l-67 -466h232z" />
    <glyph glyph-name="hyphen" unicode="-" horiz-adv-x="992" 
d="M910 482v264h-827v-264h827z" />
    <glyph glyph-name="period" unicode="." horiz-adv-x="497" 
d="M382 0v255h-266v-255h266z" />
    <glyph glyph-name="slash" unicode="/" horiz-adv-x="996" 
d="M415 0l498 1472h-332l-498 -1472h332z" />
    <glyph glyph-name="zero" unicode="0" horiz-adv-x="1426" 
d="M1189.5 164.5q154.5 186.5 154.5 537.5q0 377 -150 565.5t-480 186.5q-224 0 -363 -85t-203.5 -251t-64.5 -416q0 -351 154.5 -537.5t476.5 -186.5q321 0 475.5 186.5zM485.5 383q-71.5 112 -71.5 319q0 115 15 199.5t50.5 142t93.5 88t141 30.5q82 0 140 -30.5t93.5 -88
t50.5 -142t15 -199.5q0 -207 -71.5 -319t-227.5 -112q-157 0 -228.5 112z" />
    <glyph glyph-name="one" unicode="1" horiz-adv-x="757" 
d="M633 0v1454l-550 -84v-287l224 38v-1121h326z" />
    <glyph glyph-name="two" unicode="2" horiz-adv-x="1122" 
d="M1040 0v264h-524q26 60 73.5 114t122.5 124q16 17 35 31q19 17 29 28q130 117 191 218.5t61 245.5q0 202 -124.5 315.5t-364.5 113.5q-112 0 -221.5 -20t-188.5 -55v-287q166 70 334 70q116 0 174.5 -52t58.5 -141q0 -84 -51 -158.5t-153 -165.5q-33 -31 -61 -57
q-124 -113 -209.5 -211.5t-138.5 -214.5v-162h957z" />
    <glyph glyph-name="three" unicode="3" horiz-adv-x="1146" 
d="M913 87.5q151 109.5 151 324.5q0 122 -53.5 199t-148.5 113q85 46 130 134t45 194q0 178 -137.5 290t-390.5 112q-108 0 -218 -20.5t-186 -53.5v-262q165 75 345 75q131 0 193.5 -44.5t62.5 -128.5q0 -90 -53 -137.5t-164 -47.5h-184l-23 -224h221q111 0 170.5 -44
t59.5 -132q0 -102 -69 -149t-209 -47q-93 0 -190 18.5t-182 56.5v-263q72 -29 200 -51t222 -22q257 0 408 109.5z" />
    <glyph glyph-name="four" unicode="4" horiz-adv-x="1187" 
d="M1016 0v290h131v277h-131v865h-284l-692 -913v-229h650v-290h326zM746 1058v-505h-394z" />
    <glyph glyph-name="five" unicode="5" horiz-adv-x="1130" 
d="M908 103q140 125 140 343q0 229 -121.5 337.5t-357.5 105.5h-190l18 279h538l23 264h-839l-36 -615v-158h405q127 0 178 -47t51 -154q0 -104 -66.5 -160t-200.5 -56q-82 0 -185 20.5t-176 51.5v-265q75 -33 193 -52t217 -19q269 0 409 125z" />
    <glyph glyph-name="six" unicode="6" horiz-adv-x="1262" 
d="M1045.5 109.5q134.5 131.5 134.5 361.5q0 232 -117 349.5t-360 117.5q-80 0 -166 -24t-149 -69v68q0 123 90 207t249 84q189 0 320 -58v253q-73 30 -157.5 42.5t-195.5 12.5q-282 0 -446.5 -171t-164.5 -440v-295q0 -287 137.5 -428.5t413.5 -141.5q277 0 411.5 131.5z
M449 282q-61 64 -61 203v129q56 40 123 62.5t129 22.5q133 0 190.5 -60.5t57.5 -179.5q0 -114 -64 -177.5t-188 -63.5q-126 0 -187 64z" />
    <glyph glyph-name="seven" unicode="7" horiz-adv-x="1083" 
d="M524 0l498 1229v203h-961v-264h599l-474 -1168h338z" />
    <glyph glyph-name="eight" unicode="8" horiz-adv-x="1304" 
d="M1081 85q140 107 140 320q0 114 -53 195.5t-160 126.5q91 45 134.5 126t43.5 177q0 132 -55 227t-173 146t-307 51q-271 0 -402 -111t-131 -313q0 -92 43 -169t129 -119q-98 -41 -152.5 -132.5t-54.5 -204.5q0 -213 141 -320t427 -107q290 0 430 107zM573 846
q-146 28 -146 177q0 93 57 142t167 49q112 0 169 -49.5t57 -141.5q0 -82 -41 -131t-130 -74zM392 422q0 91 46.5 140.5t133.5 70.5l157 -33q98 -22 140.5 -64.5t42.5 -124.5q0 -95 -65 -144t-196 -49q-259 0 -259 204z" />
    <glyph glyph-name="nine" unicode="9" horiz-adv-x="1262" 
d="M1019.5 152q160.5 174 160.5 438v295q0 292 -131 430.5t-416 138.5q-274 0 -411.5 -133t-138.5 -364q0 -232 119 -350t361 -118q166 0 312 93v-65q0 -122 -86 -205t-249 -83q-194 0 -322 54v-253q74 -27 159.5 -39.5t195.5 -12.5q286 0 446.5 174zM437 785.5
q-62 57.5 -63 183.5q0 116 66 180.5t191 64.5q128 0 186 -64t58 -203v-134q-56 -40 -119 -62.5t-131 -22.5q-126 0 -188 57.5z" />
    <glyph glyph-name="colon" unicode=":" horiz-adv-x="497" 
d="M381 714v260h-265v-260h265zM381 48v260h-265v-260h265z" />
    <glyph glyph-name="semicolon" unicode=";" horiz-adv-x="511" 
d="M425 714v260h-266v-260h266zM315 -235l112 466h-277l-67 -466h232z" />
    <glyph glyph-name="less" unicode="&#x3c;" horiz-adv-x="1176" 
d="M1093 387l-666 295l666 296v318l-1010 -473v-281l1010 -473v318z" />
    <glyph glyph-name="equal" unicode="=" horiz-adv-x="998" 
d="M916 685v237h-833v-237h833zM916 301v239h-833v-239h833z" />
    <glyph glyph-name="greater" unicode="&#x3e;" horiz-adv-x="1176" 
d="M1093 542v281l-1010 473v-318l665 -296l-665 -295v-318z" />
    <glyph glyph-name="question" unicode="?" horiz-adv-x="1084" 
d="M611 390v31q0 70 59 132t143 130q104 87 146.5 165.5t42.5 194.5q0 196 -128.5 303.5t-372.5 107.5q-249 0 -418 -91v-242q125 83 328 84q260 0 260 -200q0 -78 -41 -125t-128 -121q-79 -65 -135 -133.5t-55 -193.5v-42h299zM632 0v248h-340v-248h340z" />
    <glyph glyph-name="at" unicode="@" horiz-adv-x="1639" 
d="M1203 -254v196q-136 -42 -368 -42q-254 0 -391.5 123t-137.5 392q0 286 140 422.5t416 136.5q236 0 354 -106.5t118 -317.5q0 -141 -36.5 -205t-111.5 -64v260q0 164 -79 237.5t-252 73.5q-84 0 -163.5 -13t-134.5 -37v-141q122 43 250 43q76 0 116.5 -14.5t57 -42
t16.5 -81.5v-45h-225q-310 0 -310 -255q0 -126 76.5 -187.5t197.5 -61.5q182 0 293 95h104q212 0 318 117t106 336q0 287 -182.5 445t-512.5 158q-367 0 -573 -185.5t-206 -564.5q0 -364 203 -538t553 -174q190 0 364 40zM707 183.5q-36 26.5 -36 83.5q0 63 34 92.5
t117 29.5h175v-145q-36 -45 -81 -66t-106 -21q-67 0 -103 26.5z" />
    <glyph glyph-name="A" unicode="A" horiz-adv-x="1563" 
d="M422 0l124 340h473l124 -340h338l-523 1432h-352l-523 -1432h339zM781 1108l196 -529h-391z" />
    <glyph glyph-name="B" unicode="B" horiz-adv-x="1381" 
d="M862 0q215 0 328.5 108t113.5 313q0 131 -52 204.5t-152 107.5q153 93 153 309q0 191 -104 290.5t-311 99.5h-713v-1432h737zM433 1194h320q108 0 152 -44.5t44 -136.5q0 -173 -178 -176h-338v357zM433 618h332q68 0 114.5 -17.5t70.5 -57.5t23 -106q0 -105 -47 -152
t-146 -47h-347v380z" />
    <glyph glyph-name="C" unicode="C" horiz-adv-x="1306" 
d="M1029 -5.5q99 16.5 196 51.5v300q-183 -78 -388 -78q-210 0 -316 107q-105 104 -107 322q0 234 100.5 350.5t317.5 116.5q210 0 390 -81v300q-90 36 -190 53.5t-222 17.5q-369 0 -548 -195t-179 -562q0 -347 182.5 -533t546.5 -186q118 0 217 16.5z" />
    <glyph glyph-name="D" unicode="D" horiz-adv-x="1425" 
d="M712 0q322 0 479 169.5t157 536.5q0 259 -71.5 419t-212.5 233.5t-352 73.5h-587v-1432h587zM451 1150h217q142 0 216.5 -46t104 -139.5t29.5 -258.5q0 -134 -22.5 -222t-65.5 -135t-107 -66t-155 -19h-217v886z" />
    <glyph glyph-name="E" unicode="E" horiz-adv-x="1188" 
d="M1127 0v251h-676v336h598v259h-598v335h676v251h-1002v-1432h1002z" />
    <glyph glyph-name="F" unicode="F" horiz-adv-x="1149" 
d="M451 0v587h581v259h-581v335h660v251h-986v-1432h326z" />
    <glyph glyph-name="G" unicode="G" horiz-adv-x="1414" 
d="M1105.5 13.5q129.5 35.5 213.5 89.5v708h-579v-215h305v-289q-110 -39 -242 -39q-141 0 -224 56t-110 182q-55 166 2 323q29 162 117 249.5t256 85.5q224 0 395 -63v294q-174 59 -418 59q-371 0 -554.5 -196t-183.5 -561q0 -345 181 -532t537 -187q175 0 304.5 35.5z" />
    <glyph glyph-name="H" unicode="H" horiz-adv-x="1457" 
d="M451 0v558h555v-558h326v1432h-326v-557h-555v557h-326v-1432h326z" />
    <glyph glyph-name="I" unicode="I" horiz-adv-x="577" 
d="M451 0v1432h-326v-1432h326z" />
    <glyph glyph-name="J" unicode="J" horiz-adv-x="949" 
d="M710 89.5q124 111.5 124 333.5v1009h-326v-932q0 -123 -53 -176.5t-179 -53.5q-142 0 -247 47v-287q136 -52 313 -52q244 0 368 111.5z" />
    <glyph glyph-name="K" unicode="K" horiz-adv-x="1403" 
d="M451 0v440l168 192l375 -632h347l-520 849l492 583h-373l-489 -569v569h-326v-1432h326z" />
    <glyph glyph-name="L" unicode="L" horiz-adv-x="1152" 
d="M1106 0v264h-655v1168h-326v-1432h981z" />
    <glyph glyph-name="M" unicode="M" horiz-adv-x="1658" 
d="M451 0v856l288 -609h181l287 609v-856h326v1432h-323l-380 -811l-382 811h-323v-1432h326z" />
    <glyph glyph-name="N" unicode="N" horiz-adv-x="1462" 
d="M451 0v884l603 -884h281v1432h-326v-884l-604 884h-280v-1432h326z" />
    <glyph glyph-name="O" unicode="O" horiz-adv-x="1520" 
d="M1267 159.5q171 181.5 171 551.5q0 389 -168.5 566t-508.5 177q-341 0 -509.5 -177t-168.5 -566q0 -370 171 -551.5t507 -181.5q335 0 506 181.5zM498 377q-84 108 -84 334q0 166 37 264.5t112.5 143t197.5 44.5q121 0 196.5 -44.5t112.5 -143t37 -264.5q0 -226 -84 -334
t-262 -108q-179 0 -263 108z" />
    <glyph glyph-name="P" unicode="P" horiz-adv-x="1309" 
d="M451 0v427h329q148 0 259 63t170 176.5t59 260.5q0 227 -121 366t-358 139h-664v-1432h326zM451 1162h269q110 0 164 -59.5t54 -175.5q0 -107 -58 -168t-169 -61h-260v464z" />
    <glyph glyph-name="Q" unicode="Q" horiz-adv-x="1520" 
d="M1180 -352v199q-78 -25 -152 -25q-75 0 -109.5 38t-39.5 126q279 26 419 206t140 519q0 389 -168.5 566t-508.5 177q-341 0 -509.5 -177t-168.5 -566q0 -322 130 -504.5t400 -217.5q4 -173 84 -272.5t255 -99.5q126 0 228 31zM498 377q-84 108 -84 334q0 166 37 264.5
t112.5 143t197.5 44.5q121 0 196.5 -44.5t112.5 -143t37 -264.5q0 -226 -84 -334t-262 -108q-179 0 -263 108z" />
    <glyph glyph-name="R" unicode="R" horiz-adv-x="1354" 
d="M451 0v464h160q70 0 100 -19.5t51 -72.5l156 -372h339l-174 419q-18 43 -36 67t-50 41q128 55 199.5 162.5t71.5 258.5q0 222 -116.5 353t-349.5 131h-677v-1432h326zM451 1162h283q103 0 153.5 -52t50.5 -162q0 -213 -221 -213h-266v427z" />
    <glyph glyph-name="S" unicode="S" horiz-adv-x="1205" 
d="M979 87q144 109 144 312q0 123 -35.5 204.5t-126 142.5t-255.5 104q-31 8 -67 18q-131 38 -178 72.5t-47 98.5q0 88 78.5 127t198.5 38q181 0 354 -73v262q-70 24 -189.5 42.5t-222.5 18.5q-277 0 -413.5 -107.5t-136.5 -309.5q0 -169 84 -259.5t299 -160.5
q67 -18 134 -41q102 -37 146 -76t44 -102q0 -170 -263 -172q-104 0 -215.5 27t-205.5 68v-261q84 -39 201 -60.5t252 -21.5q276 0 420 109z" />
    <glyph glyph-name="T" unicode="T" horiz-adv-x="1235" 
d="M781 0v1181h407v251h-1142v-251h409v-1181h326z" />
    <glyph glyph-name="U" unicode="U" horiz-adv-x="1479" 
d="M1196 124.5q168 146.5 168 419.5v888h-326v-858q0 -152 -76 -228t-223 -76q-145 0 -221.5 76t-76.5 228v858h-326v-888q0 -273 168 -419.5t456 -146.5q289 0 457 146.5z" />
    <glyph glyph-name="V" unicode="V" horiz-adv-x="1563" 
d="M958 0l523 1432h-339l-361 -1043l-359 1043h-339l523 -1432h352z" />
    <glyph glyph-name="W" unicode="W" horiz-adv-x="1901" 
d="M705 0l255 854l236 -854h303l317 1432h-318l-196 -893l-245 893h-267v-196l-199 -696l-189 892h-319l319 -1432h303z" />
    <glyph glyph-name="X" unicode="X" horiz-adv-x="1555" 
d="M473 0l304 445l306 -445h390l-500 721l485 711h-385l-296 -440l-294 440h-385l484 -711l-499 -721h390z" />
    <glyph glyph-name="Y" unicode="Y" horiz-adv-x="1464" 
d="M895 0v528l493 904h-340l-316 -612l-316 612h-339l492 -904v-528h326z" />
    <glyph glyph-name="Z" unicode="Z" horiz-adv-x="1249" 
d="M1178 0v264h-663l651 965v203h-1051v-282h626l-658 -974v-176h1095z" />
    <glyph glyph-name="bracketleft" unicode="[" horiz-adv-x="800" 
d="M730 -220l9 264h-330v1262h329l-9 264h-646v-1790h647z" />
    <glyph glyph-name="backslash" unicode="\" horiz-adv-x="1040" 
d="M958 -120l-538 1592h-337l538 -1592h337z" />
    <glyph glyph-name="bracketright" unicode="]" horiz-adv-x="800" 
d="M717 -220v1790h-646l-9 -264h329v-1262h-330l9 -264h647z" />
    <glyph glyph-name="asciicircum" unicode="^" horiz-adv-x="1097" 
d="M385 843l164 298l165 -298h301l-359 545h-227l-346 -545h302z" />
    <glyph glyph-name="underscore" unicode="_" horiz-adv-x="1148" 
d="M1066 -225v225h-983v-225h983z" />
    <glyph glyph-name="a" unicode="a" horiz-adv-x="1214" 
d="M648.5 9.5q89.5 31.5 151.5 94.5l16 -104h283v662q0 212 -127 313t-364 101q-111 0 -218 -16.5t-186 -52.5v-194q165 56 336 56q91 0 145.5 -18t78.5 -53.5t24 -95.5v-62h-299q-200 0 -303 -80.5t-103 -255.5q0 -166 98 -246t255 -80q123 0 212.5 31.5zM384 313
q0 81 47 112.5t137 30.5h220v-181q-81 -101 -233 -101q-171 0 -171 139z" />
    <glyph glyph-name="b" unicode="b" horiz-adv-x="1293" 
d="M1088 117.5q123 139.5 123 418.5q0 276 -117 408t-358 132q-81 0 -155 -17t-130 -55v495h-326v-1499h282l17 93q67 -58 144 -86.5t177 -28.5q220 0 343 139.5zM451 312v442q85 73 201 73q115 0 171 -68.5t56 -227.5q0 -156 -54.5 -230t-170.5 -74q-115 0 -203 85z" />
    <glyph glyph-name="c" unicode="c" horiz-adv-x="1063" 
d="M1007 46v254q-141 -73 -281 -73q-164 0 -238 72.5t-74 227.5q0 154 78.5 227t235.5 73q153 0 277 -62v244q-75 36 -155 51.5t-191 15.5q-270 0 -423 -137t-153 -412q0 -268 148 -408.5t421 -140.5q206 0 355 68z" />
    <glyph glyph-name="d" unicode="d" horiz-adv-x="1293" 
d="M725.5 6.5q75.5 28.5 143.5 86.5l17 -93h282v1499h-326v-495q-58 37 -127 54.5t-149 17.5q-231 0 -356.5 -149.5t-126.5 -424.5q0 -271 124.5 -397.5t340.5 -126.5q102 0 177.5 28.5zM468 294q-53 67 -54 211q0 160 61 241t175 81q60 0 106 -18t86 -55v-442
q-45 -43 -93 -64t-109 -21q-119 0 -172 67z" />
    <glyph glyph-name="e" unicode="e" horiz-adv-x="1185" 
d="M875 -5q95 17 170 52v194q-59 -25 -139.5 -39.5t-159.5 -14.5q-170 0 -256 57.5t-107 180.5h720v181q0 224 -134 347t-364 123q-254 0 -386 -139.5t-136 -408.5q0 -271 151 -410.5t426 -139.5q120 0 215 17zM438 798.5q55 68.5 177 67.5q108 0 157 -54.5t49 -145.5v-59
h-438q0 123 55 191.5z" />
    <glyph glyph-name="f" unicode="f" horiz-adv-x="848" 
d="M520 0v802h236l14 252h-250v97q0 73 37.5 107.5t118.5 34.5q67 0 128 -23v220q-96 45 -243 45q-177 0 -272 -102t-95 -276v-103h-136v-252h136v-802h326z" />
    <glyph glyph-name="g" unicode="g" horiz-adv-x="1290" 
d="M1166 1054v-1102q1 -125 -88 -206t-220.5 -118.5t-262.5 -37.5q-126 0 -265 14t-208 40v204q81 -26 210.5 -40.5t242.5 -14.5q119 0 213.5 48.5t94.5 110.5l-1 114q-63 -36 -152.5 -62t-167.5 -26q-238 0 -361 145.5t-121 414.5q0 538 466 538q194 0 321 -115l17 93h282z
M470 301.5q58 -74.5 174 -74.5q60 0 106 19t90 54v442q-83 85 -203 85q-117 0 -171 -69.5t-54 -223.5q0 -158 58 -232.5z" />
    <glyph glyph-name="h" unicode="h" horiz-adv-x="1286" 
d="M451 0v723q42 43 99.5 70t118.5 27q100 0 138 -40t38 -134v-646h326v672q0 209 -93.5 306.5t-295.5 97.5q-101 0 -184.5 -26.5t-146.5 -75.5v525h-326v-1499h326z" />
    <glyph glyph-name="i" unicode="i" horiz-adv-x="604" 
d="M479 1230v259h-354v-259h354zM475 0v1054l-347 1v-1055h347z" />
    <glyph glyph-name="j" unicode="j" horiz-adv-x="727" 
d="M604 1230v259h-354v-259h354zM509 -422q91 98 91 265v1211h-347v-1190v-9q0 -70 -28.5 -102t-102.5 -32q-66 0 -129 23v-220q111 -44 245 -44q180 0 271 98z" />
    <glyph glyph-name="k" unicode="k" horiz-adv-x="1249" 
d="M451 0v332l105 107l288 -439h345l-429 619l406 435h-371l-344 -349v794h-326v-1499h326z" />
    <glyph glyph-name="l" unicode="l" horiz-adv-x="681" 
d="M533.5 -14.5q44.5 7.5 99.5 30.5v221q-42 -17 -100 -17q-43 0 -62.5 23.5t-19.5 80.5v1175h-326v-1214q0 -162 71 -234.5t230 -72.5q63 0 107.5 7.5z" />
    <glyph glyph-name="m" unicode="m" horiz-adv-x="1852" 
d="M439 0v725q43 43 95.5 69t104.5 26q79 0 109.5 -39.5t28.5 -125.5v-655h302v665q0 41 -7 74q76 81 186 81q87 0 123 -38.5t36 -129.5v-652h320v691q0 196 -82.5 290.5t-258.5 94.5q-211 0 -369 -122q-33 62 -92 92t-158 30q-183 0 -342 -116l-11 94h-299v-1054h314z" />
    <glyph glyph-name="n" unicode="n" horiz-adv-x="1286" 
d="M451 0v723q42 43 99.5 70t118.5 27q100 0 138 -39t38 -132v-649h326v689q0 199 -83.5 293t-264.5 94q-118 0 -215 -30t-169 -84l-11 92h-303v-1054h326z" />
    <glyph glyph-name="o" unicode="o" horiz-adv-x="1289" 
d="M1070 114.5q138 136.5 138 412.5q0 274 -139.5 411.5t-423.5 137.5q-286 0 -424 -137.5t-138 -411.5q0 -273 138 -411t424 -138q287 0 425 136.5zM511 258.5q-51 31.5 -74 98.5t-23 170q0 158 54.5 229t176.5 71q83 0 134 -31.5t74 -98t23 -170.5t-23 -170.5t-74 -98
t-134 -31.5t-134 31.5z" />
    <glyph glyph-name="p" unicode="p" horiz-adv-x="1293" 
d="M451 -459v510q60 -35 129.5 -54t148.5 -19q236 0 359.5 145.5t122.5 414.5q0 538 -466 538q-194 0 -321 -115l-17 93h-282v-1513h326zM541 246q-46 19 -90 54v442q83 85 203 85q117 0 171 -69.5t54 -223.5q0 -158 -58 -232.5t-174 -74.5q-60 0 -106 19z" />
    <glyph glyph-name="q" unicode="q" horiz-adv-x="1290" 
d="M840 -459v510q-60 -35 -129.5 -54t-148.5 -19q-236 0 -360 145.5t-122 414.5q0 538 466 538q192 0 321 -115l17 93h282v-1513h-326zM750 246q46 19 90 54v442q-83 85 -203 85q-117 0 -171 -69.5t-54 -223.5q0 -158 58 -232.5t174 -74.5q60 0 106 19z" />
    <glyph glyph-name="r" unicode="r" horiz-adv-x="851" 
d="M451 0v718q136 76 355 101v257q-94 -10 -189.5 -43t-165.5 -79l-10 100h-316v-1054h326z" />
    <glyph glyph-name="s" unicode="s" horiz-adv-x="1039" 
d="M838 60q119 82 119 240q0 134 -72.5 201.5t-236.5 116.5q-67 22 -102 36t-58.5 33.5t-34.5 51.5q-36 51 -13 84q11 22 55.5 29.5t112.5 8.5h16q64 0 134.5 -13.5t134.5 -39.5v223q-57 21 -158 33t-190 12q-237 0 -349.5 -78.5t-112.5 -232.5q0 -116 58.5 -178.5
t171.5 -107.5q27 -11 52 -20q14 -6 34 -12q59 -21 109 -37q62 -22 89.5 -45t27.5 -65q0 -55 -39 -80t-128 -27h-26q-72 0 -166.5 19.5t-165.5 50.5v-224q67 -26 172 -43.5t222 -17.5q225 0 344 82z" />
    <glyph glyph-name="t" unicode="t" horiz-adv-x="821" 
d="M783 22v221q-62 -24 -124 -24q-148 0 -148 146v437h240l8 252h-248v278h-326v-278h-139v-252h139v-454q0 -183 92.5 -276.5t265.5 -93.5q126 0 240 44z" />
    <glyph glyph-name="u" unicode="u" horiz-adv-x="1286" 
d="M688.5 7q88.5 29 158.5 85l11 -92h303v1054h-326v-723q-39 -43 -94 -70t-116 -27q-93 0 -138.5 47t-45.5 140v633h-326v-667q0 -197 97.5 -303t273.5 -106q114 0 202.5 29z" />
    <glyph glyph-name="v" unicode="v" horiz-adv-x="1307" 
d="M828 0l397 1054h-339l-233 -704l-231 704h-339l397 -1054h348z" />
    <glyph glyph-name="w" unicode="w" horiz-adv-x="1655" 
d="M650 0l182 576l179 -576h297l265 1054h-311l-146 -627l-179 627h-238v-141l-154 -486l-150 627h-312l265 -1054h302z" />
    <glyph glyph-name="x" unicode="x" horiz-adv-x="1265" 
d="M423 0l209 293l209 -293h356l-387 536l371 518h-352l-197 -276l-198 276h-352l373 -518l-387 -536h355z" />
    <glyph glyph-name="y" unicode="y" horiz-adv-x="1349" 
d="M286 -382.5q53 -8.5 129 -8.5q176 0 294 118.5t202 327.5q6 16 10 28l389 971h-339l-276 -712l-272 712h-340l452 -1033q-2 -3 -3 -6q-39 -79 -89 -122t-131 -43q-70 0 -129 23v-225q50 -22 103 -30.5z" />
    <glyph glyph-name="z" unicode="z" horiz-adv-x="1070" 
d="M988 0v252h-483l468 597v205h-871v-266h460l-479 -601v-187h905z" />
    <glyph glyph-name="braceleft" unicode="{" horiz-adv-x="699" 
d="M462 -231q-135 0 -204 74.5t-69 220.5v315q0 89 -29 131t-99 52v203q70 9 99 52.5t29 131.5v315q0 147 69 221t204 74h197v-265h-55q-101 1 -101 -110v-311q0 -66 -24 -119q-28 -59 -84 -91q55 -29 82 -85q26 -54 26 -124v-310q1 -112 101 -110h55v-265h-197z" />
    <glyph glyph-name="bar" unicode="|" horiz-adv-x="492" 
d="M409 -267v1902h-326v-1902h326z" />
    <glyph glyph-name="braceright" unicode="}" horiz-adv-x="699" 
d="M257 -231q135 0 204 74.5t69 220.5v315q0 89 29 131t100 52v203q-71 9 -100 52.5t-29 131.5v315q0 147 -69 221t-204 74h-196v-265h54q102 1 101 -110v-311q0 -66 25 -119q27 -59 83 -91q-55 -29 -81 -85q-27 -54 -27 -124v-310q-1 -112 -101 -110h-54v-265h196z" />
    <glyph glyph-name="asciitilde" unicode="~" horiz-adv-x="1184" 
d="M998.5 486.5q66.5 28.5 103.5 82.5v296q-52 -68 -111 -98.5t-140 -30.5q-60 0 -118 19.5t-133 56.5q-76 35 -137 54t-127 19q-79 0 -147.5 -29.5t-105.5 -81.5v-296q52 69 112 99t141 30q62 0 121 -19t136 -54q73 -38 133.5 -57t124.5 -19q81 0 147.5 28.5z" />
    <glyph glyph-name="uni00A0" unicode="&#xa0;" horiz-adv-x="0" 
 />
    <glyph glyph-name="cent" unicode="&#xa2;" horiz-adv-x="1090" 
d="M485.5 302q-71.5 74 -71.5 225q3 292 300 299q156 4 291 -61v244q-104 52 -244 61v175h-284v-192q-185 -36 -289.5 -168t-104.5 -358q0 -227 100.5 -359t293.5 -167v-192h284v175q131 10 246 62v254q-140 -74 -292 -73q-158 1 -229.5 75z" />
    <glyph glyph-name="sterling" unicode="&#xa3;" horiz-adv-x="1047" 
d="M976 0v252h-473q50 19 49 141v221h318l12 252h-330v188q2 158 179 159q91 -1 157 -29v220q-100 51 -271 50q-178 0 -284.5 -105.5t-106.5 -287.5v-195h-136v-252h136v-243q-1 -119 -100 -119h-54v-252h904z" />
    <glyph glyph-name="currency" unicode="&#xa4;" horiz-adv-x="1239" 
d="M401 238q48 -32 104 -50t115 -18q122 0 218 70l177 -142l139 180l-167 133q49 90 49 187q0 105 -49 188l170 130l-142 181l-176 -142q-93 70 -221 70q-124 0 -218 -69l-175 144l-141 -182l166 -132q-48 -86 -48 -188q0 -101 48 -188l-167 -130l142 -183zM483 458.5
q-56 59.5 -56 141.5q0 84 56 143t135 59q81 0 137 -59t56 -143q0 -83 -56 -142t-137 -59q-79 0 -135 59.5z" />
    <glyph glyph-name="yen" unicode="&#xa5;" horiz-adv-x="1459" 
d="M893 0v186h300v171h-300v137h300v171h-226l411 767h-340l-308 -612l-309 612h-338l409 -767h-228v-171h302v-137h-302v-171h302v-186h327z" />
    <glyph glyph-name="brokenbar" unicode="&#xa6;" horiz-adv-x="492" 
d="M409 882v753h-326v-753h326zM409 -267v753h-326v-753h326z" />
    <glyph glyph-name="section" unicode="&#xa7;" horiz-adv-x="1205" 
d="M1123 387q0 93 -44 158q45 71 44 172q0 103 -32 170t-118.5 114.5t-266.5 95.5q-164 44 -228 80t-64 109q0 88 78 126t199 38q165 1 354 -72v262q-54 18 -168 39t-244 22q-549 2 -549 -389q-1 -99 43 -163q-44 -66 -44 -150q-2 -156 77 -233t306 -149q164 -48 244 -91
t80 -128q0 -172 -263 -172q-210 1 -421 95v-261q180 -82 453 -82q564 6 564 409zM776 740q-70 30 -153 50q-149 36 -212 71t-63 105q0 28 9 50q20 -45 253 -109q146 -34 211.5 -70t65.5 -109q0 -28 -10 -53q-31 35 -101 65z" />
    <glyph glyph-name="copyright" unicode="&#xa9;" horiz-adv-x="1578" 
d="M1073 332v163q-108 -67 -228 -67q-121 0 -197 66.5t-76 222.5q0 151 82.5 219.5t197.5 68.5q114 0 218 -60v155q-104 78 -271 80q-436 -1 -441 -463q0 -463 434 -464q171 0 281 79zM1144 77q163 99 257.5 269t94.5 370t-94.5 370.5t-257.5 269t-355 98.5
q-191 0 -354 -98.5t-257.5 -269t-94.5 -370.5t94.5 -370t257.5 -269t354 -99q192 0 355 99zM522 229.5q-121 73.5 -192 201t-71 285.5q0 159 71 286.5t192 200.5t267 73q147 0 268 -73t192 -200.5t71 -286.5q0 -158 -71 -285.5t-192 -201t-268 -73.5q-146 0 -267 73.5z" />
    <glyph glyph-name="ordfeminine" unicode="&#xaa;" horiz-adv-x="742" 
d="M482 915l10 -57h168v367q0 117 -74.5 173t-206.5 56q-60 0 -121 -9.5t-104 -28.5v-117q95 31 186 31q76 0 106.5 -19.5t30.5 -66.5v-24h-163q-231 0 -231 -191q0 -92 55.5 -138t143.5 -46q124 0 200 70zM260 1034q0 39 23.5 58t73.5 19h120v-91q-24 -30 -54.5 -43.5
t-73.5 -13.5q-89 0 -89 71z" />
    <glyph glyph-name="guillemotleft" unicode="&#xab;" horiz-adv-x="1410" 
d="M1328 325l-399 309l399 309l-124 190l-564 -434v-130l564 -434zM771 325l-400 309l400 309l-125 190l-563 -434v-130l563 -434z" />
    <glyph glyph-name="registered" unicode="&#xae;" horiz-adv-x="1578" 
d="M1144 77q163 99 257.5 269t94.5 370t-94.5 370.5t-257.5 269t-355 98.5q-191 0 -354 -98.5t-257.5 -269t-94.5 -370.5t94.5 -370t257.5 -269t354 -99q192 0 355 99zM522 229.5q-121 73.5 -192 201t-71 285.5q0 159 71 286.5t192 200.5t267 73q147 0 268 -73t192 -200.5
t71 -286.5q0 -158 -71 -285.5t-192 -201t-268 -73.5q-146 0 -267 73.5zM664 302v282h105q47 0 67.5 -12.5t32.5 -45.5l81 -224h173l-89 243q-12 28 -22.5 44.5t-30.5 24.5q172 57 172 248q0 128 -69 201.5t-203 73.5h-398v-835h181zM664 992h178q67 0 99 -30.5t32 -99.5
q0 -70 -36.5 -101.5t-106.5 -31.5h-166v263z" />
    <glyph glyph-name="macron" unicode="&#xaf;" horiz-adv-x="733" 
d="M703 1246v206h-671v-206h671z" />
    <glyph glyph-name="degree" unicode="&#xb0;" horiz-adv-x="908" 
d="M453 824q92 0 169.5 45t122.5 122.5t45 169.5q0 91 -45 168t-122.5 122t-169.5 45q-91 0 -168 -45t-122 -122t-45 -168q0 -92 45 -169.5t122 -122.5t169 -45h-1zM540 1245.5q35 -36.5 35 -85.5q0 -50 -36 -85.5t-86 -35.5q-49 0 -85 36t-36 86q0 49 37.5 85t89.5 36
q46 0 81 -36.5z" />
    <glyph glyph-name="plusminus" unicode="&#xb1;" horiz-adv-x="1018" 
d="M635 354v287h300v264h-300v293h-254v-293h-298v-264h298v-287h254zM935 0v264h-852v-264h852z" />
    <glyph glyph-name="mu" unicode="&#xb5;" horiz-adv-x="1296" 
d="M451 -318v364q72 -67 192 -54q135 14 214 100l11 -92h303v1054h-326v-723q-91 -97 -210 -97q-184 0 -184 187v633h-326v-1372h326z" />
    <glyph glyph-name="paragraph" unicode="&#xb6;" horiz-adv-x="1390" 
d="M851 -171v1498h181v-1498h276v1750h-682q-543 0 -543 -518q0 -270 143.5 -384t352.5 -114v-734h272z" />
    <glyph glyph-name="guillemotright" unicode="&#xbb;" horiz-adv-x="1410" 
d="M1328 569v130l-563 434l-125 -190l399 -309l-399 -309l125 -190zM771 569v130l-564 434l-124 -190l399 -309l-399 -309l124 -190z" />
    <glyph glyph-name="multiply" unicode="&#xd7;" horiz-adv-x="919" 
d="M837 327l-218 228l218 228l-160 169l-220 -227l-214 229l-160 -168l218 -227l-210 -219l161 -168l211 218l217 -228z" />
    <glyph glyph-name="germandbls" unicode="&#xdf;" horiz-adv-x="1382" 
d="M848 -22q-81 0 -159 12.5t-129 36.5v221q42 -17 98 -24.5t106 -7.5q105 0 154.5 49.5t49.5 151.5q0 85 -46.5 128t-158.5 43h-157v166l328 254q3 89 -70 128.5t-180 39.5q-137 0 -199.5 -62t-62.5 -182v-932h-307v939q4 283 158.5 399t410.5 116q302 0 420.5 -128
t134.5 -354l-324 -254h75q149 0 229 -88t80 -251q0 -206 -117 -303.5t-334 -97.5z" />
    <glyph glyph-name="divide" unicode="&#xf7;" horiz-adv-x="992" 
d="M605 904v221h-220v-221h220zM910 482v264h-827v-264h827zM605 112v220h-220v-220h220z" />
    <glyph glyph-name="uni060C" unicode="&#x60c;" horiz-adv-x="711" 
d="M516.5 349q-58.5 49 -140.5 42v61q0 30 18.5 52t47.5 27l115 15l-37 232l-88 -15q-133 -25 -215.5 -123t-84.5 -233v-196q0 -58 27.5 -108t77 -79t112.5 -29q62 0 114 29t82 78.5t30 107.5q0 90 -58.5 139z" />
    <glyph glyph-name="uni0615" unicode="&#x615;" horiz-adv-x="0" 
d="M-23.5 1876q37.5 51 83.5 51q54 0 76 -33t22 -72q0 -28 -29.5 -47t-71.5 -19h-146q28 69 65.5 120zM-249 1772q-1 -5 -2 -14v-2h-59v-153h367q70 0 128 29t91.5 79t33.5 111q0 73 -31.5 131.5t-88.5 92.5t-130 34q-83 0 -156 -70v267h-153v-505z" />
    <glyph glyph-name="uni0615" unicode="&#xfbc0;" horiz-adv-x="0" 
d="M-23.5 1876q37.5 51 83.5 51q54 0 76 -33t22 -72q0 -28 -29.5 -47t-71.5 -19h-146q28 69 65.5 120zM-249 1772q-1 -5 -2 -14v-2h-59v-153h367q70 0 128 29t91.5 79t33.5 111q0 73 -31.5 131.5t-88.5 92.5t-130 34q-83 0 -156 -70v267h-153v-505z" />
    <glyph glyph-name="uni0615" unicode="&#xe0bf;" horiz-adv-x="0" 
d="M-23.5 1876q37.5 51 83.5 51q54 0 76 -33t22 -72q0 -28 -29.5 -47t-71.5 -19h-146q28 69 65.5 120zM-249 1772q-1 -5 -2 -14v-2h-59v-153h367q70 0 128 29t91.5 79t33.5 111q0 73 -31.5 131.5t-88.5 92.5t-130 34q-83 0 -156 -70v267h-153v-505z" />
    <glyph glyph-name="uni061B" unicode="&#x61b;" horiz-adv-x="710" 
d="M516.5 750q-58.5 49 -140.5 42v61q0 30 18.5 52t47.5 27l115 15l-37 232l-88 -15q-133 -25 -215.5 -123t-84.5 -233v-196q0 -58 27.5 -108t77 -79t112.5 -29q62 0 114 29t82 78.5t30 107.5q0 90 -58.5 139zM478 0v255h-266v-255h266z" />
    <glyph glyph-name="uni061F" unicode="&#x61f;" horiz-adv-x="1080" 
d="M449 0v248h340v-248h-340zM470 390v31q0 70 -59 132t-143 130q-104 87 -146.5 165.5t-42.5 194.5q0 196 128.5 303.5t372.5 107.5q249 0 418 -191l-215 -255q-88 153 -198 154q-175 0 -175 -157q0 -78 41 -125t128 -121q79 -65 135 -133.5t55 -193.5v-42h-299z" />
    <glyph glyph-name="uni0640" unicode="&#x640;" horiz-adv-x="293" 
d="M-56.5 207q-14.5 -57 0 -114t56.5 -93h294v300h-294q-42 -36 -56.5 -93z" />
    <glyph glyph-name="uni0640" unicode="&#xe0b5;" horiz-adv-x="293" 
d="M-56.5 207q-14.5 -57 0 -114t56.5 -93h294v300h-294q-42 -36 -56.5 -93z" />
    <glyph glyph-name="uni0653" unicode="&#x653;" horiz-adv-x="0" 
d="M-162 173q15 36 46.5 57t69.5 21h471v189h-471q-97 1 -176.5 -53t-115.5 -144l-69 -173l177 -70z" />
    <glyph glyph-name="uni0653" unicode="&#xe010;" horiz-adv-x="0" 
d="M-162 173q15 36 46.5 57t69.5 21h471v189h-471q-97 1 -176.5 -53t-115.5 -144l-69 -173l177 -70z" />
    <glyph glyph-name="uni0654" unicode="&#x654;" horiz-adv-x="0" 
d="M-208 1816l470 180l-54 143l-149 -57q-51 -6 -85 16t-33 70q0 35 21 65t58 30q26 1 49.5 -7t53.5 -23q7 -3 10 -4l39 143q-43 23 -77 33.5t-75 10.5q-68 0 -121 -36t-82 -93.5t-29 -118.5q0 -46 20.5 -89.5t59.5 -69.5l-130 -50z" />
    <glyph glyph-name="uni0654" unicode="&#x674;" horiz-adv-x="0" 
d="M-208 1816l470 180l-54 143l-149 -57q-51 -6 -85 16t-33 70q0 35 21 65t58 30q26 1 49.5 -7t53.5 -23q7 -3 10 -4l39 143q-43 23 -77 33.5t-75 10.5q-68 0 -121 -36t-82 -93.5t-29 -118.5q0 -46 20.5 -89.5t59.5 -69.5l-130 -50z" />
    <glyph glyph-name="uni0655" unicode="&#x655;" horiz-adv-x="0" 
d="M-208 -1133l470 179l-54 143l-149 -57q-52 -6 -85.5 16.5t-32.5 70.5q0 35 21.5 65t57.5 30q26 1 48.5 -7t53.5 -23q8 -4 11 -6l39 144q-44 24 -77.5 35t-74.5 10q-68 0 -121 -36t-82 -93.5t-29 -118.5q0 -46 20.5 -90t59.5 -70l-130 -49z" />
    <glyph glyph-name="uni0656" unicode="&#x656;" horiz-adv-x="0" 
d="M-76 -986h152v410h-152v-410z" />
    <glyph glyph-name="uni0656" unicode="&#x8ad;" horiz-adv-x="0" 
d="M-76 -986h152v410h-152v-410z" />
    <glyph glyph-name="uni065A" unicode="&#x65a;" horiz-adv-x="0" 
d="M377 1976l-193 5l-184 -212l-184 212l-193 -5l320 -373h114z" />
    <glyph glyph-name="uni065B" unicode="&#x65b;" horiz-adv-x="0" 
d="M377 1607l-193 -4l-184 211l-184 -211l-193 4l320 374h114z" />
    <glyph glyph-name="uni0660" unicode="&#x660;" horiz-adv-x="652" 
d="M326 278l245 245l-245 245l-245 -245z" />
    <glyph glyph-name="uni0661" unicode="&#x661;" horiz-adv-x="616" 
d="M488 660q0 133 -15 293t-44 282l-33 143l-287 -67l34 -143q24 -103 37.5 -252t13.5 -256v-660h294v660z" />
    <glyph glyph-name="uni0662" unicode="&#x662;" horiz-adv-x="1114" 
d="M429 1235l-33 143l-287 -67l34 -143q24 -103 37.5 -252t13.5 -256v-660h294v592v16q-1 19 -1 28q43 -53 153 -39q162 23 260 124.5t105 253.5q3 83 -6 149.5t-36 211.5q-6 29 -9 45l-289 -55q4 -22 11 -60q23 -120 30 -170.5t5 -109.5q-4 -83 -109 -97q-51 -6 -84.5 15
t-45.5 55q-16 161 -43 276z" />
    <glyph glyph-name="uni0663" unicode="&#x663;" horiz-adv-x="1621" 
d="M1406 725.5q99 101.5 106 253.5q3 81 -5.5 147.5t-35.5 208.5q-6 32 -10 49l-290 -54q4 -21 12 -58q24 -126 30.5 -175t4.5 -108q-5 -81 -110 -96q-33 -4 -60.5 6.5t-57.5 40.5q5 17 6 35q2 83 -6.5 149.5t-36.5 211.5q-5 30 -8 45l-289 -55q4 -22 11 -60
q23 -119 29.5 -170t4.5 -110q-3 -83 -107 -97q-51 -6 -80.5 14.5t-41.5 55.5q-16 161 -43 276l-33 143l-287 -67l34 -143q24 -103 37.5 -247t13.5 -261v-660h294v603q0 13 -1 28q40 -46 144 -34q128 17 217 89q59 -42 139 -69t158 -16q162 23 261 124.5z" />
    <glyph glyph-name="uni0664" unicode="&#x664;" horiz-adv-x="1063" 
d="M282.5 732q90.5 -85 285.5 -53q13 0 33 -14.5t54 -42.5q39 -33 62 -48.5t38 -12.5l143 28l-55 276l-144 -28q-65 -13 -112 -4.5t-69 30.5q-27 25 -17 76q14 76 58 117.5t90 55t79 13.5q26 0 68 -6.5t74 -13.5l11 282q-37 12 -76.5 16t-76.5 4q-108 0 -213 -44.5
t-184 -136.5t-106 -229q-33 -180 57.5 -265zM937 282h-414q-45 0 -77.5 28.5t-37.5 72.5q-6 45 21 82t71 45l398 79l-55 276l-398 -79q-92 -18 -165 -74.5t-114 -139t-41 -175.5q0 -108 53.5 -199t145 -144.5t199.5 -53.5h414v282z" />
    <glyph glyph-name="uni0665" unicode="&#x665;" horiz-adv-x="1396" 
d="M1108.5 114.5q161.5 124.5 161.5 447.5q0 207 -64 394t-193 305t-315 118q-185 0 -314 -118t-193 -305t-64 -394q0 -323 161 -447.5t379 -124.5h62q218 0 379.5 124.5zM856.5 1015q65.5 -82 98.5 -206t33 -247q0 -77 -12 -130.5t-41 -89t-79.5 -53t-126.5 -17.5h-62
q-76 0 -126.5 17.5t-79.5 53t-41 89t-12 130.5q0 123 33 247t98.5 206t158.5 82t158.5 -82z" />
    <glyph glyph-name="uni0666" unicode="&#x666;" horiz-adv-x="1216" 
d="M1141 110q-93 151 -145 330.5t-39 375.5t114 380l-165 203q-184 -57 -307.5 -70t-200.5 1.5t-180 50.5q-19 7 -29 10l-98 -256q2 0 7 -2q122 -46 197.5 -66t178.5 -22t255 23q-56 -226 -50 -417t62 -354.5t160 -333.5z" />
    <glyph glyph-name="uni0667" unicode="&#x667;" horiz-adv-x="1252" 
d="M903.5 533.5q-124.5 -366.5 -129.5 -533.5l-299 -1q-5 169 -128 534.5t-314 721.5l242 156q77 -139 134.5 -264t112.5 -295.5t104 -400.5q49 230 103.5 400.5t111.5 296t135 263.5l242 -156q-190 -355 -314.5 -721.5z" />
    <glyph glyph-name="uni0668" unicode="&#x668;" horiz-adv-x="1240" 
d="M903.5 845.5q-124.5 366.5 -129.5 533.5l-299 1q-5 -169 -128 -535t-314 -721l242 -156q77 137 134.5 262.5t112.5 296.5t104 401q49 -231 103.5 -401.5t112 -296t134.5 -262.5l242 156q-190 355 -314.5 721.5z" />
    <glyph glyph-name="uni0669" unicode="&#x669;" horiz-adv-x="1137" 
d="M714 844q-28 -18 -64 -26t-88 -15q-7 -1 -10 -1q-59 -7 -103.5 32.5t-44.5 108.5q0 42 21.5 78.5t57.5 58.5t77 22q48 0 83 -29.5t53 -74.5t18 -89v-65zM714 0h295v909q0 122 -55 234.5t-157.5 182.5t-236.5 70q-119 0 -223 -61.5t-166 -165.5t-62 -224
q-1 -132 66 -238.5t178.5 -160.5t238.5 -38q4 1 14 3q70 11 108 26v-537z" />
    <glyph glyph-name="uni066A" unicode="&#x66a;" horiz-adv-x="1288" 
d="M1081 1332l-194 88l-681 -1359l194 -87zM411.5 1264q48.5 -49 48.5 -118q0 -68 -49 -117.5t-117 -49.5q-69 0 -118 49t-49 118t48.5 118t118.5 49q69 0 117.5 -49zM1112.5 365.5q48.5 -48.5 48.5 -118.5q0 -69 -49 -117.5t-118 -48.5t-117.5 48.5t-48.5 117.5
q0 70 48.5 118.5t117.5 48.5q70 0 118.5 -48.5z" />
    <glyph glyph-name="uni066B" unicode="&#x66b;" horiz-adv-x="678" 
d="M550 404l-172 78l-378 -831l173 -78z" />
    <glyph glyph-name="uni066C" unicode="&#x66c;" horiz-adv-x="515" 
d="M226 -260q77 42 119 121.5t42 182.5v231h-189v-231q0 -39 -14 -78.5t-49 -58.5l-83 -46l91 -166z" />
    <glyph glyph-name="uni066D" unicode="&#x66d;" horiz-adv-x="1323" 
d="M127 816l330 -242l-128 -387l332 239l333 -239l-127 387l329 242h-407l-128 386l-126 -386h-408z" />
    <glyph glyph-name="uni066E" unicode="&#x66e;" horiz-adv-x="1760" 
d="M1217 0q113 0 208.5 53.5t151 144.5t55.5 199v376h-281v-339q0 -56 -39 -95t-95 -39h-674q-56 0 -95 39t-39 95v339h-282v-376q0 -108 56 -199t151.5 -144.5t208.5 -53.5h674z" />
    <glyph glyph-name="uni066F" unicode="&#x66f;" horiz-adv-x="1700" 
d="M1363.5 836.5q99.5 -60.5 155 -168.5t55.5 -247v-404q0 -147 -77 -275.5t-202.5 -205t-262.5 -76.5h-305q-180 0 -316.5 80t-210 213t-73.5 290v492h282v-455q0 -85 35.5 -158t107.5 -117.5t175 -44.5h305q113 0 184 66t73 174h-153q-226 0 -331.5 111t-105.5 310
q0 137 56.5 245t156 169.5t224.5 61.5q128 0 227.5 -60.5zM1292 421q0 76 -34.5 135t-121.5 59q-85 0 -120 -62.5t-35 -131.5q0 -61 31.5 -91t123.5 -30h156v121z" />
    <glyph glyph-name="uni066F" unicode="&#x8bc;" horiz-adv-x="1700" 
d="M1363.5 836.5q99.5 -60.5 155 -168.5t55.5 -247v-404q0 -147 -77 -275.5t-202.5 -205t-262.5 -76.5h-305q-180 0 -316.5 80t-210 213t-73.5 290v492h282v-455q0 -85 35.5 -158t107.5 -117.5t175 -44.5h305q113 0 184 66t73 174h-153q-226 0 -331.5 111t-105.5 310
q0 137 56.5 245t156 169.5t224.5 61.5q128 0 227.5 -60.5zM1292 421q0 76 -34.5 135t-121.5 59q-85 0 -120 -62.5t-35 -131.5q0 -61 31.5 -91t123.5 -30h156v121z" />
    <glyph glyph-name="uni0670" unicode="&#x670;" horiz-adv-x="0" 
d="M-76 1816h152v410h-152v-410z" />
    <glyph glyph-name="uni0695" unicode="&#x695;" horiz-adv-x="798" 
d="M88 -540q157 0 290.5 80.5t212 215t78.5 287.5v690h-282v-653q0 -81 -40.5 -155.5t-109 -119.5t-149.5 -45h-97v-300h97zM669 -735l-193 5l-184 -212l-184 212l-193 -5l320 -373h114z" />
    <glyph glyph-name="uni06A1" unicode="&#x6a1;" horiz-adv-x="1838" 
d="M1518 54.5q86 54.5 140 168.5t54 284q0 127 -58.5 228.5t-159 159t-222.5 57.5q-117 1 -218.5 -56t-161.5 -156t-59 -217q0 -62 26 -121.5t73 -101.5h-389q-56 0 -95 39t-39 95v333h-282v-370q0 -108 56 -199t151.5 -144.5t208.5 -53.5h789q100 0 186 54.5zM1156.5 400
q-42.5 57 -42.5 125q0 62 47.5 104.5t110.5 41.5q65 0 112 -40.5t47 -123.5q0 -59 -20.5 -127t-76.5 -78q-135 41 -177.5 98z" />
    <glyph glyph-name="uni06A1" unicode="&#xe078;" horiz-adv-x="1838" 
d="M1518 54.5q86 54.5 140 168.5t54 284q0 127 -58.5 228.5t-159 159t-222.5 57.5q-117 1 -218.5 -56t-161.5 -156t-59 -217q0 -62 26 -121.5t73 -101.5h-389q-56 0 -95 39t-39 95v333h-282v-370q0 -108 56 -199t151.5 -144.5t208.5 -53.5h789q100 0 186 54.5zM1156.5 400
q-42.5 57 -42.5 125q0 62 47.5 104.5t110.5 41.5q65 0 112 -40.5t47 -123.5q0 -59 -20.5 -127t-76.5 -78q-135 41 -177.5 98z" />
    <glyph glyph-name="uni06A1" unicode="&#x8bb;" horiz-adv-x="1838" 
d="M1518 54.5q86 54.5 140 168.5t54 284q0 127 -58.5 228.5t-159 159t-222.5 57.5q-117 1 -218.5 -56t-161.5 -156t-59 -217q0 -62 26 -121.5t73 -101.5h-389q-56 0 -95 39t-39 95v333h-282v-370q0 -108 56 -199t151.5 -144.5t208.5 -53.5h789q100 0 186 54.5zM1156.5 400
q-42.5 57 -42.5 125q0 62 47.5 104.5t110.5 41.5q65 0 112 -40.5t47 -123.5q0 -59 -20.5 -127t-76.5 -78q-135 41 -177.5 98z" />
    <glyph glyph-name="uni06AA" unicode="&#x6aa;" horiz-adv-x="2082" 
d="M1743.5 56q95.5 56 151.5 151t56 208t-56 208.5t-151.5 151.5t-208.5 56h-416l395 483l-218 178l-584 -713l109 -230h714q56 0 95 -39t39 -95q0 -53 -38 -84t-96 -31h-989q-57 0 -95.5 31t-38.5 84v321h-281v-302q0 -118 56 -217.5t151 -158t208 -58.5h989
q113 0 208.5 56z" />
    <glyph glyph-name="uni06B5" unicode="&#x6b5;" horiz-adv-x="1586" 
d="M815 -541q180 0 316.5 80t210 213.5t73.5 289.5v1406h-281v-1368q0 -86 -35.5 -159t-107.5 -117.5t-176 -44.5h-88q-103 0 -175 44.5t-107.5 117.5t-35.5 159v437h-282v-475q0 -156 73.5 -289.5t210 -213.5t316.5 -80h88zM1652 2058l-193 5l-184 -212l-184 212l-193 -5
l320 -373h114z" />
    <glyph glyph-name="uni06C2" unicode="&#x6c2;" horiz-adv-x="1105" 
d="M681 492.5q30 -61.5 30 -101.5q0 -61 -49.5 -94t-106.5 -33q-36 0 -72.5 15t-60 44t-23.5 68q0 70 50 140.5t107 123.5q95 -101 125 -162.5zM197 645.5q-80 -115.5 -80 -254.5q0 -113 59.5 -207t160 -148.5t218.5 -54.5q110 0 211.5 50t164 143.5t62.5 216.5
q0 146 -103.5 302.5t-314.5 328.5l-109 89l-178 -218l77 -62q-88 -70 -168 -185.5zM312 1282l470 180l-54 143l-149 -57q-51 -6 -85 16t-33 70q0 35 21 65t58 30q26 1 49.5 -7t53.5 -23q7 -3 10 -4l39 143q-43 23 -77 33.5t-75 10.5q-68 0 -121 -36t-82 -93.5t-29 -118.5
q0 -46 20.5 -89.5t59.5 -69.5l-130 -50z" />
    <glyph glyph-name="uni06C3" unicode="&#x6c3;" horiz-adv-x="1105" 
d="M681 492.5q30 -61.5 30 -101.5q0 -61 -49.5 -94t-106.5 -33q-36 0 -72.5 15t-60 44t-23.5 68q0 70 50 140.5t107 123.5q95 -101 125 -162.5zM197 645.5q-80 -115.5 -80 -254.5q0 -113 59.5 -207t160 -148.5t218.5 -54.5q110 0 211.5 50t164 143.5t62.5 216.5
q0 146 -103.5 302.5t-314.5 328.5l-109 89l-178 -218l77 -62q-88 -70 -168 -185.5zM457 1500.5q-41 40.5 -99 40.5t-99 -40.5t-41 -98.5t41 -99t99 -41t99 41t41 99t-41 98.5zM809 1500.5q-41 40.5 -99 40.5t-99 -40.5t-41 -98.5t41 -99t99 -41t99 41t41 99t-41 98.5z" />
    <glyph glyph-name="uni06CE" unicode="&#x6ce;" horiz-adv-x="1625" 
d="M1407 275.5q-105 73.5 -276 74.5h-157v146q0 61 40 101t102 40h330v283h-330q-117 0 -214 -56.5t-153.5 -153.5t-56.5 -214v-427l434 -1q54 -1 78.5 -20.5t21.5 -70.5q-2 -53 -37.5 -102.5t-116.5 -82.5t-210 -33h-143q-102 0 -172 43t-104.5 114t-33.5 155v463h-282
v-500q0 -155 72.5 -286.5t207 -210t312.5 -78.5h143q242 0 385 89.5t200.5 211t60.5 234.5q4 208 -101 281.5zM646 1124l-193 5l-184 -212l-184 212l-193 -5l320 -373h114z" />
    <glyph glyph-name="uni06D4" unicode="&#x6d4;" horiz-adv-x="758" 
d="M53 0v-190h653v190h-653z" />
    <glyph glyph-name="uni06F0" unicode="&#x6f0;" horiz-adv-x="1052" 
d="M171 314.5q55 -94.5 149 -149t206 -54.5t206 54.5t149 149t55 206.5t-55 206t-149 149t-206 55t-206 -55t-149 -149t-55 -206t55 -206.5zM426 622q43 42 106 42q55 0 96 -42.5t41 -100.5q0 -59 -42 -101t-101 -42t-101 42t-42 101t43 101z" />
    <glyph glyph-name="uni06F1" unicode="&#x6f1;" horiz-adv-x="615" 
d="M488 660q0 133 -15 293t-44 282l-33 143l-287 -67l34 -143q24 -103 37.5 -252t13.5 -256v-660h294v660z" />
    <glyph glyph-name="uni06F2" unicode="&#x6f2;" horiz-adv-x="1113" 
d="M429 1235l-33 143l-287 -67l34 -143q24 -103 37.5 -252t13.5 -256v-660h294v592v16q-1 19 -1 28q43 -53 153 -39q162 23 260 124.5t105 253.5q3 83 -6 149.5t-36 211.5q-6 29 -9 45l-289 -55q4 -22 11 -60q23 -120 30 -170.5t5 -109.5q-4 -83 -109 -97q-51 -6 -84.5 15
t-45.5 55q-16 161 -43 276z" />
    <glyph glyph-name="uni06F3" unicode="&#x6f3;" horiz-adv-x="1622" 
d="M1406 725.5q99 101.5 106 253.5q3 81 -5.5 147.5t-35.5 208.5q-6 32 -10 49l-290 -54q4 -21 12 -58q24 -126 30.5 -175t4.5 -108q-5 -81 -110 -96q-33 -4 -60.5 6.5t-57.5 40.5q5 17 6 35q2 83 -6.5 149.5t-36.5 211.5q-5 30 -8 45l-289 -55q4 -22 11 -60
q23 -119 29.5 -170t4.5 -110q-3 -83 -107 -97q-51 -6 -80.5 14.5t-41.5 55.5q-16 161 -43 276l-33 143l-287 -67l34 -143q24 -103 37.5 -247t13.5 -261v-660h294v603q0 13 -1 28q40 -46 144 -34q128 17 217 89q59 -42 139 -69t158 -16q162 23 261 124.5z" />
    <glyph glyph-name="uni06F4" unicode="&#x6f4;" horiz-adv-x="1419" 
d="M429 1235l-33 143l-287 -66l34 -144q24 -103 37.5 -247t13.5 -261v-660h294v617q0 18 -1 35q56 -50 175 -84.5t330 -34.5q92 0 162 20t160 63l-50 279q-105 -37 -164.5 -53t-106.5 -14q-64 1 -104 30t-38 104q2 62 38 100.5t99 43.5q24 1 60.5 -7t123.5 -33l67 273
q-53 24 -120.5 43t-113.5 20q-116 3 -214 -52t-156.5 -156.5t-60.5 -231.5q0 -40 24 -69q-50 20 -85.5 66.5t-51.5 87.5q-13 109 -32 188z" />
    <glyph glyph-name="uni06F5" unicode="&#x6f5;" horiz-adv-x="1473" 
d="M646 1440q41 -35 125 -101q156 -126 252 -212t180 -191.5t133 -231.5t49 -274q0 -117 -56.5 -218t-151 -161t-204.5 -60q-92 0 -149.5 28t-92.5 82q-41 -55 -100.5 -82.5t-145.5 -27.5q-112 0 -202.5 58t-142 159t-51.5 222q0 208 130 392.5t330 316.5q-51 41 -84 68z
M1025.5 304.5q27.5 18.5 46 51.5t18.5 74q0 104 -38.5 192t-108 167t-180.5 173q-107 -80 -191.5 -165.5t-136 -179.5t-51.5 -187q0 -70 31 -107t70 -37q55 0 92 25.5t37 99.5v155h258v-100q0 -37 -3 -76q17 -60 43.5 -82t60.5 -22q25 0 52.5 18.5z" />
    <glyph glyph-name="uni06F6" unicode="&#x6f6;" horiz-adv-x="1085" 
d="M672.5 839q-83.5 -22 -144.5 -21q-63 2 -104.5 35t-38.5 108q1 63 37.5 101.5t99.5 43.5q29 1 83 -7.5t128 -32.5l67 273q-49 22 -131.5 42t-130.5 21q-116 4 -214 -51.5t-156.5 -157t-60.5 -232.5q-2 -124 48 -211.5t133 -132.5t179 -46q19 0 38 8q-157 -203 -287 -478
l257 -123q121 256 241 413.5t289 302.5l-185 216q-64 -49 -147.5 -71z" />
    <glyph glyph-name="uni06F7" unicode="&#x6f7;" horiz-adv-x="1252" 
d="M903.5 533.5q-124.5 -366.5 -129.5 -533.5l-299 -1q-5 169 -128 534.5t-314 721.5l242 156q77 -139 134.5 -264t112.5 -295.5t104 -400.5q49 230 103.5 400.5t111.5 296t135 263.5l242 -156q-190 -355 -314.5 -721.5z" />
    <glyph glyph-name="uni06F8" unicode="&#x6f8;" horiz-adv-x="1240" 
d="M903.5 845.5q-124.5 366.5 -129.5 533.5l-299 1q-5 -169 -128 -535t-314 -721l242 -156q77 137 134.5 262.5t112.5 296.5t104 401q49 -231 103.5 -401.5t112 -296t134.5 -262.5l242 156q-190 355 -314.5 721.5z" />
    <glyph glyph-name="uni06F9" unicode="&#x6f9;" horiz-adv-x="1137" 
d="M714 844q-28 -18 -64 -26t-88 -15q-7 -1 -10 -1q-59 -7 -103.5 32.5t-44.5 108.5q0 42 21.5 78.5t57.5 58.5t77 22q48 0 83 -29.5t53 -74.5t18 -89v-65zM714 0h295v909q0 122 -55 234.5t-157.5 182.5t-236.5 70q-119 0 -223 -61.5t-166 -165.5t-62 -224
q-1 -132 66 -238.5t178.5 -160.5t238.5 -38q4 1 14 3q70 11 108 26v-537z" />
    <glyph glyph-name="uni2009" unicode="&#x2009;" horiz-adv-x="107" 
 />
    <glyph glyph-name="uni200A" unicode="&#x200a;" horiz-adv-x="107" 
 />
    <glyph glyph-name="uni200B" unicode="&#x200b;" horiz-adv-x="0" 
 />
    <glyph glyph-name="uni200C" unicode="&#x200c;" horiz-adv-x="0" 
 />
    <glyph glyph-name="uni200D" unicode="&#x200d;" horiz-adv-x="0" 
 />
    <glyph glyph-name="uni200E" unicode="&#x200e;" horiz-adv-x="0" 
 />
    <glyph glyph-name="uni200F" unicode="&#x200f;" horiz-adv-x="0" 
 />
    <glyph glyph-name="quoteleft" unicode="&#x2018;" horiz-adv-x="564" 
d="M360 978l122 476h-244l-155 -476h277z" />
    <glyph glyph-name="quoteright" unicode="&#x2019;" horiz-adv-x="564" 
d="M328 978l154 476h-277l-122 -476h245z" />
    <glyph glyph-name="quotesinglbase" unicode="&#x201a;" horiz-adv-x="564" 
d="M328 -403l154 476h-277l-122 -476h245z" />
    <glyph glyph-name="quotedblleft" unicode="&#x201c;" horiz-adv-x="888" 
d="M683 978l122 476h-220l-155 -476h253zM335 978l122 476h-219l-155 -476h252z" />
    <glyph glyph-name="quotedblright" unicode="&#x201d;" horiz-adv-x="888" 
d="M650 978l155 476h-252l-123 -476h220zM303 978l154 476h-252l-122 -476h220z" />
    <glyph glyph-name="quotedblbase" unicode="&#x201e;" horiz-adv-x="888" 
d="M650 -238l155 477h-252l-123 -477h220zM303 -238l154 477h-252l-122 -477h220z" />
    <glyph glyph-name="guilsinglleft" unicode="&#x2039;" horiz-adv-x="853" 
d="M771 325l-400 309l400 309l-125 190l-563 -434v-130l563 -434z" />
    <glyph glyph-name="guilsinglright" unicode="&#x203a;" horiz-adv-x="853" 
d="M771 569v130l-564 434l-124 -190l399 -309l-399 -309l124 -190z" />
    <glyph glyph-name="infinity" unicode="&#x221e;" horiz-adv-x="1479" 
d="M611.5 313.5q79.5 43.5 128.5 119.5q51 -76 129 -119.5t173 -43.5q161 0 258 91t97 265q0 175 -97 266t-258 91q-94 0 -172 -44.5t-130 -120.5q-50 76 -129 120.5t-173 44.5q-162 0 -258.5 -91t-96.5 -266q0 -174 96.5 -265t258.5 -91q94 0 173.5 43.5zM347 525
q-36 36 -36 101q0 66 36 102t105 36q62 0 105 -34.5t78 -104.5q-62 -136 -183 -136q-69 0 -105 36zM924.5 522.5q-44.5 33.5 -79.5 100.5q34 70 78 105.5t105 35.5q69 0 105 -36t36 -102q0 -65 -36 -101t-105 -36q-59 0 -103.5 33.5z" />
    <glyph glyph-name="notequal" unicode="&#x2260;" horiz-adv-x="998" 
d="M409 80l68 221h439v239h-374l45 145h329v237h-265l67 214h-145l-66 -214h-424v-237h360l-45 -145h-315v-239h249l-67 -221h144z" />
    <glyph glyph-name="lessequal" unicode="&#x2264;" horiz-adv-x="1176" 
d="M1093 575l-666 282l666 282v286l-1010 -454v-229l1010 -453v286zM1093 0v231h-1010v-231h1010z" />
    <glyph glyph-name="greaterequal" unicode="&#x2265;" horiz-adv-x="1176" 
d="M1093 742v229l-1010 454v-286l665 -282l-665 -282v-286zM1093 0v231h-1010v-231h1010z" />
    <glyph glyph-name="uniE000" unicode="&#xe000;" horiz-adv-x="0" 
d="M-88 -12.5q-31 30.5 -74 30.5q-44 0 -74.5 -30.5t-30.5 -74.5q0 -43 30.5 -73.5t74.5 -30.5q43 0 74 30.5t31 73.5q0 44 -31 74.5zM200.5 38q-30.5 31 -73.5 31q-44 0 -74.5 -31t-30.5 -74q0 -44 30.5 -74.5t74.5 -30.5q43 0 73.5 30.5t30.5 74.5q0 43 -30.5 74z
M107.5 -186q-30.5 31 -73.5 31q-44 0 -74.5 -31t-30.5 -74t30.5 -74t74.5 -31q43 0 73.5 31t30.5 74t-30.5 74z" />
    <glyph glyph-name="uniE002" unicode="&#xe002;" horiz-adv-x="726" 
d="M-56.5 207q-14.5 -57 0 -114t56.5 -93h184q113 0 208 53.5t151 144.5t56 199v376h-281v-339q0 -56 -39.5 -95t-94.5 -39h-184q-42 -36 -56.5 -93z" />
    <glyph glyph-name="uniE003" unicode="&#xe003;" horiz-adv-x="793" 
d="M-56.5 207q-14.5 -57 0 -114t56.5 -93h184q171 0 274 144q103 -144 275 -144h60v300h-60q-55 0 -94.5 39t-39.5 95v299h-281v-299q0 -56 -39.5 -95t-94.5 -39h-184q-42 -36 -56.5 -93z" />
    <glyph glyph-name="uniE006" unicode="&#xe006;" horiz-adv-x="1051" 
d="M-56.5 207q-14.5 -57 0 -114t56.5 -93h508q113 0 208.5 53.5t151 144.5t55.5 199v376h-281v-339q0 -56 -39 -95t-95 -39h-508q-42 -36 -56.5 -93z" />
    <glyph glyph-name="uniE007" unicode="&#xe007;" horiz-adv-x="1009" 
d="M-56.5 207q-14.5 -57 0 -114t56.5 -93h400q171 0 275 144q103 -144 274 -144h60v300h-60q-55 0 -94.5 39t-39.5 95v299h-281v-299q0 -56 -39.5 -95t-94.5 -39h-400q-42 -36 -56.5 -93z" />
    <glyph glyph-name="uniE008" unicode="&#xe008;" horiz-adv-x="1349" 
d="M554 446q-225 -88 -336.5 -246t-101.5 -326q8 -149 77.5 -263t196.5 -178t302 -64h513v299h-513q-121 0 -191 46t-88 112q-61 221 242 357l601 280l12 305l-100.5 60t-219 124t-214.5 106q-105 45 -212 31t-194 -82.5t-136 -180.5l-30 -67l258 -115l30 67q19 50 66 83
t110 5q37 -18 132 -62q165 -78 239 -111z" />
    <glyph glyph-name="uniE009" unicode="&#xe009;" horiz-adv-x="1443" 
d="M1256 490l12 278l-100.5 60t-219 124t-214.5 106q-105 45 -212 31t-194 -82.5t-136 -180.5l-30 -67l258 -115l30 67q19 50 66 83t110 5q37 -18 132 -62q165 -78 239 -111l-443 -180q-225 -88 -336.5 -246t-101.5 -326q8 -149 77.5 -263t196.5 -178t302 -64h513v299h-513
q-121 0 -191 46t-88 112q-61 221 242 357l294 138l28 -130q21 -92 92 -141.5t172 -49.5h202v300h-194q-27 0 -49 11.5t-29 38.5l-18 78z" />
    <glyph glyph-name="uniE021" unicode="&#xe021;" horiz-adv-x="1755" 
d="M1404.5 53.5q95.5 53.5 151 144.5t55.5 199v1051h-281v-1014q0 -56 -39.5 -95t-94.5 -39h-653q-56 0 -95 39t-39 95v339h-282v-376q0 -108 56 -199t151.5 -144.5t208.5 -53.5h653q113 0 208.5 53.5z" />
    <glyph glyph-name="uniE022" unicode="&#xe022;" horiz-adv-x="1810" 
d="M1471 144q103 -144 274 -144h65v300h-65q-55 0 -94.5 39t-39.5 95v1014h-281v-1014q0 -56 -39.5 -95t-94.5 -39h-653q-56 0 -95 39t-39 95v339h-282v-376q0 -108 56 -199t151.5 -144.5t208.5 -53.5h653q172 0 275 144z" />
    <glyph glyph-name="uE024" unicode="&#xe024;" horiz-adv-x="861" 
d="M849 0h12v300h-12q-48 0 -89 25.5t-66 69t-25 94.5v244h-282v-653q0 -81 -40.5 -155.5t-109 -119.5t-149.5 -45h-97v-300h97q157 0 290.5 80.5t212 215t78.5 287.5v53q84 -96 180 -96zM669 -735l-193 5l-184 -212l-184 212l-193 -5l320 -373h114z" />
    <glyph glyph-name="uE025" unicode="&#xe025;" horiz-adv-x="733" 
d="M-56.5 207q-14.5 -57 0 -114t56.5 -93h189q113 0 208.5 53.5t151.5 144.5t56 199v376h-282v-339q0 -56 -39 -95t-95 -39h-189q-42 -36 -56.5 -93zM273.5 1241q37.5 51 83.5 51q54 0 76 -33t22 -72q0 -28 -29.5 -47t-71.5 -19h-146q28 69 65.5 120zM48 1137q-1 -5 -2 -14
v-2h-59v-153h367q70 0 128 29t91.5 79t33.5 111q0 73 -31.5 131.5t-88.5 92.5t-130 34q-83 0 -156 -70v267h-153v-505z" />
    <glyph glyph-name="uE026" unicode="&#xe026;" horiz-adv-x="798" 
d="M-56.5 207q-14.5 -57 0 -114t56.5 -93h189q172 0 275 144q103 -144 274 -144h60v300h-60q-55 0 -94 39t-39 95v299h-282v-299q0 -56 -39 -95t-95 -39h-189q-42 -36 -56.5 -93zM273.5 1241q37.5 51 83.5 51q54 0 76 -33t22 -72q0 -28 -29.5 -47t-71.5 -19h-146
q28 69 65.5 120zM48 1137q-1 -5 -2 -14v-2h-59v-153h367q70 0 128 29t91.5 79t33.5 111q0 73 -31.5 131.5t-88.5 92.5t-130 34q-83 0 -156 -70v267h-153v-505z" />
    <glyph glyph-name="uE027" unicode="&#xe027;" horiz-adv-x="1720" 
d="M1720 300h-973v-281h381q49 -1 69.5 -27t20.5 -67q-3 -73 -76 -119.5t-191 -46.5h-241q-150 0 -226 86.5t-75 217.5v471h-282v-509q0 -155 70 -284t202.5 -205.5t310.5 -76.5h241q175 0 297.5 71t182.5 177t60 211q0 48 -14 82h243v300zM645 1124l-193 5l-184 -212
l-184 212l-193 -5l320 -373h114z" />
    <glyph glyph-name="uE028" unicode="&#xe028;" horiz-adv-x="726" 
d="M-56.5 207q-14.5 -57 0 -114t56.5 -93h184q113 0 208 53.5t151 144.5t56 199v376h-281v-339q0 -56 -39.5 -95t-94.5 -39h-184q-42 -36 -56.5 -93zM66 -263q-41 41 -99 41t-99 -41t-41 -99t41 -98.5t99 -40.5t99 40.5t41 98.5t-41 99zM418 -263q-41 41 -99 41t-99 -41
t-41 -99t41 -98.5t99 -40.5t99 40.5t41 98.5t-41 99zM785 1375l-193 5l-184 -212l-184 212l-193 -5l320 -373h114z" />
    <glyph glyph-name="uE029" unicode="&#xe029;" horiz-adv-x="793" 
d="M-56.5 207q-14.5 -57 0 -114t56.5 -93h184q171 0 274 144q103 -144 275 -144h60v300h-60q-55 0 -94.5 39t-39.5 95v299h-281v-299q0 -56 -39.5 -95t-94.5 -39h-184q-42 -36 -56.5 -93zM66 -263q-41 41 -99 41t-99 -41t-41 -99t41 -98.5t99 -40.5t99 40.5t41 98.5t-41 99z
M418 -263q-41 41 -99 41t-99 -41t-41 -99t41 -98.5t99 -40.5t99 40.5t41 98.5t-41 99zM785 1335l-193 5l-184 -212l-184 212l-193 -5l320 -373h114z" />
    <glyph glyph-name="uniFEEA0654" unicode="&#xe030;" horiz-adv-x="1213" 
d="M947.5 48q77.5 -48 172.5 -48h93v300h-95q-39 0 -69.5 26t-35.5 65l-107 731l-279 -40l15 -104q-168 -15 -291.5 -90.5t-186 -198t-51.5 -275.5q8 -112 73 -192t168.5 -114t226 -13.5t239.5 100.5q50 -99 127.5 -147zM723 417q-83 -54 -158 -63t-121.5 16.5t-49.5 65.5
q-9 121 69.5 188t218.5 74zM299 1218l470 180l-54 143l-149 -57q-51 -6 -85 16t-33 70q0 35 21 65t58 30q26 1 49.5 -7t53.5 -23q7 -3 10 -4l39 143q-43 23 -77 33.5t-75 10.5q-68 0 -121 -36t-82 -93.5t-29 -118.5q0 -46 20.5 -89.5t59.5 -69.5l-130 -50z" />
    <glyph glyph-name="uE060_uFBB5" unicode="&#xe032;" horiz-adv-x="842" 
d="M-56.5 207q-14.5 -57 0 -114t56.5 -93h299q113 0 208.5 53.5t151 144.5t55.5 199v376h-281v-339q0 -56 -39.5 -95t-94.5 -39h-299q-42 -36 -56.5 -93zM239 -263q-41 41 -99 41t-99 -41t-41 -99t41 -98.5t99 -40.5t99 40.5t41 98.5t-41 99zM591 -263q-41 41 -99 41
t-99 -41t-41 -99t41 -98.5t99 -40.5t99 40.5t41 98.5t-41 99z" />
    <glyph glyph-name="uE061_uFBB5" unicode="&#xe033;" horiz-adv-x="908" 
d="M-56.5 207q-14.5 -57 0 -114t56.5 -93h299q172 0 275 144q103 -144 274 -144h60v300h-60q-55 0 -94.5 39t-39.5 95v299h-281v-299q0 -56 -39.5 -95t-94.5 -39h-299q-42 -36 -56.5 -93zM239 -263q-41 41 -99 41t-99 -41t-41 -99t41 -98.5t99 -40.5t99 40.5t41 98.5t-41 99
zM591 -263q-41 41 -99 41t-99 -41t-41 -99t41 -98.5t99 -40.5t99 40.5t41 98.5t-41 99z" />
    <glyph glyph-name="uniE006_uFBB5" unicode="&#xe034;" horiz-adv-x="1051" 
d="M-56.5 207q-14.5 -57 0 -114t56.5 -93h508q113 0 208.5 53.5t151 144.5t55.5 199v376h-281v-339q0 -56 -39 -95t-95 -39h-508q-42 -36 -56.5 -93zM227 -263q-41 41 -99 41t-99 -41t-41 -99t41 -98.5t99 -40.5t99 40.5t41 98.5t-41 99zM579 -263q-41 41 -99 41t-99 -41
t-41 -99t41 -98.5t99 -40.5t99 40.5t41 98.5t-41 99z" />
    <glyph glyph-name="uniE007_uFBB5" unicode="&#xe035;" horiz-adv-x="1009" 
d="M-56.5 207q-14.5 -57 0 -114t56.5 -93h400q171 0 275 144q103 -144 274 -144h60v300h-60q-55 0 -94.5 39t-39.5 95v299h-281v-299q0 -56 -39.5 -95t-94.5 -39h-400q-42 -36 -56.5 -93zM227 -263q-41 41 -99 41t-99 -41t-41 -99t41 -98.5t99 -40.5t99 40.5t41 98.5t-41 99
zM579 -263q-41 41 -99 41t-99 -41t-41 -99t41 -98.5t99 -40.5t99 40.5t41 98.5t-41 99z" />
    <glyph glyph-name="uE060_uFBB9" unicode="&#xe036;" horiz-adv-x="842" 
d="M-56.5 207q-14.5 -57 0 -114t56.5 -93h299q113 0 208.5 53.5t151 144.5t55.5 199v376h-281v-339q0 -56 -39.5 -95t-94.5 -39h-299q-42 -36 -56.5 -93zM239 -230q-41 41 -99 41t-99 -41t-41 -99t41 -98.5t99 -40.5t99 40.5t41 98.5t-41 99zM591 -230q-41 41 -99 41
t-99 -41t-41 -99t41 -98.5t99 -40.5t99 40.5t41 98.5t-41 99zM415 -527q-41 41 -99 41t-99 -41t-41 -99t41 -99t99 -41t99 41t41 99t-41 99z" />
    <glyph glyph-name="uE061_uFBB9" unicode="&#xe037;" horiz-adv-x="908" 
d="M-56.5 207q-14.5 -57 0 -114t56.5 -93h299q172 0 275 144q103 -144 274 -144h60v300h-60q-55 0 -94.5 39t-39.5 95v299h-281v-299q0 -56 -39.5 -95t-94.5 -39h-299q-42 -36 -56.5 -93zM239 -230q-41 41 -99 41t-99 -41t-41 -99t41 -98.5t99 -40.5t99 40.5t41 98.5t-41 99
zM591 -230q-41 41 -99 41t-99 -41t-41 -99t41 -98.5t99 -40.5t99 40.5t41 98.5t-41 99zM415 -527q-41 41 -99 41t-99 -41t-41 -99t41 -99t99 -41t99 41t41 99t-41 99z" />
    <glyph glyph-name="uniE006_uFBB9" unicode="&#xe038;" horiz-adv-x="1051" 
d="M-56.5 207q-14.5 -57 0 -114t56.5 -93h508q113 0 208.5 53.5t151 144.5t55.5 199v376h-281v-339q0 -56 -39 -95t-95 -39h-508q-42 -36 -56.5 -93zM227 -230q-41 41 -99 41t-99 -41t-41 -99t41 -98.5t99 -40.5t99 40.5t41 98.5t-41 99zM579 -230q-41 41 -99 41t-99 -41
t-41 -99t41 -98.5t99 -40.5t99 40.5t41 98.5t-41 99zM403 -527q-41 41 -99 41t-99 -41t-41 -99t41 -99t99 -41t99 41t41 99t-41 99z" />
    <glyph glyph-name="uniE007_uFBB9" unicode="&#xe039;" horiz-adv-x="1009" 
d="M-56.5 207q-14.5 -57 0 -114t56.5 -93h400q171 0 275 144q103 -144 274 -144h60v300h-60q-55 0 -94.5 39t-39.5 95v299h-281v-299q0 -56 -39.5 -95t-94.5 -39h-400q-42 -36 -56.5 -93zM227 -230q-41 41 -99 41t-99 -41t-41 -99t41 -98.5t99 -40.5t99 40.5t41 98.5t-41 99
zM579 -230q-41 41 -99 41t-99 -41t-41 -99t41 -98.5t99 -40.5t99 40.5t41 98.5t-41 99zM403 -527q-41 41 -99 41t-99 -41t-41 -99t41 -99t99 -41t99 41t41 99t-41 99z" />
    <glyph glyph-name="uniE002_uFBB3" unicode="&#xe040;" horiz-adv-x="726" 
d="M-56.5 207q-14.5 -57 0 -114t56.5 -93h184q113 0 208 53.5t151 144.5t56 199v376h-281v-339q0 -56 -39.5 -95t-94.5 -39h-184q-42 -36 -56.5 -93zM281 -263q-41 41 -99 41t-99 -41t-41 -99t41 -98.5t99 -40.5t99 40.5t41 98.5t-41 99z" />
    <glyph glyph-name="uniE003_uFBB3" unicode="&#xe041;" horiz-adv-x="793" 
d="M-56.5 207q-14.5 -57 0 -114t56.5 -93h184q171 0 274 144q103 -144 275 -144h60v300h-60q-55 0 -94.5 39t-39.5 95v299h-281v-299q0 -56 -39.5 -95t-94.5 -39h-184q-42 -36 -56.5 -93zM281 -263q-41 41 -99 41t-99 -41t-41 -99t41 -98.5t99 -40.5t99 40.5t41 98.5t-41 99
z" />
    <glyph glyph-name="uniFBE8FBB4" unicode="&#xe042;" horiz-adv-x="733" 
d="M-56.5 207q-14.5 -57 0 -114t56.5 -93h189q113 0 208.5 53.5t151.5 144.5t56 199v376h-282v-339q0 -56 -39 -95t-95 -39h-189q-42 -36 -56.5 -93zM254 1227.5q-41 40.5 -99 40.5t-99 -40.5t-41 -98.5t41 -99t99 -41t99 41t41 99t-41 98.5zM606 1227.5q-41 40.5 -99 40.5
t-99 -40.5t-41 -98.5t41 -99t99 -41t99 41t41 99t-41 98.5z" />
    <glyph glyph-name="uniFBE9FBB4" unicode="&#xe043;" horiz-adv-x="798" 
d="M-56.5 207q-14.5 -57 0 -114t56.5 -93h189q172 0 275 144q103 -144 274 -144h60v300h-60q-55 0 -94 39t-39 95v299h-282v-299q0 -56 -39 -95t-95 -39h-189q-42 -36 -56.5 -93zM254 1188.5q-41 40.5 -99 40.5t-99 -40.5t-41 -98.5t41 -99t99 -41t99 41t41 99t-41 98.5z
M606 1188.5q-41 40.5 -99 40.5t-99 -40.5t-41 -98.5t41 -99t99 -41t99 41t41 99t-41 98.5z" />
    <glyph glyph-name="uniFBE8FBB6" unicode="&#xe044;" horiz-adv-x="733" 
d="M-56.5 207q-14.5 -57 0 -114t56.5 -93h189q113 0 208.5 53.5t151.5 144.5t56 199v376h-282v-339q0 -56 -39 -95t-95 -39h-189q-42 -36 -56.5 -93zM254 1227.5q-41 40.5 -99 40.5t-99 -40.5t-41 -98.5t41 -99t99 -41t99 41t41 99t-41 98.5zM606 1227.5q-41 40.5 -99 40.5
t-99 -40.5t-41 -98.5t41 -99t99 -41t99 41t41 99t-41 98.5zM430 1525q-41 41 -99 41t-99 -41t-41 -99t41 -99t99 -41t99 41t41 99t-41 99z" />
    <glyph glyph-name="uniFBE9FBB6" unicode="&#xe045;" horiz-adv-x="798" 
d="M-56.5 207q-14.5 -57 0 -114t56.5 -93h189q172 0 275 144q103 -144 274 -144h60v300h-60q-55 0 -94 39t-39 95v299h-282v-299q0 -56 -39 -95t-95 -39h-189q-42 -36 -56.5 -93zM254 1188.5q-41 40.5 -99 40.5t-99 -40.5t-41 -98.5t41 -99t99 -41t99 41t41 99t-41 98.5z
M606 1188.5q-41 40.5 -99 40.5t-99 -40.5t-41 -98.5t41 -99t99 -41t99 41t41 99t-41 98.5zM430 1486q-41 41 -99 41t-99 -41t-41 -99t41 -99t99 -41t99 41t41 99t-41 99z" />
    <glyph glyph-name="uE046" unicode="&#xe046;" horiz-adv-x="842" 
d="M-56.5 207q-14.5 -57 0 -114t56.5 -93h299q113 0 208.5 53.5t151 144.5t55.5 199v376h-281v-339q0 -56 -39.5 -95t-94.5 -39h-299q-42 -36 -56.5 -93zM239 -263q-41 41 -99 41t-99 -41t-41 -99t41 -98.5t99 -40.5t99 40.5t41 98.5t-41 99zM591 -263q-41 41 -99 41
t-99 -41t-41 -99t41 -98.5t99 -40.5t99 40.5t41 98.5t-41 99zM851 1375l-193 5l-184 -212l-184 212l-193 -5l320 -373h114z" />
    <glyph glyph-name="uE047" unicode="&#xe047;" horiz-adv-x="1051" 
d="M-56.5 207q-14.5 -57 0 -114t56.5 -93h508q113 0 208.5 53.5t151 144.5t55.5 199v376h-281v-339q0 -56 -39 -95t-95 -39h-508q-42 -36 -56.5 -93zM227 -263q-41 41 -99 41t-99 -41t-41 -99t41 -98.5t99 -40.5t99 40.5t41 98.5t-41 99zM579 -263q-41 41 -99 41t-99 -41
t-41 -99t41 -98.5t99 -40.5t99 40.5t41 98.5t-41 99zM1060 1372l-193 5l-184 -212l-184 212l-193 -5l320 -373h114z" />
    <glyph glyph-name="uniE054" unicode="&#xe054;" horiz-adv-x="0" 
d="M59.5 43q97.5 38 129 91t31.5 109v163h-253v40q0 37 23.5 61t61.5 24h154v144h-154q-59 0 -112 -30.5t-85 -83t-32 -115.5v-85q-1 -37 29.5 -67.5t67.5 -30.5h156v-20q0 -38 -64 -62t-232 -19v-153q182 -4 279.5 34z" />
    <glyph glyph-name="uE055" unicode="&#xe055;" horiz-adv-x="0" 
d="M30 1662.5q38 50.5 83 50.5q54 0 75.5 -33t21.5 -71q0 -28 -29.5 -47.5t-70.5 -19.5h-148q30 70 68 120.5zM-201 1640.5q-9 22.5 -9 44.5v77h-152v-77q0 -68 33.5 -137t89 -114t118.5 -45h231q69 0 127 29t91.5 79.5t33.5 111.5q0 72 -32 131t-88.5 92.5t-129.5 33.5
q-107 0 -177.5 -81t-112.5 -183q-14 16 -23 38.5z" />
    <glyph glyph-name="farsiyeharab.fina.1" unicode="&#xe056;" horiz-adv-x="1629" 
d="M1629 300h-882v-281h390q48 -1 69 -27t20 -67q-3 -73 -76 -119.5t-191 -46.5h-249q-150 0 -226 86.5t-75 217.5v471h-282v-509q0 -155 70 -284t202.5 -205.5t310.5 -76.5h249q176 0 298 71t182.5 177t60.5 211q-1 48 -14 82h143v300z" />
    <glyph glyph-name="yeharab.fina.1" unicode="&#xe057;" horiz-adv-x="1629" 
d="M1629 300h-882v-281h390q48 -1 69 -27t20 -67q-3 -73 -76 -119.5t-191 -46.5h-249q-150 0 -226 86.5t-75 217.5v471h-282v-509q0 -155 70 -284t202.5 -205.5t310.5 -76.5h249q176 0 298 71t182.5 177t60.5 211q-1 48 -14 82h143v300zM717 -740q-41 41 -99 41t-99 -41
t-41 -99t41 -98.5t99 -40.5t99 40.5t41 98.5t-41 99zM1069 -740q-41 41 -99 41t-99 -41t-41 -99t41 -98.5t99 -40.5t99 40.5t41 98.5t-41 99z" />
    <glyph glyph-name="farsiyeharab_u0654" unicode="&#xe058;" horiz-adv-x="1628" 
d="M1629 300h-882v-281h390q48 -1 69 -27t20 -67q-3 -73 -76 -119.5t-191 -46.5h-249q-150 0 -226 86.5t-75 217.5v471h-282v-509q0 -155 70 -284t202.5 -205.5t310.5 -76.5h249q176 0 298 71t182.5 177t60.5 211q-1 48 -14 82h143v300zM144 747l470 180l-54 143l-149 -57
q-51 -6 -85 16t-33 70q0 35 21 65t58 30q26 1 49.5 -7t53.5 -23q7 -3 10 -4l39 143q-43 23 -77 33.5t-75 10.5q-68 0 -121 -36t-82 -93.5t-29 -118.5q0 -46 20.5 -89.5t59.5 -69.5l-130 -50z" />
    <glyph glyph-name="uE059" unicode="&#xe059;" horiz-adv-x="1009" 
d="M-56.5 207q-14.5 -57 0 -114t56.5 -93h400q171 0 275 144q103 -144 274 -144h60v300h-60q-55 0 -94.5 39t-39.5 95v299h-281v-299q0 -56 -39.5 -95t-94.5 -39h-400q-42 -36 -56.5 -93zM227 -263q-41 41 -99 41t-99 -41t-41 -99t41 -98.5t99 -40.5t99 40.5t41 98.5t-41 99
zM579 -263q-41 41 -99 41t-99 -41t-41 -99t41 -98.5t99 -40.5t99 40.5t41 98.5t-41 99zM952 1335l-193 5l-184 -212l-184 212l-193 -5l320 -373h114z" />
    <glyph glyph-name="uE060" unicode="&#xe060;" horiz-adv-x="842" 
d="M-56.5 207q-14.5 -57 0 -114t56.5 -93h299q113 0 208.5 53.5t151 144.5t55.5 199v376h-281v-339q0 -56 -39.5 -95t-94.5 -39h-299q-42 -36 -56.5 -93z" />
    <glyph glyph-name="uE061" unicode="&#xe061;" horiz-adv-x="908" 
d="M-56.5 207q-14.5 -57 0 -114t56.5 -93h299q172 0 275 144q103 -144 274 -144h60v300h-60q-55 0 -94.5 39t-39.5 95v299h-281v-299q0 -56 -39.5 -95t-94.5 -39h-299q-42 -36 -56.5 -93z" />
    <glyph glyph-name="uE062" unicode="&#xe062;" horiz-adv-x="908" 
d="M-56.5 207q-14.5 -57 0 -114t56.5 -93h299q172 0 275 144q103 -144 274 -144h60v300h-60q-55 0 -94.5 39t-39.5 95v299h-281v-299q0 -56 -39.5 -95t-94.5 -39h-299q-42 -36 -56.5 -93zM239 -263q-41 41 -99 41t-99 -41t-41 -99t41 -98.5t99 -40.5t99 40.5t41 98.5t-41 99
zM591 -263q-41 41 -99 41t-99 -41t-41 -99t41 -98.5t99 -40.5t99 40.5t41 98.5t-41 99zM851 1335l-193 5l-184 -212l-184 212l-193 -5l320 -373h114z" />
    <glyph glyph-name="uE066" unicode="&#xe066;" horiz-adv-x="1483" 
d="M674 73l-251 915q-7 26 6 51t39 35q27 10 54.5 -2.5t37.5 -39.5l158 -436l254 -25l401 669l-241 144l-249 -415l-59 158q-32 89 -104 149t-163 77.5t-180 -13.5q-86 -30 -146 -97t-81.5 -154t2.5 -174l251 -915z" />
    <glyph glyph-name="uE067" unicode="&#xe067;" horiz-adv-x="1281" 
d="M649.5 17.5q189.5 8.5 367.5 68.5l133 43l-89 268l-134 -44q-275 -90 -512 -34q34 244 179 471.5t262 363.5l4 5l-208 190q-1 -1 -2 -3q-136 -154 -311 -433.5t-208 -593.5l162 -259q167 -51 356.5 -42.5z" />
    <glyph glyph-name="uniE069" unicode="&#xe069;" horiz-adv-x="650" 
d="M-56.5 207q-14.5 -57 0 -114t56.5 -93h50q172 0 275 144q103 -144 274 -144h51v300h-51q-55 0 -94 39t-39 95v744h-282v-744q0 -56 -39 -95t-95 -39h-50q-42 -36 -56.5 -93z" />
    <glyph glyph-name="uE070" unicode="&#xe070;" horiz-adv-x="802" 
d="M-56.5 207q-14.5 -57 0 -114t56.5 -93h260q112 0 207.5 53.5t151.5 144.5t56 199v376h-281v-339q0 -56 -39.5 -95t-94.5 -39h-260q-42 -36 -56.5 -93zM-27 -230q-41 41 -99 41t-99 -41t-41 -99t41 -98.5t99 -40.5t99 40.5t41 98.5t-41 99zM325 -230q-41 41 -99 41
t-99 -41t-41 -99t41 -98.5t99 -40.5t99 40.5t41 98.5t-41 99zM149 -527q-41 41 -99 41t-99 -41t-41 -99t41 -99t99 -41t99 41t41 99t-41 99z" />
    <glyph glyph-name="uE071" unicode="&#xe071;" horiz-adv-x="868" 
d="M-56.5 207q-14.5 -57 0 -114t56.5 -93h260q171 0 274 144q103 -144 275 -144h59v300h-59q-56 0 -95 39t-39 95v299h-281v-299q0 -56 -39.5 -95t-94.5 -39h-260q-42 -36 -56.5 -93zM-27 -230q-41 41 -99 41t-99 -41t-41 -99t41 -98.5t99 -40.5t99 40.5t41 98.5t-41 99z
M325 -230q-41 41 -99 41t-99 -41t-41 -99t41 -98.5t99 -40.5t99 40.5t41 98.5t-41 99zM149 -527q-41 41 -99 41t-99 -41t-41 -99t41 -99t99 -41t99 41t41 99t-41 99z" />
    <glyph glyph-name="uE072" unicode="&#xe072;" horiz-adv-x="802" 
d="M-56.5 207q-14.5 -57 0 -114t56.5 -93h260q112 0 207.5 53.5t151.5 144.5t56 199v376h-281v-339q0 -56 -39.5 -95t-94.5 -39h-260q-42 -36 -56.5 -93zM-27 -263q-41 41 -99 41t-99 -41t-41 -99t41 -98.5t99 -40.5t99 40.5t41 98.5t-41 99zM325 -263q-41 41 -99 41
t-99 -41t-41 -99t41 -98.5t99 -40.5t99 40.5t41 98.5t-41 99z" />
    <glyph glyph-name="uE073" unicode="&#xe073;" horiz-adv-x="868" 
d="M-56.5 207q-14.5 -57 0 -114t56.5 -93h260q171 0 274 144q103 -144 275 -144h59v300h-59q-56 0 -95 39t-39 95v299h-281v-299q0 -56 -39.5 -95t-94.5 -39h-260q-42 -36 -56.5 -93zM-27 -263q-41 41 -99 41t-99 -41t-41 -99t41 -98.5t99 -40.5t99 40.5t41 98.5t-41 99z
M325 -263q-41 41 -99 41t-99 -41t-41 -99t41 -98.5t99 -40.5t99 40.5t41 98.5t-41 99z" />
    <glyph glyph-name="uE074" unicode="&#xe074;" horiz-adv-x="802" 
d="M-56.5 207q-14.5 -57 0 -114t56.5 -93h260q112 0 207.5 53.5t151.5 144.5t56 199v376h-281v-339q0 -56 -39.5 -95t-94.5 -39h-260q-42 -36 -56.5 -93zM-27 -263q-41 41 -99 41t-99 -41t-41 -99t41 -98.5t99 -40.5t99 40.5t41 98.5t-41 99zM325 -263q-41 41 -99 41
t-99 -41t-41 -99t41 -98.5t99 -40.5t99 40.5t41 98.5t-41 99zM811 1409l-193 5l-184 -212l-184 212l-193 -5l320 -373h114z" />
    <glyph glyph-name="uE075" unicode="&#xe075;" horiz-adv-x="868" 
d="M-56.5 207q-14.5 -57 0 -114t56.5 -93h260q171 0 274 144q103 -144 275 -144h59v300h-59q-56 0 -95 39t-39 95v299h-281v-299q0 -56 -39.5 -95t-94.5 -39h-260q-42 -36 -56.5 -93zM-27 -263q-41 41 -99 41t-99 -41t-41 -99t41 -98.5t99 -40.5t99 40.5t41 98.5t-41 99z
M325 -263q-41 41 -99 41t-99 -41t-41 -99t41 -98.5t99 -40.5t99 40.5t41 98.5t-41 99zM811 1372l-193 5l-184 -212l-184 212l-193 -5l320 -373h114z" />
    <glyph glyph-name="uE076" unicode="&#xe076;" horiz-adv-x="802" 
d="M-56.5 207q-14.5 -57 0 -114t56.5 -93h260q112 0 207.5 53.5t151.5 144.5t56 199v376h-281v-339q0 -56 -39.5 -95t-94.5 -39h-260q-42 -36 -56.5 -93z" />
    <glyph glyph-name="uE077" unicode="&#xe077;" horiz-adv-x="868" 
d="M-56.5 207q-14.5 -57 0 -114t56.5 -93h260q171 0 274 144q103 -144 275 -144h59v300h-59q-56 0 -95 39t-39 95v299h-281v-299q0 -56 -39.5 -95t-94.5 -39h-260q-42 -36 -56.5 -93z" />
    <glyph glyph-name="uE079" unicode="&#xe079;" horiz-adv-x="1119" 
d="M481 368.5q-48 38.5 -62 76t-14 80.5q0 62 47.5 104.5t110.5 41.5q65 0 111.5 -40.5t46.5 -123.5q0 -58 -20.5 -126.5t-76.5 -78.5q-95 28 -143 66.5zM-56.5 207q-14.5 -57 0 -114t56.5 -93h613q101 0 189.5 53.5t144 167.5t55.5 286q0 127 -58 228.5t-158.5 159
t-222.5 57.5q-117 1 -218.5 -56t-161.5 -156t-60 -217q0 -62 26 -121.5t73 -101.5h-222q-42 -36 -56.5 -93z" />
    <glyph glyph-name="uE080" unicode="&#xe080;" horiz-adv-x="902" 
d="M196 -540q156 0 289.5 81t211.5 217.5t78 293.5v681h-281v-653q0 -81 -40.5 -155.5t-109 -119.5t-148.5 -45h-196v-300h196z" />
    <glyph glyph-name="uE081" unicode="&#xe081;" horiz-adv-x="968" 
d="M196 -540q156 0 289.5 81t211.5 217.5t78 293.5v47q88 -99 190 -99h3v300h-3q-52 0 -95.5 25.5t-69 68.5t-25.5 95v244h-281v-653q0 -81 -40.5 -155.5t-109 -119.5t-148.5 -45h-196v-300h196z" />
    <glyph glyph-name="uE082" unicode="&#xe082;" horiz-adv-x="902" 
d="M196 -540q156 0 289.5 81t211.5 217.5t78 293.5v681h-281v-653q0 -81 -40.5 -155.5t-109 -119.5t-148.5 -45h-196v-300h196zM734 1188.5q-41 40.5 -99 40.5t-99 -40.5t-41 -98.5t41 -99t99 -41t99 41t41 99t-41 98.5z" />
    <glyph glyph-name="uE083" unicode="&#xe083;" horiz-adv-x="968" 
d="M196 -540q156 0 289.5 81t211.5 217.5t78 293.5v47q88 -99 190 -99h3v300h-3q-52 0 -95.5 25.5t-69 68.5t-25.5 95v244h-281v-653q0 -81 -40.5 -155.5t-109 -119.5t-148.5 -45h-196v-300h196zM734 1188.5q-41 40.5 -99 40.5t-99 -40.5t-41 -98.5t41 -99t99 -41t99 41
t41 99t-41 98.5z" />
    <glyph glyph-name="uE084" unicode="&#xe084;" horiz-adv-x="902" 
d="M196 -540q156 0 289.5 81t211.5 217.5t78 293.5v681h-281v-653q0 -81 -40.5 -155.5t-109 -119.5t-148.5 -45h-196v-300h196zM558 1188.5q-41 40.5 -99 40.5t-99 -40.5t-41 -98.5t41 -99t99 -41t99 41t41 99t-41 98.5zM910 1188.5q-41 40.5 -99 40.5t-99 -40.5t-41 -98.5
t41 -99t99 -41t99 41t41 99t-41 98.5zM734 1486q-41 41 -99 41t-99 -41t-41 -99t41 -99t99 -41t99 41t41 99t-41 99z" />
    <glyph glyph-name="uE085" unicode="&#xe085;" horiz-adv-x="968" 
d="M196 -540q156 0 289.5 81t211.5 217.5t78 293.5v47q88 -99 190 -99h3v300h-3q-52 0 -95.5 25.5t-69 68.5t-25.5 95v244h-281v-653q0 -81 -40.5 -155.5t-109 -119.5t-148.5 -45h-196v-300h196zM558 1188.5q-41 40.5 -99 40.5t-99 -40.5t-41 -98.5t41 -99t99 -41t99 41
t41 99t-41 98.5zM910 1188.5q-41 40.5 -99 40.5t-99 -40.5t-41 -98.5t41 -99t99 -41t99 41t41 99t-41 98.5zM734 1486q-41 41 -99 41t-99 -41t-41 -99t41 -99t99 -41t99 41t41 99t-41 99z" />
    <glyph glyph-name="uE086" unicode="&#xe086;" horiz-adv-x="902" 
d="M196 -540q156 0 289.5 81t211.5 217.5t78 293.5v681h-281v-653q0 -81 -40.5 -155.5t-109 -119.5t-148.5 -45h-196v-300h196zM611.5 1243q37.5 51 83.5 51q54 0 76 -33t22 -72q0 -28 -29.5 -47t-71.5 -19h-146q28 69 65.5 120zM386 1139q-1 -5 -2 -14v-2h-59v-153h367
q70 0 128 29t91.5 79t33.5 111q0 73 -31.5 131.5t-88.5 92.5t-130 34q-83 0 -156 -70v267h-153v-505z" />
    <glyph glyph-name="uE087" unicode="&#xe087;" horiz-adv-x="968" 
d="M196 -540q156 0 289.5 81t211.5 217.5t78 293.5v47q88 -99 190 -99h3v300h-3q-52 0 -95.5 25.5t-69 68.5t-25.5 95v244h-281v-653q0 -81 -40.5 -155.5t-109 -119.5t-148.5 -45h-196v-300h196zM611.5 1243q37.5 51 83.5 51q54 0 76 -33t22 -72q0 -28 -29.5 -47t-71.5 -19
h-146q28 69 65.5 120zM386 1139q-1 -5 -2 -14v-2h-59v-153h367q70 0 128 29t91.5 79t33.5 111q0 73 -31.5 131.5t-88.5 92.5t-130 34q-83 0 -156 -70v267h-153v-505z" />
    <glyph glyph-name="uE088" unicode="&#xe088;" horiz-adv-x="902" 
d="M196 -540q156 0 289.5 81t211.5 217.5t78 293.5v681h-281v-653q0 -81 -40.5 -155.5t-109 -119.5t-148.5 -45h-196v-300h196zM767 -735l-193 5l-184 -212l-184 212l-193 -5l320 -373h114z" />
    <glyph glyph-name="uE089" unicode="&#xe089;" horiz-adv-x="968" 
d="M196 -540q156 0 289.5 81t211.5 217.5t78 293.5v47q88 -99 190 -99h3v300h-3q-52 0 -95.5 25.5t-69 68.5t-25.5 95v244h-281v-653q0 -81 -40.5 -155.5t-109 -119.5t-148.5 -45h-196v-300h196zM767 -735l-193 5l-184 -212l-184 212l-193 -5l320 -373h114z" />
    <glyph glyph-name="uE090" unicode="&#xe090;" horiz-adv-x="1609" 
d="M815 -541q180 0 316 79t209.5 212t74.5 288v27q65 -65 134 -65h60v300h-60q-55 0 -94.5 39t-39.5 95v1014h-281v-1368q0 -86 -35.5 -159t-107.5 -117.5t-176 -44.5h-88q-103 0 -175 44.5t-107.5 117.5t-35.5 159v437h-282v-475q0 -156 73.5 -289.5t210 -213.5t316.5 -80
h88zM1651 2058l-193 5l-184 -212l-184 212l-193 -5l320 -373h114z" />
    <glyph glyph-name="uE091" unicode="&#xe091;" horiz-adv-x="683" 
d="M-56.5 207q-14.5 -57 0 -114t56.5 -93h113q113 0 208.5 56t151 151t55.5 208v1033h-281v-1014q0 -56 -39.5 -95t-94.5 -39h-113q-42 -36 -56.5 -93zM765 2058l-193 5l-184 -212l-184 212l-193 -5l320 -373h114z" />
    <glyph glyph-name="uE092" unicode="&#xe092;" horiz-adv-x="723" 
d="M-56.5 207q-14.5 -57 0 -114t56.5 -93h113q172 0 275 144q103 -144 274 -144h60v300h-60q-55 0 -94.5 39t-39.5 95v1014h-281v-1014q0 -56 -39.5 -95t-94.5 -39h-113q-42 -36 -56.5 -93zM765 2058l-193 5l-184 -212l-184 212l-193 -5l320 -373h114z" />
    <glyph glyph-name="uniE094" unicode="&#xe094;" horiz-adv-x="0" 
d="M156 288q-64 36 -176 24v31q0 30 18 52t48 27l147 21l-28 204l-88 -16q-85 -13 -153.5 -62.5t-108 -120t-38.5 -144.5v-129q0 -75 61 -127.5t156 -52.5q62 0 114 23.5t82 64.5t30 90q0 79 -64 115z" />
    <glyph glyph-name="uE098" unicode="&#xe098;" horiz-adv-x="2145" 
d="M1685 29.5q71 29.5 125 82.5q53 -52 124 -82t150 -30h60v300h-60q-57 0 -95 31t-38 84q0 113 -56 208.5t-151.5 151.5t-208.5 56h-416l395 483l-218 178l-584 -713l109 -230h714q56 0 95 -39t39 -95q0 -53 -38 -84t-96 -31h-989q-57 0 -95.5 31t-38.5 84v321h-281v-302
q0 -118 56 -217.5t151 -158t208 -58.5h989q79 0 150 29.5z" />
    <glyph glyph-name="uE099" unicode="&#xe099;" horiz-adv-x="1522" 
d="M-56.5 207q-14.5 -57 0 -114t56.5 -93h976q112 0 207.5 56t151.5 151t56 208t-56 208.5t-151.5 151.5t-207.5 56h-417l394 483l-217 178l-583 -713l108 -230h715q55 0 94 -39t39 -95q0 -53 -38 -84t-95 -31h-976q-42 -36 -56.5 -93z" />
    <glyph glyph-name="uE0A0" unicode="&#xe0a0;" horiz-adv-x="1585" 
d="M-56.5 207q-14.5 -57 0 -114t56.5 -93h976q78 0 149.5 29.5t124.5 82.5q53 -52 124 -82t151 -30h59v300h-59q-58 0 -96 31t-38 84q0 113 -56 208.5t-151.5 151.5t-207.5 56h-417l394 483l-217 178l-583 -713l108 -230h715q55 0 94 -39t39 -95q0 -53 -38 -84t-95 -31h-976
q-42 -36 -56.5 -93z" />
    <glyph glyph-name="uE105" unicode="&#xe105;" horiz-adv-x="0" 
d="M93 -191q33 38 29 89t-42 84t-89 29t-84 -42t-29 -89t42 -84t89 -29t84 42z" />
    <glyph glyph-name="uE106" unicode="&#xe106;" horiz-adv-x="1629" 
d="M1629 300h-882v-281h390q48 -1 69 -27t20 -67q-3 -73 -76 -119.5t-191 -46.5h-249q-150 0 -226 86.5t-75 217.5v471h-282v-509q0 -155 70 -284t202.5 -205.5t310.5 -76.5h249q176 0 298 71t182.5 177t60.5 211q-1 48 -14 82h143v300zM645 1161l-193 5l-184 -212l-184 212
l-193 -5l320 -373h114z" />
    <glyph glyph-name="uE108" unicode="&#xe108;" horiz-adv-x="0" 
d="M-77.5 -32q-28.5 28 -67.5 28q-40 0 -68.5 -28t-28.5 -68t28.5 -68t68.5 -28q39 0 67.5 28t28.5 68t-28.5 68zM163 40.5q-28 28.5 -68 28.5t-68 -28.5t-28 -67.5q0 -40 28 -68.5t68 -28.5t68 28.5t28 68.5q0 39 -28 67.5zM100 -180.5q-28 28.5 -68 28.5t-68 -28.5
t-28 -68.5q0 -39 28 -67.5t68 -28.5t68 28.5t28 67.5q0 40 -28 68.5z" />
    <glyph glyph-name="uE109" unicode="&#xe109;" horiz-adv-x="1277" 
d="M452 429v855h-281v-855h281zM171 300v-300h519q113 0 208.5 56t151.5 151t56 208v1033h-282v-1014q0 -56 -39 -95t-95 -39h-519zM299 1766.5q38 50.5 83 50.5q54 0 75.5 -33t21.5 -71q0 -28 -29.5 -47.5t-70.5 -19.5h-148q30 70 68 120.5zM68 1744.5q-9 22.5 -9 44.5v77
h-152v-77q0 -68 33.5 -137t89 -114t118.5 -45h231q69 0 127 29t91.5 79.5t33.5 111.5q0 72 -32 131t-88.5 92.5t-129.5 33.5q-107 0 -177.5 -81t-112.5 -183q-14 16 -23 38.5z" />
    <glyph glyph-name="uE110" unicode="&#xe110;" horiz-adv-x="1300" 
d="M1300 300h-60q-56 0 -95 39t-39 95v1014h-282v-1014q0 -56 -39 -95t-95 -39h-519v-300h519q172 0 275 144q102 -144 275 -144h60v300zM452 429v855h-281v-855h281zM299 1766.5q38 50.5 83 50.5q54 0 75.5 -33t21.5 -71q0 -28 -29.5 -47.5t-70.5 -19.5h-148
q30 70 68 120.5zM68 1744.5q-9 22.5 -9 44.5v77h-152v-77q0 -68 33.5 -137t89 -114t118.5 -45h231q69 0 127 29t91.5 79.5t33.5 111.5q0 72 -32 131t-88.5 92.5t-129.5 33.5q-107 0 -177.5 -81t-112.5 -183q-14 16 -23 38.5z" />
    <glyph glyph-name="uE111" unicode="&#xe111;" horiz-adv-x="1277" 
d="M452 429v855h-281v-855h281zM171 300v-300h519q113 0 208.5 56t151.5 151t56 208v1033h-282v-1014q0 -56 -39 -95t-95 -39h-519zM72 1441l543 216l-57 141l-543 -214zM-35 1741l543 216l-57 141l-543 -214z" />
    <glyph glyph-name="uE112" unicode="&#xe112;" horiz-adv-x="1299" 
d="M1300 300h-60q-56 0 -95 39t-39 95v1014h-282v-1014q0 -56 -39 -95t-95 -39h-519v-300h519q172 0 275 144q102 -144 275 -144h60v300zM452 429v855h-281v-855h281zM72 1441l543 216l-57 141l-543 -214zM-35 1741l543 216l-57 141l-543 -214z" />
    <glyph glyph-name="uE113" unicode="&#xe113;" horiz-adv-x="1276" 
d="M452 429v855h-281v-855h281zM171 300v-300h519q113 0 208.5 56t151.5 151t56 208v1033h-282v-1014q0 -56 -39 -95t-95 -39h-519zM1343 2057l-193 5l-185 -211l-184 211l-193 -5l320 -373h115z" />
    <glyph glyph-name="uE114" unicode="&#xe114;" horiz-adv-x="1299" 
d="M1300 300h-60q-56 0 -95 39t-39 95v1014h-282v-1014q0 -56 -39 -95t-95 -39h-519v-300h519q172 0 275 144q102 -144 275 -144h60v300zM452 429v855h-281v-855h281zM1343 2057l-193 5l-185 -211l-184 211l-193 -5l320 -373h115z" />
    <glyph glyph-name="uE124" unicode="&#xe124;" horiz-adv-x="1277" 
d="M452 429v855h-281v-855h281zM171 300v-300h519q113 0 208.5 56t151.5 151t56 208v1033h-282v-1014q0 -56 -39 -95t-95 -39h-519zM307 1766.5q38 50.5 83 50.5q54 0 75.5 -33t21.5 -71q0 -28 -29.5 -47.5t-70.5 -19.5h-148q30 70 68 120.5zM76 1744.5q-9 22.5 -9 44.5v77
h-152v-77q0 -68 33.5 -137t89 -114t118.5 -45h231q69 0 127 29t91.5 79.5t33.5 111.5q0 72 -32 131t-88.5 92.5t-129.5 33.5q-107 0 -177.5 -81t-112.5 -183q-14 16 -23 38.5zM1343 2058l-193 5l-184 -212l-184 212l-193 -5l320 -373h114z" />
    <glyph glyph-name="uE125" unicode="&#xe125;" horiz-adv-x="1300" 
d="M1300 300h-60q-56 0 -95 39t-39 95v1014h-282v-1014q0 -56 -39 -95t-95 -39h-519v-300h519q172 0 275 144q102 -144 275 -144h60v300zM452 429v855h-281v-855h281zM307 1766.5q38 50.5 83 50.5q54 0 75.5 -33t21.5 -71q0 -28 -29.5 -47.5t-70.5 -19.5h-148
q30 70 68 120.5zM76 1744.5q-9 22.5 -9 44.5v77h-152v-77q0 -68 33.5 -137t89 -114t118.5 -45h231q69 0 127 29t91.5 79.5t33.5 111.5q0 72 -32 131t-88.5 92.5t-129.5 33.5q-107 0 -177.5 -81t-112.5 -183q-14 16 -23 38.5zM1343 2058l-193 5l-184 -212l-184 212l-193 -5
l320 -373h114z" />
    <glyph glyph-name="uE126" unicode="&#xe126;" horiz-adv-x="1277" 
d="M452 429v855h-281v-855h281zM171 300v-300h519q113 0 208.5 56t151.5 151t56 208v1033h-282v-1014q0 -56 -39 -95t-95 -39h-519zM81 1441l543 216l-57 141l-543 -214zM-26 1741l543 216l-57 141l-543 -214zM1342 2058l-193 5l-184 -212l-184 212l-193 -5l320 -373h114z
" />
    <glyph glyph-name="uniE127" unicode="&#xe127;" horiz-adv-x="0" 
d="M299 1599l-58 150l-591 -217l1 -167z" />
    <glyph glyph-name="uE128" unicode="&#xe128;" horiz-adv-x="1299" 
d="M1300 300h-60q-56 0 -95 39t-39 95v1014h-282v-1014q0 -56 -39 -95t-95 -39h-519v-300h519q172 0 275 144q102 -144 275 -144h60v300zM452 429v855h-281v-855h281zM81 1441l543 216l-57 141l-543 -214zM-26 1741l543 216l-57 141l-543 -214zM1342 2058l-193 5l-184 -212
l-184 212l-193 -5l320 -373h114z" />
    <glyph glyph-name="uE130" unicode="&#xe130;" horiz-adv-x="0" 
d="M-118 -225h236v225h-236v-225z" />
    <glyph glyph-name="uE1A0" unicode="&#xe1a0;" 
d="M1248.5 164q161.5 186 161.5 538q0 377 -157 565.5t-503 186.5q-234 0 -379.5 -85t-213 -251.5t-67.5 -415.5q0 -352 161.5 -538t498.5 -186t498.5 186zM513 382.5q-74 112.5 -74 319.5q0 114 15.5 199t52 142.5t97 88t146.5 30.5t146.5 -30.5t97 -88t52 -142.5
t15.5 -199q0 -207 -74 -319.5t-237 -112.5t-237 112.5z" />
    <glyph glyph-name="uE1A1" unicode="&#xe1a1;" 
d="M1038 0v1454l-576 -84v-288l234 39v-1121h342z" />
    <glyph glyph-name="uE1A2" unicode="&#xe1a2;" 
d="M1251 0v264h-546q27 60 76 113.5t128 124.5q17 16 36 30q21 18 31 29q135 117 198.5 218.5t63.5 245.5q0 202 -130.5 315.5t-380.5 113.5q-118 0 -232 -20t-197 -55v-288q173 70 349 70q120 0 181 -51.5t61 -141.5q0 -83 -53.5 -157.5t-159.5 -165.5q-34 -31 -63 -57
q-130 -113 -219 -211.5t-145 -214.5v-162h1002z" />
    <glyph glyph-name="uE1A3" unicode="&#xe1a3;" 
d="M1105.5 87.5q157.5 109.5 157.5 324.5q0 122 -55.5 199t-154.5 113q88 46 135 133.5t47 194.5q0 178 -144 290t-409 112q-113 0 -228 -20.5t-195 -53.5v-262q174 75 361 75q137 0 202 -44.5t65 -128.5q0 -90 -55 -137.5t-171 -47.5h-192l-24 -224h231q116 0 177.5 -44
t61.5 -132q0 -102 -71.5 -149t-217.5 -47q-98 0 -199.5 18.5t-189.5 56.5v-263q76 -29 210 -51t232 -22q269 0 426.5 109.5z" />
    <glyph glyph-name="uE1A4" unicode="&#xe1a4;" 
d="M1192 0v289h137v277h-137v866h-297l-724 -913v-230h679v-289h342zM909 1058v-505h-410z" />
    <glyph glyph-name="uE1A5" unicode="&#xe1a5;" 
d="M1108.5 103q146.5 125 146.5 343q0 229 -127 337.5t-374 105.5h-197l19 279h561l24 264h-878l-38 -615v-158h423q133 0 186 -47t53 -154q0 -104 -69.5 -160t-208.5 -56q-85 0 -193 20.5t-184 51.5v-265q79 -33 202.5 -52t225.5 -19q282 0 428.5 125z" />
    <glyph glyph-name="uE1A6" unicode="&#xe1a6;" 
d="M1183 109.5q141 131.5 141 361.5q0 232 -122.5 349.5t-376.5 117.5q-83 0 -172.5 -24t-155.5 -69v68q0 123 94 206.5t260 83.5q197 0 334 -57v253q-76 30 -164.5 42.5t-205.5 12.5q-294 0 -466.5 -171t-172.5 -441v-294q0 -287 144 -428.5t433 -141.5t430 131.5z
M560.5 282q-63.5 64 -63.5 203v129q59 40 128 62.5t134 22.5q138 0 198 -60.5t60 -179.5q0 -114 -66.5 -177.5t-195.5 -63.5q-131 0 -194.5 64z" />
    <glyph glyph-name="uE1A7" unicode="&#xe1a7;" 
d="M733 0l520 1229v203h-1006v-264h625l-494 -1168h355z" />
    <glyph glyph-name="uE1A8" unicode="&#xe1a8;" 
d="M1199.5 85q146.5 107 146.5 320q0 114 -55.5 195.5t-166.5 126.5q94 45 139.5 126t45.5 177q0 132 -58 227t-181 146t-321 51q-284 0 -421 -111.5t-137 -312.5q0 -92 44.5 -169t134.5 -119q-102 -41 -159 -132.5t-57 -204.5q0 -213 148 -320t447 -107q304 0 450.5 107z
M667 846q-151 28 -151 177q0 93 59.5 142t173.5 49q116 0 175.5 -50t59.5 -141q0 -82 -43 -131t-135 -74zM479 422q0 91 48.5 140.5t139.5 70.5l163 -34q102 -21 146.5 -64t44.5 -124q0 -95 -68 -144t-204 -49q-270 0 -270 204z" />
    <glyph glyph-name="uE1A9" unicode="&#xe1a9;" 
d="M1156 152q168 174 168 438v294q0 292 -137.5 431t-435.5 139q-286 0 -430 -133t-145 -364q0 -232 124.5 -350t377.5 -118q173 0 325 93v-65q0 -122 -89.5 -205t-259.5 -83q-203 0 -336 54v-254q77 -27 166 -39t205 -12q299 0 467 174zM547.5 785.5
q-64.5 57.5 -64.5 183.5q0 116 68 180.5t199 64.5q133 0 193 -64t60 -203v-134q-58 -40 -123.5 -62.5t-135.5 -22.5q-132 0 -196.5 57.5z" />
    <glyph glyph-name="uE1B0" unicode="&#xe1b0;" 
d="M395 314.5q55 -94.5 149 -149t206 -54.5t206 54.5t149 149t55 206.5t-55 206t-149 149t-206 55t-206 -55t-149 -149t-55 -206t55 -206.5zM650 622q43 42 106 42q55 0 96 -42.5t41 -100.5q0 -59 -42 -101t-101 -42t-101 42t-42 101t43 101z" />
    <glyph glyph-name="uE1B1" unicode="&#xe1b1;" 
d="M940 660q0 133 -15 293t-44 282l-33 143l-288 -67l34 -143q25 -103 38 -252t13 -256v-660h295v660z" />
    <glyph glyph-name="uE1B2" unicode="&#xe1b2;" 
d="M622 1235l-33 143l-287 -67l33 -143q25 -103 38 -252t13 -256v-660h295v592q0 4 -1 16v28q43 -53 153 -39q162 23 260 124.5t105 253.5q2 83 -6.5 149.5t-36.5 211.5q-5 29 -8 45l-289 -55q4 -22 11 -60q23 -120 29.5 -170.5t4.5 -109.5q-3 -83 -108 -97q-51 -6 -84.5 15
t-45.5 55q-16 161 -43 276z" />
    <glyph glyph-name="uE1B3" unicode="&#xe1b3;" 
d="M1345 725.5q99 101.5 106 253.5q3 81 -5.5 147.5t-35.5 208.5q-6 32 -10 49l-290 -54q4 -21 12 -58q24 -126 30.5 -175t4.5 -108q-5 -81 -110 -96q-32 -4 -60 6.5t-58 40.5q5 17 6 35q2 83 -6.5 149.5t-36.5 211.5q-5 30 -8 45l-289 -55q4 -22 11 -60q23 -119 29.5 -170
t4.5 -110q-3 -83 -107 -97q-51 -6 -80.5 14.5t-41.5 55.5q-15 161 -43 276l-33 143l-287 -67l34 -143q24 -103 37.5 -247t13.5 -261v-660h294v603q0 13 -1 28q40 -46 144 -34q128 17 217 89q60 -42 139.5 -69t157.5 -16q162 23 261 124.5z" />
    <glyph glyph-name="uE1B4" unicode="&#xe1b4;" 
d="M468 1235l-33 143l-288 -66l34 -144q24 -103 37.5 -247t13.5 -261v-660h294v617q0 18 -1 35q56 -50 175 -84.5t330 -34.5q93 0 163 20t160 63l-50 279q-106 -37 -165.5 -53t-105.5 -14q-64 1 -104.5 30t-37.5 104q2 62 38 100.5t99 43.5q24 1 60 -7t123 -33l67 273
q-53 24 -120.5 43t-112.5 20q-117 3 -215 -52t-156 -156.5t-60 -231.5q-1 -40 23 -69q-49 20 -84.5 66.5t-51.5 87.5q-14 109 -32 188z" />
    <glyph glyph-name="uE1B5" unicode="&#xe1b5;" 
d="M659 1440q42 -35 125 -101q156 -126 252 -212t180 -191.5t133 -231.5t49 -274q0 -117 -56.5 -218t-151 -161t-204.5 -60q-92 0 -149.5 28t-92.5 82q-41 -55 -100.5 -82.5t-145.5 -27.5q-112 0 -202.5 58t-142 159t-51.5 222q0 208 130 392.5t331 316.5q-52 41 -85 68z
M1039 304.5q28 18.5 46 51.5t18 74q0 104 -38 192t-108 167t-181 173q-107 -80 -191.5 -165.5t-136 -179.5t-51.5 -187q0 -70 31 -107t70 -37q55 0 92 25.5t37 99.5v155h258v-100q0 -37 -3 -76q17 -60 43.5 -82t60.5 -22q25 0 53 18.5z" />
    <glyph glyph-name="uE1B6" unicode="&#xe1b6;" 
d="M866.5 839q-83.5 -22 -145.5 -21q-62 2 -103.5 35t-39.5 108q2 63 38 101.5t99 43.5q29 1 83.5 -7.5t128.5 -32.5l67 273q-49 22 -132 42t-130 21q-116 4 -214 -51.5t-156.5 -157t-60.5 -232.5q-2 -124 48 -211.5t133 -132.5t179 -46q18 0 38 8q-157 -203 -288 -478
l258 -123q120 256 240 413.5t290 302.5l-185 216q-64 -49 -147.5 -71z" />
    <glyph glyph-name="uE1B7" unicode="&#xe1b7;" 
d="M1028 533.5q-124 -366.5 -130 -533.5l-299 -1q-4 169 -127.5 534.5t-314.5 721.5l243 156q77 -139 134 -264t112 -295.5t104 -400.5q49 230 103.5 400.5t112 296t134.5 263.5l243 -156q-191 -355 -315 -721.5z" />
    <glyph glyph-name="uE1B8" unicode="&#xe1b8;" 
d="M1028 845.5q-124 366.5 -130 533.5l-299 1q-4 -169 -127.5 -535t-314.5 -721l243 -156q77 137 134 262.5t112 296.5t104 401q49 -231 103.5 -401.5t112 -296t134.5 -262.5l243 156q-191 355 -315 721.5z" />
    <glyph glyph-name="uE1B9" unicode="&#xe1b9;" 
d="M906 844q-28 -18 -64 -26t-89 -15q-6 0 -9 -1q-60 -7 -104.5 32.5t-44.5 108.5q0 42 21.5 78.5t57.5 58.5t78 22q48 0 83 -29.5t53 -74.5t18 -88v-66zM906 0h294v910q0 122 -55 234t-157 182.5t-236 70.5q-120 0 -224 -62t-166 -166t-62 -224q-1 -132 66 -238t178.5 -160
t238.5 -38q5 1 15 2q70 11 108 26v-537z" />
    <glyph glyph-name="uE1C0" unicode="&#xe1c0;" 
d="M750 278l245 245l-245 245l-245 -245z" />
    <glyph glyph-name="uE1C1" unicode="&#xe1c1;" 
d="M940 660q0 133 -15 293t-44 282l-33 143l-287 -67l34 -143q24 -103 37.5 -252t13.5 -256v-660h294v660z" />
    <glyph glyph-name="uE1C2" unicode="&#xe1c2;" 
d="M622 1235l-33 143l-287 -67l34 -143q24 -103 37.5 -252t13.5 -256v-660h294v592v16q-1 19 -1 28q43 -53 153 -39q162 23 260 124.5t105 253.5q3 83 -6 149.5t-36 211.5q-6 29 -9 45l-289 -55q4 -22 11 -60q23 -120 30 -170.5t5 -109.5q-4 -83 -109 -97q-51 -6 -84.5 15
t-45.5 55q-16 161 -43 276z" />
    <glyph glyph-name="uE1C3" unicode="&#xe1c3;" 
d="M1345 725.5q99 101.5 106 253.5q3 81 -5.5 147.5t-35.5 208.5q-6 32 -10 49l-290 -54q4 -21 12 -58q24 -126 30.5 -175t4.5 -108q-5 -81 -110 -96q-33 -4 -60.5 6.5t-57.5 40.5q5 17 6 35q2 83 -6.5 149.5t-36.5 211.5q-5 30 -8 45l-289 -55q4 -22 11 -60
q23 -119 29.5 -170t4.5 -110q-3 -83 -107 -97q-51 -6 -80.5 14.5t-41.5 55.5q-16 161 -43 276l-33 143l-287 -67l34 -143q24 -103 37.5 -247t13.5 -261v-660h294v603q0 13 -1 28q40 -46 144 -34q128 17 217 89q59 -42 139 -69t158 -16q162 23 261 124.5z" />
    <glyph glyph-name="uE1C4" unicode="&#xe1c4;" 
d="M501.5 732q90.5 -85 285.5 -53q13 0 33 -14t54 -43q39 -33 62 -48.5t38 -12.5l143 28l-55 276l-144 -28q-65 -13 -112 -4.5t-69 30.5q-27 25 -17 76q14 76 58 117.5t90 55t79 13.5q26 0 68 -6t74 -14l11 282q-37 12 -76.5 16t-76.5 4q-108 0 -213 -44.5t-184 -136.5
t-106 -229q-33 -180 57.5 -265zM1156 282h-414q-45 0 -77.5 28.5t-37.5 72.5q-5 45 21.5 82t70.5 45l398 79l-55 276l-398 -79q-92 -18 -165 -74.5t-114 -139t-41 -175.5q0 -108 53.5 -199t145 -144.5t199.5 -53.5h414v282z" />
    <glyph glyph-name="uE1C5" unicode="&#xe1c5;" 
d="M1160.5 114.5q161.5 124.5 161.5 447.5q0 207 -64 394.5t-193.5 305t-314.5 117.5t-314.5 -117.5t-193.5 -305t-64 -394.5q0 -323 161.5 -447.5t379.5 -124.5h62q218 0 379.5 124.5zM908.5 1016q65.5 -82 98.5 -206t33 -248q0 -77 -12 -130.5t-41 -89t-79.5 -53
t-126.5 -17.5h-62q-77 0 -127 17.5t-79 53t-41 89t-12 130.5q0 124 33 247.5t98.5 206t158.5 82.5t158.5 -82z" />
    <glyph glyph-name="uE1C6" unicode="&#xe1c6;" 
d="M1275 111q-93 151 -145 330t-39 375.5t114 379.5l-165 203q-184 -57 -307.5 -69.5t-200.5 1.5t-180 50q-19 7 -29 10l-98 -255q2 -1 7 -3q122 -46 197.5 -66t178.5 -22t255 24q-56 -227 -50 -418t62 -354.5t160 -332.5z" />
    <glyph glyph-name="uE1C7" unicode="&#xe1c7;" 
d="M1027.5 533.5q-124.5 -366.5 -129.5 -533.5l-299 -1q-5 169 -128 534.5t-314 721.5l242 156q77 -139 134.5 -264t112.5 -295.5t104 -400.5q49 230 103.5 400.5t111.5 296t135 263.5l242 -156q-190 -355 -314.5 -721.5z" />
    <glyph glyph-name="uE1C8" unicode="&#xe1c8;" 
d="M1027.5 845.5q-124.5 366.5 -129.5 533.5l-299 1q-5 -169 -128 -535t-314 -721l242 -156q77 137 134.5 262.5t112.5 296.5t104 401q49 -231 103.5 -401.5t112 -296t134.5 -262.5l242 156q-190 355 -314.5 721.5z" />
    <glyph glyph-name="uE1C9" unicode="&#xe1c9;" 
d="M905 844q-28 -18 -64 -26t-88 -15q-7 -1 -10 -1q-59 -7 -103.5 32.5t-44.5 108.5q0 42 21.5 78.5t57.5 58.5t77 22q48 0 83 -29.5t53 -74.5t18 -89v-65zM905 0h295v909q0 122 -55 234.5t-157.5 182.5t-236.5 70q-119 0 -223 -61.5t-166 -165.5t-62 -224
q-1 -132 66 -238.5t178.5 -160.5t238.5 -38q4 1 14 3q70 11 108 26v-537z" />
    <glyph glyph-name="uE1D0" unicode="&#xe1d0;" 
d="M668 72l-252 915q-7 27 6.5 51.5t39.5 34.5q27 10 54.5 -2.5t37.5 -39.5l158 -436l253 -24l402 668l-242 145l-248 -415l-59 158q-33 89 -104.5 148.5t-163 77.5t-180.5 -13q-85 -30 -145 -97t-81.5 -154t2.5 -175l250 -914z" />
    <glyph glyph-name="uE1D1" unicode="&#xe1d1;" 
d="M759 18q189 8 367 68l134 44l-90 267l-134 -44q-274 -90 -512 -33q35 244 179.5 471.5t262.5 363.5q3 4 4 4l-209 190q0 -1 -2 -3q-136 -154 -311 -433.5t-208 -593.5l162 -259q168 -50 357 -42z" />
    <glyph glyph-name="uE1D2" unicode="&#xe1d2;" 
d="M557 870q86 89 86 233q0 165 -85 258t-244 93t-243.5 -93t-84.5 -258q0 -144 85.5 -233t242.5 -89t243 89zM534 0l753 1432h-324l-753 -1432h324zM170 1110q0 85 36 126t108 41t108 -41t36 -126q0 -75 -35.5 -113t-108.5 -38q-144 0 -144 151zM1428.5 67
q85.5 89 85.5 233q0 165 -84.5 258t-243.5 93t-244 -93t-85 -258q0 -144 86 -233t243 -89t242.5 89zM1042 306q0 86 36 126.5t108 40.5t108 -40.5t36 -126.5q0 -74 -35.5 -112.5t-108.5 -38.5q-144 0 -144 151z" />
    <glyph glyph-name="uE1D3" unicode="&#xe1d3;" 
d="M750 895l162 -219l197 144l-185 191l241 100l-102 208l-197 -103l12 216h-256l12 -216l-197 103l-102 -208l240 -99l-184 -192l197 -144z" />
    <glyph glyph-name="uE1D4" unicode="&#xe1d4;" 
d="M883 196v287h312v264h-312v292h-267v-292h-311v-264h311v-287h267z" />
    <glyph glyph-name="uE1D5" unicode="&#xe1d5;" 
d="M890 0v255h-280v-255h280z" />
    <glyph glyph-name="uE1D6" unicode="&#xe1d6;" 
d="M1186 685v237h-872v-237h872zM1186 302v238h-872v-238h872z" />
    <glyph glyph-name="uE1D7" unicode="&#xe1d7;" 
d="M656 80l71 222h459v238h-391l47 145h344v237h-277l69 214h-152l-69 -214h-443v-237h376l-47 -145h-329v-238h261l-71 -222h152z" />
    <glyph glyph-name="uE1D8" unicode="&#xe1d8;" 
d="M883 354v287h312v264h-312v293h-267v-293h-311v-264h311v-287h267zM1195 0v264h-890v-264h890z" />
    <glyph glyph-name="uE1D9" unicode="&#xe1d9;" 
d="M1145 328l-228 227l228 229l-169 168l-229 -226l-223 228l-169 -168l228 -227l-219 -218l169 -168l220 217l227 -227z" />
    <glyph glyph-name="uE1E0" unicode="&#xe1e0;" 
d="M864 905v220h-231v-220h231zM1182 483v264h-864v-264h864zM864 112v220h-231v-220h231z" />
    <glyph glyph-name="uE1E1" unicode="&#xe1e1;" 
d="M1187 1332l-194 88l-681 -1359l194 -87zM517.5 1264q48.5 -49 48.5 -118q0 -68 -49 -117.5t-117 -49.5q-70 0 -118.5 49t-48.5 118t48.5 118t118.5 49q69 0 117.5 -49zM1218.5 365.5q48.5 -48.5 48.5 -118.5q0 -69 -49 -117.5t-118 -48.5t-117.5 48.5t-48.5 117.5
q0 70 48.5 118.5t117.5 48.5q70 0 118.5 -48.5z" />
    <glyph glyph-name="uE1E2" unicode="&#xe1e2;" 
d="M757 -259q77 41 119 121t42 183v230h-190v-230q0 -40 -14 -79.5t-48 -58.5l-84 -45l91 -167z" />
    <glyph glyph-name="uE1E3" unicode="&#xe1e3;" 
d="M1025 405l-172 77l-378 -831l173 -78z" />
    <glyph glyph-name="uE1E4" unicode="&#xe1e4;" 
d="M1182 482v264h-864v-264h864z" />
    <glyph glyph-name="uniFBB2" unicode="&#xfbb2;" horiz-adv-x="0" 
d="M99 218.5q-41 40.5 -99 40.5t-99 -40.5t-41 -98.5t41 -99t99 -41t99 41t41 99t-41 98.5z" />
    <glyph glyph-name="uniFBB3" unicode="&#xfbb3;" horiz-adv-x="0" 
d="M99 -21q-41 41 -99 41t-99 -41t-41 -99t41 -98.5t99 -40.5t99 40.5t41 98.5t-41 99z" />
    <glyph glyph-name="uniFBB4" unicode="&#xfbb4;" horiz-adv-x="0" 
d="M-77 218.5q-41 40.5 -99 40.5t-99 -40.5t-41 -98.5t41 -99t99 -41t99 41t41 99t-41 98.5zM275 218.5q-41 40.5 -99 40.5t-99 -40.5t-41 -98.5t41 -99t99 -41t99 41t41 99t-41 98.5z" />
    <glyph glyph-name="uniFBB5" unicode="&#xfbb5;" horiz-adv-x="0" 
d="M-77 -21q-41 41 -99 41t-99 -41t-41 -99t41 -98.5t99 -40.5t99 40.5t41 98.5t-41 99zM275 -21q-41 41 -99 41t-99 -41t-41 -99t41 -98.5t99 -40.5t99 40.5t41 98.5t-41 99z" />
    <glyph glyph-name="uniFBB6" unicode="&#xfbb6;" horiz-adv-x="0" 
d="M-77 218.5q-41 40.5 -99 40.5t-99 -40.5t-41 -98.5t41 -99t99 -41t99 41t41 99t-41 98.5zM275 218.5q-41 40.5 -99 40.5t-99 -40.5t-41 -98.5t41 -99t99 -41t99 41t41 99t-41 98.5zM99 516q-41 41 -99 41t-99 -41t-41 -99t41 -99t99 -41t99 41t41 99t-41 99z" />
    <glyph glyph-name="uniFBB9" unicode="&#xfbb9;" horiz-adv-x="0" 
d="M-77 -21q-41 41 -99 41t-99 -41t-41 -99t41 -98.5t99 -40.5t99 40.5t41 98.5t-41 99zM275 -21q-41 41 -99 41t-99 -41t-41 -99t41 -98.5t99 -40.5t99 40.5t41 98.5t-41 99zM99 -318q-41 41 -99 41t-99 -41t-41 -99t41 -99t99 -41t99 41t41 99t-41 99z" />
    <glyph glyph-name="uniFD3E" unicode="&#xfd3e;" horiz-adv-x="978" 
d="M582.5 787.5q38.5 -38.5 38.5 -93.5t-38.5 -93t-93.5 -38t-93.5 38t-38.5 93t38.5 93.5t93.5 38.5t93.5 -38.5zM442 134q34 -94 89 -202l54 -104l209 108l-54 104q-83 158 -122 323q102 38 165.5 128.5t63.5 202.5q0 113 -63.5 203.5t-165.5 128.5q37 154 122 323l54 105
l-209 107l-54 -105q-110 -213 -153 -421q-109 -36 -178 -129.5t-69 -211.5q0 -117 69 -210t177 -129q31 -127 65 -221z" />
    <glyph glyph-name="uniFD3F" unicode="&#xfd3f;" horiz-adv-x="978" 
d="M395.5 787.5q-38.5 -38.5 -38.5 -93.5t38.5 -93t93.5 -38t93.5 38t38.5 93t-38.5 93.5t-93.5 38.5t-93.5 -38.5zM537 134q-34 -94 -89 -202l-55 -104l-209 108l54 104q83 158 122 323q-101 38 -165 128.5t-64 202.5q0 113 64 203.5t165 128.5q-37 154 -122 323l-54 105
l209 107l55 -105q109 -213 153 -421q108 -36 177 -129.5t69 -211.5q0 -117 -68.5 -210t-176.5 -129q-31 -127 -65 -221z" />
    <glyph glyph-name="uni0627_alt.short" horiz-adv-x="623" 
d="M171 0h281v1284h-281v-1284z" />
    <glyph glyph-name="uni0627.fina.short" horiz-adv-x="677" 
d="M677 300h-99q-55 0 -90.5 38.5t-35.5 95.5v850h-281v-887q0 -107 49 -198t141 -145t217 -54h99v300z" />
    <glyph glyph-name="uni066E.fina" horiz-adv-x="1826" 
d="M1492 144q103 -144 274 -144h60v300h-60q-55 0 -94.5 39t-39.5 95v299h-281v-299q0 -56 -39 -95t-95 -39h-674q-56 0 -95 39t-39 95v339h-282v-376q0 -108 56 -199t151.5 -144.5t208.5 -53.5h674q172 0 275 144z" />
    <glyph glyph-name="uni06A1.fina" horiz-adv-x="1871" 
d="M1398 652.5q51 -33.5 51 -100.5q0 -134 -161 -252q-162 118 -162 252q0 67 51 100.5t111 33.5q59 0 110 -33.5zM1004 0q124 0 194 18.5t90 39.5q10 -12 43 -25.5t93.5 -23t145.5 -9.5h302v300h-235q40 44 66.5 110.5t26.5 141.5q0 115 -58.5 210.5t-160 150.5t-223.5 55
q-123 0 -224.5 -55t-160.5 -150.5t-59 -210.5q0 -75 26.5 -141.5t67.5 -110.5h-395q-56 0 -95 39t-39 95v339h-282v-376q0 -108 56 -199t151.5 -144.5t208.5 -53.5h461z" />
    <glyph glyph-name="uni06A1.medi" horiz-adv-x="1169" 
d="M695 652.5q51 -33.5 51 -100.5q0 -133 -161 -252q-162 118 -162 252q0 67 51 100.5t111 33.5q59 0 110 -33.5zM-56.5 207q-14.5 -57 0 -114t56.5 -93h302q124 0 193.5 18.5t89.5 39.5q19 -21 89 -39.5t193 -18.5h302v300h-234q40 45 66 111t26 141q0 115 -58.5 210.5
t-160 150.5t-223.5 55q-123 0 -224.5 -55t-160 -150.5t-58.5 -210.5q-1 -75 25.5 -141.5t67.5 -110.5h-235q-42 -36 -56.5 -93z" />
    <glyph glyph-name="uniE014" horiz-adv-x="1750" 
d="M1136 301q-92 0 -123.5 29.5t-31.5 91.5q0 69 35 131.5t120 62.5q87 0 121.5 -59.5t34.5 -134.5v-121h-156zM1750 300h-176v122q0 138 -55.5 246.5t-155 168.5t-227.5 60q-125 0 -224.5 -61t-156 -169.5t-56.5 -244.5q0 -200 105.5 -310.5t331.5 -110.5h153
q-2 -109 -73 -174.5t-184 -65.5h-305q-103 0 -175 44t-107.5 117t-35.5 159v455h-282v-493q0 -156 74 -289.5t210 -213t317 -79.5h304q135 0 258 73.5t200.5 197.5t82.5 268h177v300z" />
    <glyph glyph-name="uni0642" horiz-adv-x="1701" 
d="M1363.5 836.5q99.5 -60.5 155 -168.5t55.5 -247v-404q0 -147 -77 -275.5t-202.5 -205t-262.5 -76.5h-305q-180 0 -316.5 80t-210 213t-73.5 290v492h282v-455q0 -85 35.5 -158t107.5 -117.5t175 -44.5h305q113 0 184 66t73 174h-153q-226 0 -331.5 111t-105.5 310
q0 137 56.5 245t156 169.5t224.5 61.5q128 0 227.5 -60.5zM1292 421q0 76 -34.5 135t-121.5 59q-85 0 -120 -62.5t-35 -131.5q0 -61 31.5 -91t123.5 -30h156v121zM1060 1302.5q-41 40.5 -99 40.5t-99 -40.5t-41 -98.5t41 -99t99 -41t99 41t41 99t-41 98.5zM1412 1302.5
q-41 40.5 -99 40.5t-99 -40.5t-41 -98.5t41 -99t99 -41t99 41t41 99t-41 98.5z" />
    <glyph glyph-name="uni06D2.2.fina" horiz-adv-x="971" 
d="M1075 -188h-532q-59 0 -96.5 24.5t-37.5 69.5q0 46 37.5 70t96.5 24h427v300h-427q-114 0 -209.5 -51t-151 -141t-55.5 -202q0 -111 55.5 -196.5t150.5 -132t210 -46.5h532v281z" />
    <glyph glyph-name="uni06D3.2.fina" horiz-adv-x="971" 
d="M1075 -188h-532q-59 0 -96.5 24.5t-37.5 69.5q0 46 37.5 70t96.5 24h427v300h-427q-114 0 -209.5 -51t-151 -141t-55.5 -202q0 -111 55.5 -196.5t150.5 -132t210 -46.5h532v281zM283 492l470 180l-54 143l-149 -57q-51 -6 -85 16t-33 70q0 35 21 65t58 30q26 1 49.5 -7
t53.5 -23q7 -3 10 -4l39 143q-43 23 -77 33.5t-75 10.5q-68 0 -121 -36t-82 -93.5t-29 -118.5q0 -46 20.5 -89.5t59.5 -69.5l-130 -50z" />
    <glyph glyph-name="uni06270644.init" horiz-adv-x="1277" 
d="M452 429v855h-281v-855h281zM171 300v-300h519q113 0 208.5 56t151.5 151t56 208v1033h-282v-1014q0 -56 -39 -95t-95 -39h-519z" />
    <glyph glyph-name="uni06270644.medi" horiz-adv-x="1299" 
d="M1300 300h-60q-56 0 -95 39t-39 95v1014h-282v-1014q0 -56 -39 -95t-95 -39h-519v-300h519q172 0 275 144q102 -144 275 -144h60v300zM452 429v855h-281v-855h281z" />
    </font>
</defs>
</svg>
