<?xml version="1.0" standalone="no"?>
<!DOCTYPE svg PUBLIC "-//W3C//DTD SVG 1.1//EN" "http://www.w3.org/Graphics/SVG/1.1/DTD/svg11.dtd" >
<svg xmlns="http://www.w3.org/2000/svg" xmlns:xlink="http://www.w3.org/1999/xlink" version="1.1">
<metadata>
Created by FontForge 20201107 at Sat Sep 21 20:35:55 2024
 By 
Copyright 2024 The Arad Project Authors (https://github.com/MDarvishi5124/Arad)
</metadata>
<defs>
<font id="Arad-LightDots2" horiz-adv-x="1500" >
  <font-face 
    font-family="Arad Light Dots2"
    font-weight="300"
    font-stretch="normal"
    units-per-em="2176"
    panose-1="0 0 0 0 0 0 0 0 0 0"
    ascent="1740"
    descent="-436"
    x-height="1054"
    cap-height="1432"
    bbox="-421 -1154 3075 2347.4"
    underline-thickness="40"
    underline-position="-185"
    unicode-range="U+000D-FEFC"
  />
<missing-glyph horiz-adv-x="1300" 
d="M1164 0v1400h-1028v-1400h1028zM279 1257h742v-1114h-742v1114z" />
    <glyph glyph-name="uni0626" unicode="&#x649;&#x654;" horiz-adv-x="1577" 
d="M1362 146q-88 78 -247 82h-258v227q0 67 31.5 121.5t86.5 86t121 31.5h280v134h-280q-102 0 -187.5 -50t-135 -135t-49.5 -188v-360h388q104 -3 150.5 -50t35.5 -151q-15 -143 -143.5 -222.5t-336.5 -79.5h-120q-127 0 -219.5 57.5t-141 152.5t-48.5 206v438h-133v-452
q0 -146 66.5 -270t189.5 -198t286 -74h120q203 0 335 64t197.5 163.5t80.5 214.5q19 174 -69 252zM116 766l441 168l-30 78l-157 -60q-80 -1 -118.5 38t-37.5 96q0 53 34 96t89 44q34 0 61 -10t59 -27q5 -3 7 -4l18 81q-32 19 -66 31t-79 12q-61 0 -108 -32.5t-73 -84
t-26 -106.5q0 -62 33 -111.5t87 -68.5l-163 -63z" />
    <glyph glyph-name="uni06C0" unicode="&#x647;&#x654;" horiz-adv-x="1050" 
d="M717.5 514q57.5 -97 57.5 -174q0 -66 -36.5 -115.5t-93.5 -75.5t-118 -26q-60 0 -117 27t-93.5 76.5t-36.5 113.5q0 106 74 203.5t178 189.5q128 -122 185.5 -219zM245.5 610.5q-99.5 -128.5 -99.5 -270.5q0 -100 54 -180t142 -125.5t185 -45.5q96 0 184 43t142.5 123
t54.5 185q0 268 -411 604l-52 41l-84 -102l79 -66q-95 -78 -194.5 -206.5zM673 1405v127l-278 -1v80q0 53 37.5 91t90.5 38h145v79h-145q-55 0 -103 -28t-76.5 -76t-28.5 -104v-96q-1 -24 18.5 -43.5t42.5 -19.5h217v-47q0 -51 -37.5 -82t-112 -44t-188.5 -11v-83
q418 -5 418 220z" />
    <glyph glyph-name="uniFBA70654" unicode="&#xfba7;&#x654;" horiz-adv-x="1156" 
d="M317 305q11 80 62.5 143.5t128.5 89.5l235 77l26 -291q8 -90 57.5 -164.5t128 -117t169.5 -42.5h32v140h-32q-88 0 -151.5 55.5t-71.5 141.5l-34 374l-87 57l-315 -104q-113 -39 -189 -131.5t-91 -210.5l-39 -313l133 -16zM286 965l441 168l-30 78l-157 -60
q-80 -1 -118.5 38t-37.5 96q0 53 34 96t89 44q34 0 61 -10t59 -27q5 -3 7 -4l18 81q-32 19 -66 31t-79 12q-61 0 -108 -32.5t-73 -84t-26 -106.5q0 -62 33 -111.5t87 -68.5l-163 -63z" />
    <glyph glyph-name="uE115" unicode="&#xe091;&#xfe8e;" horiz-adv-x="1184" 
d="M324 344v1081h-133v-1081h133zM191 140v-140h446q97 0 179 48t130 130t48 179v1068h-133v-1061q0 -61 -30.5 -112.5t-81.5 -81.5t-112 -30h-446zM1233 2047l-107 2l-199 -227l-199 227l-106 -2l274 -316h63z" />
    <glyph glyph-name="uE116" unicode="&#xe092;&#xfe8e;" horiz-adv-x="1259" 
d="M191 140v-140h446q97 0 173.5 50t116.5 133q40 -83 116.5 -133t173.5 -50h42v140h-42q-61 0 -112 30t-81 81.5t-30 112.5v1061h-133v-1061q0 -61 -30.5 -112.5t-81.5 -81.5t-112 -30h-446zM324 344v1081h-133v-1081h133zM1233 2047l-107 2l-199 -227l-199 227l-106 -2
l274 -316h63z" />
    <glyph glyph-name="uE117" unicode="&#xe091;&#xfe82;" horiz-adv-x="1185" 
d="M324 344v896h-133v-896h133zM191 140v-140h446q97 0 179 48t130 130t48 179v1068h-133v-1061q0 -61 -30.5 -112.5t-81.5 -81.5t-112 -30h-446zM-24 1436q21 52 67.5 83.5t103.5 31.5h434v97h-434q-87 0 -158 -48t-103 -129l-54 -134l91 -36zM1234 2047l-107 2l-199 -227
l-199 227l-107 -2l275 -316h62z" />
    <glyph glyph-name="uE118" unicode="&#xe092;&#xfe82;" horiz-adv-x="1259" 
d="M1259 140h-42q-61 0 -112 30t-81 81.5t-30 112.5v1061h-133v-1061q0 -61 -30.5 -112.5t-81.5 -81.5t-112 -30h-446v-140h446q97 0 173.5 50t116.5 133q40 -83 116.5 -133t173.5 -50h42v140zM324 344v896h-133v-896h133zM-24 1436q21 52 67.5 83.5t103.5 31.5h434v97h-434
q-87 0 -158 -48t-103 -129l-54 -134l91 -36zM1234 2047l-107 2l-199 -227l-199 227l-107 -2l275 -316h62z" />
    <glyph glyph-name="uE120" unicode="&#xe091;&#x675;" horiz-adv-x="1185" 
d="M324 344v896h-133v-896h133zM191 140v-140h446q97 0 179 48t130 130t48 179v1068h-133v-1061q0 -61 -30.5 -112.5t-81.5 -81.5t-112 -30h-446zM56 1499l441 168l-30 78l-157 -60q-80 -1 -118.5 38t-37.5 96q0 53 34 96t89 44q34 0 61 -10t59 -27q5 -3 7 -4l18 81
q-32 19 -66 31t-79 12q-61 0 -108 -32.5t-73 -84t-26 -106.5q0 -62 33 -111.5t87 -68.5l-163 -63zM1234 2047l-107 2l-199 -227l-199 227l-107 -2l275 -316h62z" />
    <glyph glyph-name="uE121" unicode="&#xe092;&#x675;" horiz-adv-x="1259" 
d="M1259 140h-42q-61 0 -112 30t-81 81.5t-30 112.5v1061h-133v-1061q0 -61 -30.5 -112.5t-81.5 -81.5t-112 -30h-446v-140h446q97 0 173.5 50t116.5 133q40 -83 116.5 -133t173.5 -50h42v140zM324 344v896h-133v-896h133zM56 1499l441 168l-30 78l-157 -60
q-80 -1 -118.5 38t-37.5 96q0 53 34 96t89 44q34 0 61 -10t59 -27q5 -3 7 -4l18 81q-32 19 -66 31t-79 12q-61 0 -108 -32.5t-73 -84t-26 -106.5q0 -62 33 -111.5t87 -68.5l-163 -63zM1234 2047l-107 2l-199 -227l-199 227l-107 -2l275 -316h62z" />
    <glyph glyph-name="uE122" unicode="&#xe091;&#xfe88;" horiz-adv-x="1185" 
d="M324 344v1081h-133v-1081h133zM191 140v-140h446q97 0 179 48t130 130t48 179v1068h-133v-1061q0 -61 -30.5 -112.5t-81.5 -81.5t-112 -30h-446zM67 -805l441 168l-30 78l-157 -60q-80 -1 -118.5 38t-37.5 96q0 53 34 96t89 44q34 0 61 -10t59 -27q5 -3 7 -4l18 81
q-32 19 -66 31t-79 12q-61 0 -108 -32.5t-73 -84t-26 -106.5q0 -62 33 -111.5t87 -68.5l-163 -63zM1234 2047l-107 2l-199 -227l-199 227l-107 -2l275 -316h62z" />
    <glyph glyph-name="uE123" unicode="&#xe092;&#xfe88;" horiz-adv-x="1259" 
d="M191 140v-140h446q97 0 173.5 50t116.5 133q40 -83 116.5 -133t173.5 -50h42v140h-42q-61 0 -112 30t-81 81.5t-30 112.5v1061h-133v-1061q0 -61 -30.5 -112.5t-81.5 -81.5t-112 -30h-446zM324 344v1081h-133v-1081h133zM66 -805l441 168l-30 78l-157 -60
q-80 -1 -118.5 38t-37.5 96q0 53 34 96t89 44q34 0 61 -10t59 -27q5 -3 7 -4l18 81q-32 19 -66 31t-79 12q-61 0 -108 -32.5t-73 -84t-26 -106.5q0 -62 33 -111.5t87 -68.5l-163 -63zM1234 2047l-107 2l-199 -227l-199 227l-107 -2l275 -316h62z" />
    <glyph glyph-name="uniFBA5" unicode="&#xfeea;&#x654;" horiz-adv-x="1188" arabic-form="final" 
d="M969.5 56q77.5 -55 174.5 -56h44v140h-45q-72 1 -127 48t-65 119l-108 740l-132 -18l20 -141q-199 3 -335 -62.5t-199.5 -184t-53.5 -273.5q6 -110 74 -183.5t175.5 -98.5t230.5 5t233 116q36 -96 113.5 -151zM814 320q-126 -99 -251.5 -114.5t-203 34t-84.5 138.5
q-10 183 111.5 286t363.5 92zM705 1425v127l-278 -1v80q0 53 37.5 91t90.5 38h145v79h-145q-55 0 -103 -28t-76.5 -76t-28.5 -104v-96q-1 -24 18.5 -43.5t42.5 -19.5h217v-47q0 -51 -37.5 -82t-112 -44t-188.5 -11v-83q418 -5 418 220z" />
    <glyph glyph-name="uniFE8A" unicode="&#xfbfd;&#x654;" horiz-adv-x="1671" arabic-form="final" 
d="M1671 140h-907v-133h413q53 -3 86 -46t32 -99q-1 -96 -59.5 -156.5t-148 -87t-188.5 -26.5h-203q-127 0 -219 56.5t-139.5 151t-47.5 205.5l-1 441h-132v-455q0 -145 65.5 -268.5t188 -197t285.5 -73.5h203q164 0 284.5 58t182 151t59.5 199q-3 91 -59 140h305v140z
M116 766l441 168l-30 78l-157 -60q-80 -1 -118.5 38t-37.5 96q0 53 34 96t89 44q34 0 61 -10t59 -27q5 -3 7 -4l18 81q-32 19 -66 31t-79 12q-61 0 -108 -32.5t-73 -84t-26 -106.5q0 -62 33 -111.5t87 -68.5l-163 -63z" />
    <glyph glyph-name="uniFEF5" unicode="&#xfedf;&#xfe82;" horiz-adv-x="1185" arabic-form="isolated" 
d="M324 344v896h-133v-896h133zM191 140v-140h446q97 0 179 48t130 130t48 179v1068h-133v-1061q0 -61 -30.5 -112.5t-81.5 -81.5t-112 -30h-446zM-24 1436q21 52 67.5 83.5t103.5 31.5h434v97h-434q-87 0 -158 -48t-103 -129l-54 -134l91 -36z" />
    <glyph glyph-name="uniFEF6" unicode="&#xfee0;&#xfe82;" horiz-adv-x="1259" arabic-form="final" 
d="M1259 140h-42q-61 0 -112 30t-81 81.5t-30 112.5v1061h-133v-1061q0 -61 -30.5 -112.5t-81.5 -81.5t-112 -30h-446v-140h446q97 0 173.5 50t116.5 133q40 -83 116.5 -133t173.5 -50h42v140zM324 344v896h-133v-896h133zM-24 1436q21 52 67.5 83.5t103.5 31.5h434v97h-434
q-87 0 -158 -48t-103 -129l-54 -134l91 -36z" />
    <glyph glyph-name="uniFEF7" unicode="&#xfedf;&#x675;" horiz-adv-x="1185" arabic-form="isolated" 
d="M324 344v896h-133v-896h133zM191 140v-140h446q97 0 179 48t130 130t48 179v1068h-133v-1061q0 -61 -30.5 -112.5t-81.5 -81.5t-112 -30h-446zM56 1499l441 168l-30 78l-157 -60q-80 -1 -118.5 38t-37.5 96q0 53 34 96t89 44q34 0 61 -10t59 -27q5 -3 7 -4l18 81
q-32 19 -66 31t-79 12q-61 0 -108 -32.5t-73 -84t-26 -106.5q0 -62 33 -111.5t87 -68.5l-163 -63z" />
    <glyph glyph-name="uniFEF8" unicode="&#xfee0;&#x675;" horiz-adv-x="1259" arabic-form="final" 
d="M1259 140h-42q-61 0 -112 30t-81 81.5t-30 112.5v1061h-133v-1061q0 -61 -30.5 -112.5t-81.5 -81.5t-112 -30h-446v-140h446q97 0 173.5 50t116.5 133q40 -83 116.5 -133t173.5 -50h42v140zM324 344v896h-133v-896h133zM56 1499l441 168l-30 78l-157 -60
q-80 -1 -118.5 38t-37.5 96q0 53 34 96t89 44q34 0 61 -10t59 -27q5 -3 7 -4l18 81q-32 19 -66 31t-79 12q-61 0 -108 -32.5t-73 -84t-26 -106.5q0 -62 33 -111.5t87 -68.5l-163 -63z" />
    <glyph glyph-name="uniFEF9" unicode="&#xfedf;&#xfe88;" horiz-adv-x="1185" arabic-form="isolated" 
d="M324 344v1081h-133v-1081h133zM191 140v-140h446q97 0 179 48t130 130t48 179v1068h-133v-1061q0 -61 -30.5 -112.5t-81.5 -81.5t-112 -30h-446zM67 -805l441 168l-30 78l-157 -60q-80 -1 -118.5 38t-37.5 96q0 53 34 96t89 44q34 0 61 -10t59 -27q5 -3 7 -4l18 81
q-32 19 -66 31t-79 12q-61 0 -108 -32.5t-73 -84t-26 -106.5q0 -62 33 -111.5t87 -68.5l-163 -63z" />
    <glyph glyph-name="uniFEFA" unicode="&#xfee0;&#xfe88;" horiz-adv-x="1259" arabic-form="final" 
d="M191 140v-140h446q97 0 173.5 50t116.5 133q40 -83 116.5 -133t173.5 -50h42v140h-42q-61 0 -112 30t-81 81.5t-30 112.5v1061h-133v-1061q0 -61 -30.5 -112.5t-81.5 -81.5t-112 -30h-446zM324 344v1081h-133v-1081h133zM66 -805l441 168l-30 78l-157 -60
q-80 -1 -118.5 38t-37.5 96q0 53 34 96t89 44q34 0 61 -10t59 -27q5 -3 7 -4l18 81q-32 19 -66 31t-79 12q-61 0 -108 -32.5t-73 -84t-26 -106.5q0 -62 33 -111.5t87 -68.5l-163 -63z" />
    <glyph glyph-name="uniFEFB" unicode="&#xfedf;&#xfe8e;" horiz-adv-x="1185" arabic-form="isolated" 
d="M324 344v1081h-133v-1081h133zM191 140v-140h446q97 0 179 48t130 130t48 179v1068h-133v-1061q0 -61 -30.5 -112.5t-81.5 -81.5t-112 -30h-446z" />
    <glyph glyph-name="uniFEFC" unicode="&#xfee0;&#xfe8e;" horiz-adv-x="1259" arabic-form="final" 
d="M191 140v-140h446q97 0 173.5 50t116.5 133q40 -83 116.5 -133t173.5 -50h42v140h-42q-61 0 -112 30t-81 81.5t-30 112.5v1061h-133v-1061q0 -61 -30.5 -112.5t-81.5 -81.5t-112 -30h-446zM324 344v1081h-133v-1081h133z" />
    <glyph glyph-name="uni064406440647" unicode="&#xfedf;&#xfee0;&#xfeea;" horiz-adv-x="2464" 
d="M1774.5 98q-14.5 -28 0 -56t54.5 -42h93q97 0 179 48t129.5 130t47.5 179v1068h-132v-1061q0 -61 -30.5 -112.5t-81.5 -81.5t-112 -30h-93q-40 -14 -54.5 -42zM1118.5 98q-14.5 -28 0 -56t54.5 -42h38q97 0 173.5 50t116.5 133q40 -83 116.5 -133t173.5 -50h38v140h-38
q-61 0 -112 30t-81.5 81.5t-30.5 112.5v803h-132v-803q0 -61 -30.5 -112.5t-81.5 -81.5t-112 -30h-38q-40 -14 -54.5 -42zM1451.5 1476q42.5 32 61.5 85q24 -28 57 -43.5t72 -15.5h14q51 0 94 25t68 68t25 94v173h-83v-173q0 -43 -30.5 -73.5t-73.5 -30.5h-14
q-43 0 -73 30.5t-30 73.5v115h-84v-173q0 -43 -30 -73.5t-73 -30.5h-14q-43 0 -73.5 30.5t-30.5 73.5v173h-83v-173q0 -51 25 -94t68 -68t94 -25h14q57 0 99.5 32zM1453 1928h84v373h-84v-373zM972.5 56q77.5 -55 174.5 -56h44v140h-45q-72 1 -127 48t-65 119l-108 740
l-132 -18l20 -141q-199 3 -335 -62.5t-199.5 -184t-53.5 -273.5q6 -110 74 -183.5t175.5 -98.5t230.5 5t233 116q36 -96 113.5 -151zM817 320q-126 -99 -251.5 -114.5t-203 34t-84.5 138.5q-10 183 111.5 286t363.5 92z" />
    <glyph glyph-name="uni0621" unicode="&#x621;" horiz-adv-x="1044" arabic-form="isolated" 
d="M217 -14l697 268l-44 114l-312 -119q-68 0 -117.5 32t-75.5 83.5t-26 109.5q0 56 25 110t71 89t107 37q110 7 209 -71l40 119q-36 27 -98 51t-145 24q-98 0 -173.5 -52.5t-116.5 -135.5t-41 -171q0 -95 48.5 -175t133.5 -113l-225 -86z" />
    <glyph glyph-name="uni0622" unicode="&#x622;" horiz-adv-x="515" arabic-form="isolated" 
d="M191 0h133v1240h-133v-1240zM-24 1436q21 52 67.5 83.5t103.5 31.5h434v97h-434q-87 0 -158 -48t-103 -129l-54 -134l91 -36z" />
    <glyph glyph-name="uni0623" unicode="&#x623;" horiz-adv-x="516" arabic-form="isolated" 
d="M191 0h133v1240h-133v-1240zM56 1499l441 168l-30 78l-157 -60q-80 -1 -118.5 38t-37.5 96q0 53 34 96t89 44q34 0 61 -10t59 -27q5 -3 7 -4l18 81q-32 19 -66 31t-79 12q-61 0 -108 -32.5t-73 -84t-26 -106.5q0 -62 33 -111.5t87 -68.5l-163 -63z" />
    <glyph glyph-name="uni0624" unicode="&#x624;" horiz-adv-x="1073" arabic-form="isolated" 
d="M536 140q-124 0 -185.5 57.5t-61.5 165.5q0 77 28.5 143t84.5 105t134 39q88 0 143.5 -43t79.5 -108t24 -136v-223h-247zM916 363q0 123 -48 218.5t-134 148.5t-198 53q-110 0 -196.5 -53.5t-135 -149.5t-48.5 -217q0 -171 97 -267t283 -96h246q0 -197 -110 -302
t-297 -105h-230v-140h230q154 0 277 67.5t193.5 194t70.5 297.5v351zM330 1029l441 168l-30 78l-157 -60q-80 -1 -118.5 38t-37.5 96q0 53 34 96t89 44q34 0 61 -10t59 -27q5 -3 7 -4l18 81q-32 19 -66 31t-79 12q-61 0 -108 -32.5t-73 -84t-26 -106.5q0 -62 33 -111.5
t87 -68.5l-163 -63z" />
    <glyph glyph-name="uni0625" unicode="&#x625;" horiz-adv-x="516" arabic-form="isolated" 
d="M191 0h133v1425h-133v-1425zM56 -805l441 168l-30 78l-157 -60q-80 -1 -118.5 38t-37.5 96q0 53 34 96t89 44q34 0 61 -10t59 -27q5 -3 7 -4l18 81q-32 19 -66 31t-79 12q-61 0 -108 -32.5t-73 -84t-26 -106.5q0 -62 33 -111.5t87 -68.5l-163 -63z" />
    <glyph glyph-name="uni0627" unicode="&#x627;" horiz-adv-x="515" arabic-form="isolated" 
d="M191 0h133v1425h-133v-1425z" />
    <glyph glyph-name="uni0628" unicode="&#x628;" horiz-adv-x="1770" arabic-form="isolated" 
d="M1257 0q97 0 179 47t130 127.5t48 175.5v329h-133v-315q0 -61 -30 -112.5t-81.5 -81.5t-112.5 -30h-744q-61 0 -112 30t-81 81.5t-30 112.5v315h-133v-329q0 -96 48 -176t129.5 -127t178.5 -47h744zM977 -370h-184v-150h184v150z" />
    <glyph glyph-name="uni0629" unicode="&#x629;" horiz-adv-x="1050" arabic-form="isolated" 
d="M717.5 514q57.5 -97 57.5 -174q0 -66 -36.5 -115.5t-93.5 -75.5t-118 -26q-60 0 -117 27t-93.5 76.5t-36.5 113.5q0 106 74 203.5t178 189.5q128 -122 185.5 -219zM245.5 610.5q-99.5 -128.5 -99.5 -270.5q0 -100 54 -180t142 -125.5t185 -45.5q96 0 184 43t142.5 123
t54.5 185q0 268 -411 604l-52 41l-84 -102l79 -66q-95 -78 -194.5 -206.5zM517 1365q-137 -1 -281 0q-1 -66 0 -133h281v133zM780 1365q-144 -1 -281 0v-133h281q1 67 0 133z" />
    <glyph glyph-name="uni062A" unicode="&#x62a;" horiz-adv-x="1770" arabic-form="isolated" 
d="M1257 0q97 0 179 47t130 127.5t48 175.5v329h-133v-315q0 -61 -30 -112.5t-81.5 -81.5t-112.5 -30h-744q-61 0 -112 30t-81 81.5t-30 112.5v315h-133v-329q0 -96 48 -176t129.5 -127t178.5 -47h744zM894 982q-137 -1 -281 0q-1 -66 0 -133h281v133zM1157 982
q-144 -1 -281 0v-133h281q1 67 0 133z" />
    <glyph glyph-name="uni062B" unicode="&#x62b;" horiz-adv-x="1770" arabic-form="isolated" 
d="M1257 0q97 0 179 47t130 127.5t48 175.5v329h-133v-315q0 -61 -30 -112.5t-81.5 -81.5t-112.5 -30h-744q-61 0 -112 30t-81 81.5t-30 112.5v315h-133v-329q0 -96 48 -176t129.5 -127t178.5 -47h744zM894 1015q-137 -1 -281 0q-1 -66 0 -133h281v133zM1157 1015
q-144 -1 -281 0v-133h281q1 67 0 133zM975 1319h-180v-148h180v148z" />
    <glyph glyph-name="uni062C" unicode="&#x62c;" horiz-adv-x="1340" arabic-form="isolated" 
d="M464 300q-154 -64 -237.5 -182t-80.5 -258q2 -123 61.5 -222.5t163 -157t235.5 -58.5h580v140h-580q-112 0 -193.5 55.5t-113.5 143.5q-42 123 14 237t199 179l731 346l6 139l-219 126.5t-349 195.5q-86 44 -177 34t-165.5 -71.5t-114.5 -163.5l-16 -37l122 -53l16 37
q38 101 116.5 138.5t164.5 -5.5l90 -50q309 -171 395 -215zM906 8h-184v-150h184v150z" />
    <glyph glyph-name="uni062D" unicode="&#x62d;" horiz-adv-x="1343" arabic-form="isolated" 
d="M422 284q-126 -54 -201 -161.5t-75 -239.5q0 -117 57.5 -215.5t156.5 -156.5t216 -58h610v139h-610q-93 0 -168.5 50t-108.5 134q-42 119 6.5 224.5t164.5 159.5l794 363l6 139q-8 0 -69 33.5t-191 106.5q-235 132 -329 182q-86 44 -177 34t-165.5 -71.5t-114.5 -163.5
l-16 -37l122 -53l16 37q38 101 116.5 138.5t164.5 -5.5q23 -13 75 -42q149 -82 253 -137.5t178 -85.5z" />
    <glyph glyph-name="uni062E" unicode="&#x62e;" horiz-adv-x="1343" arabic-form="isolated" 
d="M422 284q-126 -54 -201 -161.5t-75 -239.5q0 -117 57.5 -215.5t156.5 -156.5t216 -58h610v139h-610q-93 0 -168.5 50t-108.5 134q-42 119 6.5 224.5t164.5 159.5l794 363l6 139q-8 0 -69 33.5t-191 106.5q-235 132 -329 182q-86 44 -177 34t-165.5 -71.5t-114.5 -163.5
l-16 -37l122 -53l16 37q38 101 116.5 138.5t164.5 -5.5q23 -13 75 -42q149 -82 253 -137.5t178 -85.5zM697 1489h-184v-150h184v150z" />
    <glyph glyph-name="uni062F" unicode="&#x62f;" horiz-adv-x="1078" arabic-form="isolated" 
d="M794.5 45.5q70.5 45.5 108.5 119t33 158t-61 157.5l-369 485l-105 -80l369 -485q39 -52 32.5 -115.5t-52 -107.5t-113.5 -44h-552v-133h552q87 0 157.5 45.5z" />
    <glyph glyph-name="uni0630" unicode="&#x630;" horiz-adv-x="1071" arabic-form="isolated" 
d="M794.5 45.5q70.5 45.5 108.5 119t33 158t-61 157.5l-369 485l-105 -80l369 -485q39 -52 32.5 -115.5t-52 -107.5t-113.5 -44h-552v-133h552q87 0 157.5 45.5zM606 1367h-184v-150h184v150z" />
    <glyph glyph-name="uni0631" unicode="&#x631;" horiz-adv-x="746" arabic-form="isolated" 
d="M59 -547q143 0 265 75t194 200.5t72 268.5v654h-133v-640q0 -108 -54 -205t-145.5 -155t-198.5 -58h-63v-140h63z" />
    <glyph glyph-name="uni0632" unicode="&#x632;" horiz-adv-x="746" arabic-form="isolated" 
d="M59 -547q143 0 265 75t194 200.5t72 268.5v654h-133v-640q0 -108 -54 -205t-145.5 -155t-198.5 -58h-63v-140h63zM615 1108h-184v-150h184v150z" />
    <glyph glyph-name="uni0633" unicode="&#x633;" horiz-adv-x="2651" arabic-form="isolated" 
d="M1579 0q93 0 163.5 48t109.5 132q39 -84 110 -132t163 -48h29q97 0 174.5 47.5t121.5 129.5t44 180v322h-133v-315q0 -90 -57.5 -157t-149.5 -67h-29q-92 0 -149.5 66.5t-57.5 157.5v287h-132v-287q0 -90 -57.5 -157t-149.5 -67h-29q-58 0 -105.5 30.5t-74.5 82
t-27 111.5v287h-133v-640q0 -117 -51 -212.5t-145 -151t-216 -55.5h-97q-127 0 -220.5 58t-142.5 153.5t-49 207.5v435h-133v-449q0 -147 67.5 -271.5t191 -199t286.5 -74.5h97q156 0 279 70.5t192.5 192t72.5 270.5v132q33 -52 88.5 -84.5t119.5 -32.5h29z" />
    <glyph glyph-name="uni0634" unicode="&#x634;" horiz-adv-x="2650" arabic-form="isolated" 
d="M1579 0q93 0 163.5 48t109.5 132q39 -84 110 -132t163 -48h29q97 0 174.5 47.5t121.5 129.5t44 180v322h-133v-315q0 -90 -57.5 -157t-149.5 -67h-29q-92 0 -149.5 66.5t-57.5 157.5v287h-132v-287q0 -90 -57.5 -157t-149.5 -67h-29q-58 0 -105.5 30.5t-74.5 82
t-27 111.5v287h-133v-640q0 -117 -51 -212.5t-145 -151t-216 -55.5h-97q-127 0 -220.5 58t-142.5 153.5t-49 207.5v435h-133v-449q0 -147 67.5 -271.5t191 -199t286.5 -74.5h97q156 0 279 70.5t192.5 192t72.5 270.5v132q33 -52 88.5 -84.5t119.5 -32.5h29zM1861 1091
q-137 -1 -281 0q-1 -66 0 -133h281v133zM2124 1091q-144 -1 -281 0v-133h281q1 67 0 133zM1942 1395h-180v-148h180v148z" />
    <glyph glyph-name="uni0635" unicode="&#x635;" horiz-adv-x="2693" arabic-form="isolated" 
d="M2336.5 53q100.5 53 157 146.5t56.5 209.5q0 109 -47 204t-145 152.5t-242 52.5q-167 -6 -292.5 -138.5t-192 -273t-103.5 -252.5q-1 -3 -2 -4q-77 8 -130 67.5t-53 139.5v268h-133v-614q0 -112 -49 -207.5t-142 -153.5t-221 -58h-97q-127 0 -220.5 58t-142.5 153.5
t-49 207.5v435h-132l-1 -449q0 -146 67 -271t191 -199.5t287 -74.5h97q163 0 287 74.5t190.5 199t67.5 269.5v134q45 -59 113 -94t146 -35h509q125 0 225.5 53zM1661 140q1 2 3 8q69 184 180 357.5t277 179.5q140 5 218.5 -70t78.5 -206q0 -81 -40.5 -142t-110 -94
t-156.5 -33h-450z" />
    <glyph glyph-name="uni0636" unicode="&#x636;" horiz-adv-x="2694" arabic-form="isolated" 
d="M2336.5 53q100.5 53 157 146.5t56.5 209.5q0 109 -47 204t-145 152.5t-242 52.5q-167 -6 -292.5 -138.5t-192 -273t-103.5 -252.5q-1 -3 -2 -4q-77 8 -130 67.5t-53 139.5v268h-133v-614q0 -112 -49 -207.5t-142 -153.5t-221 -58h-97q-127 0 -220.5 58t-142.5 153.5
t-49 207.5v435h-132l-1 -449q0 -146 67 -271t191 -199.5t287 -74.5h97q163 0 287 74.5t190.5 199t67.5 269.5v134q45 -59 113 -94t146 -35h509q125 0 225.5 53zM1661 140q1 2 3 8q69 184 180 357.5t277 179.5q140 5 218.5 -70t78.5 -206q0 -81 -40.5 -142t-110 -94
t-156.5 -33h-450zM2138 1258h-184v-150h184v150z" />
    <glyph glyph-name="uni0637" unicode="&#x637;" horiz-adv-x="1532" arabic-form="isolated" 
d="M401 257q-29 -72 -42 -117h-202v-140h793q125 0 225 53t157 146.5t57 209.5q0 109 -47.5 204.5t-145.5 153t-242 51.5q-232 -9 -426 -346l5 452v501h-132v-1168zM499 140q1 2 3 8q40 105 95.5 217t150.5 214t211 106q140 5 218.5 -70t78.5 -206q0 -81 -40 -142t-110 -94
t-156 -33h-451z" />
    <glyph glyph-name="uni0638" unicode="&#x638;" horiz-adv-x="1532" arabic-form="isolated" 
d="M401 257q-29 -72 -42 -117h-202v-140h793q125 0 225 53t157 146.5t57 209.5q0 109 -47.5 204.5t-145.5 153t-242 51.5q-232 -9 -426 -346l5 452v501h-132v-1168zM499 140q1 2 3 8q40 105 95.5 217t150.5 214t211 106q140 5 218.5 -70t78.5 -206q0 -81 -40 -142t-110 -94
t-156 -33h-451zM1086 1258h-184v-150h184v150z" />
    <glyph glyph-name="uni0639" unicode="&#x639;" horiz-adv-x="1217" arabic-form="isolated" 
d="M1064 -408h-468q-86 0 -159 41t-115.5 112t-42.5 157t42.5 159t115.5 115.5t159 42.5h457v140h-362q-80 1 -139.5 38.5t-91.5 99t-32 133.5q0 125 70.5 207.5t190.5 87.5q78 2 135 -19.5t119 -62.5l39 133q-133 88 -305 82q-110 -5 -197 -61t-136 -152t-49 -215
q0 -97 46 -182.5t126 -134.5q-141 -41 -231 -151.5t-90 -259.5q0 -122 60.5 -225t164 -163.5t225.5 -60.5h468v139z" />
    <glyph glyph-name="uni063A" unicode="&#x63a;" horiz-adv-x="1217" arabic-form="isolated" 
d="M1064 -408h-468q-86 0 -159 41t-115.5 112t-42.5 157t42.5 159t115.5 115.5t159 42.5h457v140h-362q-80 1 -139.5 38.5t-91.5 99t-32 133.5q0 125 70.5 207.5t190.5 87.5q78 2 135 -19.5t119 -62.5l39 133q-133 88 -305 82q-110 -5 -197 -61t-136 -152t-49 -215
q0 -97 46 -182.5t126 -134.5q-141 -41 -231 -151.5t-90 -259.5q0 -122 60.5 -225t164 -163.5t225.5 -60.5h468v139zM732 1502h-184v-150h184v150z" />
    <glyph glyph-name="uni0641" unicode="&#x641;" horiz-adv-x="1781" arabic-form="isolated" 
d="M1577 929q-47 87 -130 138t-185 51q-99 0 -180.5 -49t-130.5 -134.5t-55 -191.5q-9 -170 70 -260t236 -90h289v-34q0 -61 -36.5 -111t-98.5 -79t-134 -29h-709q-61 0 -112 30t-81 81.5t-30 112.5v315h-133v-329q0 -96 48 -176t129.5 -127t178.5 -47h709q108 0 200.5 47
t147 127t54.5 174v391q0 103 -47 190zM1227 526q-103 0 -154.5 58.5t-43.5 166.5q8 97 68 167t165 70q67 0 119.5 -35t81 -94.5t28.5 -129.5v-203h-264zM1354 1514h-184v-150h184v150z" />
    <glyph glyph-name="uni0642" unicode="&#x642;" horiz-adv-x="1649" arabic-form="isolated" 
d="M1311.5 730q86.5 -53 134 -148.5t47.5 -218.5v-351q0 -166 -72.5 -293t-202 -196.5t-296.5 -69.5h-221q-163 0 -287 74.5t-190.5 199t-66.5 270.5v449h132v-435q0 -112 49 -207.5t142.5 -153t220.5 -57.5h221q205 0 321 108t116 299h-246q-187 0 -283.5 96t-96.5 267
q0 121 48.5 217t135 149.5t196.5 53.5q112 0 198.5 -53zM1360 363q0 71 -24 136t-79.5 108t-143.5 43q-78 0 -133.5 -39t-84.5 -104.5t-29 -143.5q0 -108 61.5 -165.5t185.5 -57.5h247v223zM1127 1191q-137 -1 -281 0q-1 -66 0 -133h281v133zM1390 1191q-144 -1 -281 0v-133
h281q1 67 0 133z" />
    <glyph glyph-name="uni0643" unicode="&#x643;" horiz-adv-x="1715" arabic-form="isolated" 
d="M1362 47q82 47 130 127.5t48 175.5v1075h-133v-1061q0 -61 -30 -112.5t-81.5 -81.5t-112.5 -30h-670q-61 0 -112 30t-81 81.5t-30 112.5v315h-133v-329q0 -96 48 -176t129.5 -127t178.5 -47h670q97 0 179 47zM642 612l441 168l-30 78l-157 -60q-80 -1 -118.5 38t-37.5 96
q0 53 34 96t89 44q34 0 61 -10t59 -27q5 -3 7 -4l18 81q-32 19 -66 31t-79 12q-61 0 -108 -32.5t-73 -84t-26 -106.5q0 -62 33 -111.5t87 -68.5l-163 -63z" />
    <glyph glyph-name="uni0644" unicode="&#x644;" horiz-adv-x="1534" arabic-form="isolated" 
d="M798 -548q164 0 287.5 74.5t190.5 199.5t67 271v1428h-133v-1414q0 -112 -49 -207.5t-142 -153.5t-221 -58h-97q-127 0 -220.5 58t-142.5 153.5t-49 207.5l1 429h-133v-443q0 -146 66.5 -271t190.5 -199.5t287 -74.5h97z" />
    <glyph glyph-name="uni0645" unicode="&#x645;" horiz-adv-x="1528" arabic-form="isolated" 
d="M290 398q0 75 36.5 138t100 100t137.5 37h58q-2 -116 -2 -280q0 -123 46.5 -216.5t132 -145t200.5 -51.5q109 0 197.5 49.5t139 143t49.5 220.5q-4 191 -106.5 300.5t-278.5 111.5h-436q-111 0 -204.5 -54.5t-148 -148t-54.5 -204.5v-950h133v950zM1184.5 597
q65.5 -75 67.5 -204q1 -93 -34.5 -156t-93.5 -93.5t-125 -30.5q-90 0 -146.5 42t-81.5 105.5t-25 132.5v280h253q120 -1 185.5 -76z" />
    <glyph glyph-name="uni0646" unicode="&#x646;" arabic-form="isolated" 
d="M798 -548q164 0 287.5 74.5t190.5 199.5t67 271v628h-133v-614q0 -112 -49 -207.5t-142 -153.5t-221 -58h-97q-127 0 -220.5 58t-142.5 153.5t-49 207.5l1 435h-133v-449q0 -146 66.5 -271t190.5 -199.5t287 -74.5h97zM778 858h-184v-150h184v150z" />
    <glyph glyph-name="uni0647" unicode="&#x647;" horiz-adv-x="1050" arabic-form="isolated" 
d="M717.5 514q57.5 -97 57.5 -174q0 -66 -36.5 -115.5t-93.5 -75.5t-118 -26q-60 0 -117 27t-93.5 76.5t-36.5 113.5q0 106 74 203.5t178 189.5q128 -122 185.5 -219zM245.5 610.5q-99.5 -128.5 -99.5 -270.5q0 -100 54 -180t142 -125.5t185 -45.5q96 0 184 43t142.5 123
t54.5 185q0 268 -411 604l-52 41l-84 -102l79 -66q-95 -78 -194.5 -206.5z" />
    <glyph glyph-name="uni0648" unicode="&#x648;" horiz-adv-x="1073" arabic-form="isolated" 
d="M536 140q-124 0 -185.5 57.5t-61.5 165.5q0 77 28.5 143t84.5 105t134 39q88 0 143.5 -43t79.5 -108t24 -136v-223h-247zM916 363q0 123 -48 218.5t-134 148.5t-198 53q-110 0 -196.5 -53.5t-135 -149.5t-48.5 -217q0 -171 97 -267t283 -96h246q0 -197 -110 -302
t-297 -105h-230v-140h230q154 0 277 67.5t193.5 194t70.5 297.5v351z" />
    <glyph glyph-name="uni0649" unicode="&#x649;" horiz-adv-x="1577" arabic-form="isolated" 
d="M1362 146q-88 78 -247 82h-258v227q0 67 31.5 121.5t86.5 86t121 31.5h280v134h-280q-102 0 -187.5 -50t-135 -135t-49.5 -188v-360h388q104 -3 150.5 -50t35.5 -151q-15 -143 -143.5 -222.5t-336.5 -79.5h-120q-127 0 -219.5 57.5t-141 152.5t-48.5 206v438h-133v-452
q0 -146 66.5 -270t189.5 -198t286 -74h120q203 0 335 64t197.5 163.5t80.5 214.5q19 174 -69 252z" />
    <glyph glyph-name="uni064A" unicode="&#x64a;" horiz-adv-x="1578" arabic-form="isolated" 
d="M1362 146q-88 78 -247 82h-258v227q0 67 31.5 121.5t86.5 86t121 31.5h280v134h-280q-102 0 -187.5 -50t-135 -135t-49.5 -188v-360h388q104 -3 150.5 -50t35.5 -151q-15 -143 -143.5 -222.5t-336.5 -79.5h-120q-127 0 -219.5 57.5t-141 152.5t-48.5 206v438h-133v-452
q0 -146 66.5 -270t189.5 -198t286 -74h120q203 0 335 64t197.5 163.5t80.5 214.5q19 174 -69 252zM799 -818h-281q-1 -67 0 -133h281v133zM1062 -818h-281v-133h281q1 66 0 133z" />
    <glyph glyph-name="uni064B" unicode="&#xfe70;" horiz-adv-x="0" arabic-form="isolated" 
d="M-287 1745l503 199l-31 77l-503 -199zM-390 2033l503 199l-31 77l-503 -199z" />
    <glyph glyph-name="uni064C" unicode="&#xfe72;" horiz-adv-x="0" arabic-form="isolated" 
d="M70 1852l20 -50l77 31l-20 50l124 48q84 36 118.5 115t2.5 164q-36 85 -115 119.5t-165 2.5q-84 -35 -118.5 -114.5t-2.5 -165.5l48 -122l-211 -82l21 206q3 53 -28 97.5t-83 57.5t-109 -19l-37 -21l42 -72l36 20q27 15 52 9.5t39 -25t11 -41.5l-36 -271l56 -44z
M262 2243q37 -23 53 -63q20 -51 -2 -101t-72 -71l-125 -48l-47 122q-16 40 -5.5 81t42.5 69t77 30q42 4 79 -19z" />
    <glyph glyph-name="uni064D" unicode="&#xfe74;" horiz-adv-x="0" arabic-form="isolated" 
d="M-390 -790l503 199l-31 78l-503 -199zM-287 -1078l503 199l-31 78l-503 -199z" />
    <glyph glyph-name="uni064E" unicode="&#xfe76;" horiz-adv-x="0" arabic-form="isolated" 
d="M-236 1745l503 199l-31 77l-503 -199z" />
    <glyph glyph-name="uni064F" unicode="&#xfe78;" horiz-adv-x="0" arabic-form="isolated" 
d="M-35 1838l19 -49l77 30l-19 50l123 48q85 37 119 116t2 165q-36 84 -115 118.5t-164 2.5q-85 -36 -119 -115t-3 -165l48 -123l-235 -94l31 -77zM160 2228q34 -23 49 -61q20 -51 -1.5 -101t-72.5 -71l-123 -49l-49 124q-16 40 -4.5 82.5t46 70.5t80.5 28q41 0 75 -23z" />
    <glyph glyph-name="uni0650" unicode="&#xfe7a;" horiz-adv-x="0" arabic-form="isolated" 
d="M-236 -790l503 199l-31 78l-503 -199z" />
    <glyph glyph-name="uni0651" unicode="&#xfe7c;" horiz-adv-x="0" arabic-form="isolated" 
d="M-45.5 1777q42.5 32 61.5 85q24 -28 57 -43.5t72 -15.5h14q51 0 94 25t68 68t25 94v173h-83v-173q0 -43 -30.5 -73.5t-73.5 -30.5h-14q-43 0 -73 30.5t-30 73.5v115h-84v-173q0 -43 -30 -73.5t-73 -30.5h-14q-43 0 -73.5 30.5t-30.5 73.5v173h-83v-173q0 -51 25 -94
t68 -68t94 -25h14q57 0 99.5 32z" />
    <glyph glyph-name="uni0652" unicode="&#xfe7e;" horiz-adv-x="0" arabic-form="isolated" 
d="M123 1778q56 33 89 89t33 123q0 66 -33 122.5t-89.5 89.5t-122.5 33t-122.5 -33t-89.5 -89.5t-33 -122.5q0 -67 33 -123t89 -89t123 -33t123 33zM114.5 2104q47.5 -47 47.5 -114t-47.5 -114.5t-114.5 -47.5t-114.5 47.5t-47.5 114.5t47.5 114t114.5 47t114.5 -47z" />
    <glyph glyph-name="uni0671" unicode="&#x671;" horiz-adv-x="501" arabic-form="isolated" 
d="M191 0h133v1240h-133v-1240zM172 1540l3 6q37 99 87 176t125 77q71 0 106 -45.5t35 -104.5q0 -47 -41.5 -78t-103.5 -31h-211zM34 1636q-26 47 -26 94v42h-83v-42q0 -64 31 -128t81 -105t103 -41h243q64 0 116.5 25.5t82 69.5t29.5 98q0 62 -26 115.5t-77 85.5t-121 32
q-113 0 -181.5 -98t-111.5 -215q-34 20 -60 67z" />
    <glyph glyph-name="uni0675" unicode="&#x623;" horiz-adv-x="607" arabic-form="final" 
d="M613 140h-69q-61 0 -111.5 30t-79.5 81.5t-29 112.5v876h-133v-890q0 -95 45 -175t126 -127.5t182 -47.5h69v140zM55 1499l441 168l-30 78l-157 -60q-80 -1 -118.5 38t-37.5 96q0 53 34 96t89 44q34 0 61 -10t59 -27q5 -3 7 -4l18 81q-32 19 -66 31t-79 12
q-61 0 -108 -32.5t-73 -84t-26 -106.5q0 -62 33 -111.5t87 -68.5l-163 -63z" />
    <glyph glyph-name="uni0679" unicode="&#x679;" horiz-adv-x="1770" arabic-form="isolated" 
d="M1257 0q97 0 179 47t130 127.5t48 175.5v329h-133v-315q0 -61 -30 -112.5t-81.5 -81.5t-112.5 -30h-744q-61 0 -112 30t-81 81.5t-30 112.5v315h-133v-329q0 -96 48 -176t129.5 -127t178.5 -47h744zM781.5 954q26.5 57 69.5 102.5t98 45.5q71 0 106 -45.5t35 -104.5
q0 -46 -41.5 -77.5t-103.5 -31.5h-207q17 54 43.5 111zM649 843h-52v-83h348q64 0 116.5 25t82.5 69t29 98q0 62 -26 115.5t-77 86t-121 32.5q-116 0 -205 -149v357h-83v-510q-6 -18 -12 -41z" />
    <glyph glyph-name="uni067E" unicode="&#x67e;" horiz-adv-x="1770" arabic-form="isolated" 
d="M1257 0q97 0 179 47t130 127.5t48 175.5v329h-133v-315q0 -61 -30 -112.5t-81.5 -81.5t-112.5 -30h-744q-61 0 -112 30t-81 81.5t-30 112.5v315h-133v-329q0 -96 48 -176t129.5 -127t178.5 -47h744zM894 -289h-281q-1 -67 0 -133h281v133zM1157 -289h-281v-133h281
q1 66 0 133zM975 -582h-180v-148h180v148z" />
    <glyph glyph-name="uni0686" unicode="&#x686;" horiz-adv-x="1340" arabic-form="isolated" 
d="M464 300q-154 -64 -237.5 -182t-80.5 -258q2 -123 61.5 -222.5t163 -157t235.5 -58.5h580v140h-580q-112 0 -193.5 55.5t-113.5 143.5q-42 123 14 237t199 179l731 346l6 139l-219 126.5t-349 195.5q-86 44 -177 34t-165.5 -71.5t-114.5 -163.5l-16 -37l122 -53l16 37
q38 101 116.5 138.5t164.5 -5.5l90 -50q309 -171 395 -215zM853 60h-253q-1 -51 0 -101h253q1 50 0 101zM1090 60h-253q-1 -51 0 -101h253q1 50 0 101zM922 -153h-154v-120h154v120z" />
    <glyph glyph-name="uni0688" unicode="&#x688;" horiz-adv-x="1078" arabic-form="isolated" 
d="M794.5 45.5q70.5 45.5 108.5 119t33 158t-61 157.5l-369 485l-105 -80l369 -485q39 -52 32.5 -115.5t-52 -107.5t-113.5 -44h-552v-133h552q87 0 157.5 45.5zM437.5 1436q26.5 57 69.5 102.5t98 45.5q71 0 106 -45.5t35 -104.5q0 -46 -41.5 -77.5t-103.5 -31.5h-207
q17 54 43.5 111zM305 1325h-52v-83h348q64 0 116.5 25t82.5 69t29 98q0 62 -26 115.5t-77 86t-121 32.5q-116 0 -205 -149v357h-83v-510q-6 -18 -12 -41z" />
    <glyph glyph-name="uni0691" unicode="&#x691;" horiz-adv-x="746" arabic-form="isolated" 
d="M59 -547q143 0 265 75t194 200.5t72 268.5v654h-133v-640q0 -108 -54 -205t-145.5 -155t-198.5 -58h-63v-140h63zM419.5 1166q26.5 57 69.5 102.5t98 45.5q71 0 106 -45.5t35 -104.5q0 -46 -41.5 -77.5t-103.5 -31.5h-207q17 54 43.5 111zM287 1055h-52v-83h348
q64 0 116.5 25t82.5 69t29 98q0 62 -26 115.5t-77 86t-121 32.5q-116 0 -205 -149v357h-83v-510q-6 -18 -12 -41z" />
    <glyph glyph-name="uni0698" unicode="&#x698;" horiz-adv-x="746" arabic-form="isolated" 
d="M59 -547q143 0 265 75t194 200.5t72 268.5v654h-133v-640q0 -108 -54 -205t-145.5 -155t-198.5 -58h-63v-140h63zM532 1091q-137 -1 -281 0q-1 -66 0 -133h281v133zM795 1091q-144 -1 -281 0v-133h281q1 67 0 133zM613 1395h-180v-148h180v148z" />
    <glyph glyph-name="uni06A4" unicode="&#x6a4;" horiz-adv-x="1786" arabic-form="isolated" 
d="M1577 929q-47 87 -130 138t-185 51q-99 0 -180.5 -49t-130.5 -134.5t-55 -191.5q-9 -170 70 -260t236 -90h289v-34q0 -61 -36.5 -111t-98.5 -79t-134 -29h-709q-61 0 -112 30t-81 81.5t-30 112.5v315h-133v-329q0 -96 48 -176t129.5 -127t178.5 -47h709q108 0 200.5 47
t147 127t54.5 174v391q0 103 -47 190zM1227 526q-103 0 -154.5 58.5t-43.5 166.5q8 97 68 167t165 70q67 0 119.5 -35t81 -94.5t28.5 -129.5v-203h-264zM1271 1496q-137 -1 -281 0q-1 -66 0 -133h281v133zM1534 1496q-144 -1 -281 0v-133h281q1 67 0 133zM1352 1800h-180
v-148h180v148z" />
    <glyph glyph-name="uni06A9" unicode="&#x6a9;" horiz-adv-x="1789" arabic-form="isolated" 
d="M1327 0q95 0 167.5 50.5t106.5 131t20.5 167.5t-78.5 155l-520 545l608 231l-47 125l-701 -268v-133l557 -584q49 -51 46.5 -117.5t-49 -114.5t-117.5 -48h-807q-61 0 -112 30t-81 81.5t-30 112.5v315h-133v-322q0 -97 48 -179t129.5 -130t178.5 -48h814z" />
    <glyph glyph-name="uni06AF" unicode="&#x6af;" horiz-adv-x="1789" arabic-form="isolated" 
d="M1327 0q95 0 167.5 50.5t106.5 131t20.5 167.5t-78.5 155l-520 545l608 231l-47 125l-701 -268v-133l557 -584q49 -51 46.5 -117.5t-49 -114.5t-117.5 -48h-807q-61 0 -112 30t-81 81.5t-30 112.5v315h-133v-322q0 -97 48 -179t129.5 -130t178.5 -48h814zM1488 1564
l-31 80l-581 -217l1 -90z" />
    <glyph glyph-name="uni06BA" unicode="&#x6ba;" arabic-form="isolated" 
d="M798 -548q164 0 287.5 74.5t190.5 199.5t67 271v628h-133v-614q0 -112 -49 -207.5t-142 -153.5t-221 -58h-97q-127 0 -220.5 58t-142.5 153.5t-49 207.5l1 435h-133v-449q0 -146 66.5 -271t190.5 -199.5t287 -74.5h97z" />
    <glyph glyph-name="uni06BE" unicode="&#x6be;" horiz-adv-x="1541" arabic-form="isolated" 
d="M1233 451q43 -66 31 -139.5t-68.5 -122.5t-135.5 -49h-351q81 59 142.5 150.5t61.5 211.5q0 99 -51 180.5t-139 129t-196 47.5t-196 -47.5t-139 -129t-51 -180.5q0 -105 63 -223.5t158.5 -198.5t185.5 -80h512q97 0 175 48.5t121.5 128.5t42.5 172t-54 174l-285 442
l-111 -72zM652 697.5q58 -27.5 93 -78.5t35 -117q0 -132 -81.5 -219t-171.5 -142q-89 54 -171 141.5t-82 219.5q0 66 34.5 117t92.5 78.5t126 27.5q67 0 125 -27.5z" />
    <glyph glyph-name="uni06C1" unicode="&#x6c1;" horiz-adv-x="1050" arabic-form="isolated" 
d="M717.5 514q57.5 -97 57.5 -174q0 -66 -36.5 -115.5t-93.5 -75.5t-118 -26q-60 0 -117 27t-93.5 76.5t-36.5 113.5q0 106 74 203.5t178 189.5q128 -122 185.5 -219zM245.5 610.5q-99.5 -128.5 -99.5 -270.5q0 -100 54 -180t142 -125.5t185 -45.5q96 0 184 43t142.5 123
t54.5 185q0 268 -411 604l-52 41l-84 -102l79 -66q-95 -78 -194.5 -206.5z" />
    <glyph glyph-name="uni06C3.fina" unicode="&#x6c3;" horiz-adv-x="1156" 
d="M317 305q11 80 62.5 143.5t128.5 89.5l235 77l26 -291q8 -90 57.5 -164.5t128 -117t169.5 -42.5h32v140h-32q-88 0 -151.5 55.5t-71.5 141.5l-34 374l-87 57l-315 -104q-113 -39 -189 -131.5t-91 -210.5l-39 -313l133 -16zM620 1169q-137 -1 -281 0q-1 -66 0 -133h281
v133zM883 1169q-144 -1 -281 0v-133h281q1 67 0 133z" />
    <glyph glyph-name="uni06C6" unicode="&#x6c6;" horiz-adv-x="1073" arabic-form="isolated" 
d="M536 140q-124 0 -185.5 57.5t-61.5 165.5q0 77 28.5 143t84.5 105t134 39q88 0 143.5 -43t79.5 -108t24 -136v-223h-247zM916 363q0 123 -48 218.5t-134 148.5t-198 53q-110 0 -196.5 -53.5t-135 -149.5t-48.5 -217q0 -171 97 -267t283 -96h246q0 -197 -110 -302
t-297 -105h-230v-140h230q154 0 277 67.5t193.5 194t70.5 297.5v351zM840 1388l-107 2l-199 -227l-199 227l-107 -2l275 -316h62z" />
    <glyph glyph-name="uni06C7" unicode="&#x6c7;" horiz-adv-x="1073" arabic-form="isolated" 
d="M536 140q-124 0 -185.5 57.5t-61.5 165.5q0 77 28.5 143t84.5 105t134 39q88 0 143.5 -43t79.5 -108t24 -136v-223h-247zM916 363q0 123 -48 218.5t-134 148.5t-198 53q-110 0 -196.5 -53.5t-135 -149.5t-48.5 -217q0 -171 97 -267t283 -96h246q0 -197 -110 -302
t-297 -105h-230v-140h230q154 0 277 67.5t193.5 194t70.5 297.5v351zM499 1124l19 -49l77 30l-19 50l123 48q85 37 119 116t2 165q-36 84 -115 118.5t-164 2.5q-85 -36 -119 -115t-3 -165l48 -123l-235 -94l31 -77zM694 1514q34 -23 49 -61q20 -51 -1.5 -101t-72.5 -71
l-123 -49l-49 124q-16 40 -4.5 82.5t46 70.5t80.5 28q41 0 75 -23z" />
    <glyph glyph-name="uni06C9" unicode="&#x6c9;" horiz-adv-x="1073" arabic-form="isolated" 
d="M536 140q-124 0 -185.5 57.5t-61.5 165.5q0 77 28.5 143t84.5 105t134 39q88 0 143.5 -43t79.5 -108t24 -136v-223h-247zM916 363q0 123 -48 218.5t-134 148.5t-198 53q-110 0 -196.5 -53.5t-135 -149.5t-48.5 -217q0 -171 97 -267t283 -96h246q0 -197 -110 -302
t-297 -105h-230v-140h230q154 0 277 67.5t193.5 194t70.5 297.5v351zM840 1038l-107 -1l-199 227l-199 -227l-107 1l275 317h62z" />
    <glyph glyph-name="uni06D2" unicode="&#x6d2;" horiz-adv-x="1607" arabic-form="isolated" 
d="M1451 133h-880q-76 0 -141 38t-102.5 102.5t-37.5 141.5q0 76 37.5 141t102.5 102.5t141 37.5h221v134h-221q-112 0 -207.5 -56t-151 -151.5t-55.5 -207.5q0 -113 55.5 -208.5t151 -151t207.5 -55.5h880v133z" />
    <glyph glyph-name="uni06D3" unicode="&#x6d3;" horiz-adv-x="1607" arabic-form="isolated" 
d="M1451 133h-880q-76 0 -141 38t-102.5 102.5t-37.5 141.5q0 76 37.5 141t102.5 102.5t141 37.5h221v134h-221q-112 0 -207.5 -56t-151 -151.5t-55.5 -207.5q0 -113 55.5 -208.5t151 -151t207.5 -55.5h880v133zM266 1155l441 168l-30 78l-157 -60q-80 -1 -118.5 38
t-37.5 96q0 53 34 96t89 44q34 0 61 -10t59 -27q5 -3 7 -4l18 81q-32 19 -66 31t-79 12q-61 0 -108 -32.5t-73 -84t-26 -106.5q0 -62 33 -111.5t87 -68.5l-163 -63z" />
    <glyph glyph-name="uniFB51" unicode="&#x671;" horiz-adv-x="593" arabic-form="final" 
d="M613 140h-69q-61 0 -111.5 30t-79.5 81.5t-29 112.5v876h-133v-890q0 -95 45 -175t126 -127.5t182 -47.5h69v140zM172 1540l3 6q37 99 87 176t125 77q71 0 106 -45.5t35 -104.5q0 -47 -41.5 -78t-103.5 -31h-211zM34 1636q-26 47 -26 94v42h-83v-42q0 -64 31 -128
t81 -105t103 -41h243q64 0 116.5 25.5t82 69.5t29.5 98q0 62 -26 115.5t-77 85.5t-121 32q-113 0 -181.5 -98t-111.5 -215q-34 20 -60 67z" />
    <glyph glyph-name="uniFB57" unicode="&#x67e;" horiz-adv-x="1879" arabic-form="final" 
d="M1431.5 50q76.5 50 115.5 133q40 -83 116.5 -133t174.5 -50h41v140h-41q-61 0 -112.5 30t-81.5 81.5t-30 112.5v287h-133v-287q0 -61 -30 -112.5t-81.5 -81.5t-112.5 -30h-744q-61 0 -112 30t-81 81.5t-30 112.5v315h-133v-329q0 -96 48 -176t129.5 -127t178.5 -47h744
q98 0 174.5 50zM894 -289h-281q-1 -67 0 -133h281v133zM1157 -289h-281v-133h281q1 66 0 133zM975 -582h-180v-148h180v148z" />
    <glyph glyph-name="uniFB58" unicode="&#x67e;" horiz-adv-x="682" arabic-form="initial" 
d="M-54.5 98q-14.5 -28 0 -56t54.5 -42h169q97 0 179 47t130 127t48 176v329h-133v-315q0 -61 -30 -112.5t-81.5 -81.5t-112.5 -30h-169q-40 -14 -54.5 -42zM126 -296h-281q-1 -67 0 -133h281v133zM389 -296h-281v-133h281q1 66 0 133zM207 -589h-180v-148h180v148z" />
    <glyph glyph-name="uniFB59" unicode="&#x67e;" horiz-adv-x="791" arabic-form="medial" 
d="M-54.5 98q-14.5 -28 0 -56t54.5 -42h169q98 0 174 50t116 133q40 -83 116.5 -133t174.5 -50h41v140h-41q-61 0 -112.5 30t-81.5 81.5t-30 112.5v287h-133v-287q0 -61 -30 -112.5t-81.5 -81.5t-112.5 -30h-169q-40 -14 -54.5 -42zM126 -296h-281q-1 -67 0 -133h281v133z
M389 -296h-281v-133h281q1 66 0 133zM207 -589h-180v-148h180v148z" />
    <glyph glyph-name="uniFB67" unicode="&#x679;" horiz-adv-x="1879" arabic-form="final" 
d="M1431.5 50q76.5 50 115.5 133q40 -83 116.5 -133t174.5 -50h41v140h-41q-61 0 -112.5 30t-81.5 81.5t-30 112.5v287h-133v-287q0 -61 -30 -112.5t-81.5 -81.5t-112.5 -30h-744q-61 0 -112 30t-81 81.5t-30 112.5v315h-133v-329q0 -96 48 -176t129.5 -127t178.5 -47h744
q98 0 174.5 50zM781.5 954q26.5 57 69.5 102.5t98 45.5q71 0 106 -45.5t35 -104.5q0 -46 -41.5 -77.5t-103.5 -31.5h-207q17 54 43.5 111zM649 843h-52v-83h348q64 0 116.5 25t82.5 69t29 98q0 62 -26 115.5t-77 86t-121 32.5q-116 0 -205 -149v357h-83v-510q-6 -18 -12 -41
z" />
    <glyph glyph-name="uniFB68" unicode="&#x679;" horiz-adv-x="810" arabic-form="initial" 
d="M-54.5 98q-14.5 -28 0 -56t54.5 -42h297q97 0 178.5 47t129.5 127.5t48 175.5v329h-132v-315q0 -61 -30.5 -112.5t-81.5 -81.5t-112 -30h-297q-40 -14 -54.5 -42zM284.5 1146q26.5 57 69.5 102.5t98 45.5q71 0 106 -45.5t35 -104.5q0 -46 -41.5 -77.5t-103.5 -31.5h-207
q17 54 43.5 111zM152 1035h-52v-83h348q64 0 116.5 25t82.5 69t29 98q0 62 -26 115.5t-77 86t-121 32.5q-116 0 -205 -149v357h-83v-510q-6 -18 -12 -41z" />
    <glyph glyph-name="uniFB69" unicode="&#x679;" horiz-adv-x="919" arabic-form="medial" 
d="M-54.5 98q-14.5 -28 0 -56t54.5 -42h297q97 0 173.5 50t116.5 133q40 -83 116.5 -133t173.5 -50h42v140h-42q-61 0 -112.5 30t-81.5 81.5t-30 112.5v287h-132v-287q0 -61 -30.5 -112.5t-81.5 -81.5t-112 -30h-297q-40 -14 -54.5 -42zM284.5 1118q26.5 57 69.5 102.5
t98 45.5q71 0 106 -45.5t35 -104.5q0 -46 -41.5 -77.5t-103.5 -31.5h-207q17 54 43.5 111zM152 1007h-52v-83h348q64 0 116.5 25t82.5 69t29 98q0 62 -26 115.5t-77 86t-121 32.5q-116 0 -205 -149v357h-83v-510q-6 -18 -12 -41z" />
    <glyph glyph-name="uniFB6B" unicode="&#x6a4;" horiz-adv-x="1859" arabic-form="final" 
d="M1416 697.5q58 -27.5 92.5 -78.5t34.5 -117q0 -132 -81.5 -219.5t-171.5 -141.5q-89 54 -170.5 141.5t-81.5 219.5q0 66 34.5 117t92.5 78.5t125 27.5q68 0 126 -27.5zM1151 0q57 0 95 11t44 24q6 -13 44 -24t96 -11h430v140h-387q80 60 141.5 151t61.5 211
q0 99 -50.5 180.5t-139 129t-196.5 47.5q-107 0 -195.5 -47.5t-139.5 -129t-51 -180.5q0 -120 61.5 -211t142.5 -151h-595q-61 0 -112 30t-81 81.5t-30 112.5v315h-133v-329q0 -96 48 -176t129.5 -127t178.5 -47h638zM1299 1267q-137 -1 -281 0q-1 -66 0 -133h281v133z
M1562 1267q-144 -1 -281 0v-133h281q1 67 0 133zM1380 1571h-180v-148h180v148z" />
    <glyph glyph-name="uniFB6C" unicode="&#x6a4;" horiz-adv-x="1089" arabic-form="initial" 
d="M511 524q-75 0 -118.5 13.5t-65 49.5t-21.5 104q0 73 30.5 141t86.5 111t130 43q84 0 139.5 -47t81.5 -118t26 -144v-153h-289zM-54.5 98q-14.5 -28 0 -56t54.5 -42h531q107 0 199.5 49.5t147.5 132.5t55 177v318q0 121 -49 222t-135.5 160.5t-195.5 59.5
q-107 0 -194 -61.5t-136.5 -161.5t-49.5 -211q0 -156 73.5 -224t243.5 -68h310v-34q0 -58 -37 -108.5t-98.5 -80.5t-133.5 -30h-531q-40 -14 -54.5 -42zM562 1497q-137 -1 -281 0q-1 -66 0 -133h281v133zM825 1497q-144 -1 -281 0v-133h281q1 67 0 133zM643 1801h-180v-148
h180v148z" />
    <glyph glyph-name="uniFB6D" unicode="&#x6a4;" horiz-adv-x="1139" arabic-form="medial" 
d="M695 697.5q58 -27.5 92.5 -78.5t34.5 -117q0 -132 -81.5 -219.5t-171.5 -141.5q-89 54 -170.5 141.5t-81.5 219.5q0 66 34.5 117t92.5 78.5t125 27.5q68 0 126 -27.5zM-54.5 98q-14.5 -28 0 -56t54.5 -42h430q57 0 95 11t44 24q7 -13 44.5 -24t95.5 -11h430v140h-387
q81 60 142 151t61 211q0 99 -50.5 180.5t-139 129t-196.5 47.5q-107 0 -195.5 -47.5t-139 -129t-50.5 -180.5q0 -120 61 -211t142 -151h-387q-40 -14 -54.5 -42zM578 1267q-137 -1 -281 0q-1 -66 0 -133h281v133zM841 1267q-144 -1 -281 0v-133h281q1 67 0 133zM659 1571
h-180v-148h180v148z" />
    <glyph glyph-name="uniFB7B" unicode="&#x686;" horiz-adv-x="1413" arabic-form="final" 
d="M1243 534l6 128l-219 126.5t-349 195.5q-86 44 -177 34t-165.5 -71.5t-114.5 -163.5l-16 -37l122 -53l16 37q38 101 116.5 138.5t164.5 -5.5l90 -50q309 -171 395 -215l-648 -298q-154 -64 -237.5 -182t-80.5 -258q2 -123 61.5 -222.5t163 -157t235.5 -58.5h580v140h-580
q-112 0 -193.5 55.5t-113.5 143.5q-42 123 14 237t199 179l485 232l45 -219q20 -99 98 -144.5t166 -45.5h107v140h-104q-55 0 -104.5 24.5t-62.5 91.5l-43 205zM788 23h-223q-1 -51 0 -98h223q1 47 0 98zM995 23h-223q-1 -51 0 -98h223q1 47 0 98zM857 -181h-154v-119h154
v119z" />
    <glyph glyph-name="uniFB7C" unicode="&#x686;" horiz-adv-x="1310" arabic-form="initial" 
d="M-54.5 98q-14.5 -28 0 -56t54.5 -42h216q203 0 396.5 59.5t327 129.5t251.5 144q41 27 46 28l-6 126q-12 0 -85 39t-221 122q-207 115 -290 158q-86 44 -177 34t-165.5 -71t-114.5 -164l-14 -33l123 -53l14 34q38 100 116 138t164 -6q12 -6 38 -20q370 -203 488 -253
q-13 -7 -46 -22q-133 -66 -255 -117t-279.5 -92t-310.5 -41h-216q-40 -14 -54.5 -42zM562 -292h-281q-1 -67 0 -133h281v133zM825 -292h-281v-133h281q1 66 0 133zM643 -585h-180v-148h180v148z" />
    <glyph glyph-name="uniFB7D" unicode="&#x686;" horiz-adv-x="1385" arabic-form="medial" 
d="M-54.5 98q-14.5 -28 0 -56t54.5 -42h216q346 0 735 203l116 -112q36 -43 93 -67t121 -24h126v140h-126q-76 0 -133 44l-98 82q55 31 132 79q49 30 54 31l-5 111q-12 0 -85 39t-221 122q-207 115 -290 158q-86 44 -177 34t-165.5 -71t-114.5 -164l-14 -33l123 -53l14 34
q38 100 116 138t164 -6q12 -6 38 -20q370 -203 488 -253q-13 -7 -46 -22q-133 -66 -255 -117t-279.5 -92t-310.5 -41h-216q-40 -14 -54.5 -42zM562 -292h-281q-1 -67 0 -133h281v133zM825 -292h-281v-133h281q1 66 0 133zM643 -585h-180v-148h180v148z" />
    <glyph glyph-name="uniFB89" unicode="&#x688;" horiz-adv-x="1177" arabic-form="final" 
d="M571 0q110 0 185.5 60.5t94.5 152.5l34 -62q43 -71 113.5 -111t154.5 -40h23v140h-23q-57 0 -103 26.5t-73 76.5l-391 720l-117 -64l283 -521q29 -53 17.5 -110.5t-56 -96t-106.5 -38.5h-522v-133h486zM496.5 1435q26.5 57 69.5 102.5t98 45.5q71 0 106 -45.5t35 -104.5
q0 -46 -41.5 -77.5t-103.5 -31.5h-207q17 54 43.5 111zM364 1324h-52v-83h348q64 0 116.5 25t82.5 69t29 98q0 62 -26 115.5t-77 86t-121 32.5q-116 0 -205 -149v357h-83v-510q-6 -18 -12 -41z" />
    <glyph glyph-name="uniFB8B" unicode="&#x698;" horiz-adv-x="885" arabic-form="final" 
d="M707.5 45q73.5 -45 160.5 -45h17v140h-17q-75 0 -139 38t-101.5 102.5t-37.5 141.5v229h-133v-640q0 -108 -54 -205t-145.5 -155t-198.5 -58h-63v-140h63q143 0 265 75t194 200.5t72 267.5v170q44 -76 117.5 -121zM532 1091q-137 -1 -281 0q-1 -66 0 -133h281v133z
M795 1091q-144 -1 -281 0v-133h281q1 67 0 133zM613 1395h-180v-148h180v148z" />
    <glyph glyph-name="uniFB8D" unicode="&#x691;" horiz-adv-x="885" arabic-form="final" 
d="M707.5 45q73.5 -45 160.5 -45h17v140h-17q-75 0 -139 38t-101.5 102.5t-37.5 141.5v229h-133v-640q0 -108 -54 -205t-145.5 -155t-198.5 -58h-63v-140h63q143 0 265 75t194 200.5t72 267.5v170q44 -76 117.5 -121zM419.5 1166q26.5 57 69.5 102.5t98 45.5q71 0 106 -45.5
t35 -104.5q0 -46 -41.5 -77.5t-103.5 -31.5h-207q17 54 43.5 111zM287 1055h-52v-83h348q64 0 116.5 25t82.5 69t29 98q0 62 -26 115.5t-77 86t-121 32.5q-116 0 -205 -149v357h-83v-510q-6 -18 -12 -41z" />
    <glyph glyph-name="uniFB8F" unicode="&#x6a9;" horiz-adv-x="1977" arabic-form="final" 
d="M1291 0q87 0 153.5 38t103.5 99.5t38 129.5l165 -174q43 -45 99.5 -69t117.5 -24h9v140h-9q-36 0 -69.5 13.5t-57.5 37.5l-818 858l608 231l-47 125l-701 -268v-133l563 -590q45 -51 40.5 -116.5t-51 -111.5t-115.5 -46h-807q-61 0 -112 30t-81 81.5t-30 112.5v315h-133
v-322q0 -97 48 -179t129.5 -130t178.5 -48h778z" />
    <glyph glyph-name="uniFB90" unicode="&#x6a9;" horiz-adv-x="1120" arabic-form="initial" 
d="M-54.5 98q-14.5 -28 0 -56t54.5 -42h658q96 0 168 50.5t106.5 131t21 167.5t-78.5 155l-520 545l607 231l-46 125l-701 -268v-133l557 -584q48 -51 45.5 -117.5t-49 -114.5t-116.5 -48h-652q-40 -14 -54.5 -42z" />
    <glyph glyph-name="uniFB91" unicode="&#x6a9;" horiz-adv-x="1315" arabic-form="medial" 
d="M-54.5 98q-14.5 -28 0 -56t54.5 -42h623q87 0 153.5 38t103 99.5t37.5 129.5l166 -174q43 -45 99.5 -69t117.5 -24h15v140h-15q-37 0 -70 13.5t-57 37.5l-818 858l607 231l-46 125l-701 -268v-133l563 -590q44 -51 39.5 -116.5t-50.5 -111.5t-115 -46h-652
q-40 -14 -54.5 -42z" />
    <glyph glyph-name="uniFB93" unicode="&#x6af;" horiz-adv-x="1975" arabic-form="final" 
d="M1291 0q87 0 153.5 38t103.5 99.5t38 129.5l165 -174q43 -45 99.5 -69t117.5 -24h9v140h-9q-36 0 -69.5 13.5t-57.5 37.5l-818 858l608 231l-47 125l-701 -268v-133l563 -590q45 -51 40.5 -116.5t-51 -111.5t-115.5 -46h-807q-61 0 -112 30t-81 81.5t-30 112.5v315h-133
v-322q0 -97 48 -179t129.5 -130t178.5 -48h778zM1495 1564l-31 80l-581 -217l1 -90z" />
    <glyph glyph-name="uniFB94" unicode="&#x6af;" horiz-adv-x="1120" arabic-form="initial" 
d="M-54.5 98q-14.5 -28 0 -56t54.5 -42h658q96 0 168 50.5t106.5 131t21 167.5t-78.5 155l-520 545l607 231l-46 125l-701 -268v-133l557 -584q48 -51 45.5 -117.5t-49 -114.5t-116.5 -48h-652q-40 -14 -54.5 -42zM800 1564l-31 80l-581 -217l1 -90z" />
    <glyph glyph-name="uniFB95" unicode="&#x6af;" horiz-adv-x="1314" arabic-form="medial" 
d="M-54.5 98q-14.5 -28 0 -56t54.5 -42h623q87 0 153.5 38t103 99.5t37.5 129.5l166 -174q43 -45 99.5 -69t117.5 -24h15v140h-15q-37 0 -70 13.5t-57 37.5l-818 858l607 231l-46 125l-701 -268v-133l563 -590q44 -51 39.5 -116.5t-50.5 -111.5t-115 -46h-652
q-40 -14 -54.5 -42zM800 1564l-31 80l-581 -217l1 -90z" />
    <glyph glyph-name="uniFB9F" unicode="&#x6ba;" horiz-adv-x="1608" arabic-form="final" 
d="M798 -548q163 0 286.5 74t190.5 198t68 270v132q37 -59 96 -93t128 -34h41v140h-41q-61 0 -112.5 30t-81.5 81.5t-30 112.5v262h-133v-614q0 -112 -49 -207.5t-142 -153.5t-221 -58h-97q-127 0 -220.5 58t-142.5 153.5t-49 207.5l1 435h-133v-449q0 -146 66.5 -271
t190.5 -199.5t287 -74.5h97z" />
    <glyph glyph-name="uniFBA7" unicode="&#x6c1;" horiz-adv-x="1156" arabic-form="final" 
d="M317 305q11 80 62.5 143.5t128.5 89.5l235 77l26 -291q8 -90 57.5 -164.5t128 -117t169.5 -42.5h32v140h-32q-88 0 -151.5 55.5t-71.5 141.5l-34 374l-87 57l-315 -104q-113 -39 -189 -131.5t-91 -210.5l-39 -313l133 -16z" />
    <glyph glyph-name="uniFBA8" unicode="&#x6c1;" horiz-adv-x="1268" arabic-form="initial" 
d="M783 -598q-55 26 -136 -9v29q0 61 39 107t100 56l58 9l-15 103l-35 -7q-111 -21 -179.5 -100t-70.5 -183v-85q0 -55 41.5 -93t103.5 -38q63 0 106 35t43 89q0 61 -55 87zM-54.5 98q-14.5 -28 0 -56t54.5 -42h123q98 0 174.5 50t115.5 133q40 -83 116.5 -133t174.5 -50h51
q97 0 179 47t130 127t48 176v329h-133v-315q0 -61 -30 -112.5t-81.5 -81.5t-112.5 -30h-51q-61 0 -112.5 30t-81.5 81.5t-30 112.5v287h-133v-287q0 -61 -30 -112.5t-81.5 -81.5t-112.5 -30h-123q-40 -14 -54.5 -42z" />
    <glyph glyph-name="uniFBA9" unicode="&#x6c1;" horiz-adv-x="1098" arabic-form="medial" 
d="M-54.5 98q-14.5 -28 0 -56t54.5 -42h258q24 -580 586 -580l66 78v436q0 30 18 48t48 18h122v140h-153q-75 0 -121.5 -47t-46.5 -121v-412q-192 12 -290 128t-99 363v511h-133v-422h-255q-40 -14 -54.5 -42z" />
    <glyph glyph-name="uniFBAB" unicode="&#x6be;" horiz-adv-x="1577" arabic-form="final" 
d="M1295 140q50 44 76.5 109t21 137t-47.5 137l-285 442l-111 -72l284 -442q43 -66 31 -139.5t-68.5 -122.5t-135.5 -49h-351q81 59 142.5 150.5t61.5 211.5q0 99 -51 180.5t-139 129t-196 47.5t-196 -47.5t-139 -129t-51 -180.5q0 -105 63 -223.5t158.5 -198.5t185.5 -80
h1028v140h-281zM652 697.5q58 -27.5 93 -78.5t35 -117q0 -132 -81.5 -219t-171.5 -142q-89 54 -171 141.5t-82 219.5q0 66 34.5 117t92.5 78.5t126 27.5q67 0 125 -27.5z" />
    <glyph glyph-name="uniFBAC" unicode="&#x6be;" horiz-adv-x="1586" arabic-form="initial" 
d="M695 697.5q58 -27.5 92.5 -78.5t34.5 -117q0 -132 -81.5 -219.5t-171.5 -141.5q-89 54 -170.5 141.5t-81.5 219.5q0 66 34.5 117t92.5 78.5t125 27.5q68 0 126 -27.5zM1151 0q87 0 157.5 45.5t108.5 119.5t32.5 158t-60.5 157l-369 485l-106 -80l364 -479
q39 -51 33 -114.5t-51.5 -108t-113.5 -44.5h-394q81 61 142 152t61 211q0 99 -50.5 180.5t-139 129t-196.5 47.5q-107 0 -195.5 -47.5t-139 -129t-50.5 -180.5q0 -120 61 -211t142 -151h-387q-40 -14 -54.5 -42t0 -56t54.5 -42h430q57 0 95 11t44 24q7 -13 44.5 -24
t95.5 -11h442z" />
    <glyph glyph-name="uniFBAD" unicode="&#x6be;" horiz-adv-x="1611" arabic-form="medial" 
d="M688 697.5q58 -27.5 93 -78.5t35 -117q0 -132 -82 -219.5t-171 -141.5q-89 54 -171 141.5t-82 219.5q0 66 34.5 117t92.5 78.5t126 27.5q67 0 125 -27.5zM-54.5 98q-14.5 -28 0 -56t54.5 -42h441q49 0 81 10t41 26q9 -16 41 -26t81 -10h927v140h-282q51 44 77.5 109
t20.5 137t-47 137l-285 442l-111 -72l284 -442q42 -66 30 -139.5t-68 -122.5t-135 -49h-351q81 60 142 151t61 211q0 99 -50.5 180.5t-139 129t-195.5 47.5q-108 0 -196 -47.5t-139 -129t-51 -180.5q0 -120 61.5 -211t141.5 -151h-380q-40 -14 -54.5 -42z" />
    <glyph glyph-name="uniFBAF" unicode="&#x6d2;" horiz-adv-x="1080" arabic-form="final" 
d="M902 -368h-389q-95 0 -159 50.5t-64 133.5t64 133.5t159 50.5h567v140h-567q-98 0 -179.5 -41.5t-129 -115t-47.5 -167.5q0 -93 47.5 -165t129 -111.5t179.5 -39.5h389v132z" />
    <glyph glyph-name="uniFBB1" unicode="&#x6d3;" horiz-adv-x="1080" arabic-form="final" 
d="M902 -368h-389q-95 0 -159 50.5t-64 133.5t64 133.5t159 50.5h567v140h-567q-98 0 -179.5 -41.5t-129 -115t-47.5 -167.5q0 -93 47.5 -165t129 -111.5t179.5 -39.5h389v132zM266 466l441 168l-30 78l-157 -60q-80 -1 -118.5 38t-37.5 96q0 53 34 96t89 44q34 0 61 -10
t59 -27q5 -3 7 -4l18 81q-32 19 -66 31t-79 12q-61 0 -108 -32.5t-73 -84t-26 -106.5q0 -62 33 -111.5t87 -68.5l-163 -63z" />
    <glyph glyph-name="uniFBD8" unicode="&#x6c7;" horiz-adv-x="1107" arabic-form="final" 
d="M536 140q-124 0 -185.5 57.5t-61.5 165.5q0 77 28.5 143t84.5 105t134 39q88 0 143.5 -43t79.5 -108t24 -136v-223h-247zM672 -302q-110 -105 -297 -105h-230v-140h230q152 0 274 65.5t192.5 189.5t73.5 292h192v140h-191v223q0 123 -48 218.5t-134 148.5t-198 53
q-110 0 -196.5 -53.5t-135 -149.5t-48.5 -217q0 -171 97 -267t283 -96h246q0 -197 -110 -302zM499 1124l19 -49l77 30l-19 50l123 48q85 37 119 116t2 165q-36 84 -115 118.5t-164 2.5q-85 -36 -119 -115t-3 -165l48 -123l-235 -94l31 -77zM694 1514q34 -23 49 -61
q20 -51 -1.5 -101t-72.5 -71l-123 -49l-49 124q-16 40 -4.5 82.5t46 70.5t80.5 28q41 0 75 -23z" />
    <glyph glyph-name="uniFBDA" unicode="&#x6c6;" horiz-adv-x="1107" arabic-form="final" 
d="M536 140q-124 0 -185.5 57.5t-61.5 165.5q0 77 28.5 143t84.5 105t134 39q88 0 143.5 -43t79.5 -108t24 -136v-223h-247zM672 -302q-110 -105 -297 -105h-230v-140h230q152 0 274 65.5t192.5 189.5t73.5 292h192v140h-191v223q0 123 -48 218.5t-134 148.5t-198 53
q-110 0 -196.5 -53.5t-135 -149.5t-48.5 -217q0 -171 97 -267t283 -96h246q0 -197 -110 -302zM840 1388l-107 2l-199 -227l-199 227l-107 -2l275 -316h62z" />
    <glyph glyph-name="uniFBE3" unicode="&#x6c9;" horiz-adv-x="1107" arabic-form="final" 
d="M536 140q-124 0 -185.5 57.5t-61.5 165.5q0 77 28.5 143t84.5 105t134 39q88 0 143.5 -43t79.5 -108t24 -136v-223h-247zM672 -302q-110 -105 -297 -105h-230v-140h230q152 0 274 65.5t192.5 189.5t73.5 292h192v140h-191v223q0 123 -48 218.5t-134 148.5t-198 53
q-110 0 -196.5 -53.5t-135 -149.5t-48.5 -217q0 -171 97 -267t283 -96h246q0 -197 -110 -302zM840 1038l-107 -1l-199 227l-199 -227l-107 1l275 317h62z" />
    <glyph glyph-name="uniFBE8" unicode="&#x649;" horiz-adv-x="722" arabic-form="initial" 
d="M-54.5 98q-14.5 -28 0 -56t54.5 -42h208q97 0 179 47t130 127t48 176v329h-133v-315q0 -61 -30 -112.5t-81.5 -81.5t-112.5 -30h-208q-40 -14 -54.5 -42z" />
    <glyph glyph-name="uniFBE9" unicode="&#x649;" horiz-adv-x="830" arabic-form="medial" 
d="M-54.5 98q-14.5 -28 0 -56t54.5 -42h208q98 0 174.5 50t115.5 133q40 -83 116.5 -133t174.5 -50h41v140h-41q-61 0 -112.5 30t-81.5 81.5t-30 112.5v287h-133v-287q0 -61 -30 -112.5t-81.5 -81.5t-112.5 -30h-208q-40 -14 -54.5 -42z" />
    <glyph glyph-name="uniFBFD" unicode="&#x6cc;" horiz-adv-x="1671" arabic-form="final" 
d="M1671 140h-907v-133h413q53 -3 86 -46t32 -99q-1 -96 -59.5 -156.5t-148 -87t-188.5 -26.5h-203q-127 0 -219 56.5t-139.5 151t-47.5 205.5l-1 441h-132v-455q0 -145 65.5 -268.5t188 -197t285.5 -73.5h203q164 0 284.5 58t182 151t59.5 199q-3 91 -59 140h305v140z" />
    <glyph glyph-name="uniFBFE" unicode="&#x6cc;" horiz-adv-x="682" arabic-form="initial" 
d="M-54.5 98q-14.5 -28 0 -56t54.5 -42h169q97 0 179 47t130 127t48 176v329h-133v-315q0 -61 -30 -112.5t-81.5 -81.5t-112.5 -30h-169q-40 -14 -54.5 -42zM126 -370h-281q-1 -67 0 -133h281v133zM389 -370h-281v-133h281q1 66 0 133z" />
    <glyph glyph-name="uniFBFF" unicode="&#x6cc;" horiz-adv-x="791" arabic-form="medial" 
d="M-54.5 98q-14.5 -28 0 -56t54.5 -42h169q98 0 174 50t116 133q40 -83 116.5 -133t174.5 -50h41v140h-41q-61 0 -112.5 30t-81.5 81.5t-30 112.5v287h-133v-287q0 -61 -30 -112.5t-81.5 -81.5t-112.5 -30h-169q-40 -14 -54.5 -42zM126 -370h-281q-1 -67 0 -133h281v133z
M389 -370h-281v-133h281q1 66 0 133z" />
    <glyph glyph-name="uniFD3C" unicode="&#xfd3c;" horiz-adv-x="592" arabic-form="final" 
d="M613 140h-69q-61 0 -111.5 30t-79.5 81.5t-29 112.5v876h-133v-890q0 -95 45 -175t126 -127.5t182 -47.5h69v140zM38 1405l503 199l-31 77l-503 -199zM-65 1693l503 199l-31 77l-503 -199z" />
    <glyph glyph-name="uniFD3D" unicode="&#xfd3d;" horiz-adv-x="500" arabic-form="isolated" 
d="M191 0h133v1240h-133v-1240zM38 1405l503 199l-31 77l-503 -199zM-65 1693l503 199l-31 77l-503 -199z" />
    <glyph glyph-name="uniFDF2" unicode="&#xfdf2;" horiz-adv-x="2875" arabic-form="isolated" 
d="M2604 0h133v1425h-133v-1425zM1773.5 98q-14.5 -28 0 -56t54.5 -42h93q97 0 179 48t129.5 130t47.5 179v1068h-132v-1061q0 -61 -30.5 -112.5t-81.5 -81.5t-112 -30h-93q-40 -14 -54.5 -42zM1117.5 98q-14.5 -28 0 -56t54.5 -42h38q97 0 173.5 50t116.5 133
q40 -83 116.5 -133t173.5 -50h38v140h-38q-61 0 -112 30t-81.5 81.5t-30.5 112.5v803h-132v-803q0 -61 -30.5 -112.5t-81.5 -81.5t-112 -30h-38q-40 -14 -54.5 -42zM1450.5 1476q42.5 32 61.5 85q24 -28 57 -43.5t72 -15.5h14q51 0 94 25t68 68t25 94v173h-83v-173
q0 -43 -30.5 -73.5t-73.5 -30.5h-14q-43 0 -73 30.5t-30 73.5v115h-84v-173q0 -43 -30 -73.5t-73 -30.5h-14q-43 0 -73.5 30.5t-30.5 73.5v173h-83v-173q0 -51 25 -94t68 -68t94 -25h14q57 0 99.5 32zM1452 1928h84v373h-84v-373zM971.5 56q77.5 -55 174.5 -56h44v140h-45
q-72 1 -127 48t-65 119l-108 740l-132 -18l20 -141q-199 3 -335 -62.5t-199.5 -184t-53.5 -273.5q6 -110 74 -183.5t175.5 -98.5t230.5 5t233 116q36 -96 113.5 -151zM816 320q-126 -99 -251.5 -114.5t-203 34t-84.5 138.5q-10 183 111.5 286t363.5 92z" />
    <glyph glyph-name="uniFDFC" unicode="&#xfdfc;" horiz-adv-x="3232" arabic-form="isolated" 
d="M2544 -514q144 0 266 75t193.5 200.5t71.5 268.5v621h-133v-607q0 -109 -54 -207.5t-145.5 -159t-198.5 -60.5h-876v-131h876zM1639 1294v-944q0 -95 45 -175t126 -127.5t182 -47.5h212q97 0 179 47t129.5 127t47.5 176v329h-132v-315q0 -61 -30.5 -112.5t-81.5 -81.5
t-112 -30h-212q-61 0 -111.5 30t-79.5 81.5t-29 112.5v1061h-590v-1404q0 -112 -49 -208t-142.5 -153.5t-220.5 -57.5h-69q-127 0 -220.5 57.5t-142.5 153.5t-49 208v405h-132v-419q0 -146 66.5 -271t190.5 -199.5t287 -74.5h69q163 0 287 74.5t190.5 199.5t66.5 271v1287
h325z" />
    <glyph glyph-name="uniFE82" unicode="&#x622;" horiz-adv-x="607" arabic-form="final" 
d="M613 140h-69q-61 0 -111.5 30t-79.5 81.5t-29 112.5v876h-133v-890q0 -95 45 -175t126 -127.5t182 -47.5h69v140zM-24 1436q21 52 67.5 83.5t103.5 31.5h434v97h-434q-87 0 -158 -48t-103 -129l-54 -134l91 -36z" />
    <glyph glyph-name="uniFE86" unicode="&#x624;" horiz-adv-x="1107" arabic-form="final" 
d="M536 140q-124 0 -185.5 57.5t-61.5 165.5q0 77 28.5 143t84.5 105t134 39q88 0 143.5 -43t79.5 -108t24 -136v-223h-247zM672 -302q-110 -105 -297 -105h-230v-140h230q152 0 274 65.5t192.5 189.5t73.5 292h192v140h-191v223q0 123 -48 218.5t-134 148.5t-198 53
q-110 0 -196.5 -53.5t-135 -149.5t-48.5 -217q0 -171 97 -267t283 -96h246q0 -197 -110 -302zM330 1029l441 168l-30 78l-157 -60q-80 -1 -118.5 38t-37.5 96q0 53 34 96t89 44q34 0 61 -10t59 -27q5 -3 7 -4l18 81q-32 19 -66 31t-79 12q-61 0 -108 -32.5t-73 -84
t-26 -106.5q0 -62 33 -111.5t87 -68.5l-163 -63z" />
    <glyph glyph-name="uniFE88" unicode="&#x625;" horiz-adv-x="607" arabic-form="final" 
d="M613 140h-69q-61 0 -111.5 30t-79.5 81.5t-29 112.5v1061h-133v-1075q0 -95 45 -175t126 -127.5t182 -47.5h69v140zM56 -805l441 168l-30 78l-157 -60q-80 -1 -118.5 38t-37.5 96q0 53 34 96t89 44q34 0 61 -10t59 -27q5 -3 7 -4l18 81q-32 19 -66 31t-79 12
q-61 0 -108 -32.5t-73 -84t-26 -106.5q0 -62 33 -111.5t87 -68.5l-163 -63z" />
    <glyph glyph-name="uniFE8B" unicode="&#x626;" horiz-adv-x="722" arabic-form="initial" 
d="M-54.5 98q-14.5 -28 0 -56t54.5 -42h208q97 0 179 47t130 127t48 176v329h-133v-315q0 -61 -30 -112.5t-81.5 -81.5t-112.5 -30h-208q-40 -14 -54.5 -42zM120 951l441 168l-30 78l-157 -60q-80 -1 -118.5 38t-37.5 96q0 53 34 96t89 44q34 0 61 -10t59 -27q5 -3 7 -4
l18 81q-32 19 -66 31t-79 12q-61 0 -108 -32.5t-73 -84t-26 -106.5q0 -62 33 -111.5t87 -68.5l-163 -63z" />
    <glyph glyph-name="uniFE8C" unicode="&#x626;" horiz-adv-x="830" arabic-form="medial" 
d="M-54.5 98q-14.5 -28 0 -56t54.5 -42h208q98 0 174.5 50t115.5 133q40 -83 116.5 -133t174.5 -50h41v140h-41q-61 0 -112.5 30t-81.5 81.5t-30 112.5v287h-133v-287q0 -61 -30 -112.5t-81.5 -81.5t-112.5 -30h-208q-40 -14 -54.5 -42zM120 923l441 168l-30 78l-157 -60
q-80 -1 -118.5 38t-37.5 96q0 53 34 96t89 44q34 0 61 -10t59 -27q5 -3 7 -4l18 81q-32 19 -66 31t-79 12q-61 0 -108 -32.5t-73 -84t-26 -106.5q0 -62 33 -111.5t87 -68.5l-163 -63z" />
    <glyph glyph-name="uniFE8E" unicode="&#x627;" horiz-adv-x="613" arabic-form="final" 
d="M613 140h-69q-61 0 -111.5 30t-79.5 81.5t-29 112.5v1061h-133v-1075q0 -95 45 -175t126 -127.5t182 -47.5h69v140z" />
    <glyph glyph-name="uniFE90" unicode="&#x628;" horiz-adv-x="1879" arabic-form="final" 
d="M1431.5 50q76.5 50 115.5 133q40 -83 116.5 -133t174.5 -50h41v140h-41q-61 0 -112.5 30t-81.5 81.5t-30 112.5v287h-133v-287q0 -61 -30 -112.5t-81.5 -81.5t-112.5 -30h-744q-61 0 -112 30t-81 81.5t-30 112.5v315h-133v-329q0 -96 48 -176t129.5 -127t178.5 -47h744
q98 0 174.5 50zM977 -370h-184v-150h184v150z" />
    <glyph glyph-name="uniFE91" unicode="&#x628;" horiz-adv-x="722" arabic-form="initial" 
d="M-54.5 98q-14.5 -28 0 -56t54.5 -42h208q97 0 179 47t130 127t48 176v329h-133v-315q0 -61 -30 -112.5t-81.5 -81.5t-112.5 -30h-208q-40 -14 -54.5 -42zM280 -370h-184v-150h184v150z" />
    <glyph glyph-name="uniFE92" unicode="&#x628;" horiz-adv-x="830" arabic-form="medial" 
d="M-54.5 98q-14.5 -28 0 -56t54.5 -42h208q98 0 174.5 50t115.5 133q40 -83 116.5 -133t174.5 -50h41v140h-41q-61 0 -112.5 30t-81.5 81.5t-30 112.5v287h-133v-287q0 -61 -30 -112.5t-81.5 -81.5t-112.5 -30h-208q-40 -14 -54.5 -42zM280 -370h-184v-150h184v150z" />
    <glyph glyph-name="uniFE94" unicode="&#x629;" horiz-adv-x="1188" arabic-form="final" 
d="M969.5 56q77.5 -55 174.5 -56h44v140h-45q-72 1 -127 48t-65 119l-108 740l-132 -18l20 -141q-199 3 -335 -62.5t-199.5 -184t-53.5 -273.5q6 -110 74 -183.5t175.5 -98.5t230.5 5t233 116q36 -96 113.5 -151zM814 320q-126 -99 -251.5 -114.5t-203 34t-84.5 138.5
q-10 183 111.5 286t363.5 92zM626 1426q-137 -1 -281 0q-1 -66 0 -133h281v133zM889 1426q-144 -1 -281 0v-133h281q1 67 0 133z" />
    <glyph glyph-name="uniFE96" unicode="&#x62a;" horiz-adv-x="1879" arabic-form="final" 
d="M1431.5 50q76.5 50 115.5 133q40 -83 116.5 -133t174.5 -50h41v140h-41q-61 0 -112.5 30t-81.5 81.5t-30 112.5v287h-133v-287q0 -61 -30 -112.5t-81.5 -81.5t-112.5 -30h-744q-61 0 -112 30t-81 81.5t-30 112.5v315h-133v-329q0 -96 48 -176t129.5 -127t178.5 -47h744
q98 0 174.5 50zM894 982q-137 -1 -281 0q-1 -66 0 -133h281v133zM1157 982q-144 -1 -281 0v-133h281q1 67 0 133z" />
    <glyph glyph-name="uniFE97" unicode="&#x62a;" horiz-adv-x="810" arabic-form="initial" 
d="M-54.5 98q-14.5 -28 0 -56t54.5 -42h297q97 0 178.5 47t129.5 127.5t48 175.5v329h-132v-315q0 -61 -30.5 -112.5t-81.5 -81.5t-112 -30h-297q-40 -14 -54.5 -42zM402 1118q-137 -1 -281 0q-1 -66 0 -133h281v133zM665 1118q-144 -1 -281 0v-133h281q1 67 0 133z" />
    <glyph glyph-name="uniFE98" unicode="&#x62a;" horiz-adv-x="919" arabic-form="medial" 
d="M-54.5 98q-14.5 -28 0 -56t54.5 -42h297q97 0 173.5 50t116.5 133q40 -83 116.5 -133t173.5 -50h42v140h-42q-61 0 -112.5 30t-81.5 81.5t-30 112.5v287h-132v-287q0 -61 -30.5 -112.5t-81.5 -81.5t-112 -30h-297q-40 -14 -54.5 -42zM402 1091q-137 -1 -281 0
q-1 -66 0 -133h281v133zM665 1091q-144 -1 -281 0v-133h281q1 67 0 133z" />
    <glyph glyph-name="uniFE9A" unicode="&#x62b;" horiz-adv-x="1879" arabic-form="final" 
d="M1431.5 50q76.5 50 115.5 133q40 -83 116.5 -133t174.5 -50h41v140h-41q-61 0 -112.5 30t-81.5 81.5t-30 112.5v287h-133v-287q0 -61 -30 -112.5t-81.5 -81.5t-112.5 -30h-744q-61 0 -112 30t-81 81.5t-30 112.5v315h-133v-329q0 -96 48 -176t129.5 -127t178.5 -47h744
q98 0 174.5 50zM894 1015q-137 -1 -281 0q-1 -66 0 -133h281v133zM1157 1015q-144 -1 -281 0v-133h281q1 67 0 133zM975 1319h-180v-148h180v148z" />
    <glyph glyph-name="uniFE9B" unicode="&#x62b;" horiz-adv-x="810" arabic-form="initial" 
d="M-54.5 98q-14.5 -28 0 -56t54.5 -42h297q97 0 178.5 47t129.5 127.5t48 175.5v329h-132v-315q0 -61 -30.5 -112.5t-81.5 -81.5t-112 -30h-297q-40 -14 -54.5 -42zM396 1118q-137 -1 -281 0q-1 -66 0 -133h281v133zM659 1118q-144 -1 -281 0v-133h281q1 67 0 133z
M477 1422h-180v-148h180v148z" />
    <glyph glyph-name="uniFE9C" unicode="&#x62b;" horiz-adv-x="919" arabic-form="medial" 
d="M-54.5 98q-14.5 -28 0 -56t54.5 -42h297q97 0 173.5 50t116.5 133q40 -83 116.5 -133t173.5 -50h42v140h-42q-61 0 -112.5 30t-81.5 81.5t-30 112.5v287h-132v-287q0 -61 -30.5 -112.5t-81.5 -81.5t-112 -30h-297q-40 -14 -54.5 -42zM396 1091q-137 -1 -281 0
q-1 -66 0 -133h281v133zM659 1091q-144 -1 -281 0v-133h281q1 67 0 133zM477 1395h-180v-148h180v148z" />
    <glyph glyph-name="uniFE9E" unicode="&#x62c;" horiz-adv-x="1413" arabic-form="final" 
d="M1243 534l6 128l-219 126.5t-349 195.5q-86 44 -177 34t-165.5 -71.5t-114.5 -163.5l-16 -37l122 -53l16 37q38 101 116.5 138.5t164.5 -5.5l90 -50q309 -171 395 -215l-648 -298q-154 -64 -237.5 -182t-80.5 -258q2 -123 61.5 -222.5t163 -157t235.5 -58.5h580v140h-580
q-112 0 -193.5 55.5t-113.5 143.5q-42 123 14 237t199 179l485 232l45 -219q20 -99 98 -144.5t166 -45.5h107v140h-104q-55 0 -104.5 24.5t-62.5 91.5l-43 205zM881 -14h-172q-1 -70 0 -141h172q1 71 0 141z" />
    <glyph glyph-name="uniFE9F" unicode="&#x62c;" horiz-adv-x="1310" arabic-form="initial" 
d="M-54.5 98q-14.5 -28 0 -56t54.5 -42h216q203 0 396.5 59.5t327 129.5t251.5 144q41 27 46 28l-6 126q-12 0 -85 39t-221 122q-207 115 -290 158q-86 44 -177 34t-165.5 -71t-114.5 -164l-14 -33l123 -53l14 34q38 100 116 138t164 -6q12 -6 38 -20q370 -203 488 -253
q-13 -7 -46 -22q-133 -66 -255 -117t-279.5 -92t-310.5 -41h-216q-40 -14 -54.5 -42zM645 -367h-184v-150h184v150z" />
    <glyph glyph-name="uniFEA0" unicode="&#x62c;" horiz-adv-x="1385" arabic-form="medial" 
d="M-54.5 98q-14.5 -28 0 -56t54.5 -42h216q346 0 735 203l116 -112q36 -43 93 -67t121 -24h126v140h-126q-76 0 -133 44l-98 82q55 31 132 79q49 30 54 31l-5 111q-12 0 -85 39t-221 122q-207 115 -290 158q-86 44 -177 34t-165.5 -71t-114.5 -164l-14 -33l123 -53l14 34
q38 100 116 138t164 -6q12 -6 38 -20q370 -203 488 -253q-13 -7 -46 -22q-133 -66 -255 -117t-279.5 -92t-310.5 -41h-216q-40 -14 -54.5 -42zM645 -367h-184v-150h184v150z" />
    <glyph glyph-name="uniFEA2" unicode="&#x62d;" horiz-adv-x="1413" arabic-form="final" 
d="M1264 531l6 131q-8 0 -69 33.5t-191 106.5q-235 132 -329 182q-86 44 -177 34t-165.5 -71.5t-114.5 -163.5l-16 -37l122 -53l16 37q38 101 116.5 138.5t164.5 -5.5q23 -13 75 -42q149 -82 253 -137.5t178 -85.5l-711 -314q-126 -54 -201 -161.5t-75 -239.5
q0 -117 57.5 -215.5t156.5 -156.5t216 -58h610v139h-610q-93 0 -168.5 50t-108.5 134q-42 119 6.5 224.5t164.5 159.5l528 242l44 -212q20 -99 98.5 -144.5t165.5 -45.5h98v140h-95q-55 0 -104 24.5t-63 91.5l-41 196z" />
    <glyph glyph-name="uniFEA3" unicode="&#x62d;" horiz-adv-x="1310" arabic-form="initial" 
d="M-54.5 98q-14.5 -28 0 -56t54.5 -42h216q203 0 396.5 59.5t327 129.5t251.5 144q41 27 46 28l-6 126q-12 0 -85 39t-221 122q-207 115 -290 158q-86 44 -177 34t-165.5 -71t-114.5 -164l-14 -33l123 -53l14 34q38 100 116 138t164 -6q12 -6 38 -20q370 -203 488 -253
q-13 -7 -46 -22q-133 -66 -255 -117t-279.5 -92t-310.5 -41h-216q-40 -14 -54.5 -42z" />
    <glyph glyph-name="uniFEA4" unicode="&#x62d;" horiz-adv-x="1407" arabic-form="medial" 
d="M-54.5 98q-14.5 -28 0 -56t54.5 -42h216q346 0 735 203l116 -112q36 -43 93 -67t121 -24h126v140h-126q-76 0 -133 44l-98 82q55 31 132 79q49 30 54 31l-5 111q-12 0 -85 39t-221 122q-207 115 -290 158q-86 44 -177 34t-165.5 -71t-114.5 -164l-14 -33l123 -53l14 34
q38 100 116 138t164 -6q12 -6 38 -20q370 -203 488 -253q-13 -7 -46 -22q-133 -66 -255 -117t-279.5 -92t-310.5 -41h-216q-40 -14 -54.5 -42z" />
    <glyph glyph-name="uniFEA6" unicode="&#x62e;" horiz-adv-x="1413" arabic-form="final" 
d="M1264 531l6 131q-8 0 -69 33.5t-191 106.5q-235 132 -329 182q-86 44 -177 34t-165.5 -71.5t-114.5 -163.5l-16 -37l122 -53l16 37q38 101 116.5 138.5t164.5 -5.5q23 -13 75 -42q149 -82 253 -137.5t178 -85.5l-711 -314q-126 -54 -201 -161.5t-75 -239.5
q0 -117 57.5 -215.5t156.5 -156.5t216 -58h610v139h-610q-93 0 -168.5 50t-108.5 134q-42 119 6.5 224.5t164.5 159.5l528 242l44 -212q20 -99 98.5 -144.5t165.5 -45.5h98v140h-95q-55 0 -104 24.5t-63 91.5l-41 196zM697 1489h-184v-150h184v150z" />
    <glyph glyph-name="uniFEA7" unicode="&#x62e;" horiz-adv-x="1310" arabic-form="initial" 
d="M-54.5 98q-14.5 -28 0 -56t54.5 -42h216q203 0 396.5 59.5t327 129.5t251.5 144q41 27 46 28l-6 126q-12 0 -85 39t-221 122q-207 115 -290 158q-86 44 -177 34t-165.5 -71t-114.5 -164l-14 -33l123 -53l14 34q38 100 116 138t164 -6q12 -6 38 -20q370 -203 488 -253
q-13 -7 -46 -22q-133 -66 -255 -117t-279.5 -92t-310.5 -41h-216q-40 -14 -54.5 -42zM651 1311h-184v-150h184v150z" />
    <glyph glyph-name="uniFEA8" unicode="&#x62e;" horiz-adv-x="1385" arabic-form="medial" 
d="M-54.5 98q-14.5 -28 0 -56t54.5 -42h216q346 0 735 203l116 -112q36 -43 93 -67t121 -24h126v140h-126q-76 0 -133 44l-98 82q55 31 132 79q49 30 54 31l-5 111q-12 0 -85 39t-221 122q-207 115 -290 158q-86 44 -177 34t-165.5 -71t-114.5 -164l-14 -33l123 -53l14 34
q38 100 116 138t164 -6q12 -6 38 -20q370 -203 488 -253q-13 -7 -46 -22q-133 -66 -255 -117t-279.5 -92t-310.5 -41h-216q-40 -14 -54.5 -42zM651 1311h-184v-150h184v150z" />
    <glyph glyph-name="uniFEAA" unicode="&#x62f;" horiz-adv-x="1177" arabic-form="final" 
d="M571 0q110 0 185.5 60.5t94.5 152.5l34 -62q43 -71 113.5 -111t154.5 -40h23v140h-23q-57 0 -103 26.5t-73 76.5l-391 720l-117 -64l283 -521q29 -53 17.5 -110.5t-56 -96t-106.5 -38.5h-522v-133h486z" />
    <glyph glyph-name="uniFEAC" unicode="&#x630;" horiz-adv-x="1155" arabic-form="final" 
d="M571 0q110 0 185.5 60.5t94.5 152.5l34 -62q43 -71 113.5 -111t154.5 -40h23v140h-23q-57 0 -103 26.5t-73 76.5l-391 720l-117 -64l283 -521q29 -53 17.5 -110.5t-56 -96t-106.5 -38.5h-522v-133h486zM650 1365h-184v-150h184v150z" />
    <glyph glyph-name="uniFEAE" unicode="&#x631;" horiz-adv-x="885" arabic-form="final" 
d="M707.5 45q73.5 -45 160.5 -45h17v140h-17q-75 0 -139 38t-101.5 102.5t-37.5 141.5v229h-133v-640q0 -108 -54 -205t-145.5 -155t-198.5 -58h-63v-140h63q143 0 265 75t194 200.5t72 267.5v170q44 -76 117.5 -121z" />
    <glyph glyph-name="uniFEB0" unicode="&#x632;" horiz-adv-x="885" arabic-form="final" 
d="M707.5 45q73.5 -45 160.5 -45h17v140h-17q-75 0 -139 38t-101.5 102.5t-37.5 141.5v229h-133v-640q0 -108 -54 -205t-145.5 -155t-198.5 -58h-63v-140h63q143 0 265 75t194 200.5t72 267.5v170q44 -76 117.5 -121zM615 1108h-184v-150h184v150z" />
    <glyph glyph-name="uniFEB2" unicode="&#x633;" horiz-adv-x="2773" arabic-form="final" 
d="M2773 140h-55q-61 0 -112.5 30t-81.5 81.5t-30 112.5v287h-133v-287q0 -93 -57.5 -158.5t-149.5 -65.5h-29q-91 0 -149 65.5t-58 158.5v287h-132v-287q0 -62 -26.5 -113t-73.5 -81t-107 -30h-29q-54 0 -102 30t-76.5 81.5t-28.5 112.5v287h-133v-640q0 -112 -49 -207.5
t-142 -153.5t-221 -58h-97q-127 0 -220.5 58t-142.5 153.5t-49 207.5v435h-133v-449q0 -146 67 -271t191 -199.5t287 -74.5h97q161 0 284 73t190.5 194.5t69.5 265.5v132q34 -53 89 -85t119 -32h29q93 0 163.5 48.5t109.5 131.5q39 -83 109.5 -131.5t163.5 -48.5h29
q96 0 167 49t109 132q40 -82 116 -131.5t172 -49.5h55v140z" />
    <glyph glyph-name="uniFEB3" unicode="&#x633;" horiz-adv-x="1720" arabic-form="initial" 
d="M-54.5 98q-14.5 -28 0 -56t54.5 -42h55q98 0 174 49.5t116 133.5q39 -83 112 -133t162 -50h29q93 0 164 48.5t109 131.5q39 -83 109.5 -131.5t163.5 -48.5h29q97 0 174.5 47.5t121.5 129.5t44 180v322h-132v-315q0 -93 -58 -158.5t-150 -65.5h-29q-91 0 -148.5 65.5
t-57.5 158.5v287h-133v-287q0 -62 -26 -113t-73.5 -81t-107.5 -30h-29q-54 0 -102 30t-76.5 81.5t-28.5 112.5v287h-133v-287q0 -61 -30 -112.5t-81.5 -81.5t-112.5 -30h-55q-40 -14 -54.5 -42z" />
    <glyph glyph-name="uniFEB4" unicode="&#x633;" horiz-adv-x="1843" arabic-form="medial" 
d="M-54.5 98q-14.5 -28 0 -56t54.5 -42h55q98 0 174 49.5t116 133.5q39 -83 112 -133t162 -50h29q93 0 164 48.5t109 131.5q39 -83 109.5 -131.5t163.5 -48.5h29q96 0 167 48.5t108 131.5q40 -82 116.5 -131t172.5 -49h56v140h-56q-61 0 -112.5 30t-81.5 81.5t-30 112.5v287
h-132v-287q0 -93 -58 -158.5t-150 -65.5h-29q-91 0 -148.5 65.5t-57.5 158.5v287h-133v-287q0 -62 -26 -113t-73.5 -81t-107.5 -30h-29q-54 0 -102 30t-76.5 81.5t-28.5 112.5v287h-133v-287q0 -61 -30 -112.5t-81.5 -81.5t-112.5 -30h-55q-40 -14 -54.5 -42z" />
    <glyph glyph-name="uniFEB6" unicode="&#x634;" horiz-adv-x="2774" arabic-form="final" 
d="M2773 140h-55q-61 0 -112.5 30t-81.5 81.5t-30 112.5v287h-133v-287q0 -93 -57.5 -158.5t-149.5 -65.5h-29q-91 0 -149 65.5t-58 158.5v287h-132v-287q0 -62 -26.5 -113t-73.5 -81t-107 -30h-29q-54 0 -102 30t-76.5 81.5t-28.5 112.5v287h-133v-640q0 -112 -49 -207.5
t-142 -153.5t-221 -58h-97q-127 0 -220.5 58t-142.5 153.5t-49 207.5v435h-133v-449q0 -146 67 -271t191 -199.5t287 -74.5h97q161 0 284 73t190.5 194.5t69.5 265.5v132q34 -53 89 -85t119 -32h29q93 0 163.5 48.5t109.5 131.5q39 -83 109.5 -131.5t163.5 -48.5h29
q96 0 167 49t109 132q40 -82 116 -131.5t172 -49.5h55v140zM1861 1091q-137 -1 -281 0q-1 -66 0 -133h281v133zM2124 1091q-144 -1 -281 0v-133h281q1 67 0 133zM1942 1395h-180v-148h180v148z" />
    <glyph glyph-name="uniFEB7" unicode="&#x634;" horiz-adv-x="1720" arabic-form="initial" 
d="M-54.5 98q-14.5 -28 0 -56t54.5 -42h55q98 0 174 49.5t116 133.5q39 -83 112 -133t162 -50h29q93 0 164 48.5t109 131.5q39 -83 109.5 -131.5t163.5 -48.5h29q97 0 174.5 47.5t121.5 129.5t44 180v322h-132v-315q0 -93 -58 -158.5t-150 -65.5h-29q-91 0 -148.5 65.5
t-57.5 158.5v287h-133v-287q0 -62 -26 -113t-73.5 -81t-107.5 -30h-29q-54 0 -102 30t-76.5 81.5t-28.5 112.5v287h-133v-287q0 -61 -30 -112.5t-81.5 -81.5t-112.5 -30h-55q-40 -14 -54.5 -42zM930 1091q-137 -1 -281 0q-1 -66 0 -133h281v133zM1193 1091q-144 -1 -281 0
v-133h281q1 67 0 133zM1011 1395h-180v-148h180v148z" />
    <glyph glyph-name="uniFEB8" unicode="&#x634;" horiz-adv-x="1843" arabic-form="medial" 
d="M-54.5 98q-14.5 -28 0 -56t54.5 -42h55q98 0 174 49.5t116 133.5q39 -83 112 -133t162 -50h29q93 0 164 48.5t109 131.5q39 -83 109.5 -131.5t163.5 -48.5h29q96 0 167 48.5t108 131.5q40 -82 116.5 -131t172.5 -49h56v140h-56q-61 0 -112.5 30t-81.5 81.5t-30 112.5v287
h-132v-287q0 -93 -58 -158.5t-150 -65.5h-29q-91 0 -148.5 65.5t-57.5 158.5v287h-133v-287q0 -62 -26 -113t-73.5 -81t-107.5 -30h-29q-54 0 -102 30t-76.5 81.5t-28.5 112.5v287h-133v-287q0 -61 -30 -112.5t-81.5 -81.5t-112.5 -30h-55q-40 -14 -54.5 -42zM930 1091
q-137 -1 -281 0q-1 -66 0 -133h281v133zM1193 1091q-144 -1 -281 0v-133h281q1 67 0 133zM1011 1395h-180v-148h180v148z" />
    <glyph glyph-name="uniFEBA" unicode="&#x635;" horiz-adv-x="2797" arabic-form="final" 
d="M2299 36.5q86 36.5 144 101.5q51 -40 97.5 -69t108.5 -49t136 -20h11v140h-11q-81 0 -139.5 25.5t-131.5 74.5q-1 2 -2 2q38 77 38 167q0 109 -47 204t-145 152.5t-242 52.5q-167 -6 -292.5 -138.5t-192 -273t-103.5 -252.5q-1 -3 -2 -4q-77 8 -130 67.5t-53 139.5v268
h-133v-614q0 -112 -49 -207.5t-142 -153.5t-221 -58h-97q-127 0 -220.5 58t-142.5 153.5t-49 207.5v435h-132l-1 -449q0 -146 67 -271t191 -199.5t287 -74.5h97q163 0 287 74.5t190.5 199t67.5 269.5v134q45 -59 113 -94t146 -35h509q102 0 188 36.5zM1661 140q1 2 3 8
q69 184 180 357.5t277 179.5q140 5 218.5 -70t78.5 -206q0 -81 -40.5 -142t-110 -94t-156.5 -33h-450z" />
    <glyph glyph-name="uniFEBB" unicode="&#x635;" horiz-adv-x="1745" arabic-form="initial" 
d="M713 140q0 2 3 8q69 184 180 357.5t276 179.5q140 5 218.5 -70t78.5 -206q0 -81 -40 -142t-110 -94t-156 -33h-450zM-54.5 98q-14.5 -28 0 -56t54.5 -42h38q97 0 173.5 50t116.5 133q40 -83 116.5 -133t173.5 -50h545q125 0 225 53t157 146.5t57 209.5q0 109 -47 204
t-145 152.5t-243 52.5q-166 -6 -291.5 -138.5t-192 -273t-104.5 -252.5q-1 -3 -1 -4q-78 8 -131 67.5t-53 139.5v294h-132v-287q0 -61 -30.5 -112.5t-81.5 -81.5t-112 -30h-38q-40 -14 -54.5 -42z" />
    <glyph glyph-name="uniFEBC" unicode="&#x635;" horiz-adv-x="1848" arabic-form="medial" 
d="M713 140q0 2 3 8q69 184 180 357.5t276 179.5q140 5 218.5 -70t78.5 -206q0 -81 -40 -142t-110 -94t-156 -33h-450zM-54.5 98q-14.5 -28 0 -56t54.5 -42h38q97 0 173.5 50t116.5 133q40 -83 116.5 -133t173.5 -50h545q102 0 187.5 36.5t144.5 101.5q81 -64 158.5 -101
t183.5 -37h11v140h-11q-82 0 -141 26t-133 76q39 77 39 167q0 109 -47 204t-145 152.5t-243 52.5q-166 -6 -291.5 -138.5t-192 -273t-104.5 -252.5q-1 -3 -1 -4q-78 8 -131 67.5t-53 139.5v294h-132v-287q0 -61 -30.5 -112.5t-81.5 -81.5t-112 -30h-38q-40 -14 -54.5 -42z
" />
    <glyph glyph-name="uniFEBE" unicode="&#x636;" horiz-adv-x="2796" arabic-form="final" 
d="M2299 36.5q86 36.5 144 101.5q51 -40 97.5 -69t108.5 -49t136 -20h11v140h-11q-81 0 -139.5 25.5t-131.5 74.5q-1 2 -2 2q38 77 38 167q0 109 -47 204t-145 152.5t-242 52.5q-167 -6 -292.5 -138.5t-192 -273t-103.5 -252.5q-1 -3 -2 -4q-77 8 -130 67.5t-53 139.5v268
h-133v-614q0 -112 -49 -207.5t-142 -153.5t-221 -58h-97q-127 0 -220.5 58t-142.5 153.5t-49 207.5v435h-132l-1 -449q0 -146 67 -271t191 -199.5t287 -74.5h97q163 0 287 74.5t190.5 199t67.5 269.5v134q45 -59 113 -94t146 -35h509q102 0 188 36.5zM1661 140q1 2 3 8
q69 184 180 357.5t277 179.5q140 5 218.5 -70t78.5 -206q0 -81 -40.5 -142t-110 -94t-156.5 -33h-450zM2138 1258h-184v-150h184v150z" />
    <glyph glyph-name="uniFEBF" unicode="&#x636;" horiz-adv-x="1745" arabic-form="initial" 
d="M713 140q0 2 3 8q69 184 180 357.5t276 179.5q140 5 218.5 -70t78.5 -206q0 -81 -40 -142t-110 -94t-156 -33h-450zM-54.5 98q-14.5 -28 0 -56t54.5 -42h38q97 0 173.5 50t116.5 133q40 -83 116.5 -133t173.5 -50h545q125 0 225 53t157 146.5t57 209.5q0 109 -47 204
t-145 152.5t-243 52.5q-166 -6 -291.5 -138.5t-192 -273t-104.5 -252.5q-1 -3 -1 -4q-78 8 -131 67.5t-53 139.5v294h-132v-287q0 -61 -30.5 -112.5t-81.5 -81.5t-112 -30h-38q-40 -14 -54.5 -42zM1213 1258h-184v-150h184v150z" />
    <glyph glyph-name="uniFEC0" unicode="&#x636;" horiz-adv-x="1848" arabic-form="medial" 
d="M713 140q0 2 3 8q69 184 180 357.5t276 179.5q140 5 218.5 -70t78.5 -206q0 -81 -40 -142t-110 -94t-156 -33h-450zM-54.5 98q-14.5 -28 0 -56t54.5 -42h38q97 0 173.5 50t116.5 133q40 -83 116.5 -133t173.5 -50h545q102 0 187.5 36.5t144.5 101.5q81 -64 158.5 -101
t183.5 -37h11v140h-11q-82 0 -141 26t-133 76q39 77 39 167q0 109 -47 204t-145 152.5t-243 52.5q-166 -6 -291.5 -138.5t-192 -273t-104.5 -252.5q-1 -3 -1 -4q-78 8 -131 67.5t-53 139.5v294h-132v-287q0 -61 -30.5 -112.5t-81.5 -81.5t-112 -30h-38q-40 -14 -54.5 -42z
M1213 1258h-184v-150h184v150z" />
    <glyph glyph-name="uniFEC2" unicode="&#x637;" horiz-adv-x="1621" arabic-form="final" 
d="M1621 140h-11q-78 0 -135 26t-125 74q39 79 39 169q0 109 -47.5 204.5t-145.5 153t-242 51.5q-232 -9 -426 -346l5 452v501h-132v-1168q-29 -72 -42 -117h-202v-140h793q100 0 184 35t141 98q79 -61 155.5 -97t179.5 -36h11v140zM499 140q1 2 3 8q40 105 95.5 217
t150.5 214t211 106q140 5 218.5 -70t78.5 -206q0 -81 -40 -142t-110 -94t-156 -33h-451z" />
    <glyph glyph-name="uniFEC3" unicode="&#x637;" horiz-adv-x="1442" arabic-form="initial" 
d="M435 469l6 455v501h-133v-1178q-30 -74 -38 -107h-270q-39 -14 -54 -42t0 -56t54 -42h861q124 0 224.5 53t157 146.5t56.5 209.5q0 109 -47.5 204.5t-145.5 153t-241 51.5v0q-234 -9 -430 -349zM1126.5 267q-40.5 -61 -110 -94t-155.5 -33h-451q1 2 3 8q69 183 180 357
t277 180q140 5 218.5 -70t78.5 -206v0q0 -81 -40.5 -142z" />
    <glyph glyph-name="uniFEC4" unicode="&#x637;" horiz-adv-x="1528" arabic-form="medial" 
d="M1384.5 166q-56.5 26 -124.5 74q41 79 40 169q0 109 -48 204.5t-146 153t-241 51.5q-234 -9 -430 -349l6 455v501h-133v-1178q-30 -74 -38 -107h-270q-39 -14 -54 -42t0 -56t54 -42h861q99 0 182.5 35t140.5 97q80 -61 155.5 -96.5t177.5 -35.5h11v140h-11
q-76 0 -132.5 26zM1126.5 267q-40.5 -61 -110 -94t-155.5 -33h-451q1 2 3 8q69 184 180 357.5t277 179.5q140 5 218.5 -70t78.5 -206q0 -81 -40.5 -142z" />
    <glyph glyph-name="uniFEC6" unicode="&#x638;" horiz-adv-x="1621" arabic-form="final" 
d="M1621 140h-11q-78 0 -135 26t-125 74q39 79 39 169q0 109 -47.5 204.5t-145.5 153t-242 51.5q-232 -9 -426 -346l5 452v501h-132v-1168q-29 -72 -42 -117h-202v-140h793q100 0 184 35t141 98q79 -61 155.5 -97t179.5 -36h11v140zM499 140q1 2 3 8q40 105 95.5 217
t150.5 214t211 106q140 5 218.5 -70t78.5 -206q0 -81 -40 -142t-110 -94t-156 -33h-451zM1086 1258h-184v-150h184v150z" />
    <glyph glyph-name="uniFEC7" unicode="&#x638;" horiz-adv-x="1442" arabic-form="initial" 
d="M435 469l6 455v501h-133v-1178q-30 -74 -38 -107h-270q-39 -14 -54 -42t0 -56t54 -42h861q124 0 224.5 53t157 146.5t56.5 209.5q0 109 -47.5 204.5t-145.5 153t-241 51.5v0q-234 -9 -430 -349zM1126.5 267q-40.5 -61 -110 -94t-155.5 -33h-451q1 2 3 8q69 183 180 357
t277 180q140 5 218.5 -70t78.5 -206v0q0 -81 -40.5 -142zM987 1258h-184v-150h184v150z" />
    <glyph glyph-name="uniFEC8" unicode="&#x638;" horiz-adv-x="1528" arabic-form="medial" 
d="M1384.5 166q-56.5 26 -124.5 74q41 79 40 169q0 109 -48 204.5t-146 153t-241 51.5q-234 -9 -430 -349l6 455v501h-133v-1178q-30 -74 -38 -107h-270q-39 -14 -54 -42t0 -56t54 -42h861q99 0 182.5 35t140.5 97q80 -61 155.5 -96.5t177.5 -35.5h11v140h-11
q-76 0 -132.5 26zM1126.5 267q-40.5 -61 -110 -94t-155.5 -33h-451q1 2 3 8q69 184 180 357.5t277 179.5q140 5 218.5 -70t78.5 -206q0 -81 -40.5 -142zM987 1258h-184v-150h184v150z" />
    <glyph glyph-name="uniFECA" unicode="&#x639;" horiz-adv-x="1323" arabic-form="final" 
d="M1032 -408h-410q-92 0 -170.5 40t-125.5 108t-47 149q0 101 70 169.5t218 135.5q44 20 73 35q3 -5 11 -14q51 -61 98.5 -104.5t121.5 -77t169 -33.5h283v140h-265q-105 0 -166 34.5t-110 85.5q-7 8 -10 11l316 367q56 67 49.5 150.5t-65.5 142.5t-147 59h-656l-55 -131
l339 -532q-213 -84 -310 -191t-97 -247q0 -117 65 -217.5t174.5 -159.5t236.5 -59h410v139zM914 853q39 0 65 -25t28 -61.5t-24 -66.5l-298 -351l-325 504h554z" />
    <glyph glyph-name="uniFECB" unicode="&#x639;" horiz-adv-x="1119" arabic-form="initial" 
d="M-54.5 98q-14.5 -28 0 -56t54.5 -42h964v140h-343q-80 2 -139.5 39t-91.5 99t-32 134q0 125 70.5 207.5t190.5 87.5q80 2 143.5 -21t124.5 -64l25 136q-133 89 -304 82q-111 -5 -198 -61t-136 -151.5t-49 -215.5q0 -83 37.5 -157t103.5 -115h-366q-40 -14 -54.5 -42z" />
    <glyph glyph-name="uniFECC" unicode="&#x639;" horiz-adv-x="1274" arabic-form="medial" 
d="M865 663q39 0 65 -25t28 -61.5t-24 -66.5l-298 -351l-324 504h553zM-54.5 98q-14.5 -28 0 -56t54.5 -42h491q58 0 95.5 11t44.5 24q6 -13 44 -24t95 -11h504v140h-479q-16 0 -21 -4l265 312q56 67 49.5 150.5t-65.5 142.5t-147 59h-656l-55 -132l338 -531q-4 3 -17 3
h-486q-40 -14 -54.5 -42z" />
    <glyph glyph-name="uniFECE" unicode="&#x63a;" horiz-adv-x="1323" arabic-form="final" 
d="M1032 -408h-410q-92 0 -170.5 40t-125.5 108t-47 149q0 101 70 169.5t218 135.5q44 20 73 35q3 -5 11 -14q51 -61 98.5 -104.5t121.5 -77t169 -33.5h283v140h-265q-105 0 -166 34.5t-110 85.5q-7 8 -10 11l316 367q56 67 49.5 150.5t-65.5 142.5t-147 59h-656l-55 -131
l339 -532q-213 -84 -310 -191t-97 -247q0 -117 65 -217.5t174.5 -159.5t236.5 -59h410v139zM914 853q39 0 65 -25t28 -61.5t-24 -66.5l-298 -351l-325 504h554zM779 1506h-184v-150h184v150z" />
    <glyph glyph-name="uniFECF" unicode="&#x63a;" horiz-adv-x="1106" arabic-form="initial" 
d="M-54.5 98q-14.5 -28 0 -56t54.5 -42h964v140h-343q-80 2 -139.5 39t-91.5 99t-32 134q0 125 70.5 207.5t190.5 87.5q80 2 143.5 -21t124.5 -64l25 136q-133 89 -304 82q-111 -5 -198 -61t-136 -151.5t-49 -215.5q0 -83 37.5 -157t103.5 -115h-366q-40 -14 -54.5 -42z
M695 1283h-184v-150h184v150z" />
    <glyph glyph-name="uniFED0" unicode="&#x63a;" horiz-adv-x="1274" arabic-form="medial" 
d="M865 663q39 0 65 -25t28 -61.5t-24 -66.5l-298 -351l-324 504h553zM-54.5 98q-14.5 -28 0 -56t54.5 -42h491q58 0 95.5 11t44.5 24q6 -13 44 -24t95 -11h504v140h-479q-16 0 -21 -4l265 312q56 67 49.5 150.5t-65.5 142.5t-147 59h-656l-55 -132l338 -531q-4 3 -17 3
h-486q-40 -14 -54.5 -42zM732 1256h-184v-150h184v150z" />
    <glyph glyph-name="uniFED2" unicode="&#x641;" horiz-adv-x="1859" arabic-form="final" 
d="M1416 697.5q58 -27.5 92.5 -78.5t34.5 -117q0 -132 -81.5 -219.5t-171.5 -141.5q-89 54 -170.5 141.5t-81.5 219.5q0 66 34.5 117t92.5 78.5t125 27.5q68 0 126 -27.5zM1151 0q57 0 95 11t44 24q6 -13 44 -24t96 -11h430v140h-387q80 60 141.5 151t61.5 211
q0 99 -50.5 180.5t-139 129t-196.5 47.5q-107 0 -195.5 -47.5t-139.5 -129t-51 -180.5q0 -120 61.5 -211t142.5 -151h-595q-61 0 -112 30t-81 81.5t-30 112.5v315h-133v-329q0 -96 48 -176t129.5 -127t178.5 -47h638zM1382 1284h-184v-150h184v150z" />
    <glyph glyph-name="uniFED3" unicode="&#x641;" horiz-adv-x="1089" arabic-form="initial" 
d="M511 524q-75 0 -118.5 13.5t-65 49.5t-21.5 104q0 73 30.5 141t86.5 111t130 43q84 0 139.5 -47t81.5 -118t26 -144v-153h-289zM-54.5 98q-14.5 -28 0 -56t54.5 -42h531q107 0 199.5 49.5t147.5 132.5t55 177v318q0 121 -49 222t-135.5 160.5t-195.5 59.5
q-107 0 -194 -61.5t-136.5 -161.5t-49.5 -211q0 -156 73.5 -224t243.5 -68h310v-34q0 -58 -37 -108.5t-98.5 -80.5t-133.5 -30h-531q-40 -14 -54.5 -42zM645 1514h-184v-150h184v150z" />
    <glyph glyph-name="uniFED4" unicode="&#x641;" horiz-adv-x="1139" arabic-form="medial" 
d="M695 697.5q58 -27.5 92.5 -78.5t34.5 -117q0 -132 -81.5 -219.5t-171.5 -141.5q-89 54 -170.5 141.5t-81.5 219.5q0 66 34.5 117t92.5 78.5t125 27.5q68 0 126 -27.5zM-54.5 98q-14.5 -28 0 -56t54.5 -42h430q57 0 95 11t44 24q7 -13 44.5 -24t95.5 -11h430v140h-387
q81 60 142 151t61 211q0 99 -50.5 180.5t-139 129t-196.5 47.5q-107 0 -195.5 -47.5t-139 -129t-50.5 -180.5q0 -120 61 -211t142 -151h-387q-40 -14 -54.5 -42zM661 1284h-184v-150h184v150z" />
    <glyph glyph-name="uniFED6" unicode="&#x642;" horiz-adv-x="1721" arabic-form="final" 
d="M1113 140q-124 0 -185.5 57.5t-61.5 165.5q0 78 28.5 143.5t84.5 105t134 39.5q88 0 143.5 -43t79.5 -108.5t24 -136.5v-223h-247zM1720 140h-227v223q0 124 -48 219t-134 148t-198 53q-110 0 -196.5 -53.5t-135 -149.5t-48.5 -217q0 -171 96.5 -267t283.5 -96h246
q0 -191 -116 -299t-321 -108h-221q-127 0 -220.5 57.5t-142 153t-48.5 207.5l-1 435h-133l1 -449q0 -146 66.5 -270.5t190.5 -199t287 -74.5h221q165 0 293.5 68t201.5 192t75 287h228v140zM1127 1191q-137 -1 -281 0q-1 -66 0 -133h281v133zM1390 1191q-144 -1 -281 0v-133
h281q1 67 0 133z" />
    <glyph glyph-name="uniFED7" unicode="&#x642;" horiz-adv-x="1089" arabic-form="initial" 
d="M511 524q-75 0 -118.5 13.5t-65 49.5t-21.5 104q0 73 30.5 141t86.5 111t130 43q84 0 139.5 -47t81.5 -118t26 -144v-153h-289zM-54.5 98q-14.5 -28 0 -56t54.5 -42h531q107 0 199.5 49.5t147.5 132.5t55 177v318q0 121 -49 222t-135.5 160.5t-195.5 59.5
q-107 0 -194 -61.5t-136.5 -161.5t-49.5 -211q0 -156 73.5 -224t243.5 -68h310v-34q0 -58 -37 -108.5t-98.5 -80.5t-133.5 -30h-531q-40 -14 -54.5 -42zM562 1500q-137 -1 -281 0q-1 -66 0 -133h281v133zM825 1500q-144 -1 -281 0v-133h281q1 67 0 133z" />
    <glyph glyph-name="uniFED8" unicode="&#x642;" horiz-adv-x="1139" arabic-form="medial" 
d="M695 697.5q58 -27.5 92.5 -78.5t34.5 -117q0 -132 -81.5 -219.5t-171.5 -141.5q-89 54 -170.5 141.5t-81.5 219.5q0 66 34.5 117t92.5 78.5t125 27.5q68 0 126 -27.5zM-54.5 98q-14.5 -28 0 -56t54.5 -42h430q57 0 95 11t44 24q7 -13 44.5 -24t95.5 -11h430v140h-387
q81 60 142 151t61 211q0 99 -50.5 180.5t-139 129t-196.5 47.5q-107 0 -195.5 -47.5t-139 -129t-50.5 -180.5q0 -120 61 -211t142 -151h-387q-40 -14 -54.5 -42zM578 1277q-137 -1 -281 0q-1 -66 0 -133h281v133zM841 1277q-144 -1 -281 0v-133h281q1 67 0 133z" />
    <glyph glyph-name="uniFEDA" unicode="&#x643;" horiz-adv-x="1825" arabic-form="final" 
d="M1357 50q76 50 116 133q40 -83 116.5 -133t174.5 -50h61v140h-61q-61 0 -112.5 30t-81.5 81.5t-30 112.5v1061h-133v-1061q0 -61 -30 -112.5t-81.5 -81.5t-112.5 -30h-670q-61 0 -112 30t-81 81.5t-30 112.5v315h-133v-329q0 -96 48 -176t129.5 -127t178.5 -47h670
q98 0 174 50zM642 612l441 168l-30 78l-157 -60q-80 -1 -118.5 38t-37.5 96q0 53 34 96t89 44q34 0 61 -10t59 -27q5 -3 7 -4l18 81q-32 19 -66 31t-79 12q-61 0 -108 -32.5t-73 -84t-26 -106.5q0 -62 33 -111.5t87 -68.5l-163 -63z" />
    <glyph glyph-name="uniFEDB" unicode="&#x643;" horiz-adv-x="1120" arabic-form="initial" 
d="M-54.5 98q-14.5 -28 0 -56t54.5 -42h658q96 0 168 50.5t106.5 131t21 167.5t-78.5 155l-520 545l607 231l-46 125l-701 -268v-133l557 -584q48 -51 45.5 -117.5t-49 -114.5t-116.5 -48h-652q-40 -14 -54.5 -42z" />
    <glyph glyph-name="uniFEDC" unicode="&#x643;" horiz-adv-x="1314" arabic-form="medial" 
d="M-54.5 98q-14.5 -28 0 -56t54.5 -42h623q87 0 153.5 38t103 99.5t37.5 129.5l166 -174q43 -45 99.5 -69t117.5 -24h15v140h-15q-37 0 -70 13.5t-57 37.5l-818 858l607 231l-46 125l-701 -268v-133l563 -590q44 -51 39.5 -116.5t-50.5 -111.5t-115 -46h-652
q-40 -14 -54.5 -42z" />
    <glyph glyph-name="uniFEDE" unicode="&#x644;" horiz-adv-x="1608" arabic-form="final" 
d="M798 -548q163 0 286.5 74t190.5 198t68 270v132q38 -58 96.5 -92.5t127.5 -34.5h41v140h-41q-61 0 -112.5 30t-81.5 81.5t-30 112.5v1062h-133v-1414q0 -112 -49 -207.5t-142 -153.5t-221 -58h-97q-127 0 -220.5 58t-142.5 153.5t-49 207.5l1 429h-133v-443
q0 -146 66.5 -271t190.5 -199.5t287 -74.5h97z" />
    <glyph glyph-name="uniFEDF" unicode="&#x644;" horiz-adv-x="640" arabic-form="initial" 
d="M-54.5 98q-14.5 -28 0 -56t54.5 -42h93q97 0 179 48t129.5 130t47.5 179v1068h-132v-1061q0 -61 -30.5 -112.5t-81.5 -81.5t-112 -30h-93q-40 -14 -54.5 -42z" />
    <glyph glyph-name="uniFEE0" unicode="&#x644;" horiz-adv-x="715" arabic-form="medial" 
d="M-54.5 98q-14.5 -28 0 -56t54.5 -42h93q97 0 173.5 50t116.5 133q40 -83 116.5 -133t173.5 -50h42v140h-42q-61 0 -112 30t-81.5 81.5t-30.5 112.5v1061h-132v-1061q0 -61 -30.5 -112.5t-81.5 -81.5t-112 -30h-93q-40 -14 -54.5 -42z" />
    <glyph glyph-name="uniFEE2" unicode="&#x645;" horiz-adv-x="1656" arabic-form="final" 
d="M1656 140h-47q-60 0 -111.5 30.5t-82.5 82t-31 111.5v29q-4 192 -106 301.5t-278 110.5h-436q-111 0 -204.5 -54.5t-148 -148t-54.5 -204.5v-950h133v950q0 75 36.5 138t100 100t137.5 37h58q-2 -116 -2 -280q0 -123 46.5 -216.5t132 -145t200.5 -51.5q111 0 195 52.5
t125 151.5q40 -83 116.5 -133.5t173.5 -50.5h47v140zM1184.5 597q65.5 -75 67.5 -204q0 -130 -70 -205t-183 -75q-90 0 -146.5 42t-81.5 105.5t-25 132.5v280h253q120 -1 185.5 -76z" />
    <glyph glyph-name="uniFEE3" unicode="&#x645;" horiz-adv-x="1185" arabic-form="initial" 
d="M875 241.5q-35 -64.5 -93 -96.5t-125 -32q-90 0 -146.5 43.5t-81.5 108.5t-25 135q0 133 67.5 209.5t185.5 76.5q119 0 185 -78t68 -208v0q0 -94 -35 -158.5zM451.5 765q-87.5 -54 -133.5 -149t-47 -216q0 -11 2 -32v-1q-3 -96 -67 -160t-159 -67h-47q-40 -14 -54 -42
t0 -56t54 -42h47q97 0 174.5 51t116.5 138q42 -98 124 -153.5t195 -55.5q108 0 196.5 51t139.5 146.5t49 222.5q-4 191 -106 303t-279 116v0q-118 0 -205.5 -54z" />
    <glyph glyph-name="uniFEE4" unicode="&#x645;" horiz-adv-x="1313" arabic-form="medial" 
d="M875 241.5q-35 -64.5 -93 -96.5t-125 -32q-90 0 -146.5 43.5t-81.5 109t-25 134.5q0 133 67.5 209.5t185.5 76.5q119 0 185 -78t68 -208v0q0 -94 -35 -158.5zM1154.5 171q-51.5 31 -82.5 83t-31 113q1 11 1 33q-4 191 -106 303t-279 116q-118 0 -205.5 -55t-133.5 -150.5
t-47 -213.5q0 -11 2 -32v-1q-3 -96 -66.5 -160t-159.5 -67h-47q-40 -14 -54 -42t0 -56t54 -42h47q97 0 174.5 51t116.5 138q42 -98 124 -153.5t195 -55.5q109 0 192.5 54t126.5 153q40 -86 117.5 -136.5t173.5 -50.5h47v140h-47q-61 0 -112.5 31z" />
    <glyph glyph-name="uniFEE6" unicode="&#x646;" horiz-adv-x="1608" arabic-form="final" 
d="M798 -548q163 0 286.5 74t190.5 198t68 270v132q37 -59 96 -93t128 -34h41v140h-41q-61 0 -112.5 30t-81.5 81.5t-30 112.5v262h-133v-614q0 -112 -49 -207.5t-142 -153.5t-221 -58h-97q-127 0 -220.5 58t-142.5 153.5t-49 207.5l1 435h-133v-449q0 -146 66.5 -271
t190.5 -199.5t287 -74.5h97zM778 858h-184v-150h184v150z" />
    <glyph glyph-name="uniFEE7" unicode="&#x646;" horiz-adv-x="722" arabic-form="initial" 
d="M-54.5 98q-14.5 -28 0 -56t54.5 -42h208q97 0 179 47t130 127t48 176v329h-133v-315q0 -61 -30 -112.5t-81.5 -81.5t-112.5 -30h-208q-40 -14 -54.5 -42zM451 1135h-184v-150h184v150z" />
    <glyph glyph-name="uniFEE8" unicode="&#x646;" horiz-adv-x="830" arabic-form="medial" 
d="M-54.5 98q-14.5 -28 0 -56t54.5 -42h208q98 0 174.5 50t115.5 133q40 -83 116.5 -133t174.5 -50h41v140h-41q-61 0 -112.5 30t-81.5 81.5t-30 112.5v287h-133v-287q0 -61 -30 -112.5t-81.5 -81.5t-112.5 -30h-208q-40 -14 -54.5 -42zM451 1094h-184v-150h184v150z" />
    <glyph glyph-name="uniFEEA" unicode="&#x647;" horiz-adv-x="1188" arabic-form="final" 
d="M969.5 56q77.5 -55 174.5 -56h44v140h-45q-72 1 -127 48t-65 119l-108 740l-132 -18l20 -141q-199 3 -335 -62.5t-199.5 -184t-53.5 -273.5q6 -110 74 -183.5t175.5 -98.5t230.5 5t233 116q36 -96 113.5 -151zM814 320q-126 -99 -251.5 -114.5t-203 34t-84.5 138.5
q-10 183 111.5 286t363.5 92z" />
    <glyph glyph-name="uniFEEB" unicode="&#x647;" horiz-adv-x="1591" arabic-form="initial" 
d="M695 697.5q58 -27.5 92.5 -78.5t34.5 -117q0 -132 -81.5 -219.5t-171.5 -141.5q-89 54 -170.5 141.5t-81.5 219.5q0 66 34.5 117t92.5 78.5t125 27.5q68 0 126 -27.5zM1151 0q87 0 157.5 45.5t108.5 119.5t32.5 158t-60.5 157l-369 485l-106 -80l364 -479
q39 -51 33 -114.5t-51.5 -108t-113.5 -44.5h-394q81 61 142 152t61 211q0 99 -50.5 180.5t-139 129t-196.5 47.5q-107 0 -195.5 -47.5t-139 -129t-50.5 -180.5q0 -120 61 -211t142 -151h-387q-40 -14 -54.5 -42t0 -56t54.5 -42h430q57 0 95 11t44 24q7 -13 44.5 -24
t95.5 -11h442z" />
    <glyph glyph-name="uniFEEC" unicode="&#x647;" horiz-adv-x="1255" arabic-form="medial" 
d="M323 396q0 137 64.5 212t187.5 74q128 0 190 -70t62 -178q0 -130 -77.5 -215.5t-216.5 -85.5h-209zM-54.5 98q-14.5 -28 0 -56t54.5 -42h191q0 -241 130 -385.5t409 -144.5l79 -1l120 293q50 114 137.5 176t180.5 62h8v140h-8q-83 0 -166 -39.5t-149.5 -108
t-102.5 -152.5l-99 -235q-213 2 -309.5 98t-96.5 297h209q128 0 225 57t150 156t52 222q-2 170 -102.5 273t-280.5 107q-119 1 -206.5 -51.5t-133.5 -148t-47 -219.5l1 -256h-191q-40 -14 -54.5 -42z" />
    <glyph glyph-name="uniFEEE" unicode="&#x648;" horiz-adv-x="1107" arabic-form="final" 
d="M536 140q-124 0 -185.5 57.5t-61.5 165.5q0 77 28.5 143t84.5 105t134 39q88 0 143.5 -43t79.5 -108t24 -136v-223h-247zM672 -302q-110 -105 -297 -105h-230v-140h230q152 0 274 65.5t192.5 189.5t73.5 292h192v140h-191v223q0 123 -48 218.5t-134 148.5t-198 53
q-110 0 -196.5 -53.5t-135 -149.5t-48.5 -217q0 -171 97 -267t283 -96h246q0 -197 -110 -302z" />
    <glyph glyph-name="uniFEF2" unicode="&#x64a;" horiz-adv-x="1670" arabic-form="final" 
d="M1671 140h-907v-133h413q53 -3 86 -46t32 -99q-1 -96 -59.5 -156.5t-148 -87t-188.5 -26.5h-203q-127 0 -219 56.5t-139.5 151t-47.5 205.5l-1 441h-132v-455q0 -145 65.5 -268.5t188 -197t285.5 -73.5h203q164 0 284.5 58t182 151t59.5 199q-3 91 -59 140h305v140z
M807 -818h-281q-1 -67 0 -133h281v133zM1070 -818h-281v-133h281q1 66 0 133z" />
    <glyph glyph-name=".notdef" horiz-adv-x="1300" 
d="M1164 0v1400h-1028v-1400h1028zM279 1257h742v-1114h-742v1114z" />
    <glyph glyph-name=".null" horiz-adv-x="0" 
 />
    <glyph glyph-name="uni000D" unicode="&#xd;" horiz-adv-x="0" 
 />
    <glyph glyph-name="space" unicode=" " horiz-adv-x="478" 
 />
    <glyph glyph-name="exclam" unicode="!" horiz-adv-x="516" 
d="M322 335l12 753v344h-150v-344l13 -753h125zM339 0v130h-163v-130h163z" />
    <glyph glyph-name="quotedbl" unicode="&#x22;" horiz-adv-x="707" 
d="M551 1050l26 382h-139v-382h113zM242 1050l27 382h-139v-382h112z" />
    <glyph glyph-name="numbersign" unicode="#" horiz-adv-x="1558" 
d="M340 0l126 408h436l-126 -408h133l126 408h289v111h-255l123 393h236v114h-202l127 406h-134l-128 -406h-433l127 406h-135l-128 -406h-288v-114h254l-121 -393h-237v-111h203l-126 -408h133zM623 912h434l-121 -393h-435z" />
    <glyph glyph-name="dollar" unicode="$" horiz-adv-x="1245" 
d="M826 582q141 -63 138 -212q-3 -272 -369 -274q-225 0 -431 72v-124q156 -61 390 -64v-171h137v178q424 41 425 383q0 108 -40.5 185t-143.5 132.5t-306 105.5q-194 48 -270 104.5t-76 168.5q1 258 365 267q209 5 385 -57v124q-112 40 -339 51v173h-137v-176
q-425 -42 -424 -383q0 -155 92.5 -242.5t329.5 -145.5q133 -32 274 -95z" />
    <glyph glyph-name="percent" unicode="%" horiz-adv-x="1573" 
d="M648 901.5q76 83.5 76 220.5q0 158 -75 245t-222 87t-222 -87t-75 -245q0 -137 76 -220.5t221 -83.5t221 83.5zM479 0l751 1432h-142l-752 -1432h143zM228 1125q0 120 48.5 176.5t150.5 56.5t150.5 -56.5t48.5 -176.5q0 -104 -48 -157.5t-151 -53.5q-199 0 -199 211z
M1366 61.5q76 83.5 76 220.5q0 158 -75 245t-222 87t-222.5 -87t-75.5 -245q0 -137 76.5 -220.5t221.5 -83.5t221 83.5zM946 284q0 121 48.5 177.5t150.5 56.5t150.5 -56.5t48.5 -177.5q0 -103 -48 -156.5t-151 -53.5q-199 0 -199 210z" />
    <glyph glyph-name="ampersand" unicode="&#x26;" horiz-adv-x="1473" 
d="M886 30q123 52 198 147l184 -187l91 85l-183 186q74 122 74 288v51h-121v-53q0 -109 -40 -196l-406 418q133 95 193.5 176.5t60.5 195.5q0 146 -88.5 230.5t-243.5 82.5q-333 -1 -338 -313q0 -91 61 -176.5t152 -173.5q-343 -171 -349 -438q-11 -370 469 -375
q163 0 286 52zM752.5 970q-56.5 -64 -164.5 -130q-87 82 -140 152.5t-53 143.5q0 91 52.5 148.5t159.5 57.5q103 0 152.5 -55.5t49.5 -150.5q0 -102 -56.5 -166zM274 337q-3 200 298 359l419 -430q-114 -173 -391 -173q-326 8 -326 244z" />
    <glyph glyph-name="quotesingle" unicode="'" horiz-adv-x="399" 
d="M242 1050l27 382h-139v-382h112z" />
    <glyph glyph-name="parenleft" unicode="(" horiz-adv-x="689" 
d="M603 -160q-323 280 -323 834q0 560 323 834h-172q-160 -134 -230.5 -360.5t-70.5 -473.5t70.5 -473t230.5 -361h172z" />
    <glyph glyph-name="parenright" unicode=")" horiz-adv-x="689" 
d="M258 -160q160 135 230.5 361t70.5 473t-70.5 473.5t-230.5 360.5h-172q323 -274 323 -834q0 -554 -323 -834h172z" />
    <glyph glyph-name="asterisk" unicode="*" horiz-adv-x="960" 
d="M480 1010l194 -254l93 73l-207 235l270 111l-49 105l-248 -119l8 271h-123l8 -271l-248 119l-48 -105l267 -110l-205 -236l93 -73z" />
    <glyph glyph-name="plus" unicode="+" horiz-adv-x="1088" 
d="M606 171v337h352v125h-352v349h-126v-349h-350v-125h350v-337h126z" />
    <glyph glyph-name="comma" unicode="," horiz-adv-x="459" 
d="M240 -267l89 382h-141l-58 -382h110z" />
    <glyph glyph-name="hyphen" unicode="-" horiz-adv-x="1079" 
d="M949 508v125h-819v-125h819z" />
    <glyph glyph-name="period" unicode="." horiz-adv-x="510" 
d="M336 0v152h-162v-152h162z" />
    <glyph glyph-name="slash" unicode="/" horiz-adv-x="923" 
d="M280 0l513 1472h-150l-513 -1472h150z" />
    <glyph glyph-name="zero" unicode="0" horiz-adv-x="1439" 
d="M1163.5 166q145.5 188 145.5 523q0 379 -136.5 572.5t-453.5 192.5q-214 0 -344 -89t-187.5 -258t-57.5 -418q0 -335 145.5 -523t443.5 -188q299 0 444.5 188zM386 268.5q-106 156.5 -106 420.5q0 155 22 271t73 196t136.5 122t207.5 42q123 0 208 -42t136.5 -122
t73.5 -196t22 -271q0 -264 -106 -420.5t-334 -156.5q-227 0 -333 156.5z" />
    <glyph glyph-name="one" unicode="1" horiz-adv-x="676" 
d="M503 0v1454l-373 -59v-134l223 41v-1302h150z" />
    <glyph glyph-name="two" unicode="2" horiz-adv-x="1130" 
d="M1000 0v125h-681q35 94 99.5 170.5t167.5 169.5q17 18 48 43q29 25 43 39q146 127 227.5 244t81.5 270q0 187 -118 290t-339 103q-92 0 -186 -16t-159 -44v-135q157 61 326 61q161 0 243 -76t82 -202q0 -108 -52 -195t-173 -198q-39 -37 -87 -79q-150 -131 -247 -241
t-146 -239v-90h870z" />
    <glyph glyph-name="three" unicode="3" horiz-adv-x="1147" 
d="M881 82.5q136 104.5 136 308.5q0 138 -73.5 223t-202.5 115q120 35 182.5 132.5t62.5 215.5q0 175 -119.5 276t-360.5 101q-94 0 -192 -17t-159 -43v-126q162 62 333 62q178 0 262.5 -66.5t84.5 -196.5q0 -137 -81 -211t-244 -74h-167l-15 -111h198q163 0 252 -67.5
t89 -204.5q0 -150 -96.5 -223.5t-288.5 -73.5q-96 0 -182.5 15t-169.5 47v-126q62 -25 167 -42.5t202 -17.5q246 0 382 104.5z" />
    <glyph glyph-name="four" unicode="4" horiz-adv-x="1210" 
d="M973 0v337h151v129h-151v966h-137l-750 -971v-124h737v-337h150zM842 1251v-789h-615z" />
    <glyph glyph-name="five" unicode="5" horiz-adv-x="1146" 
d="M883.5 95q132.5 117 132.5 330q0 230 -122 329t-353 94h-278l29 459h605l15 125h-745l-37 -590v-108h399q189 0 263 -72t74 -233q0 -158 -96.5 -242t-281.5 -84q-97 0 -185.5 15.5t-166.5 45.5v-127q64 -27 165.5 -43t201.5 -16q248 0 380.5 117z" />
    <glyph glyph-name="six" unicode="6" horiz-adv-x="1267" 
d="M1008.5 102.5q128.5 124.5 128.5 342.5q0 224 -118 339.5t-355 115.5q-95 0 -199 -32.5t-192 -96.5v121q0 193 109.5 317.5t310.5 124.5q187 0 312 -48v123q-62 24 -142 34.5t-181 10.5q-253 0 -402.5 -161.5t-149.5 -428.5v-343q0 -280 126.5 -411.5t378.5 -131.5
q245 0 373.5 124.5zM363 187.5q-90 92.5 -90 282.5v186q76 57 175 92t191 35q194 0 277.5 -87.5t83.5 -254.5q0 -161 -93 -253.5t-273 -92.5q-181 0 -271 92.5z" />
    <glyph glyph-name="seven" unicode="7" horiz-adv-x="1117" 
d="M461 0l548 1317v115h-901v-125h745l-545 -1307h153z" />
    <glyph glyph-name="eight" unicode="8" horiz-adv-x="1301" 
d="M1037 79q133 101 133 296q0 136 -71 221t-224 122q134 43 194.5 132.5t60.5 208.5q0 122 -52.5 210.5t-160 136.5t-267.5 48q-236 0 -358 -105t-122 -290q0 -110 58.5 -195t182.5 -123q-137 -36 -209 -134t-72 -232q0 -195 133.5 -296t386.5 -101q254 0 387 101zM540 799
q-227 45 -227 258q0 135 86.5 207.5t250.5 72.5t250.5 -73t86.5 -207q0 -122 -64.5 -190.5t-210.5 -101.5zM273 381q0 134 74 206t211 100l195 -39q147 -31 210.5 -90.5t63.5 -180.5q0 -141 -94 -211.5t-283 -70.5q-377 0 -377 286z" />
    <glyph glyph-name="nine" unicode="9" horiz-adv-x="1267" 
d="M996 144q141 166 141 425v343q0 284 -120.5 413t-375.5 129q-241 0 -375.5 -125t-135.5 -350q0 -224 121 -340t357 -116q210 0 386 129v-115q0 -192 -104 -315.5t-307 -123.5t-321 47v-123q65 -21 149 -32.5t183 -11.5q261 0 402 166zM360.5 721.5
q-91.5 81.5 -93.5 261.5q0 163 96.5 258.5t278.5 95.5t267 -92.5t85 -282.5v-194q-75 -60 -167 -94t-193 -34q-182 0 -273.5 81.5z" />
    <glyph glyph-name="colon" unicode=":" horiz-adv-x="510" 
d="M336 736v153h-162v-153h162zM336 65v153h-162v-153h162z" />
    <glyph glyph-name="semicolon" unicode=";" horiz-adv-x="462" 
d="M342 736v153h-162v-153h162zM240 -204l89 382h-141l-58 -382h110z" />
    <glyph glyph-name="less" unicode="&#x3c;" horiz-adv-x="1228" 
d="M1098 283l-812 371l812 372v149l-968 -456v-129l968 -456v149z" />
    <glyph glyph-name="equal" unicode="=" horiz-adv-x="1092" 
d="M962 667v116h-832v-116h832zM962 360v118h-832v-118h832z" />
    <glyph glyph-name="greater" unicode="&#x3e;" horiz-adv-x="1228" 
d="M1098 590v129l-968 456v-149l811 -372l-811 -371v-149z" />
    <glyph glyph-name="question" unicode="?" horiz-adv-x="1105" 
d="M534 339v45q0 100 74 180.5t155 143.5q110 90 161.5 165.5t51.5 190.5q0 188 -116.5 289t-344.5 101q-237 0 -385 -80v-120q148 80 352 80q343 0 343 -283q0 -98 -48.5 -158.5t-152.5 -142.5q-100 -78 -166 -158t-65 -202v-51h141zM546 0v130h-163v-130h163z" />
    <glyph glyph-name="at" unicode="@" horiz-adv-x="1712" 
d="M1244 -254v104q-140 -42 -379 -42q-285 0 -453 142t-168 467q0 336 164.5 492.5t493.5 156.5q289 0 427 -126t138 -377q0 -191 -58 -274.5t-182 -83.5v364q0 171 -78.5 245.5t-258.5 74.5q-89 0 -167.5 -12t-133.5 -36v-85q125 46 273 46q111 0 166 -22.5t74.5 -68.5
t19.5 -137v-81h-307q-332 0 -332 -267q0 -129 84.5 -189.5t221.5 -60.5q226 0 351 134h63q192 0 285.5 118.5t93.5 339.5q0 290 -171.5 445t-508.5 155q-376 0 -574 -184.5t-198 -565.5q0 -378 200 -545t539 -167q196 0 375 40zM652 99q-59 39 -59 128q0 95 52.5 139
t187.5 44h289v-213q-58 -71 -129 -104t-170 -33q-112 0 -171 39z" />
    <glyph glyph-name="A" unicode="A" horiz-adv-x="1512" 
d="M286 0l152 410h637l152 -410h155l-533 1432h-185l-534 -1432h156zM755 1301l291 -774h-581z" />
    <glyph glyph-name="B" unicode="B" horiz-adv-x="1394" 
d="M849 0q210 0 314 100.5t104 308.5q0 144 -62 225t-177 107q181 86 181 315q0 187 -96 281.5t-303 94.5h-636v-1432h675zM318 1316h456q167 0 230.5 -66t63.5 -204q0 -247 -258 -252h-492v522zM318 683h480q104 0 174.5 -24t108 -83.5t35.5 -161.5q0 -158 -69 -228
t-219 -70h-510v567z" />
    <glyph glyph-name="C" unicode="C" horiz-adv-x="1328" 
d="M1009.5 -7.5q100.5 14.5 188.5 43.5v139q-175 -63 -388 -63q-275 0 -402 149q-124 146 -128 418q0 310 120 476t403 166q223 0 394 -70v138q-83 33 -184 49t-222 16q-346 0 -503.5 -202.5t-157.5 -572.5q0 -329 164 -515t498 -186q117 0 217.5 14.5z" />
    <glyph glyph-name="D" unicode="D" horiz-adv-x="1424" 
d="M715 0q310 0 445.5 167t135.5 538q0 262 -60 420.5t-188 232.5t-333 74h-541v-1432h541zM324 1301h361q196 0 295.5 -71t132.5 -195.5t33 -329.5q0 -175 -28.5 -289.5t-85 -177t-140.5 -88t-207 -25.5h-361v1176z" />
    <glyph glyph-name="E" unicode="E" horiz-adv-x="1221" 
d="M1113 0v121h-789v534h711v124h-711v533h789v120h-939v-1432h939z" />
    <glyph glyph-name="F" unicode="F" horiz-adv-x="1151" 
d="M324 0v655h677v124h-677v533h757v120h-907v-1432h150z" />
    <glyph glyph-name="G" unicode="G" horiz-adv-x="1427" 
d="M1095.5 10.5q125.5 32.5 197.5 78.5v677h-522v-111h390v-481q-166 -62 -361 -62q-151 0 -253 47.5t-157 145.5q-110 170 -91 418q10 286 126.5 442t383.5 156q215 0 394 -59v137q-174 55 -408 55q-346 0 -505.5 -204t-159.5 -571q0 -329 164 -515t496 -186
q180 0 305.5 32.5z" />
    <glyph glyph-name="H" unicode="H" horiz-adv-x="1427" 
d="M324 0v646h779v-646h151v1432h-151v-644h-779v644h-150v-1432h150z" />
    <glyph glyph-name="I" unicode="I" horiz-adv-x="498" 
d="M324 0v1432h-150v-1432h150z" />
    <glyph glyph-name="J" unicode="J" horiz-adv-x="923" 
d="M657.5 75q102.5 97 102.5 293v1064h-150v-1038q0 -148 -67.5 -214t-226.5 -66q-155 0 -264 51v-134q126 -53 291 -53q212 0 314.5 97z" />
    <glyph glyph-name="K" unicode="K" horiz-adv-x="1329" 
d="M324 0v504l241 255l478 -759h163l-544 860l530 572h-180l-688 -731v731h-150v-1432h150z" />
    <glyph glyph-name="L" unicode="L" horiz-adv-x="1179" 
d="M1091 0v125h-767v1307h-150v-1432h917z" />
    <glyph glyph-name="M" unicode="M" horiz-adv-x="1672" 
d="M324 0v1194l459 -944h108l457 944v-1194h150v1432h-168l-493 -1022l-495 1022h-168v-1432h150z" />
    <glyph glyph-name="N" unicode="N" horiz-adv-x="1476" 
d="M324 0v1193l838 -1193h140v1432h-150v-1193l-839 1193h-139v-1432h150z" />
    <glyph glyph-name="O" unicode="O" horiz-adv-x="1545" 
d="M1255 166q160 188 160 539q0 388 -156.5 568.5t-486.5 180.5t-486 -180.5t-156 -568.5q0 -351 160 -539t482 -188q323 0 483 188zM402 261.5q-122 149.5 -122 443.5q0 226 54 360t161.5 194.5t276.5 60.5q170 0 277 -60.5t161 -194.5t54 -360q0 -294 -122 -443.5
t-370 -149.5t-370 149.5z" />
    <glyph glyph-name="P" unicode="P" horiz-adv-x="1293" 
d="M324 0v529h419q143 0 248.5 54.5t160.5 155.5t55 239q0 210 -113 332t-342 122h-578v-1432h150zM324 1305h410q161 0 242 -83.5t81 -243.5q0 -150 -85.5 -235.5t-248.5 -85.5h-399v648z" />
    <glyph glyph-name="Q" unicode="Q" horiz-adv-x="1545" 
d="M1161 -358v105q-85 -23 -156 -23q-102 0 -142.5 59t-41.5 197q298 14 446 200t148 525q0 388 -156.5 568.5t-486.5 180.5t-486 -180.5t-156 -568.5q0 -319 134.5 -508.5t427.5 -213.5q1 -170 65.5 -268t222.5 -98q88 0 181 25zM402 261.5q-122 149.5 -122 443.5
q0 226 54 360t161.5 194.5t276.5 60.5q170 0 277 -60.5t161 -194.5t54 -360q0 -294 -122 -443.5t-370 -149.5t-370 149.5z" />
    <glyph glyph-name="R" unicode="R" horiz-adv-x="1341" 
d="M324 0v560h301q116 0 164 -29t80 -108l183 -423h154l-190 448q-26 60 -49 90.5t-68 49.5q151 35 229.5 139.5t78.5 270.5q0 205 -104.5 319.5t-323.5 114.5h-605v-1432h150zM324 1305h437q148 0 222 -76t74 -231q0 -311 -321 -311h-412v618z" />
    <glyph glyph-name="S" unicode="S" horiz-adv-x="1245" 
d="M979.5 76.5q136.5 98.5 136.5 293.5q0 112 -42 188.5t-139.5 131.5t-268.5 94q-47 12 -90 23q-170 47 -233 101t-63 158q0 137 102.5 202.5t293.5 65.5q198 0 354 -58v124q-59 21 -168 37.5t-217 16.5q-260 0 -387.5 -103t-127.5 -286q0 -156 94.5 -242.5t330.5 -145.5
q101 -22 175 -48q125 -43 179.5 -102t54.5 -157q0 -273 -394 -274q-109 0 -211.5 19.5t-194.5 52.5v-124q81 -33 184.5 -49.5t232.5 -16.5q262 0 398.5 98.5z" />
    <glyph glyph-name="T" unicode="T" horiz-adv-x="1282" 
d="M717 0v1312h477v120h-1106v-120h479v-1312h150z" />
    <glyph glyph-name="U" unicode="U" horiz-adv-x="1492" 
d="M1181 117.5q149 139.5 149 406.5v908h-151v-916q0 -200 -111 -301t-322 -101q-208 0 -320.5 101t-112.5 301v916h-150v-908q0 -267 148.5 -406.5t434.5 -139.5t435 139.5z" />
    <glyph glyph-name="V" unicode="V" horiz-adv-x="1512" 
d="M849 0l533 1432h-157l-470 -1278l-469 1278h-156l534 -1432h185z" />
    <glyph glyph-name="W" unicode="W" horiz-adv-x="1906" 
d="M628 0l338 1130l315 -1130h167l327 1432h-147l-281 -1223l-343 1223h-124v-151l-323 -1071l-278 1222h-149l328 -1432h170z" />
    <glyph glyph-name="X" unicode="X" horiz-adv-x="1429" 
d="M303 0l411 592l412 -592h173l-496 710l491 722h-172l-408 -608l-408 608h-171l489 -722l-494 -710h173z" />
    <glyph glyph-name="Y" unicode="Y" horiz-adv-x="1413" 
d="M781 0v535l504 897h-156l-423 -761l-422 761h-156l503 -897v-535h150z" />
    <glyph glyph-name="Z" unicode="Z" horiz-adv-x="1279" 
d="M1160 0v125h-835l824 1201v106h-983v-131h794l-830 -1210v-91h1030z" />
    <glyph glyph-name="bracketleft" unicode="[" horiz-adv-x="772" 
d="M658 -220l6 125h-384v1540h384l-6 125h-528v-1790h528z" />
    <glyph glyph-name="backslash" unicode="\" horiz-adv-x="967" 
d="M836 -120l-554 1592h-152l554 -1592h152z" />
    <glyph glyph-name="bracketright" unicode="]" horiz-adv-x="772" 
d="M642 -220v1790h-528l-6 -125h384v-1540h-384l6 -125h528z" />
    <glyph glyph-name="asciicircum" unicode="^" horiz-adv-x="1015" 
d="M273 877l234 397l235 -397h143l-320 511h-120l-315 -511h143z" />
    <glyph glyph-name="underscore" unicode="_" horiz-adv-x="1238" 
d="M1108 -112v112h-978v-112h978z" />
    <glyph glyph-name="a" unicode="a" horiz-adv-x="1205" 
d="M732.5 15q100.5 37 171.5 116l11 -131h127v694q0 201 -105.5 291.5t-324.5 90.5q-104 0 -198.5 -14t-164.5 -44v-103q157 55 327 55q126 0 195.5 -26.5t97.5 -83t28 -156.5v-111h-380q-185 0 -286 -71.5t-101 -242.5q0 -153 100 -227t260 -74q142 0 242.5 37zM270 282
q0 124 71.5 168.5t204.5 42.5h351v-260q-121 -153 -356 -153q-271 0 -271 202z" />
    <glyph glyph-name="b" unicode="b" horiz-adv-x="1279" 
d="M1027.5 116.5q121.5 138.5 121.5 419.5q0 279 -118 409.5t-350 130.5q-105 0 -193.5 -24t-163.5 -80v527h-150v-1499h128l11 115q76 -69 164 -103t204 -34q225 0 346.5 138.5zM324 231v615q134 110 316 110q184 0 271.5 -99t87.5 -323q0 -218 -85 -327t-271 -109
q-189 0 -319 133z" />
    <glyph glyph-name="c" unicode="c" horiz-adv-x="1042" 
d="M966 36v123q-136 -61 -277 -61q-217 0 -313 104t-96 325q0 216 107 322.5t312 106.5q145 0 266 -58v120q-65 32 -129.5 45t-164.5 13q-255 0 -398 -137.5t-143 -411.5q0 -266 130 -407.5t394 -141.5q179 0 312 58z" />
    <glyph glyph-name="d" unicode="d" horiz-adv-x="1279" 
d="M801.5 12q87.5 34 164.5 103l11 -115h128v1499h-150v-527q-77 57 -156 80.5t-184 23.5q-243 0 -362.5 -151.5t-122.5 -414.5q0 -273 127.5 -402.5t340.5 -129.5q116 0 203.5 34zM370 200.5q-90 102.5 -90 310.5q0 224 96.5 334.5t280.5 110.5q95 0 165.5 -27.5
t132.5 -82.5v-615q-65 -66 -144.5 -99.5t-175.5 -33.5q-175 0 -265 102.5z" />
    <glyph glyph-name="e" unicode="e" horiz-adv-x="1190" 
d="M843.5 -7.5q78.5 14.5 149.5 43.5v104q-64 -28 -137 -42t-145 -14q-229 0 -328.5 90.5t-111.5 290.5h789v182q0 195 -113 312t-329 117q-252 0 -368 -139t-120 -404q0 -283 132 -419t413 -136q90 0 168.5 14.5zM352.5 864.5q81.5 106.5 268.5 104.5q156 0 229.5 -81.5
t73.5 -226.5v-97h-653q0 194 81.5 300.5z" />
    <glyph glyph-name="f" unicode="f" horiz-adv-x="806" 
d="M399 0v932h278l8 122h-286v170q0 100 50 146.5t165 46.5q65 0 131 -24v112q-72 30 -181 30q-153 0 -234 -81.5t-81 -230.5v-169h-157v-122h157v-932h150z" />
    <glyph glyph-name="g" unicode="g" horiz-adv-x="1273" 
d="M1100 1054v-1141q1 -108 -68 -185t-184 -116t-252 -39q-125 0 -244 13.5t-192 39.5v107q86 -27 202.5 -41.5t225.5 -14.5q161 0 269 67.5t108 168.5l-2 174q-77 -53 -163.5 -81t-192.5 -28q-244 0 -365 148.5t-117 408.5q0 541 468 541q232 0 368 -137l11 115h128z
M367 205q92 -107 278 -107q96 0 166 28.5t139 81.5v615q-128 133 -319 133q-188 0 -272 -102.5t-84 -319.5q0 -222 92 -329z" />
    <glyph glyph-name="h" unicode="h" horiz-adv-x="1268" 
d="M324 0v806q70 68 158 108t189 40q165 0 224.5 -60t59.5 -209v-685h150v694q0 199 -89.5 290.5t-284.5 91.5q-130 0 -228 -35.5t-179 -104.5v563h-150v-1499h150z" />
    <glyph glyph-name="i" unicode="i" horiz-adv-x="517" 
d="M343 1314v152h-169v-152h169zM336 0v1054l-157 2v-1056h157z" />
    <glyph glyph-name="j" unicode="j" horiz-adv-x="650" 
d="M480 1314v152h-169v-152h169zM393 -438.5q80 81.5 80 223.5v1269h-157v-1262v-12q-2 -92 -49 -137.5t-152 -45.5q-65 0 -133 24v-112q81 -29 185 -29q146 0 226 81.5z" />
    <glyph glyph-name="k" unicode="k" horiz-adv-x="1131" 
d="M324 0v398l165 156l388 -554h160l-452 639l426 415h-176l-511 -481v926h-150v-1499h150z" />
    <glyph glyph-name="l" unicode="l" horiz-adv-x="593" 
d="M448.5 -18q31.5 4 63.5 16v112q-38 -13 -97 -13q-47 0 -69 28t-22 96v1278h-150v-1285q0 -127 51.5 -181.5t156.5 -54.5q35 0 66.5 4z" />
    <glyph glyph-name="m" unicode="m" horiz-adv-x="1899" 
d="M320 0v807q71 64 159 105.5t173 41.5q136 0 185.5 -65t45.5 -206v-683h143v686q0 79 -15 137q129 131 316 131q138 0 199 -60.5t61 -204.5v-689h148v703q0 190 -85 281.5t-264 91.5q-233 0 -404 -146q-34 73 -100 109.5t-181 36.5q-205 0 -382 -145l-11 123h-134v-1054
h146z" />
    <glyph glyph-name="n" unicode="n" horiz-adv-x="1268" 
d="M324 0v806q70 68 158 108t189 40q165 0 224.5 -60t59.5 -208v-686h150v700q0 195 -86.5 285.5t-273.5 90.5q-136 0 -238 -36.5t-187 -107.5l-11 122h-135v-1054h150z" />
    <glyph glyph-name="o" unicode="o" horiz-adv-x="1275" 
d="M1023.5 114.5q121.5 136.5 121.5 412.5q0 274 -123.5 411.5t-384.5 137.5t-384 -137.5t-123 -411.5q0 -273 123 -411t384 -138q265 0 386.5 136.5zM428.5 145q-78.5 47 -113.5 142.5t-35 239.5q0 222 83.5 325.5t273.5 103.5q130 0 208.5 -47t114 -142t35.5 -240
q0 -144 -35.5 -239.5t-114 -142.5t-208.5 -47t-208.5 47z" />
    <glyph glyph-name="p" unicode="p" horiz-adv-x="1279" 
d="M324 -473v555q76 -53 156.5 -78.5t186.5 -25.5q243 0 364.5 148.5t117.5 408.5q0 541 -468 541q-232 0 -368 -137l-11 115h-128v-1527h150zM463.5 126.5q-70.5 28.5 -139.5 81.5v615q128 133 319 133q188 0 272 -102.5t84 -319.5q0 -222 -92 -329t-278 -107
q-95 0 -165.5 28.5z" />
    <glyph glyph-name="q" unicode="q" horiz-adv-x="1273" 
d="M950 -473v555q-76 -53 -156 -78.5t-187 -25.5q-243 0 -364.5 148.5t-117.5 408.5q0 541 468 541q230 0 368 -137l11 115h128v-1527h-150zM811 126.5q70 28.5 139 81.5v615q-128 133 -319 133q-188 0 -272 -102.5t-84 -319.5q0 -222 92 -329t278 -107q96 0 166 28.5z" />
    <glyph glyph-name="r" unicode="r" horiz-adv-x="774" 
d="M324 0v797q161 105 385 155v124q-100 -19 -203 -62t-182 -99l-11 139h-139v-1054h150z" />
    <glyph glyph-name="s" unicode="s" horiz-adv-x="1021" 
d="M787.5 49q103.5 71 103.5 223q0 135 -87 201.5t-258 115.5q-104 34 -151 54.5t-72.5 54t-29.5 91.5q-12 87 39 132q23 23 75.5 34t128.5 13h20q66 0 132 -10.5t128 -31.5v113q-56 19 -133.5 28t-158.5 9q-207 0 -300.5 -70t-93.5 -210q0 -120 70.5 -179.5t186.5 -97.5
q33 -12 53 -19q17 -6 44 -14q90 -31 131 -49q67 -26 96 -62t29 -103q0 -92 -56 -136t-180 -49h-40q-76 0 -156.5 13t-151.5 38v-113q64 -21 151 -34t182 -13q195 0 298.5 71z" />
    <glyph glyph-name="t" unicode="t" horiz-adv-x="792" 
d="M722 7v112q-70 -24 -124 -24q-199 0 -199 196v641h289l5 122h-294v303h-150v-303h-161v-122h161v-647q0 -147 78 -227t219 -80q82 0 176 29z" />
    <glyph glyph-name="u" unicode="u" horiz-adv-x="1268" 
d="M772.5 13.5q93.5 35.5 175.5 109.5l11 -123h135v1054h-150v-806q-65 -67 -147.5 -107.5t-181.5 -40.5q-154 0 -228 75t-74 223v656h-150v-667q0 -196 99.5 -302.5t283.5 -106.5q133 0 226.5 35.5z" />
    <glyph glyph-name="v" unicode="v" horiz-adv-x="1246" 
d="M712 0l405 1054h-155l-340 -914l-336 914h-156l406 -1054h176z" />
    <glyph glyph-name="w" unicode="w" horiz-adv-x="1619" 
d="M557 0l258 801l253 -801h152l269 1054h-145l-215 -882l-271 882h-115v-118l-247 -764l-219 882h-147l270 -1054h157z" />
    <glyph glyph-name="x" unicode="x" horiz-adv-x="1172" 
d="M273 0l311 428l313 -428h165l-393 536l377 518h-163l-299 -408l-299 408h-163l381 -518l-393 -536h163z" />
    <glyph glyph-name="y" unicode="y" horiz-adv-x="1290" 
d="M256.5 -384.5q41.5 -6.5 93.5 -6.5q142 0 235.5 112.5t167.5 295.5l9 24l442 1013h-154l-390 -891l-374 891h-156l456 -1044q-2 -4 -4 -11q-52 -124 -112 -198.5t-157 -74.5q-73 0 -134 24v-114q36 -14 77.5 -20.5z" />
    <glyph glyph-name="z" unicode="z" horiz-adv-x="1086" 
d="M956 0v122h-640l626 828v104h-784v-127h603l-631 -830v-97h826z" />
    <glyph glyph-name="braceleft" unicode="{" horiz-adv-x="668" 
d="M494 -231q-120 0 -179 56t-59 178v402q0 99 -31.5 146.5t-116.5 58.5v107q85 11 116.5 59.5t31.5 146.5v401q0 123 59 179t179 56h87v-127h-40q-140 1 -139 -145v-418q0 -62 -28 -119q-29 -63 -102 -87q74 -23 102 -83q28 -58 28 -122v-418q2 -147 139 -144h40v-127h-87z
" />
    <glyph glyph-name="bar" unicode="|" horiz-adv-x="410" 
d="M280 -267v1902h-150v-1902h150z" />
    <glyph glyph-name="braceright" unicode="}" horiz-adv-x="668" 
d="M195 -231q119 0 178.5 56t59.5 178v402q0 99 31 146.5t117 58.5v107q-86 11 -117 59.5t-31 146.5v401q0 123 -59.5 179t-178.5 56h-87v-127h40q140 1 139 -145v-418q0 -62 27 -119q30 -63 102 -87q-73 -23 -101 -83q-28 -58 -28 -122v-418q-3 -147 -139 -144h-40v-127h87
z" />
    <glyph glyph-name="asciitilde" unicode="~" horiz-adv-x="1291" 
d="M1056 558q67 30 106 85v148q-55 -70 -114 -101.5t-141 -31.5q-61 0 -120.5 20.5t-133.5 59.5q-74 37 -136.5 57.5t-130.5 20.5q-80 0 -148.5 -31.5t-107.5 -84.5v-148q54 71 114 102.5t142 31.5q64 0 124.5 -20.5t136.5 -57.5q72 -39 133.5 -59.5t126.5 -20.5
q82 0 149 30z" />
    <glyph glyph-name="uni00A0" unicode="&#xa0;" horiz-adv-x="0" 
 />
    <glyph glyph-name="cent" unicode="&#xa2;" horiz-adv-x="1096" 
d="M369.5 208.5q-89.5 108.5 -89.5 318.5q6 414 391 428q158 6 294 -57v120q-103 54 -262 56v171h-134v-178q-208 -22 -323.5 -159t-115.5 -381q0 -246 107.5 -383.5t331.5 -156.5v-178h134v171q138 5 263 56v123q-146 -63 -298 -61q-209 2 -298.5 110.5z" />
    <glyph glyph-name="sterling" unicode="&#xa3;" horiz-adv-x="1101" 
d="M988 0v122h-594q61 39 61 175v395h446l4 123h-450v297q4 223 263 225q117 -1 190 -35v112q-79 41 -239 40q-155 0 -259.5 -87.5t-104.5 -253.5v-298h-157v-123h157v-404q0 -166 -133 -166h-59v-122h875z" />
    <glyph glyph-name="currency" unicode="&#xa4;" horiz-adv-x="1283" 
d="M385 286q54 -45 120 -70.5t137 -25.5q143 0 255 96l187 -145l68 89l-181 140q74 104 74 228q0 130 -74 227l182 140l-69 90l-188 -147q-108 98 -256 98q-146 0 -255 -97l-186 147l-69 -90l181 -141q-74 -97 -74 -227t74 -227l-181 -140l69 -90zM436.5 390.5
q-83.5 87.5 -83.5 208.5q0 123 83.5 209t203.5 86t205 -86t85 -209q0 -121 -85 -208.5t-205 -87.5t-203.5 87.5z" />
    <glyph glyph-name="yen" unicode="&#xa5;" horiz-adv-x="1385" 
d="M767 0v247h351v94h-351v171h351v94h-313l450 826h-156l-407 -761l-408 761h-154l446 -826h-312v-94h351v-171h-351v-94h351v-247h152z" />
    <glyph glyph-name="brokenbar" unicode="&#xa6;" horiz-adv-x="410" 
d="M280 954v681h-150v-681h150zM280 -267v681h-150v-681h150z" />
    <glyph glyph-name="section" unicode="&#xa7;" horiz-adv-x="1245" 
d="M1116 366q0 91 -38 158q38 82 38 161q0 103 -37 162.5t-127.5 98t-285.5 85.5q-225 56 -305.5 110.5t-80.5 170.5q0 138 102.5 203.5t293.5 65.5q193 0 354 -58v124q-54 19 -160.5 36.5t-224.5 17.5q-515 3 -515 -380q0 -97 38 -160q-38 -66 -38 -139q-1 -146 89 -213.5
t336 -131.5q223 -53 316 -116.5t93 -190.5q0 -274 -394 -274q-211 0 -406 72v-124q167 -66 417 -66q534 2 535 388zM850.5 697.5q-88.5 39.5 -211.5 66.5q-222 53 -301.5 98.5t-79.5 148.5q0 42 13 72q-15 -49 355 -150q210 -47 290.5 -90.5t80.5 -153.5q0 -42 -14 -82
q-44 51 -132.5 90.5z" />
    <glyph glyph-name="copyright" unicode="&#xa9;" horiz-adv-x="1715" 
d="M1153 260v93q-136 -62 -271 -62q-198 0 -307 104.5t-109 319.5q0 209 121 315.5t306 106.5q140 0 260 -60v90q-109 65 -282 66q-512 -4 -516 -518q-6 -515 499 -519q183 0 299 64zM1222.5 77q167.5 99 265 269t97.5 370t-97.5 370.5t-265 269t-365.5 98.5
q-197 0 -364.5 -98.5t-265 -269t-97.5 -370.5t97.5 -370t265 -269t364.5 -99q198 0 365.5 99zM541 162q-144 86 -229 232t-85 322t85 322.5t229 232t316 85.5t316.5 -85.5t229.5 -232t85 -322.5t-85 -322t-229.5 -232t-316.5 -86t-316 86z" />
    <glyph glyph-name="ordfeminine" unicode="&#xaa;" horiz-adv-x="791" 
d="M564 931l6 -73h91v384q0 110 -66 161t-189 51q-57 0 -109 -7.5t-93 -23.5v-77q91 32 180 32q103 0 139.5 -30.5t36.5 -105.5v-39h-204q-226 0 -226 -185q0 -88 57.5 -130.5t149.5 -42.5q141 0 227 86zM227 1019q0 58 34 85t108 27h191v-125q-37 -46 -82 -66t-111 -20
q-140 0 -140 99z" />
    <glyph glyph-name="guillemotleft" unicode="&#xab;" horiz-adv-x="1327" 
d="M1197 279l-477 359l477 360l-62 93l-553 -413v-79l553 -413zM744 279l-477 359l477 360l-62 93l-552 -413v-79l552 -413z" />
    <glyph glyph-name="registered" unicode="&#xae;" horiz-adv-x="1715" 
d="M1222.5 77q167.5 99 265 269t97.5 370t-97.5 370.5t-265 269t-365.5 98.5q-197 0 -364.5 -98.5t-265 -269t-97.5 -370.5t97.5 -370t265 -269t364.5 -99q198 0 365.5 99zM541 162q-144 86 -229 232t-85 322t85 322.5t229 232t316 85.5t316.5 -85.5t229.5 -232t85 -322.5
t-85 -322t-229.5 -232t-316.5 -86t-316 86zM627 231v380h204q86 0 120 -18t56 -72l122 -290h99l-126 304q-17 41 -34 64t-49 34q216 44 216 276q0 137 -75 213t-223 76h-412v-967h102zM627 1112h298q109 0 159.5 -47t50.5 -156q0 -113 -58 -162t-169 -49h-281v414z" />
    <glyph glyph-name="macron" unicode="&#xaf;" horiz-adv-x="845" 
d="M732 1259v106h-619v-106h619z" />
    <glyph glyph-name="degree" unicode="&#xb0;" horiz-adv-x="959" 
d="M479 785q89 0 164 43.5t119 118.5t44 164t-44 164t-119 118.5t-164 43.5t-163.5 -43.5t-118.5 -118.5t-44 -164t44 -164t118.5 -118.5t163.5 -43.5v0zM589.5 1300.5q49.5 -29.5 79 -80t29.5 -109.5q0 -60 -29.5 -110t-80 -79.5t-109.5 -29.5t-109.5 29.5t-80 80
t-29.5 109.5t29.5 109.5t80.5 80t111 29.5q59 0 108.5 -29.5z" />
    <glyph glyph-name="plusminus" unicode="&#xb1;" horiz-adv-x="1088" 
d="M606 223v338h352v125h-352v349h-126v-349h-350v-125h350v-338h126zM958 0v125h-828v-125h828z" />
    <glyph glyph-name="mu" unicode="&#xb5;" horiz-adv-x="1279" 
d="M324 -318v430q90 -132 282 -129q221 3 353 140l11 -123h135v1054h-150v-806q-143 -148 -329 -148q-302 0 -302 298v656h-150v-1372h150z" />
    <glyph glyph-name="paragraph" unicode="&#xb6;" horiz-adv-x="1371" 
d="M851 -171v1628h256v-1628h134v1750h-533q-578 0 -578 -518q0 -289 173 -393.5t416 -104.5v-734h132z" />
    <glyph glyph-name="guillemotright" unicode="&#xbb;" horiz-adv-x="1327" 
d="M1197 599v79l-552 413l-63 -93l477 -360l-477 -359l63 -93zM744 599v79l-552 413l-62 -93l477 -360l-477 -359l62 -93z" />
    <glyph glyph-name="multiply" unicode="&#xd7;" horiz-adv-x="922" 
d="M792 296l-251 254l251 255l-82 84l-253 -253l-247 254l-80 -82l250 -252l-240 -245l82 -85l242 244l250 -254z" />
    <glyph glyph-name="germandbls" unicode="&#xdf;" horiz-adv-x="1396" 
d="M831 -22q-83 0 -166 11.5t-143 37.5v112q61 -25 134.5 -35t146.5 -10q155 0 234 75t79 234q0 136 -68 203t-233 67h-204v99l437 288q6 143 -106.5 203t-253.5 60q-193 0 -287 -83.5t-94 -263.5v-976h-144v985q1 244 141 356.5t384 112.5q271 0 384.5 -116.5t119.5 -306.5
l-420 -277h128q185 0 275.5 -94.5t90.5 -269.5q0 -209 -111.5 -310.5t-323.5 -101.5z" />
    <glyph glyph-name="divide" unicode="&#xf7;" horiz-adv-x="1079" 
d="M602 863v133h-127v-133h127zM949 508v125h-819v-125h819zM602 157v133h-127v-133h127z" />
    <glyph glyph-name="uni060C" unicode="&#x60c;" horiz-adv-x="667" 
d="M446 206.5q-25 30.5 -65.5 37t-83.5 -16.5v164q-1 60 38 106.5t100 56.5l46 6l-18 114l-36 -7q-110 -19 -179 -100.5t-70 -193.5v-233q0 -60 41.5 -102.5t103.5 -42.5q63 0 105.5 39.5t42.5 98.5q0 43 -25 73.5z" />
    <glyph glyph-name="uni0615" unicode="&#x615;" horiz-adv-x="0" 
d="M-103.5 1734q26.5 57 69.5 102.5t98 45.5q71 0 106 -45.5t35 -104.5q0 -46 -41.5 -77.5t-103.5 -31.5h-207q17 54 43.5 111zM-236 1623h-52v-83h348q64 0 116.5 25t82.5 69t29 98q0 62 -26 115.5t-77 86t-121 32.5q-116 0 -205 -149v357h-83v-510q-6 -18 -12 -41z" />
    <glyph glyph-name="uni0615" unicode="&#xfbc0;" horiz-adv-x="0" 
d="M-103.5 1734q26.5 57 69.5 102.5t98 45.5q71 0 106 -45.5t35 -104.5q0 -46 -41.5 -77.5t-103.5 -31.5h-207q17 54 43.5 111zM-236 1623h-52v-83h348q64 0 116.5 25t82.5 69t29 98q0 62 -26 115.5t-77 86t-121 32.5q-116 0 -205 -149v357h-83v-510q-6 -18 -12 -41z" />
    <glyph glyph-name="uni0615" unicode="&#xe0bf;" horiz-adv-x="0" 
d="M-103.5 1734q26.5 57 69.5 102.5t98 45.5q71 0 106 -45.5t35 -104.5q0 -46 -41.5 -77.5t-103.5 -31.5h-207q17 54 43.5 111zM-236 1623h-52v-83h348q64 0 116.5 25t82.5 69t29 98q0 62 -26 115.5t-77 86t-121 32.5q-116 0 -205 -149v357h-83v-510q-6 -18 -12 -41z" />
    <glyph glyph-name="uni061B" unicode="&#x61b;" horiz-adv-x="667" 
d="M446 539.5q-25 30.5 -65.5 37t-83.5 -16.5v164q-1 60 38 106.5t100 56.5l46 6l-18 114l-36 -7q-110 -19 -179 -100.5t-70 -193.5v-233q0 -60 41.5 -102.5t103.5 -42.5q63 0 105.5 39.5t42.5 98.5q0 43 -25 73.5zM404 0v152h-162v-152h162z" />
    <glyph glyph-name="uni061F" unicode="&#x61f;" horiz-adv-x="1104" 
d="M559 0v130h162v-130h-162zM570 339v45q0 100 -74 180.5t-155 143.5q-110 90 -161.5 165.5t-51.5 190.5q0 188 116.5 289t344.5 101q237 0 385 -180l-93 -105q-114 151 -288 151q-314 0 -314 -269q0 -98 48.5 -158.5t152.5 -142.5q100 -78 166 -158t65 -202v-51h-141z" />
    <glyph glyph-name="uni0640" unicode="&#x640;" horiz-adv-x="273" 
d="M-54.5 98q-14.5 -28 0 -56t54.5 -42h273v140h-273q-40 -14 -54.5 -42z" />
    <glyph glyph-name="uni0640" unicode="&#xe0b5;" horiz-adv-x="273" 
d="M-54.5 98q-14.5 -28 0 -56t54.5 -42h273v140h-273q-40 -14 -54.5 -42z" />
    <glyph glyph-name="uni0653" unicode="&#x653;" horiz-adv-x="0" 
d="M-227 135q21 52 67.5 83.5t103.5 31.5h434v97h-434q-87 0 -158 -48t-103 -129l-54 -134l91 -36z" />
    <glyph glyph-name="uni0653" unicode="&#xe010;" horiz-adv-x="0" 
d="M-227 135q21 52 67.5 83.5t103.5 31.5h434v97h-434q-87 0 -158 -48t-103 -129l-54 -134l91 -36z" />
    <glyph glyph-name="uni0654" unicode="&#x654;" horiz-adv-x="0" 
d="M-206 1745l441 168l-30 78l-157 -60q-80 -1 -118.5 38t-37.5 96q0 53 34 96t89 44q34 0 61 -10t59 -27q5 -3 7 -4l18 81q-32 19 -66 31t-79 12q-61 0 -108 -32.5t-73 -84t-26 -106.5q0 -62 33 -111.5t87 -68.5l-163 -63z" />
    <glyph glyph-name="uni0654" unicode="&#x674;" horiz-adv-x="0" 
d="M-206 1745l441 168l-30 78l-157 -60q-80 -1 -118.5 38t-37.5 96q0 53 34 96t89 44q34 0 61 -10t59 -27q5 -3 7 -4l18 81q-32 19 -66 31t-79 12q-61 0 -108 -32.5t-73 -84t-26 -106.5q0 -62 33 -111.5t87 -68.5l-163 -63z" />
    <glyph glyph-name="uni0655" unicode="&#x655;" horiz-adv-x="0" 
d="M-206 -1051l441 168l-29 77l-158 -60q-79 0 -118 39.5t-38 96.5q0 52 34 95.5t89 43.5q35 0 62 -10t59 -28q4 -2 6 -4l19 82q-32 19 -66.5 31.5t-79.5 11.5q-61 0 -108 -32.5t-73 -84t-26 -105.5q0 -63 33.5 -112.5t86.5 -68.5l-163 -62z" />
    <glyph glyph-name="uni0656" unicode="&#x656;" horiz-adv-x="0" 
d="M-42 -898h84v373h-84v-373z" />
    <glyph glyph-name="uni0656" unicode="&#x8ad;" horiz-adv-x="0" 
d="M-42 -898h84v373h-84v-373z" />
    <glyph glyph-name="uni065A" unicode="&#x65a;" horiz-adv-x="0" 
d="M306 1856l-107 2l-199 -227l-199 227l-107 -2l275 -316h62z" />
    <glyph glyph-name="uni065B" unicode="&#x65b;" horiz-adv-x="0" 
d="M306 1541l-107 -1l-199 227l-199 -227l-107 1l275 317h62z" />
    <glyph glyph-name="uni0660" unicode="&#x660;" horiz-adv-x="589" 
d="M295 292l171 171l-171 171l-171 -171z" />
    <glyph glyph-name="uni0661" unicode="&#x661;" horiz-adv-x="519" 
d="M362 614q0 137 -15.5 306.5t-45.5 297.5l-16 67l-135 -31l16 -68q27 -118 42 -279.5t15 -292.5v-614h139v614z" />
    <glyph glyph-name="uni0662" unicode="&#x662;" horiz-adv-x="1013" 
d="M301 1218l-16 67l-135 -31l16 -68q27 -118 42 -279.5t15 -292.5v-614h139v588q0 57 -3 121q22 -40 76.5 -61t119.5 -13q139 18 223 105.5t88 219.5q3 80 -5 143t-30 181q-1 5 -2 7l-136 -26q1 -7 4 -21q18 -99 25 -154.5t5 -125.5q-2 -79 -52.5 -130t-137.5 -61
q-125 -16 -187 105q-17 200 -49 340z" />
    <glyph glyph-name="uni0663" unicode="&#x663;" 
d="M1261.5 746q87.5 89 91.5 218q3 77 -4.5 137.5t-27.5 170.5q-3 15 -4 23l-138 -26q2 -9 5 -26q20 -102 26.5 -154t3.5 -120q-2 -78 -55.5 -129.5t-142.5 -62.5q-108 -14 -174 89q20 45 20 94q3 80 -5 143.5t-30 180.5q-1 5 -1 7l-137 -26q2 -7 4 -21q19 -99 26 -154.5
t4 -125.5q-2 -79 -52 -130t-137 -61q-71 -9 -113.5 21t-70.5 84q-16 200 -49 340l-16 67l-135 -31l16 -68q28 -118 42.5 -279.5t14.5 -292.5v-614h140v592q0 53 -4 115q22 -39 75.5 -59.5t117.5 -12.5q141 18 221 109q46 -57 116 -86t145 -19q140 18 227.5 107z" />
    <glyph glyph-name="uni0664" unicode="&#x664;" horiz-adv-x="1034" 
d="M265 797q33 -79 114.5 -120.5t202.5 -33.5q18 0 64 -19q29 -11 47 -16.5t32 -2.5l91 18l-27 132l-90 -18q-90 -18 -161.5 -4t-112.5 56q-29 29 -40 70t-1 90q18 90 72.5 147.5t123.5 83.5t134 26q46 0 112 -17l9 135q-51 16 -121 16q-100 0 -196.5 -39.5t-168 -121.5
t-96.5 -202q-21 -101 12 -180zM880 134h-388q-57 0 -104.5 27.5t-76.5 74.5t-30 103q-2 76 46 136t123 76l366 72l-26 132l-367 -73q-79 -16 -142 -65t-98.5 -120.5t-35.5 -152.5q0 -94 46 -173t125 -125t173 -46h389v134z" />
    <glyph glyph-name="uni0665" unicode="&#x665;" horiz-adv-x="1373" 
d="M1085 119.5q135 126.5 135 406.5q0 205 -61 388t-182 297.5t-291 114.5q-169 0 -289.5 -114.5t-182 -297.5t-61.5 -388q0 -280 135.5 -406.5t364.5 -126.5h67q230 0 365 126.5zM902.5 1095q90.5 -97 137 -250t46.5 -319q0 -116 -28 -202.5t-108.5 -141.5t-229.5 -55h-67
q-113 0 -186.5 33t-112.5 88.5t-53 124.5t-14 153q0 166 46.5 319t137 250t215.5 97q126 0 216.5 -97z" />
    <glyph glyph-name="uni0666" unicode="&#x666;" horiz-adv-x="1206" 
d="M1062 56q-92 149 -135 358.5t-20 430.5t121 400l-78 96q-182 -56 -318.5 -66.5t-236 10t-204.5 64.5l-48 -122q108 -46 206.5 -69t224 -20t287.5 43q-77 -204 -90 -421.5t34 -417t143 -356.5z" />
    <glyph glyph-name="uni0667" unicode="&#x667;" horiz-adv-x="1266" 
d="M940 808q-100 -225 -164 -438t-73 -373h-142q-13 239 -142.5 583t-310.5 652l116 72q140 -231 246.5 -490.5t162.5 -570.5q55 311 161.5 570.5t246.5 490.5l116 -72q-117 -199 -217 -424z" />
    <glyph glyph-name="uni0668" unicode="&#x668;" horiz-adv-x="1218" 
d="M940 480.5q-100 224.5 -163 433.5t-74 378h-142q-13 -240 -142.5 -584t-310.5 -652l116 -71q140 230 246.5 490t162.5 570q55 -310 161.5 -570t246.5 -490l116 71q-117 200 -217 424.5z" />
    <glyph glyph-name="uni0669" unicode="&#x669;" horiz-adv-x="1086" 
d="M789 757q-55 -44 -110 -60.5t-126 -25.5q-6 -1 -9 -1q-69 -9 -127.5 20t-93 86t-34.5 129q0 67 34.5 125.5t92.5 93t124 34.5q76 0 132.5 -42.5t86.5 -109.5t30 -138v-111zM789 0h139v868q0 108 -47.5 207t-135.5 160.5t-205 61.5q-103 0 -193 -53.5t-143.5 -143.5
t-53.5 -194q-1 -113 55.5 -204t151.5 -138t205 -33q3 0 9 1q63 9 113.5 23.5t104.5 51.5v-607z" />
    <glyph glyph-name="uni066A" unicode="&#x66a;" horiz-adv-x="1247" 
d="M1039 1257l-95 47l-737 -1274l96 -46zM318.5 1174q27.5 -28 27.5 -67q0 -40 -27.5 -67.5t-67.5 -27.5q-39 0 -66.5 27.5t-27.5 67.5q0 39 27.5 67t66.5 28q40 0 67.5 -28zM1062.5 248.5q27.5 -27.5 27.5 -67.5q0 -39 -27.5 -67t-67.5 -28q-39 0 -66.5 28t-27.5 67
q0 40 27.5 67.5t66.5 27.5q40 0 67.5 -27.5z" />
    <glyph glyph-name="uni066B" unicode="&#x66b;" horiz-adv-x="602" 
d="M445 375l-89 39l-356 -784l89 -40z" />
    <glyph glyph-name="uni066C" unicode="&#x66c;" horiz-adv-x="472" 
d="M171 -217q69 37 106.5 109.5t37.5 167.5v192h-97v-192q0 -63 -24 -114.5t-69 -76.5l-44 -24l47 -86z" />
    <glyph glyph-name="uni066D" unicode="&#x66d;" horiz-adv-x="1340" 
d="M157 783l316 -232l-122 -371l319 229l319 -229l-122 371l316 232h-391l-122 372l-122 -372h-391z" />
    <glyph glyph-name="uni066E" unicode="&#x66e;" horiz-adv-x="1770" 
d="M1257 0q97 0 179 47t130 127.5t48 175.5v329h-133v-315q0 -61 -30 -112.5t-81.5 -81.5t-112.5 -30h-744q-61 0 -112 30t-81 81.5t-30 112.5v315h-133v-329q0 -96 48 -176t129.5 -127t178.5 -47h744z" />
    <glyph glyph-name="uni066F" unicode="&#x66f;" horiz-adv-x="1649" 
d="M1311.5 730q86.5 -53 134 -148.5t47.5 -218.5v-351q0 -166 -72.5 -293t-202 -196.5t-296.5 -69.5h-221q-163 0 -287 74.5t-190.5 199t-66.5 270.5v449h132v-435q0 -112 49 -207.5t142.5 -153t220.5 -57.5h221q205 0 321 108t116 299h-246q-187 0 -283.5 96t-96.5 267
q0 121 48.5 217t135 149.5t196.5 53.5q112 0 198.5 -53zM1360 363q0 71 -24 136t-79.5 108t-143.5 43q-78 0 -133.5 -39t-84.5 -104.5t-29 -143.5q0 -108 61.5 -165.5t185.5 -57.5h247v223z" />
    <glyph glyph-name="uni066F" unicode="&#x8bc;" horiz-adv-x="1649" 
d="M1311.5 730q86.5 -53 134 -148.5t47.5 -218.5v-351q0 -166 -72.5 -293t-202 -196.5t-296.5 -69.5h-221q-163 0 -287 74.5t-190.5 199t-66.5 270.5v449h132v-435q0 -112 49 -207.5t142.5 -153t220.5 -57.5h221q205 0 321 108t116 299h-246q-187 0 -283.5 96t-96.5 267
q0 121 48.5 217t135 149.5t196.5 53.5q112 0 198.5 -53zM1360 363q0 71 -24 136t-79.5 108t-143.5 43q-78 0 -133.5 -39t-84.5 -104.5t-29 -143.5q0 -108 61.5 -165.5t185.5 -57.5h247v223z" />
    <glyph glyph-name="uni0670" unicode="&#x670;" horiz-adv-x="0" 
d="M-42 1745h84v373h-84v-373z" />
    <glyph glyph-name="uni0695" unicode="&#x695;" horiz-adv-x="747" 
d="M59 -547q143 0 265 75t194 200.5t72 268.5v654h-133v-640q0 -108 -54 -205t-145.5 -155t-198.5 -58h-63v-140h63zM603 -838l-107 2l-199 -227l-199 227l-107 -2l275 -316h62z" />
    <glyph glyph-name="uni06A1" unicode="&#x6a1;" horiz-adv-x="1781" 
d="M1577 929q-47 87 -130 138t-185 51q-99 0 -180.5 -49t-130.5 -134.5t-55 -191.5q-9 -170 70 -260t236 -90h289v-34q0 -61 -36.5 -111t-98.5 -79t-134 -29h-709q-61 0 -112 30t-81 81.5t-30 112.5v315h-133v-329q0 -96 48 -176t129.5 -127t178.5 -47h709q108 0 200.5 47
t147 127t54.5 174v391q0 103 -47 190zM1227 526q-103 0 -154.5 58.5t-43.5 166.5q8 97 68 167t165 70q67 0 119.5 -35t81 -94.5t28.5 -129.5v-203h-264z" />
    <glyph glyph-name="uni06A1" unicode="&#x8bb;" horiz-adv-x="1781" 
d="M1577 929q-47 87 -130 138t-185 51q-99 0 -180.5 -49t-130.5 -134.5t-55 -191.5q-9 -170 70 -260t236 -90h289v-34q0 -61 -36.5 -111t-98.5 -79t-134 -29h-709q-61 0 -112 30t-81 81.5t-30 112.5v315h-133v-329q0 -96 48 -176t129.5 -127t178.5 -47h709q108 0 200.5 47
t147 127t54.5 174v391q0 103 -47 190zM1227 526q-103 0 -154.5 58.5t-43.5 166.5q8 97 68 167t165 70q67 0 119.5 -35t81 -94.5t28.5 -129.5v-203h-264z" />
    <glyph glyph-name="uni06AA" unicode="&#x6aa;" horiz-adv-x="2105" 
d="M1754 48q82 48 130 130t48 179t-48 179t-130 130t-179 48h-614l475 581l-103 84l-564 -690l51 -109h755q61 0 112.5 -30t81.5 -81t30 -112t-30 -110.5t-81.5 -78t-112.5 -28.5h-1045q-61 0 -112.5 28.5t-81.5 78t-30 110.5v307h-132v-300q0 -99 47.5 -182.5t129.5 -132.5
t179 -49h1045q97 0 179 48z" />
    <glyph glyph-name="uni06B5" unicode="&#x6b5;" horiz-adv-x="1534" 
d="M798 -548q164 0 287.5 74.5t190.5 199.5t67 271v1428h-133v-1414q0 -112 -49 -207.5t-142 -153.5t-221 -58h-97q-127 0 -220.5 58t-142.5 153.5t-49 207.5l1 429h-133v-443q0 -146 66.5 -271t190.5 -199.5t287 -74.5h97zM1583 2047l-107 2l-199 -227l-199 227l-107 -2
l275 -316h62z" />
    <glyph glyph-name="uni06C2" unicode="&#x6c2;" horiz-adv-x="1050" 
d="M717.5 514q57.5 -97 57.5 -174q0 -66 -36.5 -115.5t-93.5 -75.5t-118 -26q-60 0 -117 27t-93.5 76.5t-36.5 113.5q0 106 74 203.5t178 189.5q128 -122 185.5 -219zM245.5 610.5q-99.5 -128.5 -99.5 -270.5q0 -100 54 -180t142 -125.5t185 -45.5q96 0 184 43t142.5 123
t54.5 185q0 268 -411 604l-52 41l-84 -102l79 -66q-95 -78 -194.5 -206.5zM275 1232l441 168l-30 78l-157 -60q-80 -1 -118.5 38t-37.5 96q0 53 34 96t89 44q34 0 61 -10t59 -27q5 -3 7 -4l18 81q-32 19 -66 31t-79 12q-61 0 -108 -32.5t-73 -84t-26 -106.5q0 -62 33 -111.5
t87 -68.5l-163 -63z" />
    <glyph glyph-name="uni06C3" unicode="&#x6c3;" horiz-adv-x="1050" 
d="M717.5 514q57.5 -97 57.5 -174q0 -66 -36.5 -115.5t-93.5 -75.5t-118 -26q-60 0 -117 27t-93.5 76.5t-36.5 113.5q0 106 74 203.5t178 189.5q128 -122 185.5 -219zM245.5 610.5q-99.5 -128.5 -99.5 -270.5q0 -100 54 -180t142 -125.5t185 -45.5q96 0 184 43t142.5 123
t54.5 185q0 268 -411 604l-52 41l-84 -102l79 -66q-95 -78 -194.5 -206.5zM517 1365q-137 -1 -281 0q-1 -66 0 -133h281v133zM780 1365q-144 -1 -281 0v-133h281q1 67 0 133z" />
    <glyph glyph-name="uni06CE" unicode="&#x6ce;" horiz-adv-x="1578" 
d="M1362 146q-88 78 -247 82h-258v227q0 67 31.5 121.5t86.5 86t121 31.5h280v134h-280q-102 0 -187.5 -50t-135 -135t-49.5 -188v-360h388q104 -3 150.5 -50t35.5 -151q-15 -143 -143.5 -222.5t-336.5 -79.5h-120q-127 0 -219.5 57.5t-141 152.5t-48.5 206v438h-133v-452
q0 -146 66.5 -270t189.5 -198t286 -74h120q203 0 335 64t197.5 163.5t80.5 214.5q19 174 -69 252zM529 1048l-107 2l-199 -227l-199 227l-107 -2l275 -316h62z" />
    <glyph glyph-name="uni06D4" unicode="&#x6d4;" horiz-adv-x="729" 
d="M67 0v-98h595v98h-595z" />
    <glyph glyph-name="uni06F0" unicode="&#x6f0;" horiz-adv-x="1014" 
d="M192 300.5q49 -83.5 132.5 -132.5t182.5 -49t182.5 49t132.5 132.5t49 183.5q0 99 -49 182.5t-132.5 132t-182.5 48.5t-182.5 -48.5t-132.5 -132t-49 -182.5q0 -100 49 -183.5zM303.5 601q31.5 54 86 86t119.5 32q63 0 116.5 -32t85 -86t31.5 -117q0 -64 -31.5 -118.5
t-85.5 -86t-118 -31.5t-118 31.5t-85.5 86t-31.5 118.5q0 63 31.5 117z" />
    <glyph glyph-name="uni06F1" unicode="&#x6f1;" horiz-adv-x="519" 
d="M362 614q0 137 -15.5 306.5t-45.5 297.5l-16 67l-135 -31l16 -68q27 -118 42 -279.5t15 -292.5v-614h139v614z" />
    <glyph glyph-name="uni06F2" unicode="&#x6f2;" horiz-adv-x="1013" 
d="M301 1218l-16 67l-135 -31l16 -68q27 -118 42 -279.5t15 -292.5v-614h139v588q0 57 -3 121q22 -40 76.5 -61t119.5 -13q139 18 223 105.5t88 219.5q3 80 -5 143t-30 181q-1 5 -2 7l-136 -26q1 -7 4 -21q18 -99 25 -154.5t5 -125.5q-2 -79 -52.5 -130t-137.5 -61
q-125 -16 -187 105q-17 200 -49 340z" />
    <glyph glyph-name="uni06F3" unicode="&#x6f3;" horiz-adv-x="1501" 
d="M1261.5 746q87.5 89 91.5 218q3 77 -4.5 137.5t-27.5 170.5q-3 15 -4 23l-138 -26q2 -9 5 -26q20 -102 26.5 -154t3.5 -120q-2 -78 -55.5 -129.5t-142.5 -62.5q-108 -14 -174 89q20 45 20 94q3 80 -5 143.5t-30 180.5q-1 5 -1 7l-137 -26q2 -7 4 -21q19 -99 26 -154.5
t4 -125.5q-2 -79 -52 -130t-137 -61q-71 -9 -113.5 21t-70.5 84q-16 200 -49 340l-16 67l-135 -31l16 -68q28 -118 42.5 -279.5t14.5 -292.5v-614h140v592q0 53 -4 115q22 -39 75.5 -59.5t117.5 -12.5q141 18 221 109q46 -57 116 -86t145 -19q140 18 227.5 107z" />
    <glyph glyph-name="uni06F4" unicode="&#x6f4;" horiz-adv-x="1359" 
d="M301 1218l-16 67l-135 -31l16 -68q28 -118 42.5 -279.5t14.5 -292.5v-614h139v597q0 56 -3 121q25 -33 63.5 -63t101.5 -56t153 -42t221 -16q173 0 331 119l-36 126q-162 -107 -295 -106q-95 1 -169.5 53t-74.5 176q1 109 68.5 180t176.5 74q39 1 82 -10.5t102 -39.5
l41 126q-108 61 -219 63q-107 1 -194.5 -49.5t-137.5 -140t-51 -202.5q0 -136 104 -200q-193 36 -280 201q-16 181 -45 307z" />
    <glyph glyph-name="uni06F5" unicode="&#x6f5;" horiz-adv-x="1429" 
d="M629 1289q25 -20 75 -59q154 -121 246.5 -202.5t171.5 -180.5t125 -218.5t46 -262.5q0 -99 -47 -184t-125.5 -135.5t-169.5 -50.5q-78 0 -141 33t-101 92q-78 -125 -248 -125q-92 0 -166.5 49t-116.5 133.5t-42 187.5q0 205 142.5 395.5t365.5 338.5q-18 14 -54 43
q-31 24 -46 36zM1046 165q47 30 77.5 83t30.5 118q0 136 -49.5 246t-135 202t-221.5 202q-208 -143 -340.5 -311t-132.5 -339q0 -101 54 -166t132 -65q92 0 147.5 53.5t55.5 157.5v104h125v-82q0 -54 -14 -107q24 -59 71.5 -92.5t104.5 -33.5q48 0 95 30z" />
    <glyph glyph-name="uni06F6" unicode="&#x6f6;" horiz-adv-x="1069" 
d="M689 705q-91 -29 -170 -28q-93 1 -168.5 54t-75.5 178q1 109 68 180t177 74q90 1 195 -50l40 126q-48 29 -112.5 46t-116.5 17q-108 1 -195 -49.5t-137 -140t-51 -202.5q-1 -121 52 -200.5t134 -116.5t167 -37q74 0 154 34q-244 -263 -382 -552l123 -59q193 408 552 714
l-88 103q-75 -62 -166 -91z" />
    <glyph glyph-name="uni06F7" unicode="&#x6f7;" horiz-adv-x="1265" 
d="M940 808q-100 -225 -164 -438t-73 -373h-142q-13 239 -142.5 583t-310.5 652l116 72q140 -231 246.5 -490.5t162.5 -570.5q55 311 161.5 570.5t246.5 490.5l116 -72q-117 -199 -217 -424z" />
    <glyph glyph-name="uni06F8" unicode="&#x6f8;" horiz-adv-x="1218" 
d="M940 480.5q-100 224.5 -163 433.5t-74 378h-142q-13 -240 -142.5 -584t-310.5 -652l116 -71q140 230 246.5 490t162.5 570q55 -310 161.5 -570t246.5 -490l116 71q-117 200 -217 424.5z" />
    <glyph glyph-name="uni06F9" unicode="&#x6f9;" horiz-adv-x="1086" 
d="M789 757q-55 -44 -110 -60.5t-126 -25.5q-6 -1 -9 -1q-69 -9 -127.5 20t-93 86t-34.5 129q0 67 34.5 125.5t92.5 93t124 34.5q76 0 132.5 -42.5t86.5 -109.5t30 -138v-111zM789 0h139v868q0 108 -47.5 207t-135.5 160.5t-205 61.5q-103 0 -193 -53.5t-143.5 -143.5
t-53.5 -194q-1 -113 55.5 -204t151.5 -138t205 -33q3 0 9 1q63 9 113.5 23.5t104.5 51.5v-607z" />
    <glyph glyph-name="uni2009" unicode="&#x2009;" horiz-adv-x="103" 
 />
    <glyph glyph-name="uni200A" unicode="&#x200a;" horiz-adv-x="103" 
 />
    <glyph glyph-name="uni200B" unicode="&#x200b;" horiz-adv-x="0" 
 />
    <glyph glyph-name="uni200C" unicode="&#x200c;" horiz-adv-x="0" 
 />
    <glyph glyph-name="uni200D" unicode="&#x200d;" horiz-adv-x="0" 
 />
    <glyph glyph-name="uni200E" unicode="&#x200e;" horiz-adv-x="0" 
 />
    <glyph glyph-name="uni200F" unicode="&#x200f;" horiz-adv-x="0" 
 />
    <glyph glyph-name="quoteleft" unicode="&#x2018;" horiz-adv-x="505" 
d="M271 1060l104 394h-114l-131 -394h141z" />
    <glyph glyph-name="quoteright" unicode="&#x2019;" horiz-adv-x="505" 
d="M244 1060l131 394h-141l-104 -394h114z" />
    <glyph glyph-name="quotesinglbase" unicode="&#x201a;" horiz-adv-x="505" 
d="M244 -321l131 394h-141l-104 -394h114z" />
    <glyph glyph-name="quotedblleft" unicode="&#x201c;" horiz-adv-x="785" 
d="M550 1060l105 394h-106l-132 -394h133zM263 1060l104 394h-106l-131 -394h133z" />
    <glyph glyph-name="quotedblright" unicode="&#x201d;" horiz-adv-x="785" 
d="M523 1060l132 394h-133l-105 -394h106zM235 1060l132 394h-133l-104 -394h105z" />
    <glyph glyph-name="quotedblbase" unicode="&#x201e;" horiz-adv-x="785" 
d="M523 -266l132 394h-133l-105 -394h106zM235 -266l132 394h-133l-104 -394h105z" />
    <glyph glyph-name="guilsinglleft" unicode="&#x2039;" horiz-adv-x="874" 
d="M744 279l-477 359l477 360l-62 93l-552 -413v-79l552 -413z" />
    <glyph glyph-name="guilsinglright" unicode="&#x203a;" horiz-adv-x="874" 
d="M744 599v79l-552 413l-62 -93l477 -360l-477 -359l62 -93z" />
    <glyph glyph-name="infinity" unicode="&#x221e;" horiz-adv-x="1599" 
d="M661.5 368q86.5 57 137.5 156q53 -99 139 -156t195 -57q151 0 243.5 82t92.5 237q0 154 -92.5 236.5t-243.5 82.5q-108 0 -194.5 -57t-139.5 -157q-52 100 -138 157t-195 57q-152 0 -244 -82.5t-92 -236.5q0 -155 92 -237t244 -82q109 0 195.5 57zM304 476
q-58 55 -58 154t58 154t167 55q97 0 162 -51.5t113 -156.5q-84 -210 -275 -210q-109 0 -167 55zM967.5 473q-66.5 52 -115.5 154q47 105 113.5 158.5t162.5 53.5q109 0 167 -55t58 -154t-58 -154t-167 -55q-94 0 -160.5 52z" />
    <glyph glyph-name="notequal" unicode="&#x2260;" horiz-adv-x="1092" 
d="M436 89l92 271h434v118h-399l65 189h334v116h-299l92 267h-88l-92 -267h-445v-116h410l-65 -189h-345v-118h310l-93 -271h89z" />
    <glyph glyph-name="lessequal" unicode="&#x2264;" horiz-adv-x="1228" 
d="M1098 346l-812 367l812 366v139l-968 -449v-112l968 -450v139zM1098 0v114h-968v-114h968z" />
    <glyph glyph-name="greaterequal" unicode="&#x2265;" horiz-adv-x="1228" 
d="M1098 657v112l-968 449v-139l811 -366l-811 -367v-139zM1098 0v114h-968v-114h968z" />
    <glyph glyph-name="uniE000" unicode="&#xe000;" horiz-adv-x="0" 
d="M8 0h-253q-1 -51 0 -101h253q1 50 0 101zM245 0h-253q-1 -51 0 -101h253q1 50 0 101zM77 -213h-154v-120h154v120z" />
    <glyph glyph-name="uniE002" unicode="&#xe002;" horiz-adv-x="682" 
d="M-54.5 98q-14.5 -28 0 -56t54.5 -42h169q97 0 179 47t130 127t48 176v329h-133v-315q0 -61 -30 -112.5t-81.5 -81.5t-112.5 -30h-169q-40 -14 -54.5 -42z" />
    <glyph glyph-name="uniE003" unicode="&#xe003;" horiz-adv-x="791" 
d="M-54.5 98q-14.5 -28 0 -56t54.5 -42h169q98 0 174 50t116 133q40 -83 116.5 -133t174.5 -50h41v140h-41q-61 0 -112.5 30t-81.5 81.5t-30 112.5v287h-133v-287q0 -61 -30 -112.5t-81.5 -81.5t-112.5 -30h-169q-40 -14 -54.5 -42z" />
    <glyph glyph-name="uniE006" unicode="&#xe006;" horiz-adv-x="1023" 
d="M-54.5 98q-14.5 -28 0 -56t54.5 -42h509q97 0 179 47t130 127t48 176v329h-133v-315q0 -61 -30 -112.5t-81.5 -81.5t-112.5 -30h-509q-40 -14 -54.5 -42z" />
    <glyph glyph-name="uniE007" unicode="&#xe007;" horiz-adv-x="1022" 
d="M-54.5 98q-14.5 -28 0 -56t54.5 -42h400q97 0 173.5 50t116.5 133q40 -83 116.5 -133t173.5 -50h42v140h-42q-60 0 -111.5 30t-81.5 81.5t-30 112.5v287h-133v-287q0 -61 -30 -112.5t-81.5 -81.5t-112.5 -30h-400q-40 -14 -54.5 -42z" />
    <glyph glyph-name="uniE008" unicode="&#xe008;" horiz-adv-x="1340" 
d="M464 300q-154 -64 -237.5 -182t-80.5 -258q2 -123 61.5 -222.5t163 -157t235.5 -58.5h580v140h-580q-112 0 -193.5 55.5t-113.5 143.5q-42 123 14 237t199 179l731 346l6 139l-219 126.5t-349 195.5q-86 44 -177 34t-165.5 -71.5t-114.5 -163.5l-16 -37l122 -53l16 37
q38 101 116.5 138.5t164.5 -5.5l90 -50q309 -171 395 -215z" />
    <glyph glyph-name="uniE009" unicode="&#xe009;" horiz-adv-x="1413" 
d="M1243 534l6 128l-219 126.5t-349 195.5q-86 44 -177 34t-165.5 -71.5t-114.5 -163.5l-16 -37l122 -53l16 37q38 101 116.5 138.5t164.5 -5.5l90 -50q309 -171 395 -215l-648 -298q-154 -64 -237.5 -182t-80.5 -258q2 -123 61.5 -222.5t163 -157t235.5 -58.5h580v140h-580
q-112 0 -193.5 55.5t-113.5 143.5q-42 123 14 237t199 179l485 232l45 -219q20 -99 98 -144.5t166 -45.5h107v140h-104q-55 0 -104.5 24.5t-62.5 91.5l-43 205z" />
    <glyph glyph-name="uniE021" unicode="&#xe021;" horiz-adv-x="1715" 
d="M1362 47q82 47 130 127.5t48 175.5v1075h-133v-1061q0 -61 -30 -112.5t-81.5 -81.5t-112.5 -30h-670q-61 0 -112 30t-81 81.5t-30 112.5v315h-133v-329q0 -96 48 -176t129.5 -127t178.5 -47h670q97 0 179 47z" />
    <glyph glyph-name="uniE022" unicode="&#xe022;" horiz-adv-x="1825" 
d="M1357 50q76 50 116 133q40 -83 116.5 -133t174.5 -50h61v140h-61q-61 0 -112.5 30t-81.5 81.5t-30 112.5v1061h-133v-1061q0 -61 -30 -112.5t-81.5 -81.5t-112.5 -30h-670q-61 0 -112 30t-81 81.5t-30 112.5v315h-133v-329q0 -96 48 -176t129.5 -127t178.5 -47h670
q98 0 174 50z" />
    <glyph glyph-name="uE024" unicode="&#xe024;" horiz-adv-x="885" 
d="M707.5 45q73.5 -45 160.5 -45h17v140h-17q-75 0 -139 38t-101.5 102.5t-37.5 141.5v229h-133v-640q0 -108 -54 -205t-145.5 -155t-198.5 -58h-63v-140h63q143 0 265 75t194 200.5t72 267.5v170q44 -76 117.5 -121zM603 -838l-107 2l-199 -227l-199 227l-107 -2l275 -316
h62z" />
    <glyph glyph-name="uE025" unicode="&#xe025;" horiz-adv-x="722" 
d="M-54.5 98q-14.5 -28 0 -56t54.5 -42h208q97 0 179 47t130 127t48 176v329h-133v-315q0 -61 -30 -112.5t-81.5 -81.5t-112.5 -30h-208q-40 -14 -54.5 -42zM181.5 1145q26.5 57 69.5 102.5t98 45.5q71 0 106 -45.5t35 -104.5q0 -46 -41.5 -77.5t-103.5 -31.5h-207
q17 54 43.5 111zM49 1034h-52v-83h348q64 0 116.5 25t82.5 69t29 98q0 62 -26 115.5t-77 86t-121 32.5q-116 0 -205 -149v357h-83v-510q-6 -18 -12 -41z" />
    <glyph glyph-name="uE026" unicode="&#xe026;" horiz-adv-x="830" 
d="M-54.5 98q-14.5 -28 0 -56t54.5 -42h208q98 0 174.5 50t115.5 133q40 -83 116.5 -133t174.5 -50h41v140h-41q-61 0 -112.5 30t-81.5 81.5t-30 112.5v287h-133v-287q0 -61 -30 -112.5t-81.5 -81.5t-112.5 -30h-208q-40 -14 -54.5 -42zM181.5 1145q26.5 57 69.5 102.5
t98 45.5q71 0 106 -45.5t35 -104.5q0 -46 -41.5 -77.5t-103.5 -31.5h-207q17 54 43.5 111zM49 1034h-52v-83h348q64 0 116.5 25t82.5 69t29 98q0 62 -26 115.5t-77 86t-121 32.5q-116 0 -205 -149v357h-83v-510q-6 -18 -12 -41z" />
    <glyph glyph-name="uE027" unicode="&#xe027;" horiz-adv-x="1671" 
d="M1671 140h-907v-133h413q53 -3 86 -46t32 -99q-1 -96 -59.5 -156.5t-148 -87t-188.5 -26.5h-203q-127 0 -219 56.5t-139.5 151t-47.5 205.5l-1 441h-132v-455q0 -145 65.5 -268.5t188 -197t285.5 -73.5h203q164 0 284.5 58t182 151t59.5 199q-3 91 -59 140h305v140z
M529 1048l-107 2l-199 -227l-199 227l-107 -2l275 -316h62z" />
    <glyph glyph-name="uE028" unicode="&#xe028;" horiz-adv-x="683" 
d="M-54.5 98q-14.5 -28 0 -56t54.5 -42h169q97 0 179 47t130 127t48 176v329h-133v-315q0 -61 -30 -112.5t-81.5 -81.5t-112.5 -30h-169q-40 -14 -54.5 -42zM126 -370h-281q-1 -67 0 -133h281v133zM389 -370h-281v-133h281q1 66 0 133zM715 1268l-107 2l-199 -227l-199 227
l-107 -2l275 -316h62z" />
    <glyph glyph-name="uE029" unicode="&#xe029;" horiz-adv-x="791" 
d="M-54.5 98q-14.5 -28 0 -56t54.5 -42h169q98 0 174 50t116 133q40 -83 116.5 -133t174.5 -50h41v140h-41q-61 0 -112.5 30t-81.5 81.5t-30 112.5v287h-133v-287q0 -61 -30 -112.5t-81.5 -81.5t-112.5 -30h-169q-40 -14 -54.5 -42zM126 -370h-281q-1 -67 0 -133h281v133z
M389 -370h-281v-133h281q1 66 0 133zM715 1240l-107 2l-199 -227l-199 227l-107 -2l275 -316h62z" />
    <glyph glyph-name="uniFEEA0654" unicode="&#xe030;" horiz-adv-x="1188" 
d="M969.5 56q77.5 -55 174.5 -56h44v140h-45q-72 1 -127 48t-65 119l-108 740l-132 -18l20 -141q-199 3 -335 -62.5t-199.5 -184t-53.5 -273.5q6 -110 74 -183.5t175.5 -98.5t230.5 5t233 116q36 -96 113.5 -151zM814 320q-126 -99 -251.5 -114.5t-203 34t-84.5 138.5
q-10 183 111.5 286t363.5 92zM273 1170l441 168l-30 78l-157 -60q-80 -1 -118.5 38t-37.5 96q0 53 34 96t89 44q34 0 61 -10t59 -27q5 -3 7 -4l18 81q-32 19 -66 31t-79 12q-61 0 -108 -32.5t-73 -84t-26 -106.5q0 -62 33 -111.5t87 -68.5l-163 -63z" />
    <glyph glyph-name="uE060_uFBB5" unicode="&#xe032;" horiz-adv-x="838" 
d="M-54.5 98q-14.5 -28 0 -56t54.5 -42h324q97 0 179 47t130 127t48 176v329h-133v-315q0 -61 -30 -112.5t-81.5 -81.5t-112.5 -30h-324q-40 -14 -54.5 -42zM333 -370h-281q-1 -67 0 -133h281v133zM596 -370h-281v-133h281q1 66 0 133z" />
    <glyph glyph-name="uE061_uFBB5" unicode="&#xe033;" horiz-adv-x="946" 
d="M-54.5 98q-14.5 -28 0 -56t54.5 -42h324q98 0 174.5 50t116.5 133q39 -83 116 -133t174 -50h41v140h-41q-61 0 -112.5 30t-81.5 81.5t-30 112.5v287h-133v-287q0 -61 -30 -112.5t-81.5 -81.5t-112.5 -30h-324q-40 -14 -54.5 -42zM333 -370h-281q-1 -67 0 -133h281v133z
M596 -370h-281v-133h281q1 66 0 133z" />
    <glyph glyph-name="uniE006_uFBB5" unicode="&#xe034;" horiz-adv-x="1023" 
d="M-54.5 98q-14.5 -28 0 -56t54.5 -42h509q97 0 179 47t130 127t48 176v329h-133v-315q0 -61 -30 -112.5t-81.5 -81.5t-112.5 -30h-509q-40 -14 -54.5 -42zM280 -370h-281q-1 -67 0 -133h281v133zM543 -370h-281v-133h281q1 66 0 133z" />
    <glyph glyph-name="uniE007_uFBB5" unicode="&#xe035;" horiz-adv-x="1022" 
d="M-54.5 98q-14.5 -28 0 -56t54.5 -42h400q97 0 173.5 50t116.5 133q40 -83 116.5 -133t173.5 -50h42v140h-42q-60 0 -111.5 30t-81.5 81.5t-30 112.5v287h-133v-287q0 -61 -30 -112.5t-81.5 -81.5t-112.5 -30h-400q-40 -14 -54.5 -42zM280 -370h-281q-1 -67 0 -133h281
v133zM543 -370h-281v-133h281q1 66 0 133z" />
    <glyph glyph-name="uE060_uFBB9" unicode="&#xe036;" horiz-adv-x="838" 
d="M-54.5 98q-14.5 -28 0 -56t54.5 -42h324q97 0 179 47t130 127t48 176v329h-133v-315q0 -61 -30 -112.5t-81.5 -81.5t-112.5 -30h-324q-40 -14 -54.5 -42zM333 -296h-281q-1 -67 0 -133h281v133zM596 -296h-281v-133h281q1 66 0 133zM414 -589h-180v-148h180v148z" />
    <glyph glyph-name="uE061_uFBB9" unicode="&#xe037;" horiz-adv-x="946" 
d="M-54.5 98q-14.5 -28 0 -56t54.5 -42h324q98 0 174.5 50t116.5 133q39 -83 116 -133t174 -50h41v140h-41q-61 0 -112.5 30t-81.5 81.5t-30 112.5v287h-133v-287q0 -61 -30 -112.5t-81.5 -81.5t-112.5 -30h-324q-40 -14 -54.5 -42zM333 -296h-281q-1 -67 0 -133h281v133z
M596 -296h-281v-133h281q1 66 0 133zM414 -589h-180v-148h180v148z" />
    <glyph glyph-name="uniE006_uFBB9" unicode="&#xe038;" horiz-adv-x="1023" 
d="M-54.5 98q-14.5 -28 0 -56t54.5 -42h509q97 0 179 47t130 127t48 176v329h-133v-315q0 -61 -30 -112.5t-81.5 -81.5t-112.5 -30h-509q-40 -14 -54.5 -42zM280 -296h-281q-1 -67 0 -133h281v133zM543 -296h-281v-133h281q1 66 0 133zM361 -589h-180v-148h180v148z" />
    <glyph glyph-name="uniE007_uFBB9" unicode="&#xe039;" horiz-adv-x="1022" 
d="M-54.5 98q-14.5 -28 0 -56t54.5 -42h400q97 0 173.5 50t116.5 133q40 -83 116.5 -133t173.5 -50h42v140h-42q-60 0 -111.5 30t-81.5 81.5t-30 112.5v287h-133v-287q0 -61 -30 -112.5t-81.5 -81.5t-112.5 -30h-400q-40 -14 -54.5 -42zM280 -296h-281q-1 -67 0 -133h281
v133zM543 -296h-281v-133h281q1 66 0 133zM361 -589h-180v-148h180v148z" />
    <glyph glyph-name="uniE002_uFBB3" unicode="&#xe040;" horiz-adv-x="682" 
d="M-54.5 98q-14.5 -28 0 -56t54.5 -42h169q97 0 179 47t130 127t48 176v329h-133v-315q0 -61 -30 -112.5t-81.5 -81.5t-112.5 -30h-169q-40 -14 -54.5 -42zM267 -370h-184v-150h184v150z" />
    <glyph glyph-name="uniE003_uFBB3" unicode="&#xe041;" horiz-adv-x="791" 
d="M-54.5 98q-14.5 -28 0 -56t54.5 -42h169q98 0 174 50t116 133q40 -83 116.5 -133t174.5 -50h41v140h-41q-61 0 -112.5 30t-81.5 81.5t-30 112.5v287h-133v-287q0 -61 -30 -112.5t-81.5 -81.5t-112.5 -30h-169q-40 -14 -54.5 -42zM267 -370h-184v-150h184v150z" />
    <glyph glyph-name="uniFBE8FBB4" unicode="&#xe042;" horiz-adv-x="722" 
d="M-54.5 98q-14.5 -28 0 -56t54.5 -42h208q97 0 179 47t130 127t48 176v329h-133v-315q0 -61 -30 -112.5t-81.5 -81.5t-112.5 -30h-208q-40 -14 -54.5 -42zM327 1118q-137 -1 -281 0q-1 -66 0 -133h281v133zM590 1118q-144 -1 -281 0v-133h281q1 67 0 133z" />
    <glyph glyph-name="uniFBE9FBB4" unicode="&#xe043;" horiz-adv-x="830" 
d="M-54.5 98q-14.5 -28 0 -56t54.5 -42h208q98 0 174.5 50t115.5 133q40 -83 116.5 -133t174.5 -50h41v140h-41q-61 0 -112.5 30t-81.5 81.5t-30 112.5v287h-133v-287q0 -61 -30 -112.5t-81.5 -81.5t-112.5 -30h-208q-40 -14 -54.5 -42zM327 1091q-137 -1 -281 0
q-1 -66 0 -133h281v133zM590 1091q-144 -1 -281 0v-133h281q1 67 0 133z" />
    <glyph glyph-name="uniFBE8FBB6" unicode="&#xe044;" horiz-adv-x="722" 
d="M-54.5 98q-14.5 -28 0 -56t54.5 -42h208q97 0 179 47t130 127t48 176v329h-133v-315q0 -61 -30 -112.5t-81.5 -81.5t-112.5 -30h-208q-40 -14 -54.5 -42zM327 1118q-137 -1 -281 0q-1 -66 0 -133h281v133zM590 1118q-144 -1 -281 0v-133h281q1 67 0 133zM408 1422h-180
v-148h180v148z" />
    <glyph glyph-name="uniFBE9FBB6" unicode="&#xe045;" horiz-adv-x="830" 
d="M-54.5 98q-14.5 -28 0 -56t54.5 -42h208q98 0 174.5 50t115.5 133q40 -83 116.5 -133t174.5 -50h41v140h-41q-61 0 -112.5 30t-81.5 81.5t-30 112.5v287h-133v-287q0 -61 -30 -112.5t-81.5 -81.5t-112.5 -30h-208q-40 -14 -54.5 -42zM327 1091q-137 -1 -281 0
q-1 -66 0 -133h281v133zM590 1091q-144 -1 -281 0v-133h281q1 67 0 133zM408 1395h-180v-148h180v148z" />
    <glyph glyph-name="uE046" unicode="&#xe046;" horiz-adv-x="838" 
d="M-54.5 98q-14.5 -28 0 -56t54.5 -42h324q97 0 179 47t130 127t48 176v329h-133v-315q0 -61 -30 -112.5t-81.5 -81.5t-112.5 -30h-324q-40 -14 -54.5 -42zM333 -370h-281q-1 -67 0 -133h281v133zM596 -370h-281v-133h281q1 66 0 133zM821 1268l-107 2l-199 -227l-199 227
l-107 -2l275 -316h62z" />
    <glyph glyph-name="uE047" unicode="&#xe047;" horiz-adv-x="1023" 
d="M-54.5 98q-14.5 -28 0 -56t54.5 -42h509q97 0 179 47t130 127t48 176v329h-133v-315q0 -61 -30 -112.5t-81.5 -81.5t-112.5 -30h-509q-40 -14 -54.5 -42zM280 -370h-281q-1 -67 0 -133h281v133zM543 -370h-281v-133h281q1 66 0 133zM1006 1254l-107 2l-199 -227l-199 227
l-107 -2l275 -316h62z" />
    <glyph glyph-name="uniE054" unicode="&#xe054;" horiz-adv-x="0" 
d="M209 224v127l-278 -1v80q0 53 37.5 91t90.5 38h145v79h-145q-55 0 -103 -28t-76.5 -76t-28.5 -104v-96q-1 -24 18.5 -43.5t42.5 -19.5h217v-47q0 -51 -37.5 -82t-112 -44t-188.5 -11v-83q418 -5 418 220z" />
    <glyph glyph-name="uE055" unicode="&#xe055;" horiz-adv-x="0" 
d="M-96 1418l3 6q37 99 87 176t125 77q71 0 106 -45.5t35 -104.5q0 -47 -41.5 -78t-103.5 -31h-211zM-234 1514q-26 47 -26 94v42h-83v-42q0 -64 31 -128t81 -105t103 -41h243q64 0 116.5 25.5t82 69.5t29.5 98q0 62 -26 115.5t-77 85.5t-121 32q-113 0 -181.5 -98
t-111.5 -215q-34 20 -60 67z" />
    <glyph glyph-name="farsiyeharab.fina.1" unicode="&#xe056;" horiz-adv-x="1604" 
d="M1604 140h-840v-133h416q52 -3 85.5 -46t32.5 -99q-1 -96 -59.5 -156.5t-148 -87t-188.5 -26.5h-206q-127 0 -219 56.5t-139.5 151t-47.5 205.5l-1 441h-132v-455q0 -145 65.5 -268.5t188 -197t285.5 -73.5h206q164 0 284 58t182 151t60 199q-3 91 -59 140h235v140z" />
    <glyph glyph-name="yeharab.fina.1" unicode="&#xe057;" horiz-adv-x="1604" 
d="M1604 140h-840v-133h416q52 -3 85.5 -46t32.5 -99q-1 -96 -59.5 -156.5t-148 -87t-188.5 -26.5h-206q-127 0 -219 56.5t-139.5 151t-47.5 205.5l-1 441h-132v-455q0 -145 65.5 -268.5t188 -197t285.5 -73.5h206q164 0 284 58t182 151t60 199q-3 91 -59 140h235v140z
M794 -813h-281q-1 -67 0 -133h281v133zM1057 -813h-281v-133h281q1 66 0 133z" />
    <glyph glyph-name="farsiyeharab_u0654" unicode="&#xe058;" horiz-adv-x="1604" 
d="M1604 140h-840v-133h416q52 -3 85.5 -46t32.5 -99q-1 -96 -59.5 -156.5t-148 -87t-188.5 -26.5h-206q-127 0 -219 56.5t-139.5 151t-47.5 205.5l-1 441h-132v-455q0 -145 65.5 -268.5t188 -197t285.5 -73.5h206q164 0 284 58t182 151t60 199q-3 91 -59 140h235v140z
M132 719l441 168l-30 78l-157 -60q-80 -1 -118.5 38t-37.5 96q0 53 34 96t89 44q34 0 61 -10t59 -27q5 -3 7 -4l18 81q-32 19 -66 31t-79 12q-61 0 -108 -32.5t-73 -84t-26 -106.5q0 -62 33 -111.5t87 -68.5l-163 -63z" />
    <glyph glyph-name="uE059" unicode="&#xe059;" horiz-adv-x="1022" 
d="M-54.5 98q-14.5 -28 0 -56t54.5 -42h400q97 0 173.5 50t116.5 133q40 -83 116.5 -133t173.5 -50h42v140h-42q-60 0 -111.5 30t-81.5 81.5t-30 112.5v287h-133v-287q0 -61 -30 -112.5t-81.5 -81.5t-112.5 -30h-400q-40 -14 -54.5 -42zM280 -370h-281q-1 -67 0 -133h281
v133zM543 -370h-281v-133h281q1 66 0 133zM896 1240l-107 2l-199 -227l-199 227l-107 -2l275 -316h62z" />
    <glyph glyph-name="uE060" unicode="&#xe060;" horiz-adv-x="838" 
d="M-54.5 98q-14.5 -28 0 -56t54.5 -42h324q97 0 179 47t130 127t48 176v329h-133v-315q0 -61 -30 -112.5t-81.5 -81.5t-112.5 -30h-324q-40 -14 -54.5 -42z" />
    <glyph glyph-name="uE061" unicode="&#xe061;" horiz-adv-x="946" 
d="M-54.5 98q-14.5 -28 0 -56t54.5 -42h324q98 0 174.5 50t116.5 133q39 -83 116 -133t174 -50h41v140h-41q-61 0 -112.5 30t-81.5 81.5t-30 112.5v287h-133v-287q0 -61 -30 -112.5t-81.5 -81.5t-112.5 -30h-324q-40 -14 -54.5 -42z" />
    <glyph glyph-name="uE062" unicode="&#xe062;" horiz-adv-x="946" 
d="M-54.5 98q-14.5 -28 0 -56t54.5 -42h324q98 0 174.5 50t116.5 133q39 -83 116 -133t174 -50h41v140h-41q-61 0 -112.5 30t-81.5 81.5t-30 112.5v287h-133v-287q0 -61 -30 -112.5t-81.5 -81.5t-112.5 -30h-324q-40 -14 -54.5 -42zM333 -370h-281q-1 -67 0 -133h281v133z
M596 -370h-281v-133h281q1 66 0 133zM821 1240l-107 2l-199 -227l-199 227l-107 -2l275 -316h62z" />
    <glyph glyph-name="uE066" unicode="&#xe066;" horiz-adv-x="1442" 
d="M565 34l-250 918q-16 59 12.5 114t86.5 76q61 22 120.5 -6t81.5 -89l159 -439l120 -12l381 636l-113 68l-309 -516l-113 309q-44 110 -144.5 160t-214.5 18q-114 -38 -169 -137.5t-26 -216.5l249 -917z" />
    <glyph glyph-name="uE067" unicode="&#xe067;" horiz-adv-x="1242" 
d="M613.5 7q199.5 4 391.5 69l63 20l-42 126l-63 -21q-172 -57 -342.5 -61t-313.5 45q12 212 120 431t214 362.5t171 215.5l1 1l-99 89q-74 -83 -187.5 -236.5t-228.5 -393.5t-124 -477l69 -112q171 -62 370.5 -58z" />
    <glyph glyph-name="uniE069" unicode="&#xe069;" horiz-adv-x="656" 
d="M-54.5 98q-14.5 -28 0 -56t54.5 -42h38q97 0 173.5 50t116.5 133q40 -83 116.5 -133t173.5 -50h38v140h-38q-61 0 -112 30t-81.5 81.5t-30.5 112.5v803h-132v-803q0 -61 -30.5 -112.5t-81.5 -81.5t-112 -30h-38q-40 -14 -54.5 -42z" />
    <glyph glyph-name="uE070" unicode="&#xe070;" horiz-adv-x="810" 
d="M-54.5 98q-14.5 -28 0 -56t54.5 -42h297q97 0 178.5 47t129.5 127.5t48 175.5v329h-132v-315q0 -61 -30.5 -112.5t-81.5 -81.5t-112 -30h-297q-40 -14 -54.5 -42zM84 -296h-281q-1 -67 0 -133h281v133zM347 -296h-281v-133h281q1 66 0 133zM165 -589h-180v-148h180v148z
" />
    <glyph glyph-name="uE071" unicode="&#xe071;" horiz-adv-x="919" 
d="M-54.5 98q-14.5 -28 0 -56t54.5 -42h297q97 0 173.5 50t116.5 133q40 -83 116.5 -133t173.5 -50h42v140h-42q-61 0 -112.5 30t-81.5 81.5t-30 112.5v287h-132v-287q0 -61 -30.5 -112.5t-81.5 -81.5t-112 -30h-297q-40 -14 -54.5 -42zM84 -296h-281q-1 -67 0 -133h281v133
zM347 -296h-281v-133h281q1 66 0 133zM165 -589h-180v-148h180v148z" />
    <glyph glyph-name="uE072" unicode="&#xe072;" horiz-adv-x="810" 
d="M-54.5 98q-14.5 -28 0 -56t54.5 -42h297q97 0 178.5 47t129.5 127.5t48 175.5v329h-132v-315q0 -61 -30.5 -112.5t-81.5 -81.5t-112 -30h-297q-40 -14 -54.5 -42zM84 -370h-281q-1 -67 0 -133h281v133zM347 -370h-281v-133h281q1 66 0 133z" />
    <glyph glyph-name="uE073" unicode="&#xe073;" horiz-adv-x="919" 
d="M-54.5 98q-14.5 -28 0 -56t54.5 -42h297q97 0 173.5 50t116.5 133q40 -83 116.5 -133t173.5 -50h42v140h-42q-61 0 -112.5 30t-81.5 81.5t-30 112.5v287h-132v-287q0 -61 -30.5 -112.5t-81.5 -81.5t-112 -30h-297q-40 -14 -54.5 -42zM84 -370h-281q-1 -67 0 -133h281v133
zM347 -370h-281v-133h281q1 66 0 133z" />
    <glyph glyph-name="uE074" unicode="&#xe074;" horiz-adv-x="810" 
d="M-54.5 98q-14.5 -28 0 -56t54.5 -42h297q97 0 178.5 47t129.5 127.5t48 175.5v329h-132v-315q0 -61 -30.5 -112.5t-81.5 -81.5t-112 -30h-297q-40 -14 -54.5 -42zM84 -370h-281q-1 -67 0 -133h281v133zM347 -370h-281v-133h281q1 66 0 133zM793 1281l-107 2l-199 -227
l-199 227l-107 -2l275 -316h62z" />
    <glyph glyph-name="uE075" unicode="&#xe075;" horiz-adv-x="919" 
d="M-54.5 98q-14.5 -28 0 -56t54.5 -42h297q97 0 173.5 50t116.5 133q40 -83 116.5 -133t173.5 -50h42v140h-42q-61 0 -112.5 30t-81.5 81.5t-30 112.5v287h-132v-287q0 -61 -30.5 -112.5t-81.5 -81.5t-112 -30h-297q-40 -14 -54.5 -42zM84 -370h-281q-1 -67 0 -133h281v133
zM347 -370h-281v-133h281q1 66 0 133zM793 1254l-107 2l-199 -227l-199 227l-107 -2l275 -316h62z" />
    <glyph glyph-name="uE076" unicode="&#xe076;" horiz-adv-x="810" 
d="M-54.5 98q-14.5 -28 0 -56t54.5 -42h297q97 0 178.5 47t129.5 127.5t48 175.5v329h-132v-315q0 -61 -30.5 -112.5t-81.5 -81.5t-112 -30h-297q-40 -14 -54.5 -42z" />
    <glyph glyph-name="uE077" unicode="&#xe077;" horiz-adv-x="919" 
d="M-54.5 98q-14.5 -28 0 -56t54.5 -42h297q97 0 173.5 50t116.5 133q40 -83 116.5 -133t173.5 -50h42v140h-42q-61 0 -112.5 30t-81.5 81.5t-30 112.5v287h-132v-287q0 -61 -30.5 -112.5t-81.5 -81.5t-112 -30h-297q-40 -14 -54.5 -42z" />
    <glyph glyph-name="uE078" unicode="&#xe078;" horiz-adv-x="1802" 
d="M1553.5 114.5q98.5 114.5 98.5 335.5q0 119 -53.5 208.5t-143 137.5t-192.5 48q-103 1 -193 -49t-143 -137t-53 -191q1 -97 52 -182t146 -145h-559q-61 0 -112 30t-81 81.5t-30 112.5v288h-133v-302q0 -96 48 -176t129.5 -127t178.5 -47h773q169 0 267.5 114.5z
M1071 278.5q-63 83.5 -64 189.5q0 68 35.5 124t94.5 88.5t126 31.5q65 0 124 -28.5t95.5 -88t36.5 -145.5q0 -120 -50 -212.5t-182 -96.5q-153 54 -216 137.5z" />
    <glyph glyph-name="uE079" unicode="&#xe079;" horiz-adv-x="1101" 
d="M373 278.5q-63 83.5 -64 189.5q0 68 35.5 124t94.5 88.5t126 31.5q66 0 124.5 -28.5t95.5 -88t37 -145.5q0 -120 -50.5 -212.5t-181.5 -96.5q-154 54 -217 137.5zM-54.5 98q-14.5 -28 0 -56t54.5 -42h585q170 0 270 114t100 336q0 119 -54 208.5t-143 137.5t-193 48
q-103 1 -192.5 -49t-143 -137t-52.5 -191q0 -97 51 -182t147 -145h-375q-40 -14 -54.5 -42z" />
    <glyph glyph-name="uE080" unicode="&#xe080;" horiz-adv-x="822" 
d="M135 -547q143 0 265 75.5t193.5 201.5t71.5 270v651h-133v-640q0 -108 -53.5 -205t-145 -155t-198.5 -58h-135v-140h135z" />
    <glyph glyph-name="uE081" unicode="&#xe081;" horiz-adv-x="961" 
d="M135 -547q143 0 265 75t193.5 201t71.5 271v167q45 -76 119.5 -121.5t162.5 -45.5h14v140h-14q-76 0 -141 38t-103 102.5t-38 141.5v229h-133v-640q0 -108 -53.5 -205t-145 -155t-198.5 -58h-135v-140h135z" />
    <glyph glyph-name="uE082" unicode="&#xe082;" horiz-adv-x="822" 
d="M135 -547q143 0 265 75.5t193.5 201.5t71.5 270v651h-133v-640q0 -108 -53.5 -205t-145 -155t-198.5 -58h-135v-140h135zM691 1108h-184v-150h184v150z" />
    <glyph glyph-name="uE083" unicode="&#xe083;" horiz-adv-x="961" 
d="M135 -547q143 0 265 75t193.5 201t71.5 271v167q45 -76 119.5 -121.5t162.5 -45.5h14v140h-14q-76 0 -141 38t-103 102.5t-38 141.5v229h-133v-640q0 -108 -53.5 -205t-145 -155t-198.5 -58h-135v-140h135zM691 1108h-184v-150h184v150z" />
    <glyph glyph-name="uE084" unicode="&#xe084;" horiz-adv-x="822" 
d="M135 -547q143 0 265 75.5t193.5 201.5t71.5 270v651h-133v-640q0 -108 -53.5 -205t-145 -155t-198.5 -58h-135v-140h135zM608 1091q-137 -1 -281 0q-1 -66 0 -133h281v133zM871 1091q-144 -1 -281 0v-133h281q1 67 0 133zM689 1395h-180v-148h180v148z" />
    <glyph glyph-name="uE085" unicode="&#xe085;" horiz-adv-x="961" 
d="M135 -547q143 0 265 75t193.5 201t71.5 271v167q45 -76 119.5 -121.5t162.5 -45.5h14v140h-14q-76 0 -141 38t-103 102.5t-38 141.5v229h-133v-640q0 -108 -53.5 -205t-145 -155t-198.5 -58h-135v-140h135zM608 1091q-137 -1 -281 0q-1 -66 0 -133h281v133zM871 1091
q-144 -1 -281 0v-133h281q1 67 0 133zM689 1395h-180v-148h180v148z" />
    <glyph glyph-name="uE086" unicode="&#xe086;" horiz-adv-x="822" 
d="M135 -547q143 0 265 75.5t193.5 201.5t71.5 270v651h-133v-640q0 -108 -53.5 -205t-145 -155t-198.5 -58h-135v-140h135zM495.5 1152q26.5 57 69.5 102.5t98 45.5q71 0 106 -45.5t35 -104.5q0 -46 -41.5 -77.5t-103.5 -31.5h-207q17 54 43.5 111zM363 1041h-52v-83h348
q64 0 116.5 25t82.5 69t29 98q0 62 -26 115.5t-77 86t-121 32.5q-116 0 -205 -149v357h-83v-510q-6 -18 -12 -41z" />
    <glyph glyph-name="uE087" unicode="&#xe087;" horiz-adv-x="961" 
d="M135 -547q143 0 265 75t193.5 201t71.5 271v167q45 -76 119.5 -121.5t162.5 -45.5h14v140h-14q-76 0 -141 38t-103 102.5t-38 141.5v229h-133v-640q0 -108 -53.5 -205t-145 -155t-198.5 -58h-135v-140h135zM495.5 1152q26.5 57 69.5 102.5t98 45.5q71 0 106 -45.5
t35 -104.5q0 -46 -41.5 -77.5t-103.5 -31.5h-207q17 54 43.5 111zM363 1041h-52v-83h348q64 0 116.5 25t82.5 69t29 98q0 62 -26 115.5t-77 86t-121 32.5q-116 0 -205 -149v357h-83v-510q-6 -18 -12 -41z" />
    <glyph glyph-name="uE088" unicode="&#xe088;" horiz-adv-x="822" 
d="M135 -547q143 0 265 75.5t193.5 201.5t71.5 270v651h-133v-640q0 -108 -53.5 -205t-145 -155t-198.5 -58h-135v-140h135zM645 -838l-107 2l-199 -227l-199 227l-107 -2l275 -316h62z" />
    <glyph glyph-name="uE089" unicode="&#xe089;" horiz-adv-x="961" 
d="M135 -547q143 0 265 75t193.5 201t71.5 271v167q45 -76 119.5 -121.5t162.5 -45.5h14v140h-14q-76 0 -141 38t-103 102.5t-38 141.5v229h-133v-640q0 -108 -53.5 -205t-145 -155t-198.5 -58h-135v-140h135zM645 -838l-107 2l-199 -227l-199 227l-107 -2l275 -316h62z" />
    <glyph glyph-name="uE090" unicode="&#xe090;" horiz-adv-x="1608" 
d="M798 -548q163 0 286.5 74t190.5 198t68 270v132q38 -58 96.5 -92.5t127.5 -34.5h41v140h-41q-61 0 -112.5 30t-81.5 81.5t-30 112.5v1062h-133v-1414q0 -112 -49 -207.5t-142 -153.5t-221 -58h-97q-127 0 -220.5 58t-142.5 153.5t-49 207.5l1 429h-133v-443
q0 -146 66.5 -271t190.5 -199.5t287 -74.5h97zM1581 2047l-107 2l-199 -227l-199 227l-107 -2l275 -316h62z" />
    <glyph glyph-name="uE091" unicode="&#xe091;" horiz-adv-x="635" 
d="M-54.5 98q-14.5 -28 0 -56t54.5 -42h93q97 0 179 48t129.5 130t47.5 179v1068h-132v-1061q0 -61 -30.5 -112.5t-81.5 -81.5t-112 -30h-93q-40 -14 -54.5 -42zM689 2047l-107 2l-199 -227l-199 227l-107 -2l275 -316h62z" />
    <glyph glyph-name="uE092" unicode="&#xe092;" horiz-adv-x="715" 
d="M-54.5 98q-14.5 -28 0 -56t54.5 -42h93q97 0 173.5 50t116.5 133q40 -83 116.5 -133t173.5 -50h42v140h-42q-61 0 -112 30t-81.5 81.5t-30.5 112.5v1061h-132v-1061q0 -61 -30.5 -112.5t-81.5 -81.5t-112 -30h-93q-40 -14 -54.5 -42zM689 2047l-107 2l-199 -227l-199 227
l-107 -2l275 -316h62z" />
    <glyph glyph-name="uniE094" unicode="&#xe094;" horiz-adv-x="0" 
d="M83.5 206q-54.5 26 -136.5 -9v29q0 60 39 106.5t100 56.5l58 8l-15 104l-35 -7q-111 -20 -179.5 -99.5t-69.5 -184.5v-84q0 -55 41.5 -93t103.5 -38q63 0 105.5 35t42.5 89q0 61 -54.5 87z" />
    <glyph glyph-name="uE098" unicode="&#xe098;" horiz-adv-x="2197" 
d="M1746 47q78 47 119 124q42 -77 119.5 -124t171.5 -47h41v140h-41q-62 0 -113 28.5t-81 78t-30 110.5q0 97 -48 179t-130 130t-179 48h-614l475 581l-103 84l-564 -690l51 -109h755q61 0 112.5 -30t81.5 -81t30 -112t-30 -110.5t-81.5 -78t-112.5 -28.5h-1045
q-61 0 -112.5 28.5t-81.5 78t-30 110.5v307h-132v-300q0 -99 47.5 -182.5t129.5 -132.5t179 -49h1045q93 0 171 47z" />
    <glyph glyph-name="uE099" unicode="&#xe099;" horiz-adv-x="1515" 
d="M-54.5 98q-14.5 -28 0 -56t54.5 -42h984q97 0 179 48t130 130t48 179t-48 179t-130 130t-179 48h-614l475 581l-102 84l-564 -690l51 -109h754q61 0 112.5 -30t81.5 -81t30 -112t-30 -110.5t-81 -78t-113 -28.5h-984q-40 -14 -54.5 -42z" />
    <glyph glyph-name="uE0A0" unicode="&#xe0a0;" horiz-adv-x="1606" 
d="M-54.5 98q-14.5 -28 0 -56t54.5 -42h984q93 0 171 47t120 124q41 -77 119 -124t171 -47h41v140h-41q-61 0 -112.5 28.5t-81.5 78t-30 110.5q0 97 -48 179t-130 130t-179 48h-614l475 581l-102 84l-564 -690l51 -109h754q61 0 112.5 -30t81.5 -81t30 -112t-30 -110.5
t-81 -78t-113 -28.5h-984q-40 -14 -54.5 -42z" />
    <glyph glyph-name="uE100" unicode="&#xe100;" horiz-adv-x="1802" 
d="M1553.5 114.5q98.5 114.5 98.5 335.5q0 119 -53.5 208.5t-143 137.5t-192.5 48q-103 1 -193 -49t-143 -137t-53 -191q1 -97 52 -182t146 -145h-559q-61 0 -112 30t-81 81.5t-30 112.5v288h-133v-302q0 -96 48 -176t129.5 -127t178.5 -47h773q169 0 267.5 114.5z
M1071 278.5q-63 83.5 -64 189.5q0 68 35.5 124t94.5 88.5t126 31.5q65 0 124 -28.5t95.5 -88t36.5 -145.5q0 -120 -50 -212.5t-182 -96.5q-153 54 -216 137.5zM1355 1269h-184v-150h184v150z" />
    <glyph glyph-name="uE101" unicode="&#xe101;" horiz-adv-x="1101" 
d="M373 278.5q-63 83.5 -64 189.5q0 68 35.5 124t94.5 88.5t126 31.5q66 0 124.5 -28.5t95.5 -88t37 -145.5q0 -120 -50.5 -212.5t-181.5 -96.5q-154 54 -217 137.5zM-54.5 98q-14.5 -28 0 -56t54.5 -42h585q170 0 270 114t100 336q0 119 -54 208.5t-143 137.5t-193 48
q-103 1 -192.5 -49t-143 -137t-52.5 -191q0 -97 51 -182t147 -145h-375q-40 -14 -54.5 -42zM657 1269h-184v-150h184v150z" />
    <glyph glyph-name="uE102" unicode="&#xe102;" horiz-adv-x="1101" 
d="M373 278.5q-63 83.5 -64 189.5q0 68 35.5 124t94.5 88.5t126 31.5q66 0 124.5 -28.5t95.5 -88t37 -145.5q0 -120 -50.5 -212.5t-181.5 -96.5q-154 54 -217 137.5zM-54.5 98q-14.5 -28 0 -56t54.5 -42h585q170 0 270 114t100 336q0 119 -54 208.5t-143 137.5t-193 48
q-103 1 -192.5 -49t-143 -137t-52.5 -191q0 -97 51 -182t147 -145h-375q-40 -14 -54.5 -42zM574 1252q-137 -1 -281 0q-1 -66 0 -133h281v133zM837 1252q-144 -1 -281 0v-133h281q1 67 0 133z" />
    <glyph glyph-name="uE103" unicode="&#xe103;" horiz-adv-x="1802" 
d="M1553.5 114.5q98.5 114.5 98.5 335.5q0 119 -53.5 208.5t-143 137.5t-192.5 48q-103 1 -193 -49t-143 -137t-53 -191q1 -97 52 -182t146 -145h-559q-61 0 -112 30t-81 81.5t-30 112.5v288h-133v-302q0 -96 48 -176t129.5 -127t178.5 -47h773q169 0 267.5 114.5z
M1071 278.5q-63 83.5 -64 189.5q0 68 35.5 124t94.5 88.5t126 31.5q65 0 124 -28.5t95.5 -88t36.5 -145.5q0 -120 -50 -212.5t-182 -96.5q-153 54 -216 137.5zM1279 1252q-137 -1 -281 0q-1 -66 0 -133h281v133zM1542 1252q-144 -1 -281 0v-133h281q1 67 0 133zM1360 1556
h-180v-148h180v148z" />
    <glyph glyph-name="uE104" unicode="&#xe104;" horiz-adv-x="1101" 
d="M373 278.5q-63 83.5 -64 189.5q0 68 35.5 124t94.5 88.5t126 31.5q66 0 124.5 -28.5t95.5 -88t37 -145.5q0 -120 -50.5 -212.5t-181.5 -96.5q-154 54 -217 137.5zM-54.5 98q-14.5 -28 0 -56t54.5 -42h585q170 0 270 114t100 336q0 119 -54 208.5t-143 137.5t-193 48
q-103 1 -192.5 -49t-143 -137t-52.5 -191q0 -97 51 -182t147 -145h-375q-40 -14 -54.5 -42zM574 1252q-137 -1 -281 0q-1 -66 0 -133h281v133zM837 1252q-144 -1 -281 0v-133h281q1 67 0 133zM655 1556h-180v-148h180v148z" />
    <glyph glyph-name="uE105" unicode="&#xe105;" horiz-adv-x="0" 
d="M86 -3h-172q-1 -70 0 -141h172q1 71 0 141z" />
    <glyph glyph-name="uE106" unicode="&#xe106;" horiz-adv-x="1605" 
d="M1604 140h-840v-133h416q52 -3 85.5 -46t32.5 -99q-1 -96 -59.5 -156.5t-148 -87t-188.5 -26.5h-206q-127 0 -219 56.5t-139.5 151t-47.5 205.5l-1 441h-132v-455q0 -145 65.5 -268.5t188 -197t285.5 -73.5h206q164 0 284 58t182 151t60 199q-3 91 -59 140h235v140z
M529 1063l-107 2l-199 -227l-199 227l-107 -2l275 -316h62z" />
    <glyph glyph-name="uE107" unicode="&#xe107;" horiz-adv-x="1649" 
d="M1311.5 730q86.5 -53 134 -148.5t47.5 -218.5v-351q0 -166 -72.5 -293t-202 -196.5t-296.5 -69.5h-221q-163 0 -287 74.5t-190.5 199t-66.5 270.5v449h132v-435q0 -112 49 -207.5t142.5 -153t220.5 -57.5h221q205 0 321 108t116 299h-246q-187 0 -283.5 96t-96.5 267
q0 121 48.5 217t135 149.5t196.5 53.5q112 0 198.5 -53zM1360 363q0 71 -24 136t-79.5 108t-143.5 43q-78 0 -133.5 -39t-84.5 -104.5t-29 -143.5q0 -108 61.5 -165.5t185.5 -57.5h247v223zM1127 1191q-137 -1 -281 0q-1 -66 0 -133h281v133zM1390 1191q-144 -1 -281 0v-133
h281q1 67 0 133z" />
    <glyph glyph-name="uE108" unicode="&#xe108;" horiz-adv-x="0" 
d="M8 0h-223q-1 -51 0 -98h223q1 47 0 98zM215 0h-223q-1 -51 0 -98h223q1 47 0 98zM77 -204h-154v-119h154v119z" />
    <glyph glyph-name="uE109" unicode="&#xe109;" horiz-adv-x="1185" 
d="M324 344v896h-133v-896h133zM191 140v-140h446q97 0 179 48t130 130t48 179v1068h-133v-1061q0 -61 -30.5 -112.5t-81.5 -81.5t-112 -30h-446zM167 1559l3 6q37 99 87 176t125 77q71 0 106 -45.5t35 -104.5q0 -47 -41.5 -78t-103.5 -31h-211zM29 1655q-26 47 -26 94v42
h-83v-42q0 -64 31 -128t81 -105t103 -41h243q64 0 116.5 25.5t82 69.5t29.5 98q0 62 -26 115.5t-77 85.5t-121 32q-113 0 -181.5 -98t-111.5 -215q-34 20 -60 67z" />
    <glyph glyph-name="uE110" unicode="&#xe110;" horiz-adv-x="1259" 
d="M1259 140h-42q-61 0 -112 30t-81 81.5t-30 112.5v1061h-133v-1061q0 -61 -30.5 -112.5t-81.5 -81.5t-112 -30h-446v-140h446q97 0 173.5 50t116.5 133q40 -83 116.5 -133t173.5 -50h42v140zM324 344v896h-133v-896h133zM167 1559l3 6q37 99 87 176t125 77q71 0 106 -45.5
t35 -104.5q0 -47 -41.5 -78t-103.5 -31h-211zM29 1655q-26 47 -26 94v42h-83v-42q0 -64 31 -128t81 -105t103 -41h243q64 0 116.5 25.5t82 69.5t29.5 98q0 62 -26 115.5t-77 85.5t-121 32q-113 0 -181.5 -98t-111.5 -215q-34 20 -60 67z" />
    <glyph glyph-name="uE111" unicode="&#xe111;" horiz-adv-x="1185" 
d="M324 344v896h-133v-896h133zM191 140v-140h446q97 0 179 48t130 130t48 179v1068h-133v-1061q0 -61 -30.5 -112.5t-81.5 -81.5t-112 -30h-446zM48 1424l503 199l-31 77l-503 -199zM-55 1712l503 199l-31 77l-503 -199z" />
    <glyph glyph-name="uE112" unicode="&#xe112;" horiz-adv-x="1259" 
d="M1259 140h-42q-61 0 -112 30t-81 81.5t-30 112.5v1061h-133v-1061q0 -61 -30.5 -112.5t-81.5 -81.5t-112 -30h-446v-140h446q97 0 173.5 50t116.5 133q40 -83 116.5 -133t173.5 -50h42v140zM324 344v896h-133v-896h133zM48 1424l503 199l-31 77l-503 -199zM-55 1712
l503 199l-31 77l-503 -199z" />
    <glyph glyph-name="uE113" unicode="&#xe113;" horiz-adv-x="1184" 
d="M324 344v896h-133v-896h133zM191 140v-140h446q97 0 179 48t130 130t48 179v1068h-133v-1061q0 -61 -30.5 -112.5t-81.5 -81.5t-112 -30h-446zM1233 2047l-107 2l-199 -227l-199 227l-106 -2l274 -316h63z" />
    <glyph glyph-name="uE114" unicode="&#xe114;" horiz-adv-x="1259" 
d="M1259 140h-42q-61 0 -112 30t-81 81.5t-30 112.5v1061h-133v-1061q0 -61 -30.5 -112.5t-81.5 -81.5t-112 -30h-446v-140h446q97 0 173.5 50t116.5 133q40 -83 116.5 -133t173.5 -50h42v140zM324 344v896h-133v-896h133zM1233 2047l-107 2l-199 -227l-199 227l-106 -2
l274 -316h63z" />
    <glyph glyph-name="uE124" unicode="&#xe124;" horiz-adv-x="1185" 
d="M324 344v896h-133v-896h133zM191 140v-140h446q97 0 179 48t130 130t48 179v1068h-133v-1061q0 -61 -30.5 -112.5t-81.5 -81.5t-112 -30h-446zM170 1559l3 6q37 99 87 176t125 77q71 0 106 -45.5t35 -104.5q0 -47 -41.5 -78t-103.5 -31h-211zM32 1655q-26 47 -26 94v42
h-83v-42q0 -64 31 -128t81 -105t103 -41h243q64 0 116.5 25.5t82 69.5t29.5 98q0 62 -26 115.5t-77 85.5t-121 32q-113 0 -181.5 -98t-111.5 -215q-34 20 -60 67zM1234 2047l-107 2l-199 -227l-199 227l-107 -2l275 -316h62z" />
    <glyph glyph-name="uE125" unicode="&#xe125;" horiz-adv-x="1259" 
d="M1259 140h-42q-61 0 -112 30t-81 81.5t-30 112.5v1061h-133v-1061q0 -61 -30.5 -112.5t-81.5 -81.5t-112 -30h-446v-140h446q97 0 173.5 50t116.5 133q40 -83 116.5 -133t173.5 -50h42v140zM324 344v896h-133v-896h133zM170 1559l3 6q37 99 87 176t125 77q71 0 106 -45.5
t35 -104.5q0 -47 -41.5 -78t-103.5 -31h-211zM32 1655q-26 47 -26 94v42h-83v-42q0 -64 31 -128t81 -105t103 -41h243q64 0 116.5 25.5t82 69.5t29.5 98q0 62 -26 115.5t-77 85.5t-121 32q-113 0 -181.5 -98t-111.5 -215q-34 20 -60 67zM1234 2047l-107 2l-199 -227
l-199 227l-107 -2l275 -316h62z" />
    <glyph glyph-name="uE126" unicode="&#xe126;" horiz-adv-x="1185" 
d="M324 344v896h-133v-896h133zM191 140v-140h446q97 0 179 48t130 130t48 179v1068h-133v-1061q0 -61 -30.5 -112.5t-81.5 -81.5t-112 -30h-446zM51 1424l503 199l-31 77l-503 -199zM-52 1712l503 199l-31 77l-503 -199zM1234 2047l-107 2l-199 -227l-199 227l-107 -2
l275 -316h62z" />
    <glyph glyph-name="uniE127" unicode="&#xe127;" horiz-adv-x="0" 
d="M260 1564l-31 80l-581 -217l1 -90z" />
    <glyph glyph-name="uE128" unicode="&#xe128;" horiz-adv-x="1259" 
d="M1259 140h-42q-61 0 -112 30t-81 81.5t-30 112.5v1061h-133v-1061q0 -61 -30.5 -112.5t-81.5 -81.5t-112 -30h-446v-140h446q97 0 173.5 50t116.5 133q40 -83 116.5 -133t173.5 -50h42v140zM324 344v896h-133v-896h133zM51 1424l503 199l-31 77l-503 -199zM-52 1712
l503 199l-31 77l-503 -199zM1234 2047l-107 2l-199 -227l-199 227l-107 -2l275 -316h62z" />
    <glyph glyph-name="uE130" unicode="&#xe130;" horiz-adv-x="0" 
d="M-71 -131h141v131h-141v-131z" />
    <glyph glyph-name="uE1A0" unicode="&#xe1a0;" 
d="M1201 166q148 188 148 523q0 379 -139 572.5t-460 192.5q-217 0 -349.5 -89t-191 -258t-58.5 -418q0 -335 148 -523t451 -188t451 188zM414 268q-107 156 -107 421q0 155 22 271t73.5 196t137.5 122t210 42t210 -42t137.5 -122t73.5 -196t22 -271q0 -265 -107 -421
t-336 -156t-336 156z" />
    <glyph glyph-name="uE1A1" unicode="&#xe1a1;" 
d="M941 0v1454l-382 -59v-134l226 41v-1302h156z" />
    <glyph glyph-name="uE1A2" unicode="&#xe1a2;" 
d="M1193 0v125h-689q35 94 100.5 170.5t168.5 169.5q18 17 49 43q29 25 43 39q149 127 231 243.5t82 269.5q0 188 -120 291t-344 103q-94 0 -190 -16.5t-162 -44.5v-134q160 61 331 61q163 0 246 -76t83 -202q0 -108 -53 -195t-175 -198q-40 -37 -88 -80
q-152 -131 -250.5 -241t-148.5 -239v-89h886z" />
    <glyph glyph-name="uE1A3" unicode="&#xe1a3;" 
d="M1062.5 82.5q138.5 104.5 138.5 308.5q0 138 -74 223t-205 115q122 35 185 132.5t63 215.5q0 175 -121.5 276t-367.5 101q-95 0 -195 -17t-162 -43v-126q165 62 338 62q181 0 266.5 -66.5t85.5 -197.5q0 -136 -82.5 -210t-246.5 -74h-169l-16 -111h202q164 0 253.5 -67.5
t89.5 -204.5q0 -150 -97 -223.5t-291 -73.5q-98 0 -186 15t-172 47v-126q64 -25 170.5 -42.5t204.5 -17.5q250 0 388.5 104.5z" />
    <glyph glyph-name="uE1A4" unicode="&#xe1a4;" 
d="M1125 0v337h152v129h-152v966h-142l-760 -971v-124h746v-337h156zM989 1251v-789h-620z" />
    <glyph glyph-name="uE1A5" unicode="&#xe1a5;" 
d="M1066 95q135 117 135 330q0 230 -124 329t-359 94h-281l30 459h613l15 125h-758l-38 -590v-108h405q191 0 266 -72t75 -233q0 -158 -97.5 -242t-284.5 -84q-98 0 -188 15.5t-169 45.5v-127q65 -27 168.5 -43t204.5 -16q252 0 387 117z" />
    <glyph glyph-name="uE1A6" unicode="&#xe1a6;" 
d="M1131.5 102.5q130.5 124.5 130.5 341.5q0 225 -120 340.5t-360 115.5q-96 0 -201.5 -32.5t-194.5 -96.5v120q0 194 110.5 318.5t314.5 124.5q190 0 317 -48v123q-63 24 -144.5 34.5t-184.5 10.5q-257 0 -409 -161.5t-152 -429.5v-343q0 -279 128.5 -410.5t385.5 -131.5
q249 0 379.5 124.5zM477 187.5q-91 92.5 -91 282.5v185q78 58 177.5 93t191.5 35q196 0 280.5 -87.5t84.5 -254.5q0 -161 -94 -253.5t-275 -92.5q-183 0 -274 92.5z" />
    <glyph glyph-name="uE1A7" unicode="&#xe1a7;" 
d="M652 0l556 1317v115h-916v-125h754l-552 -1307h158z" />
    <glyph glyph-name="uE1A8" unicode="&#xe1a8;" 
d="M1143.5 78.5q135.5 100.5 135.5 296.5q0 136 -71.5 221t-226.5 122q135 43 196.5 132.5t61.5 208.5q0 122 -53.5 210.5t-163 136.5t-272.5 48q-240 0 -364.5 -105t-124.5 -290q0 -110 59.5 -195t184.5 -123q-138 -36 -211 -134t-73 -232q0 -196 136 -296.5t393 -100.5
q258 0 393.5 100.5zM639 799q-229 45 -229 258q0 135 87 207.5t253 72.5t253 -73t87 -207q0 -122 -65 -190.5t-212 -101.5zM369 381q0 134 75 206t213 100l197 -40q148 -30 212.5 -89.5t64.5 -180.5q0 -141 -95.5 -211.5t-285.5 -70.5q-381 0 -381 286z" />
    <glyph glyph-name="uE1A9" unicode="&#xe1a9;" 
d="M1118.5 144q143.5 166 143.5 425v343q0 284 -122.5 413t-382.5 129q-245 0 -381.5 -125t-137.5 -350q0 -224 123 -340t363 -116q212 0 390 129v-115q0 -192 -105.5 -315.5t-310.5 -123.5q-206 0 -326 47v-123q66 -21 151.5 -32.5t186.5 -11.5q265 0 408.5 166z
M474.5 721.5q-92.5 81.5 -94.5 261.5q0 163 97.5 258.5t280.5 95.5q184 0 270 -92.5t86 -282.5v-194q-76 -60 -169 -94t-195 -34q-183 0 -275.5 81.5z" />
    <glyph glyph-name="uE1B0" unicode="&#xe1b0;" 
d="M435 300.5q49 -83.5 132.5 -132.5t182.5 -49t182.5 49t132.5 132.5t49 183.5q0 99 -49 182.5t-132.5 132t-182.5 48.5t-182.5 -48.5t-132.5 -132t-49 -182.5q0 -100 49 -183.5zM546.5 601q31.5 54 86 86t119.5 32q63 0 116.5 -32t85 -86t31.5 -117q0 -64 -31.5 -118.5
t-85.5 -86t-118 -31.5t-118 31.5t-85.5 86t-31.5 118.5q0 63 31.5 117z" />
    <glyph glyph-name="uE1B1" unicode="&#xe1b1;" 
d="M856 614q0 137 -15.5 306.5t-45.5 297.5l-16 67l-135 -31l16 -68q27 -118 42 -279.5t15 -292.5v-614h139v614z" />
    <glyph glyph-name="uE1B2" unicode="&#xe1b2;" 
d="M543 1218l-16 67l-136 -31l17 -68q27 -118 42 -279.5t15 -292.5v-614h139v588q0 57 -3 121q22 -40 76.5 -61t119.5 -13q139 18 223 105.5t88 219.5q3 80 -5 143t-30 181q-1 5 -2 7l-136 -26q1 -7 4 -21q18 -99 25 -154.5t5 -125.5q-2 -79 -52.5 -130t-137.5 -61
q-125 -16 -187 105q-17 200 -49 340z" />
    <glyph glyph-name="uE1B3" unicode="&#xe1b3;" 
d="M1259.5 746q87.5 89 92.5 218q2 77 -5 137.5t-28 170.5q-3 15 -4 23l-138 -26q2 -9 6 -26q19 -102 25.5 -154t4.5 -120q-3 -78 -56.5 -129.5t-142.5 -62.5q-108 -14 -174 89q20 45 21 94q2 80 -6 143.5t-30 180.5q-1 5 -1 7l-137 -26q2 -7 4 -21q19 -99 26 -154.5
t4 -125.5q-2 -79 -52 -130t-137 -61q-71 -9 -113.5 21t-70.5 84q-16 200 -49 340l-15 67l-136 -31l16 -68q28 -118 43 -279.5t15 -292.5v-614h139v592q0 53 -4 115q22 -39 75.5 -59.5t117.5 -12.5q141 18 221 109q46 -57 116 -86t145 -19q140 18 227.5 107z" />
    <glyph glyph-name="uE1B4" unicode="&#xe1b4;" 
d="M362 1218l-16 67l-136 -31l16 -68q28 -118 43 -279.5t15 -292.5v-614h139v597q0 56 -4 121q26 -33 64.5 -63t101.5 -56t153 -42t220 -16q174 0 332 119l-37 126q-162 -107 -295 -106q-94 1 -169 53t-74 176q1 109 68 180t177 74q38 1 81 -10.5t103 -39.5l41 126
q-108 61 -219 63q-108 1 -195 -49.5t-137.5 -140t-50.5 -202.5q0 -136 103 -200q-193 36 -279 201q-16 181 -45 307z" />
    <glyph glyph-name="uE1B5" unicode="&#xe1b5;" 
d="M665 1289q25 -20 75 -59q153 -121 245.5 -202.5t172 -180.5t125.5 -218.5t46 -262.5q0 -99 -47 -184t-125.5 -135.5t-169.5 -50.5q-78 0 -141 33t-101 92q-78 -125 -249 -125q-92 0 -166 49t-116.5 133.5t-42.5 187.5q0 205 143 395.5t366 338.5q-18 14 -54 43
q-31 24 -47 36zM1081.5 165q47.5 30 78 83t30.5 118q0 136 -49.5 246t-135 202t-222.5 202q-208 -143 -340.5 -311t-132.5 -339q0 -101 54.5 -166t131.5 -65q93 0 148 53.5t55 157.5v104h125v-82q1 -54 -13 -107q24 -59 71.5 -92.5t104.5 -33.5q47 0 94.5 30z" />
    <glyph glyph-name="uE1B6" unicode="&#xe1b6;" 
d="M896.5 705q-91.5 -29 -170.5 -28q-93 1 -168.5 54t-75.5 178q1 109 68.5 180t176.5 74q91 1 195 -50l40 126q-48 29 -112.5 46t-116.5 17q-108 1 -195 -49.5t-137 -140t-51 -202.5q-1 -121 52 -200.5t134 -116.5t167 -37q74 0 154 34q-244 -263 -382 -552l123 -59
q193 408 552 714l-88 103q-74 -62 -165.5 -91z" />
    <glyph glyph-name="uE1B7" unicode="&#xe1b7;" 
d="M1057.5 808q-100.5 -225 -164.5 -438t-72 -373h-143q-12 239 -142 583t-311 652l116 72q141 -231 247.5 -490.5t161.5 -570.5q55 311 161.5 570.5t247.5 490.5l116 -72q-117 -199 -217.5 -424z" />
    <glyph glyph-name="uE1B8" unicode="&#xe1b8;" 
d="M1057.5 480.5q-100.5 224.5 -163.5 433.5t-73 378h-143q-12 -240 -142 -584t-311 -652l116 -71q140 230 247 490t162 570q55 -310 161.5 -570t247.5 -490l116 71q-117 200 -217.5 424.5z" />
    <glyph glyph-name="uE1B9" unicode="&#xe1b9;" 
d="M1000 757q-55 -44 -110 -60.5t-126 -25.5q-6 -1 -9 -1q-69 -9 -127.5 20t-93 86t-34.5 129q0 67 34.5 125.5t92.5 93t125 34.5q75 0 131.5 -42.5t86.5 -109t30 -137.5v-112zM1000 0h139v869q0 107 -47.5 206t-135.5 160.5t-204 61.5q-104 0 -194 -53.5t-143.5 -143.5
t-53.5 -194q-1 -113 55.5 -204t151.5 -138t205 -33q3 0 9 1q63 9 113.5 23.5t104.5 51.5v-607z" />
    <glyph glyph-name="uE1C0" unicode="&#xe1c0;" 
d="M750 292l171 171l-171 171l-171 -171z" />
    <glyph glyph-name="uE1C1" unicode="&#xe1c1;" 
d="M856 614q0 137 -15.5 306.5t-45.5 297.5l-16 67l-135 -31l16 -68q27 -118 42 -279.5t15 -292.5v-614h139v614z" />
    <glyph glyph-name="uE1C2" unicode="&#xe1c2;" 
d="M543 1218l-16 67l-135 -31l16 -68q27 -118 42 -279.5t15 -292.5v-614h139v588q0 57 -3 121q22 -40 76.5 -61t119.5 -13q139 18 223 105.5t88 219.5q3 80 -5 143t-30 181q-1 5 -2 7l-136 -26q1 -7 4 -21q18 -99 25 -154.5t5 -125.5q-2 -79 -52.5 -130t-137.5 -61
q-125 -16 -187 105q-17 200 -49 340z" />
    <glyph glyph-name="uE1C3" unicode="&#xe1c3;" 
d="M1259.5 746q87.5 89 91.5 218q3 77 -4.5 137.5t-27.5 170.5q-3 15 -4 23l-138 -26q2 -9 5 -26q20 -102 26.5 -154t3.5 -120q-2 -78 -55.5 -129.5t-142.5 -62.5q-108 -14 -174 89q20 45 20 94q3 80 -5 143.5t-30 180.5q-1 5 -1 7l-137 -26q2 -7 4 -21q19 -99 26 -154.5
t4 -125.5q-2 -79 -52 -130t-137 -61q-71 -9 -113.5 21t-70.5 84q-16 200 -49 340l-16 67l-135 -31l16 -68q28 -118 42.5 -279.5t14.5 -292.5v-614h140v592q0 53 -4 115q22 -39 75.5 -59.5t117.5 -12.5q141 18 221 109q46 -57 116 -86t145 -19q140 18 227.5 107z" />
    <glyph glyph-name="uE1C4" unicode="&#xe1c4;" 
d="M501.5 797q32.5 -79 114.5 -120.5t203 -33.5q18 0 64 -19q28 -12 46 -17t33 -2l91 18l-27 132l-90 -18q-90 -18 -161.5 -4t-112.5 56q-30 29 -41 70t0 90q18 90 72.5 147.5t123 83.5t133.5 26q46 0 113 -17l8 134q-50 17 -121 17q-99 0 -195.5 -39.5t-168.5 -121.5
t-97 -202q-20 -101 12.5 -180zM1117 134h-389q-56 0 -104 27.5t-76.5 74.5t-29.5 103q-2 76 45.5 136t123.5 75l366 73l-26 132l-367 -73q-80 -16 -143 -65t-98.5 -120.5t-35.5 -152.5q0 -94 46.5 -173t125.5 -125t172 -46h389z" />
    <glyph glyph-name="uE1C5" unicode="&#xe1c5;" 
d="M1148 119.5q135 126.5 135 406.5q0 205 -61 388t-181.5 297.5t-291.5 114.5q-169 0 -289.5 -114.5t-181.5 -297.5t-61 -388q0 -280 135 -406.5t365 -126.5h66q230 0 365 126.5zM966.5 1095q90.5 -97 136.5 -250t46 -319q0 -116 -27.5 -202.5t-108.5 -141.5t-230 -55h-66
q-114 0 -187.5 33t-112 88.5t-52.5 124.5t-14 153q0 166 46 319t136.5 250t215.5 97q127 0 217.5 -97z" />
    <glyph glyph-name="uE1C6" unicode="&#xe1c6;" 
d="M1210 56q-92 150 -135 359.5t-20 430t121 399.5l-79 97q-181 -56 -317.5 -66.5t-236 10t-204.5 63.5l-49 -121q109 -46 207 -69.5t224 -20t287 42.5q-77 -204 -89.5 -421t34 -417t142.5 -357z" />
    <glyph glyph-name="uE1C7" unicode="&#xe1c7;" 
d="M1057 808q-100 -225 -164 -438t-73 -373h-142q-13 239 -142.5 583t-310.5 652l116 72q140 -231 246.5 -490.5t162.5 -570.5q55 311 161.5 570.5t246.5 490.5l116 -72q-117 -199 -217 -424z" />
    <glyph glyph-name="uE1C8" unicode="&#xe1c8;" 
d="M1057 480.5q-100 224.5 -163 433.5t-74 378h-142q-13 -240 -142.5 -584t-310.5 -652l116 -71q140 230 246.5 490t162.5 570q55 -310 161.5 -570t246.5 -490l116 71q-117 200 -217 424.5z" />
    <glyph glyph-name="uE1C9" unicode="&#xe1c9;" 
d="M1000 757q-55 -44 -110 -60.5t-126 -25.5q-6 -1 -9 -1q-69 -9 -127.5 20t-93 86t-34.5 129q0 67 34.5 125.5t92.5 93t124 34.5q76 0 132.5 -42.5t86.5 -109.5t30 -138v-111zM1000 0h139v868q0 108 -47.5 207t-135.5 160.5t-205 61.5q-103 0 -193 -53.5t-143.5 -143.5
t-53.5 -194q-1 -113 55.5 -204t151.5 -138t205 -33q3 0 9 1q63 9 113.5 23.5t104.5 51.5v-607z" />
    <glyph glyph-name="uE1D0" unicode="&#xe1d0;" 
d="M588 34l-250 917q-16 60 12.5 114.5t86.5 76.5q62 22 121 -6t81 -89l160 -439l119 -12l382 636l-114 68l-309 -516l-113 308q-43 111 -143.5 161t-214.5 18q-114 -38 -169.5 -137.5t-26.5 -216.5l249 -917z" />
    <glyph glyph-name="uE1D1" unicode="&#xe1d1;" 
d="M742.5 7q199.5 4 391.5 69l63 20l-42 126l-63 -20q-171 -58 -342 -62t-314 45q12 212 120 431.5t214 362.5t171 215l1 1l-99 89q-74 -83 -187.5 -236.5t-228.5 -393.5t-124 -477l69 -111q171 -63 370.5 -59z" />
    <glyph glyph-name="uE1D2" unicode="&#xe1d2;" 
d="M609.5 901.5q77.5 83.5 77.5 220.5q0 158 -76.5 245t-225.5 87q-150 0 -226.5 -87t-76.5 -245q0 -137 77.5 -220.5t225.5 -83.5q147 0 224.5 83.5zM440 0l762 1432h-147l-763 -1432h148zM184 1124q0 121 49 177.5t152 56.5q102 0 151 -56.5t49 -177.5q0 -103 -48 -156.5
t-152 -53.5q-201 0 -201 210zM1340.5 61.5q77.5 83.5 77.5 220.5q0 158 -76.5 245t-226.5 87q-149 0 -225.5 -87t-76.5 -245q0 -137 77.5 -220.5t224.5 -83.5q148 0 225.5 83.5zM915 284q0 121 49 177.5t151 56.5q103 0 152 -56.5t49 -177.5q0 -103 -48 -156.5t-153 -53.5
q-200 0 -200 210z" />
    <glyph glyph-name="uE1D3" unicode="&#xe1d3;" 
d="M750 1010l196 -254l97 73l-210 234l273 112l-50 105l-251 -119l8 271h-126l8 -271l-251 119l-50 -105l271 -110l-208 -236l97 -73z" />
    <glyph glyph-name="uE1D4" unicode="&#xe1d4;" 
d="M814 171v337h357v125h-357v350h-130v-350h-355v-125h355v-337h130z" />
    <glyph glyph-name="uE1D5" unicode="&#xe1d5;" 
d="M833 0v152h-166v-152h166z" />
    <glyph glyph-name="uE1D6" unicode="&#xe1d6;" 
d="M1172 667v117h-844v-117h844zM1172 360v118h-844v-118h844z" />
    <glyph glyph-name="uE1D7" unicode="&#xe1d7;" 
d="M639 89l93 271h440v118h-404l66 189h338v116h-302l92 267h-90l-93 -267h-451v-116h415l-66 -189h-349v-118h313l-93 -271h91z" />
    <glyph glyph-name="uE1D8" unicode="&#xe1d8;" 
d="M814 223v338h357v125h-357v349h-130v-349h-355v-125h355v-338h130zM1171 0v125h-842v-125h842z" />
    <glyph glyph-name="uE1D9" unicode="&#xe1d9;" 
d="M1087 296l-254 254l254 255l-84 84l-256 -253l-251 254l-83 -83l254 -252l-244 -245l85 -84l245 243l254 -253z" />
    <glyph glyph-name="uE1E0" unicode="&#xe1e0;" 
d="M814 864v132h-130v-132h130zM1166 508v125h-832v-125h832zM814 158v132h-130v-132h130z" />
    <glyph glyph-name="uE1E1" unicode="&#xe1e1;" 
d="M1166 1258l-96 47l-736 -1274l95 -47zM445.5 1174q27.5 -28 27.5 -67t-28 -67t-67 -28q-40 0 -67.5 27.5t-27.5 67.5q0 39 27.5 67t67.5 28t67.5 -28zM1189.5 249q27.5 -28 27.5 -68q0 -39 -28 -66.5t-67 -27.5q-40 0 -67.5 27.5t-27.5 66.5q0 40 27.5 68t67.5 28
t67.5 -28z" />
    <glyph glyph-name="uE1E2" unicode="&#xe1e2;" 
d="M723 -217q68 38 106 110t38 167v192h-98v-192q0 -63 -23.5 -114.5t-69.5 -76.5l-43 -24l47 -85z" />
    <glyph glyph-name="uE1E3" unicode="&#xe1e3;" 
d="M973 375l-89 39l-357 -784l90 -40z" />
    <glyph glyph-name="uE1E4" unicode="&#xe1e4;" 
d="M1166 507v126h-832v-126h832z" />
    <glyph glyph-name="uniFBB2" unicode="&#xfbb2;" horiz-adv-x="0" 
d="M92 150h-184v-150h184v150z" />
    <glyph glyph-name="uniFBB3" unicode="&#xfbb3;" horiz-adv-x="0" 
d="M92 0h-184v-150h184v150z" />
    <glyph glyph-name="uniFBB4" unicode="&#xfbb4;" horiz-adv-x="0" 
d="M9 133q-137 -1 -281 0q-1 -66 0 -133h281v133zM272 133q-144 -1 -281 0v-133h281q1 67 0 133z" />
    <glyph glyph-name="uniFBB5" unicode="&#xfbb5;" horiz-adv-x="0" 
d="M9 0h-281q-1 -67 0 -133h281v133zM272 0h-281v-133h281q1 66 0 133z" />
    <glyph glyph-name="uniFBB6" unicode="&#xfbb6;" horiz-adv-x="0" 
d="M9 133q-137 -1 -281 0q-1 -66 0 -133h281v133zM272 133q-144 -1 -281 0v-133h281q1 67 0 133zM90 437h-180v-148h180v148z" />
    <glyph glyph-name="uniFBB9" unicode="&#xfbb9;" horiz-adv-x="0" 
d="M9 0h-281q-1 -67 0 -133h281v133zM272 0h-281v-133h281q1 66 0 133zM90 -293h-180v-148h180v148z" />
    <glyph glyph-name="uniFD3E" unicode="&#xfd3e;" horiz-adv-x="924" 
d="M550.5 820q40.5 -24 64.5 -64.5t24 -88.5t-24 -88.5t-64.5 -64.5t-88.5 -24t-88.5 24t-64.5 64.5t-24 88.5t24 88.5t64.5 64.5t88.5 24t88.5 -24zM551 -88l27 -51l102 53l-26 51q-45 87 -84.5 196t-57.5 228q67 10 121.5 49t85.5 99.5t31 129.5t-31 129.5t-85.5 100
t-120.5 48.5q30 208 141 424l26 52l-102 52l-27 -51q-51 -100 -94.5 -222t-61.5 -253q-96 -23 -158.5 -101t-62.5 -179t62.5 -179t157.5 -100q38 -244 157 -476z" />
    <glyph glyph-name="uniFD3F" unicode="&#xfd3f;" horiz-adv-x="924" 
d="M373.5 820q-40.5 -24 -64.5 -64.5t-24 -88.5t24 -88.5t64.5 -64.5t88.5 -24t88.5 24t64.5 64.5t24 88.5t-24 88.5t-64.5 64.5t-88.5 24t-88.5 -24zM373 -88l-27 -51l-102 53l26 51q45 87 84.5 196t57.5 228q-67 10 -121.5 49t-85.5 99.5t-31 129.5t31 129.5t85.5 100
t120.5 48.5q-30 208 -141 424l-26 52l102 52l27 -51q51 -100 94.5 -222t61.5 -253q96 -23 158.5 -101t62.5 -179t-62.5 -179t-158.5 -100q-37 -244 -156 -476z" />
    <glyph glyph-name="uni0627_alt.short" horiz-adv-x="515" 
d="M191 0h133v1240h-133v-1240z" />
    <glyph glyph-name="uni0627.fina.short" horiz-adv-x="613" 
d="M613 140h-69q-61 0 -111.5 30t-79.5 81.5t-29 112.5v876h-133v-890q0 -95 45 -175t126 -127.5t182 -47.5h69v140z" />
    <glyph glyph-name="uni066E.fina" horiz-adv-x="1879" 
d="M1431.5 50q76.5 50 115.5 133q40 -83 116.5 -133t174.5 -50h41v140h-41q-61 0 -112.5 30t-81.5 81.5t-30 112.5v287h-133v-287q0 -61 -30 -112.5t-81.5 -81.5t-112.5 -30h-744q-61 0 -112 30t-81 81.5t-30 112.5v315h-133v-329q0 -96 48 -176t129.5 -127t178.5 -47h744
q98 0 174.5 50z" />
    <glyph glyph-name="uni06A1.fina" horiz-adv-x="1859" 
d="M1416 697.5q58 -27.5 92.5 -78.5t34.5 -117q0 -132 -81.5 -219.5t-171.5 -141.5q-89 54 -170.5 141.5t-81.5 219.5q0 66 34.5 117t92.5 78.5t125 27.5q68 0 126 -27.5zM1151 0q57 0 95 11t44 24q6 -13 44 -24t96 -11h430v140h-387q80 60 141.5 151t61.5 211
q0 99 -50.5 180.5t-139 129t-196.5 47.5q-107 0 -195.5 -47.5t-139.5 -129t-51 -180.5q0 -120 61.5 -211t142.5 -151h-595q-61 0 -112 30t-81 81.5t-30 112.5v315h-133v-329q0 -96 48 -176t129.5 -127t178.5 -47h638z" />
    <glyph glyph-name="uni06A1.init" horiz-adv-x="1089" 
d="M511 524q-75 0 -118.5 13.5t-65 49.5t-21.5 104q0 73 30.5 141t86.5 111t130 43q84 0 139.5 -47t81.5 -118t26 -144v-153h-289zM-54.5 98q-14.5 -28 0 -56t54.5 -42h531q107 0 199.5 49.5t147.5 132.5t55 177v318q0 121 -49 222t-135.5 160.5t-195.5 59.5
q-107 0 -194 -61.5t-136.5 -161.5t-49.5 -211q0 -156 73.5 -224t243.5 -68h310v-34q0 -58 -37 -108.5t-98.5 -80.5t-133.5 -30h-531q-40 -14 -54.5 -42z" />
    <glyph glyph-name="uni06A1.medi" horiz-adv-x="1139" 
d="M695 697.5q58 -27.5 92.5 -78.5t34.5 -117q0 -132 -81.5 -219.5t-171.5 -141.5q-89 54 -170.5 141.5t-81.5 219.5q0 66 34.5 117t92.5 78.5t125 27.5q68 0 126 -27.5zM-54.5 98q-14.5 -28 0 -56t54.5 -42h430q57 0 95 11t44 24q7 -13 44.5 -24t95.5 -11h430v140h-387
q81 60 142 151t61 211q0 99 -50.5 180.5t-139 129t-196.5 47.5q-107 0 -195.5 -47.5t-139 -129t-50.5 -180.5q0 -120 61 -211t142 -151h-387q-40 -14 -54.5 -42z" />
    <glyph glyph-name="uniE014" horiz-adv-x="1721" 
d="M1113 140q-124 0 -185.5 57.5t-61.5 165.5q0 78 28.5 143.5t84.5 105t134 39.5q88 0 143.5 -43t79.5 -108.5t24 -136.5v-223h-247zM1720 140h-227v223q0 124 -48 219t-134 148t-198 53q-110 0 -196.5 -53.5t-135 -149.5t-48.5 -217q0 -171 96.5 -267t283.5 -96h246
q0 -191 -116 -299t-321 -108h-221q-127 0 -220.5 57.5t-142 153t-48.5 207.5l-1 435h-133l1 -449q0 -146 66.5 -270.5t190.5 -199t287 -74.5h221q165 0 293.5 68t201.5 192t75 287h228v140z" />
    <glyph glyph-name="uni06D2.2.fina" horiz-adv-x="927" 
d="M1033 -368h-520q-95 0 -159 50.5t-64 133.5t64 133.5t159 50.5h414v140h-414q-98 0 -179.5 -41.5t-129 -115t-47.5 -167.5q0 -93 47.5 -165t129 -111.5t179.5 -39.5h520v132z" />
    <glyph glyph-name="uni06D3.2.fina" horiz-adv-x="927" 
d="M1033 -368h-520q-95 0 -159 50.5t-64 133.5t64 133.5t159 50.5h414v140h-414q-98 0 -179.5 -41.5t-129 -115t-47.5 -167.5q0 -93 47.5 -165t129 -111.5t179.5 -39.5h520v132zM266 399l441 168l-30 78l-157 -60q-80 -1 -118.5 38t-37.5 96q0 53 34 96t89 44q34 0 61 -10
t59 -27q5 -3 7 -4l18 81q-32 19 -66 31t-79 12q-61 0 -108 -32.5t-73 -84t-26 -106.5q0 -62 33 -111.5t87 -68.5l-163 -63z" />
    <glyph glyph-name="uni06270644.init" horiz-adv-x="1185" 
d="M324 344v896h-133v-896h133zM191 140v-140h446q97 0 179 48t130 130t48 179v1068h-133v-1061q0 -61 -30.5 -112.5t-81.5 -81.5t-112 -30h-446z" />
    <glyph glyph-name="uni06270644.medi" horiz-adv-x="1259" 
d="M1259 140h-42q-61 0 -112 30t-81 81.5t-30 112.5v1061h-133v-1061q0 -61 -30.5 -112.5t-81.5 -81.5t-112 -30h-446v-140h446q97 0 173.5 50t116.5 133q40 -83 116.5 -133t173.5 -50h42v140zM324 344v896h-133v-896h133z" />
    </font>
</defs>
</svg>
