<?xml version="1.0" standalone="no"?>
<!DOCTYPE svg PUBLIC "-//W3C//DTD SVG 1.1//EN" "http://www.w3.org/Graphics/SVG/1.1/DTD/svg11.dtd" >
<svg xmlns="http://www.w3.org/2000/svg" xmlns:xlink="http://www.w3.org/1999/xlink" version="1.1">
<metadata>
Created by FontForge 20201107 at Sat Sep 21 20:35:59 2024
 By 
Copyright 2024 The Arad Project Authors (https://github.com/MDarvishi5124/Arad)
</metadata>
<defs>
<font id="Arad-SemiBoldDots2" horiz-adv-x="1500" >
  <font-face 
    font-family="Arad SemiBold Dots2"
    font-weight="600"
    font-stretch="normal"
    units-per-em="2176"
    panose-1="0 0 0 0 0 0 0 0 0 0"
    ascent="1740"
    descent="-436"
    x-height="1054"
    cap-height="1432"
    bbox="-450 -1167 3165 2432"
    underline-thickness="40"
    underline-position="-185"
    unicode-range="U+000D-FEFC"
  />
<missing-glyph horiz-adv-x="1300" 
d="M1186 0v1400h-1072v-1400h1072zM321 1193h658v-986h-658v986z" />
    <glyph glyph-name="uni0626" unicode="&#x649;&#x654;" horiz-adv-x="1613" 
d="M1396 243q-101 75 -269 76h-183v167q0 71 48 118.5t119 47.5h317v245h-317q-114 0 -208 -55t-148.5 -149t-54.5 -207v-411h423q66 -1 96 -27.5t25 -90.5q-4 -64 -46.5 -118t-129 -87.5t-217.5 -33.5h-137q-108 0 -184 46.5t-113.5 123.5t-37.5 167v457h-244l-1 -488
q0 -153 71 -282.5t202.5 -206.5t306.5 -77h137q232 0 372.5 82.5t199.5 198.5t66 230q8 199 -93 274zM134 759l463 177l-48 127l-151 -58q-58 -5 -93 21.5t-34 77.5q0 39 24.5 72t65.5 34q28 0 52 -8.5t55 -23.5q6 -3 9 -5l34 128q-41 23 -74.5 33.5t-75.5 10.5
q-67 0 -118.5 -35t-79.5 -91t-28 -115q0 -51 24 -96t66 -69l-138 -53z" />
    <glyph glyph-name="uni06C0" unicode="&#x647;&#x654;" horiz-adv-x="1091" 
d="M686.5 502q40.5 -75 40.5 -124q0 -47 -27 -81t-68.5 -51.5t-83.5 -17.5t-83.5 18.5t-68.5 52.5t-27 79q0 80 56 157t125 140q96 -98 136.5 -173zM209.5 637q-85.5 -119 -85.5 -259q0 -109 58 -199.5t156 -143t210 -52.5q107 0 204.5 48t158.5 138.5t61 208.5
q0 143 -103.5 298.5t-312.5 325.5l-95 78l-155 -190l77 -62q-88 -72 -173.5 -191zM618 1291q91 70 91 166v153h-259v50q0 41 27 68.5t69 27.5h152v128h-152q-59 0 -110.5 -30t-82.5 -81.5t-31 -112.5v-88q-1 -34 27 -61.5t61 -27.5h171v-26q0 -48 -73 -74.5t-233 -20.5v-136
q252 -5 343 65z" />
    <glyph glyph-name="uniFBA70654" unicode="&#xfba7;&#x654;" horiz-adv-x="1172" 
d="M412 344q7 60 46 108t97 67l155 51l18 -206q9 -101 65 -184.5t144 -131.5t190 -48h45v260h-45q-62 0 -106 34t-50 93l-32 360l-160 104l-302 -100q-125 -43 -208.5 -144.5t-99.5 -231.5l-45 -358l243 -31zM313 994l463 177l-48 127l-151 -58q-58 -5 -93 21.5t-34 77.5
q0 39 24.5 72t65.5 34q28 0 52 -8.5t55 -23.5q6 -3 9 -5l34 128q-41 23 -74.5 33.5t-75.5 10.5q-67 0 -118.5 -35t-79.5 -91t-28 -115q0 -51 24 -96t66 -69l-138 -53z" />
    <glyph glyph-name="uE115" unicode="&#xe091;&#xfe8e;" horiz-adv-x="1253" 
d="M420 408v1034h-244v-1034h244zM176 260v-260h501q109 0 201 54t146 146t54 201v1041h-245v-1026q0 -65 -45.5 -110.5t-110.5 -45.5h-501zM1315 2055l-171 4l-188 -215l-188 215l-172 -4l309 -359h102z" />
    <glyph glyph-name="uE116" unicode="&#xe092;&#xfe8e;" horiz-adv-x="1289" 
d="M176 260v-260h501q92 0 162 40.5t117 113.5q46 -73 116.5 -113.5t161.5 -40.5h55v260h-55q-65 0 -110.5 45.5t-45.5 110.5v1026h-245v-1026q0 -65 -45.5 -110.5t-110.5 -45.5h-501zM420 408v1034h-244v-1034h244zM1315 2055l-171 4l-188 -215l-188 215l-172 -4l309 -359
h102z" />
    <glyph glyph-name="uE117" unicode="&#xe091;&#xfe82;" horiz-adv-x="1255" 
d="M420 408v865h-244v-865h244zM176 260v-260h501q109 0 201 54t146 146t54 201v1041h-245v-1026q0 -65 -45.5 -110.5t-110.5 -45.5h-501zM46 1461q17 40 52 64t78 23h462v167h-462q-94 1 -171.5 -52t-112.5 -140l-65 -163l155 -62zM1315 2055l-171 4l-188 -215l-188 215
l-171 -4l308 -359h102z" />
    <glyph glyph-name="uE118" unicode="&#xe092;&#xfe82;" horiz-adv-x="1290" 
d="M1289 260h-55q-65 0 -110.5 45.5t-45.5 110.5v1026h-245v-1026q0 -65 -45.5 -110.5t-110.5 -45.5h-501v-260h501q92 0 162 40.5t117 113.5q46 -73 116.5 -113.5t161.5 -40.5h55v260zM420 408v865h-244v-865h244zM46 1461q17 40 52 64t78 23h462v167h-462
q-94 1 -171.5 -52t-112.5 -140l-65 -163l155 -62zM1315 2055l-171 4l-188 -215l-188 215l-171 -4l308 -359h102z" />
    <glyph glyph-name="uE120" unicode="&#xe091;&#x675;" horiz-adv-x="1254" 
d="M420 408v865h-244v-865h244zM176 260v-260h501q109 0 201 54t146 146t54 201v1041h-245v-1026q0 -65 -45.5 -110.5t-110.5 -45.5h-501zM80 1481l463 177l-48 127l-151 -58q-58 -5 -93 21.5t-34 77.5q0 39 24.5 72t65.5 34q28 0 52 -8.5t55 -23.5q6 -3 9 -5l34 128
q-41 23 -74.5 33.5t-75.5 10.5q-67 0 -118.5 -35t-79.5 -91t-28 -115q0 -51 24 -96t66 -69l-138 -53zM1315 2055l-171 4l-188 -215l-188 215l-171 -4l308 -359h102z" />
    <glyph glyph-name="uE121" unicode="&#xe092;&#x675;" horiz-adv-x="1289" 
d="M1289 260h-55q-65 0 -110.5 45.5t-45.5 110.5v1026h-245v-1026q0 -65 -45.5 -110.5t-110.5 -45.5h-501v-260h501q92 0 162 40.5t117 113.5q46 -73 116.5 -113.5t161.5 -40.5h55v260zM420 408v865h-244v-865h244zM80 1481l463 177l-48 127l-151 -58q-58 -5 -93 21.5
t-34 77.5q0 39 24.5 72t65.5 34q28 0 52 -8.5t55 -23.5q6 -3 9 -5l34 128q-41 23 -74.5 33.5t-75.5 10.5q-67 0 -118.5 -35t-79.5 -91t-28 -115q0 -51 24 -96t66 -69l-138 -53zM1315 2055l-171 4l-188 -215l-188 215l-171 -4l308 -359h102z" />
    <glyph glyph-name="uE122" unicode="&#xe091;&#xfe88;" horiz-adv-x="1254" 
d="M420 408v1034h-244v-1034h244zM176 260v-260h501q109 0 201 54t146 146t54 201v1041h-245v-1026q0 -65 -45.5 -110.5t-110.5 -45.5h-501zM123 -815l463 177l-48 127l-151 -58q-58 -5 -93 21.5t-34 77.5q0 39 24.5 72t65.5 34q28 0 52 -8.5t55 -23.5q6 -3 9 -5l34 128
q-41 23 -74.5 33.5t-75.5 10.5q-67 0 -118.5 -35t-79.5 -91t-28 -115q0 -51 24 -96t66 -69l-138 -53zM1315 2055l-171 4l-188 -215l-188 215l-171 -4l308 -359h102z" />
    <glyph glyph-name="uE123" unicode="&#xe092;&#xfe88;" horiz-adv-x="1290" 
d="M176 260v-260h501q92 0 162 40.5t117 113.5q46 -73 116.5 -113.5t161.5 -40.5h55v260h-55q-65 0 -110.5 45.5t-45.5 110.5v1026h-245v-1026q0 -65 -45.5 -110.5t-110.5 -45.5h-501zM420 408v1034h-244v-1034h244zM122 -815l463 177l-48 127l-151 -58q-58 -5 -93 21.5
t-34 77.5q0 39 24.5 72t65.5 34q28 0 52 -8.5t55 -23.5q6 -3 9 -5l34 128q-41 23 -74.5 33.5t-75.5 10.5q-67 0 -118.5 -35t-79.5 -91t-28 -115q0 -51 24 -96t66 -69l-138 -53zM1315 2055l-171 4l-188 -215l-188 215l-171 -4l308 -359h102z" />
    <glyph glyph-name="uniFBA5" unicode="&#xfeea;&#x654;" horiz-adv-x="1207" arabic-form="final" 
d="M953.5 50q77.5 -50 172.5 -50h81v260h-83q-47 0 -83.5 31t-42.5 79l-108 733l-242 -34l16 -113q-175 -11 -302 -84t-189.5 -194.5t-51.5 -274.5q7 -112 73 -190.5t170.5 -110t226.5 -8.5t238 104q47 -98 124.5 -148zM746 393q-94 -65 -181 -76t-141.5 21t-59.5 84
q-9 137 80 212.5t255 77.5zM648 1294q91 70 91 166v153h-259v50q0 41 27 68.5t69 27.5h152v128h-152q-59 0 -110.5 -30t-82.5 -81.5t-31 -112.5v-88q-1 -34 27 -61.5t61 -27.5h171v-26q0 -48 -73 -74.5t-233 -20.5v-136q252 -5 343 65z" />
    <glyph glyph-name="uniFE8A" unicode="&#xfbfd;&#x654;" horiz-adv-x="1708" arabic-form="final" 
d="M1707 260h-956v-244h390q49 -1 73 -31.5t23 -75.5q-1 -89 -86.5 -140t-212.5 -51h-231q-108 0 -182 44.5t-110 119.5t-36 166v464h-244v-495q0 -153 69 -280.5t198.5 -203t304.5 -75.5h231q172 0 294 67t182.5 170t60.5 209q-1 58 -25 96h257v260zM134 759l463 177
l-48 127l-151 -58q-58 -5 -93 21.5t-34 77.5q0 39 24.5 72t65.5 34q28 0 52 -8.5t55 -23.5q6 -3 9 -5l34 128q-41 23 -74.5 33.5t-75.5 10.5q-67 0 -118.5 -35t-79.5 -91t-28 -115q0 -51 24 -96t66 -69l-138 -53z" />
    <glyph glyph-name="uniFEF5" unicode="&#xfedf;&#xfe82;" horiz-adv-x="1254" arabic-form="isolated" 
d="M420 408v865h-244v-865h244zM176 260v-260h501q109 0 201 54t146 146t54 201v1041h-245v-1026q0 -65 -45.5 -110.5t-110.5 -45.5h-501zM46 1461q17 40 52 64t78 23h462v167h-462q-94 1 -171.5 -52t-112.5 -140l-65 -163l155 -62z" />
    <glyph glyph-name="uniFEF6" unicode="&#xfee0;&#xfe82;" horiz-adv-x="1290" arabic-form="final" 
d="M1289 260h-55q-65 0 -110.5 45.5t-45.5 110.5v1026h-245v-1026q0 -65 -45.5 -110.5t-110.5 -45.5h-501v-260h501q92 0 162 40.5t117 113.5q46 -73 116.5 -113.5t161.5 -40.5h55v260zM420 408v865h-244v-865h244zM46 1461q17 40 52 64t78 23h462v167h-462
q-94 1 -171.5 -52t-112.5 -140l-65 -163l155 -62z" />
    <glyph glyph-name="uniFEF7" unicode="&#xfedf;&#x675;" horiz-adv-x="1254" arabic-form="isolated" 
d="M420 408v865h-244v-865h244zM176 260v-260h501q109 0 201 54t146 146t54 201v1041h-245v-1026q0 -65 -45.5 -110.5t-110.5 -45.5h-501zM80 1481l463 177l-48 127l-151 -58q-58 -5 -93 21.5t-34 77.5q0 39 24.5 72t65.5 34q28 0 52 -8.5t55 -23.5q6 -3 9 -5l34 128
q-41 23 -74.5 33.5t-75.5 10.5q-67 0 -118.5 -35t-79.5 -91t-28 -115q0 -51 24 -96t66 -69l-138 -53z" />
    <glyph glyph-name="uniFEF8" unicode="&#xfee0;&#x675;" horiz-adv-x="1290" arabic-form="final" 
d="M1289 260h-55q-65 0 -110.5 45.5t-45.5 110.5v1026h-245v-1026q0 -65 -45.5 -110.5t-110.5 -45.5h-501v-260h501q92 0 162 40.5t117 113.5q46 -73 116.5 -113.5t161.5 -40.5h55v260zM420 408v865h-244v-865h244zM80 1481l463 177l-48 127l-151 -58q-58 -5 -93 21.5
t-34 77.5q0 39 24.5 72t65.5 34q28 0 52 -8.5t55 -23.5q6 -3 9 -5l34 128q-41 23 -74.5 33.5t-75.5 10.5q-67 0 -118.5 -35t-79.5 -91t-28 -115q0 -51 24 -96t66 -69l-138 -53z" />
    <glyph glyph-name="uniFEF9" unicode="&#xfedf;&#xfe88;" horiz-adv-x="1254" arabic-form="isolated" 
d="M420 408v1034h-244v-1034h244zM176 260v-260h501q109 0 201 54t146 146t54 201v1041h-245v-1026q0 -65 -45.5 -110.5t-110.5 -45.5h-501zM123 -815l463 177l-48 127l-151 -58q-58 -5 -93 21.5t-34 77.5q0 39 24.5 72t65.5 34q28 0 52 -8.5t55 -23.5q6 -3 9 -5l34 128
q-41 23 -74.5 33.5t-75.5 10.5q-67 0 -118.5 -35t-79.5 -91t-28 -115q0 -51 24 -96t66 -69l-138 -53z" />
    <glyph glyph-name="uniFEFA" unicode="&#xfee0;&#xfe88;" horiz-adv-x="1290" arabic-form="final" 
d="M176 260v-260h501q92 0 162 40.5t117 113.5q46 -73 116.5 -113.5t161.5 -40.5h55v260h-55q-65 0 -110.5 45.5t-45.5 110.5v1026h-245v-1026q0 -65 -45.5 -110.5t-110.5 -45.5h-501zM420 408v1034h-244v-1034h244zM122 -815l463 177l-48 127l-151 -58q-58 -5 -93 21.5
t-34 77.5q0 39 24.5 72t65.5 34q28 0 52 -8.5t55 -23.5q6 -3 9 -5l34 128q-41 23 -74.5 33.5t-75.5 10.5q-67 0 -118.5 -35t-79.5 -91t-28 -115q0 -51 24 -96t66 -69l-138 -53z" />
    <glyph glyph-name="uniFEFB" unicode="&#xfedf;&#xfe8e;" horiz-adv-x="1254" arabic-form="isolated" 
d="M420 408v1034h-244v-1034h244zM176 260v-260h501q109 0 201 54t146 146t54 201v1041h-245v-1026q0 -65 -45.5 -110.5t-110.5 -45.5h-501z" />
    <glyph glyph-name="uniFEFC" unicode="&#xfee0;&#xfe8e;" horiz-adv-x="1289" arabic-form="final" 
d="M176 260v-260h501q92 0 162 40.5t117 113.5q46 -73 116.5 -113.5t161.5 -40.5h55v260h-55q-65 0 -110.5 45.5t-45.5 110.5v1026h-245v-1026q0 -65 -45.5 -110.5t-110.5 -45.5h-501zM420 408v1034h-244v-1034h244z" />
    <glyph glyph-name="uni064406440647" unicode="&#xfedf;&#xfee0;&#xfeea;" horiz-adv-x="2491" 
d="M1764 179.5q-15 -49.5 0 -99.5t56 -80h108q109 0 201 54t146 146t54 201v1041h-245v-1026q0 -65 -45.5 -110.5t-110.5 -45.5h-108q-41 -31 -56 -80.5zM1113 179.5q-15 -49.5 0 -99.5t56 -80h47q92 0 162 40.5t117 113.5q47 -73 117 -113.5t161 -40.5h47v260h-47
q-64 0 -110 45.5t-46 110.5v759h-244v-759q0 -65 -46 -110.5t-111 -45.5h-47q-41 -31 -56 -80.5zM1492 1490q50 -50 121 -50h14q56 0 103.5 28t75.5 75.5t28 104.5v188h-135v-188q0 -30 -21 -51t-51 -21h-14q-30 0 -51 21t-21 51v133h-134v-189q0 -30 -21 -51t-51 -21h-14
q-30 0 -51 21t-21 51v189h-135v-189q0 -56 28 -104t75.5 -76t103.5 -28h14q104 0 157 106zM1402 1895h134v401h-134v-401zM954.5 50q77.5 -50 172.5 -50h81v260h-83q-47 0 -83.5 31t-42.5 79l-108 733l-242 -34l16 -113q-175 -11 -302 -84t-189.5 -194.5t-51.5 -274.5
q7 -112 73 -190.5t170.5 -110t226.5 -8.5t238 104q47 -98 124.5 -148zM747 393q-94 -65 -181 -76t-141.5 21t-59.5 84q-9 137 80 212.5t255 77.5z" />
    <glyph glyph-name="uni0621" unicode="&#x621;" horiz-adv-x="1076" arabic-form="isolated" 
d="M221 -19l731 283l-79 207l-290 -112q-86 4 -128.5 53.5t-42.5 114.5q0 63 36 114.5t99 61.5q93 15 196 -67l81 206q-39 29 -106.5 55.5t-157.5 26.5q-109 0 -193.5 -58t-130 -149.5t-45.5 -189.5q0 -82 35.5 -155t100.5 -113l-185 -71z" />
    <glyph glyph-name="uni0622" unicode="&#x622;" horiz-adv-x="597" arabic-form="isolated" 
d="M176 0h244v1273h-244v-1273zM46 1461q17 40 52 64t78 23h462v167h-462q-94 1 -171.5 -52t-112.5 -140l-65 -163l155 -62z" />
    <glyph glyph-name="uni0623" unicode="&#x623;" horiz-adv-x="596" arabic-form="isolated" 
d="M176 0h244v1273h-244v-1273zM80 1481l463 177l-48 127l-151 -58q-58 -5 -93 21.5t-34 77.5q0 39 24.5 72t65.5 34q28 0 52 -8.5t55 -23.5q6 -3 9 -5l34 128q-41 23 -74.5 33.5t-75.5 10.5q-67 0 -118.5 -35t-79.5 -91t-28 -115q0 -51 24 -96t66 -69l-138 -53z" />
    <glyph glyph-name="uni0624" unicode="&#x624;" horiz-adv-x="1112" arabic-form="isolated" 
d="M554 260q-100 0 -139 36.5t-39 110.5q0 49 17 98.5t57 84t104 34.5q97 0 138 -66t41 -151v-147h-179zM977 407q0 134 -53.5 239t-149.5 163.5t-220 58.5q-121 0 -217.5 -59.5t-151 -164.5t-54.5 -237q0 -193 103.5 -300t319.5 -107h176q0 -130 -81.5 -206t-208.5 -76
h-308v-260h308q139 0 263 74t199 202t75 282v391zM346 1048l463 177l-48 127l-151 -58q-58 -5 -93 21.5t-34 77.5q0 39 24.5 72t65.5 34q28 0 52 -8.5t55 -23.5q6 -3 9 -5l34 128q-41 23 -74.5 33.5t-75.5 10.5q-67 0 -118.5 -35t-79.5 -91t-28 -115q0 -51 24 -96t66 -69
l-138 -53z" />
    <glyph glyph-name="uni0625" unicode="&#x625;" horiz-adv-x="596" arabic-form="isolated" 
d="M176 0h244v1442h-244v-1442zM80 -815l463 177l-48 127l-151 -58q-58 -5 -93 21.5t-34 77.5q0 39 24.5 72t65.5 34q28 0 52 -8.5t55 -23.5q6 -3 9 -5l34 128q-41 23 -74.5 33.5t-75.5 10.5q-67 0 -118.5 -35t-79.5 -91t-28 -115q0 -51 24 -96t66 -69l-138 -53z" />
    <glyph glyph-name="uni0627" unicode="&#x627;" horiz-adv-x="596" arabic-form="isolated" 
d="M176 0h244v1442h-244v-1442z" />
    <glyph glyph-name="uni0628" unicode="&#x628;" horiz-adv-x="1762" arabic-form="isolated" 
d="M1227 0q109 0 201 51.5t146 140t54 193.5v364h-244v-333q0 -65 -46 -110.5t-111 -45.5h-692q-64 0 -110 45.5t-46 110.5v333h-244v-364q0 -105 53.5 -193.5t145.5 -140t201 -51.5h692zM1006 -274h-250q-1 -106 0 -214h250q1 108 0 214z" />
    <glyph glyph-name="uni0629" unicode="&#x629;" horiz-adv-x="1091" arabic-form="isolated" 
d="M686.5 502q40.5 -75 40.5 -124q0 -47 -27 -81t-68.5 -51.5t-83.5 -17.5t-83.5 18.5t-68.5 52.5t-27 79q0 80 56 157t125 140q96 -98 136.5 -173zM209.5 637q-85.5 -119 -85.5 -259q0 -109 58 -199.5t156 -143t210 -52.5q107 0 204.5 48t158.5 138.5t61 208.5
q0 143 -103.5 298.5t-312.5 325.5l-95 78l-155 -190l77 -62q-88 -72 -173.5 -191zM535 1478h-302q-1 -103 0 -208h302v208zM823 1478h-302q-1 -103 0 -208h302q1 105 0 208z" />
    <glyph glyph-name="uni062A" unicode="&#x62a;" horiz-adv-x="1762" arabic-form="isolated" 
d="M1227 0q109 0 201 51.5t146 140t54 193.5v364h-244v-333q0 -65 -46 -110.5t-111 -45.5h-692q-64 0 -110 45.5t-46 110.5v333h-244v-364q0 -105 53.5 -193.5t145.5 -140t201 -51.5h692zM888 1091h-302q-1 -103 0 -208h302v208zM1176 1091h-302q-1 -103 0 -208h302
q1 105 0 208z" />
    <glyph glyph-name="uni062B" unicode="&#x62b;" horiz-adv-x="1762" arabic-form="isolated" 
d="M1227 0q109 0 201 51.5t146 140t54 193.5v364h-244v-333q0 -65 -46 -110.5t-111 -45.5h-692q-64 0 -110 45.5t-46 110.5v333h-244v-364q0 -105 53.5 -193.5t145.5 -140t201 -51.5h692zM888 1105h-302q-1 -103 0 -208h302v208zM1176 1105h-302q-1 -103 0 -208h302
q1 105 0 208zM1002 1424h-242v-209h242v209z" />
    <glyph glyph-name="uni062C" unicode="&#x62c;" horiz-adv-x="1347" arabic-form="isolated" 
d="M531 410q-207 -83 -311.5 -231t-96.5 -309q7 -142 74 -252.5t188 -172.5t285 -62h530v259h-530q-118 0 -191 48t-95 119q-32 109 22.5 205t212.5 168l634 296l10 264l-103 61t-223.5 127t-215.5 109q-101 46 -204 33t-187 -80t-130 -177l-26 -59l223 -100l27 60
q21 57 77.5 94t124.5 5q33 -16 113 -56q206 -102 287 -140zM975 56h-250q-1 -106 0 -214h250q1 108 0 214z" />
    <glyph glyph-name="uni062D" unicode="&#x62d;" horiz-adv-x="1350" arabic-form="isolated" 
d="M427 369q-137 -55 -220 -174.5t-83 -265.5q0 -128 63.5 -236t171.5 -171.5t236 -63.5h605v260h-605q-73 0 -129.5 33t-81.5 96q-32 91 5 171.5t126 122.5l747 337l10 264q-4 0 -86 48q-317 182 -465 249q-101 46 -204 33t-187 -80t-130 -177l-26 -59l223 -100l27 60
q21 57 77.5 94t124.5 5l80 -40q229 -113 329 -156z" />
    <glyph glyph-name="uni062E" unicode="&#x62e;" horiz-adv-x="1350" arabic-form="isolated" 
d="M427 369q-137 -55 -220 -174.5t-83 -265.5q0 -128 63.5 -236t171.5 -171.5t236 -63.5h605v260h-605q-73 0 -129.5 33t-81.5 96q-32 91 5 171.5t126 122.5l747 337l10 264q-4 0 -86 48q-317 182 -465 249q-101 46 -204 33t-187 -80t-130 -177l-26 -59l223 -100l27 60
q21 57 77.5 94t124.5 5l80 -40q229 -113 329 -156zM751 1535h-250q-1 -106 0 -214h250q1 108 0 214z" />
    <glyph glyph-name="uni062F" unicode="&#x62f;" horiz-adv-x="1125" arabic-form="isolated" 
d="M841.5 52.5q81.5 52.5 125.5 137.5t38 182.5t-70 181.5l-390 512l-194 -148l390 -512q23 -31 19.5 -69.5t-31.5 -65.5t-69 -27h-587v-244h587q100 0 181.5 52.5z" />
    <glyph glyph-name="uni0630" unicode="&#x630;" horiz-adv-x="1122" arabic-form="isolated" 
d="M841.5 52.5q81.5 52.5 125.5 137.5t38 182.5t-70 181.5l-390 512l-194 -148l390 -512q23 -31 19.5 -69.5t-31.5 -65.5t-69 -27h-587v-244h587q100 0 181.5 52.5zM667 1493h-250q-1 -106 0 -214h250q1 108 0 214z" />
    <glyph glyph-name="uni0631" unicode="&#x631;" horiz-adv-x="783" arabic-form="isolated" 
d="M81 -542q153 0 284 79.5t207.5 211.5t76.5 282v681h-245v-649q0 -88 -43.5 -168t-118 -128.5t-161.5 -48.5h-89v-260h89z" />
    <glyph glyph-name="uni0632" unicode="&#x632;" horiz-adv-x="783" arabic-form="isolated" 
d="M81 -542q153 0 284 79.5t207.5 211.5t76.5 282v681h-245v-649q0 -88 -43.5 -168t-118 -128.5t-161.5 -48.5h-89v-260h89zM652 1181h-250q-1 -106 0 -214h250q1 108 0 214z" />
    <glyph glyph-name="uni0633" unicode="&#x633;" horiz-adv-x="2649" arabic-form="isolated" 
d="M1569 0q165 0 264 154q98 -154 265 -154h28q109 0 197.5 53.5t139.5 145.5t51 202v348h-244v-333q0 -65 -40 -110.5t-104 -45.5h-28q-63 0 -102.5 45.5t-39.5 110.5v296h-245v-296q0 -65 -39.5 -110.5t-102.5 -45.5h-28q-63 0 -103.5 45.5t-40.5 110.5v295h-244v-648
q0 -95 -40 -173.5t-117 -125t-185 -46.5h-90q-110 0 -187 47.5t-116 126t-39 171.5v449h-244v-481q0 -154 72 -285.5t205 -209.5t309 -78h90q169 0 300 73.5t205.5 199t80.5 276.5v53q24 -27 61.5 -43.5t82.5 -16.5h28z" />
    <glyph glyph-name="uni0634" unicode="&#x634;" horiz-adv-x="2648" arabic-form="isolated" 
d="M1569 0q165 0 264 154q98 -154 265 -154h28q109 0 197.5 53.5t139.5 145.5t51 202v348h-244v-333q0 -65 -40 -110.5t-104 -45.5h-28q-63 0 -102.5 45.5t-39.5 110.5v296h-245v-296q0 -65 -39.5 -110.5t-102.5 -45.5h-28q-63 0 -103.5 45.5t-40.5 110.5v295h-244v-648
q0 -95 -40 -173.5t-117 -125t-185 -46.5h-90q-110 0 -187 47.5t-116 126t-39 171.5v449h-244v-481q0 -154 72 -285.5t205 -209.5t309 -78h90q169 0 300 73.5t205.5 199t80.5 276.5v53q24 -27 61.5 -43.5t82.5 -16.5h28zM1841 1175h-302q-1 -103 0 -208h302v208zM2129 1175
h-302q-1 -103 0 -208h302q1 105 0 208zM1955 1494h-242v-209h242v209z" />
    <glyph glyph-name="uni0635" unicode="&#x635;" horiz-adv-x="2679" arabic-form="isolated" 
d="M2321.5 58.5q109.5 58.5 172 161.5t62.5 231q0 111 -49 216.5t-156.5 173t-271.5 61.5q-238 -9 -382 -212.5t-215 -407.5q-36 11 -60.5 44t-24.5 75v300h-244v-638q0 -93 -39 -171.5t-116 -126t-187 -47.5h-90q-110 0 -187 47.5t-116 126t-39 171.5v449h-244v-481
q0 -154 71.5 -285.5t205 -209.5t309.5 -78h90q176 0 309 78t205 209.5t72 284.5v56q50 -40 110 -63t124 -23h445q136 0 245.5 58.5zM1729 260q0 2 2 5q66 149 151.5 268.5t204.5 124.5q102 2 163.5 -48.5t61.5 -158.5q0 -94 -67 -142.5t-169 -48.5h-347z" />
    <glyph glyph-name="uni0636" unicode="&#x636;" horiz-adv-x="2679" arabic-form="isolated" 
d="M2321.5 58.5q109.5 58.5 172 161.5t62.5 231q0 111 -49 216.5t-156.5 173t-271.5 61.5q-238 -9 -382 -212.5t-215 -407.5q-36 11 -60.5 44t-24.5 75v300h-244v-638q0 -93 -39 -171.5t-116 -126t-187 -47.5h-90q-110 0 -187 47.5t-116 126t-39 171.5v449h-244v-481
q0 -154 71.5 -285.5t205 -209.5t309.5 -78h90q176 0 309 78t205 209.5t72 284.5v56q50 -40 110 -63t124 -23h445q136 0 245.5 58.5zM1729 260q0 2 2 5q66 149 151.5 268.5t204.5 124.5q102 2 163.5 -48.5t61.5 -158.5q0 -94 -67 -142.5t-169 -48.5h-347zM2168 1357h-250
q-1 -106 0 -214h250q1 108 0 214z" />
    <glyph glyph-name="uni0637" unicode="&#x637;" horiz-adv-x="1553" arabic-form="isolated" 
d="M369 329q-11 -27 -22 -61q-2 -6 -3 -8h-209v-260h815q135 0 245 58.5t172.5 161.5t62.5 231q0 111 -50.5 217.5t-158 173.5t-269.5 60q-182 -8 -350 -210l11 260v490h-244v-1113zM602 260q0 1 1 4q66 148 152 268.5t206 125.5q101 3 163 -48t62 -159q0 -94 -67.5 -142.5
t-168.5 -48.5h-348z" />
    <glyph glyph-name="uni0638" unicode="&#x638;" horiz-adv-x="1553" arabic-form="isolated" 
d="M369 329q-11 -27 -22 -61q-2 -6 -3 -8h-209v-260h815q135 0 245 58.5t172.5 161.5t62.5 231q0 111 -50.5 217.5t-158 173.5t-269.5 60q-182 -8 -350 -210l11 260v490h-244v-1113zM602 260q0 1 1 4q66 148 152 268.5t206 125.5q101 3 163 -48t62 -159q0 -94 -67.5 -142.5
t-168.5 -48.5h-348zM1160 1357h-250q-1 -106 0 -214h250q1 108 0 214z" />
    <glyph glyph-name="uni0639" unicode="&#x639;" horiz-adv-x="1220" arabic-form="isolated" 
d="M1086 -282h-472q-67 0 -123.5 29t-89.5 81.5t-33 119.5q0 66 33.5 122.5t89.5 89.5t123 33h449v260h-359q-89 8 -139 58t-50 128q0 88 49.5 150t135.5 67q64 5 112 -11.5t122 -61.5l78 237q-148 95 -338 79q-116 -9 -207.5 -71.5t-143.5 -164t-52 -224.5q0 -82 35 -155
t97 -125q-129 -61 -204 -166t-75 -245q0 -133 66 -245.5t178.5 -178.5t245.5 -66h472v260z" />
    <glyph glyph-name="uni063A" unicode="&#x63a;" horiz-adv-x="1220" arabic-form="isolated" 
d="M1086 -282h-472q-67 0 -123.5 29t-89.5 81.5t-33 119.5q0 66 33.5 122.5t89.5 89.5t123 33h449v260h-359q-89 8 -139 58t-50 128q0 88 49.5 150t135.5 67q64 5 112 -11.5t122 -61.5l78 237q-148 95 -338 79q-116 -9 -207.5 -71.5t-143.5 -164t-52 -224.5q0 -82 35 -155
t97 -125q-129 -61 -204 -166t-75 -245q0 -133 66 -245.5t178.5 -178.5t245.5 -66h472v260zM798 1552h-250q-1 -106 0 -214h250q1 108 0 214z" />
    <glyph glyph-name="uni0641" unicode="&#x641;" horiz-adv-x="1840" arabic-form="isolated" 
d="M1651 1011q-54 97 -149 156t-213 59q-114 0 -208.5 -57t-150.5 -156t-58 -217q-4 -187 73 -278t263 -91h252v-17q0 -65 -61 -107.5t-146 -42.5h-718q-64 0 -110 45.5t-46 110.5v333h-244v-364q0 -105 53.5 -193.5t145.5 -140t201 -51.5h718q121 0 225 51.5t165.5 139
t61.5 190.5v426q0 107 -54 204zM1262 671q-82 0 -115.5 36t-29.5 112q3 70 47 120.5t125 50.5q51 0 90 -27.5t60 -70t21 -82.5v-139h-198zM1414 1638h-250q-1 -106 0 -214h250q1 108 0 214z" />
    <glyph glyph-name="uni0642" unicode="&#x642;" horiz-adv-x="1688" arabic-form="isolated" 
d="M1350 809.5q96 -58.5 150 -163t54 -239.5v-391q0 -152 -76 -280t-202.5 -203t-270.5 -75h-284q-176 0 -309.5 78.5t-205 210t-71.5 284.5v482h244v-450q0 -92 39 -170.5t116 -126.5t187 -48h284q135 0 217.5 76.5t83.5 205.5h-176q-216 0 -319.5 107t-103.5 300
q0 132 54.5 237.5t151 164.5t217.5 59q124 0 220 -58.5zM1309 407q0 85 -41 151t-138 66q-63 0 -103 -34t-57.5 -84t-17.5 -99q0 -73 39.5 -110t138.5 -37h179v147zM1140 1285h-302q-1 -103 0 -208h302v208zM1428 1285h-302q-1 -103 0 -208h302q1 105 0 208z" />
    <glyph glyph-name="uni0643" unicode="&#x643;" horiz-adv-x="1745" arabic-form="isolated" 
d="M1394 51.5q92 51.5 145.5 140t53.5 193.5v1057h-244v-1026q0 -65 -45.5 -110.5t-110.5 -45.5h-658q-64 0 -110 45.5t-46 110.5v333h-244v-364q0 -105 53.5 -193.5t145.5 -140t201 -51.5h658q109 0 201 51.5zM656 626l463 177l-48 127l-151 -58q-58 -5 -93 21.5t-34 77.5
q0 39 24.5 72t65.5 34q28 0 52 -8.5t55 -23.5q6 -3 9 -5l34 128q-41 23 -74.5 33.5t-75.5 10.5q-67 0 -118.5 -35t-79.5 -91t-28 -115q0 -51 24 -96t66 -69l-138 -53z" />
    <glyph glyph-name="uni0644" unicode="&#x644;" horiz-adv-x="1573" arabic-form="isolated" 
d="M811 -542q176 0 309.5 78t205 209.5t71.5 285.5v1411h-244v-1379q0 -93 -39 -171.5t-116 -126t-187 -47.5h-90q-110 0 -187 47.5t-116 126t-39 171.5v435h-244v-467q0 -154 71.5 -285.5t205 -209.5t309.5 -78h90z" />
    <glyph glyph-name="uni0645" unicode="&#x645;" horiz-adv-x="1575" arabic-form="isolated" 
d="M379 443q0 54 26.5 99t71.5 71.5t99 26.5h38q-3 -84 -3 -204q-1 -136 47.5 -237.5t142 -157.5t223.5 -56q123 0 221 56t153 158t54 236q0 131 -54 233.5t-150.5 159t-222.5 56.5h-449q-120 0 -221.5 -59.5t-160.5 -160.5t-59 -221v-986h244v986zM1163 582q45 -57 45 -147
q1 -114 -55.5 -159.5t-128.5 -45.5q-96 0 -140.5 58t-43.5 146v206h184q94 -1 139 -58z" />
    <glyph glyph-name="uni0646" unicode="&#x646;" horiz-adv-x="1532" arabic-form="isolated" 
d="M811 -542q176 0 309.5 78t205 209.5t71.5 285.5v670h-244v-638q0 -93 -39 -171.5t-116 -126t-187 -47.5h-90q-110 0 -187 47.5t-116 126t-39 171.5v449h-244v-481q0 -154 71.5 -285.5t205 -209.5t309.5 -78h90zM834 944h-250q-1 -106 0 -214h250q1 108 0 214z" />
    <glyph glyph-name="uni0647" unicode="&#x647;" horiz-adv-x="1091" arabic-form="isolated" 
d="M686.5 502q40.5 -75 40.5 -124q0 -47 -27 -81t-68.5 -51.5t-83.5 -17.5t-83.5 18.5t-68.5 52.5t-27 79q0 80 56 157t125 140q96 -98 136.5 -173zM209.5 637q-85.5 -119 -85.5 -259q0 -109 58 -199.5t156 -143t210 -52.5q107 0 204.5 48t158.5 138.5t61 208.5
q0 143 -103.5 298.5t-312.5 325.5l-95 78l-155 -190l77 -62q-88 -72 -173.5 -191z" />
    <glyph glyph-name="uni0648" unicode="&#x648;" horiz-adv-x="1112" arabic-form="isolated" 
d="M554 260q-100 0 -139 36.5t-39 110.5q0 49 17 98.5t57 84t104 34.5q97 0 138 -66t41 -151v-147h-179zM977 407q0 134 -53.5 239t-149.5 163.5t-220 58.5q-121 0 -217.5 -59.5t-151 -164.5t-54.5 -237q0 -193 103.5 -300t319.5 -107h176q0 -130 -81.5 -206t-208.5 -76
h-308v-260h308q139 0 263 74t199 202t75 282v391z" />
    <glyph glyph-name="uni0649" unicode="&#x649;" horiz-adv-x="1613" arabic-form="isolated" 
d="M1396 243q-101 75 -269 76h-183v167q0 71 48 118.5t119 47.5h317v245h-317q-114 0 -208 -55t-148.5 -149t-54.5 -207v-411h423q66 -1 96 -27.5t25 -90.5q-4 -64 -46.5 -118t-129 -87.5t-217.5 -33.5h-137q-108 0 -184 46.5t-113.5 123.5t-37.5 167v457h-244l-1 -488
q0 -153 71 -282.5t202.5 -206.5t306.5 -77h137q232 0 372.5 82.5t199.5 198.5t66 230q8 199 -93 274z" />
    <glyph glyph-name="uni064A" unicode="&#x64a;" horiz-adv-x="1613" arabic-form="isolated" 
d="M1396 243q-101 75 -269 76h-183v167q0 71 48 118.5t119 47.5h317v245h-317q-114 0 -208 -55t-148.5 -149t-54.5 -207v-411h423q66 -1 96 -27.5t25 -90.5q-4 -64 -46.5 -118t-129 -87.5t-217.5 -33.5h-137q-108 0 -184 46.5t-113.5 123.5t-37.5 167v457h-244l-1 -488
q0 -153 71 -282.5t202.5 -206.5t306.5 -77h137q232 0 372.5 82.5t199.5 198.5t66 230q8 199 -93 274zM810 -757h-302q-1 -105 0 -208h302v208zM1098 -757h-302q-1 -105 0 -208h302q1 103 0 208z" />
    <glyph glyph-name="uni064B" unicode="&#xfe70;" horiz-adv-x="0" arabic-form="isolated" 
d="M-294 1798l532 212l-50 125l-532 -210zM-400 2095l532 212l-50 125l-532 -210z" />
    <glyph glyph-name="uni064C" unicode="&#xfe72;" horiz-adv-x="0" arabic-form="isolated" 
d="M56 1892l20 -49l126 50l-20 48l94 36q91 39 128 125t3 180q-39 92 -125 129t-180 3q-91 -39 -128.5 -125.5t-2.5 -179.5l35 -92l-132 -51l5 151q-1 63 -34.5 114t-89 66t-119.5 -22l-60 -33l67 -118l60 33q22 13 40 1t15 -34l-34 -253l91 -73zM236.5 2282.5
q31.5 -17.5 44.5 -50.5q15 -38 -1 -75.5t-54 -53.5l-94 -36l-35 91q-17 43 4.5 84t67.5 49q36 9 67.5 -8.5z" />
    <glyph glyph-name="uni064D" unicode="&#xfe74;" horiz-adv-x="0" arabic-form="isolated" 
d="M-400 -870l532 211l-50 125l-532 -210zM-294 -1167l532 211l-50 125l-532 -210z" />
    <glyph glyph-name="uni064E" unicode="&#xfe76;" horiz-adv-x="0" arabic-form="isolated" 
d="M-241 1798l532 212l-50 125l-532 -210z" />
    <glyph glyph-name="uni064F" unicode="&#xfe78;" horiz-adv-x="0" arabic-form="isolated" 
d="M-46 1888l19 -47l126 50l-19 47l93 36q92 40 129 126t3 180q-39 92 -125 129t-180 3q-92 -40 -129 -126t-3 -180l36 -92l-226 -89l50 -127zM142.5 2275q25.5 -17 36.5 -45q15 -38 -1.5 -76t-54.5 -54l-92 -36l-37 93q-12 30 -3.5 62t34.5 52.5t61 20.5q31 0 56.5 -17z
" />
    <glyph glyph-name="uni0650" unicode="&#xfe7a;" horiz-adv-x="0" arabic-form="isolated" 
d="M-241 -870l532 211l-50 125l-532 -210z" />
    <glyph glyph-name="uni0651" unicode="&#xfe7c;" horiz-adv-x="0" arabic-form="isolated" 
d="M18 1904q50 -50 121 -50h14q56 0 103.5 28t75.5 75.5t28 104.5v188h-135v-188q0 -30 -21 -51t-51 -21h-14q-30 0 -51 21t-21 51v133h-134v-189q0 -30 -21 -51t-51 -21h-14q-30 0 -51 21t-21 51v189h-135v-189q0 -56 28 -104t75.5 -76t103.5 -28h14q104 0 157 106z" />
    <glyph glyph-name="uni0652" unicode="&#xfe7e;" horiz-adv-x="0" arabic-form="isolated" 
d="M131.5 1833.5q60.5 35.5 96 96t35.5 132.5q0 71 -35.5 131t-96 95.5t-131.5 35.5t-131.5 -35.5t-96 -95.5t-35.5 -131q0 -72 35.5 -132.5t96 -96t131.5 -35.5t131.5 35.5zM89.5 2151q37.5 -37 37.5 -89q0 -54 -37 -91t-90 -37t-90 37.5t-37 90.5q0 52 37 89t90 37
q52 0 89.5 -37z" />
    <glyph glyph-name="uni0671" unicode="&#x671;" horiz-adv-x="591" arabic-form="isolated" 
d="M176 0h244v1273h-244v-1273zM311.5 1730.5q40.5 57.5 93.5 57.5q59 0 83.5 -36t24.5 -80q0 -32 -32 -54.5t-79 -22.5h-163q32 78 72.5 135.5zM82 1692.5q-13 28.5 -13 57.5v68h-135v-68q0 -67 32.5 -135t87 -112t114.5 -44h234q68 0 124.5 28.5t89 77t32.5 107.5
q0 70 -30.5 127.5t-85.5 91t-127 33.5q-108 0 -178 -85.5t-113 -191.5q-19 17 -32 45.5z" />
    <glyph glyph-name="uni0675" unicode="&#x623;" horiz-adv-x="658" arabic-form="final" 
d="M661 260h-92q-64 0 -106.5 45.5t-42.5 110.5v857h-244v-888q0 -104 48 -192t137.5 -140.5t207.5 -52.5h92v260zM80 1481l463 177l-48 127l-151 -58q-58 -5 -93 21.5t-34 77.5q0 39 24.5 72t65.5 34q28 0 52 -8.5t55 -23.5q6 -3 9 -5l34 128q-41 23 -74.5 33.5t-75.5 10.5
q-67 0 -118.5 -35t-79.5 -91t-28 -115q0 -51 24 -96t66 -69l-138 -53z" />
    <glyph glyph-name="uni0679" unicode="&#x679;" horiz-adv-x="1762" arabic-form="isolated" 
d="M1227 0q109 0 201 51.5t146 140t54 193.5v364h-244v-333q0 -65 -46 -110.5t-111 -45.5h-692q-64 0 -110 45.5t-46 110.5v333h-244v-364q0 -105 53.5 -193.5t145.5 -140t201 -51.5h692zM942 1112q58 0 83.5 -36.5t25.5 -79.5q0 -33 -32.5 -55t-79.5 -22h-161
q74 193 164 193zM638 941q-2 -8 -4 -21q0 -1 -1 -1h-56v-136h362q68 0 125 28t89.5 77t31.5 108q0 70 -30 127.5t-85.5 90.5t-127.5 33q-90 0 -168 -89v290h-136v-507z" />
    <glyph glyph-name="uni067E" unicode="&#x67e;" horiz-adv-x="1762" arabic-form="isolated" 
d="M1227 0q109 0 201 51.5t146 140t54 193.5v364h-244v-333q0 -65 -46 -110.5t-111 -45.5h-692q-64 0 -110 45.5t-46 110.5v333h-244v-364q0 -105 53.5 -193.5t145.5 -140t201 -51.5h692zM888 -215h-302q-1 -105 0 -208h302v208zM1176 -215h-302q-1 -105 0 -208h302
q1 103 0 208zM1002 -535h-242v-208h242v208z" />
    <glyph glyph-name="uni0686" unicode="&#x686;" horiz-adv-x="1347" arabic-form="isolated" 
d="M531 410q-207 -83 -311.5 -231t-96.5 -309q7 -142 74 -252.5t188 -172.5t285 -62h530v259h-530q-118 0 -191 48t-95 119q-32 109 22.5 205t212.5 168l634 296l10 264l-103 61t-223.5 127t-215.5 109q-101 46 -204 33t-187 -80t-130 -177l-26 -59l223 -100l27 60
q21 57 77.5 94t124.5 5q33 -16 113 -56q206 -102 287 -140zM887 111h-238q-1 -68 0 -135h238q1 67 0 135zM1115 111h-238q-1 -68 0 -135h238q1 67 0 135zM973 -104h-182v-143h182v143z" />
    <glyph glyph-name="uni0688" unicode="&#x688;" horiz-adv-x="1125" arabic-form="isolated" 
d="M841.5 52.5q81.5 52.5 125.5 137.5t38 182.5t-70 181.5l-390 512l-194 -148l390 -512q23 -31 19.5 -69.5t-31.5 -65.5t-69 -27h-587v-244h587q100 0 181.5 52.5zM614 1618q58 0 83.5 -36.5t25.5 -79.5q0 -33 -32.5 -55t-79.5 -22h-161q74 193 164 193zM310 1447
q-2 -8 -4 -21q0 -1 -1 -1h-56v-136h362q68 0 125 28t89.5 77t31.5 108q0 70 -30 127.5t-85.5 90.5t-127.5 33q-90 0 -168 -89v290h-136v-507z" />
    <glyph glyph-name="uni0691" unicode="&#x691;" horiz-adv-x="783" arabic-form="isolated" 
d="M81 -542q153 0 284 79.5t207.5 211.5t76.5 282v681h-245v-649q0 -88 -43.5 -168t-118 -128.5t-161.5 -48.5h-89v-260h89zM588 1326q58 0 83.5 -36.5t25.5 -79.5q0 -33 -32.5 -55t-79.5 -22h-161q74 193 164 193zM284 1155q-2 -8 -4 -21q0 -1 -1 -1h-56v-136h362
q68 0 125 28t89.5 77t31.5 108q0 70 -30 127.5t-85.5 90.5t-127.5 33q-90 0 -168 -89v290h-136v-507z" />
    <glyph glyph-name="uni0698" unicode="&#x698;" horiz-adv-x="783" arabic-form="isolated" 
d="M81 -542q153 0 284 79.5t207.5 211.5t76.5 282v681h-245v-649q0 -88 -43.5 -168t-118 -128.5t-161.5 -48.5h-89v-260h89zM534 1175h-302q-1 -103 0 -208h302v208zM822 1175h-302q-1 -103 0 -208h302q1 105 0 208zM648 1494h-242v-209h242v209z" />
    <glyph glyph-name="uni06A4" unicode="&#x6a4;" horiz-adv-x="1854" arabic-form="isolated" 
d="M1651 1011q-54 97 -149 156t-213 59q-114 0 -208.5 -57t-150.5 -156t-58 -217q-4 -187 73 -278t263 -91h252v-17q0 -65 -61 -107.5t-146 -42.5h-718q-64 0 -110 45.5t-46 110.5v333h-244v-364q0 -105 53.5 -193.5t145.5 -140t201 -51.5h718q121 0 225 51.5t165.5 139
t61.5 190.5v426q0 107 -54 204zM1262 671q-82 0 -115.5 36t-29.5 112q3 70 47 120.5t125 50.5q51 0 90 -27.5t60 -70t21 -82.5v-139h-198zM1296 1632h-302q-1 -103 0 -208h302v208zM1584 1632h-302q-1 -103 0 -208h302q1 105 0 208zM1410 1951h-242v-209h242v209z" />
    <glyph glyph-name="uni06A9" unicode="&#x6a9;" horiz-adv-x="1788" arabic-form="isolated" 
d="M1305 0q110 0 193.5 58.5t123.5 151t24.5 193.5t-91.5 180l-432 452l555 212l-86 228l-727 -277v-245l498 -522q30 -32 28.5 -72.5t-29.5 -69.5t-72 -29h-755q-64 0 -110 45.5t-46 110.5v333h-244v-348q0 -109 53.5 -201t145.5 -146t201 -54h770z" />
    <glyph glyph-name="uni06AF" unicode="&#x6af;" horiz-adv-x="1788" arabic-form="isolated" 
d="M1305 0q110 0 193.5 58.5t123.5 151t24.5 193.5t-91.5 180l-432 452l555 212l-86 228l-727 -277v-245l498 -522q30 -32 28.5 -72.5t-29.5 -69.5t-72 -29h-755q-64 0 -110 45.5t-46 110.5v333h-244v-348q0 -109 53.5 -201t145.5 -146t201 -54h770zM1502 1590l-51 133
l-589 -217l1 -148z" />
    <glyph glyph-name="uni06BA" unicode="&#x6ba;" horiz-adv-x="1532" arabic-form="isolated" 
d="M811 -542q176 0 309.5 78t205 209.5t71.5 285.5v670h-244v-638q0 -93 -39 -171.5t-116 -126t-187 -47.5h-90q-110 0 -187 47.5t-116 126t-39 171.5v449h-244v-481q0 -154 71.5 -285.5t205 -209.5t309.5 -78h90z" />
    <glyph glyph-name="uni06BE" unicode="&#x6be;" horiz-adv-x="1592" arabic-form="isolated" 
d="M1205 460q29 -45 21.5 -92t-45.5 -77.5t-92 -30.5h-234q50 49 85.5 121.5t35.5 158.5q0 111 -57 203t-155 145t-217 53q-118 0 -216.5 -53t-155 -145t-56.5 -203q0 -61 26 -151t82.5 -179.5t149 -149.5t217.5 -60h495q110 0 198 55t137.5 145.5t48 194.5t-60.5 197
l-305 473l-206 -132zM633.5 678.5q42.5 -17.5 70.5 -53t28 -85.5q0 -150 -185 -279q-184 128 -184 279q0 50 27.5 85.5t70 53t86.5 17.5t86.5 -17.5z" />
    <glyph glyph-name="uni06C1" unicode="&#x6c1;" horiz-adv-x="1091" arabic-form="isolated" 
d="M686.5 502q40.5 -75 40.5 -124q0 -47 -27 -81t-68.5 -51.5t-83.5 -17.5t-83.5 18.5t-68.5 52.5t-27 79q0 80 56 157t125 140q96 -98 136.5 -173zM209.5 637q-85.5 -119 -85.5 -259q0 -109 58 -199.5t156 -143t210 -52.5q107 0 204.5 48t158.5 138.5t61 208.5
q0 143 -103.5 298.5t-312.5 325.5l-95 78l-155 -190l77 -62q-88 -72 -173.5 -191z" />
    <glyph glyph-name="uni06C3.fina" unicode="&#x6c3;" horiz-adv-x="1172" 
d="M412 344q7 60 46 108t97 67l155 51l18 -206q9 -101 65 -184.5t144 -131.5t190 -48h45v260h-45q-62 0 -106 34t-50 93l-32 360l-160 104l-302 -100q-125 -43 -208.5 -144.5t-99.5 -231.5l-45 -358l243 -31zM641 1276h-302q-1 -103 0 -208h302v208zM929 1276h-302
q-1 -103 0 -208h302q1 105 0 208z" />
    <glyph glyph-name="uni06C6" unicode="&#x6c6;" horiz-adv-x="1112" arabic-form="isolated" 
d="M554 260q-100 0 -139 36.5t-39 110.5q0 49 17 98.5t57 84t104 34.5q97 0 138 -66t41 -151v-147h-179zM977 407q0 134 -53.5 239t-149.5 163.5t-220 58.5q-121 0 -217.5 -59.5t-151 -164.5t-54.5 -237q0 -193 103.5 -300t319.5 -107h176q0 -130 -81.5 -206t-208.5 -76
h-308v-260h308q139 0 263 74t199 202t75 282v391zM909 1442l-171 4l-188 -215l-188 215l-171 -4l308 -359h102z" />
    <glyph glyph-name="uni06C7" unicode="&#x6c7;" horiz-adv-x="1112" arabic-form="isolated" 
d="M554 260q-100 0 -139 36.5t-39 110.5q0 49 17 98.5t57 84t104 34.5q97 0 138 -66t41 -151v-147h-179zM977 407q0 134 -53.5 239t-149.5 163.5t-220 58.5q-121 0 -217.5 -59.5t-151 -164.5t-54.5 -237q0 -193 103.5 -300t319.5 -107h176q0 -130 -81.5 -206t-208.5 -76
h-308v-260h308q139 0 263 74t199 202t75 282v391zM504 1143l19 -47l126 50l-19 47l93 36q92 40 129 126t3 180q-39 92 -125 129t-180 3q-92 -40 -129 -126t-3 -180l36 -92l-226 -89l50 -127zM692.5 1530q25.5 -17 36.5 -45q15 -38 -1.5 -76t-54.5 -54l-92 -36l-37 93
q-12 30 -3.5 62t34.5 52.5t61 20.5q31 0 56.5 -17z" />
    <glyph glyph-name="uni06C9" unicode="&#x6c9;" horiz-adv-x="1112" arabic-form="isolated" 
d="M554 260q-100 0 -139 36.5t-39 110.5q0 49 17 98.5t57 84t104 34.5q97 0 138 -66t41 -151v-147h-179zM977 407q0 134 -53.5 239t-149.5 163.5t-220 58.5q-121 0 -217.5 -59.5t-151 -164.5t-54.5 -237q0 -193 103.5 -300t319.5 -107h176q0 -130 -81.5 -206t-208.5 -76
h-308v-260h308q139 0 263 74t199 202t75 282v391zM909 1072l-171 -4l-188 215l-188 -215l-171 4l308 359h102z" />
    <glyph glyph-name="uni06D2" unicode="&#x6d2;" horiz-adv-x="1628" arabic-form="isolated" 
d="M1493 244h-902q-58 0 -106.5 28.5t-77 77.5t-28.5 106q0 58 28.5 106.5t77 77t106.5 28.5h234v245h-234q-124 0 -229 -61.5t-166 -166.5t-61 -229t61 -228.5t166 -166t229 -61.5h902v244z" />
    <glyph glyph-name="uni06D3" unicode="&#x6d3;" horiz-adv-x="1628" arabic-form="isolated" 
d="M1493 244h-902q-58 0 -106.5 28.5t-77 77.5t-28.5 106q0 58 28.5 106.5t77 77t106.5 28.5h234v245h-234q-124 0 -229 -61.5t-166 -166.5t-61 -229t61 -228.5t166 -166t229 -61.5h902v244zM279 1149l463 177l-48 127l-151 -58q-58 -5 -93 21.5t-34 77.5q0 39 24.5 72
t65.5 34q28 0 52 -8.5t55 -23.5q6 -3 9 -5l34 128q-41 23 -74.5 33.5t-75.5 10.5q-67 0 -118.5 -35t-79.5 -91t-28 -115q0 -51 24 -96t66 -69l-138 -53z" />
    <glyph glyph-name="uniFB51" unicode="&#x671;" horiz-adv-x="652" arabic-form="final" 
d="M661 260h-92q-64 0 -106.5 45.5t-42.5 110.5v857h-244v-888q0 -104 48 -192t137.5 -140.5t207.5 -52.5h92v260zM311.5 1730.5q40.5 57.5 93.5 57.5q59 0 83.5 -36t24.5 -80q0 -32 -32 -54.5t-79 -22.5h-163q32 78 72.5 135.5zM82 1692.5q-13 28.5 -13 57.5v68h-135v-68
q0 -67 32.5 -135t87 -112t114.5 -44h234q68 0 124.5 28.5t89 77t32.5 107.5q0 70 -30.5 127.5t-85.5 91t-127 33.5q-108 0 -178 -85.5t-113 -191.5q-19 17 -32 45.5z" />
    <glyph glyph-name="uniFB57" unicode="&#x67e;" horiz-adv-x="1839" arabic-form="final" 
d="M1389 40.5q70 40.5 117 113.5q47 -73 117 -113.5t161 -40.5h55v260h-55q-65 0 -110.5 45.5t-45.5 110.5v296h-244v-296q0 -65 -46 -110.5t-111 -45.5h-692q-64 0 -110 45.5t-46 110.5v333h-244v-364q0 -105 53.5 -193.5t145.5 -140t201 -51.5h692q92 0 162 40.5z
M888 -215h-302q-1 -105 0 -208h302v208zM1176 -215h-302q-1 -105 0 -208h302q1 103 0 208zM1002 -535h-242v-208h242v208z" />
    <glyph glyph-name="uniFB58" unicode="&#x67e;" horiz-adv-x="715" arabic-form="initial" 
d="M-56 179.5q-15 -49.5 0 -99.5t56 -80h180q109 0 201 51.5t146 140t54 193.5v364h-245v-333q0 -65 -45.5 -110.5t-110.5 -45.5h-180q-41 -31 -56 -80.5zM144 -231h-302q-1 -105 0 -208h302v208zM432 -231h-302q-1 -105 0 -208h302q1 103 0 208zM258 -551h-242v-208h242
v208z" />
    <glyph glyph-name="uniFB59" unicode="&#x67e;" horiz-adv-x="792" arabic-form="medial" 
d="M-56 179.5q-15 -49.5 0 -99.5t56 -80h180q92 0 162 40.5t117 113.5q47 -73 116.5 -113.5t161.5 -40.5h55v260h-55q-65 0 -110.5 45.5t-45.5 110.5v296h-245v-296q0 -65 -45.5 -110.5t-110.5 -45.5h-180q-41 -31 -56 -80.5zM144 -231h-302q-1 -105 0 -208h302v208z
M432 -231h-302q-1 -105 0 -208h302q1 103 0 208zM258 -551h-242v-208h242v208z" />
    <glyph glyph-name="uniFB67" unicode="&#x679;" horiz-adv-x="1839" arabic-form="final" 
d="M1389 40.5q70 40.5 117 113.5q47 -73 117 -113.5t161 -40.5h55v260h-55q-65 0 -110.5 45.5t-45.5 110.5v296h-244v-296q0 -65 -46 -110.5t-111 -45.5h-692q-64 0 -110 45.5t-46 110.5v333h-244v-364q0 -105 53.5 -193.5t145.5 -140t201 -51.5h692q92 0 162 40.5z
M942 1112q58 0 83.5 -36.5t25.5 -79.5q0 -33 -32.5 -55t-79.5 -22h-161q74 193 164 193zM638 941q-2 -8 -4 -21q0 -1 -1 -1h-56v-136h362q68 0 125 28t89.5 77t31.5 108q0 70 -30 127.5t-85.5 90.5t-127.5 33q-90 0 -168 -89v290h-136v-507z" />
    <glyph glyph-name="uniFB68" unicode="&#x679;" horiz-adv-x="804" arabic-form="initial" 
d="M-56 179.5q-15 -49.5 0 -99.5t56 -80h269q109 0 201 51.5t145.5 140t53.5 193.5v364h-244v-333q0 -65 -45.5 -110.5t-110.5 -45.5h-269q-41 -31 -56 -80.5zM461 1318q58 0 83.5 -36.5t25.5 -79.5q0 -33 -32.5 -55t-79.5 -22h-161q74 193 164 193zM157 1147q-2 -8 -4 -21
q0 -1 -1 -1h-56v-136h362q68 0 125 28t89.5 77t31.5 108q0 70 -30 127.5t-85.5 90.5t-127.5 33q-90 0 -168 -89v290h-136v-507z" />
    <glyph glyph-name="uniFB69" unicode="&#x679;" horiz-adv-x="881" arabic-form="medial" 
d="M-56 179.5q-15 -49.5 0 -99.5t56 -80h269q91 0 161 40.5t117 113.5q47 -73 117 -113.5t162 -40.5h55v260h-55q-65 0 -111 45.5t-46 110.5v296h-244v-296q0 -65 -45.5 -110.5t-110.5 -45.5h-269q-41 -31 -56 -80.5zM461 1281q58 0 83.5 -36.5t25.5 -79.5q0 -33 -32.5 -55
t-79.5 -22h-161q74 193 164 193zM157 1110q-2 -8 -4 -21q0 -1 -1 -1h-56v-136h362q68 0 125 28t89.5 77t31.5 108q0 70 -30 127.5t-85.5 90.5t-127.5 33q-90 0 -168 -89v290h-136v-507z" />
    <glyph glyph-name="uniFB6B" unicode="&#x6a4;" horiz-adv-x="1868" arabic-form="final" 
d="M1374.5 678.5q42.5 -17.5 70.5 -53t28 -85.5q0 -151 -185 -279q-184 128 -184 279q0 50 27.5 85.5t70 53t86.5 17.5t86.5 -17.5zM1041 0q107 0 169 17t78 35q15 -18 77.5 -35t169.5 -17h334v260h-273q50 49 85.5 121.5t35.5 158.5q0 111 -57 203t-155 145t-217 53
t-217 -53t-155 -145t-57 -203q0 -86 35.5 -158.5t85.5 -121.5h-445q-64 0 -110 45.5t-46 110.5v333h-244v-364q0 -105 53.5 -193.5t145.5 -140t201 -51.5h506zM1295 1358h-302q-1 -103 0 -208h302v208zM1583 1358h-302q-1 -103 0 -208h302q1 105 0 208zM1409 1677h-242v-209
h242v209z" />
    <glyph glyph-name="uniFB6C" unicode="&#x6a4;" horiz-adv-x="1102" arabic-form="initial" 
d="M515 664q-84 0 -116 24t-32 88q0 75 47.5 141t130.5 66q58 0 98.5 -35.5t60.5 -85.5t20 -92v-106h-209zM-56 179.5q-15 -49.5 0 -99.5t56 -80h516q120 0 224 58t166 153t62 199v360q0 114 -55 220t-151.5 171.5t-216.5 65.5q-116 0 -213 -65.5t-153.5 -173t-56.5 -227.5
q0 -111 28.5 -183t103 -111.5t208.5 -39.5h262v-17q0 -37 -29 -72t-77 -56.5t-102 -21.5h-516q-41 -31 -56 -80.5zM552 1632h-302q-1 -103 0 -208h302v208zM840 1632h-302q-1 -103 0 -208h302q1 105 0 208zM666 1951h-242v-209h242v209z" />
    <glyph glyph-name="uniFB6D" unicode="&#x6a4;" horiz-adv-x="1162" arabic-form="medial" 
d="M667.5 678.5q42.5 -17.5 70 -53t27.5 -85.5q0 -149 -184 -279q-184 128 -184 279q0 50 27.5 85.5t70 53t86.5 17.5t86.5 -17.5zM-56 179.5q-15 -49.5 0 -99.5t56 -80h334q107 0 169 17t78 35q16 -18 78 -35t169 -17h334v260h-273q50 49 85 121.5t35 158.5
q0 111 -56.5 203t-155 145t-216.5 53q-119 0 -217 -53t-155 -145t-57 -203q0 -86 35 -158.5t86 -121.5h-273q-41 -31 -56 -80.5zM588 1358h-302q-1 -103 0 -208h302v208zM876 1358h-302q-1 -103 0 -208h302q1 105 0 208zM702 1677h-242v-209h242v209z" />
    <glyph glyph-name="uniFB7B" unicode="&#x686;" horiz-adv-x="1435" arabic-form="final" 
d="M1253 501l10 241l-103 61t-223.5 127t-215.5 109q-101 46 -204 33t-187 -80t-130 -177l-26 -59l223 -100l27 60q21 57 77.5 94t124.5 5q33 -16 113 -56q206 -102 287 -140l-495 -209q-207 -83 -311.5 -231t-96.5 -309q7 -142 74 -252.5t188 -172.5t285 -62h530v259h-530
q-118 0 -191 48t-95 119q-32 109 22.5 205t212.5 168l342 161l32 -153q21 -93 94 -141.5t170 -48.5h178v260h-171q-34 0 -63 14.5t-37 52.5l-25 109zM802 64h-208q-1 -69 0 -128h208q1 59 0 128zM1000 64h-208q-1 -69 0 -128h208q1 59 0 128zM888 -129h-182v-143h182v143z
" />
    <glyph glyph-name="uniFB7C" unicode="&#x686;" horiz-adv-x="1301" arabic-form="initial" 
d="M-56 179.5q-15 -49.5 0 -99.5t56 -80h214q334 0 579.5 111t407.5 230q19 14 21 15l-13 238q-4 0 -122 64q-306 166 -442 227q-101 45 -203.5 32t-186.5 -79.5t-130 -176.5l-23 -51l224 -99l23 51q20 57 77 94t124 5q25 -12 82 -40q257 -126 362 -171q-430 -190 -780 -190
h-214q-41 -31 -56 -80.5zM553 -223h-302q-1 -105 0 -208h302v208zM841 -223h-302q-1 -105 0 -208h302q1 103 0 208zM667 -543h-242v-208h242v208z" />
    <glyph glyph-name="uniFB7D" unicode="&#x686;" horiz-adv-x="1383" arabic-form="medial" 
d="M-56 179.5q-15 -49.5 0 -99.5t56 -80h214q367 0 720 195l64 -85q28 -51 89.5 -80.5t134.5 -29.5h170v260h-170q-44 0 -77 20l-41 34q36 24 83 58q28 20 32 21l-10 201q-4 0 -122 64q-306 166 -442 227q-101 45 -203.5 32t-186.5 -79.5t-130 -176.5l-23 -51l224 -99l23 51
q20 57 77 94t124 5q25 -12 82 -40q257 -126 362 -171q-430 -190 -780 -190h-214q-41 -31 -56 -80.5zM553 -223h-302q-1 -105 0 -208h302v208zM841 -223h-302q-1 -105 0 -208h302q1 103 0 208zM667 -543h-242v-208h242v208z" />
    <glyph glyph-name="uniFB89" unicode="&#x688;" horiz-adv-x="1178" arabic-form="final" 
d="M561 0q117 0 193.5 48.5t109.5 128.5l14 -25q51 -72 124 -112t161 -40h15v260h-15q-87 0 -123 69l-399 733l-214 -118l300 -551q17 -32 10 -67t-34 -58.5t-64 -23.5h-566v-244h488zM670 1616q58 0 83.5 -36.5t25.5 -79.5q0 -33 -32.5 -55t-79.5 -22h-161q74 193 164 193z
M366 1445q-2 -8 -4 -21q0 -1 -1 -1h-56v-136h362q68 0 125 28t89.5 77t31.5 108q0 70 -30 127.5t-85.5 90.5t-127.5 33q-90 0 -168 -89v290h-136v-507z" />
    <glyph glyph-name="uniFB8B" unicode="&#x698;" horiz-adv-x="867" arabic-form="final" 
d="M742.5 30q52.5 -30 110.5 -30h14v260h-14q-54 0 -101 28.5t-75 77t-28 106.5v240h-245v-649q0 -88 -43.5 -168t-118 -128.5t-161.5 -48.5h-89v-260h89q153 0 284 79.5t207.5 211.5t76.5 282v82q41 -53 93.5 -83zM534 1175h-302q-1 -103 0 -208h302v208zM822 1175h-302
q-1 -103 0 -208h302q1 105 0 208zM648 1494h-242v-209h242v209z" />
    <glyph glyph-name="uniFB8D" unicode="&#x691;" horiz-adv-x="867" arabic-form="final" 
d="M742.5 30q52.5 -30 110.5 -30h14v260h-14q-54 0 -101 28.5t-75 77t-28 106.5v240h-245v-649q0 -88 -43.5 -168t-118 -128.5t-161.5 -48.5h-89v-260h89q153 0 284 79.5t207.5 211.5t76.5 282v82q41 -53 93.5 -83zM588 1326q58 0 83.5 -36.5t25.5 -79.5q0 -33 -32.5 -55
t-79.5 -22h-161q74 193 164 193zM284 1155q-2 -8 -4 -21q0 -1 -1 -1h-56v-136h362q68 0 125 28t89.5 77t31.5 108q0 70 -30 127.5t-85.5 90.5t-127.5 33q-90 0 -168 -89v290h-136v-507z" />
    <glyph glyph-name="uniFB8F" unicode="&#x6a9;" horiz-adv-x="1927" arabic-form="final" 
d="M1227 0q133 0 221.5 60.5t119.5 154.5l102 -107q50 -52 115 -80t136 -28h6v260h-6q-59 0 -89 31l-709 744l555 212l-86 228l-727 -277v-245l501 -525q27 -31 25.5 -71t-29.5 -68.5t-72 -28.5h-755q-64 0 -110 45.5t-46 110.5v333h-244v-348q0 -109 53.5 -201t145.5 -146
t201 -54h692z" />
    <glyph glyph-name="uniFB90" unicode="&#x6a9;" horiz-adv-x="1093" arabic-form="initial" 
d="M-56 179.5q-15 -49.5 0 -99.5t56 -80h612q110 0 194 58.5t123.5 151t24 193.5t-90.5 180l-432 452l554 212l-85 228l-728 -277v-245l499 -522q29 -32 28 -72.5t-29 -69.5t-72 -29h-598q-41 -31 -56 -80.5z" />
    <glyph glyph-name="uniFB91" unicode="&#x6a9;" horiz-adv-x="1238" arabic-form="medial" 
d="M-56 179.5q-15 -49.5 0 -99.5t56 -80h535q132 0 221 60.5t120 154.5l102 -107q49 -52 114 -80t136 -28h10v260h-10q-58 0 -89 31l-708 744l554 212l-85 228l-728 -277v-245l501 -525q28 -31 26 -71t-30 -68.5t-71 -28.5h-598q-41 -31 -56 -80.5z" />
    <glyph glyph-name="uniFB93" unicode="&#x6af;" horiz-adv-x="1924" arabic-form="final" 
d="M1227 0q133 0 221.5 60.5t119.5 154.5l102 -107q50 -52 115 -80t136 -28h6v260h-6q-59 0 -89 31l-709 744l555 212l-86 228l-727 -277v-245l501 -525q27 -31 25.5 -71t-29.5 -68.5t-72 -28.5h-755q-64 0 -110 45.5t-46 110.5v333h-244v-348q0 -109 53.5 -201t145.5 -146
t201 -54h692zM1505 1590l-51 133l-589 -217l1 -148z" />
    <glyph glyph-name="uniFB94" unicode="&#x6af;" horiz-adv-x="1093" arabic-form="initial" 
d="M-56 179.5q-15 -49.5 0 -99.5t56 -80h612q110 0 194 58.5t123.5 151t24 193.5t-90.5 180l-432 452l554 212l-85 228l-728 -277v-245l499 -522q29 -32 28 -72.5t-29 -69.5t-72 -29h-598q-41 -31 -56 -80.5zM801 1590l-51 133l-589 -217l1 -148z" />
    <glyph glyph-name="uniFB95" unicode="&#x6af;" horiz-adv-x="1234" arabic-form="medial" 
d="M-56 179.5q-15 -49.5 0 -99.5t56 -80h535q132 0 221 60.5t120 154.5l102 -107q49 -52 114 -80t136 -28h10v260h-10q-58 0 -89 31l-708 744l554 212l-85 228l-728 -277v-245l501 -525q28 -31 26 -71t-30 -68.5t-71 -28.5h-598q-41 -31 -56 -80.5zM801 1590l-51 133
l-589 -217l1 -148z" />
    <glyph glyph-name="uniFB9F" unicode="&#x6ba;" horiz-adv-x="1609" arabic-form="final" 
d="M811 -542q175 0 308 77.5t205 208t73 283.5v53q69 -80 157 -80h55v260h-55q-65 0 -111 45.5t-46 110.5v285h-244v-638q0 -93 -39 -171.5t-116 -126t-187 -47.5h-90q-110 0 -187 47.5t-116 126t-39 171.5v449h-244v-481q0 -154 71.5 -285.5t205 -209.5t309.5 -78h90z" />
    <glyph glyph-name="uniFBA7" unicode="&#x6c1;" horiz-adv-x="1172" arabic-form="final" 
d="M412 344q7 60 46 108t97 67l155 51l18 -206q9 -101 65 -184.5t144 -131.5t190 -48h45v260h-45q-62 0 -106 34t-50 93l-32 360l-160 104l-302 -100q-125 -43 -208.5 -144.5t-99.5 -231.5l-45 -358l243 -31z" />
    <glyph glyph-name="uniFBA8" unicode="&#x6c1;" horiz-adv-x="1272" arabic-form="initial" 
d="M837.5 -589.5q-62.5 33.5 -164.5 15.5v30q0 38 23 66t61 34l125 18l-26 180l-74 -14q-81 -14 -147 -61.5t-103.5 -115.5t-37.5 -140v-118q0 -71 56.5 -119t142.5 -48q57 0 104.5 21.5t75 59t27.5 83.5q0 75 -62.5 108.5zM-56 179.5q-15 -49.5 0 -99.5t56 -80h127
q92 0 162 40.5t117 113.5q47 -73 116.5 -113.5t161.5 -40.5h53q109 0 201 51.5t145.5 140t53.5 193.5v364h-244v-333q0 -65 -45.5 -110.5t-110.5 -45.5h-53q-65 0 -110.5 45.5t-45.5 110.5v296h-244v-296q0 -65 -46 -110.5t-111 -45.5h-127q-41 -31 -56 -80.5z" />
    <glyph glyph-name="uniFBA9" unicode="&#x6c1;" horiz-adv-x="1119" arabic-form="medial" 
d="M-56 179.5q-15 -49.5 0 -99.5t56 -80h207q25 -278 184 -417.5t433 -139.5l123 152v361q0 19 12 31.5t32 12.5h129v260h-207q-97 0 -154 -57t-57 -154v-344q-127 20 -191.5 115t-65.5 288v519h-244v-367h-201q-41 -31 -56 -80.5z" />
    <glyph glyph-name="uniFBAB" unicode="&#x6be;" horiz-adv-x="1635" arabic-form="final" 
d="M1425 260q41 73 39.5 162.5t-52.5 169.5l-305 473l-206 -132l304 -473q29 -45 21.5 -92t-45.5 -77.5t-92 -30.5h-234q50 49 85.5 121.5t35.5 158.5q0 111 -57 203t-155 145t-217 53q-118 0 -216.5 -53t-155 -145t-56.5 -203q0 -61 26 -151t82.5 -179.5t149 -149.5
t217.5 -60h1040v260h-209zM633.5 678.5q42.5 -17.5 70.5 -53t28 -85.5q0 -150 -185 -279q-184 128 -184 279q0 50 27.5 85.5t70 53t86.5 17.5t86.5 -17.5z" />
    <glyph glyph-name="uniFBAC" unicode="&#x6be;" horiz-adv-x="1632" arabic-form="initial" 
d="M667.5 678.5q42.5 -17.5 70 -53t27.5 -85.5q0 -149 -184 -279q-184 128 -184 279q0 50 27.5 85.5t70 53t86.5 17.5t86.5 -17.5zM1181 0q101 0 182.5 52.5t125.5 137.5t37.5 182.5t-69.5 181.5l-391 513l-193 -149l377 -496q24 -31 20 -69.5t-31.5 -65.5t-69.5 -27h-280
q50 49 85 121.5t35 158.5q0 111 -56.5 203t-155 145t-216.5 53q-119 0 -217 -53t-155 -145t-57 -203q0 -86 35 -158.5t86 -121.5h-273q-41 -31 -56 -80.5t0 -99.5t56 -80h334q107 0 169 17t78 35q16 -18 78 -35t169 -17h353z" />
    <glyph glyph-name="uniFBAD" unicode="&#x6be;" horiz-adv-x="1664" arabic-form="medial" 
d="M664.5 678.5q42.5 -17.5 70 -53t27.5 -85.5q0 -151 -184 -279q-184 128 -184 279q0 50 27.5 85.5t70 53t86.5 17.5t86.5 -17.5zM-56 179.5q-15 -49.5 0 -99.5t56 -80h370q165 1 208 56q21 -27 70 -41t138 -15h879v260h-209q41 73 39.5 162.5t-52.5 169.5l-306 473
l-205 -132l304 -473q29 -45 21 -92t-46 -77.5t-91 -30.5h-234q50 49 85 121.5t35 158.5q0 111 -56.5 203t-154.5 145t-217 53q-118 0 -216.5 -53.5t-155 -145t-56.5 -202.5q0 -86 35 -158.5t85 -121.5h-270q-41 -31 -56 -80.5z" />
    <glyph glyph-name="uniFBAF" unicode="&#x6d2;" horiz-adv-x="1087" arabic-form="final" 
d="M886 -233h-351q-67 0 -111.5 31t-44.5 86t44.5 85.5t111.5 30.5h552v260h-552q-110 0 -201.5 -48.5t-145 -134.5t-53.5 -193t53 -189t144.5 -127t202.5 -45h351v244z" />
    <glyph glyph-name="uniFBB1" unicode="&#x6d3;" horiz-adv-x="1087" arabic-form="final" 
d="M886 -233h-351q-67 0 -111.5 31t-44.5 86t44.5 85.5t111.5 30.5h552v260h-552q-110 0 -201.5 -48.5t-145 -134.5t-53.5 -193t53 -189t144.5 -127t202.5 -45h351v244zM279 496l463 177l-48 127l-151 -58q-58 -5 -93 21.5t-34 77.5q0 39 24.5 72t65.5 34q28 0 52 -8.5
t55 -23.5q6 -3 9 -5l34 128q-41 23 -74.5 33.5t-75.5 10.5q-67 0 -118.5 -35t-79.5 -91t-28 -115q0 -51 24 -96t66 -69l-138 -53z" />
    <glyph glyph-name="uniFBD8" unicode="&#x6c7;" horiz-adv-x="1146" arabic-form="final" 
d="M554 260q-100 0 -139 36.5t-39 110.5q0 49 17 98.5t57 84t104 34.5q97 0 138 -66t41 -151v-147h-179zM648.5 -206q-81.5 -76 -208.5 -76h-308v-260h308q137 0 259 71.5t197.5 195.5t80.5 275h168v260h-168v147q0 134 -53.5 239t-149.5 163.5t-220 58.5
q-121 0 -217.5 -59.5t-151 -164.5t-54.5 -237q0 -193 103.5 -300t319.5 -107h176q0 -130 -81.5 -206zM504 1143l19 -47l126 50l-19 47l93 36q92 40 129 126t3 180q-39 92 -125 129t-180 3q-92 -40 -129 -126t-3 -180l36 -92l-226 -89l50 -127zM692.5 1530q25.5 -17 36.5 -45
q15 -38 -1.5 -76t-54.5 -54l-92 -36l-37 93q-12 30 -3.5 62t34.5 52.5t61 20.5q31 0 56.5 -17z" />
    <glyph glyph-name="uniFBDA" unicode="&#x6c6;" horiz-adv-x="1146" arabic-form="final" 
d="M554 260q-100 0 -139 36.5t-39 110.5q0 49 17 98.5t57 84t104 34.5q97 0 138 -66t41 -151v-147h-179zM648.5 -206q-81.5 -76 -208.5 -76h-308v-260h308q137 0 259 71.5t197.5 195.5t80.5 275h168v260h-168v147q0 134 -53.5 239t-149.5 163.5t-220 58.5
q-121 0 -217.5 -59.5t-151 -164.5t-54.5 -237q0 -193 103.5 -300t319.5 -107h176q0 -130 -81.5 -206zM909 1442l-171 4l-188 -215l-188 215l-171 -4l308 -359h102z" />
    <glyph glyph-name="uniFBE3" unicode="&#x6c9;" horiz-adv-x="1146" arabic-form="final" 
d="M554 260q-100 0 -139 36.5t-39 110.5q0 49 17 98.5t57 84t104 34.5q97 0 138 -66t41 -151v-147h-179zM648.5 -206q-81.5 -76 -208.5 -76h-308v-260h308q137 0 259 71.5t197.5 195.5t80.5 275h168v260h-168v147q0 134 -53.5 239t-149.5 163.5t-220 58.5
q-121 0 -217.5 -59.5t-151 -164.5t-54.5 -237q0 -193 103.5 -300t319.5 -107h176q0 -130 -81.5 -206zM909 1072l-171 -4l-188 215l-188 -215l-171 4l308 359h102z" />
    <glyph glyph-name="uniFBE8" unicode="&#x649;" horiz-adv-x="730" arabic-form="initial" 
d="M-56 179.5q-15 -49.5 0 -99.5t56 -80h194q109 0 201 51.5t146 140t54 193.5v364h-245v-333q0 -65 -45.5 -110.5t-110.5 -45.5h-194q-41 -31 -56 -80.5z" />
    <glyph glyph-name="uniFBE9" unicode="&#x649;" horiz-adv-x="806" arabic-form="medial" 
d="M-56 179.5q-15 -49.5 0 -99.5t56 -80h194q92 0 162 40.5t117 113.5q47 -73 116.5 -113.5t161.5 -40.5h55v260h-55q-65 0 -110.5 45.5t-45.5 110.5v296h-245v-296q0 -65 -45.5 -110.5t-110.5 -45.5h-194q-41 -31 -56 -80.5z" />
    <glyph glyph-name="uniFBFD" unicode="&#x6cc;" horiz-adv-x="1708" arabic-form="final" 
d="M1707 260h-956v-244h390q49 -1 73 -31.5t23 -75.5q-1 -89 -86.5 -140t-212.5 -51h-231q-108 0 -182 44.5t-110 119.5t-36 166v464h-244v-495q0 -153 69 -280.5t198.5 -203t304.5 -75.5h231q172 0 294 67t182.5 170t60.5 209q-1 58 -25 96h257v260z" />
    <glyph glyph-name="uniFBFE" unicode="&#x6cc;" horiz-adv-x="715" arabic-form="initial" 
d="M-56 179.5q-15 -49.5 0 -99.5t56 -80h180q109 0 201 51.5t146 140t54 193.5v364h-245v-333q0 -65 -45.5 -110.5t-110.5 -45.5h-180q-41 -31 -56 -80.5zM144 -274h-302q-1 -105 0 -208h302v208zM432 -274h-302q-1 -105 0 -208h302q1 103 0 208z" />
    <glyph glyph-name="uniFBFF" unicode="&#x6cc;" horiz-adv-x="792" arabic-form="medial" 
d="M-56 179.5q-15 -49.5 0 -99.5t56 -80h180q92 0 162 40.5t117 113.5q47 -73 116.5 -113.5t161.5 -40.5h55v260h-55q-65 0 -110.5 45.5t-45.5 110.5v296h-245v-296q0 -65 -45.5 -110.5t-110.5 -45.5h-180q-41 -31 -56 -80.5zM144 -274h-302q-1 -105 0 -208h302v208z
M432 -274h-302q-1 -105 0 -208h302q1 103 0 208z" />
    <glyph glyph-name="uniFD3C" unicode="&#xfd3c;" horiz-adv-x="651" arabic-form="final" 
d="M661 260h-92q-64 0 -106.5 45.5t-42.5 110.5v857h-244v-888q0 -104 48 -192t137.5 -140.5t207.5 -52.5h92v260zM56 1406l532 212l-50 125l-532 -210zM-50 1703l532 212l-50 125l-532 -210z" />
    <glyph glyph-name="uniFD3D" unicode="&#xfd3d;" horiz-adv-x="590" arabic-form="isolated" 
d="M176 0h244v1273h-244v-1273zM56 1406l532 212l-50 125l-532 -210zM-50 1703l532 212l-50 125l-532 -210z" />
    <glyph glyph-name="uniFDF2" unicode="&#xfdf2;" horiz-adv-x="2957" arabic-form="isolated" 
d="M2609 0h244v1442h-244v-1442zM1762 179.5q-15 -49.5 0 -99.5t56 -80h108q109 0 201 54t146 146t54 201v1041h-245v-1026q0 -65 -45.5 -110.5t-110.5 -45.5h-108q-41 -31 -56 -80.5zM1111 179.5q-15 -49.5 0 -99.5t56 -80h47q92 0 162 40.5t117 113.5q47 -73 117 -113.5
t161 -40.5h47v260h-47q-64 0 -110 45.5t-46 110.5v759h-244v-759q0 -65 -46 -110.5t-111 -45.5h-47q-41 -31 -56 -80.5zM1490 1490q50 -50 121 -50h14q56 0 103.5 28t75.5 75.5t28 104.5v188h-135v-188q0 -30 -21 -51t-51 -21h-14q-30 0 -51 21t-21 51v133h-134v-189
q0 -30 -21 -51t-51 -21h-14q-30 0 -51 21t-21 51v189h-135v-189q0 -56 28 -104t75.5 -76t103.5 -28h14q104 0 157 106zM1400 1895h134v401h-134v-401zM952.5 50q77.5 -50 172.5 -50h81v260h-83q-47 0 -83.5 31t-42.5 79l-108 733l-242 -34l16 -113q-175 -11 -302 -84
t-189.5 -194.5t-51.5 -274.5q7 -112 73 -190.5t170.5 -110t226.5 -8.5t238 104q47 -98 124.5 -148zM745 393q-94 -65 -181 -76t-141.5 21t-59.5 84q-9 137 80 212.5t255 77.5z" />
    <glyph glyph-name="uniFDFC" unicode="&#xfdfc;" horiz-adv-x="3300" arabic-form="isolated" 
d="M2597 -505q153 0 283.5 79.5t207.5 211.5t77 283v643h-245v-612q0 -89 -44 -174t-118.5 -138.5t-160.5 -53.5h-895v-239h895zM1624 1204v-819q0 -104 48 -192t137.5 -140.5t207.5 -52.5h206q109 0 201 51.5t146 140t54 193.5v364h-244v-333q0 -65 -46 -110.5t-111 -45.5
h-206q-64 0 -106.5 45.5t-42.5 110.5v1026h-726v-1358q0 -92 -39 -170.5t-116.5 -126t-186.5 -47.5h-79q-110 0 -187 47.5t-116 126t-39 170.5v408h-244v-439q0 -154 71.5 -285.5t205 -209.5t309.5 -78h79q176 0 309 78t205 209.5t72 285.5v1151h238z" />
    <glyph glyph-name="uniFE82" unicode="&#x622;" horiz-adv-x="658" arabic-form="final" 
d="M661 260h-92q-64 0 -106.5 45.5t-42.5 110.5v857h-244v-888q0 -104 48 -192t137.5 -140.5t207.5 -52.5h92v260zM46 1461q17 40 52 64t78 23h462v167h-462q-94 1 -171.5 -52t-112.5 -140l-65 -163l155 -62z" />
    <glyph glyph-name="uniFE86" unicode="&#x624;" horiz-adv-x="1146" arabic-form="final" 
d="M554 260q-100 0 -139 36.5t-39 110.5q0 49 17 98.5t57 84t104 34.5q97 0 138 -66t41 -151v-147h-179zM648.5 -206q-81.5 -76 -208.5 -76h-308v-260h308q137 0 259 71.5t197.5 195.5t80.5 275h168v260h-168v147q0 134 -53.5 239t-149.5 163.5t-220 58.5
q-121 0 -217.5 -59.5t-151 -164.5t-54.5 -237q0 -193 103.5 -300t319.5 -107h176q0 -130 -81.5 -206zM346 1048l463 177l-48 127l-151 -58q-58 -5 -93 21.5t-34 77.5q0 39 24.5 72t65.5 34q28 0 52 -8.5t55 -23.5q6 -3 9 -5l34 128q-41 23 -74.5 33.5t-75.5 10.5
q-67 0 -118.5 -35t-79.5 -91t-28 -115q0 -51 24 -96t66 -69l-138 -53z" />
    <glyph glyph-name="uniFE88" unicode="&#x625;" horiz-adv-x="658" arabic-form="final" 
d="M661 260h-92q-64 0 -106.5 45.5t-42.5 110.5v1026h-244v-1057q0 -104 48 -192t137.5 -140.5t207.5 -52.5h92v260zM80 -815l463 177l-48 127l-151 -58q-58 -5 -93 21.5t-34 77.5q0 39 24.5 72t65.5 34q28 0 52 -8.5t55 -23.5q6 -3 9 -5l34 128q-41 23 -74.5 33.5
t-75.5 10.5q-67 0 -118.5 -35t-79.5 -91t-28 -115q0 -51 24 -96t66 -69l-138 -53z" />
    <glyph glyph-name="uniFE8B" unicode="&#x626;" horiz-adv-x="730" arabic-form="initial" 
d="M-56 179.5q-15 -49.5 0 -99.5t56 -80h194q109 0 201 51.5t146 140t54 193.5v364h-245v-333q0 -65 -45.5 -110.5t-110.5 -45.5h-194q-41 -31 -56 -80.5zM98 963l463 177l-48 127l-151 -58q-58 -5 -93 21.5t-34 77.5q0 39 24.5 72t65.5 34q28 0 52 -8.5t55 -23.5q6 -3 9 -5
l34 128q-41 23 -74.5 33.5t-75.5 10.5q-67 0 -118.5 -35t-79.5 -91t-28 -115q0 -51 24 -96t66 -69l-138 -53z" />
    <glyph glyph-name="uniFE8C" unicode="&#x626;" horiz-adv-x="806" arabic-form="medial" 
d="M-56 179.5q-15 -49.5 0 -99.5t56 -80h194q92 0 162 40.5t117 113.5q47 -73 116.5 -113.5t161.5 -40.5h55v260h-55q-65 0 -110.5 45.5t-45.5 110.5v296h-245v-296q0 -65 -45.5 -110.5t-110.5 -45.5h-194q-41 -31 -56 -80.5zM98 926l463 177l-48 127l-151 -58
q-58 -5 -93 21.5t-34 77.5q0 39 24.5 72t65.5 34q28 0 52 -8.5t55 -23.5q6 -3 9 -5l34 128q-41 23 -74.5 33.5t-75.5 10.5q-67 0 -118.5 -35t-79.5 -91t-28 -115q0 -51 24 -96t66 -69l-138 -53z" />
    <glyph glyph-name="uniFE8E" unicode="&#x627;" horiz-adv-x="661" arabic-form="final" 
d="M661 260h-92q-64 0 -106.5 45.5t-42.5 110.5v1026h-244v-1057q0 -104 48 -192t137.5 -140.5t207.5 -52.5h92v260z" />
    <glyph glyph-name="uniFE90" unicode="&#x628;" horiz-adv-x="1839" arabic-form="final" 
d="M1389 40.5q70 40.5 117 113.5q47 -73 117 -113.5t161 -40.5h55v260h-55q-65 0 -110.5 45.5t-45.5 110.5v296h-244v-296q0 -65 -46 -110.5t-111 -45.5h-692q-64 0 -110 45.5t-46 110.5v333h-244v-364q0 -105 53.5 -193.5t145.5 -140t201 -51.5h692q92 0 162 40.5z
M1006 -274h-250q-1 -106 0 -214h250q1 108 0 214z" />
    <glyph glyph-name="uniFE91" unicode="&#x628;" horiz-adv-x="730" arabic-form="initial" 
d="M-56 179.5q-15 -49.5 0 -99.5t56 -80h194q109 0 201 51.5t146 140t54 193.5v364h-245v-333q0 -65 -45.5 -110.5t-110.5 -45.5h-194q-41 -31 -56 -80.5zM298 -274h-250q-1 -106 0 -214h250q1 108 0 214z" />
    <glyph glyph-name="uniFE92" unicode="&#x628;" horiz-adv-x="806" arabic-form="medial" 
d="M-56 179.5q-15 -49.5 0 -99.5t56 -80h194q92 0 162 40.5t117 113.5q47 -73 116.5 -113.5t161.5 -40.5h55v260h-55q-65 0 -110.5 45.5t-45.5 110.5v296h-245v-296q0 -65 -45.5 -110.5t-110.5 -45.5h-194q-41 -31 -56 -80.5zM298 -274h-250q-1 -106 0 -214h250q1 108 0 214
z" />
    <glyph glyph-name="uniFE94" unicode="&#x629;" horiz-adv-x="1207" arabic-form="final" 
d="M953.5 50q77.5 -50 172.5 -50h81v260h-83q-47 0 -83.5 31t-42.5 79l-108 733l-242 -34l16 -113q-175 -11 -302 -84t-189.5 -194.5t-51.5 -274.5q7 -112 73 -190.5t170.5 -110t226.5 -8.5t238 104q47 -98 124.5 -148zM746 393q-94 -65 -181 -76t-141.5 21t-59.5 84
q-9 137 80 212.5t255 77.5zM659 1541h-302q-1 -103 0 -208h302v208zM947 1541h-302q-1 -103 0 -208h302q1 105 0 208z" />
    <glyph glyph-name="uniFE96" unicode="&#x62a;" horiz-adv-x="1839" arabic-form="final" 
d="M1389 40.5q70 40.5 117 113.5q47 -73 117 -113.5t161 -40.5h55v260h-55q-65 0 -110.5 45.5t-45.5 110.5v296h-244v-296q0 -65 -46 -110.5t-111 -45.5h-692q-64 0 -110 45.5t-46 110.5v333h-244v-364q0 -105 53.5 -193.5t145.5 -140t201 -51.5h692q92 0 162 40.5z
M888 1091h-302q-1 -103 0 -208h302v208zM1176 1091h-302q-1 -103 0 -208h302q1 105 0 208z" />
    <glyph glyph-name="uniFE97" unicode="&#x62a;" horiz-adv-x="804" arabic-form="initial" 
d="M-56 179.5q-15 -49.5 0 -99.5t56 -80h269q109 0 201 51.5t145.5 140t53.5 193.5v364h-244v-333q0 -65 -45.5 -110.5t-110.5 -45.5h-269q-41 -31 -56 -80.5zM404 1211h-302q-1 -103 0 -208h302v208zM692 1211h-302q-1 -103 0 -208h302q1 105 0 208z" />
    <glyph glyph-name="uniFE98" unicode="&#x62a;" horiz-adv-x="881" arabic-form="medial" 
d="M-56 179.5q-15 -49.5 0 -99.5t56 -80h269q91 0 161 40.5t117 113.5q47 -73 117 -113.5t162 -40.5h55v260h-55q-65 0 -111 45.5t-46 110.5v296h-244v-296q0 -65 -45.5 -110.5t-110.5 -45.5h-269q-41 -31 -56 -80.5zM404 1175h-302q-1 -103 0 -208h302v208zM692 1175h-302
q-1 -103 0 -208h302q1 105 0 208z" />
    <glyph glyph-name="uniFE9A" unicode="&#x62b;" horiz-adv-x="1839" arabic-form="final" 
d="M1389 40.5q70 40.5 117 113.5q47 -73 117 -113.5t161 -40.5h55v260h-55q-65 0 -110.5 45.5t-45.5 110.5v296h-244v-296q0 -65 -46 -110.5t-111 -45.5h-692q-64 0 -110 45.5t-46 110.5v333h-244v-364q0 -105 53.5 -193.5t145.5 -140t201 -51.5h692q92 0 162 40.5z
M888 1105h-302q-1 -103 0 -208h302v208zM1176 1105h-302q-1 -103 0 -208h302q1 105 0 208zM1002 1424h-242v-209h242v209z" />
    <glyph glyph-name="uniFE9B" unicode="&#x62b;" horiz-adv-x="804" arabic-form="initial" 
d="M-56 179.5q-15 -49.5 0 -99.5t56 -80h269q109 0 201 51.5t145.5 140t53.5 193.5v364h-244v-333q0 -65 -45.5 -110.5t-110.5 -45.5h-269q-41 -31 -56 -80.5zM401 1211h-302q-1 -103 0 -208h302v208zM689 1211h-302q-1 -103 0 -208h302q1 105 0 208zM515 1530h-242v-209
h242v209z" />
    <glyph glyph-name="uniFE9C" unicode="&#x62b;" horiz-adv-x="881" arabic-form="medial" 
d="M-56 179.5q-15 -49.5 0 -99.5t56 -80h269q91 0 161 40.5t117 113.5q47 -73 117 -113.5t162 -40.5h55v260h-55q-65 0 -111 45.5t-46 110.5v296h-244v-296q0 -65 -45.5 -110.5t-110.5 -45.5h-269q-41 -31 -56 -80.5zM401 1175h-302q-1 -103 0 -208h302v208zM689 1175h-302
q-1 -103 0 -208h302q1 105 0 208zM515 1494h-242v-209h242v209z" />
    <glyph glyph-name="uniFE9E" unicode="&#x62c;" horiz-adv-x="1435" arabic-form="final" 
d="M1253 501l10 241l-103 61t-223.5 127t-215.5 109q-101 46 -204 33t-187 -80t-130 -177l-26 -59l223 -100l27 60q21 57 77.5 94t124.5 5q33 -16 113 -56q206 -102 287 -140l-495 -209q-207 -83 -311.5 -231t-96.5 -309q7 -142 74 -252.5t188 -172.5t285 -62h530v259h-530
q-118 0 -191 48t-95 119q-32 109 22.5 205t212.5 168l342 161l32 -153q21 -93 94 -141.5t170 -48.5h178v260h-171q-34 0 -63 14.5t-37 52.5l-25 109zM920 37q-113 -1 -226 0q-1 -96 0 -194h226q1 98 0 194z" />
    <glyph glyph-name="uniFE9F" unicode="&#x62c;" horiz-adv-x="1301" arabic-form="initial" 
d="M-56 179.5q-15 -49.5 0 -99.5t56 -80h214q334 0 579.5 111t407.5 230q19 14 21 15l-13 238q-4 0 -122 64q-306 166 -442 227q-101 45 -203.5 32t-186.5 -79.5t-130 -176.5l-23 -51l224 -99l23 51q20 57 77 94t124 5q25 -12 82 -40q257 -126 362 -171q-430 -190 -780 -190
h-214q-41 -31 -56 -80.5zM671 -267h-250q-1 -106 0 -214h250q1 108 0 214z" />
    <glyph glyph-name="uniFEA0" unicode="&#x62c;" horiz-adv-x="1383" arabic-form="medial" 
d="M-56 179.5q-15 -49.5 0 -99.5t56 -80h214q367 0 720 195l64 -85q28 -51 89.5 -80.5t134.5 -29.5h170v260h-170q-44 0 -77 20l-41 34q36 24 83 58q28 20 32 21l-10 201q-4 0 -122 64q-306 166 -442 227q-101 45 -203.5 32t-186.5 -79.5t-130 -176.5l-23 -51l224 -99l23 51
q20 57 77 94t124 5q25 -12 82 -40q257 -126 362 -171q-430 -190 -780 -190h-214q-41 -31 -56 -80.5zM671 -267h-250q-1 -106 0 -214h250q1 108 0 214z" />
    <glyph glyph-name="uniFEA2" unicode="&#x62d;" horiz-adv-x="1435" arabic-form="final" 
d="M1262 500l10 242q-4 0 -86 48q-317 182 -465 249q-101 46 -204 33t-187 -80t-130 -177l-26 -59l223 -100l27 60q21 57 77.5 94t124.5 5l80 -40q229 -113 329 -156l-608 -250q-137 -55 -220 -174.5t-83 -265.5q0 -128 63.5 -236t171.5 -171.5t236 -63.5h605v260h-605
q-73 0 -129.5 33t-81.5 96q-32 91 5 171.5t126 122.5l446 201l33 -152q21 -93 94 -141.5t170 -48.5h170v260h-163q-34 0 -63 14.5t-37 52.5l-25 107z" />
    <glyph glyph-name="uniFEA3" unicode="&#x62d;" horiz-adv-x="1301" arabic-form="initial" 
d="M-56 179.5q-15 -49.5 0 -99.5t56 -80h214q334 0 579.5 111t407.5 230q19 14 21 15l-13 238q-4 0 -122 64q-306 166 -442 227q-101 45 -203.5 32t-186.5 -79.5t-130 -176.5l-23 -51l224 -99l23 51q20 57 77 94t124 5q25 -12 82 -40q257 -126 362 -171q-430 -190 -780 -190
h-214q-41 -31 -56 -80.5z" />
    <glyph glyph-name="uniFEA4" unicode="&#x62d;" horiz-adv-x="1392" arabic-form="medial" 
d="M-56 179.5q-15 -49.5 0 -99.5t56 -80h214q367 0 720 195l64 -85q28 -51 89.5 -80.5t134.5 -29.5h170v260h-170q-44 0 -77 20l-41 34q36 24 83 58q28 20 32 21l-10 201q-4 0 -122 64q-306 166 -442 227q-101 45 -203.5 32t-186.5 -79.5t-130 -176.5l-23 -51l224 -99l23 51
q20 57 77 94t124 5q25 -12 82 -40q257 -126 362 -171q-430 -190 -780 -190h-214q-41 -31 -56 -80.5z" />
    <glyph glyph-name="uniFEA6" unicode="&#x62e;" horiz-adv-x="1435" arabic-form="final" 
d="M1262 500l10 242q-4 0 -86 48q-317 182 -465 249q-101 46 -204 33t-187 -80t-130 -177l-26 -59l223 -100l27 60q21 57 77.5 94t124.5 5l80 -40q229 -113 329 -156l-608 -250q-137 -55 -220 -174.5t-83 -265.5q0 -128 63.5 -236t171.5 -171.5t236 -63.5h605v260h-605
q-73 0 -129.5 33t-81.5 96q-32 91 5 171.5t126 122.5l446 201l33 -152q21 -93 94 -141.5t170 -48.5h170v260h-163q-34 0 -63 14.5t-37 52.5l-25 107zM751 1535h-250q-1 -106 0 -214h250q1 108 0 214z" />
    <glyph glyph-name="uniFEA7" unicode="&#x62e;" horiz-adv-x="1301" arabic-form="initial" 
d="M-56 179.5q-15 -49.5 0 -99.5t56 -80h214q334 0 579.5 111t407.5 230q19 14 21 15l-13 238q-4 0 -122 64q-306 166 -442 227q-101 45 -203.5 32t-186.5 -79.5t-130 -176.5l-23 -51l224 -99l23 51q20 57 77 94t124 5q25 -12 82 -40q257 -126 362 -171q-430 -190 -780 -190
h-214q-41 -31 -56 -80.5zM675 1380h-250q-1 -106 0 -214h250q1 108 0 214z" />
    <glyph glyph-name="uniFEA8" unicode="&#x62e;" horiz-adv-x="1383" arabic-form="medial" 
d="M-56 179.5q-15 -49.5 0 -99.5t56 -80h214q367 0 720 195l64 -85q28 -51 89.5 -80.5t134.5 -29.5h170v260h-170q-44 0 -77 20l-41 34q36 24 83 58q28 20 32 21l-10 201q-4 0 -122 64q-306 166 -442 227q-101 45 -203.5 32t-186.5 -79.5t-130 -176.5l-23 -51l224 -99l23 51
q20 57 77 94t124 5q25 -12 82 -40q257 -126 362 -171q-430 -190 -780 -190h-214q-41 -31 -56 -80.5zM675 1380h-250q-1 -106 0 -214h250q1 108 0 214z" />
    <glyph glyph-name="uniFEAA" unicode="&#x62f;" horiz-adv-x="1178" arabic-form="final" 
d="M561 0q117 0 193.5 48.5t109.5 128.5l14 -25q51 -72 124 -112t161 -40h15v260h-15q-87 0 -123 69l-399 733l-214 -118l300 -551q17 -32 10 -67t-34 -58.5t-64 -23.5h-566v-244h488z" />
    <glyph glyph-name="uniFEAC" unicode="&#x630;" horiz-adv-x="1170" arabic-form="final" 
d="M561 0q117 0 193.5 48.5t109.5 128.5l14 -25q51 -72 124 -112t161 -40h15v260h-15q-87 0 -123 69l-399 733l-214 -118l300 -551q17 -32 10 -67t-34 -58.5t-64 -23.5h-566v-244h488zM717 1491h-250q-1 -106 0 -214h250q1 108 0 214z" />
    <glyph glyph-name="uniFEAE" unicode="&#x631;" horiz-adv-x="867" arabic-form="final" 
d="M742.5 30q52.5 -30 110.5 -30h14v260h-14q-54 0 -101 28.5t-75 77t-28 106.5v240h-245v-649q0 -88 -43.5 -168t-118 -128.5t-161.5 -48.5h-89v-260h89q153 0 284 79.5t207.5 211.5t76.5 282v82q41 -53 93.5 -83z" />
    <glyph glyph-name="uniFEB0" unicode="&#x632;" horiz-adv-x="867" arabic-form="final" 
d="M742.5 30q52.5 -30 110.5 -30h14v260h-14q-54 0 -101 28.5t-75 77t-28 106.5v240h-245v-649q0 -88 -43.5 -168t-118 -128.5t-161.5 -48.5h-89v-260h89q153 0 284 79.5t207.5 211.5t76.5 282v82q41 -53 93.5 -83zM652 1181h-250q-1 -106 0 -214h250q1 108 0 214z" />
    <glyph glyph-name="uniFEB2" unicode="&#x633;" horiz-adv-x="2756" arabic-form="final" 
d="M2756 260h-86q-65 0 -110.5 45.5t-45.5 110.5v296h-244v-296q0 -66 -40 -111t-104 -45h-28q-63 0 -102.5 45t-39.5 111v296h-245v-296q0 -66 -39.5 -111t-102.5 -45h-28q-61 0 -102.5 45.5t-41.5 110.5v295h-244v-648q0 -93 -39 -171.5t-116 -126t-187 -47.5h-90
q-110 0 -187 47.5t-116 126t-39 171.5v449h-244v-481q0 -154 71.5 -285.5t205 -209.5t309.5 -78h90q171 0 302 74.5t204.5 200t79.5 274.5v53q25 -28 62 -44t82 -16h28q167 0 264 154q98 -154 265 -154h28q175 0 269 153q46 -73 115 -113t160 -40h86v260z" />
    <glyph glyph-name="uniFEB3" unicode="&#x633;" horiz-adv-x="1738" arabic-form="initial" 
d="M-56 179.5q-15 -49.5 0 -99.5t56 -80h86q91 0 161 40t116 112q45 -72 112 -112t155 -40h28q167 0 265 154q98 -154 265 -154h28q108 0 197 53.5t139.5 145.5t50.5 202v348h-244v-333q0 -66 -40 -111t-103 -45h-28q-64 0 -103.5 45t-39.5 111v296h-244v-296
q0 -66 -40 -111t-103 -45h-28q-60 0 -101.5 45.5t-41.5 110.5v296h-245v-296q0 -65 -45.5 -110.5t-110.5 -45.5h-86q-41 -31 -56 -80.5z" />
    <glyph glyph-name="uniFEB4" unicode="&#x633;" horiz-adv-x="1846" arabic-form="medial" 
d="M-56 179.5q-15 -49.5 0 -99.5t56 -80h86q91 0 161 40t116 112q45 -72 112 -112t155 -40h28q167 0 265 154q98 -154 265 -154h28q173 0 267 151q47 -71 116.5 -111t160.5 -40h86v260h-86q-65 0 -111 45.5t-46 110.5v296h-244v-296q0 -66 -40 -111t-103 -45h-28
q-64 0 -103.5 45t-39.5 111v296h-244v-296q0 -66 -40 -111t-103 -45h-28q-60 0 -101.5 45.5t-41.5 110.5v296h-245v-296q0 -65 -45.5 -110.5t-110.5 -45.5h-86q-41 -31 -56 -80.5z" />
    <glyph glyph-name="uniFEB6" unicode="&#x634;" horiz-adv-x="2756" arabic-form="final" 
d="M2756 260h-86q-65 0 -110.5 45.5t-45.5 110.5v296h-244v-296q0 -66 -40 -111t-104 -45h-28q-63 0 -102.5 45t-39.5 111v296h-245v-296q0 -66 -39.5 -111t-102.5 -45h-28q-61 0 -102.5 45.5t-41.5 110.5v295h-244v-648q0 -93 -39 -171.5t-116 -126t-187 -47.5h-90
q-110 0 -187 47.5t-116 126t-39 171.5v449h-244v-481q0 -154 71.5 -285.5t205 -209.5t309.5 -78h90q171 0 302 74.5t204.5 200t79.5 274.5v53q25 -28 62 -44t82 -16h28q167 0 264 154q98 -154 265 -154h28q175 0 269 153q46 -73 115 -113t160 -40h86v260zM1841 1175h-302
q-1 -103 0 -208h302v208zM2129 1175h-302q-1 -103 0 -208h302q1 105 0 208zM1955 1494h-242v-209h242v209z" />
    <glyph glyph-name="uniFEB7" unicode="&#x634;" horiz-adv-x="1738" arabic-form="initial" 
d="M-56 179.5q-15 -49.5 0 -99.5t56 -80h86q91 0 161 40t116 112q45 -72 112 -112t155 -40h28q167 0 265 154q98 -154 265 -154h28q108 0 197 53.5t139.5 145.5t50.5 202v348h-244v-333q0 -66 -40 -111t-103 -45h-28q-64 0 -103.5 45t-39.5 111v296h-244v-296
q0 -66 -40 -111t-103 -45h-28q-60 0 -101.5 45.5t-41.5 110.5v296h-245v-296q0 -65 -45.5 -110.5t-110.5 -45.5h-86q-41 -31 -56 -80.5zM930 1175h-302q-1 -103 0 -208h302v208zM1218 1175h-302q-1 -103 0 -208h302q1 105 0 208zM1044 1494h-242v-209h242v209z" />
    <glyph glyph-name="uniFEB8" unicode="&#x634;" horiz-adv-x="1846" arabic-form="medial" 
d="M-56 179.5q-15 -49.5 0 -99.5t56 -80h86q91 0 161 40t116 112q45 -72 112 -112t155 -40h28q167 0 265 154q98 -154 265 -154h28q173 0 267 151q47 -71 116.5 -111t160.5 -40h86v260h-86q-65 0 -111 45.5t-46 110.5v296h-244v-296q0 -66 -40 -111t-103 -45h-28
q-64 0 -103.5 45t-39.5 111v296h-244v-296q0 -66 -40 -111t-103 -45h-28q-60 0 -101.5 45.5t-41.5 110.5v296h-245v-296q0 -65 -45.5 -110.5t-110.5 -45.5h-86q-41 -31 -56 -80.5zM930 1175h-302q-1 -103 0 -208h302v208zM1218 1175h-302q-1 -103 0 -208h302q1 105 0 208z
M1044 1494h-242v-209h242v209z" />
    <glyph glyph-name="uniFEBA" unicode="&#x635;" horiz-adv-x="2753" arabic-form="final" 
d="M2258.5 31.5q84.5 31.5 148.5 89.5q74 -55 152.5 -88t180.5 -33h13v260h-12q-61 0 -106 12.5t-104 37.5q25 66 25 141q0 111 -49 216.5t-156.5 173t-271.5 61.5q-238 -9 -382 -212.5t-215 -407.5q-36 11 -60.5 44t-24.5 75v300h-244v-638q0 -93 -39 -171.5t-116 -126
t-187 -47.5h-90q-110 0 -187 47.5t-116 126t-39 171.5v449h-244v-481q0 -154 71.5 -285.5t205 -209.5t309.5 -78h90q176 0 309 78t205 209.5t72 284.5v56q50 -40 110 -63t124 -23h445q98 0 182.5 31.5zM1729 260q0 2 2 5q66 149 151.5 268.5t204.5 124.5q102 2 163.5 -48.5
t61.5 -158.5q0 -94 -67 -142.5t-169 -48.5h-347z" />
    <glyph glyph-name="uniFEBB" unicode="&#x635;" horiz-adv-x="1730" arabic-form="initial" 
d="M779 260q1 2 2 5q66 149 151.5 268.5t205.5 124.5q101 2 162.5 -48.5t61.5 -158.5q0 -94 -67 -142.5t-168 -48.5h-348zM-56 179.5q-15 -49.5 0 -99.5t56 -80h47q92 0 162 40.5t117 113.5q47 -73 116.5 -113.5t161.5 -40.5h523q136 0 245.5 58.5t172 161.5t62.5 231
q0 111 -49.5 216.5t-156.5 173t-272 61.5q-238 -9 -381.5 -212.5t-214.5 -407.5q-37 11 -61 44t-24 75v311h-244v-296q0 -65 -46 -110.5t-111 -45.5h-47q-41 -31 -56 -80.5z" />
    <glyph glyph-name="uniFEBC" unicode="&#x635;" horiz-adv-x="1803" arabic-form="medial" 
d="M779 260q1 2 2 5q66 149 151.5 268.5t205.5 124.5q101 2 162.5 -48.5t61.5 -158.5q0 -94 -67 -142.5t-168 -48.5h-348zM-56 179.5q-15 -49.5 0 -99.5t56 -80h47q92 0 162 40.5t117 113.5q47 -73 116.5 -113.5t161.5 -40.5h523q98 0 182.5 31.5t148.5 89.5
q74 -55 152.5 -88t180.5 -33h13v260h-12q-61 0 -106 12.5t-104 37.5q25 66 25 141q0 111 -49.5 216.5t-156.5 173t-272 61.5q-238 -9 -381.5 -212.5t-214.5 -407.5q-37 11 -61 44t-24 75v311h-244v-296q0 -65 -46 -110.5t-111 -45.5h-47q-41 -31 -56 -80.5z" />
    <glyph glyph-name="uniFEBE" unicode="&#x636;" horiz-adv-x="2753" arabic-form="final" 
d="M2258.5 31.5q84.5 31.5 148.5 89.5q74 -55 152.5 -88t180.5 -33h13v260h-12q-61 0 -106 12.5t-104 37.5q25 66 25 141q0 111 -49 216.5t-156.5 173t-271.5 61.5q-238 -9 -382 -212.5t-215 -407.5q-36 11 -60.5 44t-24.5 75v300h-244v-638q0 -93 -39 -171.5t-116 -126
t-187 -47.5h-90q-110 0 -187 47.5t-116 126t-39 171.5v449h-244v-481q0 -154 71.5 -285.5t205 -209.5t309.5 -78h90q176 0 309 78t205 209.5t72 284.5v56q50 -40 110 -63t124 -23h445q98 0 182.5 31.5zM1729 260q0 2 2 5q66 149 151.5 268.5t204.5 124.5q102 2 163.5 -48.5
t61.5 -158.5q0 -94 -67 -142.5t-169 -48.5h-347zM2168 1357h-250q-1 -106 0 -214h250q1 108 0 214z" />
    <glyph glyph-name="uniFEBF" unicode="&#x636;" horiz-adv-x="1730" arabic-form="initial" 
d="M779 260q1 2 2 5q66 149 151.5 268.5t205.5 124.5q101 2 162.5 -48.5t61.5 -158.5q0 -94 -67 -142.5t-168 -48.5h-348zM-56 179.5q-15 -49.5 0 -99.5t56 -80h47q92 0 162 40.5t117 113.5q47 -73 116.5 -113.5t161.5 -40.5h523q136 0 245.5 58.5t172 161.5t62.5 231
q0 111 -49.5 216.5t-156.5 173t-272 61.5q-238 -9 -381.5 -212.5t-214.5 -407.5q-37 11 -61 44t-24 75v311h-244v-296q0 -65 -46 -110.5t-111 -45.5h-47q-41 -31 -56 -80.5zM1235 1357h-250q-1 -106 0 -214h250q1 108 0 214z" />
    <glyph glyph-name="uniFEC0" unicode="&#x636;" horiz-adv-x="1803" arabic-form="medial" 
d="M779 260q1 2 2 5q66 149 151.5 268.5t205.5 124.5q101 2 162.5 -48.5t61.5 -158.5q0 -94 -67 -142.5t-168 -48.5h-348zM-56 179.5q-15 -49.5 0 -99.5t56 -80h47q92 0 162 40.5t117 113.5q47 -73 116.5 -113.5t161.5 -40.5h523q98 0 182.5 31.5t148.5 89.5
q74 -55 152.5 -88t180.5 -33h13v260h-12q-61 0 -106 12.5t-104 37.5q25 66 25 141q0 111 -49.5 216.5t-156.5 173t-272 61.5q-238 -9 -381.5 -212.5t-214.5 -407.5q-37 11 -61 44t-24 75v311h-244v-296q0 -65 -46 -110.5t-111 -45.5h-47q-41 -31 -56 -80.5zM1235 1357h-250
q-1 -106 0 -214h250q1 108 0 214z" />
    <glyph glyph-name="uniFEC2" unicode="&#x637;" horiz-adv-x="1596" arabic-form="final" 
d="M1596 260h-12q-52 0 -92 11.5t-89 33.5q27 72 27 146q0 111 -50.5 217.5t-158 173.5t-269.5 60q-182 -8 -350 -210l11 260v490h-244v-1113q-11 -27 -22 -61q-2 -6 -3 -8h-209v-260h815q92 0 173.5 28.5t142.5 81.5q70 -50 145.5 -80t171.5 -30h13v260zM602 260q0 1 1 4
q66 148 152 268.5t206 125.5q101 3 163 -48t62 -159q0 -94 -67.5 -142.5t-168.5 -48.5h-348z" />
    <glyph glyph-name="uniFEC3" unicode="&#x637;" horiz-adv-x="1433" arabic-form="initial" 
d="M474 685l12 267v490h-244v-1134q-12 -30 -17 -48h-225q-41 -31 -55.5 -80.5t0 -99.5t55.5 -80h831q135 0 244.5 58.5t172.5 161.5t63 231q0 111 -50.5 217.5t-158 173.5t-269.5 60v0q-186 -8 -359 -217zM999 308.5q-67 -48.5 -168 -48.5h-348q1 2 2 5q66 148 151.5 268
t205.5 125q101 3 162.5 -48t61.5 -159v0q0 -94 -67 -142.5z" />
    <glyph glyph-name="uniFEC4" unicode="&#x637;" horiz-adv-x="1469" arabic-form="medial" 
d="M1372.5 271.5q-38.5 11.5 -88.5 32.5q27 71 27 147q0 111 -50.5 217.5t-158 173.5t-269.5 60q-186 -8 -359 -217l13 267v490h-245v-1134q-12 -30 -17 -48h-225q-41 -30 -55.5 -80t0 -100t55.5 -80h831q91 0 171 28t141 80q71 -49 145 -78.5t168 -29.5h13v260h-12
q-46 0 -84.5 11.5zM999 308.5q-67 -48.5 -168 -48.5h-348q1 2 2 5q66 148 151.5 268t205.5 125q101 3 162.5 -48t61.5 -159q0 -94 -67 -142.5z" />
    <glyph glyph-name="uniFEC6" unicode="&#x638;" horiz-adv-x="1596" arabic-form="final" 
d="M1596 260h-12q-52 0 -92 11.5t-89 33.5q27 72 27 146q0 111 -50.5 217.5t-158 173.5t-269.5 60q-182 -8 -350 -210l11 260v490h-244v-1113q-11 -27 -22 -61q-2 -6 -3 -8h-209v-260h815q92 0 173.5 28.5t142.5 81.5q70 -50 145.5 -80t171.5 -30h13v260zM602 260q0 1 1 4
q66 148 152 268.5t206 125.5q101 3 163 -48t62 -159q0 -94 -67.5 -142.5t-168.5 -48.5h-348zM1160 1357h-250q-1 -106 0 -214h250q1 108 0 214z" />
    <glyph glyph-name="uniFEC7" unicode="&#x638;" horiz-adv-x="1433" arabic-form="initial" 
d="M474 685l12 267v490h-244v-1134q-12 -30 -17 -48h-225q-41 -31 -55.5 -80.5t0 -99.5t55.5 -80h831q135 0 244.5 58.5t172.5 161.5t63 231q0 111 -50.5 217.5t-158 173.5t-269.5 60v0q-186 -8 -359 -217zM999 308.5q-67 -48.5 -168 -48.5h-348q1 2 2 5q66 148 151.5 268
t205.5 125q101 3 162.5 -48t61.5 -159v0q0 -94 -67 -142.5zM1043 1357h-250q-1 -106 0 -214h250q1 108 0 214z" />
    <glyph glyph-name="uniFEC8" unicode="&#x638;" horiz-adv-x="1469" arabic-form="medial" 
d="M1372.5 271.5q-38.5 11.5 -88.5 32.5q27 71 27 147q0 111 -50.5 217.5t-158 173.5t-269.5 60q-186 -8 -359 -217l13 267v490h-245v-1134q-12 -30 -17 -48h-225q-41 -30 -55.5 -80t0 -100t55.5 -80h831q91 0 171 28t141 80q71 -49 145 -78.5t168 -29.5h13v260h-12
q-46 0 -84.5 11.5zM999 308.5q-67 -48.5 -168 -48.5h-348q1 2 2 5q66 148 151.5 268t205.5 125q101 3 162.5 -48t61.5 -159q0 -94 -67 -142.5zM1043 1357h-250q-1 -106 0 -214h250q1 108 0 214z" />
    <glyph glyph-name="uniFECA" unicode="&#x639;" horiz-adv-x="1333" arabic-form="final" 
d="M1082 -282h-443q-73 0 -135.5 30.5t-99 85.5t-36.5 123q0 80 56.5 131.5t164.5 102.5q5 2 15 7q38 18 50 25q103 -121 196 -172t213 -51h270v260h-224q-85 0 -145.5 23t-88.5 54l240 278q55 66 64 145.5t-24.5 151t-100 116t-151.5 44.5h-596l-100 -252l280 -428
q-191 -86 -277 -189.5t-86 -245.5q0 -135 69.5 -249.5t188 -182t257.5 -67.5h443v260zM880 819q28 0 44.5 -15t16.5 -38.5t-19 -46.5l-216 -257l-242 357h416z" />
    <glyph glyph-name="uniFECB" unicode="&#x639;" horiz-adv-x="1080" arabic-form="initial" 
d="M-56 179.5q-15 -49.5 0 -99.5t56 -80h950v260h-344q-89 7 -139 57.5t-50 128.5q0 88 49.5 150t135.5 67q68 5 130.5 -15t132.5 -66l48 245q-149 95 -337 79q-116 -9 -208 -71.5t-143.5 -164t-51.5 -224.5q0 -54 19 -103t53 -83h-245q-41 -31 -56 -80.5z" />
    <glyph glyph-name="uniFECC" unicode="&#x639;" horiz-adv-x="1243" arabic-form="medial" 
d="M790 642q28 0 45 -15.5t16.5 -39t-18.5 -45.5l-216 -258l-242 358h415zM-56 179.5q-15 -49.5 0 -99.5t56 -80h358q107 0 169 17t78 35q15 -18 77.5 -35t169.5 -17h391v260h-338q-8 0 -19 -2t-15 -6l155 185q55 66 64 146t-24.5 151.5t-100 116t-152.5 44.5h-596l-99 -252
l253 -390q-7 7 -27 7h-344q-41 -31 -56 -80.5z" />
    <glyph glyph-name="uniFECE" unicode="&#x63a;" horiz-adv-x="1333" arabic-form="final" 
d="M1082 -282h-443q-73 0 -135.5 30.5t-99 85.5t-36.5 123q0 80 56.5 131.5t164.5 102.5q5 2 15 7q38 18 50 25q103 -121 196 -172t213 -51h270v260h-224q-85 0 -145.5 23t-88.5 54l240 278q55 66 64 145.5t-24.5 151t-100 116t-151.5 44.5h-596l-100 -252l280 -428
q-191 -86 -277 -189.5t-86 -245.5q0 -135 69.5 -249.5t188 -182t257.5 -67.5h443v260zM880 819q28 0 44.5 -15t16.5 -38.5t-19 -46.5l-216 -257l-242 357h416zM834 1565h-250q-1 -106 0 -214h250q1 108 0 214z" />
    <glyph glyph-name="uniFECF" unicode="&#x63a;" horiz-adv-x="1063" arabic-form="initial" 
d="M-56 179.5q-15 -49.5 0 -99.5t56 -80h950v260h-344q-89 7 -139 57.5t-50 128.5q0 88 49.5 150t135.5 67q68 5 130.5 -15t132.5 -66l48 245q-149 95 -337 79q-116 -9 -208 -71.5t-143.5 -164t-51.5 -224.5q0 -54 19 -103t53 -83h-245q-41 -31 -56 -80.5zM714 1359h-250
q-1 -106 0 -214h250q1 108 0 214z" />
    <glyph glyph-name="uniFED0" unicode="&#x63a;" horiz-adv-x="1243" arabic-form="medial" 
d="M790 642q28 0 45 -15.5t16.5 -39t-18.5 -45.5l-216 -258l-242 358h415zM-56 179.5q-15 -49.5 0 -99.5t56 -80h358q107 0 169 17t78 35q15 -18 77.5 -35t169.5 -17h391v260h-338q-8 0 -19 -2t-15 -6l155 185q55 66 64 146t-24.5 151.5t-100 116t-152.5 44.5h-596l-99 -252
l253 -390q-7 7 -27 7h-344q-41 -31 -56 -80.5zM738 1362h-250q-1 -106 0 -214h250q1 108 0 214z" />
    <glyph glyph-name="uniFED2" unicode="&#x641;" horiz-adv-x="1868" arabic-form="final" 
d="M1374.5 678.5q42.5 -17.5 70.5 -53t28 -85.5q0 -151 -185 -279q-184 128 -184 279q0 50 27.5 85.5t70 53t86.5 17.5t86.5 -17.5zM1041 0q107 0 169 17t78 35q15 -18 77.5 -35t169.5 -17h334v260h-273q50 49 85.5 121.5t35.5 158.5q0 111 -57 203t-155 145t-217 53
t-217 -53t-155 -145t-57 -203q0 -86 35.5 -158.5t85.5 -121.5h-445q-64 0 -110 45.5t-46 110.5v333h-244v-364q0 -105 53.5 -193.5t145.5 -140t201 -51.5h506zM1413 1364h-250q-1 -106 0 -214h250q1 108 0 214z" />
    <glyph glyph-name="uniFED3" unicode="&#x641;" horiz-adv-x="1102" arabic-form="initial" 
d="M515 664q-84 0 -116 24t-32 88q0 75 47.5 141t130.5 66q58 0 98.5 -35.5t60.5 -85.5t20 -92v-106h-209zM-56 179.5q-15 -49.5 0 -99.5t56 -80h516q120 0 224 58t166 153t62 199v360q0 114 -55 220t-151.5 171.5t-216.5 65.5q-116 0 -213 -65.5t-153.5 -173t-56.5 -227.5
q0 -111 28.5 -183t103 -111.5t208.5 -39.5h262v-17q0 -37 -29 -72t-77 -56.5t-102 -21.5h-516q-41 -31 -56 -80.5zM670 1638h-250q-1 -106 0 -214h250q1 108 0 214z" />
    <glyph glyph-name="uniFED4" unicode="&#x641;" horiz-adv-x="1162" arabic-form="medial" 
d="M667.5 678.5q42.5 -17.5 70 -53t27.5 -85.5q0 -149 -184 -279q-184 128 -184 279q0 50 27.5 85.5t70 53t86.5 17.5t86.5 -17.5zM-56 179.5q-15 -49.5 0 -99.5t56 -80h334q107 0 169 17t78 35q16 -18 78 -35t169 -17h334v260h-273q50 49 85 121.5t35 158.5
q0 111 -56.5 203t-155 145t-216.5 53q-119 0 -217 -53t-155 -145t-57 -203q0 -86 35 -158.5t86 -121.5h-273q-41 -31 -56 -80.5zM706 1364h-250q-1 -106 0 -214h250q1 108 0 214z" />
    <glyph glyph-name="uniFED6" unicode="&#x642;" horiz-adv-x="1743" arabic-form="final" 
d="M1130 261q-100 0 -139 36.5t-39 109.5q0 50 17.5 99.5t57.5 83.5t103 34q97 0 138 -66t41 -151v-146h-179zM1743 260h-189l-1 147q0 135 -53.5 240t-149.5 163.5t-220 58.5q-121 0 -217.5 -59.5t-151 -164.5t-54.5 -238q0 -192 103.5 -299t319.5 -107h176
q-1 -130 -83.5 -206t-217.5 -76h-284q-110 0 -187 47.5t-116 126t-39 170.5v450h-244v-481q0 -154 71.5 -285.5t205 -209.5t309.5 -78h284q142 0 266.5 72t201 196.5t80.5 272.5h190v260zM1140 1285h-302q-1 -103 0 -208h302v208zM1428 1285h-302q-1 -103 0 -208h302
q1 105 0 208z" />
    <glyph glyph-name="uniFED7" unicode="&#x642;" horiz-adv-x="1102" arabic-form="initial" 
d="M515 664q-84 0 -116 24t-32 88q0 75 47.5 141t130.5 66q58 0 98.5 -35.5t60.5 -85.5t20 -92v-106h-209zM-56 179.5q-15 -49.5 0 -99.5t56 -80h516q120 0 224 58t166 153t62 199v360q0 114 -55 220t-151.5 171.5t-216.5 65.5q-116 0 -213 -65.5t-153.5 -173t-56.5 -227.5
q0 -111 28.5 -183t103 -111.5t208.5 -39.5h262v-17q0 -37 -29 -72t-77 -56.5t-102 -21.5h-516q-41 -31 -56 -80.5zM552 1640h-302q-1 -103 0 -208h302v208zM840 1640h-302q-1 -103 0 -208h302q1 105 0 208z" />
    <glyph glyph-name="uniFED8" unicode="&#x642;" horiz-adv-x="1162" arabic-form="medial" 
d="M667.5 678.5q42.5 -17.5 70 -53t27.5 -85.5q0 -149 -184 -279q-184 128 -184 279q0 50 27.5 85.5t70 53t86.5 17.5t86.5 -17.5zM-56 179.5q-15 -49.5 0 -99.5t56 -80h334q107 0 169 17t78 35q16 -18 78 -35t169 -17h334v260h-273q50 49 85 121.5t35 158.5
q0 111 -56.5 203t-155 145t-216.5 53q-119 0 -217 -53t-155 -145t-57 -203q0 -86 35 -158.5t86 -121.5h-273q-41 -31 -56 -80.5zM588 1381h-302q-1 -103 0 -208h302v208zM876 1381h-302q-1 -103 0 -208h302q1 105 0 208z" />
    <glyph glyph-name="uniFEDA" unicode="&#x643;" horiz-adv-x="1814" arabic-form="final" 
d="M1354.5 40.5q69.5 40.5 116.5 113.5q47 -73 117 -113.5t162 -40.5h63v260h-63q-65 0 -111 45.5t-46 110.5v1026h-244v-1026q0 -65 -45.5 -110.5t-110.5 -45.5h-658q-64 0 -110 45.5t-46 110.5v333h-244v-364q0 -105 53.5 -193.5t145.5 -140t201 -51.5h658
q92 0 161.5 40.5zM656 626l463 177l-48 127l-151 -58q-58 -5 -93 21.5t-34 77.5q0 39 24.5 72t65.5 34q28 0 52 -8.5t55 -23.5q6 -3 9 -5l34 128q-41 23 -74.5 33.5t-75.5 10.5q-67 0 -118.5 -35t-79.5 -91t-28 -115q0 -51 24 -96t66 -69l-138 -53z" />
    <glyph glyph-name="uniFEDB" unicode="&#x643;" horiz-adv-x="1093" arabic-form="initial" 
d="M-56 179.5q-15 -49.5 0 -99.5t56 -80h612q110 0 194 58.5t123.5 151t24 193.5t-90.5 180l-432 452l554 212l-85 228l-728 -277v-245l499 -522q29 -32 28 -72.5t-29 -69.5t-72 -29h-598q-41 -31 -56 -80.5z" />
    <glyph glyph-name="uniFEDC" unicode="&#x643;" horiz-adv-x="1234" arabic-form="medial" 
d="M-56 179.5q-15 -49.5 0 -99.5t56 -80h535q132 0 221 60.5t120 154.5l102 -107q49 -52 114 -80t136 -28h10v260h-10q-58 0 -89 31l-708 744l554 212l-85 228l-728 -277v-245l501 -525q28 -31 26 -71t-30 -68.5t-71 -28.5h-598q-41 -31 -56 -80.5z" />
    <glyph glyph-name="uniFEDE" unicode="&#x644;" horiz-adv-x="1609" arabic-form="final" 
d="M811 -542q175 0 308 77.5t205 208t73 283.5v53q69 -80 157 -80h55v260h-55q-65 0 -111 45.5t-46 110.5v1026h-244v-1379q0 -93 -39 -171.5t-116 -126t-187 -47.5h-90q-110 0 -187 47.5t-116 126t-39 171.5v435h-244v-467q0 -154 71.5 -285.5t205 -209.5t309.5 -78h90z
" />
    <glyph glyph-name="uniFEDF" unicode="&#x644;" horiz-adv-x="684" arabic-form="initial" 
d="M-56 179.5q-15 -49.5 0 -99.5t56 -80h108q109 0 201 54t146 146t54 201v1041h-245v-1026q0 -65 -45.5 -110.5t-110.5 -45.5h-108q-41 -31 -56 -80.5z" />
    <glyph glyph-name="uniFEE0" unicode="&#x644;" horiz-adv-x="720" arabic-form="medial" 
d="M-56 179.5q-15 -49.5 0 -99.5t56 -80h108q92 0 161.5 40.5t116.5 113.5q47 -73 117 -113.5t162 -40.5h55v260h-55q-65 0 -110.5 45.5t-45.5 110.5v1026h-245v-1026q0 -65 -45.5 -110.5t-110.5 -45.5h-108q-41 -31 -56 -80.5z" />
    <glyph glyph-name="uniFEE2" unicode="&#x645;" horiz-adv-x="1641" arabic-form="final" 
d="M1641 260h-32q-63 0 -110 48.5t-48 113.5q1 4 1 13q-4 204 -118.5 325t-308.5 124h-449q-120 0 -221.5 -59.5t-160.5 -160.5t-59 -221v-986h244v986q0 54 26.5 99t71.5 71.5t99 26.5h38q-3 -84 -3 -204q-1 -136 47.5 -237.5t142 -157.5t223.5 -56q210 0 309 171
q101 -156 276 -156h32v260zM1163 582q45 -57 45 -147q0 -110 -55 -157.5t-129 -47.5q-96 0 -140.5 58t-43.5 146v206h184q94 -1 139 -58z" />
    <glyph glyph-name="uniFEE3" unicode="&#x645;" horiz-adv-x="1168" arabic-form="initial" 
d="M745.5 277q-56.5 -47 -127.5 -47q-96 0 -140.5 59.5t-44.5 147.5q1 99 48 153.5t137 54.5q93 -1 138 -59t46 -148v0q0 -114 -56.5 -161zM388.5 830.5q-96.5 -58.5 -147 -160.5t-51.5 -231v-15q0 -66 -46.5 -115t-110.5 -49h-33q-41 -30 -55.5 -80t0 -100t55.5 -80h33
q176 0 275 158q101 -172 310 -172q123 0 220.5 56.5t153 159t54.5 236.5q-1 131 -54.5 233t-150 159.5t-222.5 59.5v0q-134 -1 -230.5 -59.5z" />
    <glyph glyph-name="uniFEE4" unicode="&#x645;" horiz-adv-x="1234" arabic-form="medial" 
d="M745.5 277q-56.5 -47 -127.5 -47q-96 0 -140.5 59.5t-44.5 147.5q1 99 48 153.5t137 54.5q93 -1 138 -59t46 -148v0q0 -114 -56.5 -161zM1093 308q-46 48 -48 115v15q0 131 -53.5 233t-150.5 159.5t-222 58.5q-133 0 -230 -61t-147.5 -163t-51.5 -226v-15
q-2 -68 -47.5 -116t-109.5 -48h-33q-41 -30 -55.5 -80t0 -100t55.5 -80h33q176 0 275 158q101 -172 310 -172q207 0 308 172q47 -75 116.5 -116.5t160.5 -41.5h32v260h-32q-64 0 -110 48z" />
    <glyph glyph-name="uniFEE6" unicode="&#x646;" horiz-adv-x="1609" arabic-form="final" 
d="M811 -542q175 0 308 77.5t205 208t73 283.5v53q69 -80 157 -80h55v260h-55q-65 0 -111 45.5t-46 110.5v285h-244v-638q0 -93 -39 -171.5t-116 -126t-187 -47.5h-90q-110 0 -187 47.5t-116 126t-39 171.5v449h-244v-481q0 -154 71.5 -285.5t205 -209.5t309.5 -78h90z
M834 944h-250q-1 -106 0 -214h250q1 108 0 214z" />
    <glyph glyph-name="uniFEE7" unicode="&#x646;" horiz-adv-x="730" arabic-form="initial" 
d="M-56 179.5q-15 -49.5 0 -99.5t56 -80h194q109 0 201 51.5t146 140t54 193.5v364h-245v-333q0 -65 -45.5 -110.5t-110.5 -45.5h-194q-41 -31 -56 -80.5zM495 1217h-250q-1 -106 0 -214h250q1 108 0 214z" />
    <glyph glyph-name="uniFEE8" unicode="&#x646;" horiz-adv-x="806" arabic-form="medial" 
d="M-56 179.5q-15 -49.5 0 -99.5t56 -80h194q92 0 162 40.5t117 113.5q47 -73 116.5 -113.5t161.5 -40.5h55v260h-55q-65 0 -110.5 45.5t-45.5 110.5v296h-245v-296q0 -65 -45.5 -110.5t-110.5 -45.5h-194q-41 -31 -56 -80.5zM495 1175h-250q-1 -106 0 -214h250q1 108 0 214
z" />
    <glyph glyph-name="uniFEEA" unicode="&#x647;" horiz-adv-x="1207" arabic-form="final" 
d="M953.5 50q77.5 -50 172.5 -50h81v260h-83q-47 0 -83.5 31t-42.5 79l-108 733l-242 -34l16 -113q-175 -11 -302 -84t-189.5 -194.5t-51.5 -274.5q7 -112 73 -190.5t170.5 -110t226.5 -8.5t238 104q47 -98 124.5 -148zM746 393q-94 -65 -181 -76t-141.5 21t-59.5 84
q-9 137 80 212.5t255 77.5z" />
    <glyph glyph-name="uniFEEB" unicode="&#x647;" horiz-adv-x="1646" arabic-form="initial" 
d="M667.5 678.5q42.5 -17.5 70 -53t27.5 -85.5q0 -149 -184 -279q-184 128 -184 279q0 50 27.5 85.5t70 53t86.5 17.5t86.5 -17.5zM1181 0q101 0 182.5 52.5t125.5 137.5t37.5 182.5t-69.5 181.5l-391 513l-193 -149l377 -496q24 -31 20 -69.5t-31.5 -65.5t-69.5 -27h-280
q50 49 85 121.5t35 158.5q0 111 -56.5 203t-155 145t-216.5 53q-119 0 -217 -53t-155 -145t-57 -203q0 -86 35 -158.5t86 -121.5h-273q-41 -31 -56 -80.5t0 -99.5t56 -80h334q107 0 169 17t78 35q16 -18 78 -35t169 -17h353z" />
    <glyph glyph-name="uniFEEC" unicode="&#x647;" horiz-adv-x="1286" arabic-form="medial" 
d="M411 429q1 102 48.5 155.5t134.5 52.5q100 -1 142 -54.5t42 -119.5q1 -85 -59.5 -152t-168.5 -67h-138zM-56 179.5q-15 -49.5 0 -99.5t56 -80h168q0 -165 72.5 -283.5t197.5 -179.5t279 -61h137l123 281q54 122 134 182.5t169 60.5h6v260h-6q-99 0 -194.5 -50
t-169.5 -128.5t-111 -160.5l-88 -194q-160 -2 -232.5 73.5t-72.5 199.5h138q135 0 243.5 62.5t169.5 169.5t60 233q-1 118 -55.5 212.5t-151 148.5t-219.5 56q-127 2 -224.5 -56t-151 -161.5t-54.5 -235.5l1 -169h-168q-41 -31 -56 -80.5z" />
    <glyph glyph-name="uniFEEE" unicode="&#x648;" horiz-adv-x="1146" arabic-form="final" 
d="M554 260q-100 0 -139 36.5t-39 110.5q0 49 17 98.5t57 84t104 34.5q97 0 138 -66t41 -151v-147h-179zM648.5 -206q-81.5 -76 -208.5 -76h-308v-260h308q137 0 259 71.5t197.5 195.5t80.5 275h168v260h-168v147q0 134 -53.5 239t-149.5 163.5t-220 58.5
q-121 0 -217.5 -59.5t-151 -164.5t-54.5 -237q0 -193 103.5 -300t319.5 -107h176q0 -130 -81.5 -206z" />
    <glyph glyph-name="uniFEF2" unicode="&#x64a;" horiz-adv-x="1707" arabic-form="final" 
d="M1707 260h-956v-244h390q49 -1 73 -31.5t23 -75.5q-1 -89 -86.5 -140t-212.5 -51h-231q-108 0 -182 44.5t-110 119.5t-36 166v464h-244v-495q0 -153 69 -280.5t198.5 -203t304.5 -75.5h231q172 0 294 67t182.5 170t60.5 209q-1 58 -25 96h257v260zM828 -757h-302
q-1 -105 0 -208h302v208zM1116 -757h-302q-1 -105 0 -208h302q1 103 0 208z" />
    <glyph glyph-name=".notdef" horiz-adv-x="1300" 
d="M1186 0v1400h-1072v-1400h1072zM321 1193h658v-986h-658v986z" />
    <glyph glyph-name=".null" horiz-adv-x="0" 
 />
    <glyph glyph-name="uni000D" unicode="&#xd;" horiz-adv-x="0" 
 />
    <glyph glyph-name="space" unicode=" " horiz-adv-x="451" 
 />
    <glyph glyph-name="exclam" unicode="!" horiz-adv-x="569" 
d="M414 375l12 692v365h-282v-365l14 -692h256zM432 0v218h-295v-218h295z" />
    <glyph glyph-name="quotedbl" unicode="&#x22;" horiz-adv-x="793" 
d="M671 987l29 445h-238v-445h209zM302 987l30 445h-238v-445h208z" />
    <glyph glyph-name="numbersign" unicode="#" horiz-adv-x="1536" 
d="M391 0l112 369h327l-111 -369h243l111 369h276v196h-218l94 304h217v197h-158l112 366h-244l-112 -366h-326l112 366h-245l-112 -366h-280v-197h222l-93 -304h-224v-196h165l-111 -369h243zM654 869h327l-92 -304h-327z" />
    <glyph glyph-name="dollar" unicode="$" horiz-adv-x="1215" 
d="M722.5 548q112.5 -48 110.5 -157q-2 -197 -279 -197q-222 3 -433 88v-226q148 -64 370 -74v-173h249v190q380 65 381 393q0 112 -35.5 194.5t-130.5 142.5t-284 110q-160 42 -225 84t-65 123q0 183 287 190q178 4 373 -68v227q-107 37 -301 51v178h-249v-182
q-397 -55 -397 -398q0 -159 84 -253.5t308 -158.5q124 -36 236.5 -84z" />
    <glyph glyph-name="percent" unicode="%" horiz-adv-x="1612" 
d="M633.5 878q80.5 88 80.5 230q0 163 -79.5 254.5t-230.5 91.5q-150 0 -230 -91.5t-80 -254.5q0 -142 81 -230t229 -88q149 0 229.5 88zM574 0l728 1432h-266l-729 -1432h267zM251 1113q0 95 38 139.5t115 44.5q78 0 116 -44.5t38 -139.5q0 -81 -37.5 -123t-116.5 -42
q-153 0 -153 165zM1437.5 65.5q80.5 87.5 80.5 229.5q0 164 -79.5 255.5t-230.5 91.5q-150 0 -230 -91.5t-80 -255.5q0 -142 81 -229.5t229 -87.5q149 0 229.5 87.5zM1055 301q0 94 38 139t115 45q78 0 116 -45t38 -139q0 -82 -37.5 -124t-116.5 -42q-153 0 -153 166z" />
    <glyph glyph-name="ampersand" unicode="&#x26;" horiz-adv-x="1472" 
d="M863 20q117 42 189 120l159 -166l173 164l-142 148q86 124 85 302v51h-212v-44q0 -88 -31 -148l-301 317q110 85 160.5 163.5t50.5 187.5q0 161 -106 252t-275 87q-379 -6 -381 -339q0 -88 48 -163.5t124 -152.5q-304 -157 -309 -428q-10 -391 508 -393q143 0 260 42z
M724.5 979.5q-41.5 -48.5 -120.5 -97.5q-65 59 -104.5 111.5t-39.5 109.5q0 67 39 110.5t117 43.5q76 0 113 -41.5t37 -112.5q0 -75 -41.5 -123.5zM365 366q-2 148 209 256l307 -322q-85 -117 -278 -117q-238 5 -238 183z" />
    <glyph glyph-name="quotesingle" unicode="'" horiz-adv-x="426" 
d="M302 987l30 445h-238v-445h208z" />
    <glyph glyph-name="parenleft" unicode="(" horiz-adv-x="749" 
d="M698 -160q-317 293 -317 834q0 547 317 834h-321q-145 -138 -214 -359.5t-69 -474.5q0 -255 69 -474.5t214 -359.5h321z" />
    <glyph glyph-name="parenright" unicode=")" horiz-adv-x="749" 
d="M372 -160q145 140 214 359.5t69 474.5q0 253 -69 474.5t-214 359.5h-321q317 -287 317 -834q0 -541 -317 -834h321z" />
    <glyph glyph-name="asterisk" unicode="*" horiz-adv-x="958" 
d="M479 923l166 -227l163 126l-184 202l240 103l-85 182l-204 -107l11 230h-214l11 -230l-204 107l-85 -182l240 -102l-184 -203l164 -126z" />
    <glyph glyph-name="plus" unicode="+" horiz-adv-x="1035" 
d="M628 190v299h313v229h-313v307h-222v-307h-312v-229h312v-299h222z" />
    <glyph glyph-name="comma" unicode="," horiz-adv-x="497" 
d="M296 -267l106 445h-243l-65 -445h202z" />
    <glyph glyph-name="hyphen" unicode="-" horiz-adv-x="1014" 
d="M920 489v229h-826v-229h826z" />
    <glyph glyph-name="period" unicode="." horiz-adv-x="500" 
d="M370 0v230h-240v-230h240z" />
    <glyph glyph-name="slash" unicode="/" horiz-adv-x="978" 
d="M382 0l501 1472h-287l-502 -1472h288z" />
    <glyph glyph-name="zero" unicode="0" horiz-adv-x="1430" 
d="M1183.5 164.5q152.5 186.5 152.5 534.5q0 377 -147 567t-474 188q-221 0 -358 -86t-200 -253t-63 -416q0 -348 152.5 -534.5t468.5 -186.5t468.5 186.5zM461 354.5q-80 123.5 -80 344.5q0 125 16.5 217t56 155.5t104 96.5t157.5 33t157.5 -33t104 -96.5t56 -155.5
t16.5 -217q0 -221 -80 -344.5t-254 -123.5t-254 123.5z" />
    <glyph glyph-name="one" unicode="1" horiz-adv-x="737" 
d="M600 0v1454l-506 -78v-249l224 39v-1166h282z" />
    <glyph glyph-name="two" unicode="2" horiz-adv-x="1124" 
d="M1030 0v229h-563q28 69 79.5 128.5t134.5 135.5q16 17 38 34q22 19 32 31q134 119 200 224.5t66 251.5q0 199 -123 309.5t-357 110.5q-108 0 -213.5 -19t-180.5 -52v-249q163 67 332 67q127 0 191.5 -57.5t64.5 -156.5q0 -90 -51.5 -167.5t-158.5 -173.5q-34 -32 -67 -63
q-131 -117 -219 -218.5t-141 -220.5v-144h936z" />
    <glyph glyph-name="three" unicode="3" horiz-adv-x="1147" 
d="M905 86q147 108 147 321q0 126 -58.5 205t-161.5 113q94 43 143 133.5t49 199.5q0 178 -133 287t-383 109q-104 0 -211.5 -19.5t-179.5 -50.5v-229q165 72 342 72q144 0 211.5 -50t67.5 -145q0 -102 -60 -156t-184 -54h-179l-21 -196h215q124 0 190.5 -50t66.5 -150
q0 -114 -75.5 -167.5t-228.5 -53.5q-94 0 -188.5 17.5t-179.5 54.5v-229q71 -28 193 -49t217 -21q254 0 401 108z" />
    <glyph glyph-name="four" unicode="4" horiz-adv-x="1192" 
d="M1005 0v301h136v240h-136v891h-247l-707 -927v-204h672v-301h282zM770 1106v-575h-449z" />
    <glyph glyph-name="five" unicode="5" horiz-adv-x="1134" 
d="M901.5 101q138.5 123 138.5 340q0 229 -121.5 335t-356.5 103h-212l21 324h554l21 229h-815l-37 -609v-145h404q143 0 199.5 -53.5t56.5 -173.5q0 -118 -74 -181t-221 -63q-85 0 -184.5 19.5t-173.5 50.5v-231q72 -32 186 -50t213 -18q263 0 401.5 123z" />
    <glyph glyph-name="six" unicode="6" horiz-adv-x="1264" 
d="M1036 108q133 130 133 356q0 230 -117 347.5t-359 117.5q-83 0 -174 -26.5t-160 -75.5v81q0 141 95 234.5t265 93.5q188 0 318 -55v220q-71 29 -154 41t-192 12q-274 0 -435.5 -168.5t-161.5 -437.5v-307q0 -285 135.5 -424t405.5 -139q268 0 401 130zM427.5 258.5
q-68.5 71.5 -68.5 222.5v144q62 44 136.5 69.5t144.5 25.5q148 0 212 -67t64 -199q0 -125 -71 -196t-210 -71t-207.5 71.5z" />
    <glyph glyph-name="seven" unicode="7" horiz-adv-x="1092" 
d="M508 0l511 1251v181h-947v-229h636l-491 -1203h291z" />
    <glyph glyph-name="eight" unicode="8" horiz-adv-x="1303" 
d="M1070.5 83.5q138.5 105.5 138.5 313.5q0 120 -57.5 202.5t-176.5 125.5q101 44 149 127t48 185q0 130 -54.5 223t-170 143.5t-297.5 50.5q-262 0 -390.5 -109.5t-128.5 -307.5q0 -96 46.5 -175t142.5 -120q-107 -40 -166.5 -133t-59.5 -212q0 -208 139.5 -313.5
t416.5 -105.5q282 0 420.5 105.5zM565 834q-166 33 -166 198q0 103 64 158t187 55q126 0 190.5 -55.5t64.5 -157.5q0 -92 -47 -146t-150 -81zM362 412q0 102 53.5 157t153.5 77l166 -34q110 -24 158 -71t48 -138q0 -107 -72.5 -161.5t-218.5 -54.5q-288 0 -288 225z" />
    <glyph glyph-name="nine" unicode="9" horiz-adv-x="1264" 
d="M1013.5 150q155.5 172 155.5 434v307q0 290 -128.5 426.5t-405.5 136.5q-266 0 -402.5 -131t-138.5 -361q0 -230 119.5 -347t360.5 -117q178 0 331 102v-78q0 -139 -91 -232.5t-263 -93.5q-197 0 -322 52v-220q72 -26 157 -38t193 -12q279 0 434.5 172zM417.5 769.5
q-69.5 63.5 -70.5 202.5q0 128 73.5 200.5t213.5 72.5q141 0 206 -71.5t65 -222.5v-149q-61 -45 -131 -70.5t-147 -25.5q-140 0 -209.5 63.5z" />
    <glyph glyph-name="colon" unicode=":" horiz-adv-x="500" 
d="M370 720v233h-240v-233h240zM370 53v232h-240v-232h240z" />
    <glyph glyph-name="semicolon" unicode=";" horiz-adv-x="499" 
d="M404 720v233h-240v-233h240zM296 -227l106 445h-243l-65 -445h202z" />
    <glyph glyph-name="less" unicode="&#x3c;" horiz-adv-x="1189" 
d="M1094 361l-702 314l702 315v276l-1000 -469v-243l1000 -469v276z" />
    <glyph glyph-name="equal" unicode="=" horiz-adv-x="1022" 
d="M928 680v208h-834v-208h834zM928 316v209h-834v-209h834z" />
    <glyph glyph-name="greater" unicode="&#x3e;" horiz-adv-x="1189" 
d="M1094 554v243l-1000 469v-276l702 -315l-702 -314v-276z" />
    <glyph glyph-name="question" unicode="?" horiz-adv-x="1090" 
d="M592 377v35q0 77 62.5 144t146.5 133q105 88 149.5 165.5t44.5 193.5q0 194 -125 300t-366 106q-245 0 -410 -88v-212q131 82 335 83q280 0 280 -221q0 -82 -42.5 -132.5t-134.5 -126.5q-83 -69 -142 -140t-58 -195v-45h260zM611 0v219h-296v-219h296z" />
    <glyph glyph-name="at" unicode="@" horiz-adv-x="1657" 
d="M1213 -254v173q-137 -42 -371 -42q-261 0 -406.5 127.5t-145.5 411.5q0 298 146.5 439.5t435.5 141.5q249 0 372 -111.5t123 -332.5q0 -154 -41.5 -222.5t-129.5 -68.5v286q0 166 -78.5 240t-253.5 74q-86 0 -165 -13t-134 -37v-127q122 43 256 43q85 0 129 -16t61 -48
t17 -96v-54h-245q-316 0 -316 -258q0 -127 78.5 -188t203.5 -61q194 0 308 104h93q207 0 310 117.5t103 337.5q0 287 -179.5 444.5t-511.5 157.5q-369 0 -573.5 -185.5t-204.5 -564.5q0 -367 202.5 -539.5t550.5 -172.5q191 0 366 40zM693.5 162q-41.5 30 -41.5 95
q0 71 38.5 104t133.5 33h204v-162q-41 -51 -92.5 -75.5t-122.5 -24.5q-78 0 -119.5 30z" />
    <glyph glyph-name="A" unicode="A" horiz-adv-x="1550" 
d="M388 0l131 357h514l131 -357h292l-525 1432h-310l-527 -1432h294zM775 1156l219 -590h-438z" />
    <glyph glyph-name="B" unicode="B" horiz-adv-x="1385" 
d="M859 0q214 0 325 106t111 312q0 135 -54.5 210t-158.5 107q160 91 160 311q0 190 -102 288t-309 98h-694v-1432h722zM404 1225h354q123 0 172 -50t49 -153q0 -192 -198 -196h-377v399zM404 634h369q77 0 129.5 -19t80 -64t26.5 -120q0 -118 -52.5 -171t-164.5 -53h-388
v427z" />
    <glyph glyph-name="C" unicode="C" horiz-adv-x="1312" 
d="M1024 -6q99 16 194 49v260q-181 -74 -388 -74q-226 0 -337 118q-110 114 -112 345q0 253 105 382t339 129q213 0 391 -78v260q-89 35 -189 52t-222 17q-363 0 -537 -197t-174 -565q0 -342 178.5 -528t534.5 -186q118 0 217 16z" />
    <glyph glyph-name="D" unicode="D" horiz-adv-x="1424" 
d="M713 0q318 0 470 169t152 537q0 259 -68.5 418.5t-206.5 233.5t-347 74h-576v-1432h576zM419 1188h254q155 0 236 -52.5t111 -154t30 -275.5q0 -144 -24 -238.5t-70.5 -145.5t-115.5 -72t-167 -21h-254v959z" />
    <glyph glyph-name="E" unicode="E" horiz-adv-x="1196" 
d="M1123 0v218h-704v386h626v225h-626v385h704v218h-986v-1432h986z" />
    <glyph glyph-name="F" unicode="F" horiz-adv-x="1149" 
d="M419 0v604h605v225h-605v385h684v218h-966v-1432h282z" />
    <glyph glyph-name="G" unicode="G" horiz-adv-x="1418" 
d="M1103.5 13q128.5 35 208.5 87v700h-564v-189h326v-337q-124 -45 -272 -45q-143 0 -230.5 53.5t-122.5 173.5q-68 167 -21 347q24 193 119.5 297t287.5 103q222 0 395 -62v255q-174 58 -416 58q-364 0 -542 -198t-178 -564q0 -341 177.5 -527.5t526.5 -186.5
q177 0 305.5 35z" />
    <glyph glyph-name="H" unicode="H" horiz-adv-x="1450" 
d="M419 0v580h611v-580h282v1432h-282v-579h-611v579h-282v-1432h282z" />
    <glyph glyph-name="I" unicode="I" horiz-adv-x="557" 
d="M419 0v1432h-282v-1432h282z" />
    <glyph glyph-name="J" unicode="J" horiz-adv-x="943" 
d="M697.5 86q118.5 108 118.5 323v1023h-282v-958q0 -130 -57 -186.5t-191 -56.5q-145 0 -251 48v-249q133 -52 307 -52q237 0 355.5 108z" />
    <glyph glyph-name="K" unicode="K" horiz-adv-x="1385" 
d="M419 0v456l186 207l401 -663h301l-526 852l502 580h-325l-539 -609v609h-282v-1432h282z" />
    <glyph glyph-name="L" unicode="L" horiz-adv-x="1158" 
d="M1102 0v229h-683v1203h-282v-1432h965z" />
    <glyph glyph-name="M" unicode="M" horiz-adv-x="1662" 
d="M419 0v941l331 -693h163l329 693v-941h282v1432h-284l-408 -864l-411 864h-284v-1432h282z" />
    <glyph glyph-name="N" unicode="N" horiz-adv-x="1465" 
d="M419 0v961l662 -961h246v1432h-282v-961l-663 961h-245v-1432h282z" />
    <glyph glyph-name="O" unicode="O" horiz-adv-x="1526" 
d="M1264 161q168 183 168 548q0 389 -165.5 567t-503.5 178t-503.5 -178t-165.5 -567q0 -365 168.5 -548t500.5 -183q333 0 501 183zM474.5 348q-93.5 118 -93.5 361q0 182 41 289t124.5 155.5t216.5 48.5q134 0 217.5 -48.5t124.5 -155.5t41 -289q0 -243 -93.5 -361
t-289.5 -118q-195 0 -288.5 118z" />
    <glyph glyph-name="P" unicode="P" horiz-adv-x="1305" 
d="M419 0v453h352q147 0 256.5 61t167.5 171t58 255q0 223 -119 357.5t-354 134.5h-643v-1432h282zM419 1198h305q122 0 183 -66t61 -192q0 -118 -65 -185.5t-189 -67.5h-295v511z" />
    <glyph glyph-name="Q" unicode="Q" horiz-adv-x="1526" 
d="M1176 -354v176q-81 -24 -154 -24q-81 0 -117 43t-40 143q283 23 425 204.5t142 520.5q0 389 -165.5 567t-503.5 178t-503.5 -178t-165.5 -567q0 -321 131.5 -505t406.5 -216q4 -173 80 -272t247 -99q116 0 217 29zM474.5 348q-93.5 118 -93.5 361q0 182 41 289
t124.5 155.5t216.5 48.5q134 0 217.5 -48.5t124.5 -155.5t41 -289q0 -243 -93.5 -361t-289.5 -118q-195 0 -288.5 118z" />
    <glyph glyph-name="R" unicode="R" horiz-adv-x="1350" 
d="M419 0v488h196q81 0 115.5 -22t58.5 -81l162 -385h293l-177 427q-21 47 -40 72.5t-55 42.5q134 50 207.5 157t73.5 262q0 217 -113.5 344t-343.5 127h-659v-1432h282zM419 1198h321q115 0 171.5 -58t56.5 -179q0 -238 -246 -238h-303v475z" />
    <glyph glyph-name="S" unicode="S" horiz-adv-x="1215" 
d="M979 84.5q142 106.5 142 307.5q0 120 -37 200.5t-129.5 139.5t-258.5 102q-35 9 -73 19q-140 40 -191 79.5t-51 113.5q0 100 84.5 145.5t221.5 44.5q185 0 354 -68v227q-67 23 -184 41t-221 18q-272 0 -407 -106.5t-135 -303.5q0 -166 87 -255.5t307 -156.5
q75 -19 144 -43q108 -39 154.5 -82.5t46.5 -115.5q0 -196 -295 -197q-105 0 -214.5 25t-202.5 63v-226q83 -37 196.5 -57.5t247.5 -20.5q272 0 414 106.5z" />
    <glyph glyph-name="T" unicode="T" horiz-adv-x="1246" 
d="M765 0v1214h425v218h-1133v-218h426v-1214h282z" />
    <glyph glyph-name="U" unicode="U" horiz-adv-x="1483" 
d="M1192 123q163 145 163 416v893h-282v-873q0 -163 -85 -245.5t-247 -82.5q-161 0 -246.5 82.5t-85.5 245.5v873h-282v-893q0 -271 163 -416t451 -145t451 145z" />
    <glyph glyph-name="V" unicode="V" horiz-adv-x="1550" 
d="M931 0l525 1432h-293l-388 -1102l-387 1102h-294l527 -1432h310z" />
    <glyph glyph-name="W" unicode="W" horiz-adv-x="1902" 
d="M686 0l275 923l256 -923h269l320 1432h-275l-218 -976l-269 976h-231v-184l-230 -791l-212 975h-277l322 -1432h270z" />
    <glyph glyph-name="X" unicode="X" horiz-adv-x="1524" 
d="M431 0l331 481l332 -481h336l-499 718l486 714h-332l-323 -482l-323 482h-332l485 -714l-498 -718h337z" />
    <glyph glyph-name="Y" unicode="Y" horiz-adv-x="1452" 
d="M867 0v529l495 903h-294l-342 -649l-343 649h-294l496 -903v-529h282z" />
    <glyph glyph-name="Z" unicode="Z" horiz-adv-x="1257" 
d="M1174 0v229h-707l695 1024v179h-1034v-244h667l-701 -1033v-155h1080z" />
    <glyph glyph-name="bracketleft" unicode="[" horiz-adv-x="793" 
d="M712 -220l8 229h-343v1332h342l-8 229h-617v-1790h618z" />
    <glyph glyph-name="backslash" unicode="\" horiz-adv-x="1021" 
d="M927 -120l-541 1592h-292l543 -1592h290z" />
    <glyph glyph-name="bracketright" unicode="]" horiz-adv-x="793" 
d="M698 -220v1790h-616l-9 -229h343v-1332h-344l9 -229h617z" />
    <glyph glyph-name="asciicircum" unicode="^" horiz-adv-x="1077" 
d="M357 851l182 323l182 -323h262l-350 537h-200l-339 -537h263z" />
    <glyph glyph-name="underscore" unicode="_" horiz-adv-x="1170" 
d="M1076 -196v196h-982v-196h982z" />
    <glyph glyph-name="a" unicode="a" horiz-adv-x="1212" 
d="M669 11q92 33 157 100l15 -111h244v670q0 209 -121.5 307.5t-354.5 98.5q-109 0 -213 -16t-181 -50v-171q163 55 334 55q100 0 158 -20t83.5 -60.5t25.5 -110.5v-75h-320q-196 0 -299 -78t-103 -253q0 -162 99 -240.5t256 -78.5q128 0 220 33zM356 305q0 92 53 127
t154 34h253v-201q-92 -115 -265 -115q-195 0 -195 155z" />
    <glyph glyph-name="b" unicode="b" horiz-adv-x="1290" 
d="M1072.5 117.5q122.5 139.5 122.5 418.5q0 277 -117 408.5t-356 131.5q-87 0 -164.5 -19t-138.5 -61v503h-282v-1499h244l15 98q69 -60 149 -90t184 -30q221 0 343.5 139.5zM419 292v485q98 82 230 82t196 -76t64 -251q0 -172 -62 -254.5t-196 -82.5t-232 97z" />
    <glyph glyph-name="c" unicode="c" horiz-adv-x="1058" 
d="M997 43v222q-140 -70 -280 -70q-177 0 -256.5 80t-79.5 252q0 169 85.5 250.5t254.5 81.5q151 0 274 -61v213q-73 35 -148.5 50t-184.5 15q-266 0 -417 -137t-151 -412q0 -268 144 -408.5t415 -140.5q199 0 344 65z" />
    <glyph glyph-name="d" unicode="d" horiz-adv-x="1290" 
d="M744.5 8q78.5 30 148.5 90l16 -98h243v1499h-282v-503q-63 42 -134.5 61t-156.5 19q-234 0 -358 -150t-127 -422q0 -271 125.5 -398.5t340.5 -127.5q106 0 184.5 30zM444 271q-62 76 -63 235q0 176 70 264.5t201 88.5q69 0 120.5 -20t97.5 -62v-485q-50 -49 -105.5 -73
t-125.5 -24q-133 0 -195 76z" />
    <glyph glyph-name="e" unicode="e" horiz-adv-x="1186" 
d="M867 -5.5q91 16.5 165 49.5v172q-60 -26 -138.5 -40.5t-156.5 -14.5q-184 0 -273.5 66t-108.5 208h737v181q0 217 -128.5 338.5t-355.5 121.5q-254 0 -381.5 -139.5t-132.5 -407.5q0 -273 146.5 -412t423.5 -139q112 0 203 16.5zM416.5 815q61.5 78 200.5 77
q119 0 174 -61.5t55 -165.5v-69h-491q0 141 61.5 219z" />
    <glyph glyph-name="f" unicode="f" horiz-adv-x="837" 
d="M490 0v835h246l13 219h-259v115q0 80 40.5 117.5t130.5 37.5q66 0 128 -23v193q-90 41 -228 41q-170 0 -261.5 -97t-91.5 -264v-120h-141v-219h141v-835h282z" />
    <glyph glyph-name="g" unicode="g" horiz-adv-x="1286" 
d="M1149 1054v-1112q1 -120 -82.5 -200t-211 -118t-260.5 -38q-125 0 -259 14t-204 39v180q81 -26 207.5 -40.5t238.5 -14.5q130 0 228 53t98 125l-2 130q-66 -41 -155 -67.5t-174 -26.5q-239 0 -361.5 146t-120.5 413q0 539 466 539q204 0 333 -120l16 98h243zM444.5 277.5
q66.5 -82.5 199.5 -82.5q69 0 121 21.5t102 60.5v485q-94 97 -232 97q-134 0 -195.5 -77.5t-61.5 -247.5q0 -174 66.5 -256.5z" />
    <glyph glyph-name="h" unicode="h" horiz-adv-x="1281" 
d="M419 0v744q50 49 115 79.5t136 30.5q116 0 159 -45t43 -153v-656h282v678q0 206 -92.5 302t-292.5 96q-108 0 -195 -29t-155 -83v535h-282v-1499h282z" />
    <glyph glyph-name="i" unicode="i" horiz-adv-x="583" 
d="M445 1251v232h-308v-232h308zM440 0v1054l-299 1v-1055h299z" />
    <glyph glyph-name="j" unicode="j" horiz-adv-x="708" 
d="M573 1251v232h-308v-232h308zM479.5 -426q88.5 94 88.5 255v1225h-299v-1208v-10q-1 -75 -34 -110.5t-115 -35.5q-65 0 -130 24v-194q104 -40 230 -40q171 0 259.5 94z" />
    <glyph glyph-name="k" unicode="k" horiz-adv-x="1219" 
d="M419 0v348l121 119l312 -467h299l-435 624l411 430h-322l-386 -382v827h-282v-1499h282z" />
    <glyph glyph-name="l" unicode="l" horiz-adv-x="659" 
d="M512 -15.5q41 6.5 91 27.5v193q-41 -15 -100 -15q-44 0 -64 24.5t-20 83.5v1201h-282v-1232q0 -153 66.5 -221t211.5 -68q56 0 97 6.5z" />
    <glyph glyph-name="m" unicode="m" horiz-adv-x="1863" 
d="M409 0v746q50 48 111.5 78t121.5 30q94 0 129 -46.5t33 -145.5v-662h262v670q0 51 -9 90q89 94 218 94q100 0 142.5 -44t42.5 -149v-661h276v694q0 195 -83 288.5t-260 93.5q-216 0 -377 -128q-33 65 -94 96.5t-164 31.5q-189 0 -352 -124l-11 102h-258v-1054h272z" />
    <glyph glyph-name="n" unicode="n" horiz-adv-x="1281" 
d="M419 0v744q50 49 115 79.5t136 30.5q116 0 159 -44.5t43 -151.5v-658h282v692q0 198 -84 291t-266 93q-123 0 -221.5 -31.5t-173.5 -89.5l-11 99h-261v-1054h282z" />
    <glyph glyph-name="o" unicode="o" horiz-adv-x="1286" 
d="M1058.5 114.5q133.5 136.5 133.5 412.5q0 274 -135.5 411.5t-413.5 137.5q-280 0 -414.5 -137.5t-134.5 -411.5q0 -273 134.5 -411t414.5 -138q282 0 415.5 136.5zM491 230.5q-58 35.5 -84 109.5t-26 187q0 174 61.5 253t200.5 79q95 0 153 -35.5t84 -109t26 -187.5
t-26 -187.5t-84 -109t-153 -35.5q-94 0 -152 35.5z" />
    <glyph glyph-name="p" unicode="p" horiz-adv-x="1289" 
d="M419 -463v522q64 -40 136.5 -60.5t157.5 -20.5q238 0 361.5 146t120.5 413q0 539 -466 539q-204 0 -333 -120l-15 98h-244v-1517h282zM521.5 216.5q-51.5 21.5 -102.5 60.5v485q94 97 232 97q135 0 196.5 -77.5t61.5 -247.5q0 -174 -66.5 -256.5t-200.5 -82.5
q-69 0 -120.5 21.5z" />
    <glyph glyph-name="q" unicode="q" horiz-adv-x="1286" 
d="M867 -463v522q-64 -40 -136 -60.5t-158 -20.5q-238 0 -361 146t-121 413q0 539 466 539q202 0 333 -120l16 98h243v-1517h-282zM765 216.5q52 21.5 102 60.5v485q-94 97 -232 97q-134 0 -195.5 -77.5t-61.5 -247.5q0 -174 66.5 -256.5t199.5 -82.5q69 0 121 21.5z" />
    <glyph glyph-name="r" unicode="r" horiz-adv-x="832" 
d="M419 0v738q143 83 363 115v223q-96 -12 -193 -48t-170 -84l-10 110h-272v-1054h282z" />
    <glyph glyph-name="s" unicode="s" horiz-adv-x="1034" 
d="M825 57q115 79 115 236q0 135 -76 202t-241 116q-77 25 -115 40.5t-62 38.5t-33 62q-30 59 0 95q14 23 60.5 31t116.5 10h17q64 0 133.5 -13t132.5 -37v195q-56 20 -151 31.5t-183 11.5q-229 0 -337 -76.5t-108 -227.5q0 -116 62 -178t175 -105q29 -11 53 -20l36 -12
q67 -24 115 -40q63 -23 91 -49.5t28 -74.5q0 -64 -43.5 -94t-141.5 -32h-29q-73 0 -164 17.5t-162 47.5v-197q66 -24 166.5 -40.5t212.5 -16.5q217 0 332 79z" />
    <glyph glyph-name="t" unicode="t" horiz-adv-x="814" 
d="M768 19v193q-64 -24 -124 -24q-161 0 -161 158v489h252l7 219h-259v284h-282v-284h-144v-219h144v-503q0 -174 89 -264t254 -90q115 0 224 41z" />
    <glyph glyph-name="u" unicode="u" horiz-adv-x="1281" 
d="M709.5 8.5q89.5 30.5 162.5 91.5l11 -100h261v1054h-282v-743q-45 -50 -107 -80.5t-132 -30.5q-109 0 -161.5 54t-52.5 161v639h-282v-667q0 -197 98 -303t276 -106q119 0 208.5 30.5z" />
    <glyph glyph-name="v" unicode="v" horiz-adv-x="1292" 
d="M799 0l399 1054h-293l-260 -756l-257 756h-294l400 -1054h305z" />
    <glyph glyph-name="w" unicode="w" horiz-adv-x="1646" 
d="M626 0l202 632l198 -632h260l266 1054h-269l-164 -691l-202 691h-207v-135l-177 -556l-168 691h-271l267 -1054h265z" />
    <glyph glyph-name="x" unicode="x" horiz-adv-x="1241" 
d="M385 0l235 327l235 -327h308l-389 536l373 518h-305l-222 -309l-223 309h-305l375 -518l-389 -536h307z" />
    <glyph glyph-name="y" unicode="y" horiz-adv-x="1335" 
d="M279 -383q50 -8 119 -8q168 0 280 117t193 320q7 15 10 26l403 982h-293l-304 -757l-298 757h-295l454 -1035q-3 -4 -4 -8q-42 -90 -94.5 -141t-137.5 -51q-71 0 -130 24v-198q47 -20 97 -28z" />
    <glyph glyph-name="z" unicode="z" horiz-adv-x="1074" 
d="M980 0v219h-522l507 655v180h-849v-231h495l-517 -658v-165h886z" />
    <glyph glyph-name="braceleft" unicode="{" horiz-adv-x="691" 
d="M470 -231q-131 0 -197.5 70t-66.5 210v336q0 92 -29.5 135.5t-104.5 53.5v179q75 10 104.5 54.5t29.5 134.5v337q0 141 66.5 210.5t197.5 69.5h169v-230h-51q-111 0 -110 -119v-338q0 -65 -25 -119q-28 -60 -89 -90q60 -28 87 -84q27 -55 27 -124v-337q1 -121 110 -119
h51v-230h-169z" />
    <glyph glyph-name="bar" unicode="|" horiz-adv-x="471" 
d="M377 -267v1902h-283v-1902h283z" />
    <glyph glyph-name="braceright" unicode="}" horiz-adv-x="691" 
d="M242 -231q131 0 197.5 70t66.5 210v336q0 92 29.5 135.5t103.5 53.5v179q-74 10 -103.5 54.5t-29.5 134.5v337q0 141 -66.5 210.5t-197.5 69.5h-170v-230h51q112 0 111 -119v-338q0 -65 25 -119q28 -60 88 -90q-59 -28 -86 -84q-27 -55 -27 -124v-337q-2 -121 -111 -119
h-51v-230h170z" />
    <glyph glyph-name="asciitilde" unicode="~" horiz-adv-x="1211" 
d="M1012.5 504q66.5 29 104.5 84v259q-53 -69 -112 -99.5t-140 -30.5q-60 0 -118.5 19.5t-133.5 56.5q-75 36 -136.5 55.5t-128.5 19.5q-79 0 -147.5 -30t-106.5 -82v-259q53 69 113 99.5t141 30.5q63 0 122.5 -19.5t136.5 -55.5q72 -38 133 -57.5t125 -19.5q81 0 147.5 29z
" />
    <glyph glyph-name="uni00A0" unicode="&#xa0;" horiz-adv-x="0" 
 />
    <glyph glyph-name="cent" unicode="&#xa2;" horiz-adv-x="1091" 
d="M457 278.5q-76 82.5 -76 248.5q3 322 322 332q157 4 292 -61v213q-104 53 -248 60v174h-247v-188q-190 -33 -298 -166t-108 -364q0 -232 103 -365.5t303 -164.5v-188h247v174q132 9 250 60v222q-142 -71 -294 -70q-170 1 -246 83.5z" />
    <glyph glyph-name="sterling" unicode="&#xa3;" horiz-adv-x="1061" 
d="M979 0v219h-503q53 24 52 150v264h350l10 220h-360v216q2 174 200 175q97 -1 165 -30v193q-95 48 -263 47q-173 0 -278.5 -101t-105.5 -279v-221h-142v-220h142v-282q-1 -132 -109 -132h-55v-219h897z" />
    <glyph glyph-name="currency" unicode="&#xa4;" horiz-adv-x="1250" 
d="M397 250q50 -36 108 -55.5t121 -19.5q127 0 227 76l179 -142l122 157l-171 134q56 94 56 198q0 111 -56 198l173 133l-124 158l-179 -144q-97 77 -229 77q-130 0 -228 -76l-177 145l-124 -159l170 -134q-54 -89 -54 -198q0 -108 54 -197l-171 -133l125 -160zM471.5 441.5
q-62.5 66.5 -62.5 157.5q0 95 62.5 160.5t152.5 65.5t153.5 -65.5t63.5 -160.5q0 -92 -63.5 -158t-153.5 -66t-152.5 66.5z" />
    <glyph glyph-name="yen" unicode="&#xa5;" horiz-adv-x="1441" 
d="M862 0v202h312v151h-312v146h312v151h-247l420 782h-293l-333 -649l-334 649h-293l419 -782h-249v-151h315v-146h-315v-151h315v-202h283z" />
    <glyph glyph-name="brokenbar" unicode="&#xa6;" horiz-adv-x="471" 
d="M377 900v735h-283v-735h283zM377 -267v735h-283v-735h283z" />
    <glyph glyph-name="section" unicode="&#xa7;" horiz-adv-x="1215" 
d="M1121 382q0 92 -42 158q43 74 42 169q0 103 -33 168t-120.5 110.5t-271.5 92.5q-179 47 -247 87.5t-68 125.5q0 100 84 145t222 45q172 1 354 -69v227q-54 19 -166 39t-239 21q-541 2 -541 -386q0 -99 42 -163q-43 -66 -43 -147q-1 -154 81 -228.5t313 -144.5
q179 -49 262 -97.5t83 -143.5q0 -198 -295 -197q-211 0 -417 88v-226q176 -78 444 -78q556 5 556 404zM795 729.5q-75 32.5 -168 53.5q-167 41 -234 78.5t-67 115.5q0 32 9 55q12 -45 279 -118q162 -37 231 -75t69 -120q0 -32 -11 -61q-33 39 -108 71.5z" />
    <glyph glyph-name="copyright" unicode="&#xa9;" horiz-adv-x="1613" 
d="M1093 314v145q-115 -65 -239 -65q-140 0 -224 76t-84 246q0 166 92 244t224 78q121 0 229 -60v139q-105 75 -274 76q-455 -1 -460 -477q-1 -476 450 -477q175 0 286 75zM1163.5 77q164.5 99 259.5 269t95 370t-95 370.5t-259.5 269t-357.5 98.5t-357 -98.5t-259.5 -269
t-95.5 -370.5t95.5 -370t259.5 -269t357 -99t357.5 99zM526.5 212.5q-126.5 76.5 -201 208.5t-74.5 295t74.5 295t201 208.5t279.5 76.5q154 0 280.5 -76.5t201 -208.5t74.5 -295t-74.5 -295t-201 -208.5t-280.5 -76.5q-153 0 -279.5 76.5z" />
    <glyph glyph-name="ordfeminine" unicode="&#xaa;" horiz-adv-x="755" 
d="M503 919l8 -61h149v371q0 116 -72.5 170.5t-201.5 54.5q-60 0 -118.5 -9t-101.5 -27v-107q94 31 185 31q83 0 115 -22.5t32 -76.5v-27h-173q-231 0 -231 -190q0 -91 56.5 -136t145.5 -45q128 0 207 74zM252 1030q0 44 26 65t82 21h138v-100q-28 -34 -61.5 -49t-83.5 -15
q-101 0 -101 78z" />
    <glyph glyph-name="guillemotleft" unicode="&#xab;" horiz-adv-x="1389" 
d="M1295 314l-418 321l418 321l-109 166l-560 -429v-116l560 -429zM764 314l-419 321l419 321l-109 166l-561 -429v-116l561 -429z" />
    <glyph glyph-name="registered" unicode="&#xae;" horiz-adv-x="1613" 
d="M1163.5 77q164.5 99 259.5 269t95 370t-95 370.5t-259.5 269t-357.5 98.5t-357 -98.5t-259.5 -269t-95.5 -370.5t95.5 -370t259.5 -269t357 -99t357.5 99zM526.5 212.5q-126.5 76.5 -201 208.5t-74.5 295t74.5 295t201 208.5t279.5 76.5q154 0 280.5 -76.5t201 -208.5
t74.5 -295t-74.5 -295t-201 -208.5t-280.5 -76.5q-153 0 -279.5 76.5zM654 284v307h131q56 0 80 -14t38 -52l92 -241h155l-99 258q-13 32 -25.5 50t-34.5 27q182 54 182 255q0 130 -70 204t-208 74h-401v-868h160zM654 1022h209q77 0 114 -34.5t37 -113.5q0 -81 -42 -117
t-122 -36h-196v301z" />
    <glyph glyph-name="macron" unicode="&#xaf;" horiz-adv-x="761" 
d="M710 1249v181h-658v-181h658z" />
    <glyph glyph-name="degree" unicode="&#xb0;" horiz-adv-x="921" 
d="M460 814q91 0 167.5 45t121.5 121.5t45 167.5t-44.5 167.5t-121.5 121t-168 44.5t-167.5 -44.5t-121 -121t-44.5 -167.5t44.5 -168t121 -121.5t167.5 -44.5v0zM563.5 1250.5q42.5 -43.5 42.5 -102.5q0 -60 -43 -103t-103 -43t-103 43t-43 103t44 103t107 43
q56 0 98.5 -43.5z" />
    <glyph glyph-name="plusminus" unicode="&#xb1;" horiz-adv-x="1035" 
d="M628 322v299h313v229h-313v307h-222v-307h-312v-229h312v-299h222zM941 0v229h-847v-229h847z" />
    <glyph glyph-name="mu" unicode="&#xb5;" horiz-adv-x="1291" 
d="M419 -318v381q77 -84 215 -73q157 11 249 110l10 -100h261v1054h-282v-743q-104 -111 -239 -111q-214 0 -214 215v639h-282v-1372h282z" />
    <glyph glyph-name="paragraph" unicode="&#xb6;" horiz-adv-x="1385" 
d="M851 -171v1531h200v-1531h240v1750h-645q-552 0 -552 -518q0 -275 151.5 -386.5t368.5 -111.5v-734h237z" />
    <glyph glyph-name="guillemotright" unicode="&#xbb;" horiz-adv-x="1389" 
d="M1295 577v116l-560 429l-109 -166l418 -321l-418 -321l109 -166zM764 577v116l-561 429l-109 -166l419 -321l-419 -321l109 -166z" />
    <glyph glyph-name="multiply" unicode="&#xd7;" horiz-adv-x="919" 
d="M825 320l-226 234l226 235l-140 147l-228 -233l-222 235l-141 -147l227 -233l-218 -225l141 -147l219 224l225 -234z" />
    <glyph glyph-name="germandbls" unicode="&#xdf;" horiz-adv-x="1386" 
d="M844 -22q-81 0 -160.5 12t-132.5 37v194q47 -19 107 -27.5t116 -8.5q117 0 174 56.5t57 171.5q0 98 -52 147t-177 49h-169v150l356 262q3 102 -80 147t-198 45q-151 0 -221 -67.5t-70 -202.5v-943h-267v951q3 273 154 388t404 115q294 0 411.5 -125t130.5 -342l-347 -260
h88q157 0 240 -89.5t83 -255.5q0 -207 -116 -305.5t-331 -98.5z" />
    <glyph glyph-name="divide" unicode="&#xf7;" horiz-adv-x="1014" 
d="M604 894v198h-196v-198h196zM920 489v229h-826v-229h826zM604 123v199h-196v-199h196z" />
    <glyph glyph-name="uni060C" unicode="&#x60c;" horiz-adv-x="700" 
d="M522.5 286.5q-26.5 39.5 -71 56.5t-95.5 7v87q0 37 23.5 65.5t61.5 34.5l97 13l-32 202l-75 -13q-127 -23 -206.5 -117t-81.5 -223v-206q0 -81 56.5 -139.5t142.5 -58.5q57 0 104.5 26t75 71t27.5 99q0 56 -26.5 95.5z" />
    <glyph glyph-name="uni0615" unicode="&#x615;" horiz-adv-x="0" 
d="M61 1916q58 0 83.5 -36.5t25.5 -79.5q0 -33 -32.5 -55t-79.5 -22h-161q74 193 164 193zM-243 1745q-2 -8 -4 -21q0 -1 -1 -1h-56v-136h362q68 0 125 28t89.5 77t31.5 108q0 70 -30 127.5t-85.5 90.5t-127.5 33q-90 0 -168 -89v290h-136v-507z" />
    <glyph glyph-name="uni0615" unicode="&#xfbc0;" horiz-adv-x="0" 
d="M61 1916q58 0 83.5 -36.5t25.5 -79.5q0 -33 -32.5 -55t-79.5 -22h-161q74 193 164 193zM-243 1745q-2 -8 -4 -21q0 -1 -1 -1h-56v-136h362q68 0 125 28t89.5 77t31.5 108q0 70 -30 127.5t-85.5 90.5t-127.5 33q-90 0 -168 -89v290h-136v-507z" />
    <glyph glyph-name="uni0615" unicode="&#xe0bf;" horiz-adv-x="0" 
d="M61 1916q58 0 83.5 -36.5t25.5 -79.5q0 -33 -32.5 -55t-79.5 -22h-161q74 193 164 193zM-243 1745q-2 -8 -4 -21q0 -1 -1 -1h-56v-136h362q68 0 125 28t89.5 77t31.5 108q0 70 -30 127.5t-85.5 90.5t-127.5 33q-90 0 -168 -89v290h-136v-507z" />
    <glyph glyph-name="uni061B" unicode="&#x61b;" horiz-adv-x="699" 
d="M522.5 670.5q-26.5 39.5 -71 56.5t-95.5 7v87q0 37 23.5 65.5t61.5 34.5l97 13l-32 202l-75 -13q-127 -23 -206.5 -117t-81.5 -223v-206q0 -81 56.5 -139.5t142.5 -58.5q57 0 104.5 26t75 71t27.5 99q0 56 -26.5 95.5zM459 0v230h-240v-230h240z" />
    <glyph glyph-name="uni061F" unicode="&#x61f;" horiz-adv-x="1086" 
d="M476 0v219h296v-219h-296zM495 377v35q0 77 -62.5 144t-146.5 133q-105 88 -150 165.5t-45 193.5q0 194 125.5 300t365.5 106q246 0 410 -188l-185 -218q-94 153 -220 154q-209 0 -209 -186q0 -82 42.5 -132.5t134.5 -126.5q83 -69 142 -140t57 -195v-45h-259z" />
    <glyph glyph-name="uni0640" unicode="&#x640;" horiz-adv-x="288" 
d="M-56 179.5q-15 -49.5 0 -99.5t56 -80h289v260h-289q-41 -31 -56 -80.5z" />
    <glyph glyph-name="uni0640" unicode="&#xe0b5;" horiz-adv-x="288" 
d="M-56 179.5q-15 -49.5 0 -99.5t56 -80h289v260h-289q-41 -31 -56 -80.5z" />
    <glyph glyph-name="uni0653" unicode="&#x653;" horiz-adv-x="0" 
d="M-179 163q17 40 52 64t78 23h462v167h-462q-94 1 -171.5 -52t-112.5 -140l-65 -163l155 -62z" />
    <glyph glyph-name="uni0653" unicode="&#xe010;" horiz-adv-x="0" 
d="M-179 163q17 40 52 64t78 23h462v167h-462q-94 1 -171.5 -52t-112.5 -140l-65 -163l155 -62z" />
    <glyph glyph-name="uni0654" unicode="&#x654;" horiz-adv-x="0" 
d="M-208 1798l463 177l-48 127l-151 -58q-58 -5 -93 21.5t-34 77.5q0 39 24.5 72t65.5 34q28 0 52 -8.5t55 -23.5q6 -3 9 -5l34 128q-41 23 -74.5 33.5t-75.5 10.5q-67 0 -118.5 -35t-79.5 -91t-28 -115q0 -51 24 -96t66 -69l-138 -53z" />
    <glyph glyph-name="uni0654" unicode="&#x674;" horiz-adv-x="0" 
d="M-208 1798l463 177l-48 127l-151 -58q-58 -5 -93 21.5t-34 77.5q0 39 24.5 72t65.5 34q28 0 52 -8.5t55 -23.5q6 -3 9 -5l34 128q-41 23 -74.5 33.5t-75.5 10.5q-67 0 -118.5 -35t-79.5 -91t-28 -115q0 -51 24 -96t66 -69l-138 -53z" />
    <glyph glyph-name="uni0655" unicode="&#x655;" horiz-adv-x="0" 
d="M-208 -1112l463 176l-47 126l-152 -58q-58 -4 -93 23t-34 77q0 39 24.5 72t65.5 34q28 0 51.5 -8.5t54.5 -23.5q7 -4 10 -5l34 128q-41 23 -74.5 34t-75.5 10q-67 0 -118.5 -35t-79.5 -91t-28 -115q0 -50 24 -95.5t66 -69.5l-138 -53z" />
    <glyph glyph-name="uni0656" unicode="&#x656;" horiz-adv-x="0" 
d="M-67 -965h134v401h-134v-401z" />
    <glyph glyph-name="uni0656" unicode="&#x8ad;" horiz-adv-x="0" 
d="M-67 -965h134v401h-134v-401z" />
    <glyph glyph-name="uni065A" unicode="&#x65a;" horiz-adv-x="0" 
d="M359 1946l-171 4l-188 -215l-188 215l-171 -4l308 -359h102z" />
    <glyph glyph-name="uni065B" unicode="&#x65b;" horiz-adv-x="0" 
d="M359 1591l-171 -4l-188 215l-188 -215l-171 4l308 359h102z" />
    <glyph glyph-name="uni0660" unicode="&#x660;" horiz-adv-x="636" 
d="M318 281l227 227l-227 226l-226 -226z" />
    <glyph glyph-name="uni0661" unicode="&#x661;" horiz-adv-x="591" 
d="M457 648q0 121 -15.5 290t-44.5 293l-29 124l-249 -58l29 -124q26 -107 39.5 -255.5t13.5 -269.5v-648h256v648z" />
    <glyph glyph-name="uni0662" unicode="&#x662;" horiz-adv-x="1089" 
d="M397 1231l-29 124l-249 -58l29 -124q26 -107 39.5 -255.5t13.5 -269.5v-648h256v591q-1 36 -2 63q21 -29 63.5 -42t100.5 -5q156 21 250 119t101 246q3 81 -5.5 147t-35.5 205q-4 23 -6 35l-251 -49q3 -17 9 -48q22 -116 29 -168t5 -114q-5 -103 -129 -120
q-56 -7 -92.5 16.5t-51.5 62.5q-16 171 -45 292z" />
    <glyph glyph-name="uni0663" unicode="&#x663;" horiz-adv-x="1591" 
d="M1370 730q96 98 103 246q3 79 -5.5 144.5t-34.5 199.5q-5 27 -8 42l-252 -47q4 -18 10 -49q23 -121 29.5 -171t4.5 -111q-7 -102 -132 -120q-38 -5 -70 8.5t-62 49.5q9 24 9 50q3 81 -5.5 147t-35.5 205q-4 23 -6 35l-251 -49q3 -17 9 -48q22 -115 29 -167.5t5 -114.5
q-5 -103 -128 -120q-56 -7 -89 16t-48 63q-16 170 -45 292l-29 124l-249 -58l29 -124q26 -107 39.5 -255.5t13.5 -269.5v-648h256v600q0 23 -2 50q21 -26 62 -38.5t94 -4.5q131 16 219 94q54 -46 132 -73.5t155 -16.5q157 21 253 119z" />
    <glyph glyph-name="uni0664" unicode="&#x664;" horiz-adv-x="1056" 
d="M289.5 731.5q89.5 -87.5 282.5 -61.5q12 0 31 -12t50 -36q36 -27 58 -40t36 -10l131 26l-49 240l-130 -26q-71 -14 -124.5 -4t-79.5 36q-36 35 -23 97q15 80 61.5 125.5t98.5 62t92 16.5q25 0 65 -6t70 -13l10 245q-57 19 -145 19q-105 0 -208 -43t-180 -132.5
t-104 -222.5q-32 -173 57.5 -260.5zM923 245h-408q-55 0 -95 36.5t-44 90.5q-4 53 28 95.5t83 52.5l391 78l-48 240l-391 -78q-88 -18 -158.5 -72.5t-110 -134t-39.5 -169.5q0 -105 51.5 -193t139.5 -139.5t193 -51.5h407z" />
    <glyph glyph-name="uni0665" unicode="&#x665;" horiz-adv-x="1390" 
d="M1102 116q155 125 155 437q0 206 -63 392.5t-190 303.5t-309 117q-181 0 -308 -117t-190.5 -303.5t-63.5 -392.5q0 -312 155.5 -437t375.5 -125h63q220 0 375 125zM868 1035q72 -86 108.5 -217t36.5 -265q0 -79 -13 -136.5t-44.5 -98t-87.5 -62t-141 -21.5h-63
q-113 0 -175.5 37.5t-86.5 106t-24 174.5q0 134 36 265t108 217t173 86t173 -86z" />
    <glyph glyph-name="uni0666" unicode="&#x666;" horiz-adv-x="1213" 
d="M1121 97q-92 150 -142 337t-34.5 389.5t115.5 384.5l-143 177q-187 -58 -315 -70t-209.5 4.5t-191.5 56.5q-7 3 -11 5l-86 -223q120 -46 202 -67t188.5 -22.5t267.5 27.5q-91 -326 -47 -600.5t197 -526.5z" />
    <glyph glyph-name="uni0667" unicode="&#x667;" horiz-adv-x="1256" 
d="M890 547.5q-125 -358.5 -134 -548.5h-260q-8 191 -132 548.5t-313 702.5l211 134q124 -216 211 -437t155 -548q46 226 102.5 402t119 309.5t142.5 273.5l211 -134q-188 -344 -313 -702.5z" />
    <glyph glyph-name="uni0668" unicode="&#x668;" horiz-adv-x="1235" 
d="M890 809q-125 359 -134 548l-260 1q-8 -191 -132 -549.5t-313 -701.5l211 -135q80 140 142.5 273.5t118 304t105.5 407.5q48 -237 103.5 -407.5t118 -304t142.5 -273.5l211 135q-188 343 -313 702z" />
    <glyph glyph-name="uni0669" unicode="&#x669;" horiz-adv-x="1124" 
d="M733 822q-35 -24 -75.5 -34.5t-98.5 -17.5q-6 -1 -9 -1q-71 -8 -122 37t-53 127q0 49 25 91t66.5 67t88.5 25q55 0 95.5 -33t61.5 -83t21 -101v-77zM733 0h256v899q0 119 -53.5 228t-152 177t-228.5 68q-115 0 -215.5 -60t-160.5 -160.5t-60 -216.5q-1 -127 63.5 -229.5
t172 -155t229.5 -36.5q4 1 12 2q41 6 72.5 14t64.5 24v-554z" />
    <glyph glyph-name="uni066A" unicode="&#x66a;" horiz-adv-x="1278" 
d="M1071 1313l-170 78l-694 -1338l169 -77zM388.5 1241.5q43.5 -43.5 43.5 -105.5q0 -61 -44 -105t-105 -44q-62 0 -105 43.5t-43 105.5t43 105.5t105 43.5t105.5 -43.5zM1099.5 336.5q43.5 -43.5 43.5 -105.5t-43.5 -105.5t-104.5 -43.5q-62 0 -105.5 43.5t-43.5 105.5
t43.5 105.5t105.5 43.5q61 0 104.5 -43.5z" />
    <glyph glyph-name="uni066B" unicode="&#x66b;" horiz-adv-x="659" 
d="M524 397l-152 68l-372 -819l152 -69z" />
    <glyph glyph-name="uni066C" unicode="&#x66c;" horiz-adv-x="504" 
d="M212 -249q75 40 116 118t41 179v221h-166v-221q0 -45 -16.5 -87.5t-54.5 -63.5l-73 -40l80 -146z" />
    <glyph glyph-name="uni066D" unicode="&#x66d;" horiz-adv-x="1327" 
d="M135 808l326 -240l-126 -383l328 237l329 -237l-125 383l326 240h-403l-127 382l-125 -382h-403z" />
    <glyph glyph-name="uni066E" unicode="&#x66e;" horiz-adv-x="1762" 
d="M1227 0q109 0 201 51.5t146 140t54 193.5v364h-244v-333q0 -65 -46 -110.5t-111 -45.5h-692q-64 0 -110 45.5t-46 110.5v333h-244v-364q0 -105 53.5 -193.5t145.5 -140t201 -51.5h692z" />
    <glyph glyph-name="uni066F" unicode="&#x66f;" horiz-adv-x="1687" 
d="M1350 809.5q96 -58.5 150 -163t54 -239.5v-391q0 -152 -76 -280t-202.5 -203t-270.5 -75h-284q-176 0 -309.5 78.5t-205 210t-71.5 284.5v482h244v-450q0 -92 39 -170.5t116 -126.5t187 -48h284q135 0 217.5 76.5t83.5 205.5h-176q-216 0 -319.5 107t-103.5 300
q0 132 54.5 237.5t151 164.5t217.5 59q124 0 220 -58.5zM1309 407q0 85 -41 151t-138 66q-63 0 -103 -34t-57.5 -84t-17.5 -99q0 -73 39.5 -110t138.5 -37h179v147z" />
    <glyph glyph-name="uni066F" unicode="&#x8bc;" horiz-adv-x="1687" 
d="M1350 809.5q96 -58.5 150 -163t54 -239.5v-391q0 -152 -76 -280t-202.5 -203t-270.5 -75h-284q-176 0 -309.5 78.5t-205 210t-71.5 284.5v482h244v-450q0 -92 39 -170.5t116 -126.5t187 -48h284q135 0 217.5 76.5t83.5 205.5h-176q-216 0 -319.5 107t-103.5 300
q0 132 54.5 237.5t151 164.5t217.5 59q124 0 220 -58.5zM1309 407q0 85 -41 151t-138 66q-63 0 -103 -34t-57.5 -84t-17.5 -99q0 -73 39.5 -110t138.5 -37h179v147z" />
    <glyph glyph-name="uni0670" unicode="&#x670;" horiz-adv-x="0" 
d="M-67 1798h134v401h-134v-401z" />
    <glyph glyph-name="uni0695" unicode="&#x695;" horiz-adv-x="785" 
d="M81 -542q153 0 284 79.5t207.5 211.5t76.5 282v681h-245v-649q0 -88 -43.5 -168t-118 -128.5t-161.5 -48.5h-89v-260h89zM652 -761l-171 4l-188 -215l-188 215l-171 -4l308 -359h102z" />
    <glyph glyph-name="uni06A1" unicode="&#x6a1;" horiz-adv-x="1840" 
d="M1651 1011q-54 97 -149 156t-213 59q-114 0 -208.5 -57t-150.5 -156t-58 -217q-4 -187 73 -278t263 -91h252v-17q0 -65 -61 -107.5t-146 -42.5h-718q-64 0 -110 45.5t-46 110.5v333h-244v-364q0 -105 53.5 -193.5t145.5 -140t201 -51.5h718q121 0 225 51.5t165.5 139
t61.5 190.5v426q0 107 -54 204zM1262 671q-82 0 -115.5 36t-29.5 112q3 70 47 120.5t125 50.5q51 0 90 -27.5t60 -70t21 -82.5v-139h-198z" />
    <glyph glyph-name="uni06A1" unicode="&#x8bb;" horiz-adv-x="1840" 
d="M1651 1011q-54 97 -149 156t-213 59q-114 0 -208.5 -57t-150.5 -156t-58 -217q-4 -187 73 -278t263 -91h252v-17q0 -65 -61 -107.5t-146 -42.5h-718q-64 0 -110 45.5t-46 110.5v333h-244v-364q0 -105 53.5 -193.5t145.5 -140t201 -51.5h718q121 0 225 51.5t165.5 139
t61.5 190.5v426q0 107 -54 204zM1262 671q-82 0 -115.5 36t-29.5 112q3 70 47 120.5t125 50.5q51 0 90 -27.5t60 -70t21 -82.5v-139h-198z" />
    <glyph glyph-name="uni06AA" unicode="&#x6aa;" horiz-adv-x="2088" 
d="M1746 54q92 54 146 146t54 201t-54 201t-146 146t-201 54h-466l415 507l-189 155l-578 -707l94 -200h724q65 0 111 -46t46 -110q0 -63 -45 -102t-112 -39h-1003q-66 0 -111 39t-45 102v317h-244v-302q0 -113 53.5 -208.5t145.5 -151.5t201 -56h1003q109 0 201 54z" />
    <glyph glyph-name="uni06B5" unicode="&#x6b5;" horiz-adv-x="1573" 
d="M811 -542q176 0 309.5 78t205 209.5t71.5 285.5v1411h-244v-1379q0 -93 -39 -171.5t-116 -126t-187 -47.5h-90q-110 0 -187 47.5t-116 126t-39 171.5v435h-244v-467q0 -154 71.5 -285.5t205 -209.5t309.5 -78h90zM1634 2055l-171 4l-188 -215l-188 215l-171 -4l308 -359
h102z" />
    <glyph glyph-name="uni06C2" unicode="&#x6c2;" horiz-adv-x="1091" 
d="M686.5 502q40.5 -75 40.5 -124q0 -47 -27 -81t-68.5 -51.5t-83.5 -17.5t-83.5 18.5t-68.5 52.5t-27 79q0 80 56 157t125 140q96 -98 136.5 -173zM209.5 637q-85.5 -119 -85.5 -259q0 -109 58 -199.5t156 -143t210 -52.5q107 0 204.5 48t158.5 138.5t61 208.5
q0 143 -103.5 298.5t-312.5 325.5l-95 78l-155 -190l77 -62q-88 -72 -173.5 -191zM302 1269l463 177l-48 127l-151 -58q-58 -5 -93 21.5t-34 77.5q0 39 24.5 72t65.5 34q28 0 52 -8.5t55 -23.5q6 -3 9 -5l34 128q-41 23 -74.5 33.5t-75.5 10.5q-67 0 -118.5 -35t-79.5 -91
t-28 -115q0 -51 24 -96t66 -69l-138 -53z" />
    <glyph glyph-name="uni06C3" unicode="&#x6c3;" horiz-adv-x="1091" 
d="M686.5 502q40.5 -75 40.5 -124q0 -47 -27 -81t-68.5 -51.5t-83.5 -17.5t-83.5 18.5t-68.5 52.5t-27 79q0 80 56 157t125 140q96 -98 136.5 -173zM209.5 637q-85.5 -119 -85.5 -259q0 -109 58 -199.5t156 -143t210 -52.5q107 0 204.5 48t158.5 138.5t61 208.5
q0 143 -103.5 298.5t-312.5 325.5l-95 78l-155 -190l77 -62q-88 -72 -173.5 -191zM535 1478h-302q-1 -103 0 -208h302v208zM823 1478h-302q-1 -103 0 -208h302q1 105 0 208z" />
    <glyph glyph-name="uni06CE" unicode="&#x6ce;" horiz-adv-x="1613" 
d="M1396 243q-101 75 -269 76h-183v167q0 71 48 118.5t119 47.5h317v245h-317q-114 0 -208 -55t-148.5 -149t-54.5 -207v-411h423q66 -1 96 -27.5t25 -90.5q-4 -64 -46.5 -118t-129 -87.5t-217.5 -33.5h-137q-108 0 -184 46.5t-113.5 123.5t-37.5 167v457h-244l-1 -488
q0 -153 71 -282.5t202.5 -206.5t306.5 -77h137q232 0 372.5 82.5t199.5 198.5t66 230q8 199 -93 274zM616 1105l-171 4l-188 -215l-188 215l-171 -4l308 -359h102z" />
    <glyph glyph-name="uni06D4" unicode="&#x6d4;" horiz-adv-x="751" 
d="M56 0v-167h639v167h-639z" />
    <glyph glyph-name="uni06F0" unicode="&#x6f0;" horiz-adv-x="1043" 
d="M176 311.5q53 -91.5 145 -145t201 -53.5q108 0 199.5 53.5t145 145t53.5 200.5q0 108 -53.5 199.5t-145 145t-199.5 53.5q-109 0 -201 -53.5t-145 -144.5t-53 -200t53 -200.5zM405 629q50 49 121 49q65 0 113 -49t48 -117q0 -69 -48.5 -118t-116.5 -49q-69 0 -118 49
t-49 118q0 68 50 117z" />
    <glyph glyph-name="uni06F1" unicode="&#x6f1;" horiz-adv-x="591" 
d="M457 648q0 121 -15.5 290t-44.5 293l-29 124l-249 -58l29 -124q26 -107 39.5 -255.5t13.5 -269.5v-648h256v648z" />
    <glyph glyph-name="uni06F2" unicode="&#x6f2;" horiz-adv-x="1088" 
d="M397 1231l-29 124l-249 -58l29 -124q26 -107 39.5 -255.5t13.5 -269.5v-648h256v591q-1 36 -2 63q21 -29 63.5 -42t100.5 -5q156 21 250 119t101 246q3 81 -5.5 147t-35.5 205q-4 23 -6 35l-251 -49q3 -17 9 -48q22 -116 29 -168t5 -114q-5 -103 -129 -120
q-56 -7 -92.5 16.5t-51.5 62.5q-16 171 -45 292z" />
    <glyph glyph-name="uni06F3" unicode="&#x6f3;" horiz-adv-x="1592" 
d="M1370 730q96 98 103 246q3 79 -5.5 144.5t-34.5 199.5q-5 27 -8 42l-252 -47q4 -18 10 -49q23 -121 29.5 -171t4.5 -111q-7 -102 -132 -120q-38 -5 -70 8.5t-62 49.5q9 24 9 50q3 81 -5.5 147t-35.5 205q-4 23 -6 35l-251 -49q3 -17 9 -48q22 -115 29 -167.5t5 -114.5
q-5 -103 -128 -120q-56 -7 -89 16t-48 63q-16 170 -45 292l-29 124l-249 -58l29 -124q26 -107 39.5 -255.5t13.5 -269.5v-648h256v600q0 23 -2 50q21 -26 62 -38.5t94 -4.5q131 16 219 94q54 -46 132 -73.5t155 -16.5q157 21 253 119z" />
    <glyph glyph-name="uni06F4" unicode="&#x6f4;" horiz-adv-x="1404" 
d="M397 1231l-29 124l-249 -58l29 -124q26 -107 39.5 -261t13.5 -264v-648h256v612q0 27 -2 57q133 -134 513 -134q92 0 165.5 22.5t159.5 69.5l-46 241q-98 -41 -162 -59.5t-115 -17.5q-72 1 -121 35.5t-47 122.5q2 74 45.5 120.5t118.5 50.5q28 1 66 -7.5t118 -34.5
l60 236q-51 25 -117 43.5t-113 19.5q-114 3 -209.5 -51t-151.5 -152.5t-58 -224.5q0 -64 44 -102q-66 20 -109 69.5t-63 96.5q-15 127 -36 218z" />
    <glyph glyph-name="uni06F5" unicode="&#x6f5;" horiz-adv-x="1462" 
d="M642 1402q37 -31 113 -91q155 -124 250 -209t177.5 -188.5t131 -228t48.5 -271.5q0 -113 -54 -210t-144.5 -154.5t-196.5 -57.5q-167 0 -241 114q-41 -56 -101 -85t-146 -29q-107 0 -193.5 56t-135.5 152.5t-49 213.5q0 208 133 393.5t339 321.5q-3 2 -9 7q-52 42 -79 64
zM1030.5 269.5q32.5 21.5 54 59.5t21.5 85q0 112 -41 205.5t-115 175.5t-191 181q-178 -130 -290.5 -273.5t-112.5 -288.5q0 -78 37 -122t86 -44q64 0 106 33t42 114v142h224v-95q0 -42 -5 -84q34 -110 121 -110q31 0 63.5 21.5z" />
    <glyph glyph-name="uni06F6" unicode="&#x6f6;" horiz-adv-x="1081" 
d="M676.5 805.5q-85.5 -23.5 -150.5 -22.5q-71 1 -121 39t-48 126q2 74 46 121t118 51q32 1 85 -8.5t122 -33.5l61 236q-48 23 -126.5 42.5t-127.5 20.5q-114 3 -209.5 -51t-151.5 -152.5t-58 -225.5q-1 -123 49.5 -208.5t133 -128.5t175.5 -44q33 0 67 15
q-180 -221 -311 -497l224 -106q117 247 242.5 409.5t293.5 304.5l-161 188q-67 -52 -152.5 -75.5z" />
    <glyph glyph-name="uni06F7" unicode="&#x6f7;" horiz-adv-x="1255" 
d="M890 547.5q-125 -358.5 -134 -548.5h-260q-8 191 -132 548.5t-313 702.5l211 134q124 -216 211 -437t155 -548q46 226 102.5 402t119 309.5t142.5 273.5l211 -134q-188 -344 -313 -702.5z" />
    <glyph glyph-name="uni06F8" unicode="&#x6f8;" horiz-adv-x="1235" 
d="M890 809q-125 359 -134 548l-260 1q-8 -191 -132 -549.5t-313 -701.5l211 -135q80 140 142.5 273.5t118 304t105.5 407.5q48 -237 103.5 -407.5t118 -304t142.5 -273.5l211 135q-188 343 -313 702z" />
    <glyph glyph-name="uni06F9" unicode="&#x6f9;" horiz-adv-x="1124" 
d="M733 822q-35 -24 -75.5 -34.5t-98.5 -17.5q-6 -1 -9 -1q-71 -8 -122 37t-53 127q0 49 25 91t66.5 67t88.5 25q55 0 95.5 -33t61.5 -83t21 -101v-77zM733 0h256v899q0 119 -53.5 228t-152 177t-228.5 68q-115 0 -215.5 -60t-160.5 -160.5t-60 -216.5q-1 -127 63.5 -229.5
t172 -155t229.5 -36.5q4 1 12 2q41 6 72.5 14t64.5 24v-554z" />
    <glyph glyph-name="uni2009" unicode="&#x2009;" horiz-adv-x="106" 
 />
    <glyph glyph-name="uni200A" unicode="&#x200a;" horiz-adv-x="106" 
 />
    <glyph glyph-name="uni200B" unicode="&#x200b;" horiz-adv-x="0" 
 />
    <glyph glyph-name="uni200C" unicode="&#x200c;" horiz-adv-x="0" 
 />
    <glyph glyph-name="uni200D" unicode="&#x200d;" horiz-adv-x="0" 
 />
    <glyph glyph-name="uni200E" unicode="&#x200e;" horiz-adv-x="0" 
 />
    <glyph glyph-name="uni200F" unicode="&#x200f;" horiz-adv-x="0" 
 />
    <glyph glyph-name="quoteleft" unicode="&#x2018;" horiz-adv-x="550" 
d="M337 998l119 456h-213l-149 -456h243z" />
    <glyph glyph-name="quoteright" unicode="&#x2019;" horiz-adv-x="550" 
d="M307 998l149 456h-243l-119 -456h213z" />
    <glyph glyph-name="quotesinglbase" unicode="&#x201a;" horiz-adv-x="550" 
d="M307 -383l149 456h-243l-119 -456h213z" />
    <glyph glyph-name="quotedblleft" unicode="&#x201c;" horiz-adv-x="863" 
d="M649 998l119 456h-192l-149 -456h222zM317 998l118 456h-192l-149 -456h223z" />
    <glyph glyph-name="quotedblright" unicode="&#x201d;" horiz-adv-x="863" 
d="M619 998l149 456h-223l-118 -456h192zM286 998l149 456h-222l-119 -456h192z" />
    <glyph glyph-name="quotedblbase" unicode="&#x201e;" horiz-adv-x="863" 
d="M619 -245l149 456h-223l-118 -456h192zM286 -245l149 456h-222l-119 -456h192z" />
    <glyph glyph-name="guilsinglleft" unicode="&#x2039;" horiz-adv-x="859" 
d="M764 314l-419 321l419 321l-109 166l-561 -429v-116l561 -429z" />
    <glyph glyph-name="guilsinglright" unicode="&#x203a;" horiz-adv-x="859" 
d="M764 577v116l-561 429l-109 -166l419 -321l-419 -321l109 -166z" />
    <glyph glyph-name="infinity" unicode="&#x221e;" horiz-adv-x="1509" 
d="M624 327q81 47 131 129q51 -82 131 -129t178 -47q160 0 255.5 89t95.5 258q0 170 -95.5 258.5t-255.5 88.5q-97 0 -177 -47.5t-132 -128.5q-51 81 -131.5 128.5t-178.5 47.5q-159 0 -255 -88.5t-96 -258.5q0 -169 96 -258t255 -89q98 0 179 47zM336 512.5
q-42 40.5 -42 114.5t42 114.5t120 40.5q71 0 119.5 -38.5t87.5 -117.5q-68 -154 -207 -154q-78 0 -120 40.5zM935 510.5q-50 38.5 -88 113.5q37 79 86.5 118.5t119.5 39.5q79 0 120.5 -40.5t41.5 -114.5t-41.5 -114.5t-120.5 -40.5q-68 0 -118 38.5z" />
    <glyph glyph-name="notequal" unicode="&#x2260;" horiz-adv-x="1022" 
d="M416 82l74 234h438v209h-381l51 155h330v208h-274l73 227h-131l-72 -227h-430v-208h373l-50 -155h-323v-209h265l-74 -234h131z" />
    <glyph glyph-name="lessequal" unicode="&#x2264;" horiz-adv-x="1189" 
d="M1094 517l-702 304l702 303v249l-1000 -452v-200l1000 -453v249zM1094 0v202h-1000v-202h1000z" />
    <glyph glyph-name="greaterequal" unicode="&#x2265;" horiz-adv-x="1189" 
d="M1094 721v200l-1000 452v-249l702 -303l-702 -304v-249zM1094 0v202h-1000v-202h1000z" />
    <glyph glyph-name="uniE000" unicode="&#xe000;" horiz-adv-x="0" 
d="M5 0h-238q-1 -68 0 -135h238q1 67 0 135zM233 0h-238q-1 -68 0 -135h238q1 67 0 135zM91 -215h-182v-143h182v143z" />
    <glyph glyph-name="uniE002" unicode="&#xe002;" horiz-adv-x="715" 
d="M-56 179.5q-15 -49.5 0 -99.5t56 -80h180q109 0 201 51.5t146 140t54 193.5v364h-245v-333q0 -65 -45.5 -110.5t-110.5 -45.5h-180q-41 -31 -56 -80.5z" />
    <glyph glyph-name="uniE003" unicode="&#xe003;" horiz-adv-x="792" 
d="M-56 179.5q-15 -49.5 0 -99.5t56 -80h180q92 0 162 40.5t117 113.5q47 -73 116.5 -113.5t161.5 -40.5h55v260h-55q-65 0 -110.5 45.5t-45.5 110.5v296h-245v-296q0 -65 -45.5 -110.5t-110.5 -45.5h-180q-41 -31 -56 -80.5z" />
    <glyph glyph-name="uniE006" unicode="&#xe006;" horiz-adv-x="1044" 
d="M-56 179.5q-15 -49.5 0 -99.5t56 -80h509q109 0 200.5 51.5t145.5 140t54 193.5v364h-244v-333q0 -65 -46 -110.5t-110 -45.5h-509q-41 -31 -56 -80.5z" />
    <glyph glyph-name="uniE007" unicode="&#xe007;" horiz-adv-x="1012" 
d="M-56 179.5q-15 -49.5 0 -99.5t56 -80h400q92 0 161.5 40.5t116.5 113.5q47 -73 117 -113.5t162 -40.5h55v260h-55q-65 0 -110.5 45.5t-45.5 110.5v296h-245v-296q0 -65 -45.5 -110.5t-110.5 -45.5h-400q-41 -31 -56 -80.5z" />
    <glyph glyph-name="uniE008" unicode="&#xe008;" horiz-adv-x="1347" 
d="M531 410q-207 -83 -311.5 -231t-96.5 -309q7 -142 74 -252.5t188 -172.5t285 -62h530v259h-530q-118 0 -191 48t-95 119q-32 109 22.5 205t212.5 168l634 296l10 264l-103 61t-223.5 127t-215.5 109q-101 46 -204 33t-187 -80t-130 -177l-26 -59l223 -100l27 60
q21 57 77.5 94t124.5 5q33 -16 113 -56q206 -102 287 -140z" />
    <glyph glyph-name="uniE009" unicode="&#xe009;" horiz-adv-x="1436" 
d="M1253 501l10 241l-103 61t-223.5 127t-215.5 109q-101 46 -204 33t-187 -80t-130 -177l-26 -59l223 -100l27 60q21 57 77.5 94t124.5 5q33 -16 113 -56q206 -102 287 -140l-495 -209q-207 -83 -311.5 -231t-96.5 -309q7 -142 74 -252.5t188 -172.5t285 -62h530v259h-530
q-118 0 -191 48t-95 119q-32 109 22.5 205t212.5 168l342 161l32 -153q21 -93 94 -141.5t170 -48.5h178v260h-171q-34 0 -63 14.5t-37 52.5l-25 109z" />
    <glyph glyph-name="uniE021" unicode="&#xe021;" horiz-adv-x="1745" 
d="M1394 51.5q92 51.5 145.5 140t53.5 193.5v1057h-244v-1026q0 -65 -45.5 -110.5t-110.5 -45.5h-658q-64 0 -110 45.5t-46 110.5v333h-244v-364q0 -105 53.5 -193.5t145.5 -140t201 -51.5h658q109 0 201 51.5z" />
    <glyph glyph-name="uniE022" unicode="&#xe022;" horiz-adv-x="1814" 
d="M1354.5 40.5q69.5 40.5 116.5 113.5q47 -73 117 -113.5t162 -40.5h63v260h-63q-65 0 -111 45.5t-46 110.5v1026h-244v-1026q0 -65 -45.5 -110.5t-110.5 -45.5h-658q-64 0 -110 45.5t-46 110.5v333h-244v-364q0 -105 53.5 -193.5t145.5 -140t201 -51.5h658
q92 0 161.5 40.5z" />
    <glyph glyph-name="uE024" unicode="&#xe024;" horiz-adv-x="867" 
d="M742.5 30q52.5 -30 110.5 -30h14v260h-14q-54 0 -101 28.5t-75 77t-28 106.5v240h-245v-649q0 -88 -43.5 -168t-118 -128.5t-161.5 -48.5h-89v-260h89q153 0 284 79.5t207.5 211.5t76.5 282v82q41 -53 93.5 -83zM652 -761l-171 4l-188 -215l-188 215l-171 -4l308 -359
h102z" />
    <glyph glyph-name="uE025" unicode="&#xe025;" horiz-adv-x="730" 
d="M-56 179.5q-15 -49.5 0 -99.5t56 -80h194q109 0 201 51.5t146 140t54 193.5v364h-245v-333q0 -65 -45.5 -110.5t-110.5 -45.5h-194q-41 -31 -56 -80.5zM355 1293q58 0 83.5 -36.5t25.5 -79.5q0 -33 -32.5 -55t-79.5 -22h-161q74 193 164 193zM51 1122q-2 -8 -4 -21
q0 -1 -1 -1h-56v-136h362q68 0 125 28t89.5 77t31.5 108q0 70 -30 127.5t-85.5 90.5t-127.5 33q-90 0 -168 -89v290h-136v-507z" />
    <glyph glyph-name="uE026" unicode="&#xe026;" horiz-adv-x="806" 
d="M-56 179.5q-15 -49.5 0 -99.5t56 -80h194q92 0 162 40.5t117 113.5q47 -73 116.5 -113.5t161.5 -40.5h55v260h-55q-65 0 -110.5 45.5t-45.5 110.5v296h-245v-296q0 -65 -45.5 -110.5t-110.5 -45.5h-194q-41 -31 -56 -80.5zM355 1293q58 0 83.5 -36.5t25.5 -79.5
q0 -33 -32.5 -55t-79.5 -22h-161q74 193 164 193zM51 1122q-2 -8 -4 -21q0 -1 -1 -1h-56v-136h362q68 0 125 28t89.5 77t31.5 108q0 70 -30 127.5t-85.5 90.5t-127.5 33q-90 0 -168 -89v290h-136v-507z" />
    <glyph glyph-name="uE027" unicode="&#xe027;" horiz-adv-x="1708" 
d="M1707 260h-956v-244h390q49 -1 73 -31.5t23 -75.5q-1 -89 -86.5 -140t-212.5 -51h-231q-108 0 -182 44.5t-110 119.5t-36 166v464h-244v-495q0 -153 69 -280.5t198.5 -203t304.5 -75.5h231q172 0 294 67t182.5 170t60.5 209q-1 58 -25 96h257v260zM616 1105l-171 4
l-188 -215l-188 215l-171 -4l308 -359h102z" />
    <glyph glyph-name="uE028" unicode="&#xe028;" horiz-adv-x="715" 
d="M-56 179.5q-15 -49.5 0 -99.5t56 -80h180q109 0 201 51.5t146 140t54 193.5v364h-245v-333q0 -65 -45.5 -110.5t-110.5 -45.5h-180q-41 -31 -56 -80.5zM144 -274h-302q-1 -105 0 -208h302v208zM432 -274h-302q-1 -105 0 -208h302q1 103 0 208zM768 1348l-171 4l-188 -215
l-188 215l-171 -4l308 -359h102z" />
    <glyph glyph-name="uE029" unicode="&#xe029;" horiz-adv-x="792" 
d="M-56 179.5q-15 -49.5 0 -99.5t56 -80h180q92 0 162 40.5t117 113.5q47 -73 116.5 -113.5t161.5 -40.5h55v260h-55q-65 0 -110.5 45.5t-45.5 110.5v296h-245v-296q0 -65 -45.5 -110.5t-110.5 -45.5h-180q-41 -31 -56 -80.5zM144 -274h-302q-1 -105 0 -208h302v208z
M432 -274h-302q-1 -105 0 -208h302q1 103 0 208zM768 1311l-171 4l-188 -215l-188 215l-171 -4l308 -359h102z" />
    <glyph glyph-name="uniFEEA0654" unicode="&#xe030;" horiz-adv-x="1207" 
d="M953.5 50q77.5 -50 172.5 -50h81v260h-83q-47 0 -83.5 31t-42.5 79l-108 733l-242 -34l16 -113q-175 -11 -302 -84t-189.5 -194.5t-51.5 -274.5q7 -112 73 -190.5t170.5 -110t226.5 -8.5t238 104q47 -98 124.5 -148zM746 393q-94 -65 -181 -76t-141.5 21t-59.5 84
q-9 137 80 212.5t255 77.5zM292 1206l463 177l-48 127l-151 -58q-58 -5 -93 21.5t-34 77.5q0 39 24.5 72t65.5 34q28 0 52 -8.5t55 -23.5q6 -3 9 -5l34 128q-41 23 -74.5 33.5t-75.5 10.5q-67 0 -118.5 -35t-79.5 -91t-28 -115q0 -51 24 -96t66 -69l-138 -53z" />
    <glyph glyph-name="uE060_uFBB5" unicode="&#xe032;" horiz-adv-x="841" 
d="M-56 179.5q-15 -49.5 0 -99.5t56 -80h305q110 0 201.5 51.5t145.5 140t54 193.5v364h-244v-333q0 -65 -46 -110.5t-111 -45.5h-305q-41 -31 -56 -80.5zM325 -274h-302q-1 -105 0 -208h302v208zM613 -274h-302q-1 -105 0 -208h302q1 103 0 208z" />
    <glyph glyph-name="uE061_uFBB5" unicode="&#xe033;" horiz-adv-x="917" 
d="M-56 179.5q-15 -49.5 0 -99.5t56 -80h305q92 0 162 40.5t117 113.5q47 -73 117 -113.5t161 -40.5h56v260h-56q-64 0 -110 45.5t-46 110.5v296h-244v-296q0 -65 -46 -110.5t-111 -45.5h-305q-41 -31 -56 -80.5zM325 -274h-302q-1 -105 0 -208h302v208zM613 -274h-302
q-1 -105 0 -208h302q1 103 0 208z" />
    <glyph glyph-name="uniE006_uFBB5" unicode="&#xe034;" horiz-adv-x="1044" 
d="M-56 179.5q-15 -49.5 0 -99.5t56 -80h509q109 0 200.5 51.5t145.5 140t54 193.5v364h-244v-333q0 -65 -46 -110.5t-110 -45.5h-509q-41 -31 -56 -80.5zM302 -274h-302q-1 -105 0 -208h302v208zM590 -274h-302q-1 -105 0 -208h302q1 103 0 208z" />
    <glyph glyph-name="uniE007_uFBB5" unicode="&#xe035;" horiz-adv-x="1012" 
d="M-56 179.5q-15 -49.5 0 -99.5t56 -80h400q92 0 161.5 40.5t116.5 113.5q47 -73 117 -113.5t162 -40.5h55v260h-55q-65 0 -110.5 45.5t-45.5 110.5v296h-245v-296q0 -65 -45.5 -110.5t-110.5 -45.5h-400q-41 -31 -56 -80.5zM302 -274h-302q-1 -105 0 -208h302v208z
M590 -274h-302q-1 -105 0 -208h302q1 103 0 208z" />
    <glyph glyph-name="uE060_uFBB9" unicode="&#xe036;" horiz-adv-x="841" 
d="M-56 179.5q-15 -49.5 0 -99.5t56 -80h305q110 0 201.5 51.5t145.5 140t54 193.5v364h-244v-333q0 -65 -46 -110.5t-111 -45.5h-305q-41 -31 -56 -80.5zM325 -231h-302q-1 -105 0 -208h302v208zM613 -231h-302q-1 -105 0 -208h302q1 103 0 208zM439 -551h-242v-208h242
v208z" />
    <glyph glyph-name="uE061_uFBB9" unicode="&#xe037;" horiz-adv-x="917" 
d="M-56 179.5q-15 -49.5 0 -99.5t56 -80h305q92 0 162 40.5t117 113.5q47 -73 117 -113.5t161 -40.5h56v260h-56q-64 0 -110 45.5t-46 110.5v296h-244v-296q0 -65 -46 -110.5t-111 -45.5h-305q-41 -31 -56 -80.5zM325 -231h-302q-1 -105 0 -208h302v208zM613 -231h-302
q-1 -105 0 -208h302q1 103 0 208zM439 -551h-242v-208h242v208z" />
    <glyph glyph-name="uniE006_uFBB9" unicode="&#xe038;" horiz-adv-x="1044" 
d="M-56 179.5q-15 -49.5 0 -99.5t56 -80h509q109 0 200.5 51.5t145.5 140t54 193.5v364h-244v-333q0 -65 -46 -110.5t-110 -45.5h-509q-41 -31 -56 -80.5zM302 -231h-302q-1 -105 0 -208h302v208zM590 -231h-302q-1 -105 0 -208h302q1 103 0 208zM416 -551h-242v-208h242
v208z" />
    <glyph glyph-name="uniE007_uFBB9" unicode="&#xe039;" horiz-adv-x="1012" 
d="M-56 179.5q-15 -49.5 0 -99.5t56 -80h400q92 0 161.5 40.5t116.5 113.5q47 -73 117 -113.5t162 -40.5h55v260h-55q-65 0 -110.5 45.5t-45.5 110.5v296h-245v-296q0 -65 -45.5 -110.5t-110.5 -45.5h-400q-41 -31 -56 -80.5zM302 -231h-302q-1 -105 0 -208h302v208z
M590 -231h-302q-1 -105 0 -208h302q1 103 0 208zM416 -551h-242v-208h242v208z" />
    <glyph glyph-name="uniE002_uFBB3" unicode="&#xe040;" horiz-adv-x="715" 
d="M-56 179.5q-15 -49.5 0 -99.5t56 -80h180q109 0 201 51.5t146 140t54 193.5v364h-245v-333q0 -65 -45.5 -110.5t-110.5 -45.5h-180q-41 -31 -56 -80.5zM305 -274h-250q-1 -106 0 -214h250q1 108 0 214z" />
    <glyph glyph-name="uniE003_uFBB3" unicode="&#xe041;" horiz-adv-x="792" 
d="M-56 179.5q-15 -49.5 0 -99.5t56 -80h180q92 0 162 40.5t117 113.5q47 -73 116.5 -113.5t161.5 -40.5h55v260h-55q-65 0 -110.5 45.5t-45.5 110.5v296h-245v-296q0 -65 -45.5 -110.5t-110.5 -45.5h-180q-41 -31 -56 -80.5zM305 -274h-250q-1 -106 0 -214h250q1 108 0 214
z" />
    <glyph glyph-name="uniFBE8FBB4" unicode="&#xe042;" horiz-adv-x="730" 
d="M-56 179.5q-15 -49.5 0 -99.5t56 -80h194q109 0 201 51.5t146 140t54 193.5v364h-245v-333q0 -65 -45.5 -110.5t-110.5 -45.5h-194q-41 -31 -56 -80.5zM335 1211h-302q-1 -103 0 -208h302v208zM623 1211h-302q-1 -103 0 -208h302q1 105 0 208z" />
    <glyph glyph-name="uniFBE9FBB4" unicode="&#xe043;" horiz-adv-x="806" 
d="M-56 179.5q-15 -49.5 0 -99.5t56 -80h194q92 0 162 40.5t117 113.5q47 -73 116.5 -113.5t161.5 -40.5h55v260h-55q-65 0 -110.5 45.5t-45.5 110.5v296h-245v-296q0 -65 -45.5 -110.5t-110.5 -45.5h-194q-41 -31 -56 -80.5zM335 1175h-302q-1 -103 0 -208h302v208z
M623 1175h-302q-1 -103 0 -208h302q1 105 0 208z" />
    <glyph glyph-name="uniFBE8FBB6" unicode="&#xe044;" horiz-adv-x="730" 
d="M-56 179.5q-15 -49.5 0 -99.5t56 -80h194q109 0 201 51.5t146 140t54 193.5v364h-245v-333q0 -65 -45.5 -110.5t-110.5 -45.5h-194q-41 -31 -56 -80.5zM335 1211h-302q-1 -103 0 -208h302v208zM623 1211h-302q-1 -103 0 -208h302q1 105 0 208zM449 1530h-242v-209h242
v209z" />
    <glyph glyph-name="uniFBE9FBB6" unicode="&#xe045;" horiz-adv-x="806" 
d="M-56 179.5q-15 -49.5 0 -99.5t56 -80h194q92 0 162 40.5t117 113.5q47 -73 116.5 -113.5t161.5 -40.5h55v260h-55q-65 0 -110.5 45.5t-45.5 110.5v296h-245v-296q0 -65 -45.5 -110.5t-110.5 -45.5h-194q-41 -31 -56 -80.5zM335 1175h-302q-1 -103 0 -208h302v208z
M623 1175h-302q-1 -103 0 -208h302q1 105 0 208zM449 1494h-242v-209h242v209z" />
    <glyph glyph-name="uE046" unicode="&#xe046;" horiz-adv-x="841" 
d="M-56 179.5q-15 -49.5 0 -99.5t56 -80h305q110 0 201.5 51.5t145.5 140t54 193.5v364h-244v-333q0 -65 -46 -110.5t-111 -45.5h-305q-41 -31 -56 -80.5zM325 -274h-302q-1 -105 0 -208h302v208zM613 -274h-302q-1 -105 0 -208h302q1 103 0 208zM843 1348l-171 4l-188 -215
l-188 215l-171 -4l308 -359h102z" />
    <glyph glyph-name="uE047" unicode="&#xe047;" horiz-adv-x="1044" 
d="M-56 179.5q-15 -49.5 0 -99.5t56 -80h509q109 0 200.5 51.5t145.5 140t54 193.5v364h-244v-333q0 -65 -46 -110.5t-110 -45.5h-509q-41 -31 -56 -80.5zM302 -274h-302q-1 -105 0 -208h302v208zM590 -274h-302q-1 -105 0 -208h302q1 103 0 208zM1046 1342l-171 4
l-188 -215l-188 215l-171 -4l308 -359h102z" />
    <glyph glyph-name="uniE054" unicode="&#xe054;" horiz-adv-x="0" 
d="M126 73q91 70 91 166v153h-259v50q0 41 27 68.5t69 27.5h152v128h-152q-59 0 -110.5 -30t-82.5 -81.5t-31 -112.5v-88q-1 -34 27 -61.5t61 -27.5h171v-26q0 -48 -73 -74.5t-233 -20.5v-136q252 -5 343 65z" />
    <glyph glyph-name="uE055" unicode="&#xe055;" horiz-adv-x="0" 
d="M20.5 1646.5q40.5 57.5 93.5 57.5q59 0 83.5 -36t24.5 -80q0 -32 -32 -54.5t-79 -22.5h-163q32 78 72.5 135.5zM-209 1608.5q-13 28.5 -13 57.5v68h-135v-68q0 -67 32.5 -135t87 -112t114.5 -44h234q68 0 124.5 28.5t89 77t32.5 107.5q0 70 -30.5 127.5t-85.5 91
t-127 33.5q-108 0 -178 -85.5t-113 -191.5q-19 17 -32 45.5z" />
    <glyph glyph-name="farsiyeharab.fina.1" unicode="&#xe056;" horiz-adv-x="1623" 
d="M1623 260h-872v-244h397q49 -1 73 -31.5t23 -75.5q-1 -89 -86.5 -140t-212.5 -51h-238q-108 0 -182 44.5t-110 119.5t-36 166v464h-244v-495q0 -153 69 -280.5t198.5 -203t304.5 -75.5h238q172 0 294 67t182.5 170t60.5 209q-1 58 -25 96h166v260z" />
    <glyph glyph-name="yeharab.fina.1" unicode="&#xe057;" horiz-adv-x="1622" 
d="M1623 260h-872v-244h397q49 -1 73 -31.5t23 -75.5q-1 -89 -86.5 -140t-212.5 -51h-238q-108 0 -182 44.5t-110 119.5t-36 166v464h-244v-495q0 -153 69 -280.5t198.5 -203t304.5 -75.5h238q172 0 294 67t182.5 170t60.5 209q-1 58 -25 96h166v260zM798 -743h-302
q-1 -105 0 -208h302v208zM1086 -743h-302q-1 -105 0 -208h302q1 103 0 208z" />
    <glyph glyph-name="farsiyeharab_u0654" unicode="&#xe058;" horiz-adv-x="1622" 
d="M1623 260h-872v-244h397q49 -1 73 -31.5t23 -75.5q-1 -89 -86.5 -140t-212.5 -51h-238q-108 0 -182 44.5t-110 119.5t-36 166v464h-244v-495q0 -153 69 -280.5t198.5 -203t304.5 -75.5h238q172 0 294 67t182.5 170t60.5 209q-1 58 -25 96h166v260zM141 740l463 177
l-48 127l-151 -58q-58 -5 -93 21.5t-34 77.5q0 39 24.5 72t65.5 34q28 0 52 -8.5t55 -23.5q6 -3 9 -5l34 128q-41 23 -74.5 33.5t-75.5 10.5q-67 0 -118.5 -35t-79.5 -91t-28 -115q0 -51 24 -96t66 -69l-138 -53z" />
    <glyph glyph-name="uE059" unicode="&#xe059;" horiz-adv-x="1012" 
d="M-56 179.5q-15 -49.5 0 -99.5t56 -80h400q92 0 161.5 40.5t116.5 113.5q47 -73 117 -113.5t162 -40.5h55v260h-55q-65 0 -110.5 45.5t-45.5 110.5v296h-245v-296q0 -65 -45.5 -110.5t-110.5 -45.5h-400q-41 -31 -56 -80.5zM302 -274h-302q-1 -105 0 -208h302v208z
M590 -274h-302q-1 -105 0 -208h302q1 103 0 208zM937 1311l-171 4l-188 -215l-188 215l-171 -4l308 -359h102z" />
    <glyph glyph-name="uE060" unicode="&#xe060;" horiz-adv-x="841" 
d="M-56 179.5q-15 -49.5 0 -99.5t56 -80h305q110 0 201.5 51.5t145.5 140t54 193.5v364h-244v-333q0 -65 -46 -110.5t-111 -45.5h-305q-41 -31 -56 -80.5z" />
    <glyph glyph-name="uE061" unicode="&#xe061;" horiz-adv-x="917" 
d="M-56 179.5q-15 -49.5 0 -99.5t56 -80h305q92 0 162 40.5t117 113.5q47 -73 117 -113.5t161 -40.5h56v260h-56q-64 0 -110 45.5t-46 110.5v296h-244v-296q0 -65 -46 -110.5t-111 -45.5h-305q-41 -31 -56 -80.5z" />
    <glyph glyph-name="uE062" unicode="&#xe062;" horiz-adv-x="917" 
d="M-56 179.5q-15 -49.5 0 -99.5t56 -80h305q92 0 162 40.5t117 113.5q47 -73 117 -113.5t161 -40.5h56v260h-56q-64 0 -110 45.5t-46 110.5v296h-244v-296q0 -65 -46 -110.5t-111 -45.5h-305q-41 -31 -56 -80.5zM325 -274h-302q-1 -105 0 -208h302v208zM613 -274h-302
q-1 -105 0 -208h302q1 103 0 208zM843 1311l-171 4l-188 -215l-188 215l-171 -4l308 -359h102z" />
    <glyph glyph-name="uE066" unicode="&#xe066;" horiz-adv-x="1473" 
d="M647 63l-251 916q-9 34 8 66.5t51 45.5q35 13 70.5 -3.5t48.5 -52.5l159 -436l220 -22l396 661l-209 125l-264 -440l-73 195q-31 85 -98.5 142t-154.5 74.5t-172 -11.5q-83 -28 -140.5 -92t-78.5 -148t2 -168l250 -915z" />
    <glyph glyph-name="uE067" unicode="&#xe067;" horiz-adv-x="1271" 
d="M640.5 15q191.5 7 373.5 68l116 38l-78 232l-116 -38q-295 -96 -548 -29q30 257 182.5 497.5t274.5 380.5l3 4l-181 164l-1 -2q-140 -157 -318 -442.5t-206 -603.5l138 -223q169 -53 360.5 -46z" />
    <glyph glyph-name="uniE069" unicode="&#xe069;" horiz-adv-x="651" 
d="M-56 179.5q-15 -49.5 0 -99.5t56 -80h47q92 0 162 40.5t117 113.5q47 -73 117 -113.5t161 -40.5h47v260h-47q-64 0 -110 45.5t-46 110.5v759h-244v-759q0 -65 -46 -110.5t-111 -45.5h-47q-41 -31 -56 -80.5z" />
    <glyph glyph-name="uE070" unicode="&#xe070;" horiz-adv-x="804" 
d="M-56 179.5q-15 -49.5 0 -99.5t56 -80h269q109 0 201 51.5t145.5 140t53.5 193.5v364h-244v-333q0 -65 -45.5 -110.5t-110.5 -45.5h-269q-41 -31 -56 -80.5zM63 -231h-302q-1 -105 0 -208h302v208zM351 -231h-302q-1 -105 0 -208h302q1 103 0 208zM177 -551h-242v-208h242
v208z" />
    <glyph glyph-name="uE071" unicode="&#xe071;" horiz-adv-x="881" 
d="M-56 179.5q-15 -49.5 0 -99.5t56 -80h269q91 0 161 40.5t117 113.5q47 -73 117 -113.5t162 -40.5h55v260h-55q-65 0 -111 45.5t-46 110.5v296h-244v-296q0 -65 -45.5 -110.5t-110.5 -45.5h-269q-41 -31 -56 -80.5zM63 -231h-302q-1 -105 0 -208h302v208zM351 -231h-302
q-1 -105 0 -208h302q1 103 0 208zM177 -551h-242v-208h242v208z" />
    <glyph glyph-name="uE072" unicode="&#xe072;" horiz-adv-x="804" 
d="M-56 179.5q-15 -49.5 0 -99.5t56 -80h269q109 0 201 51.5t145.5 140t53.5 193.5v364h-244v-333q0 -65 -45.5 -110.5t-110.5 -45.5h-269q-41 -31 -56 -80.5zM63 -274h-302q-1 -105 0 -208h302v208zM351 -274h-302q-1 -105 0 -208h302q1 103 0 208z" />
    <glyph glyph-name="uE073" unicode="&#xe073;" horiz-adv-x="881" 
d="M-56 179.5q-15 -49.5 0 -99.5t56 -80h269q91 0 161 40.5t117 113.5q47 -73 117 -113.5t162 -40.5h55v260h-55q-65 0 -111 45.5t-46 110.5v296h-244v-296q0 -65 -45.5 -110.5t-110.5 -45.5h-269q-41 -31 -56 -80.5zM63 -274h-302q-1 -105 0 -208h302v208zM351 -274h-302
q-1 -105 0 -208h302q1 103 0 208z" />
    <glyph glyph-name="uE074" unicode="&#xe074;" horiz-adv-x="804" 
d="M-56 179.5q-15 -49.5 0 -99.5t56 -80h269q109 0 201 51.5t145.5 140t53.5 193.5v364h-244v-333q0 -65 -45.5 -110.5t-110.5 -45.5h-269q-41 -31 -56 -80.5zM63 -274h-302q-1 -105 0 -208h302v208zM351 -274h-302q-1 -105 0 -208h302q1 103 0 208zM806 1377l-171 4
l-188 -215l-188 215l-171 -4l308 -359h102z" />
    <glyph glyph-name="uE075" unicode="&#xe075;" horiz-adv-x="881" 
d="M-56 179.5q-15 -49.5 0 -99.5t56 -80h269q91 0 161 40.5t117 113.5q47 -73 117 -113.5t162 -40.5h55v260h-55q-65 0 -111 45.5t-46 110.5v296h-244v-296q0 -65 -45.5 -110.5t-110.5 -45.5h-269q-41 -31 -56 -80.5zM63 -274h-302q-1 -105 0 -208h302v208zM351 -274h-302
q-1 -105 0 -208h302q1 103 0 208zM806 1342l-171 4l-188 -215l-188 215l-171 -4l308 -359h102z" />
    <glyph glyph-name="uE076" unicode="&#xe076;" horiz-adv-x="804" 
d="M-56 179.5q-15 -49.5 0 -99.5t56 -80h269q109 0 201 51.5t145.5 140t53.5 193.5v364h-244v-333q0 -65 -45.5 -110.5t-110.5 -45.5h-269q-41 -31 -56 -80.5z" />
    <glyph glyph-name="uE077" unicode="&#xe077;" horiz-adv-x="881" 
d="M-56 179.5q-15 -49.5 0 -99.5t56 -80h269q91 0 161 40.5t117 113.5q47 -73 117 -113.5t162 -40.5h55v260h-55q-65 0 -111 45.5t-46 110.5v296h-244v-296q0 -65 -45.5 -110.5t-110.5 -45.5h-269q-41 -31 -56 -80.5z" />
    <glyph glyph-name="uE078" unicode="&#xe078;" horiz-adv-x="1829" 
d="M1508.5 53.5q85.5 53.5 137 164.5t51.5 275q0 125 -57 223.5t-155 153.5t-215 55q-114 1 -212.5 -54.5t-157 -151t-57.5 -210.5q0 -71 32.5 -136.5t91.5 -112.5h-432q-64 0 -110 45.5t-46 110.5v322h-244v-353q0 -105 53.5 -193.5t145.5 -140t201 -51.5h786
q102 0 187.5 53.5zM1135.5 369.5q-47.5 63.5 -48.5 141.5q3 75 56 122t127 48q74 0 128.5 -47t54.5 -141q0 -74 -28 -148.5t-102 -83.5q-140 45 -187.5 108.5z" />
    <glyph glyph-name="uE079" unicode="&#xe079;" horiz-adv-x="1114" 
d="M428 369.5q-47 63.5 -47 141.5q2 75 55.5 122t126.5 48q75 0 129 -47t54 -141q0 -73 -28 -148t-103 -84q-140 45 -187 108.5zM-56 179.5q-15 -49.5 0 -99.5t56 -80h606q104 0 191 52.5t140 163.5t53 277q0 125 -57 223.5t-154.5 153.5t-215.5 55q-113 1 -211.5 -54.5
t-157 -151t-57.5 -210.5q0 -71 32 -136.5t91 -112.5h-260q-41 -31 -56 -80.5z" />
    <glyph glyph-name="uE080" unicode="&#xe080;" horiz-adv-x="882" 
d="M180 -542q154 0 284.5 79.5t207 213.5t76.5 288v673h-244v-649q0 -88 -44 -168t-118.5 -128.5t-161.5 -48.5h-180v-260h180z" />
    <glyph glyph-name="uE081" unicode="&#xe081;" horiz-adv-x="967" 
d="M180 -542q154 0 284.5 79.5t207 213.5t76.5 288v77q42 -55 96.5 -85.5t116.5 -30.5h5v260h-5q-58 0 -107 28.5t-77.5 77t-28.5 106.5v240h-244v-649q0 -88 -44 -168t-118.5 -128.5t-161.5 -48.5h-180v-260h180z" />
    <glyph glyph-name="uE082" unicode="&#xe082;" horiz-adv-x="882" 
d="M180 -542q154 0 284.5 79.5t207 213.5t76.5 288v673h-244v-649q0 -88 -44 -168t-118.5 -128.5t-161.5 -48.5h-180v-260h180zM751 1181h-250q-1 -106 0 -214h250q1 108 0 214z" />
    <glyph glyph-name="uE083" unicode="&#xe083;" horiz-adv-x="967" 
d="M180 -542q154 0 284.5 79.5t207 213.5t76.5 288v77q42 -55 96.5 -85.5t116.5 -30.5h5v260h-5q-58 0 -107 28.5t-77.5 77t-28.5 106.5v240h-244v-649q0 -88 -44 -168t-118.5 -128.5t-161.5 -48.5h-180v-260h180zM751 1181h-250q-1 -106 0 -214h250q1 108 0 214z" />
    <glyph glyph-name="uE084" unicode="&#xe084;" horiz-adv-x="882" 
d="M180 -542q154 0 284.5 79.5t207 213.5t76.5 288v673h-244v-649q0 -88 -44 -168t-118.5 -128.5t-161.5 -48.5h-180v-260h180zM633 1175h-302q-1 -103 0 -208h302v208zM921 1175h-302q-1 -103 0 -208h302q1 105 0 208zM747 1494h-242v-209h242v209z" />
    <glyph glyph-name="uE085" unicode="&#xe085;" horiz-adv-x="967" 
d="M180 -542q154 0 284.5 79.5t207 213.5t76.5 288v77q42 -55 96.5 -85.5t116.5 -30.5h5v260h-5q-58 0 -107 28.5t-77.5 77t-28.5 106.5v240h-244v-649q0 -88 -44 -168t-118.5 -128.5t-161.5 -48.5h-180v-260h180zM633 1175h-302q-1 -103 0 -208h302v208zM921 1175h-302
q-1 -103 0 -208h302q1 105 0 208zM747 1494h-242v-209h242v209z" />
    <glyph glyph-name="uE086" unicode="&#xe086;" horiz-adv-x="882" 
d="M180 -542q154 0 284.5 79.5t207 213.5t76.5 288v673h-244v-649q0 -88 -44 -168t-118.5 -128.5t-161.5 -48.5h-180v-260h180zM687 1296q58 0 83.5 -36.5t25.5 -79.5q0 -33 -32.5 -55t-79.5 -22h-161q74 193 164 193zM383 1125q-2 -8 -4 -21q0 -1 -1 -1h-56v-136h362
q68 0 125 28t89.5 77t31.5 108q0 70 -30 127.5t-85.5 90.5t-127.5 33q-90 0 -168 -89v290h-136v-507z" />
    <glyph glyph-name="uE087" unicode="&#xe087;" horiz-adv-x="967" 
d="M180 -542q154 0 284.5 79.5t207 213.5t76.5 288v77q42 -55 96.5 -85.5t116.5 -30.5h5v260h-5q-58 0 -107 28.5t-77.5 77t-28.5 106.5v240h-244v-649q0 -88 -44 -168t-118.5 -128.5t-161.5 -48.5h-180v-260h180zM687 1296q58 0 83.5 -36.5t25.5 -79.5q0 -33 -32.5 -55
t-79.5 -22h-161q74 193 164 193zM383 1125q-2 -8 -4 -21q0 -1 -1 -1h-56v-136h362q68 0 125 28t89.5 77t31.5 108q0 70 -30 127.5t-85.5 90.5t-127.5 33q-90 0 -168 -89v290h-136v-507z" />
    <glyph glyph-name="uE088" unicode="&#xe088;" horiz-adv-x="882" 
d="M180 -542q154 0 284.5 79.5t207 213.5t76.5 288v673h-244v-649q0 -88 -44 -168t-118.5 -128.5t-161.5 -48.5h-180v-260h180zM736 -761l-171 4l-188 -215l-188 215l-171 -4l308 -359h102z" />
    <glyph glyph-name="uE089" unicode="&#xe089;" horiz-adv-x="967" 
d="M180 -542q154 0 284.5 79.5t207 213.5t76.5 288v77q42 -55 96.5 -85.5t116.5 -30.5h5v260h-5q-58 0 -107 28.5t-77.5 77t-28.5 106.5v240h-244v-649q0 -88 -44 -168t-118.5 -128.5t-161.5 -48.5h-180v-260h180zM736 -761l-171 4l-188 -215l-188 215l-171 -4l308 -359h102
z" />
    <glyph glyph-name="uE090" unicode="&#xe090;" horiz-adv-x="1609" 
d="M811 -542q175 0 308 77.5t205 208t73 283.5v53q69 -80 157 -80h55v260h-55q-65 0 -111 45.5t-46 110.5v1026h-244v-1379q0 -93 -39 -171.5t-116 -126t-187 -47.5h-90q-110 0 -187 47.5t-116 126t-39 171.5v435h-244v-467q0 -154 71.5 -285.5t205 -209.5t309.5 -78h90z
M1633 2055l-171 4l-188 -215l-188 215l-171 -4l308 -359h102z" />
    <glyph glyph-name="uE091" unicode="&#xe091;" horiz-adv-x="671" 
d="M-56 179.5q-15 -49.5 0 -99.5t56 -80h108q109 0 201 54t146 146t54 201v1041h-245v-1026q0 -65 -45.5 -110.5t-110.5 -45.5h-108q-41 -31 -56 -80.5zM746 2055l-171 4l-188 -215l-188 215l-171 -4l308 -359h102z" />
    <glyph glyph-name="uE092" unicode="&#xe092;" horiz-adv-x="721" 
d="M-56 179.5q-15 -49.5 0 -99.5t56 -80h108q92 0 161.5 40.5t116.5 113.5q47 -73 117 -113.5t162 -40.5h55v260h-55q-65 0 -110.5 45.5t-45.5 110.5v1026h-245v-1026q0 -65 -45.5 -110.5t-110.5 -45.5h-108q-41 -31 -56 -80.5zM746 2055l-171 4l-188 -215l-188 215l-171 -4
l308 -359h102z" />
    <glyph glyph-name="uniE094" unicode="&#xe094;" horiz-adv-x="0" 
d="M137 268q-62 33 -165 15v31q-1 37 23 65.5t61 34.5l125 18l-25 178l-75 -13q-81 -13 -147 -60.5t-103.5 -115.5t-36.5 -140v-118q0 -71 56 -119.5t143 -48.5q57 0 104.5 21.5t74.5 59.5t27 84q0 75 -62 108z" />
    <glyph glyph-name="uE098" unicode="&#xe098;" horiz-adv-x="2158" 
d="M1700.5 34q72.5 34 123.5 93q50 -59 122.5 -93t155.5 -34h55v260h-55q-66 0 -111 39t-45 102q0 109 -54 201t-146 146t-201 54h-466l415 507l-189 155l-578 -707l94 -200h724q65 0 111 -46t46 -110q0 -63 -45 -102t-112 -39h-1003q-66 0 -111 39t-45 102v317h-244v-302
q0 -113 53.5 -208.5t145.5 -151.5t201 -56h1003q83 0 155.5 34z" />
    <glyph glyph-name="uE099" unicode="&#xe099;" horiz-adv-x="1520" 
d="M-56 179.5q-15 -49.5 0 -99.5t56 -80h978q108 0 200 54t146 146t54 201q0 108 -54 200.5t-146 146.5t-200 54h-466l414 507l-188 155l-579 -707l94 -200h725q64 0 110 -46t46 -110q0 -63 -45 -102t-111 -39h-978q-41 -31 -56 -80.5z" />
    <glyph glyph-name="uE0A0" unicode="&#xe0a0;" horiz-adv-x="1590" 
d="M-56 179.5q-15 -49.5 0 -99.5t56 -80h978q82 0 155 34t123 93q50 -59 123 -93t156 -34h55v260h-55q-67 0 -112 38.5t-45 102.5q0 108 -54 200.5t-146 146.5t-200 54h-466l414 507l-188 155l-579 -707l94 -200h725q64 0 110 -46t46 -110q0 -63 -45 -102t-111 -39h-978
q-41 -31 -56 -80.5z" />
    <glyph glyph-name="uE100" unicode="&#xe100;" horiz-adv-x="1829" 
d="M1508.5 53.5q85.5 53.5 137 164.5t51.5 275q0 125 -57 223.5t-155 153.5t-215 55q-114 1 -212.5 -54.5t-157 -151t-57.5 -210.5q0 -71 32.5 -136.5t91.5 -112.5h-432q-64 0 -110 45.5t-46 110.5v322h-244v-353q0 -105 53.5 -193.5t145.5 -140t201 -51.5h786
q102 0 187.5 53.5zM1135.5 369.5q-47.5 63.5 -48.5 141.5q3 75 56 122t127 48q74 0 128.5 -47t54.5 -141q0 -74 -28 -148.5t-102 -83.5q-140 45 -187.5 108.5zM1395 1348h-250q-1 -106 0 -214h250q1 108 0 214z" />
    <glyph glyph-name="uE101" unicode="&#xe101;" horiz-adv-x="1114" 
d="M428 369.5q-47 63.5 -47 141.5q2 75 55.5 122t126.5 48q75 0 129 -47t54 -141q0 -73 -28 -148t-103 -84q-140 45 -187 108.5zM-56 179.5q-15 -49.5 0 -99.5t56 -80h606q104 0 191 52.5t140 163.5t53 277q0 125 -57 223.5t-154.5 153.5t-215.5 55q-113 1 -211.5 -54.5
t-157 -151t-57.5 -210.5q0 -71 32 -136.5t91 -112.5h-260q-41 -31 -56 -80.5zM688 1348h-250q-1 -106 0 -214h250q1 108 0 214z" />
    <glyph glyph-name="uE102" unicode="&#xe102;" horiz-adv-x="1114" 
d="M428 369.5q-47 63.5 -47 141.5q2 75 55.5 122t126.5 48q75 0 129 -47t54 -141q0 -73 -28 -148t-103 -84q-140 45 -187 108.5zM-56 179.5q-15 -49.5 0 -99.5t56 -80h606q104 0 191 52.5t140 163.5t53 277q0 125 -57 223.5t-154.5 153.5t-215.5 55q-113 1 -211.5 -54.5
t-157 -151t-57.5 -210.5q0 -71 32 -136.5t91 -112.5h-260q-41 -31 -56 -80.5zM570 1342h-302q-1 -103 0 -208h302v208zM858 1342h-302q-1 -103 0 -208h302q1 105 0 208z" />
    <glyph glyph-name="uE103" unicode="&#xe103;" horiz-adv-x="1829" 
d="M1508.5 53.5q85.5 53.5 137 164.5t51.5 275q0 125 -57 223.5t-155 153.5t-215 55q-114 1 -212.5 -54.5t-157 -151t-57.5 -210.5q0 -71 32.5 -136.5t91.5 -112.5h-432q-64 0 -110 45.5t-46 110.5v322h-244v-353q0 -105 53.5 -193.5t145.5 -140t201 -51.5h786
q102 0 187.5 53.5zM1135.5 369.5q-47.5 63.5 -48.5 141.5q3 75 56 122t127 48q74 0 128.5 -47t54.5 -141q0 -74 -28 -148.5t-102 -83.5q-140 45 -187.5 108.5zM1280 1342h-302q-1 -103 0 -208h302v208zM1568 1342h-302q-1 -103 0 -208h302q1 105 0 208zM1394 1661h-242v-209
h242v209z" />
    <glyph glyph-name="uE104" unicode="&#xe104;" horiz-adv-x="1114" 
d="M428 369.5q-47 63.5 -47 141.5q2 75 55.5 122t126.5 48q75 0 129 -47t54 -141q0 -73 -28 -148t-103 -84q-140 45 -187 108.5zM-56 179.5q-15 -49.5 0 -99.5t56 -80h606q104 0 191 52.5t140 163.5t53 277q0 125 -57 223.5t-154.5 153.5t-215.5 55q-113 1 -211.5 -54.5
t-157 -151t-57.5 -210.5q0 -71 32 -136.5t91 -112.5h-260q-41 -31 -56 -80.5zM570 1342h-302q-1 -103 0 -208h302v208zM858 1342h-302q-1 -103 0 -208h302q1 105 0 208zM684 1661h-242v-209h242v209z" />
    <glyph glyph-name="uE105" unicode="&#xe105;" horiz-adv-x="0" 
d="M113 -7q-113 -1 -226 0q-1 -96 0 -194h226q1 98 0 194z" />
    <glyph glyph-name="uE106" unicode="&#xe106;" horiz-adv-x="1623" 
d="M1623 260h-872v-244h397q49 -1 73 -31.5t23 -75.5q-1 -89 -86.5 -140t-212.5 -51h-238q-108 0 -182 44.5t-110 119.5t-36 166v464h-244v-495q0 -153 69 -280.5t198.5 -203t304.5 -75.5h238q172 0 294 67t182.5 170t60.5 209q-1 58 -25 96h166v260zM616 1137l-171 4
l-188 -215l-188 215l-171 -4l308 -359h102z" />
    <glyph glyph-name="uE107" unicode="&#xe107;" horiz-adv-x="1688" 
d="M1350 809.5q96 -58.5 150 -163t54 -239.5v-391q0 -152 -76 -280t-202.5 -203t-270.5 -75h-284q-176 0 -309.5 78.5t-205 210t-71.5 284.5v482h244v-450q0 -92 39 -170.5t116 -126.5t187 -48h284q135 0 217.5 76.5t83.5 205.5h-176q-216 0 -319.5 107t-103.5 300
q0 132 54.5 237.5t151 164.5t217.5 59q124 0 220 -58.5zM1309 407q0 85 -41 151t-138 66q-63 0 -103 -34t-57.5 -84t-17.5 -99q0 -73 39.5 -110t138.5 -37h179v147zM1140 1285h-302q-1 -103 0 -208h302v208zM1428 1285h-302q-1 -103 0 -208h302q1 105 0 208z" />
    <glyph glyph-name="uE108" unicode="&#xe108;" horiz-adv-x="0" 
d="M5 0h-208q-1 -69 0 -128h208q1 59 0 128zM203 0h-208q-1 -69 0 -128h208q1 59 0 128zM91 -193h-182v-143h182v143z" />
    <glyph glyph-name="uE109" unicode="&#xe109;" horiz-adv-x="1254" 
d="M420 408v865h-244v-865h244zM176 260v-260h501q109 0 201 54t146 146t54 201v1041h-245v-1026q0 -65 -45.5 -110.5t-110.5 -45.5h-501zM287.5 1760.5q40.5 57.5 93.5 57.5q59 0 83.5 -36t24.5 -80q0 -32 -32 -54.5t-79 -22.5h-163q32 78 72.5 135.5zM58 1722.5
q-13 28.5 -13 57.5v68h-135v-68q0 -67 32.5 -135t87 -112t114.5 -44h234q68 0 124.5 28.5t89 77t32.5 107.5q0 70 -30.5 127.5t-85.5 91t-127 33.5q-108 0 -178 -85.5t-113 -191.5q-19 17 -32 45.5z" />
    <glyph glyph-name="uE110" unicode="&#xe110;" horiz-adv-x="1290" 
d="M1289 260h-55q-65 0 -110.5 45.5t-45.5 110.5v1026h-245v-1026q0 -65 -45.5 -110.5t-110.5 -45.5h-501v-260h501q92 0 162 40.5t117 113.5q46 -73 116.5 -113.5t161.5 -40.5h55v260zM420 408v865h-244v-865h244zM287.5 1760.5q40.5 57.5 93.5 57.5q59 0 83.5 -36
t24.5 -80q0 -32 -32 -54.5t-79 -22.5h-163q32 78 72.5 135.5zM58 1722.5q-13 28.5 -13 57.5v68h-135v-68q0 -67 32.5 -135t87 -112t114.5 -44h234q68 0 124.5 28.5t89 77t32.5 107.5q0 70 -30.5 127.5t-85.5 91t-127 33.5q-108 0 -178 -85.5t-113 -191.5q-19 17 -32 45.5z
" />
    <glyph glyph-name="uE111" unicode="&#xe111;" horiz-adv-x="1254" 
d="M420 408v865h-244v-865h244zM176 260v-260h501q109 0 201 54t146 146t54 201v1041h-245v-1026q0 -65 -45.5 -110.5t-110.5 -45.5h-501zM66 1436l532 212l-50 125l-532 -210zM-40 1733l532 212l-50 125l-532 -210z" />
    <glyph glyph-name="uE112" unicode="&#xe112;" horiz-adv-x="1289" 
d="M1289 260h-55q-65 0 -110.5 45.5t-45.5 110.5v1026h-245v-1026q0 -65 -45.5 -110.5t-110.5 -45.5h-501v-260h501q92 0 162 40.5t117 113.5q46 -73 116.5 -113.5t161.5 -40.5h55v260zM420 408v865h-244v-865h244zM66 1436l532 212l-50 125l-532 -210zM-40 1733l532 212
l-50 125l-532 -210z" />
    <glyph glyph-name="uE113" unicode="&#xe113;" horiz-adv-x="1253" 
d="M420 408v865h-244v-865h244zM176 260v-260h501q109 0 201 54t146 146t54 201v1041h-245v-1026q0 -65 -45.5 -110.5t-110.5 -45.5h-501zM1315 2055l-171 4l-188 -215l-188 215l-172 -4l309 -359h102z" />
    <glyph glyph-name="uE114" unicode="&#xe114;" horiz-adv-x="1289" 
d="M1289 260h-55q-65 0 -110.5 45.5t-45.5 110.5v1026h-245v-1026q0 -65 -45.5 -110.5t-110.5 -45.5h-501v-260h501q92 0 162 40.5t117 113.5q46 -73 116.5 -113.5t161.5 -40.5h55v260zM420 408v865h-244v-865h244zM1315 2055l-171 4l-188 -215l-188 215l-172 -4l309 -359
h102z" />
    <glyph glyph-name="uE124" unicode="&#xe124;" horiz-adv-x="1254" 
d="M420 408v865h-244v-865h244zM176 260v-260h501q109 0 201 54t146 146t54 201v1041h-245v-1026q0 -65 -45.5 -110.5t-110.5 -45.5h-501zM295.5 1760.5q40.5 57.5 93.5 57.5q59 0 83.5 -36t24.5 -80q0 -32 -32 -54.5t-79 -22.5h-163q32 78 72.5 135.5zM66 1722.5
q-13 28.5 -13 57.5v68h-135v-68q0 -67 32.5 -135t87 -112t114.5 -44h234q68 0 124.5 28.5t89 77t32.5 107.5q0 70 -30.5 127.5t-85.5 91t-127 33.5q-108 0 -178 -85.5t-113 -191.5q-19 17 -32 45.5zM1315 2055l-171 4l-188 -215l-188 215l-171 -4l308 -359h102z" />
    <glyph glyph-name="uE125" unicode="&#xe125;" horiz-adv-x="1290" 
d="M1289 260h-55q-65 0 -110.5 45.5t-45.5 110.5v1026h-245v-1026q0 -65 -45.5 -110.5t-110.5 -45.5h-501v-260h501q92 0 162 40.5t117 113.5q46 -73 116.5 -113.5t161.5 -40.5h55v260zM420 408v865h-244v-865h244zM295.5 1760.5q40.5 57.5 93.5 57.5q59 0 83.5 -36
t24.5 -80q0 -32 -32 -54.5t-79 -22.5h-163q32 78 72.5 135.5zM66 1722.5q-13 28.5 -13 57.5v68h-135v-68q0 -67 32.5 -135t87 -112t114.5 -44h234q68 0 124.5 28.5t89 77t32.5 107.5q0 70 -30.5 127.5t-85.5 91t-127 33.5q-108 0 -178 -85.5t-113 -191.5q-19 17 -32 45.5z
M1315 2055l-171 4l-188 -215l-188 215l-171 -4l308 -359h102z" />
    <glyph glyph-name="uE126" unicode="&#xe126;" horiz-adv-x="1254" 
d="M420 408v865h-244v-865h244zM176 260v-260h501q109 0 201 54t146 146t54 201v1041h-245v-1026q0 -65 -45.5 -110.5t-110.5 -45.5h-501zM73 1436l532 212l-50 125l-532 -210zM-33 1733l532 212l-50 125l-532 -210zM1315 2055l-171 4l-188 -215l-188 215l-171 -4l308 -359
h102z" />
    <glyph glyph-name="uniE127" unicode="&#xe127;" horiz-adv-x="0" 
d="M289 1590l-51 133l-589 -217l1 -148z" />
    <glyph glyph-name="uE128" unicode="&#xe128;" horiz-adv-x="1289" 
d="M1289 260h-55q-65 0 -110.5 45.5t-45.5 110.5v1026h-245v-1026q0 -65 -45.5 -110.5t-110.5 -45.5h-501v-260h501q92 0 162 40.5t117 113.5q46 -73 116.5 -113.5t161.5 -40.5h55v260zM420 408v865h-244v-865h244zM73 1436l532 212l-50 125l-532 -210zM-33 1733l532 212
l-50 125l-532 -210zM1315 2055l-171 4l-188 -215l-188 215l-171 -4l308 -359h102z" />
    <glyph glyph-name="uE130" unicode="&#xe130;" horiz-adv-x="0" 
d="M-106 -202h212v202h-212v-202z" />
    <glyph glyph-name="uE1A0" unicode="&#xe1a0;" 
d="M1236.5 164.5q158.5 186.5 158.5 534.5q0 377 -152.5 566.5t-492.5 188.5q-230 0 -372 -86t-207.5 -253t-65.5 -416q0 -348 158.5 -534.5t486.5 -186.5t486.5 186.5zM488.5 354.5q-82.5 123.5 -82.5 344.5q0 124 17 216.5t57.5 156t107.5 96.5t162 33t162 -33
t107.5 -96.5t57.5 -156t17 -216.5q0 -221 -82.5 -344.5t-261.5 -123.5t-261.5 123.5z" />
    <glyph glyph-name="uE1A1" unicode="&#xe1a1;" 
d="M1014 0v1454l-528 -78v-249l232 39v-1166h296z" />
    <glyph glyph-name="uE1A2" unicode="&#xe1a2;" 
d="M1236 0v229h-581q29 69 82 128.5t138 135.5q17 16 40 33q22 19 33 32q138 119 206.5 224.5t68.5 251.5q0 198 -127.5 309t-371.5 111q-112 0 -222 -19t-188 -53v-249q170 68 344 68q131 0 198 -58t67 -156q0 -90 -53.5 -167.5t-164.5 -173.5q-35 -32 -69 -63
q-135 -117 -226.5 -218.5t-145.5 -220.5v-144h972z" />
    <glyph glyph-name="uE1A3" unicode="&#xe1a3;" 
d="M1095 86q153 108 153 320q0 126 -60.5 205.5t-166.5 113.5q96 43 147 133.5t51 199.5q0 178 -138.5 287t-398.5 109q-108 0 -219.5 -20t-186.5 -50v-229q171 72 355 72q148 0 218 -50t70 -145q0 -102 -62 -156t-190 -54h-186l-22 -196h224q128 0 196.5 -50t68.5 -150
q0 -114 -78 -167.5t-236 -53.5q-98 0 -196 17.5t-186 54.5v-230q73 -27 200.5 -48t225.5 -21q264 0 417 108z" />
    <glyph glyph-name="uE1A4" unicode="&#xe1a4;" 
d="M1175 0v301h141v240h-141v891h-258l-733 -927v-204h695v-301h296zM929 1106v-576h-462z" />
    <glyph glyph-name="uE1A5" unicode="&#xe1a5;" 
d="M1097.5 101q143.5 123 143.5 340q0 229 -126 335t-370 103h-218l21 324h574l22 229h-848l-37 -609v-145h418q147 0 205.5 -53.5t58.5 -173.5q0 -118 -76 -181t-228 -63q-88 0 -191.5 19.5t-180.5 50.5v-231q76 -32 194.5 -50t220.5 -18q274 0 417.5 123z" />
    <glyph glyph-name="uE1A6" unicode="&#xe1a6;" 
d="M1170 108q138 130 138 356q0 230 -121.5 347.5t-372.5 117.5q-86 0 -179.5 -26.5t-165.5 -75.5v81q0 140 98 234t274 94q195 0 330 -55v220q-73 29 -160 41t-200 12q-285 0 -452 -168.5t-167 -437.5v-307q0 -285 140 -424t421 -139q279 0 417 130zM539.5 258.5
q-70.5 71.5 -70.5 222.5v144q64 43 140.5 69t148.5 26q153 0 219 -67.5t66 -198.5q0 -125 -73.5 -196t-215.5 -71q-144 0 -214.5 71.5z" />
    <glyph glyph-name="uE1A7" unicode="&#xe1a7;" 
d="M713 0l529 1251v181h-984v-229h657l-508 -1203h306z" />
    <glyph glyph-name="uE1A8" unicode="&#xe1a8;" 
d="M1185 83.5q144 105.5 144 313.5q0 120 -59.5 202.5t-181.5 125.5q104 44 153.5 127t49.5 185q0 130 -56.5 223t-176.5 143.5t-309 50.5q-273 0 -406.5 -110t-133.5 -307q0 -96 48 -175t147 -120q-111 -40 -172 -133t-61 -212q0 -208 145 -313.5t433 -105.5
q292 0 436 105.5zM660 834q-170 33 -170 197q0 104 66 159t193 55q129 0 195 -55.5t66 -158.5q0 -92 -48 -145.5t-154 -80.5zM452 411q0 103 55 158t157 77l172 -35q114 -23 163 -70t49 -138q0 -107 -74.5 -161.5t-224.5 -54.5q-297 0 -297 224z" />
    <glyph glyph-name="uE1A9" unicode="&#xe1a9;" 
d="M1146.5 150q161.5 172 161.5 434v307q0 290 -133.5 426.5t-421.5 136.5q-276 0 -418 -131t-143 -361q0 -230 123.5 -347t373.5 -117q184 0 342 102v-78q0 -140 -93.5 -233t-272.5 -93q-204 0 -334 52v-221q75 -25 163 -37t200 -12q291 0 452.5 172zM529.5 769.5
q-71.5 63.5 -72.5 202.5q0 128 75.5 200.5t219.5 72.5q146 0 212.5 -71.5t66.5 -222.5v-149q-63 -45 -135 -70.5t-151 -25.5q-144 0 -215.5 63.5z" />
    <glyph glyph-name="uE1B0" unicode="&#xe1b0;" 
d="M404.5 311.5q53.5 -91.5 145 -145t200.5 -53.5t200.5 53.5t145 145t53.5 200.5q0 108 -53.5 199.5t-145 145t-200.5 53.5t-200.5 -53.5t-145 -144.5t-53.5 -200t53.5 -200.5zM633.5 629q49.5 49 121.5 49q65 0 113 -49t48 -117q0 -69 -48.5 -118t-117.5 -49
q-68 0 -117 49t-49 118q0 68 49.5 117z" />
    <glyph glyph-name="uE1B1" unicode="&#xe1b1;" 
d="M919 648q0 121 -15.5 290t-44.5 293l-28 124l-250 -58l30 -124q25 -107 38.5 -255.5t13.5 -269.5v-648h256v648z" />
    <glyph glyph-name="uE1B2" unicode="&#xe1b2;" 
d="M602 1231l-28 124l-250 -58l29 -124q26 -107 39.5 -255.5t13.5 -269.5v-648h256v591q-1 36 -2 63q21 -29 63.5 -42t100.5 -5q156 21 250 119t101 246q3 81 -5.5 147t-35.5 205q-4 23 -6 35l-251 -49q3 -17 9 -48q22 -116 29 -168t5 -114q-5 -103 -129 -120
q-56 -7 -92.5 16.5t-51.5 62.5q-16 171 -45 292z" />
    <glyph glyph-name="uE1B3" unicode="&#xe1b3;" 
d="M1323.5 730q95.5 98 102.5 246q3 79 -5 144.5t-34 199.5q-5 27 -8 42l-252 -47q3 -18 10 -49q23 -121 29.5 -171t4.5 -111q-7 -102 -132 -120q-38 -5 -70 8.5t-62 49.5q9 24 9 50q3 81 -5.5 147t-35.5 205q-4 23 -6 35l-251 -49q3 -17 9 -48q22 -115 29 -167.5t5 -114.5
q-5 -103 -128 -120q-56 -7 -89 16t-48 63q-16 170 -45 292l-29 124l-249 -58l29 -124q25 -107 39 -255.5t14 -269.5v-648h255v600q0 23 -1 50q21 -26 62 -38.5t94 -4.5q131 16 218 94q55 -46 133 -73.5t155 -16.5q157 21 252.5 119z" />
    <glyph glyph-name="uE1B4" unicode="&#xe1b4;" 
d="M441 1231l-29 124l-249 -58l29 -124q26 -107 39.5 -261t13.5 -264v-648h255v612q0 27 -1 57q133 -134 513 -134q92 0 165.5 22.5t159.5 69.5l-47 241q-97 -41 -161 -59.5t-115 -17.5q-72 1 -121 35.5t-47 122.5q2 74 45.5 120.5t118.5 50.5q28 1 66 -7.5t117 -34.5
l61 236q-51 25 -117 43.5t-113 19.5q-114 3 -209.5 -51t-151.5 -152.5t-58 -224.5q0 -64 44 -102q-66 20 -109 69.5t-63 96.5q-15 127 -36 218z" />
    <glyph glyph-name="uE1B5" unicode="&#xe1b5;" 
d="M661 1402q37 -31 113 -91q155 -124 250 -209t177.5 -188.5t130.5 -228t48 -271.5q0 -113 -53.5 -210t-144.5 -154.5t-196 -57.5q-167 0 -241 114q-41 -56 -101 -85t-146 -29q-107 0 -193.5 56t-135.5 152.5t-49 213.5q0 208 133 393.5t339 321.5q-3 2 -9 7q-52 42 -79 64
zM1049.5 269.5q32.5 21.5 54 59.5t21.5 85q0 112 -41 205.5t-115 175.5t-191 181q-178 -130 -290.5 -273.5t-112.5 -288.5q0 -78 37 -122t86 -44q64 0 105.5 33t41.5 114v142h225v-95q0 -42 -6 -84q35 -110 122 -110q31 0 63.5 21.5z" />
    <glyph glyph-name="uE1B6" unicode="&#xe1b6;" 
d="M874 805.5q-85 -23.5 -151 -22.5q-71 1 -121 39t-48 126q2 74 46 121t118 51q32 1 85 -8.5t123 -33.5l60 236q-48 23 -126.5 42.5t-127.5 20.5q-114 3 -209 -51t-151.5 -152.5t-58.5 -225.5q-1 -123 49.5 -208.5t133 -128.5t176.5 -44q32 0 66 15q-180 -221 -311 -497
l224 -106q117 247 242.5 409.5t293.5 304.5l-161 188q-67 -52 -152 -75.5z" />
    <glyph glyph-name="uE1B7" unicode="&#xe1b7;" 
d="M1013 547.5q-125 -358.5 -134 -548.5h-260q-8 191 -132 548.5t-313 702.5l211 134q124 -216 211 -437t154 -548q46 226 103 402t119 309.5t143 273.5l211 -134q-188 -344 -313 -702.5z" />
    <glyph glyph-name="uE1B8" unicode="&#xe1b8;" 
d="M1013 809q-125 359 -134 548l-260 1q-8 -191 -132 -549.5t-313 -701.5l211 -135q80 140 142 273.5t118 304t105 407.5q49 -237 104.5 -407.5t118 -304t142.5 -273.5l211 135q-188 343 -313 702z" />
    <glyph glyph-name="uE1B9" unicode="&#xe1b9;" 
d="M929 823q-35 -25 -75.5 -35.5t-98.5 -17.5q-6 0 -9 -1q-71 -8 -121.5 37.5t-53.5 127.5q0 48 25 90t66.5 67t89.5 25q54 0 94.5 -32.5t61.5 -83t21 -101.5v-76zM929 0h256v899q0 119 -53 228t-152 177t-228 68q-116 0 -216.5 -60t-160 -160.5t-60.5 -216.5
q0 -127 64 -229.5t171.5 -154.5t229.5 -37q4 1 12 2q41 6 72.5 14t64.5 25v-555z" />
    <glyph glyph-name="uE1C0" unicode="&#xe1c0;" 
d="M750 282l226 226l-226 226l-226 -226z" />
    <glyph glyph-name="uE1C1" unicode="&#xe1c1;" 
d="M919 648q0 121 -15.5 290t-44.5 293l-29 124l-249 -58l29 -124q26 -107 39.5 -255.5t13.5 -269.5v-648h256v648z" />
    <glyph glyph-name="uE1C2" unicode="&#xe1c2;" 
d="M602 1231l-29 124l-249 -58l29 -124q26 -107 39.5 -255.5t13.5 -269.5v-648h256v591q-1 36 -2 63q21 -29 63.5 -42t100.5 -5q156 21 250 119t101 246q3 81 -5.5 147t-35.5 205q-4 23 -6 35l-251 -49q3 -17 9 -48q22 -116 29 -168t5 -114q-5 -103 -129 -120
q-56 -7 -92.5 16.5t-51.5 62.5q-16 171 -45 292z" />
    <glyph glyph-name="uE1C3" unicode="&#xe1c3;" 
d="M1324 730q96 98 103 246q3 79 -5.5 144.5t-34.5 199.5q-5 27 -8 42l-252 -47q4 -18 10 -49q23 -121 29.5 -171t4.5 -111q-7 -102 -132 -120q-38 -5 -70 8.5t-62 49.5q9 24 9 50q3 81 -5.5 147t-35.5 205q-4 23 -6 35l-251 -49q3 -17 9 -48q22 -115 29 -167.5t5 -114.5
q-5 -103 -128 -120q-56 -7 -89 16t-48 63q-16 170 -45 292l-29 124l-249 -58l29 -124q26 -107 39.5 -255.5t13.5 -269.5v-648h256v600q0 23 -2 50q21 -26 62 -38.5t94 -4.5q131 16 219 94q54 -46 132 -73.5t155 -16.5q157 21 253 119z" />
    <glyph glyph-name="uE1C4" unicode="&#xe1c4;" 
d="M512.5 731.5q89.5 -87.5 282.5 -61.5q13 0 31.5 -12t50.5 -36q36 -27 57.5 -40t36.5 -10l130 26l-48 240l-131 -26q-71 -14 -124 -4t-80 37q-36 34 -23 96q16 80 62 125.5t98 62t93 16.5q25 0 65 -6t70 -13l10 245q-58 19 -145 19q-106 0 -209 -43t-180 -132.5
t-104 -222.5q-32 -173 57.5 -260.5zM1146 245h-407q-56 0 -95.5 36.5t-44.5 90.5q-4 53 28 95.5t84 52.5l390 78l-48 240l-390 -78q-89 -17 -159.5 -72t-110 -134.5t-39.5 -169.5q0 -105 51.5 -193t140 -139.5t192.5 -51.5h408v245z" />
    <glyph glyph-name="uE1C5" unicode="&#xe1c5;" 
d="M1157 116q155 125 155 437q0 207 -63 393t-190.5 303t-308.5 117q-182 0 -308.5 -117t-190 -303.5t-63.5 -392.5q0 -312 155 -437t375 -125h64q220 0 375 125zM923 1035.5q72 -85.5 108 -217t36 -265.5q0 -79 -12.5 -136t-44 -98t-87.5 -62t-141 -21h-64
q-113 0 -175.5 37t-86 105.5t-23.5 174.5q0 134 36 265.5t108 217t173 85.5t173 -85.5z" />
    <glyph glyph-name="uE1C6" unicode="&#xe1c6;" 
d="M1259 97q-93 150 -143 337t-34.5 389.5t116.5 384.5l-144 177q-187 -58 -314.5 -69.5t-209.5 5t-191 55.5q-8 3 -12 5l-86 -222q120 -47 202 -68t189 -22.5t267 28.5q-90 -326 -46.5 -601t197.5 -527z" />
    <glyph glyph-name="uE1C7" unicode="&#xe1c7;" 
d="M1013 547.5q-125 -358.5 -134 -548.5h-260q-8 191 -132 548.5t-313 702.5l211 134q124 -216 211 -437t155 -548q46 226 102.5 402t119 309.5t142.5 273.5l211 -134q-188 -344 -313 -702.5z" />
    <glyph glyph-name="uE1C8" unicode="&#xe1c8;" 
d="M1013 809q-125 359 -134 548l-260 1q-8 -191 -132 -549.5t-313 -701.5l211 -135q80 140 142.5 273.5t118 304t105.5 407.5q48 -237 103.5 -407.5t118 -304t142.5 -273.5l211 135q-188 343 -313 702z" />
    <glyph glyph-name="uE1C9" unicode="&#xe1c9;" 
d="M929 822q-35 -24 -75.5 -34.5t-98.5 -17.5q-6 -1 -9 -1q-71 -8 -122 37t-53 127q0 49 25 91t66.5 67t88.5 25q55 0 95.5 -33t61.5 -83t21 -101v-77zM929 0h256v899q0 119 -53.5 228t-152 177t-228.5 68q-115 0 -215.5 -60t-160.5 -160.5t-60 -216.5q-1 -127 63.5 -229.5
t172 -155t229.5 -36.5q4 1 12 2q41 6 72.5 14t64.5 24v-554z" />
    <glyph glyph-name="uE1D0" unicode="&#xe1d0;" 
d="M648 63l-251 915q-9 35 8 67.5t51 44.5q35 14 70.5 -2.5t48.5 -52.5l159 -437l220 -21l396 660l-209 126l-264 -441l-73 196q-31 85 -98.5 142t-154.5 74t-172 -11q-83 -29 -140.5 -93t-78.5 -147.5t2 -167.5l250 -915z" />
    <glyph glyph-name="uE1D1" unicode="&#xe1d1;" 
d="M755 15.5q192 7.5 373 68.5l116 37l-78 232l-116 -38q-295 -96 -548 -29q30 257 183 497.5t274 380.5q3 4 4 4l-181 165l-2 -2q-140 -158 -318 -443.5t-206 -603.5l138 -223q169 -53 361 -45.5z" />
    <glyph glyph-name="uE1D2" unicode="&#xe1d2;" 
d="M570 878q84 88 84 230q0 163 -83 254.5t-239 91.5q-157 0 -239.5 -91.5t-82.5 -254.5q0 -142 83.5 -230t238.5 -88q154 0 238 88zM510 0l756 1432h-280l-755 -1432h279zM174 1113q0 95 39 139.5t119 44.5q79 0 118.5 -44.5t39.5 -139.5q0 -82 -38.5 -124t-119.5 -42
q-158 0 -158 166zM1406.5 65.5q83.5 87.5 83.5 229.5q0 164 -82.5 255.5t-239.5 91.5q-156 0 -239 -91.5t-83 -255.5q0 -142 84 -229.5t238 -87.5q155 0 238.5 87.5zM1010 301q0 94 39.5 139t118.5 45q80 0 119 -45t39 -139q0 -82 -38.5 -124t-119.5 -42q-158 0 -158 166z
" />
    <glyph glyph-name="uE1D3" unicode="&#xe1d3;" 
d="M750 923l171 -227l171 126l-191 202l249 103l-89 182l-210 -107l11 230h-224l11 -230l-210 107l-89 -182l247 -102l-189 -203l171 -126z" />
    <glyph glyph-name="uE1D4" unicode="&#xe1d4;" 
d="M866 190v299h323v229h-323v307h-233v-307h-322v-229h322v-299h233z" />
    <glyph glyph-name="uE1D5" unicode="&#xe1d5;" 
d="M875 0v230h-250v-230h250z" />
    <glyph glyph-name="uE1D6" unicode="&#xe1d6;" 
d="M1182 680v208h-864v-208h864zM1182 316v209h-864v-209h864z" />
    <glyph glyph-name="uE1D7" unicode="&#xe1d7;" 
d="M652 83l76 233h454v209h-394l52 155h342v208h-283l75 227h-136l-75 -227h-445v-208h385l-51 -155h-334v-209h273l-76 -233h137z" />
    <glyph glyph-name="uE1D8" unicode="&#xe1d8;" 
d="M866 322v299h323v229h-323v307h-233v-307h-322v-229h322v-299h233zM1189 0v229h-878v-229h878z" />
    <glyph glyph-name="uE1D9" unicode="&#xe1d9;" 
d="M1130 320l-234 234l234 235l-147 147l-236 -233l-230 235l-147 -147l234 -233l-225 -225l148 -147l226 224l233 -234z" />
    <glyph glyph-name="uE1E0" unicode="&#xe1e0;" 
d="M852 894v199h-206v-199h206zM1178 489v229h-856v-229h856zM852 124v198h-206v-198h206z" />
    <glyph glyph-name="uE1E1" unicode="&#xe1e1;" 
d="M1182 1313l-170 78l-694 -1337l169 -78zM499.5 1241.5q43.5 -43.5 43.5 -105.5q0 -61 -44 -104.5t-105 -43.5q-62 0 -105 43t-43 105t43 105.5t105 43.5t105.5 -43.5zM1211 336.5q43 -43.5 43 -105.5t-43.5 -105.5t-104.5 -43.5q-62 0 -105.5 43.5t-43.5 105.5
t43.5 105.5t105.5 43.5t105 -43.5z" />
    <glyph glyph-name="uE1E2" unicode="&#xe1e2;" 
d="M748 -249q75 41 116 119t41 178v222h-166v-222q0 -45 -16.5 -87.5t-54.5 -62.5l-73 -41l80 -146z" />
    <glyph glyph-name="uE1E3" unicode="&#xe1e3;" 
d="M1012 397l-151 68l-373 -819l152 -69z" />
    <glyph glyph-name="uE1E4" unicode="&#xe1e4;" 
d="M1178 488v230h-856v-230h856z" />
    <glyph glyph-name="uniFBB2" unicode="&#xfbb2;" horiz-adv-x="0" 
d="M125 214h-250q-1 -106 0 -214h250q1 108 0 214z" />
    <glyph glyph-name="uniFBB3" unicode="&#xfbb3;" horiz-adv-x="0" 
d="M125 0h-250q-1 -106 0 -214h250q1 108 0 214z" />
    <glyph glyph-name="uniFBB4" unicode="&#xfbb4;" horiz-adv-x="0" 
d="M7 208h-302q-1 -103 0 -208h302v208zM295 208h-302q-1 -103 0 -208h302q1 105 0 208z" />
    <glyph glyph-name="uniFBB5" unicode="&#xfbb5;" horiz-adv-x="0" 
d="M7 0h-302q-1 -105 0 -208h302v208zM295 0h-302q-1 -105 0 -208h302q1 103 0 208z" />
    <glyph glyph-name="uniFBB6" unicode="&#xfbb6;" horiz-adv-x="0" 
d="M7 208h-302q-1 -103 0 -208h302v208zM295 208h-302q-1 -103 0 -208h302q1 105 0 208zM121 527h-242v-209h242v209z" />
    <glyph glyph-name="uniFBB9" unicode="&#xfbb9;" horiz-adv-x="0" 
d="M7 0h-302q-1 -105 0 -208h302v208zM295 0h-302q-1 -105 0 -208h302q1 103 0 208zM121 -320h-242v-208h242v208z" />
    <glyph glyph-name="uniFD3E" unicode="&#xfd3e;" horiz-adv-x="965" 
d="M584 789q42 -42 42 -102q0 -59 -42 -100.5t-102 -41.5q-59 0 -101 41.5t-42 100.5q0 60 42 102t101 42q60 0 102 -42zM422 204.5q22 -72.5 49.5 -139.5t64.5 -138l47 -91l183 94l-47 92q-91 172 -127 348q101 32 166 119.5t65 197.5q0 111 -65 199t-166 120
q34 166 127 348l47 91l-183 94l-47 -92q-114 -220 -154 -434q-105 -33 -172.5 -122.5t-67.5 -203.5q0 -112 67 -201.5t172 -122.5q19 -86 41 -158.5z" />
    <glyph glyph-name="uniFD3F" unicode="&#xfd3f;" horiz-adv-x="965" 
d="M381 789q-42 -42 -42 -102q0 -59 42 -100.5t101 -41.5q60 0 102 41.5t42 100.5q0 60 -42 102t-102 42q-59 0 -101 -42zM542.5 204.5q-22.5 -72.5 -50 -139.5t-63.5 -138l-47 -91l-183 94l47 92q90 172 127 348q-101 32 -166 119.5t-65 197.5q0 111 64.5 199t166.5 120
q-35 166 -127 348l-47 91l183 94l47 -92q113 -220 154 -434q105 -33 172.5 -122.5t67.5 -203.5q0 -112 -67 -201.5t-172 -122.5q-19 -86 -41.5 -158.5z" />
    <glyph glyph-name="uni0627_alt.short" horiz-adv-x="596" 
d="M176 0h244v1273h-244v-1273z" />
    <glyph glyph-name="uni0627.fina.short" horiz-adv-x="661" 
d="M661 260h-92q-64 0 -106.5 45.5t-42.5 110.5v857h-244v-888q0 -104 48 -192t137.5 -140.5t207.5 -52.5h92v260z" />
    <glyph glyph-name="uni066E.fina" horiz-adv-x="1839" 
d="M1389 40.5q70 40.5 117 113.5q47 -73 117 -113.5t161 -40.5h55v260h-55q-65 0 -110.5 45.5t-45.5 110.5v296h-244v-296q0 -65 -46 -110.5t-111 -45.5h-692q-64 0 -110 45.5t-46 110.5v333h-244v-364q0 -105 53.5 -193.5t145.5 -140t201 -51.5h692q92 0 162 40.5z" />
    <glyph glyph-name="uni06A1.fina" horiz-adv-x="1868" 
d="M1374.5 678.5q42.5 -17.5 70.5 -53t28 -85.5q0 -151 -185 -279q-184 128 -184 279q0 50 27.5 85.5t70 53t86.5 17.5t86.5 -17.5zM1041 0q107 0 169 17t78 35q15 -18 77.5 -35t169.5 -17h334v260h-273q50 49 85.5 121.5t35.5 158.5q0 111 -57 203t-155 145t-217 53
t-217 -53t-155 -145t-57 -203q0 -86 35.5 -158.5t85.5 -121.5h-445q-64 0 -110 45.5t-46 110.5v333h-244v-364q0 -105 53.5 -193.5t145.5 -140t201 -51.5h506z" />
    <glyph glyph-name="uni06A1.init" horiz-adv-x="1103" 
d="M515 664q-84 0 -116 24t-32 88q0 75 47.5 141t130.5 66q58 0 98.5 -35.5t60.5 -85.5t20 -92v-106h-209zM-56 179.5q-15 -49.5 0 -99.5t56 -80h516q120 0 224 58t166 153t62 199v360q0 114 -55 220t-151.5 171.5t-216.5 65.5q-116 0 -213 -65.5t-153.5 -173t-56.5 -227.5
q0 -111 28.5 -183t103 -111.5t208.5 -39.5h262v-17q0 -37 -29 -72t-77 -56.5t-102 -21.5h-516q-41 -31 -56 -80.5z" />
    <glyph glyph-name="uni06A1.medi" horiz-adv-x="1162" 
d="M667.5 678.5q42.5 -17.5 70 -53t27.5 -85.5q0 -149 -184 -279q-184 128 -184 279q0 50 27.5 85.5t70 53t86.5 17.5t86.5 -17.5zM-56 179.5q-15 -49.5 0 -99.5t56 -80h334q107 0 169 17t78 35q16 -18 78 -35t169 -17h334v260h-273q50 49 85 121.5t35 158.5
q0 111 -56.5 203t-155 145t-216.5 53q-119 0 -217 -53t-155 -145t-57 -203q0 -86 35 -158.5t86 -121.5h-273q-41 -31 -56 -80.5z" />
    <glyph glyph-name="uniE014" horiz-adv-x="1743" 
d="M1130 261q-100 0 -139 36.5t-39 109.5q0 50 17.5 99.5t57.5 83.5t103 34q97 0 138 -66t41 -151v-146h-179zM1743 260h-189l-1 147q0 135 -53.5 240t-149.5 163.5t-220 58.5q-121 0 -217.5 -59.5t-151 -164.5t-54.5 -238q0 -192 103.5 -299t319.5 -107h176
q-1 -130 -83.5 -206t-217.5 -76h-284q-110 0 -187 47.5t-116 126t-39 170.5v450h-244v-481q0 -154 71.5 -285.5t205 -209.5t309.5 -78h284q142 0 266.5 72t201 196.5t80.5 272.5h190v260z" />
    <glyph glyph-name="uni06D2.2.fina" horiz-adv-x="960" 
d="M1065 -233h-530q-67 0 -111.5 31t-44.5 86t44.5 85.5t111.5 30.5h424v260h-424q-110 0 -201.5 -48.5t-145 -134.5t-53.5 -193t53 -189t144.5 -127t202.5 -45h530v244z" />
    <glyph glyph-name="uni06D3.2.fina" horiz-adv-x="960" 
d="M1065 -233h-530q-67 0 -111.5 31t-44.5 86t44.5 85.5t111.5 30.5h424v260h-424q-110 0 -201.5 -48.5t-145 -134.5t-53.5 -193t53 -189t144.5 -127t202.5 -45h530v244zM279 468l463 177l-48 127l-151 -58q-58 -5 -93 21.5t-34 77.5q0 39 24.5 72t65.5 34q28 0 52 -8.5
t55 -23.5q6 -3 9 -5l34 128q-41 23 -74.5 33.5t-75.5 10.5q-67 0 -118.5 -35t-79.5 -91t-28 -115q0 -51 24 -96t66 -69l-138 -53z" />
    <glyph glyph-name="uni06270644.init" horiz-adv-x="1254" 
d="M420 408v865h-244v-865h244zM176 260v-260h501q109 0 201 54t146 146t54 201v1041h-245v-1026q0 -65 -45.5 -110.5t-110.5 -45.5h-501z" />
    <glyph glyph-name="uni06270644.medi" horiz-adv-x="1289" 
d="M1289 260h-55q-65 0 -110.5 45.5t-45.5 110.5v1026h-245v-1026q0 -65 -45.5 -110.5t-110.5 -45.5h-501v-260h501q92 0 162 40.5t117 113.5q46 -73 116.5 -113.5t161.5 -40.5h55v260zM420 408v865h-244v-865h244z" />
    </font>
</defs>
</svg>
